G04 #@! TF.GenerationSoftware,KiCad,Pcbnew,(5.0.2)-1*
G04 #@! TF.CreationDate,2019-01-24T00:30:49-05:00*
G04 #@! TF.ProjectId,4x5macro,3478356d-6163-4726-9f2e-6b696361645f,rev?*
G04 #@! TF.SameCoordinates,Original*
G04 #@! TF.FileFunction,Legend,Top*
G04 #@! TF.FilePolarity,Positive*
%FSLAX46Y46*%
G04 Gerber Fmt 4.6, Leading zero omitted, Abs format (unit mm)*
G04 Created by KiCad (PCBNEW (5.0.2)-1) date 1/24/2019 12:30:49 AM*
%MOMM*%
%LPD*%
G01*
G04 APERTURE LIST*
%ADD10C,0.381000*%
%ADD11C,0.120000*%
%ADD12C,0.150000*%
%ADD13C,0.203200*%
G04 APERTURE END LIST*
D10*
G04 #@! TO.C,SW6*
X63182500Y-39560500D02*
X64960500Y-39560500D01*
X74104500Y-39560500D02*
X75882500Y-39560500D01*
X75882500Y-39560500D02*
X75882500Y-41338500D01*
X75882500Y-50482500D02*
X75882500Y-52260500D01*
X75882500Y-52260500D02*
X74104500Y-52260500D01*
X64960500Y-52260500D02*
X63182500Y-52260500D01*
X63182500Y-52260500D02*
X63182500Y-50482500D01*
X63182500Y-41338500D02*
X63182500Y-39560500D01*
G04 #@! TO.C,SW3*
X44259500Y-41338500D02*
X44259500Y-39560500D01*
X44259500Y-52260500D02*
X44259500Y-50482500D01*
X46037500Y-52260500D02*
X44259500Y-52260500D01*
X56959500Y-52260500D02*
X55181500Y-52260500D01*
X56959500Y-50482500D02*
X56959500Y-52260500D01*
X56959500Y-39560500D02*
X56959500Y-41338500D01*
X55181500Y-39560500D02*
X56959500Y-39560500D01*
X44259500Y-39560500D02*
X46037500Y-39560500D01*
D11*
G04 #@! TO.C,D1*
X47473500Y-17676000D02*
X47473500Y-19916000D01*
X47473500Y-19916000D02*
X51713500Y-19916000D01*
X51713500Y-19916000D02*
X51713500Y-17676000D01*
X51713500Y-17676000D02*
X47473500Y-17676000D01*
X46823500Y-18796000D02*
X47473500Y-18796000D01*
X52363500Y-18796000D02*
X51713500Y-18796000D01*
X48193500Y-17676000D02*
X48193500Y-19916000D01*
X48313500Y-17676000D02*
X48313500Y-19916000D01*
X48073500Y-17676000D02*
X48073500Y-19916000D01*
G04 #@! TO.C,D2*
X47819500Y-35900500D02*
X47819500Y-38140500D01*
X48059500Y-35900500D02*
X48059500Y-38140500D01*
X47939500Y-35900500D02*
X47939500Y-38140500D01*
X52109500Y-37020500D02*
X51459500Y-37020500D01*
X46569500Y-37020500D02*
X47219500Y-37020500D01*
X51459500Y-35900500D02*
X47219500Y-35900500D01*
X51459500Y-38140500D02*
X51459500Y-35900500D01*
X47219500Y-38140500D02*
X51459500Y-38140500D01*
X47219500Y-35900500D02*
X47219500Y-38140500D01*
G04 #@! TO.C,D3*
X47819500Y-55268000D02*
X47819500Y-57508000D01*
X48059500Y-55268000D02*
X48059500Y-57508000D01*
X47939500Y-55268000D02*
X47939500Y-57508000D01*
X52109500Y-56388000D02*
X51459500Y-56388000D01*
X46569500Y-56388000D02*
X47219500Y-56388000D01*
X51459500Y-55268000D02*
X47219500Y-55268000D01*
X51459500Y-57508000D02*
X51459500Y-55268000D01*
X47219500Y-57508000D02*
X51459500Y-57508000D01*
X47219500Y-55268000D02*
X47219500Y-57508000D01*
G04 #@! TO.C,D4*
X66142500Y-17676000D02*
X66142500Y-19916000D01*
X66142500Y-19916000D02*
X70382500Y-19916000D01*
X70382500Y-19916000D02*
X70382500Y-17676000D01*
X70382500Y-17676000D02*
X66142500Y-17676000D01*
X65492500Y-18796000D02*
X66142500Y-18796000D01*
X71032500Y-18796000D02*
X70382500Y-18796000D01*
X66862500Y-17676000D02*
X66862500Y-19916000D01*
X66982500Y-17676000D02*
X66982500Y-19916000D01*
X66742500Y-17676000D02*
X66742500Y-19916000D01*
G04 #@! TO.C,D5*
X66142500Y-36472000D02*
X66142500Y-38712000D01*
X66142500Y-38712000D02*
X70382500Y-38712000D01*
X70382500Y-38712000D02*
X70382500Y-36472000D01*
X70382500Y-36472000D02*
X66142500Y-36472000D01*
X65492500Y-37592000D02*
X66142500Y-37592000D01*
X71032500Y-37592000D02*
X70382500Y-37592000D01*
X66862500Y-36472000D02*
X66862500Y-38712000D01*
X66982500Y-36472000D02*
X66982500Y-38712000D01*
X66742500Y-36472000D02*
X66742500Y-38712000D01*
G04 #@! TO.C,D6*
X66206000Y-55204500D02*
X66206000Y-57444500D01*
X66206000Y-57444500D02*
X70446000Y-57444500D01*
X70446000Y-57444500D02*
X70446000Y-55204500D01*
X70446000Y-55204500D02*
X66206000Y-55204500D01*
X65556000Y-56324500D02*
X66206000Y-56324500D01*
X71096000Y-56324500D02*
X70446000Y-56324500D01*
X66926000Y-55204500D02*
X66926000Y-57444500D01*
X67046000Y-55204500D02*
X67046000Y-57444500D01*
X66806000Y-55204500D02*
X66806000Y-57444500D01*
G04 #@! TO.C,D7*
X85065500Y-17549000D02*
X85065500Y-19789000D01*
X85065500Y-19789000D02*
X89305500Y-19789000D01*
X89305500Y-19789000D02*
X89305500Y-17549000D01*
X89305500Y-17549000D02*
X85065500Y-17549000D01*
X84415500Y-18669000D02*
X85065500Y-18669000D01*
X89955500Y-18669000D02*
X89305500Y-18669000D01*
X85785500Y-17549000D02*
X85785500Y-19789000D01*
X85905500Y-17549000D02*
X85905500Y-19789000D01*
X85665500Y-17549000D02*
X85665500Y-19789000D01*
G04 #@! TO.C,D8*
X85665500Y-36472000D02*
X85665500Y-38712000D01*
X85905500Y-36472000D02*
X85905500Y-38712000D01*
X85785500Y-36472000D02*
X85785500Y-38712000D01*
X89955500Y-37592000D02*
X89305500Y-37592000D01*
X84415500Y-37592000D02*
X85065500Y-37592000D01*
X89305500Y-36472000D02*
X85065500Y-36472000D01*
X89305500Y-38712000D02*
X89305500Y-36472000D01*
X85065500Y-38712000D02*
X89305500Y-38712000D01*
X85065500Y-36472000D02*
X85065500Y-38712000D01*
G04 #@! TO.C,D9*
X85665500Y-55268000D02*
X85665500Y-57508000D01*
X85905500Y-55268000D02*
X85905500Y-57508000D01*
X85785500Y-55268000D02*
X85785500Y-57508000D01*
X89955500Y-56388000D02*
X89305500Y-56388000D01*
X84415500Y-56388000D02*
X85065500Y-56388000D01*
X89305500Y-55268000D02*
X85065500Y-55268000D01*
X89305500Y-57508000D02*
X89305500Y-55268000D01*
X85065500Y-57508000D02*
X89305500Y-57508000D01*
X85065500Y-55268000D02*
X85065500Y-57508000D01*
G04 #@! TO.C,D10*
X104652000Y-17612500D02*
X104652000Y-19852500D01*
X104892000Y-17612500D02*
X104892000Y-19852500D01*
X104772000Y-17612500D02*
X104772000Y-19852500D01*
X108942000Y-18732500D02*
X108292000Y-18732500D01*
X103402000Y-18732500D02*
X104052000Y-18732500D01*
X108292000Y-17612500D02*
X104052000Y-17612500D01*
X108292000Y-19852500D02*
X108292000Y-17612500D01*
X104052000Y-19852500D02*
X108292000Y-19852500D01*
X104052000Y-17612500D02*
X104052000Y-19852500D01*
G04 #@! TO.C,D11*
X103988500Y-36472000D02*
X103988500Y-38712000D01*
X103988500Y-38712000D02*
X108228500Y-38712000D01*
X108228500Y-38712000D02*
X108228500Y-36472000D01*
X108228500Y-36472000D02*
X103988500Y-36472000D01*
X103338500Y-37592000D02*
X103988500Y-37592000D01*
X108878500Y-37592000D02*
X108228500Y-37592000D01*
X104708500Y-36472000D02*
X104708500Y-38712000D01*
X104828500Y-36472000D02*
X104828500Y-38712000D01*
X104588500Y-36472000D02*
X104588500Y-38712000D01*
G04 #@! TO.C,D12*
X104652000Y-55268000D02*
X104652000Y-57508000D01*
X104892000Y-55268000D02*
X104892000Y-57508000D01*
X104772000Y-55268000D02*
X104772000Y-57508000D01*
X108942000Y-56388000D02*
X108292000Y-56388000D01*
X103402000Y-56388000D02*
X104052000Y-56388000D01*
X108292000Y-55268000D02*
X104052000Y-55268000D01*
X108292000Y-57508000D02*
X108292000Y-55268000D01*
X104052000Y-57508000D02*
X108292000Y-57508000D01*
X104052000Y-55268000D02*
X104052000Y-57508000D01*
G04 #@! TO.C,SW1*
X87899000Y-26947500D02*
X88899000Y-26947500D01*
X88399000Y-26447500D02*
X88399000Y-27447500D01*
X94499000Y-30247500D02*
X94499000Y-32847500D01*
X94499000Y-25647500D02*
X94499000Y-28247500D01*
X94499000Y-21047500D02*
X94499000Y-23647500D01*
X81199000Y-22847500D02*
X80899000Y-23147500D01*
X80599000Y-22847500D02*
X81199000Y-22847500D01*
X80899000Y-23147500D02*
X80599000Y-22847500D01*
X82299000Y-21147500D02*
X82299000Y-32847500D01*
X86399000Y-21147500D02*
X82299000Y-21147500D01*
X86399000Y-32847500D02*
X82299000Y-32847500D01*
X94499000Y-32847500D02*
X90399000Y-32847500D01*
X90399000Y-21047500D02*
X94499000Y-21047500D01*
X91399000Y-26947500D02*
G75*
G03X91399000Y-26947500I-3000000J0D01*
G01*
D10*
G04 #@! TO.C,SW2*
X44259500Y-20637500D02*
X46037500Y-20637500D01*
X55181500Y-20637500D02*
X56959500Y-20637500D01*
X56959500Y-20637500D02*
X56959500Y-22415500D01*
X56959500Y-31559500D02*
X56959500Y-33337500D01*
X56959500Y-33337500D02*
X55181500Y-33337500D01*
X46037500Y-33337500D02*
X44259500Y-33337500D01*
X44259500Y-33337500D02*
X44259500Y-31559500D01*
X44259500Y-22415500D02*
X44259500Y-20637500D01*
G04 #@! TO.C,SW4*
X44259500Y-58483500D02*
X46037500Y-58483500D01*
X55181500Y-58483500D02*
X56959500Y-58483500D01*
X56959500Y-58483500D02*
X56959500Y-60261500D01*
X56959500Y-69405500D02*
X56959500Y-71183500D01*
X56959500Y-71183500D02*
X55181500Y-71183500D01*
X46037500Y-71183500D02*
X44259500Y-71183500D01*
X44259500Y-71183500D02*
X44259500Y-69405500D01*
X44259500Y-60261500D02*
X44259500Y-58483500D01*
G04 #@! TO.C,SW5*
X63182500Y-22415500D02*
X63182500Y-20637500D01*
X63182500Y-33337500D02*
X63182500Y-31559500D01*
X64960500Y-33337500D02*
X63182500Y-33337500D01*
X75882500Y-33337500D02*
X74104500Y-33337500D01*
X75882500Y-31559500D02*
X75882500Y-33337500D01*
X75882500Y-20637500D02*
X75882500Y-22415500D01*
X74104500Y-20637500D02*
X75882500Y-20637500D01*
X63182500Y-20637500D02*
X64960500Y-20637500D01*
G04 #@! TO.C,SW7*
X63182500Y-60261500D02*
X63182500Y-58483500D01*
X63182500Y-71183500D02*
X63182500Y-69405500D01*
X64960500Y-71183500D02*
X63182500Y-71183500D01*
X75882500Y-71183500D02*
X74104500Y-71183500D01*
X75882500Y-69405500D02*
X75882500Y-71183500D01*
X75882500Y-58483500D02*
X75882500Y-60261500D01*
X74104500Y-58483500D02*
X75882500Y-58483500D01*
X63182500Y-58483500D02*
X64960500Y-58483500D01*
G04 #@! TO.C,SW8*
X82105500Y-20637500D02*
X83883500Y-20637500D01*
X93027500Y-20637500D02*
X94805500Y-20637500D01*
X94805500Y-20637500D02*
X94805500Y-22415500D01*
X94805500Y-31559500D02*
X94805500Y-33337500D01*
X94805500Y-33337500D02*
X93027500Y-33337500D01*
X83883500Y-33337500D02*
X82105500Y-33337500D01*
X82105500Y-33337500D02*
X82105500Y-31559500D01*
X82105500Y-22415500D02*
X82105500Y-20637500D01*
G04 #@! TO.C,SW9*
X82105500Y-41338500D02*
X82105500Y-39560500D01*
X82105500Y-52260500D02*
X82105500Y-50482500D01*
X83883500Y-52260500D02*
X82105500Y-52260500D01*
X94805500Y-52260500D02*
X93027500Y-52260500D01*
X94805500Y-50482500D02*
X94805500Y-52260500D01*
X94805500Y-39560500D02*
X94805500Y-41338500D01*
X93027500Y-39560500D02*
X94805500Y-39560500D01*
X82105500Y-39560500D02*
X83883500Y-39560500D01*
G04 #@! TO.C,SW10*
X82105500Y-58483500D02*
X83883500Y-58483500D01*
X93027500Y-58483500D02*
X94805500Y-58483500D01*
X94805500Y-58483500D02*
X94805500Y-60261500D01*
X94805500Y-69405500D02*
X94805500Y-71183500D01*
X94805500Y-71183500D02*
X93027500Y-71183500D01*
X83883500Y-71183500D02*
X82105500Y-71183500D01*
X82105500Y-71183500D02*
X82105500Y-69405500D01*
X82105500Y-60261500D02*
X82105500Y-58483500D01*
G04 #@! TO.C,SW11*
X101028500Y-20637500D02*
X102806500Y-20637500D01*
X111950500Y-20637500D02*
X113728500Y-20637500D01*
X113728500Y-20637500D02*
X113728500Y-22415500D01*
X113728500Y-31559500D02*
X113728500Y-33337500D01*
X113728500Y-33337500D02*
X111950500Y-33337500D01*
X102806500Y-33337500D02*
X101028500Y-33337500D01*
X101028500Y-33337500D02*
X101028500Y-31559500D01*
X101028500Y-22415500D02*
X101028500Y-20637500D01*
G04 #@! TO.C,SW12*
X101028500Y-41338500D02*
X101028500Y-39560500D01*
X101028500Y-52260500D02*
X101028500Y-50482500D01*
X102806500Y-52260500D02*
X101028500Y-52260500D01*
X113728500Y-52260500D02*
X111950500Y-52260500D01*
X113728500Y-50482500D02*
X113728500Y-52260500D01*
X113728500Y-39560500D02*
X113728500Y-41338500D01*
X111950500Y-39560500D02*
X113728500Y-39560500D01*
X101028500Y-39560500D02*
X102806500Y-39560500D01*
G04 #@! TO.C,SW13*
X101028500Y-60261500D02*
X101028500Y-58483500D01*
X101028500Y-71183500D02*
X101028500Y-69405500D01*
X102806500Y-71183500D02*
X101028500Y-71183500D01*
X113728500Y-71183500D02*
X111950500Y-71183500D01*
X113728500Y-69405500D02*
X113728500Y-71183500D01*
X113728500Y-58483500D02*
X113728500Y-60261500D01*
X111950500Y-58483500D02*
X113728500Y-58483500D01*
X101028500Y-58483500D02*
X102806500Y-58483500D01*
D11*
G04 #@! TO.C,SW14*
X110449000Y-26884000D02*
G75*
G03X110449000Y-26884000I-3000000J0D01*
G01*
X109449000Y-20984000D02*
X113549000Y-20984000D01*
X113549000Y-32784000D02*
X109449000Y-32784000D01*
X105449000Y-32784000D02*
X101349000Y-32784000D01*
X105449000Y-21084000D02*
X101349000Y-21084000D01*
X101349000Y-21084000D02*
X101349000Y-32784000D01*
X99949000Y-23084000D02*
X99649000Y-22784000D01*
X99649000Y-22784000D02*
X100249000Y-22784000D01*
X100249000Y-22784000D02*
X99949000Y-23084000D01*
X113549000Y-20984000D02*
X113549000Y-23584000D01*
X113549000Y-25584000D02*
X113549000Y-28184000D01*
X113549000Y-30184000D02*
X113549000Y-32784000D01*
X107449000Y-26384000D02*
X107449000Y-27384000D01*
X106949000Y-26884000D02*
X107949000Y-26884000D01*
D10*
G04 #@! TO.C,U1*
X44259500Y-20320000D02*
X41719500Y-20320000D01*
X41719500Y-17780000D02*
X41719500Y-20320000D01*
X59499500Y-17780000D02*
X41719500Y-17780000D01*
X59499500Y-20320000D02*
X59499500Y-17780000D01*
D12*
G36*
X55541068Y-26799360D02*
X55541068Y-26999360D01*
X55441068Y-26999360D01*
X55441068Y-26799360D01*
X55541068Y-26799360D01*
G37*
X55541068Y-26799360D02*
X55541068Y-26999360D01*
X55441068Y-26999360D01*
X55441068Y-26799360D01*
X55541068Y-26799360D01*
G36*
X55141068Y-26199360D02*
X55141068Y-26999360D01*
X55041068Y-26999360D01*
X55041068Y-26199360D01*
X55141068Y-26199360D01*
G37*
X55141068Y-26199360D02*
X55141068Y-26999360D01*
X55041068Y-26999360D01*
X55041068Y-26199360D01*
X55141068Y-26199360D01*
G36*
X55541068Y-26199360D02*
X55541068Y-26299360D01*
X55041068Y-26299360D01*
X55041068Y-26199360D01*
X55541068Y-26199360D01*
G37*
X55541068Y-26199360D02*
X55541068Y-26299360D01*
X55041068Y-26299360D01*
X55041068Y-26199360D01*
X55541068Y-26199360D01*
G36*
X55341068Y-26599360D02*
X55341068Y-26699360D01*
X55241068Y-26699360D01*
X55241068Y-26599360D01*
X55341068Y-26599360D01*
G37*
X55341068Y-26599360D02*
X55341068Y-26699360D01*
X55241068Y-26699360D01*
X55241068Y-26599360D01*
X55341068Y-26599360D01*
G36*
X55541068Y-26199360D02*
X55541068Y-26499360D01*
X55441068Y-26499360D01*
X55441068Y-26199360D01*
X55541068Y-26199360D01*
G37*
X55541068Y-26199360D02*
X55541068Y-26499360D01*
X55441068Y-26499360D01*
X55441068Y-26199360D01*
X55541068Y-26199360D01*
D10*
X44259500Y-22860000D02*
X41719500Y-22860000D01*
X44259500Y-20320000D02*
X44259500Y-22860000D01*
X59499500Y-50800000D02*
X59499500Y-20320000D01*
X41719500Y-50800000D02*
X59499500Y-50800000D01*
X41719500Y-20320000D02*
X41719500Y-50800000D01*
G04 #@! TO.C,SW6*
D13*
X67500500Y-49599547D02*
X67718214Y-49660023D01*
X68081071Y-49660023D01*
X68226214Y-49599547D01*
X68298785Y-49539071D01*
X68371357Y-49418119D01*
X68371357Y-49297166D01*
X68298785Y-49176214D01*
X68226214Y-49115738D01*
X68081071Y-49055261D01*
X67790785Y-48994785D01*
X67645642Y-48934309D01*
X67573071Y-48873833D01*
X67500500Y-48752880D01*
X67500500Y-48631928D01*
X67573071Y-48510976D01*
X67645642Y-48450500D01*
X67790785Y-48390023D01*
X68153642Y-48390023D01*
X68371357Y-48450500D01*
X68879357Y-48390023D02*
X69242214Y-49660023D01*
X69532500Y-48752880D01*
X69822785Y-49660023D01*
X70185642Y-48390023D01*
X71419357Y-48390023D02*
X71129071Y-48390023D01*
X70983928Y-48450500D01*
X70911357Y-48510976D01*
X70766214Y-48692404D01*
X70693642Y-48934309D01*
X70693642Y-49418119D01*
X70766214Y-49539071D01*
X70838785Y-49599547D01*
X70983928Y-49660023D01*
X71274214Y-49660023D01*
X71419357Y-49599547D01*
X71491928Y-49539071D01*
X71564500Y-49418119D01*
X71564500Y-49115738D01*
X71491928Y-48994785D01*
X71419357Y-48934309D01*
X71274214Y-48873833D01*
X70983928Y-48873833D01*
X70838785Y-48934309D01*
X70766214Y-48994785D01*
X70693642Y-49115738D01*
G04 #@! TO.C,SW3*
X48577500Y-49599547D02*
X48795214Y-49660023D01*
X49158071Y-49660023D01*
X49303214Y-49599547D01*
X49375785Y-49539071D01*
X49448357Y-49418119D01*
X49448357Y-49297166D01*
X49375785Y-49176214D01*
X49303214Y-49115738D01*
X49158071Y-49055261D01*
X48867785Y-48994785D01*
X48722642Y-48934309D01*
X48650071Y-48873833D01*
X48577500Y-48752880D01*
X48577500Y-48631928D01*
X48650071Y-48510976D01*
X48722642Y-48450500D01*
X48867785Y-48390023D01*
X49230642Y-48390023D01*
X49448357Y-48450500D01*
X49956357Y-48390023D02*
X50319214Y-49660023D01*
X50609500Y-48752880D01*
X50899785Y-49660023D01*
X51262642Y-48390023D01*
X51698071Y-48390023D02*
X52641500Y-48390023D01*
X52133500Y-48873833D01*
X52351214Y-48873833D01*
X52496357Y-48934309D01*
X52568928Y-48994785D01*
X52641500Y-49115738D01*
X52641500Y-49418119D01*
X52568928Y-49539071D01*
X52496357Y-49599547D01*
X52351214Y-49660023D01*
X51915785Y-49660023D01*
X51770642Y-49599547D01*
X51698071Y-49539071D01*
G04 #@! TO.C,D1*
D12*
X48855404Y-17128380D02*
X48855404Y-16128380D01*
X49093500Y-16128380D01*
X49236357Y-16176000D01*
X49331595Y-16271238D01*
X49379214Y-16366476D01*
X49426833Y-16556952D01*
X49426833Y-16699809D01*
X49379214Y-16890285D01*
X49331595Y-16985523D01*
X49236357Y-17080761D01*
X49093500Y-17128380D01*
X48855404Y-17128380D01*
X50379214Y-17128380D02*
X49807785Y-17128380D01*
X50093500Y-17128380D02*
X50093500Y-16128380D01*
X49998261Y-16271238D01*
X49903023Y-16366476D01*
X49807785Y-16414095D01*
X45521595Y-17448380D02*
X45521595Y-16448380D01*
X46093023Y-17448380D02*
X45664452Y-16876952D01*
X46093023Y-16448380D02*
X45521595Y-17019809D01*
G04 #@! TO.C,D2*
X48601404Y-35352880D02*
X48601404Y-34352880D01*
X48839500Y-34352880D01*
X48982357Y-34400500D01*
X49077595Y-34495738D01*
X49125214Y-34590976D01*
X49172833Y-34781452D01*
X49172833Y-34924309D01*
X49125214Y-35114785D01*
X49077595Y-35210023D01*
X48982357Y-35305261D01*
X48839500Y-35352880D01*
X48601404Y-35352880D01*
X49553785Y-34448119D02*
X49601404Y-34400500D01*
X49696642Y-34352880D01*
X49934738Y-34352880D01*
X50029976Y-34400500D01*
X50077595Y-34448119D01*
X50125214Y-34543357D01*
X50125214Y-34638595D01*
X50077595Y-34781452D01*
X49506166Y-35352880D01*
X50125214Y-35352880D01*
X45267595Y-35672880D02*
X45267595Y-34672880D01*
X45839023Y-35672880D02*
X45410452Y-35101452D01*
X45839023Y-34672880D02*
X45267595Y-35244309D01*
G04 #@! TO.C,D3*
X48601404Y-54720380D02*
X48601404Y-53720380D01*
X48839500Y-53720380D01*
X48982357Y-53768000D01*
X49077595Y-53863238D01*
X49125214Y-53958476D01*
X49172833Y-54148952D01*
X49172833Y-54291809D01*
X49125214Y-54482285D01*
X49077595Y-54577523D01*
X48982357Y-54672761D01*
X48839500Y-54720380D01*
X48601404Y-54720380D01*
X49506166Y-53720380D02*
X50125214Y-53720380D01*
X49791880Y-54101333D01*
X49934738Y-54101333D01*
X50029976Y-54148952D01*
X50077595Y-54196571D01*
X50125214Y-54291809D01*
X50125214Y-54529904D01*
X50077595Y-54625142D01*
X50029976Y-54672761D01*
X49934738Y-54720380D01*
X49649023Y-54720380D01*
X49553785Y-54672761D01*
X49506166Y-54625142D01*
X45267595Y-55040380D02*
X45267595Y-54040380D01*
X45839023Y-55040380D02*
X45410452Y-54468952D01*
X45839023Y-54040380D02*
X45267595Y-54611809D01*
G04 #@! TO.C,D4*
X67524404Y-17128380D02*
X67524404Y-16128380D01*
X67762500Y-16128380D01*
X67905357Y-16176000D01*
X68000595Y-16271238D01*
X68048214Y-16366476D01*
X68095833Y-16556952D01*
X68095833Y-16699809D01*
X68048214Y-16890285D01*
X68000595Y-16985523D01*
X67905357Y-17080761D01*
X67762500Y-17128380D01*
X67524404Y-17128380D01*
X68952976Y-16461714D02*
X68952976Y-17128380D01*
X68714880Y-16080761D02*
X68476785Y-16795047D01*
X69095833Y-16795047D01*
X64190595Y-17448380D02*
X64190595Y-16448380D01*
X64762023Y-17448380D02*
X64333452Y-16876952D01*
X64762023Y-16448380D02*
X64190595Y-17019809D01*
G04 #@! TO.C,D5*
X67524404Y-35924380D02*
X67524404Y-34924380D01*
X67762500Y-34924380D01*
X67905357Y-34972000D01*
X68000595Y-35067238D01*
X68048214Y-35162476D01*
X68095833Y-35352952D01*
X68095833Y-35495809D01*
X68048214Y-35686285D01*
X68000595Y-35781523D01*
X67905357Y-35876761D01*
X67762500Y-35924380D01*
X67524404Y-35924380D01*
X69000595Y-34924380D02*
X68524404Y-34924380D01*
X68476785Y-35400571D01*
X68524404Y-35352952D01*
X68619642Y-35305333D01*
X68857738Y-35305333D01*
X68952976Y-35352952D01*
X69000595Y-35400571D01*
X69048214Y-35495809D01*
X69048214Y-35733904D01*
X69000595Y-35829142D01*
X68952976Y-35876761D01*
X68857738Y-35924380D01*
X68619642Y-35924380D01*
X68524404Y-35876761D01*
X68476785Y-35829142D01*
X64190595Y-36244380D02*
X64190595Y-35244380D01*
X64762023Y-36244380D02*
X64333452Y-35672952D01*
X64762023Y-35244380D02*
X64190595Y-35815809D01*
G04 #@! TO.C,D6*
X67587904Y-54656880D02*
X67587904Y-53656880D01*
X67826000Y-53656880D01*
X67968857Y-53704500D01*
X68064095Y-53799738D01*
X68111714Y-53894976D01*
X68159333Y-54085452D01*
X68159333Y-54228309D01*
X68111714Y-54418785D01*
X68064095Y-54514023D01*
X67968857Y-54609261D01*
X67826000Y-54656880D01*
X67587904Y-54656880D01*
X69016476Y-53656880D02*
X68826000Y-53656880D01*
X68730761Y-53704500D01*
X68683142Y-53752119D01*
X68587904Y-53894976D01*
X68540285Y-54085452D01*
X68540285Y-54466404D01*
X68587904Y-54561642D01*
X68635523Y-54609261D01*
X68730761Y-54656880D01*
X68921238Y-54656880D01*
X69016476Y-54609261D01*
X69064095Y-54561642D01*
X69111714Y-54466404D01*
X69111714Y-54228309D01*
X69064095Y-54133071D01*
X69016476Y-54085452D01*
X68921238Y-54037833D01*
X68730761Y-54037833D01*
X68635523Y-54085452D01*
X68587904Y-54133071D01*
X68540285Y-54228309D01*
X64254095Y-54976880D02*
X64254095Y-53976880D01*
X64825523Y-54976880D02*
X64396952Y-54405452D01*
X64825523Y-53976880D02*
X64254095Y-54548309D01*
G04 #@! TO.C,D7*
X86447404Y-17001380D02*
X86447404Y-16001380D01*
X86685500Y-16001380D01*
X86828357Y-16049000D01*
X86923595Y-16144238D01*
X86971214Y-16239476D01*
X87018833Y-16429952D01*
X87018833Y-16572809D01*
X86971214Y-16763285D01*
X86923595Y-16858523D01*
X86828357Y-16953761D01*
X86685500Y-17001380D01*
X86447404Y-17001380D01*
X87352166Y-16001380D02*
X88018833Y-16001380D01*
X87590261Y-17001380D01*
X83113595Y-17321380D02*
X83113595Y-16321380D01*
X83685023Y-17321380D02*
X83256452Y-16749952D01*
X83685023Y-16321380D02*
X83113595Y-16892809D01*
G04 #@! TO.C,D8*
X86447404Y-35924380D02*
X86447404Y-34924380D01*
X86685500Y-34924380D01*
X86828357Y-34972000D01*
X86923595Y-35067238D01*
X86971214Y-35162476D01*
X87018833Y-35352952D01*
X87018833Y-35495809D01*
X86971214Y-35686285D01*
X86923595Y-35781523D01*
X86828357Y-35876761D01*
X86685500Y-35924380D01*
X86447404Y-35924380D01*
X87590261Y-35352952D02*
X87495023Y-35305333D01*
X87447404Y-35257714D01*
X87399785Y-35162476D01*
X87399785Y-35114857D01*
X87447404Y-35019619D01*
X87495023Y-34972000D01*
X87590261Y-34924380D01*
X87780738Y-34924380D01*
X87875976Y-34972000D01*
X87923595Y-35019619D01*
X87971214Y-35114857D01*
X87971214Y-35162476D01*
X87923595Y-35257714D01*
X87875976Y-35305333D01*
X87780738Y-35352952D01*
X87590261Y-35352952D01*
X87495023Y-35400571D01*
X87447404Y-35448190D01*
X87399785Y-35543428D01*
X87399785Y-35733904D01*
X87447404Y-35829142D01*
X87495023Y-35876761D01*
X87590261Y-35924380D01*
X87780738Y-35924380D01*
X87875976Y-35876761D01*
X87923595Y-35829142D01*
X87971214Y-35733904D01*
X87971214Y-35543428D01*
X87923595Y-35448190D01*
X87875976Y-35400571D01*
X87780738Y-35352952D01*
X83113595Y-36244380D02*
X83113595Y-35244380D01*
X83685023Y-36244380D02*
X83256452Y-35672952D01*
X83685023Y-35244380D02*
X83113595Y-35815809D01*
G04 #@! TO.C,D9*
X86447404Y-54720380D02*
X86447404Y-53720380D01*
X86685500Y-53720380D01*
X86828357Y-53768000D01*
X86923595Y-53863238D01*
X86971214Y-53958476D01*
X87018833Y-54148952D01*
X87018833Y-54291809D01*
X86971214Y-54482285D01*
X86923595Y-54577523D01*
X86828357Y-54672761D01*
X86685500Y-54720380D01*
X86447404Y-54720380D01*
X87495023Y-54720380D02*
X87685500Y-54720380D01*
X87780738Y-54672761D01*
X87828357Y-54625142D01*
X87923595Y-54482285D01*
X87971214Y-54291809D01*
X87971214Y-53910857D01*
X87923595Y-53815619D01*
X87875976Y-53768000D01*
X87780738Y-53720380D01*
X87590261Y-53720380D01*
X87495023Y-53768000D01*
X87447404Y-53815619D01*
X87399785Y-53910857D01*
X87399785Y-54148952D01*
X87447404Y-54244190D01*
X87495023Y-54291809D01*
X87590261Y-54339428D01*
X87780738Y-54339428D01*
X87875976Y-54291809D01*
X87923595Y-54244190D01*
X87971214Y-54148952D01*
X83113595Y-55040380D02*
X83113595Y-54040380D01*
X83685023Y-55040380D02*
X83256452Y-54468952D01*
X83685023Y-54040380D02*
X83113595Y-54611809D01*
G04 #@! TO.C,D10*
X104957714Y-17064880D02*
X104957714Y-16064880D01*
X105195809Y-16064880D01*
X105338666Y-16112500D01*
X105433904Y-16207738D01*
X105481523Y-16302976D01*
X105529142Y-16493452D01*
X105529142Y-16636309D01*
X105481523Y-16826785D01*
X105433904Y-16922023D01*
X105338666Y-17017261D01*
X105195809Y-17064880D01*
X104957714Y-17064880D01*
X106481523Y-17064880D02*
X105910095Y-17064880D01*
X106195809Y-17064880D02*
X106195809Y-16064880D01*
X106100571Y-16207738D01*
X106005333Y-16302976D01*
X105910095Y-16350595D01*
X107100571Y-16064880D02*
X107195809Y-16064880D01*
X107291047Y-16112500D01*
X107338666Y-16160119D01*
X107386285Y-16255357D01*
X107433904Y-16445833D01*
X107433904Y-16683928D01*
X107386285Y-16874404D01*
X107338666Y-16969642D01*
X107291047Y-17017261D01*
X107195809Y-17064880D01*
X107100571Y-17064880D01*
X107005333Y-17017261D01*
X106957714Y-16969642D01*
X106910095Y-16874404D01*
X106862476Y-16683928D01*
X106862476Y-16445833D01*
X106910095Y-16255357D01*
X106957714Y-16160119D01*
X107005333Y-16112500D01*
X107100571Y-16064880D01*
X102100095Y-17384880D02*
X102100095Y-16384880D01*
X102671523Y-17384880D02*
X102242952Y-16813452D01*
X102671523Y-16384880D02*
X102100095Y-16956309D01*
G04 #@! TO.C,D11*
X104894214Y-35924380D02*
X104894214Y-34924380D01*
X105132309Y-34924380D01*
X105275166Y-34972000D01*
X105370404Y-35067238D01*
X105418023Y-35162476D01*
X105465642Y-35352952D01*
X105465642Y-35495809D01*
X105418023Y-35686285D01*
X105370404Y-35781523D01*
X105275166Y-35876761D01*
X105132309Y-35924380D01*
X104894214Y-35924380D01*
X106418023Y-35924380D02*
X105846595Y-35924380D01*
X106132309Y-35924380D02*
X106132309Y-34924380D01*
X106037071Y-35067238D01*
X105941833Y-35162476D01*
X105846595Y-35210095D01*
X107370404Y-35924380D02*
X106798976Y-35924380D01*
X107084690Y-35924380D02*
X107084690Y-34924380D01*
X106989452Y-35067238D01*
X106894214Y-35162476D01*
X106798976Y-35210095D01*
X102036595Y-36244380D02*
X102036595Y-35244380D01*
X102608023Y-36244380D02*
X102179452Y-35672952D01*
X102608023Y-35244380D02*
X102036595Y-35815809D01*
G04 #@! TO.C,D12*
X104957714Y-54720380D02*
X104957714Y-53720380D01*
X105195809Y-53720380D01*
X105338666Y-53768000D01*
X105433904Y-53863238D01*
X105481523Y-53958476D01*
X105529142Y-54148952D01*
X105529142Y-54291809D01*
X105481523Y-54482285D01*
X105433904Y-54577523D01*
X105338666Y-54672761D01*
X105195809Y-54720380D01*
X104957714Y-54720380D01*
X106481523Y-54720380D02*
X105910095Y-54720380D01*
X106195809Y-54720380D02*
X106195809Y-53720380D01*
X106100571Y-53863238D01*
X106005333Y-53958476D01*
X105910095Y-54006095D01*
X106862476Y-53815619D02*
X106910095Y-53768000D01*
X107005333Y-53720380D01*
X107243428Y-53720380D01*
X107338666Y-53768000D01*
X107386285Y-53815619D01*
X107433904Y-53910857D01*
X107433904Y-54006095D01*
X107386285Y-54148952D01*
X106814857Y-54720380D01*
X107433904Y-54720380D01*
X102100095Y-55040380D02*
X102100095Y-54040380D01*
X102671523Y-55040380D02*
X102242952Y-54468952D01*
X102671523Y-54040380D02*
X102100095Y-54611809D01*
G04 #@! TO.C,SW1*
X82365666Y-20152261D02*
X82508523Y-20199880D01*
X82746619Y-20199880D01*
X82841857Y-20152261D01*
X82889476Y-20104642D01*
X82937095Y-20009404D01*
X82937095Y-19914166D01*
X82889476Y-19818928D01*
X82841857Y-19771309D01*
X82746619Y-19723690D01*
X82556142Y-19676071D01*
X82460904Y-19628452D01*
X82413285Y-19580833D01*
X82365666Y-19485595D01*
X82365666Y-19390357D01*
X82413285Y-19295119D01*
X82460904Y-19247500D01*
X82556142Y-19199880D01*
X82794238Y-19199880D01*
X82937095Y-19247500D01*
X83270428Y-19199880D02*
X83508523Y-20199880D01*
X83699000Y-19485595D01*
X83889476Y-20199880D01*
X84127571Y-19199880D01*
X85032333Y-20199880D02*
X84460904Y-20199880D01*
X84746619Y-20199880D02*
X84746619Y-19199880D01*
X84651380Y-19342738D01*
X84556142Y-19437976D01*
X84460904Y-19485595D01*
G04 #@! TO.C,SW2*
D13*
X48577500Y-30676547D02*
X48795214Y-30737023D01*
X49158071Y-30737023D01*
X49303214Y-30676547D01*
X49375785Y-30616071D01*
X49448357Y-30495119D01*
X49448357Y-30374166D01*
X49375785Y-30253214D01*
X49303214Y-30192738D01*
X49158071Y-30132261D01*
X48867785Y-30071785D01*
X48722642Y-30011309D01*
X48650071Y-29950833D01*
X48577500Y-29829880D01*
X48577500Y-29708928D01*
X48650071Y-29587976D01*
X48722642Y-29527500D01*
X48867785Y-29467023D01*
X49230642Y-29467023D01*
X49448357Y-29527500D01*
X49956357Y-29467023D02*
X50319214Y-30737023D01*
X50609500Y-29829880D01*
X50899785Y-30737023D01*
X51262642Y-29467023D01*
X51770642Y-29587976D02*
X51843214Y-29527500D01*
X51988357Y-29467023D01*
X52351214Y-29467023D01*
X52496357Y-29527500D01*
X52568928Y-29587976D01*
X52641500Y-29708928D01*
X52641500Y-29829880D01*
X52568928Y-30011309D01*
X51698071Y-30737023D01*
X52641500Y-30737023D01*
G04 #@! TO.C,SW4*
X48577500Y-68522547D02*
X48795214Y-68583023D01*
X49158071Y-68583023D01*
X49303214Y-68522547D01*
X49375785Y-68462071D01*
X49448357Y-68341119D01*
X49448357Y-68220166D01*
X49375785Y-68099214D01*
X49303214Y-68038738D01*
X49158071Y-67978261D01*
X48867785Y-67917785D01*
X48722642Y-67857309D01*
X48650071Y-67796833D01*
X48577500Y-67675880D01*
X48577500Y-67554928D01*
X48650071Y-67433976D01*
X48722642Y-67373500D01*
X48867785Y-67313023D01*
X49230642Y-67313023D01*
X49448357Y-67373500D01*
X49956357Y-67313023D02*
X50319214Y-68583023D01*
X50609500Y-67675880D01*
X50899785Y-68583023D01*
X51262642Y-67313023D01*
X52496357Y-67736357D02*
X52496357Y-68583023D01*
X52133500Y-67252547D02*
X51770642Y-68159690D01*
X52714071Y-68159690D01*
G04 #@! TO.C,SW5*
X67500500Y-30676547D02*
X67718214Y-30737023D01*
X68081071Y-30737023D01*
X68226214Y-30676547D01*
X68298785Y-30616071D01*
X68371357Y-30495119D01*
X68371357Y-30374166D01*
X68298785Y-30253214D01*
X68226214Y-30192738D01*
X68081071Y-30132261D01*
X67790785Y-30071785D01*
X67645642Y-30011309D01*
X67573071Y-29950833D01*
X67500500Y-29829880D01*
X67500500Y-29708928D01*
X67573071Y-29587976D01*
X67645642Y-29527500D01*
X67790785Y-29467023D01*
X68153642Y-29467023D01*
X68371357Y-29527500D01*
X68879357Y-29467023D02*
X69242214Y-30737023D01*
X69532500Y-29829880D01*
X69822785Y-30737023D01*
X70185642Y-29467023D01*
X71491928Y-29467023D02*
X70766214Y-29467023D01*
X70693642Y-30071785D01*
X70766214Y-30011309D01*
X70911357Y-29950833D01*
X71274214Y-29950833D01*
X71419357Y-30011309D01*
X71491928Y-30071785D01*
X71564500Y-30192738D01*
X71564500Y-30495119D01*
X71491928Y-30616071D01*
X71419357Y-30676547D01*
X71274214Y-30737023D01*
X70911357Y-30737023D01*
X70766214Y-30676547D01*
X70693642Y-30616071D01*
G04 #@! TO.C,SW7*
X67500500Y-68522547D02*
X67718214Y-68583023D01*
X68081071Y-68583023D01*
X68226214Y-68522547D01*
X68298785Y-68462071D01*
X68371357Y-68341119D01*
X68371357Y-68220166D01*
X68298785Y-68099214D01*
X68226214Y-68038738D01*
X68081071Y-67978261D01*
X67790785Y-67917785D01*
X67645642Y-67857309D01*
X67573071Y-67796833D01*
X67500500Y-67675880D01*
X67500500Y-67554928D01*
X67573071Y-67433976D01*
X67645642Y-67373500D01*
X67790785Y-67313023D01*
X68153642Y-67313023D01*
X68371357Y-67373500D01*
X68879357Y-67313023D02*
X69242214Y-68583023D01*
X69532500Y-67675880D01*
X69822785Y-68583023D01*
X70185642Y-67313023D01*
X70621071Y-67313023D02*
X71637071Y-67313023D01*
X70983928Y-68583023D01*
G04 #@! TO.C,SW8*
X86423500Y-30676547D02*
X86641214Y-30737023D01*
X87004071Y-30737023D01*
X87149214Y-30676547D01*
X87221785Y-30616071D01*
X87294357Y-30495119D01*
X87294357Y-30374166D01*
X87221785Y-30253214D01*
X87149214Y-30192738D01*
X87004071Y-30132261D01*
X86713785Y-30071785D01*
X86568642Y-30011309D01*
X86496071Y-29950833D01*
X86423500Y-29829880D01*
X86423500Y-29708928D01*
X86496071Y-29587976D01*
X86568642Y-29527500D01*
X86713785Y-29467023D01*
X87076642Y-29467023D01*
X87294357Y-29527500D01*
X87802357Y-29467023D02*
X88165214Y-30737023D01*
X88455500Y-29829880D01*
X88745785Y-30737023D01*
X89108642Y-29467023D01*
X89906928Y-30011309D02*
X89761785Y-29950833D01*
X89689214Y-29890357D01*
X89616642Y-29769404D01*
X89616642Y-29708928D01*
X89689214Y-29587976D01*
X89761785Y-29527500D01*
X89906928Y-29467023D01*
X90197214Y-29467023D01*
X90342357Y-29527500D01*
X90414928Y-29587976D01*
X90487500Y-29708928D01*
X90487500Y-29769404D01*
X90414928Y-29890357D01*
X90342357Y-29950833D01*
X90197214Y-30011309D01*
X89906928Y-30011309D01*
X89761785Y-30071785D01*
X89689214Y-30132261D01*
X89616642Y-30253214D01*
X89616642Y-30495119D01*
X89689214Y-30616071D01*
X89761785Y-30676547D01*
X89906928Y-30737023D01*
X90197214Y-30737023D01*
X90342357Y-30676547D01*
X90414928Y-30616071D01*
X90487500Y-30495119D01*
X90487500Y-30253214D01*
X90414928Y-30132261D01*
X90342357Y-30071785D01*
X90197214Y-30011309D01*
G04 #@! TO.C,SW9*
X86423500Y-49599547D02*
X86641214Y-49660023D01*
X87004071Y-49660023D01*
X87149214Y-49599547D01*
X87221785Y-49539071D01*
X87294357Y-49418119D01*
X87294357Y-49297166D01*
X87221785Y-49176214D01*
X87149214Y-49115738D01*
X87004071Y-49055261D01*
X86713785Y-48994785D01*
X86568642Y-48934309D01*
X86496071Y-48873833D01*
X86423500Y-48752880D01*
X86423500Y-48631928D01*
X86496071Y-48510976D01*
X86568642Y-48450500D01*
X86713785Y-48390023D01*
X87076642Y-48390023D01*
X87294357Y-48450500D01*
X87802357Y-48390023D02*
X88165214Y-49660023D01*
X88455500Y-48752880D01*
X88745785Y-49660023D01*
X89108642Y-48390023D01*
X89761785Y-49660023D02*
X90052071Y-49660023D01*
X90197214Y-49599547D01*
X90269785Y-49539071D01*
X90414928Y-49357642D01*
X90487500Y-49115738D01*
X90487500Y-48631928D01*
X90414928Y-48510976D01*
X90342357Y-48450500D01*
X90197214Y-48390023D01*
X89906928Y-48390023D01*
X89761785Y-48450500D01*
X89689214Y-48510976D01*
X89616642Y-48631928D01*
X89616642Y-48934309D01*
X89689214Y-49055261D01*
X89761785Y-49115738D01*
X89906928Y-49176214D01*
X90197214Y-49176214D01*
X90342357Y-49115738D01*
X90414928Y-49055261D01*
X90487500Y-48934309D01*
G04 #@! TO.C,SW10*
X85697785Y-68522547D02*
X85915500Y-68583023D01*
X86278357Y-68583023D01*
X86423500Y-68522547D01*
X86496071Y-68462071D01*
X86568642Y-68341119D01*
X86568642Y-68220166D01*
X86496071Y-68099214D01*
X86423500Y-68038738D01*
X86278357Y-67978261D01*
X85988071Y-67917785D01*
X85842928Y-67857309D01*
X85770357Y-67796833D01*
X85697785Y-67675880D01*
X85697785Y-67554928D01*
X85770357Y-67433976D01*
X85842928Y-67373500D01*
X85988071Y-67313023D01*
X86350928Y-67313023D01*
X86568642Y-67373500D01*
X87076642Y-67313023D02*
X87439500Y-68583023D01*
X87729785Y-67675880D01*
X88020071Y-68583023D01*
X88382928Y-67313023D01*
X89761785Y-68583023D02*
X88890928Y-68583023D01*
X89326357Y-68583023D02*
X89326357Y-67313023D01*
X89181214Y-67494452D01*
X89036071Y-67615404D01*
X88890928Y-67675880D01*
X90705214Y-67313023D02*
X90850357Y-67313023D01*
X90995500Y-67373500D01*
X91068071Y-67433976D01*
X91140642Y-67554928D01*
X91213214Y-67796833D01*
X91213214Y-68099214D01*
X91140642Y-68341119D01*
X91068071Y-68462071D01*
X90995500Y-68522547D01*
X90850357Y-68583023D01*
X90705214Y-68583023D01*
X90560071Y-68522547D01*
X90487500Y-68462071D01*
X90414928Y-68341119D01*
X90342357Y-68099214D01*
X90342357Y-67796833D01*
X90414928Y-67554928D01*
X90487500Y-67433976D01*
X90560071Y-67373500D01*
X90705214Y-67313023D01*
G04 #@! TO.C,SW11*
X104620785Y-30676547D02*
X104838500Y-30737023D01*
X105201357Y-30737023D01*
X105346500Y-30676547D01*
X105419071Y-30616071D01*
X105491642Y-30495119D01*
X105491642Y-30374166D01*
X105419071Y-30253214D01*
X105346500Y-30192738D01*
X105201357Y-30132261D01*
X104911071Y-30071785D01*
X104765928Y-30011309D01*
X104693357Y-29950833D01*
X104620785Y-29829880D01*
X104620785Y-29708928D01*
X104693357Y-29587976D01*
X104765928Y-29527500D01*
X104911071Y-29467023D01*
X105273928Y-29467023D01*
X105491642Y-29527500D01*
X105999642Y-29467023D02*
X106362500Y-30737023D01*
X106652785Y-29829880D01*
X106943071Y-30737023D01*
X107305928Y-29467023D01*
X108684785Y-30737023D02*
X107813928Y-30737023D01*
X108249357Y-30737023D02*
X108249357Y-29467023D01*
X108104214Y-29648452D01*
X107959071Y-29769404D01*
X107813928Y-29829880D01*
X110136214Y-30737023D02*
X109265357Y-30737023D01*
X109700785Y-30737023D02*
X109700785Y-29467023D01*
X109555642Y-29648452D01*
X109410500Y-29769404D01*
X109265357Y-29829880D01*
G04 #@! TO.C,SW12*
X104620785Y-49599547D02*
X104838500Y-49660023D01*
X105201357Y-49660023D01*
X105346500Y-49599547D01*
X105419071Y-49539071D01*
X105491642Y-49418119D01*
X105491642Y-49297166D01*
X105419071Y-49176214D01*
X105346500Y-49115738D01*
X105201357Y-49055261D01*
X104911071Y-48994785D01*
X104765928Y-48934309D01*
X104693357Y-48873833D01*
X104620785Y-48752880D01*
X104620785Y-48631928D01*
X104693357Y-48510976D01*
X104765928Y-48450500D01*
X104911071Y-48390023D01*
X105273928Y-48390023D01*
X105491642Y-48450500D01*
X105999642Y-48390023D02*
X106362500Y-49660023D01*
X106652785Y-48752880D01*
X106943071Y-49660023D01*
X107305928Y-48390023D01*
X108684785Y-49660023D02*
X107813928Y-49660023D01*
X108249357Y-49660023D02*
X108249357Y-48390023D01*
X108104214Y-48571452D01*
X107959071Y-48692404D01*
X107813928Y-48752880D01*
X109265357Y-48510976D02*
X109337928Y-48450500D01*
X109483071Y-48390023D01*
X109845928Y-48390023D01*
X109991071Y-48450500D01*
X110063642Y-48510976D01*
X110136214Y-48631928D01*
X110136214Y-48752880D01*
X110063642Y-48934309D01*
X109192785Y-49660023D01*
X110136214Y-49660023D01*
G04 #@! TO.C,SW13*
X104620785Y-68522547D02*
X104838500Y-68583023D01*
X105201357Y-68583023D01*
X105346500Y-68522547D01*
X105419071Y-68462071D01*
X105491642Y-68341119D01*
X105491642Y-68220166D01*
X105419071Y-68099214D01*
X105346500Y-68038738D01*
X105201357Y-67978261D01*
X104911071Y-67917785D01*
X104765928Y-67857309D01*
X104693357Y-67796833D01*
X104620785Y-67675880D01*
X104620785Y-67554928D01*
X104693357Y-67433976D01*
X104765928Y-67373500D01*
X104911071Y-67313023D01*
X105273928Y-67313023D01*
X105491642Y-67373500D01*
X105999642Y-67313023D02*
X106362500Y-68583023D01*
X106652785Y-67675880D01*
X106943071Y-68583023D01*
X107305928Y-67313023D01*
X108684785Y-68583023D02*
X107813928Y-68583023D01*
X108249357Y-68583023D02*
X108249357Y-67313023D01*
X108104214Y-67494452D01*
X107959071Y-67615404D01*
X107813928Y-67675880D01*
X109192785Y-67313023D02*
X110136214Y-67313023D01*
X109628214Y-67796833D01*
X109845928Y-67796833D01*
X109991071Y-67857309D01*
X110063642Y-67917785D01*
X110136214Y-68038738D01*
X110136214Y-68341119D01*
X110063642Y-68462071D01*
X109991071Y-68522547D01*
X109845928Y-68583023D01*
X109410500Y-68583023D01*
X109265357Y-68522547D01*
X109192785Y-68462071D01*
G04 #@! TO.C,SW14*
D12*
X100939476Y-20088761D02*
X101082333Y-20136380D01*
X101320428Y-20136380D01*
X101415666Y-20088761D01*
X101463285Y-20041142D01*
X101510904Y-19945904D01*
X101510904Y-19850666D01*
X101463285Y-19755428D01*
X101415666Y-19707809D01*
X101320428Y-19660190D01*
X101129952Y-19612571D01*
X101034714Y-19564952D01*
X100987095Y-19517333D01*
X100939476Y-19422095D01*
X100939476Y-19326857D01*
X100987095Y-19231619D01*
X101034714Y-19184000D01*
X101129952Y-19136380D01*
X101368047Y-19136380D01*
X101510904Y-19184000D01*
X101844238Y-19136380D02*
X102082333Y-20136380D01*
X102272809Y-19422095D01*
X102463285Y-20136380D01*
X102701380Y-19136380D01*
X103606142Y-20136380D02*
X103034714Y-20136380D01*
X103320428Y-20136380D02*
X103320428Y-19136380D01*
X103225190Y-19279238D01*
X103129952Y-19374476D01*
X103034714Y-19422095D01*
X104463285Y-19469714D02*
X104463285Y-20136380D01*
X104225190Y-19088761D02*
X103987095Y-19803047D01*
X104606142Y-19803047D01*
G04 #@! TO.C,U1*
X44847151Y-21151904D02*
X45304294Y-21151904D01*
X45075723Y-21951904D02*
X45075723Y-21151904D01*
X45494770Y-21151904D02*
X46028104Y-21951904D01*
X46028104Y-21151904D02*
X45494770Y-21951904D01*
X46485247Y-21151904D02*
X46561437Y-21151904D01*
X46637628Y-21190000D01*
X46675723Y-21228095D01*
X46713818Y-21304285D01*
X46751913Y-21456666D01*
X46751913Y-21647142D01*
X46713818Y-21799523D01*
X46675723Y-21875714D01*
X46637628Y-21913809D01*
X46561437Y-21951904D01*
X46485247Y-21951904D01*
X46409056Y-21913809D01*
X46370961Y-21875714D01*
X46332866Y-21799523D01*
X46294770Y-21647142D01*
X46294770Y-21456666D01*
X46332866Y-21304285D01*
X46370961Y-21228095D01*
X46409056Y-21190000D01*
X46485247Y-21151904D01*
X47666199Y-21113809D02*
X46980485Y-22142380D01*
X47932866Y-21951904D02*
X47932866Y-21151904D01*
X48123342Y-21151904D01*
X48237628Y-21190000D01*
X48313818Y-21266190D01*
X48351913Y-21342380D01*
X48390008Y-21494761D01*
X48390008Y-21609047D01*
X48351913Y-21761428D01*
X48313818Y-21837619D01*
X48237628Y-21913809D01*
X48123342Y-21951904D01*
X47932866Y-21951904D01*
X48656675Y-21151904D02*
X49151913Y-21151904D01*
X48885247Y-21456666D01*
X48999532Y-21456666D01*
X49075723Y-21494761D01*
X49113818Y-21532857D01*
X49151913Y-21609047D01*
X49151913Y-21799523D01*
X49113818Y-21875714D01*
X49075723Y-21913809D01*
X48999532Y-21951904D01*
X48770961Y-21951904D01*
X48694770Y-21913809D01*
X48656675Y-21875714D01*
X44558023Y-24491904D02*
X44558023Y-23691904D01*
X44748500Y-23691904D01*
X44862785Y-23730000D01*
X44938976Y-23806190D01*
X44977071Y-23882380D01*
X45015166Y-24034761D01*
X45015166Y-24149047D01*
X44977071Y-24301428D01*
X44938976Y-24377619D01*
X44862785Y-24453809D01*
X44748500Y-24491904D01*
X44558023Y-24491904D01*
X45319928Y-23768095D02*
X45358023Y-23730000D01*
X45434214Y-23691904D01*
X45624690Y-23691904D01*
X45700880Y-23730000D01*
X45738976Y-23768095D01*
X45777071Y-23844285D01*
X45777071Y-23920476D01*
X45738976Y-24034761D01*
X45281833Y-24491904D01*
X45777071Y-24491904D01*
X44558023Y-34651904D02*
X44558023Y-33851904D01*
X44748500Y-33851904D01*
X44862785Y-33890000D01*
X44938976Y-33966190D01*
X44977071Y-34042380D01*
X45015166Y-34194761D01*
X45015166Y-34309047D01*
X44977071Y-34461428D01*
X44938976Y-34537619D01*
X44862785Y-34613809D01*
X44748500Y-34651904D01*
X44558023Y-34651904D01*
X45510404Y-33851904D02*
X45586595Y-33851904D01*
X45662785Y-33890000D01*
X45700880Y-33928095D01*
X45738976Y-34004285D01*
X45777071Y-34156666D01*
X45777071Y-34347142D01*
X45738976Y-34499523D01*
X45700880Y-34575714D01*
X45662785Y-34613809D01*
X45586595Y-34651904D01*
X45510404Y-34651904D01*
X45434214Y-34613809D01*
X45396119Y-34575714D01*
X45358023Y-34499523D01*
X45319928Y-34347142D01*
X45319928Y-34156666D01*
X45358023Y-34004285D01*
X45396119Y-33928095D01*
X45434214Y-33890000D01*
X45510404Y-33851904D01*
X44558023Y-32111904D02*
X44558023Y-31311904D01*
X44748500Y-31311904D01*
X44862785Y-31350000D01*
X44938976Y-31426190D01*
X44977071Y-31502380D01*
X45015166Y-31654761D01*
X45015166Y-31769047D01*
X44977071Y-31921428D01*
X44938976Y-31997619D01*
X44862785Y-32073809D01*
X44748500Y-32111904D01*
X44558023Y-32111904D01*
X45777071Y-32111904D02*
X45319928Y-32111904D01*
X45548500Y-32111904D02*
X45548500Y-31311904D01*
X45472309Y-31426190D01*
X45396119Y-31502380D01*
X45319928Y-31540476D01*
X44538976Y-28810000D02*
X44462785Y-28771904D01*
X44348500Y-28771904D01*
X44234214Y-28810000D01*
X44158023Y-28886190D01*
X44119928Y-28962380D01*
X44081833Y-29114761D01*
X44081833Y-29229047D01*
X44119928Y-29381428D01*
X44158023Y-29457619D01*
X44234214Y-29533809D01*
X44348500Y-29571904D01*
X44424690Y-29571904D01*
X44538976Y-29533809D01*
X44577071Y-29495714D01*
X44577071Y-29229047D01*
X44424690Y-29229047D01*
X44919928Y-29571904D02*
X44919928Y-28771904D01*
X45377071Y-29571904D01*
X45377071Y-28771904D01*
X45758023Y-29571904D02*
X45758023Y-28771904D01*
X45948500Y-28771904D01*
X46062785Y-28810000D01*
X46138976Y-28886190D01*
X46177071Y-28962380D01*
X46215166Y-29114761D01*
X46215166Y-29229047D01*
X46177071Y-29381428D01*
X46138976Y-29457619D01*
X46062785Y-29533809D01*
X45948500Y-29571904D01*
X45758023Y-29571904D01*
X44538976Y-26270000D02*
X44462785Y-26231904D01*
X44348500Y-26231904D01*
X44234214Y-26270000D01*
X44158023Y-26346190D01*
X44119928Y-26422380D01*
X44081833Y-26574761D01*
X44081833Y-26689047D01*
X44119928Y-26841428D01*
X44158023Y-26917619D01*
X44234214Y-26993809D01*
X44348500Y-27031904D01*
X44424690Y-27031904D01*
X44538976Y-26993809D01*
X44577071Y-26955714D01*
X44577071Y-26689047D01*
X44424690Y-26689047D01*
X44919928Y-27031904D02*
X44919928Y-26231904D01*
X45377071Y-27031904D01*
X45377071Y-26231904D01*
X45758023Y-27031904D02*
X45758023Y-26231904D01*
X45948500Y-26231904D01*
X46062785Y-26270000D01*
X46138976Y-26346190D01*
X46177071Y-26422380D01*
X46215166Y-26574761D01*
X46215166Y-26689047D01*
X46177071Y-26841428D01*
X46138976Y-26917619D01*
X46062785Y-26993809D01*
X45948500Y-27031904D01*
X45758023Y-27031904D01*
X44558023Y-37191904D02*
X44558023Y-36391904D01*
X44748500Y-36391904D01*
X44862785Y-36430000D01*
X44938976Y-36506190D01*
X44977071Y-36582380D01*
X45015166Y-36734761D01*
X45015166Y-36849047D01*
X44977071Y-37001428D01*
X44938976Y-37077619D01*
X44862785Y-37153809D01*
X44748500Y-37191904D01*
X44558023Y-37191904D01*
X45700880Y-36658571D02*
X45700880Y-37191904D01*
X45510404Y-36353809D02*
X45319928Y-36925238D01*
X45815166Y-36925238D01*
X45015166Y-39655714D02*
X44977071Y-39693809D01*
X44862785Y-39731904D01*
X44786595Y-39731904D01*
X44672309Y-39693809D01*
X44596119Y-39617619D01*
X44558023Y-39541428D01*
X44519928Y-39389047D01*
X44519928Y-39274761D01*
X44558023Y-39122380D01*
X44596119Y-39046190D01*
X44672309Y-38970000D01*
X44786595Y-38931904D01*
X44862785Y-38931904D01*
X44977071Y-38970000D01*
X45015166Y-39008095D01*
X45700880Y-38931904D02*
X45548500Y-38931904D01*
X45472309Y-38970000D01*
X45434214Y-39008095D01*
X45358023Y-39122380D01*
X45319928Y-39274761D01*
X45319928Y-39579523D01*
X45358023Y-39655714D01*
X45396119Y-39693809D01*
X45472309Y-39731904D01*
X45624690Y-39731904D01*
X45700880Y-39693809D01*
X45738976Y-39655714D01*
X45777071Y-39579523D01*
X45777071Y-39389047D01*
X45738976Y-39312857D01*
X45700880Y-39274761D01*
X45624690Y-39236666D01*
X45472309Y-39236666D01*
X45396119Y-39274761D01*
X45358023Y-39312857D01*
X45319928Y-39389047D01*
X44558023Y-42271904D02*
X44558023Y-41471904D01*
X44748500Y-41471904D01*
X44862785Y-41510000D01*
X44938976Y-41586190D01*
X44977071Y-41662380D01*
X45015166Y-41814761D01*
X45015166Y-41929047D01*
X44977071Y-42081428D01*
X44938976Y-42157619D01*
X44862785Y-42233809D01*
X44748500Y-42271904D01*
X44558023Y-42271904D01*
X45281833Y-41471904D02*
X45815166Y-41471904D01*
X45472309Y-42271904D01*
X44596119Y-44392857D02*
X44862785Y-44392857D01*
X44977071Y-44811904D02*
X44596119Y-44811904D01*
X44596119Y-44011904D01*
X44977071Y-44011904D01*
X45662785Y-44011904D02*
X45510404Y-44011904D01*
X45434214Y-44050000D01*
X45396119Y-44088095D01*
X45319928Y-44202380D01*
X45281833Y-44354761D01*
X45281833Y-44659523D01*
X45319928Y-44735714D01*
X45358023Y-44773809D01*
X45434214Y-44811904D01*
X45586595Y-44811904D01*
X45662785Y-44773809D01*
X45700880Y-44735714D01*
X45738976Y-44659523D01*
X45738976Y-44469047D01*
X45700880Y-44392857D01*
X45662785Y-44354761D01*
X45586595Y-44316666D01*
X45434214Y-44316666D01*
X45358023Y-44354761D01*
X45319928Y-44392857D01*
X45281833Y-44469047D01*
X44824690Y-46932857D02*
X44938976Y-46970952D01*
X44977071Y-47009047D01*
X45015166Y-47085238D01*
X45015166Y-47199523D01*
X44977071Y-47275714D01*
X44938976Y-47313809D01*
X44862785Y-47351904D01*
X44558023Y-47351904D01*
X44558023Y-46551904D01*
X44824690Y-46551904D01*
X44900880Y-46590000D01*
X44938976Y-46628095D01*
X44977071Y-46704285D01*
X44977071Y-46780476D01*
X44938976Y-46856666D01*
X44900880Y-46894761D01*
X44824690Y-46932857D01*
X44558023Y-46932857D01*
X45700880Y-46818571D02*
X45700880Y-47351904D01*
X45510404Y-46513809D02*
X45319928Y-47085238D01*
X45815166Y-47085238D01*
X44824690Y-49472857D02*
X44938976Y-49510952D01*
X44977071Y-49549047D01*
X45015166Y-49625238D01*
X45015166Y-49739523D01*
X44977071Y-49815714D01*
X44938976Y-49853809D01*
X44862785Y-49891904D01*
X44558023Y-49891904D01*
X44558023Y-49091904D01*
X44824690Y-49091904D01*
X44900880Y-49130000D01*
X44938976Y-49168095D01*
X44977071Y-49244285D01*
X44977071Y-49320476D01*
X44938976Y-49396666D01*
X44900880Y-49434761D01*
X44824690Y-49472857D01*
X44558023Y-49472857D01*
X45738976Y-49091904D02*
X45358023Y-49091904D01*
X45319928Y-49472857D01*
X45358023Y-49434761D01*
X45434214Y-49396666D01*
X45624690Y-49396666D01*
X45700880Y-49434761D01*
X45738976Y-49472857D01*
X45777071Y-49549047D01*
X45777071Y-49739523D01*
X45738976Y-49815714D01*
X45700880Y-49853809D01*
X45624690Y-49891904D01*
X45434214Y-49891904D01*
X45358023Y-49853809D01*
X45319928Y-49815714D01*
X55746690Y-49472857D02*
X55860976Y-49510952D01*
X55899071Y-49549047D01*
X55937166Y-49625238D01*
X55937166Y-49739523D01*
X55899071Y-49815714D01*
X55860976Y-49853809D01*
X55784785Y-49891904D01*
X55480023Y-49891904D01*
X55480023Y-49091904D01*
X55746690Y-49091904D01*
X55822880Y-49130000D01*
X55860976Y-49168095D01*
X55899071Y-49244285D01*
X55899071Y-49320476D01*
X55860976Y-49396666D01*
X55822880Y-49434761D01*
X55746690Y-49472857D01*
X55480023Y-49472857D01*
X56622880Y-49091904D02*
X56470500Y-49091904D01*
X56394309Y-49130000D01*
X56356214Y-49168095D01*
X56280023Y-49282380D01*
X56241928Y-49434761D01*
X56241928Y-49739523D01*
X56280023Y-49815714D01*
X56318119Y-49853809D01*
X56394309Y-49891904D01*
X56546690Y-49891904D01*
X56622880Y-49853809D01*
X56660976Y-49815714D01*
X56699071Y-49739523D01*
X56699071Y-49549047D01*
X56660976Y-49472857D01*
X56622880Y-49434761D01*
X56546690Y-49396666D01*
X56394309Y-49396666D01*
X56318119Y-49434761D01*
X56280023Y-49472857D01*
X56241928Y-49549047D01*
X55746690Y-44392857D02*
X55860976Y-44430952D01*
X55899071Y-44469047D01*
X55937166Y-44545238D01*
X55937166Y-44659523D01*
X55899071Y-44735714D01*
X55860976Y-44773809D01*
X55784785Y-44811904D01*
X55480023Y-44811904D01*
X55480023Y-44011904D01*
X55746690Y-44011904D01*
X55822880Y-44050000D01*
X55860976Y-44088095D01*
X55899071Y-44164285D01*
X55899071Y-44240476D01*
X55860976Y-44316666D01*
X55822880Y-44354761D01*
X55746690Y-44392857D01*
X55480023Y-44392857D01*
X56203833Y-44011904D02*
X56699071Y-44011904D01*
X56432404Y-44316666D01*
X56546690Y-44316666D01*
X56622880Y-44354761D01*
X56660976Y-44392857D01*
X56699071Y-44469047D01*
X56699071Y-44659523D01*
X56660976Y-44735714D01*
X56622880Y-44773809D01*
X56546690Y-44811904D01*
X56318119Y-44811904D01*
X56241928Y-44773809D01*
X56203833Y-44735714D01*
X55746690Y-41852857D02*
X55860976Y-41890952D01*
X55899071Y-41929047D01*
X55937166Y-42005238D01*
X55937166Y-42119523D01*
X55899071Y-42195714D01*
X55860976Y-42233809D01*
X55784785Y-42271904D01*
X55480023Y-42271904D01*
X55480023Y-41471904D01*
X55746690Y-41471904D01*
X55822880Y-41510000D01*
X55860976Y-41548095D01*
X55899071Y-41624285D01*
X55899071Y-41700476D01*
X55860976Y-41776666D01*
X55822880Y-41814761D01*
X55746690Y-41852857D01*
X55480023Y-41852857D01*
X56699071Y-42271904D02*
X56241928Y-42271904D01*
X56470500Y-42271904D02*
X56470500Y-41471904D01*
X56394309Y-41586190D01*
X56318119Y-41662380D01*
X56241928Y-41700476D01*
X55803833Y-31692857D02*
X55537166Y-31692857D01*
X55537166Y-32111904D02*
X55537166Y-31311904D01*
X55918119Y-31311904D01*
X56565738Y-31578571D02*
X56565738Y-32111904D01*
X56375261Y-31273809D02*
X56184785Y-31845238D01*
X56680023Y-31845238D01*
X55003833Y-28771904D02*
X55270500Y-29571904D01*
X55537166Y-28771904D01*
X56260976Y-29495714D02*
X56222880Y-29533809D01*
X56108595Y-29571904D01*
X56032404Y-29571904D01*
X55918119Y-29533809D01*
X55841928Y-29457619D01*
X55803833Y-29381428D01*
X55765738Y-29229047D01*
X55765738Y-29114761D01*
X55803833Y-28962380D01*
X55841928Y-28886190D01*
X55918119Y-28810000D01*
X56032404Y-28771904D01*
X56108595Y-28771904D01*
X56222880Y-28810000D01*
X56260976Y-28848095D01*
X57060976Y-29495714D02*
X57022880Y-29533809D01*
X56908595Y-29571904D01*
X56832404Y-29571904D01*
X56718119Y-29533809D01*
X56641928Y-29457619D01*
X56603833Y-29381428D01*
X56565738Y-29229047D01*
X56565738Y-29114761D01*
X56603833Y-28962380D01*
X56641928Y-28886190D01*
X56718119Y-28810000D01*
X56832404Y-28771904D01*
X56908595Y-28771904D01*
X57022880Y-28810000D01*
X57060976Y-28848095D01*
X55809286Y-26963809D02*
X55923572Y-27001904D01*
X56114048Y-27001904D01*
X56190239Y-26963809D01*
X56228334Y-26925714D01*
X56266429Y-26849523D01*
X56266429Y-26773333D01*
X56228334Y-26697142D01*
X56190239Y-26659047D01*
X56114048Y-26620952D01*
X55961667Y-26582857D01*
X55885477Y-26544761D01*
X55847381Y-26506666D01*
X55809286Y-26430476D01*
X55809286Y-26354285D01*
X55847381Y-26278095D01*
X55885477Y-26240000D01*
X55961667Y-26201904D01*
X56152143Y-26201904D01*
X56266429Y-26240000D01*
X56495000Y-26201904D02*
X56952143Y-26201904D01*
X56723572Y-27001904D02*
X56723572Y-26201904D01*
X55460976Y-23730000D02*
X55384785Y-23691904D01*
X55270500Y-23691904D01*
X55156214Y-23730000D01*
X55080023Y-23806190D01*
X55041928Y-23882380D01*
X55003833Y-24034761D01*
X55003833Y-24149047D01*
X55041928Y-24301428D01*
X55080023Y-24377619D01*
X55156214Y-24453809D01*
X55270500Y-24491904D01*
X55346690Y-24491904D01*
X55460976Y-24453809D01*
X55499071Y-24415714D01*
X55499071Y-24149047D01*
X55346690Y-24149047D01*
X55841928Y-24491904D02*
X55841928Y-23691904D01*
X56299071Y-24491904D01*
X56299071Y-23691904D01*
X56680023Y-24491904D02*
X56680023Y-23691904D01*
X56870500Y-23691904D01*
X56984785Y-23730000D01*
X57060976Y-23806190D01*
X57099071Y-23882380D01*
X57137166Y-24034761D01*
X57137166Y-24149047D01*
X57099071Y-24301428D01*
X57060976Y-24377619D01*
X56984785Y-24453809D01*
X56870500Y-24491904D01*
X56680023Y-24491904D01*
X55518119Y-21951904D02*
X55251452Y-21570952D01*
X55060976Y-21951904D02*
X55060976Y-21151904D01*
X55365738Y-21151904D01*
X55441928Y-21190000D01*
X55480023Y-21228095D01*
X55518119Y-21304285D01*
X55518119Y-21418571D01*
X55480023Y-21494761D01*
X55441928Y-21532857D01*
X55365738Y-21570952D01*
X55060976Y-21570952D01*
X55822880Y-21723333D02*
X56203833Y-21723333D01*
X55746690Y-21951904D02*
X56013357Y-21151904D01*
X56280023Y-21951904D01*
X56470500Y-21151904D02*
X56660976Y-21951904D01*
X56813357Y-21380476D01*
X56965738Y-21951904D01*
X57156214Y-21151904D01*
X55803833Y-34232857D02*
X55537166Y-34232857D01*
X55537166Y-34651904D02*
X55537166Y-33851904D01*
X55918119Y-33851904D01*
X56603833Y-33851904D02*
X56222880Y-33851904D01*
X56184785Y-34232857D01*
X56222880Y-34194761D01*
X56299071Y-34156666D01*
X56489547Y-34156666D01*
X56565738Y-34194761D01*
X56603833Y-34232857D01*
X56641928Y-34309047D01*
X56641928Y-34499523D01*
X56603833Y-34575714D01*
X56565738Y-34613809D01*
X56489547Y-34651904D01*
X56299071Y-34651904D01*
X56222880Y-34613809D01*
X56184785Y-34575714D01*
X55803833Y-36772857D02*
X55537166Y-36772857D01*
X55537166Y-37191904D02*
X55537166Y-36391904D01*
X55918119Y-36391904D01*
X56565738Y-36391904D02*
X56413357Y-36391904D01*
X56337166Y-36430000D01*
X56299071Y-36468095D01*
X56222880Y-36582380D01*
X56184785Y-36734761D01*
X56184785Y-37039523D01*
X56222880Y-37115714D01*
X56260976Y-37153809D01*
X56337166Y-37191904D01*
X56489547Y-37191904D01*
X56565738Y-37153809D01*
X56603833Y-37115714D01*
X56641928Y-37039523D01*
X56641928Y-36849047D01*
X56603833Y-36772857D01*
X56565738Y-36734761D01*
X56489547Y-36696666D01*
X56337166Y-36696666D01*
X56260976Y-36734761D01*
X56222880Y-36772857D01*
X56184785Y-36849047D01*
X55803833Y-39312857D02*
X55537166Y-39312857D01*
X55537166Y-39731904D02*
X55537166Y-38931904D01*
X55918119Y-38931904D01*
X56146690Y-38931904D02*
X56680023Y-38931904D01*
X56337166Y-39731904D01*
X55746690Y-46932857D02*
X55860976Y-46970952D01*
X55899071Y-47009047D01*
X55937166Y-47085238D01*
X55937166Y-47199523D01*
X55899071Y-47275714D01*
X55860976Y-47313809D01*
X55784785Y-47351904D01*
X55480023Y-47351904D01*
X55480023Y-46551904D01*
X55746690Y-46551904D01*
X55822880Y-46590000D01*
X55860976Y-46628095D01*
X55899071Y-46704285D01*
X55899071Y-46780476D01*
X55860976Y-46856666D01*
X55822880Y-46894761D01*
X55746690Y-46932857D01*
X55480023Y-46932857D01*
X56241928Y-46628095D02*
X56280023Y-46590000D01*
X56356214Y-46551904D01*
X56546690Y-46551904D01*
X56622880Y-46590000D01*
X56660976Y-46628095D01*
X56699071Y-46704285D01*
X56699071Y-46780476D01*
X56660976Y-46894761D01*
X56203833Y-47351904D01*
X56699071Y-47351904D01*
G04 #@! TD*
M02*
