G04 #@! TF.GenerationSoftware,KiCad,Pcbnew,(5.0.2)-1*
G04 #@! TF.CreationDate,2019-01-24T00:30:49-05:00*
G04 #@! TF.ProjectId,4x5macro,3478356d-6163-4726-9f2e-6b696361645f,rev?*
G04 #@! TF.SameCoordinates,Original*
G04 #@! TF.FileFunction,Legend,Bot*
G04 #@! TF.FilePolarity,Positive*
%FSLAX46Y46*%
G04 Gerber Fmt 4.6, Leading zero omitted, Abs format (unit mm)*
G04 Created by KiCad (PCBNEW (5.0.2)-1) date 1/24/2019 12:30:49 AM*
%MOMM*%
%LPD*%
G01*
G04 APERTURE LIST*
%ADD10C,0.381000*%
%ADD11C,0.150000*%
G04 APERTURE END LIST*
D10*
G04 #@! TO.C,U1*
X44259500Y-20320000D02*
X41719500Y-20320000D01*
X59499500Y-17780000D02*
X41719500Y-17780000D01*
X41719500Y-17780000D02*
X41719500Y-50800000D01*
X41719500Y-50800000D02*
X59499500Y-50800000D01*
X59499500Y-50800000D02*
X59499500Y-17780000D01*
D11*
G36*
X56454135Y-26209030D02*
X56454135Y-26309030D01*
X56954135Y-26309030D01*
X56954135Y-26209030D01*
X56454135Y-26209030D01*
G37*
X56454135Y-26209030D02*
X56454135Y-26309030D01*
X56954135Y-26309030D01*
X56954135Y-26209030D01*
X56454135Y-26209030D01*
G36*
X56454135Y-26209030D02*
X56454135Y-26509030D01*
X56554135Y-26509030D01*
X56554135Y-26209030D01*
X56454135Y-26209030D01*
G37*
X56454135Y-26209030D02*
X56454135Y-26509030D01*
X56554135Y-26509030D01*
X56554135Y-26209030D01*
X56454135Y-26209030D01*
G36*
X56454135Y-26809030D02*
X56454135Y-27009030D01*
X56554135Y-27009030D01*
X56554135Y-26809030D01*
X56454135Y-26809030D01*
G37*
X56454135Y-26809030D02*
X56454135Y-27009030D01*
X56554135Y-27009030D01*
X56554135Y-26809030D01*
X56454135Y-26809030D01*
G36*
X56854135Y-26209030D02*
X56854135Y-27009030D01*
X56954135Y-27009030D01*
X56954135Y-26209030D01*
X56854135Y-26209030D01*
G37*
X56854135Y-26209030D02*
X56854135Y-27009030D01*
X56954135Y-27009030D01*
X56954135Y-26209030D01*
X56854135Y-26209030D01*
G36*
X56654135Y-26609030D02*
X56654135Y-26709030D01*
X56754135Y-26709030D01*
X56754135Y-26609030D01*
X56654135Y-26609030D01*
G37*
X56654135Y-26609030D02*
X56654135Y-26709030D01*
X56754135Y-26709030D01*
X56754135Y-26609030D01*
X56654135Y-26609030D01*
D10*
X44259500Y-20320000D02*
X44259500Y-22860000D01*
X44259500Y-22860000D02*
X41719500Y-22860000D01*
D11*
X56182833Y-26973809D02*
X56068547Y-27011904D01*
X55878071Y-27011904D01*
X55801880Y-26973809D01*
X55763785Y-26935714D01*
X55725690Y-26859523D01*
X55725690Y-26783333D01*
X55763785Y-26707142D01*
X55801880Y-26669047D01*
X55878071Y-26630952D01*
X56030452Y-26592857D01*
X56106642Y-26554761D01*
X56144738Y-26516666D01*
X56182833Y-26440476D01*
X56182833Y-26364285D01*
X56144738Y-26288095D01*
X56106642Y-26250000D01*
X56030452Y-26211904D01*
X55839976Y-26211904D01*
X55725690Y-26250000D01*
X55497119Y-26211904D02*
X55039976Y-26211904D01*
X55268547Y-27011904D02*
X55268547Y-26211904D01*
X49228104Y-21151904D02*
X48770961Y-21151904D01*
X48999532Y-21951904D02*
X48999532Y-21151904D01*
X48580485Y-21151904D02*
X48047151Y-21951904D01*
X48047151Y-21151904D02*
X48580485Y-21951904D01*
X47590008Y-21151904D02*
X47513818Y-21151904D01*
X47437628Y-21190000D01*
X47399532Y-21228095D01*
X47361437Y-21304285D01*
X47323342Y-21456666D01*
X47323342Y-21647142D01*
X47361437Y-21799523D01*
X47399532Y-21875714D01*
X47437628Y-21913809D01*
X47513818Y-21951904D01*
X47590008Y-21951904D01*
X47666199Y-21913809D01*
X47704294Y-21875714D01*
X47742389Y-21799523D01*
X47780485Y-21647142D01*
X47780485Y-21456666D01*
X47742389Y-21304285D01*
X47704294Y-21228095D01*
X47666199Y-21190000D01*
X47590008Y-21151904D01*
X46409056Y-21113809D02*
X47094770Y-22142380D01*
X46142389Y-21951904D02*
X46142389Y-21151904D01*
X45951913Y-21151904D01*
X45837628Y-21190000D01*
X45761437Y-21266190D01*
X45723342Y-21342380D01*
X45685247Y-21494761D01*
X45685247Y-21609047D01*
X45723342Y-21761428D01*
X45761437Y-21837619D01*
X45837628Y-21913809D01*
X45951913Y-21951904D01*
X46142389Y-21951904D01*
X45418580Y-21151904D02*
X44923342Y-21151904D01*
X45190008Y-21456666D01*
X45075723Y-21456666D01*
X44999532Y-21494761D01*
X44961437Y-21532857D01*
X44923342Y-21609047D01*
X44923342Y-21799523D01*
X44961437Y-21875714D01*
X44999532Y-21913809D01*
X45075723Y-21951904D01*
X45304294Y-21951904D01*
X45380485Y-21913809D01*
X45418580Y-21875714D01*
X56394309Y-46932857D02*
X56280023Y-46970952D01*
X56241928Y-47009047D01*
X56203833Y-47085238D01*
X56203833Y-47199523D01*
X56241928Y-47275714D01*
X56280023Y-47313809D01*
X56356214Y-47351904D01*
X56660976Y-47351904D01*
X56660976Y-46551904D01*
X56394309Y-46551904D01*
X56318119Y-46590000D01*
X56280023Y-46628095D01*
X56241928Y-46704285D01*
X56241928Y-46780476D01*
X56280023Y-46856666D01*
X56318119Y-46894761D01*
X56394309Y-46932857D01*
X56660976Y-46932857D01*
X55899071Y-46628095D02*
X55860976Y-46590000D01*
X55784785Y-46551904D01*
X55594309Y-46551904D01*
X55518119Y-46590000D01*
X55480023Y-46628095D01*
X55441928Y-46704285D01*
X55441928Y-46780476D01*
X55480023Y-46894761D01*
X55937166Y-47351904D01*
X55441928Y-47351904D01*
X56337166Y-39312857D02*
X56603833Y-39312857D01*
X56603833Y-39731904D02*
X56603833Y-38931904D01*
X56222880Y-38931904D01*
X55994309Y-38931904D02*
X55460976Y-38931904D01*
X55803833Y-39731904D01*
X56337166Y-36772857D02*
X56603833Y-36772857D01*
X56603833Y-37191904D02*
X56603833Y-36391904D01*
X56222880Y-36391904D01*
X55575261Y-36391904D02*
X55727642Y-36391904D01*
X55803833Y-36430000D01*
X55841928Y-36468095D01*
X55918119Y-36582380D01*
X55956214Y-36734761D01*
X55956214Y-37039523D01*
X55918119Y-37115714D01*
X55880023Y-37153809D01*
X55803833Y-37191904D01*
X55651452Y-37191904D01*
X55575261Y-37153809D01*
X55537166Y-37115714D01*
X55499071Y-37039523D01*
X55499071Y-36849047D01*
X55537166Y-36772857D01*
X55575261Y-36734761D01*
X55651452Y-36696666D01*
X55803833Y-36696666D01*
X55880023Y-36734761D01*
X55918119Y-36772857D01*
X55956214Y-36849047D01*
X56337166Y-34232857D02*
X56603833Y-34232857D01*
X56603833Y-34651904D02*
X56603833Y-33851904D01*
X56222880Y-33851904D01*
X55537166Y-33851904D02*
X55918119Y-33851904D01*
X55956214Y-34232857D01*
X55918119Y-34194761D01*
X55841928Y-34156666D01*
X55651452Y-34156666D01*
X55575261Y-34194761D01*
X55537166Y-34232857D01*
X55499071Y-34309047D01*
X55499071Y-34499523D01*
X55537166Y-34575714D01*
X55575261Y-34613809D01*
X55651452Y-34651904D01*
X55841928Y-34651904D01*
X55918119Y-34613809D01*
X55956214Y-34575714D01*
X56622880Y-21951904D02*
X56889547Y-21570952D01*
X57080023Y-21951904D02*
X57080023Y-21151904D01*
X56775261Y-21151904D01*
X56699071Y-21190000D01*
X56660976Y-21228095D01*
X56622880Y-21304285D01*
X56622880Y-21418571D01*
X56660976Y-21494761D01*
X56699071Y-21532857D01*
X56775261Y-21570952D01*
X57080023Y-21570952D01*
X56318119Y-21723333D02*
X55937166Y-21723333D01*
X56394309Y-21951904D02*
X56127642Y-21151904D01*
X55860976Y-21951904D01*
X55670500Y-21151904D02*
X55480023Y-21951904D01*
X55327642Y-21380476D01*
X55175261Y-21951904D01*
X54984785Y-21151904D01*
X56680023Y-23730000D02*
X56756214Y-23691904D01*
X56870500Y-23691904D01*
X56984785Y-23730000D01*
X57060976Y-23806190D01*
X57099071Y-23882380D01*
X57137166Y-24034761D01*
X57137166Y-24149047D01*
X57099071Y-24301428D01*
X57060976Y-24377619D01*
X56984785Y-24453809D01*
X56870500Y-24491904D01*
X56794309Y-24491904D01*
X56680023Y-24453809D01*
X56641928Y-24415714D01*
X56641928Y-24149047D01*
X56794309Y-24149047D01*
X56299071Y-24491904D02*
X56299071Y-23691904D01*
X55841928Y-24491904D01*
X55841928Y-23691904D01*
X55460976Y-24491904D02*
X55460976Y-23691904D01*
X55270500Y-23691904D01*
X55156214Y-23730000D01*
X55080023Y-23806190D01*
X55041928Y-23882380D01*
X55003833Y-24034761D01*
X55003833Y-24149047D01*
X55041928Y-24301428D01*
X55080023Y-24377619D01*
X55156214Y-24453809D01*
X55270500Y-24491904D01*
X55460976Y-24491904D01*
X57137166Y-28771904D02*
X56870500Y-29571904D01*
X56603833Y-28771904D01*
X55880023Y-29495714D02*
X55918119Y-29533809D01*
X56032404Y-29571904D01*
X56108595Y-29571904D01*
X56222880Y-29533809D01*
X56299071Y-29457619D01*
X56337166Y-29381428D01*
X56375261Y-29229047D01*
X56375261Y-29114761D01*
X56337166Y-28962380D01*
X56299071Y-28886190D01*
X56222880Y-28810000D01*
X56108595Y-28771904D01*
X56032404Y-28771904D01*
X55918119Y-28810000D01*
X55880023Y-28848095D01*
X55080023Y-29495714D02*
X55118119Y-29533809D01*
X55232404Y-29571904D01*
X55308595Y-29571904D01*
X55422880Y-29533809D01*
X55499071Y-29457619D01*
X55537166Y-29381428D01*
X55575261Y-29229047D01*
X55575261Y-29114761D01*
X55537166Y-28962380D01*
X55499071Y-28886190D01*
X55422880Y-28810000D01*
X55308595Y-28771904D01*
X55232404Y-28771904D01*
X55118119Y-28810000D01*
X55080023Y-28848095D01*
X56337166Y-31692857D02*
X56603833Y-31692857D01*
X56603833Y-32111904D02*
X56603833Y-31311904D01*
X56222880Y-31311904D01*
X55575261Y-31578571D02*
X55575261Y-32111904D01*
X55765738Y-31273809D02*
X55956214Y-31845238D01*
X55460976Y-31845238D01*
X56394309Y-41852857D02*
X56280023Y-41890952D01*
X56241928Y-41929047D01*
X56203833Y-42005238D01*
X56203833Y-42119523D01*
X56241928Y-42195714D01*
X56280023Y-42233809D01*
X56356214Y-42271904D01*
X56660976Y-42271904D01*
X56660976Y-41471904D01*
X56394309Y-41471904D01*
X56318119Y-41510000D01*
X56280023Y-41548095D01*
X56241928Y-41624285D01*
X56241928Y-41700476D01*
X56280023Y-41776666D01*
X56318119Y-41814761D01*
X56394309Y-41852857D01*
X56660976Y-41852857D01*
X55441928Y-42271904D02*
X55899071Y-42271904D01*
X55670500Y-42271904D02*
X55670500Y-41471904D01*
X55746690Y-41586190D01*
X55822880Y-41662380D01*
X55899071Y-41700476D01*
X56394309Y-44392857D02*
X56280023Y-44430952D01*
X56241928Y-44469047D01*
X56203833Y-44545238D01*
X56203833Y-44659523D01*
X56241928Y-44735714D01*
X56280023Y-44773809D01*
X56356214Y-44811904D01*
X56660976Y-44811904D01*
X56660976Y-44011904D01*
X56394309Y-44011904D01*
X56318119Y-44050000D01*
X56280023Y-44088095D01*
X56241928Y-44164285D01*
X56241928Y-44240476D01*
X56280023Y-44316666D01*
X56318119Y-44354761D01*
X56394309Y-44392857D01*
X56660976Y-44392857D01*
X55937166Y-44011904D02*
X55441928Y-44011904D01*
X55708595Y-44316666D01*
X55594309Y-44316666D01*
X55518119Y-44354761D01*
X55480023Y-44392857D01*
X55441928Y-44469047D01*
X55441928Y-44659523D01*
X55480023Y-44735714D01*
X55518119Y-44773809D01*
X55594309Y-44811904D01*
X55822880Y-44811904D01*
X55899071Y-44773809D01*
X55937166Y-44735714D01*
X56394309Y-49472857D02*
X56280023Y-49510952D01*
X56241928Y-49549047D01*
X56203833Y-49625238D01*
X56203833Y-49739523D01*
X56241928Y-49815714D01*
X56280023Y-49853809D01*
X56356214Y-49891904D01*
X56660976Y-49891904D01*
X56660976Y-49091904D01*
X56394309Y-49091904D01*
X56318119Y-49130000D01*
X56280023Y-49168095D01*
X56241928Y-49244285D01*
X56241928Y-49320476D01*
X56280023Y-49396666D01*
X56318119Y-49434761D01*
X56394309Y-49472857D01*
X56660976Y-49472857D01*
X55518119Y-49091904D02*
X55670500Y-49091904D01*
X55746690Y-49130000D01*
X55784785Y-49168095D01*
X55860976Y-49282380D01*
X55899071Y-49434761D01*
X55899071Y-49739523D01*
X55860976Y-49815714D01*
X55822880Y-49853809D01*
X55746690Y-49891904D01*
X55594309Y-49891904D01*
X55518119Y-49853809D01*
X55480023Y-49815714D01*
X55441928Y-49739523D01*
X55441928Y-49549047D01*
X55480023Y-49472857D01*
X55518119Y-49434761D01*
X55594309Y-49396666D01*
X55746690Y-49396666D01*
X55822880Y-49434761D01*
X55860976Y-49472857D01*
X55899071Y-49549047D01*
X45472309Y-49472857D02*
X45358023Y-49510952D01*
X45319928Y-49549047D01*
X45281833Y-49625238D01*
X45281833Y-49739523D01*
X45319928Y-49815714D01*
X45358023Y-49853809D01*
X45434214Y-49891904D01*
X45738976Y-49891904D01*
X45738976Y-49091904D01*
X45472309Y-49091904D01*
X45396119Y-49130000D01*
X45358023Y-49168095D01*
X45319928Y-49244285D01*
X45319928Y-49320476D01*
X45358023Y-49396666D01*
X45396119Y-49434761D01*
X45472309Y-49472857D01*
X45738976Y-49472857D01*
X44558023Y-49091904D02*
X44938976Y-49091904D01*
X44977071Y-49472857D01*
X44938976Y-49434761D01*
X44862785Y-49396666D01*
X44672309Y-49396666D01*
X44596119Y-49434761D01*
X44558023Y-49472857D01*
X44519928Y-49549047D01*
X44519928Y-49739523D01*
X44558023Y-49815714D01*
X44596119Y-49853809D01*
X44672309Y-49891904D01*
X44862785Y-49891904D01*
X44938976Y-49853809D01*
X44977071Y-49815714D01*
X45472309Y-46932857D02*
X45358023Y-46970952D01*
X45319928Y-47009047D01*
X45281833Y-47085238D01*
X45281833Y-47199523D01*
X45319928Y-47275714D01*
X45358023Y-47313809D01*
X45434214Y-47351904D01*
X45738976Y-47351904D01*
X45738976Y-46551904D01*
X45472309Y-46551904D01*
X45396119Y-46590000D01*
X45358023Y-46628095D01*
X45319928Y-46704285D01*
X45319928Y-46780476D01*
X45358023Y-46856666D01*
X45396119Y-46894761D01*
X45472309Y-46932857D01*
X45738976Y-46932857D01*
X44596119Y-46818571D02*
X44596119Y-47351904D01*
X44786595Y-46513809D02*
X44977071Y-47085238D01*
X44481833Y-47085238D01*
X45700880Y-44392857D02*
X45434214Y-44392857D01*
X45319928Y-44811904D02*
X45700880Y-44811904D01*
X45700880Y-44011904D01*
X45319928Y-44011904D01*
X44634214Y-44011904D02*
X44786595Y-44011904D01*
X44862785Y-44050000D01*
X44900880Y-44088095D01*
X44977071Y-44202380D01*
X45015166Y-44354761D01*
X45015166Y-44659523D01*
X44977071Y-44735714D01*
X44938976Y-44773809D01*
X44862785Y-44811904D01*
X44710404Y-44811904D01*
X44634214Y-44773809D01*
X44596119Y-44735714D01*
X44558023Y-44659523D01*
X44558023Y-44469047D01*
X44596119Y-44392857D01*
X44634214Y-44354761D01*
X44710404Y-44316666D01*
X44862785Y-44316666D01*
X44938976Y-44354761D01*
X44977071Y-44392857D01*
X45015166Y-44469047D01*
X45738976Y-42271904D02*
X45738976Y-41471904D01*
X45548500Y-41471904D01*
X45434214Y-41510000D01*
X45358023Y-41586190D01*
X45319928Y-41662380D01*
X45281833Y-41814761D01*
X45281833Y-41929047D01*
X45319928Y-42081428D01*
X45358023Y-42157619D01*
X45434214Y-42233809D01*
X45548500Y-42271904D01*
X45738976Y-42271904D01*
X45015166Y-41471904D02*
X44481833Y-41471904D01*
X44824690Y-42271904D01*
X45281833Y-39655714D02*
X45319928Y-39693809D01*
X45434214Y-39731904D01*
X45510404Y-39731904D01*
X45624690Y-39693809D01*
X45700880Y-39617619D01*
X45738976Y-39541428D01*
X45777071Y-39389047D01*
X45777071Y-39274761D01*
X45738976Y-39122380D01*
X45700880Y-39046190D01*
X45624690Y-38970000D01*
X45510404Y-38931904D01*
X45434214Y-38931904D01*
X45319928Y-38970000D01*
X45281833Y-39008095D01*
X44596119Y-38931904D02*
X44748500Y-38931904D01*
X44824690Y-38970000D01*
X44862785Y-39008095D01*
X44938976Y-39122380D01*
X44977071Y-39274761D01*
X44977071Y-39579523D01*
X44938976Y-39655714D01*
X44900880Y-39693809D01*
X44824690Y-39731904D01*
X44672309Y-39731904D01*
X44596119Y-39693809D01*
X44558023Y-39655714D01*
X44519928Y-39579523D01*
X44519928Y-39389047D01*
X44558023Y-39312857D01*
X44596119Y-39274761D01*
X44672309Y-39236666D01*
X44824690Y-39236666D01*
X44900880Y-39274761D01*
X44938976Y-39312857D01*
X44977071Y-39389047D01*
X45738976Y-37191904D02*
X45738976Y-36391904D01*
X45548500Y-36391904D01*
X45434214Y-36430000D01*
X45358023Y-36506190D01*
X45319928Y-36582380D01*
X45281833Y-36734761D01*
X45281833Y-36849047D01*
X45319928Y-37001428D01*
X45358023Y-37077619D01*
X45434214Y-37153809D01*
X45548500Y-37191904D01*
X45738976Y-37191904D01*
X44596119Y-36658571D02*
X44596119Y-37191904D01*
X44786595Y-36353809D02*
X44977071Y-36925238D01*
X44481833Y-36925238D01*
X45758023Y-26270000D02*
X45834214Y-26231904D01*
X45948500Y-26231904D01*
X46062785Y-26270000D01*
X46138976Y-26346190D01*
X46177071Y-26422380D01*
X46215166Y-26574761D01*
X46215166Y-26689047D01*
X46177071Y-26841428D01*
X46138976Y-26917619D01*
X46062785Y-26993809D01*
X45948500Y-27031904D01*
X45872309Y-27031904D01*
X45758023Y-26993809D01*
X45719928Y-26955714D01*
X45719928Y-26689047D01*
X45872309Y-26689047D01*
X45377071Y-27031904D02*
X45377071Y-26231904D01*
X44919928Y-27031904D01*
X44919928Y-26231904D01*
X44538976Y-27031904D02*
X44538976Y-26231904D01*
X44348500Y-26231904D01*
X44234214Y-26270000D01*
X44158023Y-26346190D01*
X44119928Y-26422380D01*
X44081833Y-26574761D01*
X44081833Y-26689047D01*
X44119928Y-26841428D01*
X44158023Y-26917619D01*
X44234214Y-26993809D01*
X44348500Y-27031904D01*
X44538976Y-27031904D01*
X45758023Y-28810000D02*
X45834214Y-28771904D01*
X45948500Y-28771904D01*
X46062785Y-28810000D01*
X46138976Y-28886190D01*
X46177071Y-28962380D01*
X46215166Y-29114761D01*
X46215166Y-29229047D01*
X46177071Y-29381428D01*
X46138976Y-29457619D01*
X46062785Y-29533809D01*
X45948500Y-29571904D01*
X45872309Y-29571904D01*
X45758023Y-29533809D01*
X45719928Y-29495714D01*
X45719928Y-29229047D01*
X45872309Y-29229047D01*
X45377071Y-29571904D02*
X45377071Y-28771904D01*
X44919928Y-29571904D01*
X44919928Y-28771904D01*
X44538976Y-29571904D02*
X44538976Y-28771904D01*
X44348500Y-28771904D01*
X44234214Y-28810000D01*
X44158023Y-28886190D01*
X44119928Y-28962380D01*
X44081833Y-29114761D01*
X44081833Y-29229047D01*
X44119928Y-29381428D01*
X44158023Y-29457619D01*
X44234214Y-29533809D01*
X44348500Y-29571904D01*
X44538976Y-29571904D01*
X45738976Y-32111904D02*
X45738976Y-31311904D01*
X45548500Y-31311904D01*
X45434214Y-31350000D01*
X45358023Y-31426190D01*
X45319928Y-31502380D01*
X45281833Y-31654761D01*
X45281833Y-31769047D01*
X45319928Y-31921428D01*
X45358023Y-31997619D01*
X45434214Y-32073809D01*
X45548500Y-32111904D01*
X45738976Y-32111904D01*
X44519928Y-32111904D02*
X44977071Y-32111904D01*
X44748500Y-32111904D02*
X44748500Y-31311904D01*
X44824690Y-31426190D01*
X44900880Y-31502380D01*
X44977071Y-31540476D01*
X45738976Y-34651904D02*
X45738976Y-33851904D01*
X45548500Y-33851904D01*
X45434214Y-33890000D01*
X45358023Y-33966190D01*
X45319928Y-34042380D01*
X45281833Y-34194761D01*
X45281833Y-34309047D01*
X45319928Y-34461428D01*
X45358023Y-34537619D01*
X45434214Y-34613809D01*
X45548500Y-34651904D01*
X45738976Y-34651904D01*
X44786595Y-33851904D02*
X44710404Y-33851904D01*
X44634214Y-33890000D01*
X44596119Y-33928095D01*
X44558023Y-34004285D01*
X44519928Y-34156666D01*
X44519928Y-34347142D01*
X44558023Y-34499523D01*
X44596119Y-34575714D01*
X44634214Y-34613809D01*
X44710404Y-34651904D01*
X44786595Y-34651904D01*
X44862785Y-34613809D01*
X44900880Y-34575714D01*
X44938976Y-34499523D01*
X44977071Y-34347142D01*
X44977071Y-34156666D01*
X44938976Y-34004285D01*
X44900880Y-33928095D01*
X44862785Y-33890000D01*
X44786595Y-33851904D01*
X45738976Y-24491904D02*
X45738976Y-23691904D01*
X45548500Y-23691904D01*
X45434214Y-23730000D01*
X45358023Y-23806190D01*
X45319928Y-23882380D01*
X45281833Y-24034761D01*
X45281833Y-24149047D01*
X45319928Y-24301428D01*
X45358023Y-24377619D01*
X45434214Y-24453809D01*
X45548500Y-24491904D01*
X45738976Y-24491904D01*
X44977071Y-23768095D02*
X44938976Y-23730000D01*
X44862785Y-23691904D01*
X44672309Y-23691904D01*
X44596119Y-23730000D01*
X44558023Y-23768095D01*
X44519928Y-23844285D01*
X44519928Y-23920476D01*
X44558023Y-24034761D01*
X45015166Y-24491904D01*
X44519928Y-24491904D01*
G04 #@! TD*
M02*
