G04 #@! TF.GenerationSoftware,KiCad,Pcbnew,(5.0.2)-1*
G04 #@! TF.CreationDate,2019-01-24T00:30:49-05:00*
G04 #@! TF.ProjectId,4x5macro,3478356d-6163-4726-9f2e-6b696361645f,rev?*
G04 #@! TF.SameCoordinates,Original*
G04 #@! TF.FileFunction,Soldermask,Top*
G04 #@! TF.FilePolarity,Negative*
%FSLAX46Y46*%
G04 Gerber Fmt 4.6, Leading zero omitted, Abs format (unit mm)*
G04 Created by KiCad (PCBNEW (5.0.2)-1) date 1/24/2019 12:30:49 AM*
%MOMM*%
%LPD*%
G01*
G04 APERTURE LIST*
%ADD10C,0.100000*%
G04 APERTURE END LIST*
D10*
G36*
X103916777Y-61145385D02*
X104134072Y-61235391D01*
X104329631Y-61366060D01*
X104495940Y-61532369D01*
X104626609Y-61727928D01*
X104716615Y-61945223D01*
X104762500Y-62175901D01*
X104762500Y-62411099D01*
X104716615Y-62641777D01*
X104626609Y-62859072D01*
X104495940Y-63054631D01*
X104329631Y-63220940D01*
X104134072Y-63351609D01*
X103916777Y-63441615D01*
X103686099Y-63487500D01*
X103450901Y-63487500D01*
X103220223Y-63441615D01*
X103002928Y-63351609D01*
X102807369Y-63220940D01*
X102641060Y-63054631D01*
X102510391Y-62859072D01*
X102420385Y-62641777D01*
X102374500Y-62411099D01*
X102374500Y-62175901D01*
X102420385Y-61945223D01*
X102510391Y-61727928D01*
X102641060Y-61532369D01*
X102807369Y-61366060D01*
X103002928Y-61235391D01*
X103220223Y-61145385D01*
X103450901Y-61099500D01*
X103686099Y-61099500D01*
X103916777Y-61145385D01*
X103916777Y-61145385D01*
G37*
G36*
X84993777Y-61145385D02*
X85211072Y-61235391D01*
X85406631Y-61366060D01*
X85572940Y-61532369D01*
X85703609Y-61727928D01*
X85793615Y-61945223D01*
X85839500Y-62175901D01*
X85839500Y-62411099D01*
X85793615Y-62641777D01*
X85703609Y-62859072D01*
X85572940Y-63054631D01*
X85406631Y-63220940D01*
X85211072Y-63351609D01*
X84993777Y-63441615D01*
X84763099Y-63487500D01*
X84527901Y-63487500D01*
X84297223Y-63441615D01*
X84079928Y-63351609D01*
X83884369Y-63220940D01*
X83718060Y-63054631D01*
X83587391Y-62859072D01*
X83497385Y-62641777D01*
X83451500Y-62411099D01*
X83451500Y-62175901D01*
X83497385Y-61945223D01*
X83587391Y-61727928D01*
X83718060Y-61532369D01*
X83884369Y-61366060D01*
X84079928Y-61235391D01*
X84297223Y-61145385D01*
X84527901Y-61099500D01*
X84763099Y-61099500D01*
X84993777Y-61145385D01*
X84993777Y-61145385D01*
G37*
G36*
X66070777Y-61145385D02*
X66288072Y-61235391D01*
X66483631Y-61366060D01*
X66649940Y-61532369D01*
X66780609Y-61727928D01*
X66870615Y-61945223D01*
X66916500Y-62175901D01*
X66916500Y-62411099D01*
X66870615Y-62641777D01*
X66780609Y-62859072D01*
X66649940Y-63054631D01*
X66483631Y-63220940D01*
X66288072Y-63351609D01*
X66070777Y-63441615D01*
X65840099Y-63487500D01*
X65604901Y-63487500D01*
X65374223Y-63441615D01*
X65156928Y-63351609D01*
X64961369Y-63220940D01*
X64795060Y-63054631D01*
X64664391Y-62859072D01*
X64574385Y-62641777D01*
X64528500Y-62411099D01*
X64528500Y-62175901D01*
X64574385Y-61945223D01*
X64664391Y-61727928D01*
X64795060Y-61532369D01*
X64961369Y-61366060D01*
X65156928Y-61235391D01*
X65374223Y-61145385D01*
X65604901Y-61099500D01*
X65840099Y-61099500D01*
X66070777Y-61145385D01*
X66070777Y-61145385D01*
G37*
G36*
X47147777Y-61145385D02*
X47365072Y-61235391D01*
X47560631Y-61366060D01*
X47726940Y-61532369D01*
X47857609Y-61727928D01*
X47947615Y-61945223D01*
X47993500Y-62175901D01*
X47993500Y-62411099D01*
X47947615Y-62641777D01*
X47857609Y-62859072D01*
X47726940Y-63054631D01*
X47560631Y-63220940D01*
X47365072Y-63351609D01*
X47147777Y-63441615D01*
X46917099Y-63487500D01*
X46681901Y-63487500D01*
X46451223Y-63441615D01*
X46233928Y-63351609D01*
X46038369Y-63220940D01*
X45872060Y-63054631D01*
X45741391Y-62859072D01*
X45651385Y-62641777D01*
X45605500Y-62411099D01*
X45605500Y-62175901D01*
X45651385Y-61945223D01*
X45741391Y-61727928D01*
X45872060Y-61532369D01*
X46038369Y-61366060D01*
X46233928Y-61235391D01*
X46451223Y-61145385D01*
X46681901Y-61099500D01*
X46917099Y-61099500D01*
X47147777Y-61145385D01*
X47147777Y-61145385D01*
G37*
G36*
X53497777Y-58605385D02*
X53715072Y-58695391D01*
X53910631Y-58826060D01*
X54076940Y-58992369D01*
X54207609Y-59187928D01*
X54297615Y-59405223D01*
X54343500Y-59635901D01*
X54343500Y-59871099D01*
X54297615Y-60101777D01*
X54207609Y-60319072D01*
X54076940Y-60514631D01*
X53910631Y-60680940D01*
X53715072Y-60811609D01*
X53497777Y-60901615D01*
X53267099Y-60947500D01*
X53031901Y-60947500D01*
X52801223Y-60901615D01*
X52583928Y-60811609D01*
X52388369Y-60680940D01*
X52222060Y-60514631D01*
X52091391Y-60319072D01*
X52001385Y-60101777D01*
X51955500Y-59871099D01*
X51955500Y-59635901D01*
X52001385Y-59405223D01*
X52091391Y-59187928D01*
X52222060Y-58992369D01*
X52388369Y-58826060D01*
X52583928Y-58695391D01*
X52801223Y-58605385D01*
X53031901Y-58559500D01*
X53267099Y-58559500D01*
X53497777Y-58605385D01*
X53497777Y-58605385D01*
G37*
G36*
X72420777Y-58605385D02*
X72638072Y-58695391D01*
X72833631Y-58826060D01*
X72999940Y-58992369D01*
X73130609Y-59187928D01*
X73220615Y-59405223D01*
X73266500Y-59635901D01*
X73266500Y-59871099D01*
X73220615Y-60101777D01*
X73130609Y-60319072D01*
X72999940Y-60514631D01*
X72833631Y-60680940D01*
X72638072Y-60811609D01*
X72420777Y-60901615D01*
X72190099Y-60947500D01*
X71954901Y-60947500D01*
X71724223Y-60901615D01*
X71506928Y-60811609D01*
X71311369Y-60680940D01*
X71145060Y-60514631D01*
X71014391Y-60319072D01*
X70924385Y-60101777D01*
X70878500Y-59871099D01*
X70878500Y-59635901D01*
X70924385Y-59405223D01*
X71014391Y-59187928D01*
X71145060Y-58992369D01*
X71311369Y-58826060D01*
X71506928Y-58695391D01*
X71724223Y-58605385D01*
X71954901Y-58559500D01*
X72190099Y-58559500D01*
X72420777Y-58605385D01*
X72420777Y-58605385D01*
G37*
G36*
X110266777Y-58605385D02*
X110484072Y-58695391D01*
X110679631Y-58826060D01*
X110845940Y-58992369D01*
X110976609Y-59187928D01*
X111066615Y-59405223D01*
X111112500Y-59635901D01*
X111112500Y-59871099D01*
X111066615Y-60101777D01*
X110976609Y-60319072D01*
X110845940Y-60514631D01*
X110679631Y-60680940D01*
X110484072Y-60811609D01*
X110266777Y-60901615D01*
X110036099Y-60947500D01*
X109800901Y-60947500D01*
X109570223Y-60901615D01*
X109352928Y-60811609D01*
X109157369Y-60680940D01*
X108991060Y-60514631D01*
X108860391Y-60319072D01*
X108770385Y-60101777D01*
X108724500Y-59871099D01*
X108724500Y-59635901D01*
X108770385Y-59405223D01*
X108860391Y-59187928D01*
X108991060Y-58992369D01*
X109157369Y-58826060D01*
X109352928Y-58695391D01*
X109570223Y-58605385D01*
X109800901Y-58559500D01*
X110036099Y-58559500D01*
X110266777Y-58605385D01*
X110266777Y-58605385D01*
G37*
G36*
X91343777Y-58605385D02*
X91561072Y-58695391D01*
X91756631Y-58826060D01*
X91922940Y-58992369D01*
X92053609Y-59187928D01*
X92143615Y-59405223D01*
X92189500Y-59635901D01*
X92189500Y-59871099D01*
X92143615Y-60101777D01*
X92053609Y-60319072D01*
X91922940Y-60514631D01*
X91756631Y-60680940D01*
X91561072Y-60811609D01*
X91343777Y-60901615D01*
X91113099Y-60947500D01*
X90877901Y-60947500D01*
X90647223Y-60901615D01*
X90429928Y-60811609D01*
X90234369Y-60680940D01*
X90068060Y-60514631D01*
X89937391Y-60319072D01*
X89847385Y-60101777D01*
X89801500Y-59871099D01*
X89801500Y-59635901D01*
X89847385Y-59405223D01*
X89937391Y-59187928D01*
X90068060Y-58992369D01*
X90234369Y-58826060D01*
X90429928Y-58695391D01*
X90647223Y-58605385D01*
X90877901Y-58559500D01*
X91113099Y-58559500D01*
X91343777Y-58605385D01*
X91343777Y-58605385D01*
G37*
G36*
X84226500Y-57239000D02*
X82524500Y-57239000D01*
X82524500Y-55537000D01*
X84226500Y-55537000D01*
X84226500Y-57239000D01*
X84226500Y-57239000D01*
G37*
G36*
X46380500Y-57239000D02*
X44678500Y-57239000D01*
X44678500Y-55537000D01*
X46380500Y-55537000D01*
X46380500Y-57239000D01*
X46380500Y-57239000D01*
G37*
G36*
X53316321Y-55549313D02*
X53316324Y-55549314D01*
X53316325Y-55549314D01*
X53476739Y-55597975D01*
X53476741Y-55597976D01*
X53476744Y-55597977D01*
X53624578Y-55676995D01*
X53754159Y-55783341D01*
X53860505Y-55912922D01*
X53939523Y-56060756D01*
X53939524Y-56060759D01*
X53939525Y-56060761D01*
X53988186Y-56221175D01*
X53988187Y-56221179D01*
X54004617Y-56388000D01*
X53988187Y-56554821D01*
X53939523Y-56715244D01*
X53860505Y-56863078D01*
X53754159Y-56992659D01*
X53624578Y-57099005D01*
X53476744Y-57178023D01*
X53476741Y-57178024D01*
X53476739Y-57178025D01*
X53316325Y-57226686D01*
X53316324Y-57226686D01*
X53316321Y-57226687D01*
X53191304Y-57239000D01*
X53107696Y-57239000D01*
X52982679Y-57226687D01*
X52982676Y-57226686D01*
X52982675Y-57226686D01*
X52822261Y-57178025D01*
X52822259Y-57178024D01*
X52822256Y-57178023D01*
X52674422Y-57099005D01*
X52544841Y-56992659D01*
X52438495Y-56863078D01*
X52359477Y-56715244D01*
X52310813Y-56554821D01*
X52294383Y-56388000D01*
X52310813Y-56221179D01*
X52310814Y-56221175D01*
X52359475Y-56060761D01*
X52359476Y-56060759D01*
X52359477Y-56060756D01*
X52438495Y-55912922D01*
X52544841Y-55783341D01*
X52674422Y-55676995D01*
X52822256Y-55597977D01*
X52822259Y-55597976D01*
X52822261Y-55597975D01*
X52982675Y-55549314D01*
X52982676Y-55549314D01*
X52982679Y-55549313D01*
X53107696Y-55537000D01*
X53191304Y-55537000D01*
X53316321Y-55549313D01*
X53316321Y-55549313D01*
G37*
G36*
X103213000Y-57239000D02*
X101511000Y-57239000D01*
X101511000Y-55537000D01*
X103213000Y-55537000D01*
X103213000Y-57239000D01*
X103213000Y-57239000D01*
G37*
G36*
X110148821Y-55549313D02*
X110148824Y-55549314D01*
X110148825Y-55549314D01*
X110309239Y-55597975D01*
X110309241Y-55597976D01*
X110309244Y-55597977D01*
X110457078Y-55676995D01*
X110586659Y-55783341D01*
X110693005Y-55912922D01*
X110772023Y-56060756D01*
X110772024Y-56060759D01*
X110772025Y-56060761D01*
X110820686Y-56221175D01*
X110820687Y-56221179D01*
X110837117Y-56388000D01*
X110820687Y-56554821D01*
X110772023Y-56715244D01*
X110693005Y-56863078D01*
X110586659Y-56992659D01*
X110457078Y-57099005D01*
X110309244Y-57178023D01*
X110309241Y-57178024D01*
X110309239Y-57178025D01*
X110148825Y-57226686D01*
X110148824Y-57226686D01*
X110148821Y-57226687D01*
X110023804Y-57239000D01*
X109940196Y-57239000D01*
X109815179Y-57226687D01*
X109815176Y-57226686D01*
X109815175Y-57226686D01*
X109654761Y-57178025D01*
X109654759Y-57178024D01*
X109654756Y-57178023D01*
X109506922Y-57099005D01*
X109377341Y-56992659D01*
X109270995Y-56863078D01*
X109191977Y-56715244D01*
X109143313Y-56554821D01*
X109126883Y-56388000D01*
X109143313Y-56221179D01*
X109143314Y-56221175D01*
X109191975Y-56060761D01*
X109191976Y-56060759D01*
X109191977Y-56060756D01*
X109270995Y-55912922D01*
X109377341Y-55783341D01*
X109506922Y-55676995D01*
X109654756Y-55597977D01*
X109654759Y-55597976D01*
X109654761Y-55597975D01*
X109815175Y-55549314D01*
X109815176Y-55549314D01*
X109815179Y-55549313D01*
X109940196Y-55537000D01*
X110023804Y-55537000D01*
X110148821Y-55549313D01*
X110148821Y-55549313D01*
G37*
G36*
X91162321Y-55549313D02*
X91162324Y-55549314D01*
X91162325Y-55549314D01*
X91322739Y-55597975D01*
X91322741Y-55597976D01*
X91322744Y-55597977D01*
X91470578Y-55676995D01*
X91600159Y-55783341D01*
X91706505Y-55912922D01*
X91785523Y-56060756D01*
X91785524Y-56060759D01*
X91785525Y-56060761D01*
X91834186Y-56221175D01*
X91834187Y-56221179D01*
X91850617Y-56388000D01*
X91834187Y-56554821D01*
X91785523Y-56715244D01*
X91706505Y-56863078D01*
X91600159Y-56992659D01*
X91470578Y-57099005D01*
X91322744Y-57178023D01*
X91322741Y-57178024D01*
X91322739Y-57178025D01*
X91162325Y-57226686D01*
X91162324Y-57226686D01*
X91162321Y-57226687D01*
X91037304Y-57239000D01*
X90953696Y-57239000D01*
X90828679Y-57226687D01*
X90828676Y-57226686D01*
X90828675Y-57226686D01*
X90668261Y-57178025D01*
X90668259Y-57178024D01*
X90668256Y-57178023D01*
X90520422Y-57099005D01*
X90390841Y-56992659D01*
X90284495Y-56863078D01*
X90205477Y-56715244D01*
X90156813Y-56554821D01*
X90140383Y-56388000D01*
X90156813Y-56221179D01*
X90156814Y-56221175D01*
X90205475Y-56060761D01*
X90205476Y-56060759D01*
X90205477Y-56060756D01*
X90284495Y-55912922D01*
X90390841Y-55783341D01*
X90520422Y-55676995D01*
X90668256Y-55597977D01*
X90668259Y-55597976D01*
X90668261Y-55597975D01*
X90828675Y-55549314D01*
X90828676Y-55549314D01*
X90828679Y-55549313D01*
X90953696Y-55537000D01*
X91037304Y-55537000D01*
X91162321Y-55549313D01*
X91162321Y-55549313D01*
G37*
G36*
X65367000Y-57175500D02*
X63665000Y-57175500D01*
X63665000Y-55473500D01*
X65367000Y-55473500D01*
X65367000Y-57175500D01*
X65367000Y-57175500D01*
G37*
G36*
X72302821Y-55485813D02*
X72302824Y-55485814D01*
X72302825Y-55485814D01*
X72463239Y-55534475D01*
X72463241Y-55534476D01*
X72463244Y-55534477D01*
X72611078Y-55613495D01*
X72740659Y-55719841D01*
X72847005Y-55849422D01*
X72926023Y-55997256D01*
X72974687Y-56157679D01*
X72991117Y-56324500D01*
X72974687Y-56491321D01*
X72974686Y-56491324D01*
X72974686Y-56491325D01*
X72955424Y-56554825D01*
X72926023Y-56651744D01*
X72847005Y-56799578D01*
X72740659Y-56929159D01*
X72611078Y-57035505D01*
X72463244Y-57114523D01*
X72463241Y-57114524D01*
X72463239Y-57114525D01*
X72302825Y-57163186D01*
X72302824Y-57163186D01*
X72302821Y-57163187D01*
X72177804Y-57175500D01*
X72094196Y-57175500D01*
X71969179Y-57163187D01*
X71969176Y-57163186D01*
X71969175Y-57163186D01*
X71808761Y-57114525D01*
X71808759Y-57114524D01*
X71808756Y-57114523D01*
X71660922Y-57035505D01*
X71531341Y-56929159D01*
X71424995Y-56799578D01*
X71345977Y-56651744D01*
X71316577Y-56554825D01*
X71297314Y-56491325D01*
X71297314Y-56491324D01*
X71297313Y-56491321D01*
X71280883Y-56324500D01*
X71297313Y-56157679D01*
X71345977Y-55997256D01*
X71424995Y-55849422D01*
X71531341Y-55719841D01*
X71660922Y-55613495D01*
X71808756Y-55534477D01*
X71808759Y-55534476D01*
X71808761Y-55534475D01*
X71969175Y-55485814D01*
X71969176Y-55485814D01*
X71969179Y-55485813D01*
X72094196Y-55473500D01*
X72177804Y-55473500D01*
X72302821Y-55485813D01*
X72302821Y-55485813D01*
G37*
G36*
X43399007Y-48620517D02*
X43488583Y-48638335D01*
X43657341Y-48708237D01*
X43657342Y-48708238D01*
X43809222Y-48809721D01*
X43938379Y-48938878D01*
X43938381Y-48938881D01*
X44039863Y-49090759D01*
X44109765Y-49259517D01*
X44145400Y-49438669D01*
X44145400Y-49621331D01*
X44109765Y-49800483D01*
X44039863Y-49969241D01*
X44039862Y-49969242D01*
X43938379Y-50121122D01*
X43809222Y-50250279D01*
X43809219Y-50250281D01*
X43657341Y-50351763D01*
X43488583Y-50421665D01*
X43399007Y-50439483D01*
X43309433Y-50457300D01*
X43126767Y-50457300D01*
X43037193Y-50439483D01*
X42947617Y-50421665D01*
X42778859Y-50351763D01*
X42626981Y-50250281D01*
X42626978Y-50250279D01*
X42497821Y-50121122D01*
X42396338Y-49969242D01*
X42396337Y-49969241D01*
X42326435Y-49800483D01*
X42290800Y-49621331D01*
X42290800Y-49438669D01*
X42326435Y-49259517D01*
X42396337Y-49090759D01*
X42497819Y-48938881D01*
X42497821Y-48938878D01*
X42626978Y-48809721D01*
X42778858Y-48708238D01*
X42778859Y-48708237D01*
X42947617Y-48638335D01*
X43037193Y-48620518D01*
X43126767Y-48602700D01*
X43309433Y-48602700D01*
X43399007Y-48620517D01*
X43399007Y-48620517D01*
G37*
G36*
X58181807Y-48620517D02*
X58271383Y-48638335D01*
X58440141Y-48708237D01*
X58440142Y-48708238D01*
X58592022Y-48809721D01*
X58721179Y-48938878D01*
X58721181Y-48938881D01*
X58822663Y-49090759D01*
X58892565Y-49259517D01*
X58928200Y-49438669D01*
X58928200Y-49621331D01*
X58892565Y-49800483D01*
X58822663Y-49969241D01*
X58822662Y-49969242D01*
X58721179Y-50121122D01*
X58592022Y-50250279D01*
X58592019Y-50250281D01*
X58440141Y-50351763D01*
X58271383Y-50421665D01*
X58181807Y-50439483D01*
X58092233Y-50457300D01*
X57909567Y-50457300D01*
X57819993Y-50439483D01*
X57730417Y-50421665D01*
X57561659Y-50351763D01*
X57409781Y-50250281D01*
X57409778Y-50250279D01*
X57280621Y-50121122D01*
X57179138Y-49969242D01*
X57179137Y-49969241D01*
X57109235Y-49800483D01*
X57073600Y-49621331D01*
X57073600Y-49438669D01*
X57109235Y-49259517D01*
X57179137Y-49090759D01*
X57280619Y-48938881D01*
X57280621Y-48938878D01*
X57409778Y-48809721D01*
X57561658Y-48708238D01*
X57561659Y-48708237D01*
X57730417Y-48638335D01*
X57819993Y-48620518D01*
X57909567Y-48602700D01*
X58092233Y-48602700D01*
X58181807Y-48620517D01*
X58181807Y-48620517D01*
G37*
G36*
X58639007Y-46080518D02*
X58728583Y-46098335D01*
X58897341Y-46168237D01*
X58897342Y-46168238D01*
X59049222Y-46269721D01*
X59178379Y-46398878D01*
X59178381Y-46398881D01*
X59279863Y-46550759D01*
X59349765Y-46719517D01*
X59385400Y-46898669D01*
X59385400Y-47081331D01*
X59349765Y-47260483D01*
X59279863Y-47429241D01*
X59279862Y-47429242D01*
X59178379Y-47581122D01*
X59049222Y-47710279D01*
X59049219Y-47710281D01*
X58897341Y-47811763D01*
X58728583Y-47881665D01*
X58639007Y-47899483D01*
X58549433Y-47917300D01*
X58366767Y-47917300D01*
X58277193Y-47899483D01*
X58187617Y-47881665D01*
X58018859Y-47811763D01*
X57866981Y-47710281D01*
X57866978Y-47710279D01*
X57737821Y-47581122D01*
X57636338Y-47429242D01*
X57636337Y-47429241D01*
X57566435Y-47260483D01*
X57530800Y-47081331D01*
X57530800Y-46898669D01*
X57566435Y-46719517D01*
X57636337Y-46550759D01*
X57737819Y-46398881D01*
X57737821Y-46398878D01*
X57866978Y-46269721D01*
X58018858Y-46168238D01*
X58018859Y-46168237D01*
X58187617Y-46098335D01*
X58277193Y-46080518D01*
X58366767Y-46062700D01*
X58549433Y-46062700D01*
X58639007Y-46080518D01*
X58639007Y-46080518D01*
G37*
G36*
X42941807Y-46080518D02*
X43031383Y-46098335D01*
X43200141Y-46168237D01*
X43200142Y-46168238D01*
X43352022Y-46269721D01*
X43481179Y-46398878D01*
X43481181Y-46398881D01*
X43582663Y-46550759D01*
X43652565Y-46719517D01*
X43688200Y-46898669D01*
X43688200Y-47081331D01*
X43652565Y-47260483D01*
X43582663Y-47429241D01*
X43582662Y-47429242D01*
X43481179Y-47581122D01*
X43352022Y-47710279D01*
X43352019Y-47710281D01*
X43200141Y-47811763D01*
X43031383Y-47881665D01*
X42941807Y-47899483D01*
X42852233Y-47917300D01*
X42669567Y-47917300D01*
X42579993Y-47899483D01*
X42490417Y-47881665D01*
X42321659Y-47811763D01*
X42169781Y-47710281D01*
X42169778Y-47710279D01*
X42040621Y-47581122D01*
X41939138Y-47429242D01*
X41939137Y-47429241D01*
X41869235Y-47260483D01*
X41833600Y-47081331D01*
X41833600Y-46898669D01*
X41869235Y-46719517D01*
X41939137Y-46550759D01*
X42040619Y-46398881D01*
X42040621Y-46398878D01*
X42169778Y-46269721D01*
X42321658Y-46168238D01*
X42321659Y-46168237D01*
X42490417Y-46098335D01*
X42579993Y-46080518D01*
X42669567Y-46062700D01*
X42852233Y-46062700D01*
X42941807Y-46080518D01*
X42941807Y-46080518D01*
G37*
G36*
X58181807Y-43540518D02*
X58271383Y-43558335D01*
X58440141Y-43628237D01*
X58440142Y-43628238D01*
X58592022Y-43729721D01*
X58721179Y-43858878D01*
X58721181Y-43858881D01*
X58822663Y-44010759D01*
X58892565Y-44179517D01*
X58892565Y-44179519D01*
X58928200Y-44358667D01*
X58928200Y-44541333D01*
X58910382Y-44630907D01*
X58892565Y-44720483D01*
X58822663Y-44889241D01*
X58822662Y-44889242D01*
X58721179Y-45041122D01*
X58592022Y-45170279D01*
X58592019Y-45170281D01*
X58440141Y-45271763D01*
X58271383Y-45341665D01*
X58181807Y-45359483D01*
X58092233Y-45377300D01*
X57909567Y-45377300D01*
X57819993Y-45359483D01*
X57730417Y-45341665D01*
X57561659Y-45271763D01*
X57409781Y-45170281D01*
X57409778Y-45170279D01*
X57280621Y-45041122D01*
X57179138Y-44889242D01*
X57179137Y-44889241D01*
X57109235Y-44720483D01*
X57091417Y-44630907D01*
X57073600Y-44541333D01*
X57073600Y-44358667D01*
X57109235Y-44179519D01*
X57109235Y-44179517D01*
X57179137Y-44010759D01*
X57280619Y-43858881D01*
X57280621Y-43858878D01*
X57409778Y-43729721D01*
X57561658Y-43628238D01*
X57561659Y-43628237D01*
X57730417Y-43558335D01*
X57819993Y-43540518D01*
X57909567Y-43522700D01*
X58092233Y-43522700D01*
X58181807Y-43540518D01*
X58181807Y-43540518D01*
G37*
G36*
X43399007Y-43540518D02*
X43488583Y-43558335D01*
X43657341Y-43628237D01*
X43657342Y-43628238D01*
X43809222Y-43729721D01*
X43938379Y-43858878D01*
X43938381Y-43858881D01*
X44039863Y-44010759D01*
X44109765Y-44179517D01*
X44109765Y-44179519D01*
X44145400Y-44358667D01*
X44145400Y-44541333D01*
X44127583Y-44630907D01*
X44109765Y-44720483D01*
X44039863Y-44889241D01*
X44039862Y-44889242D01*
X43938379Y-45041122D01*
X43809222Y-45170279D01*
X43809219Y-45170281D01*
X43657341Y-45271763D01*
X43488583Y-45341665D01*
X43399007Y-45359483D01*
X43309433Y-45377300D01*
X43126767Y-45377300D01*
X43037193Y-45359483D01*
X42947617Y-45341665D01*
X42778859Y-45271763D01*
X42626981Y-45170281D01*
X42626978Y-45170279D01*
X42497821Y-45041122D01*
X42396338Y-44889242D01*
X42396337Y-44889241D01*
X42326435Y-44720483D01*
X42308617Y-44630907D01*
X42290800Y-44541333D01*
X42290800Y-44358667D01*
X42326435Y-44179519D01*
X42326435Y-44179517D01*
X42396337Y-44010759D01*
X42497819Y-43858881D01*
X42497821Y-43858878D01*
X42626978Y-43729721D01*
X42778858Y-43628238D01*
X42778859Y-43628237D01*
X42947617Y-43558335D01*
X43037193Y-43540518D01*
X43126767Y-43522700D01*
X43309433Y-43522700D01*
X43399007Y-43540518D01*
X43399007Y-43540518D01*
G37*
G36*
X47147777Y-42222385D02*
X47365072Y-42312391D01*
X47560631Y-42443060D01*
X47726940Y-42609369D01*
X47857609Y-42804928D01*
X47947615Y-43022223D01*
X47993500Y-43252901D01*
X47993500Y-43488099D01*
X47947615Y-43718777D01*
X47857609Y-43936072D01*
X47726940Y-44131631D01*
X47560631Y-44297940D01*
X47365072Y-44428609D01*
X47147777Y-44518615D01*
X46917099Y-44564500D01*
X46681901Y-44564500D01*
X46451223Y-44518615D01*
X46233928Y-44428609D01*
X46038369Y-44297940D01*
X45872060Y-44131631D01*
X45741391Y-43936072D01*
X45651385Y-43718777D01*
X45605500Y-43488099D01*
X45605500Y-43252901D01*
X45651385Y-43022223D01*
X45741391Y-42804928D01*
X45872060Y-42609369D01*
X46038369Y-42443060D01*
X46233928Y-42312391D01*
X46451223Y-42222385D01*
X46681901Y-42176500D01*
X46917099Y-42176500D01*
X47147777Y-42222385D01*
X47147777Y-42222385D01*
G37*
G36*
X84993777Y-42222385D02*
X85211072Y-42312391D01*
X85406631Y-42443060D01*
X85572940Y-42609369D01*
X85703609Y-42804928D01*
X85793615Y-43022223D01*
X85839500Y-43252901D01*
X85839500Y-43488099D01*
X85793615Y-43718777D01*
X85703609Y-43936072D01*
X85572940Y-44131631D01*
X85406631Y-44297940D01*
X85211072Y-44428609D01*
X84993777Y-44518615D01*
X84763099Y-44564500D01*
X84527901Y-44564500D01*
X84297223Y-44518615D01*
X84079928Y-44428609D01*
X83884369Y-44297940D01*
X83718060Y-44131631D01*
X83587391Y-43936072D01*
X83497385Y-43718777D01*
X83451500Y-43488099D01*
X83451500Y-43252901D01*
X83497385Y-43022223D01*
X83587391Y-42804928D01*
X83718060Y-42609369D01*
X83884369Y-42443060D01*
X84079928Y-42312391D01*
X84297223Y-42222385D01*
X84527901Y-42176500D01*
X84763099Y-42176500D01*
X84993777Y-42222385D01*
X84993777Y-42222385D01*
G37*
G36*
X103916777Y-42222385D02*
X104134072Y-42312391D01*
X104329631Y-42443060D01*
X104495940Y-42609369D01*
X104626609Y-42804928D01*
X104716615Y-43022223D01*
X104762500Y-43252901D01*
X104762500Y-43488099D01*
X104716615Y-43718777D01*
X104626609Y-43936072D01*
X104495940Y-44131631D01*
X104329631Y-44297940D01*
X104134072Y-44428609D01*
X103916777Y-44518615D01*
X103686099Y-44564500D01*
X103450901Y-44564500D01*
X103220223Y-44518615D01*
X103002928Y-44428609D01*
X102807369Y-44297940D01*
X102641060Y-44131631D01*
X102510391Y-43936072D01*
X102420385Y-43718777D01*
X102374500Y-43488099D01*
X102374500Y-43252901D01*
X102420385Y-43022223D01*
X102510391Y-42804928D01*
X102641060Y-42609369D01*
X102807369Y-42443060D01*
X103002928Y-42312391D01*
X103220223Y-42222385D01*
X103450901Y-42176500D01*
X103686099Y-42176500D01*
X103916777Y-42222385D01*
X103916777Y-42222385D01*
G37*
G36*
X66070777Y-42222385D02*
X66288072Y-42312391D01*
X66483631Y-42443060D01*
X66649940Y-42609369D01*
X66780609Y-42804928D01*
X66870615Y-43022223D01*
X66916500Y-43252901D01*
X66916500Y-43488099D01*
X66870615Y-43718777D01*
X66780609Y-43936072D01*
X66649940Y-44131631D01*
X66483631Y-44297940D01*
X66288072Y-44428609D01*
X66070777Y-44518615D01*
X65840099Y-44564500D01*
X65604901Y-44564500D01*
X65374223Y-44518615D01*
X65156928Y-44428609D01*
X64961369Y-44297940D01*
X64795060Y-44131631D01*
X64664391Y-43936072D01*
X64574385Y-43718777D01*
X64528500Y-43488099D01*
X64528500Y-43252901D01*
X64574385Y-43022223D01*
X64664391Y-42804928D01*
X64795060Y-42609369D01*
X64961369Y-42443060D01*
X65156928Y-42312391D01*
X65374223Y-42222385D01*
X65604901Y-42176500D01*
X65840099Y-42176500D01*
X66070777Y-42222385D01*
X66070777Y-42222385D01*
G37*
G36*
X58639007Y-41000517D02*
X58728583Y-41018335D01*
X58897341Y-41088237D01*
X58897342Y-41088238D01*
X59049222Y-41189721D01*
X59178379Y-41318878D01*
X59178381Y-41318881D01*
X59279863Y-41470759D01*
X59349765Y-41639517D01*
X59349765Y-41639519D01*
X59385400Y-41818667D01*
X59385400Y-42001333D01*
X59367583Y-42090907D01*
X59349765Y-42180483D01*
X59279863Y-42349241D01*
X59279862Y-42349242D01*
X59178379Y-42501122D01*
X59049222Y-42630279D01*
X59049219Y-42630281D01*
X58897341Y-42731763D01*
X58728583Y-42801665D01*
X58639007Y-42819482D01*
X58549433Y-42837300D01*
X58366767Y-42837300D01*
X58277193Y-42819482D01*
X58187617Y-42801665D01*
X58018859Y-42731763D01*
X57866981Y-42630281D01*
X57866978Y-42630279D01*
X57737821Y-42501122D01*
X57636338Y-42349242D01*
X57636337Y-42349241D01*
X57566435Y-42180483D01*
X57548618Y-42090907D01*
X57530800Y-42001333D01*
X57530800Y-41818667D01*
X57566435Y-41639519D01*
X57566435Y-41639517D01*
X57636337Y-41470759D01*
X57737819Y-41318881D01*
X57737821Y-41318878D01*
X57866978Y-41189721D01*
X58018858Y-41088238D01*
X58018859Y-41088237D01*
X58187617Y-41018335D01*
X58277193Y-41000517D01*
X58366767Y-40982700D01*
X58549433Y-40982700D01*
X58639007Y-41000517D01*
X58639007Y-41000517D01*
G37*
G36*
X42941807Y-41000517D02*
X43031383Y-41018335D01*
X43200141Y-41088237D01*
X43200142Y-41088238D01*
X43352022Y-41189721D01*
X43481179Y-41318878D01*
X43481181Y-41318881D01*
X43582663Y-41470759D01*
X43652565Y-41639517D01*
X43652565Y-41639519D01*
X43688200Y-41818667D01*
X43688200Y-42001333D01*
X43670382Y-42090907D01*
X43652565Y-42180483D01*
X43582663Y-42349241D01*
X43582662Y-42349242D01*
X43481179Y-42501122D01*
X43352022Y-42630279D01*
X43352019Y-42630281D01*
X43200141Y-42731763D01*
X43031383Y-42801665D01*
X42941807Y-42819482D01*
X42852233Y-42837300D01*
X42669567Y-42837300D01*
X42579993Y-42819482D01*
X42490417Y-42801665D01*
X42321659Y-42731763D01*
X42169781Y-42630281D01*
X42169778Y-42630279D01*
X42040621Y-42501122D01*
X41939138Y-42349242D01*
X41939137Y-42349241D01*
X41869235Y-42180483D01*
X41851418Y-42090907D01*
X41833600Y-42001333D01*
X41833600Y-41818667D01*
X41869235Y-41639519D01*
X41869235Y-41639517D01*
X41939137Y-41470759D01*
X42040619Y-41318881D01*
X42040621Y-41318878D01*
X42169778Y-41189721D01*
X42321658Y-41088238D01*
X42321659Y-41088237D01*
X42490417Y-41018335D01*
X42579993Y-41000517D01*
X42669567Y-40982700D01*
X42852233Y-40982700D01*
X42941807Y-41000517D01*
X42941807Y-41000517D01*
G37*
G36*
X72420777Y-39682385D02*
X72638072Y-39772391D01*
X72833631Y-39903060D01*
X72999940Y-40069369D01*
X73130609Y-40264928D01*
X73220615Y-40482223D01*
X73266500Y-40712901D01*
X73266500Y-40948099D01*
X73220615Y-41178777D01*
X73130609Y-41396072D01*
X72999940Y-41591631D01*
X72833631Y-41757940D01*
X72638072Y-41888609D01*
X72420777Y-41978615D01*
X72190099Y-42024500D01*
X71954901Y-42024500D01*
X71724223Y-41978615D01*
X71506928Y-41888609D01*
X71311369Y-41757940D01*
X71145060Y-41591631D01*
X71014391Y-41396072D01*
X70924385Y-41178777D01*
X70878500Y-40948099D01*
X70878500Y-40712901D01*
X70924385Y-40482223D01*
X71014391Y-40264928D01*
X71145060Y-40069369D01*
X71311369Y-39903060D01*
X71506928Y-39772391D01*
X71724223Y-39682385D01*
X71954901Y-39636500D01*
X72190099Y-39636500D01*
X72420777Y-39682385D01*
X72420777Y-39682385D01*
G37*
G36*
X53497777Y-39682385D02*
X53715072Y-39772391D01*
X53910631Y-39903060D01*
X54076940Y-40069369D01*
X54207609Y-40264928D01*
X54297615Y-40482223D01*
X54343500Y-40712901D01*
X54343500Y-40948099D01*
X54297615Y-41178777D01*
X54207609Y-41396072D01*
X54076940Y-41591631D01*
X53910631Y-41757940D01*
X53715072Y-41888609D01*
X53497777Y-41978615D01*
X53267099Y-42024500D01*
X53031901Y-42024500D01*
X52801223Y-41978615D01*
X52583928Y-41888609D01*
X52388369Y-41757940D01*
X52222060Y-41591631D01*
X52091391Y-41396072D01*
X52001385Y-41178777D01*
X51955500Y-40948099D01*
X51955500Y-40712901D01*
X52001385Y-40482223D01*
X52091391Y-40264928D01*
X52222060Y-40069369D01*
X52388369Y-39903060D01*
X52583928Y-39772391D01*
X52801223Y-39682385D01*
X53031901Y-39636500D01*
X53267099Y-39636500D01*
X53497777Y-39682385D01*
X53497777Y-39682385D01*
G37*
G36*
X110266777Y-39682385D02*
X110484072Y-39772391D01*
X110679631Y-39903060D01*
X110845940Y-40069369D01*
X110976609Y-40264928D01*
X111066615Y-40482223D01*
X111112500Y-40712901D01*
X111112500Y-40948099D01*
X111066615Y-41178777D01*
X110976609Y-41396072D01*
X110845940Y-41591631D01*
X110679631Y-41757940D01*
X110484072Y-41888609D01*
X110266777Y-41978615D01*
X110036099Y-42024500D01*
X109800901Y-42024500D01*
X109570223Y-41978615D01*
X109352928Y-41888609D01*
X109157369Y-41757940D01*
X108991060Y-41591631D01*
X108860391Y-41396072D01*
X108770385Y-41178777D01*
X108724500Y-40948099D01*
X108724500Y-40712901D01*
X108770385Y-40482223D01*
X108860391Y-40264928D01*
X108991060Y-40069369D01*
X109157369Y-39903060D01*
X109352928Y-39772391D01*
X109570223Y-39682385D01*
X109800901Y-39636500D01*
X110036099Y-39636500D01*
X110266777Y-39682385D01*
X110266777Y-39682385D01*
G37*
G36*
X91343777Y-39682385D02*
X91561072Y-39772391D01*
X91756631Y-39903060D01*
X91922940Y-40069369D01*
X92053609Y-40264928D01*
X92143615Y-40482223D01*
X92189500Y-40712901D01*
X92189500Y-40948099D01*
X92143615Y-41178777D01*
X92053609Y-41396072D01*
X91922940Y-41591631D01*
X91756631Y-41757940D01*
X91561072Y-41888609D01*
X91343777Y-41978615D01*
X91113099Y-42024500D01*
X90877901Y-42024500D01*
X90647223Y-41978615D01*
X90429928Y-41888609D01*
X90234369Y-41757940D01*
X90068060Y-41591631D01*
X89937391Y-41396072D01*
X89847385Y-41178777D01*
X89801500Y-40948099D01*
X89801500Y-40712901D01*
X89847385Y-40482223D01*
X89937391Y-40264928D01*
X90068060Y-40069369D01*
X90234369Y-39903060D01*
X90429928Y-39772391D01*
X90647223Y-39682385D01*
X90877901Y-39636500D01*
X91113099Y-39636500D01*
X91343777Y-39682385D01*
X91343777Y-39682385D01*
G37*
G36*
X58181807Y-38460517D02*
X58271383Y-38478335D01*
X58440141Y-38548237D01*
X58440142Y-38548238D01*
X58592022Y-38649721D01*
X58721179Y-38778878D01*
X58721181Y-38778881D01*
X58822663Y-38930759D01*
X58892565Y-39099517D01*
X58928200Y-39278669D01*
X58928200Y-39461331D01*
X58892565Y-39640483D01*
X58822663Y-39809241D01*
X58822662Y-39809242D01*
X58721179Y-39961122D01*
X58592022Y-40090279D01*
X58592019Y-40090281D01*
X58440141Y-40191763D01*
X58271383Y-40261665D01*
X58181807Y-40279482D01*
X58092233Y-40297300D01*
X57909567Y-40297300D01*
X57819993Y-40279482D01*
X57730417Y-40261665D01*
X57561659Y-40191763D01*
X57409781Y-40090281D01*
X57409778Y-40090279D01*
X57280621Y-39961122D01*
X57179138Y-39809242D01*
X57179137Y-39809241D01*
X57109235Y-39640483D01*
X57073600Y-39461331D01*
X57073600Y-39278669D01*
X57109235Y-39099517D01*
X57179137Y-38930759D01*
X57280619Y-38778881D01*
X57280621Y-38778878D01*
X57409778Y-38649721D01*
X57561658Y-38548238D01*
X57561659Y-38548237D01*
X57730417Y-38478335D01*
X57819993Y-38460517D01*
X57909567Y-38442700D01*
X58092233Y-38442700D01*
X58181807Y-38460517D01*
X58181807Y-38460517D01*
G37*
G36*
X43399007Y-38460517D02*
X43488583Y-38478335D01*
X43657341Y-38548237D01*
X43657342Y-38548238D01*
X43809222Y-38649721D01*
X43938379Y-38778878D01*
X43938381Y-38778881D01*
X44039863Y-38930759D01*
X44109765Y-39099517D01*
X44145400Y-39278669D01*
X44145400Y-39461331D01*
X44109765Y-39640483D01*
X44039863Y-39809241D01*
X44039862Y-39809242D01*
X43938379Y-39961122D01*
X43809222Y-40090279D01*
X43809219Y-40090281D01*
X43657341Y-40191763D01*
X43488583Y-40261665D01*
X43399007Y-40279482D01*
X43309433Y-40297300D01*
X43126767Y-40297300D01*
X43037193Y-40279482D01*
X42947617Y-40261665D01*
X42778859Y-40191763D01*
X42626981Y-40090281D01*
X42626978Y-40090279D01*
X42497821Y-39961122D01*
X42396338Y-39809242D01*
X42396337Y-39809241D01*
X42326435Y-39640483D01*
X42290800Y-39461331D01*
X42290800Y-39278669D01*
X42326435Y-39099517D01*
X42396337Y-38930759D01*
X42497819Y-38778881D01*
X42497821Y-38778878D01*
X42626978Y-38649721D01*
X42778858Y-38548238D01*
X42778859Y-38548237D01*
X42947617Y-38478335D01*
X43037193Y-38460517D01*
X43126767Y-38442700D01*
X43309433Y-38442700D01*
X43399007Y-38460517D01*
X43399007Y-38460517D01*
G37*
G36*
X84226500Y-38443000D02*
X82524500Y-38443000D01*
X82524500Y-36741000D01*
X84226500Y-36741000D01*
X84226500Y-38443000D01*
X84226500Y-38443000D01*
G37*
G36*
X91162321Y-36753313D02*
X91162324Y-36753314D01*
X91162325Y-36753314D01*
X91322739Y-36801975D01*
X91322741Y-36801976D01*
X91322744Y-36801977D01*
X91470578Y-36880995D01*
X91600159Y-36987341D01*
X91706505Y-37116922D01*
X91785523Y-37264756D01*
X91785524Y-37264759D01*
X91785525Y-37264761D01*
X91834186Y-37425175D01*
X91834187Y-37425179D01*
X91850617Y-37592000D01*
X91834187Y-37758821D01*
X91834186Y-37758824D01*
X91834186Y-37758825D01*
X91803742Y-37859187D01*
X91785523Y-37919244D01*
X91706505Y-38067078D01*
X91600159Y-38196659D01*
X91470578Y-38303005D01*
X91322744Y-38382023D01*
X91322741Y-38382024D01*
X91322739Y-38382025D01*
X91162325Y-38430686D01*
X91162324Y-38430686D01*
X91162321Y-38430687D01*
X91037304Y-38443000D01*
X90953696Y-38443000D01*
X90828679Y-38430687D01*
X90828676Y-38430686D01*
X90828675Y-38430686D01*
X90668261Y-38382025D01*
X90668259Y-38382024D01*
X90668256Y-38382023D01*
X90520422Y-38303005D01*
X90390841Y-38196659D01*
X90284495Y-38067078D01*
X90205477Y-37919244D01*
X90187259Y-37859187D01*
X90156814Y-37758825D01*
X90156814Y-37758824D01*
X90156813Y-37758821D01*
X90140383Y-37592000D01*
X90156813Y-37425179D01*
X90156814Y-37425175D01*
X90205475Y-37264761D01*
X90205476Y-37264759D01*
X90205477Y-37264756D01*
X90284495Y-37116922D01*
X90390841Y-36987341D01*
X90520422Y-36880995D01*
X90668256Y-36801977D01*
X90668259Y-36801976D01*
X90668261Y-36801975D01*
X90828675Y-36753314D01*
X90828676Y-36753314D01*
X90828679Y-36753313D01*
X90953696Y-36741000D01*
X91037304Y-36741000D01*
X91162321Y-36753313D01*
X91162321Y-36753313D01*
G37*
G36*
X103149500Y-38443000D02*
X101447500Y-38443000D01*
X101447500Y-36741000D01*
X103149500Y-36741000D01*
X103149500Y-38443000D01*
X103149500Y-38443000D01*
G37*
G36*
X110085321Y-36753313D02*
X110085324Y-36753314D01*
X110085325Y-36753314D01*
X110245739Y-36801975D01*
X110245741Y-36801976D01*
X110245744Y-36801977D01*
X110393578Y-36880995D01*
X110523159Y-36987341D01*
X110629505Y-37116922D01*
X110708523Y-37264756D01*
X110708524Y-37264759D01*
X110708525Y-37264761D01*
X110757186Y-37425175D01*
X110757187Y-37425179D01*
X110773617Y-37592000D01*
X110757187Y-37758821D01*
X110757186Y-37758824D01*
X110757186Y-37758825D01*
X110726742Y-37859187D01*
X110708523Y-37919244D01*
X110629505Y-38067078D01*
X110523159Y-38196659D01*
X110393578Y-38303005D01*
X110245744Y-38382023D01*
X110245741Y-38382024D01*
X110245739Y-38382025D01*
X110085325Y-38430686D01*
X110085324Y-38430686D01*
X110085321Y-38430687D01*
X109960304Y-38443000D01*
X109876696Y-38443000D01*
X109751679Y-38430687D01*
X109751676Y-38430686D01*
X109751675Y-38430686D01*
X109591261Y-38382025D01*
X109591259Y-38382024D01*
X109591256Y-38382023D01*
X109443422Y-38303005D01*
X109313841Y-38196659D01*
X109207495Y-38067078D01*
X109128477Y-37919244D01*
X109110259Y-37859187D01*
X109079814Y-37758825D01*
X109079814Y-37758824D01*
X109079813Y-37758821D01*
X109063383Y-37592000D01*
X109079813Y-37425179D01*
X109079814Y-37425175D01*
X109128475Y-37264761D01*
X109128476Y-37264759D01*
X109128477Y-37264756D01*
X109207495Y-37116922D01*
X109313841Y-36987341D01*
X109443422Y-36880995D01*
X109591256Y-36801977D01*
X109591259Y-36801976D01*
X109591261Y-36801975D01*
X109751675Y-36753314D01*
X109751676Y-36753314D01*
X109751679Y-36753313D01*
X109876696Y-36741000D01*
X109960304Y-36741000D01*
X110085321Y-36753313D01*
X110085321Y-36753313D01*
G37*
G36*
X72239321Y-36753313D02*
X72239324Y-36753314D01*
X72239325Y-36753314D01*
X72399739Y-36801975D01*
X72399741Y-36801976D01*
X72399744Y-36801977D01*
X72547578Y-36880995D01*
X72677159Y-36987341D01*
X72783505Y-37116922D01*
X72862523Y-37264756D01*
X72862524Y-37264759D01*
X72862525Y-37264761D01*
X72911186Y-37425175D01*
X72911187Y-37425179D01*
X72927617Y-37592000D01*
X72911187Y-37758821D01*
X72911186Y-37758824D01*
X72911186Y-37758825D01*
X72880742Y-37859187D01*
X72862523Y-37919244D01*
X72783505Y-38067078D01*
X72677159Y-38196659D01*
X72547578Y-38303005D01*
X72399744Y-38382023D01*
X72399741Y-38382024D01*
X72399739Y-38382025D01*
X72239325Y-38430686D01*
X72239324Y-38430686D01*
X72239321Y-38430687D01*
X72114304Y-38443000D01*
X72030696Y-38443000D01*
X71905679Y-38430687D01*
X71905676Y-38430686D01*
X71905675Y-38430686D01*
X71745261Y-38382025D01*
X71745259Y-38382024D01*
X71745256Y-38382023D01*
X71597422Y-38303005D01*
X71467841Y-38196659D01*
X71361495Y-38067078D01*
X71282477Y-37919244D01*
X71264259Y-37859187D01*
X71233814Y-37758825D01*
X71233814Y-37758824D01*
X71233813Y-37758821D01*
X71217383Y-37592000D01*
X71233813Y-37425179D01*
X71233814Y-37425175D01*
X71282475Y-37264761D01*
X71282476Y-37264759D01*
X71282477Y-37264756D01*
X71361495Y-37116922D01*
X71467841Y-36987341D01*
X71597422Y-36880995D01*
X71745256Y-36801977D01*
X71745259Y-36801976D01*
X71745261Y-36801975D01*
X71905675Y-36753314D01*
X71905676Y-36753314D01*
X71905679Y-36753313D01*
X72030696Y-36741000D01*
X72114304Y-36741000D01*
X72239321Y-36753313D01*
X72239321Y-36753313D01*
G37*
G36*
X65303500Y-38443000D02*
X63601500Y-38443000D01*
X63601500Y-36741000D01*
X65303500Y-36741000D01*
X65303500Y-38443000D01*
X65303500Y-38443000D01*
G37*
G36*
X53316321Y-36181813D02*
X53316324Y-36181814D01*
X53316325Y-36181814D01*
X53476739Y-36230475D01*
X53476741Y-36230476D01*
X53476744Y-36230477D01*
X53624578Y-36309495D01*
X53754159Y-36415841D01*
X53860505Y-36545422D01*
X53939523Y-36693256D01*
X53939524Y-36693259D01*
X53939525Y-36693261D01*
X53988186Y-36853675D01*
X53988187Y-36853679D01*
X54004617Y-37020500D01*
X53988187Y-37187321D01*
X53988186Y-37187324D01*
X53988186Y-37187325D01*
X53963337Y-37269242D01*
X53939523Y-37347744D01*
X53860505Y-37495578D01*
X53754159Y-37625159D01*
X53624578Y-37731505D01*
X53476744Y-37810523D01*
X53476741Y-37810524D01*
X53476739Y-37810525D01*
X53316325Y-37859186D01*
X53316324Y-37859186D01*
X53316321Y-37859187D01*
X53191304Y-37871500D01*
X53107696Y-37871500D01*
X52982679Y-37859187D01*
X52982676Y-37859186D01*
X52982675Y-37859186D01*
X52822261Y-37810525D01*
X52822259Y-37810524D01*
X52822256Y-37810523D01*
X52674422Y-37731505D01*
X52544841Y-37625159D01*
X52438495Y-37495578D01*
X52359477Y-37347744D01*
X52335664Y-37269242D01*
X52310814Y-37187325D01*
X52310814Y-37187324D01*
X52310813Y-37187321D01*
X52294383Y-37020500D01*
X52310813Y-36853679D01*
X52310814Y-36853675D01*
X52359475Y-36693261D01*
X52359476Y-36693259D01*
X52359477Y-36693256D01*
X52438495Y-36545422D01*
X52544841Y-36415841D01*
X52674422Y-36309495D01*
X52822256Y-36230477D01*
X52822259Y-36230476D01*
X52822261Y-36230475D01*
X52982675Y-36181814D01*
X52982676Y-36181814D01*
X52982679Y-36181813D01*
X53107696Y-36169500D01*
X53191304Y-36169500D01*
X53316321Y-36181813D01*
X53316321Y-36181813D01*
G37*
G36*
X46380500Y-37871500D02*
X44678500Y-37871500D01*
X44678500Y-36169500D01*
X46380500Y-36169500D01*
X46380500Y-37871500D01*
X46380500Y-37871500D01*
G37*
G36*
X42941807Y-35920517D02*
X43031383Y-35938335D01*
X43200141Y-36008237D01*
X43200142Y-36008238D01*
X43352022Y-36109721D01*
X43481179Y-36238878D01*
X43481181Y-36238881D01*
X43582663Y-36390759D01*
X43652565Y-36559517D01*
X43688200Y-36738669D01*
X43688200Y-36921331D01*
X43652565Y-37100483D01*
X43582663Y-37269241D01*
X43582662Y-37269242D01*
X43481179Y-37421122D01*
X43352022Y-37550279D01*
X43352019Y-37550281D01*
X43200141Y-37651763D01*
X43031383Y-37721665D01*
X42941807Y-37739483D01*
X42852233Y-37757300D01*
X42669567Y-37757300D01*
X42579993Y-37739483D01*
X42490417Y-37721665D01*
X42321659Y-37651763D01*
X42169781Y-37550281D01*
X42169778Y-37550279D01*
X42040621Y-37421122D01*
X41939138Y-37269242D01*
X41939137Y-37269241D01*
X41869235Y-37100483D01*
X41833600Y-36921331D01*
X41833600Y-36738669D01*
X41869235Y-36559517D01*
X41939137Y-36390759D01*
X42040619Y-36238881D01*
X42040621Y-36238878D01*
X42169778Y-36109721D01*
X42321658Y-36008238D01*
X42321659Y-36008237D01*
X42490417Y-35938335D01*
X42579993Y-35920517D01*
X42669567Y-35902700D01*
X42852233Y-35902700D01*
X42941807Y-35920517D01*
X42941807Y-35920517D01*
G37*
G36*
X58639007Y-35920517D02*
X58728583Y-35938335D01*
X58897341Y-36008237D01*
X58897342Y-36008238D01*
X59049222Y-36109721D01*
X59178379Y-36238878D01*
X59178381Y-36238881D01*
X59279863Y-36390759D01*
X59349765Y-36559517D01*
X59385400Y-36738669D01*
X59385400Y-36921331D01*
X59349765Y-37100483D01*
X59279863Y-37269241D01*
X59279862Y-37269242D01*
X59178379Y-37421122D01*
X59049222Y-37550279D01*
X59049219Y-37550281D01*
X58897341Y-37651763D01*
X58728583Y-37721665D01*
X58639007Y-37739483D01*
X58549433Y-37757300D01*
X58366767Y-37757300D01*
X58277193Y-37739483D01*
X58187617Y-37721665D01*
X58018859Y-37651763D01*
X57866981Y-37550281D01*
X57866978Y-37550279D01*
X57737821Y-37421122D01*
X57636338Y-37269242D01*
X57636337Y-37269241D01*
X57566435Y-37100483D01*
X57530800Y-36921331D01*
X57530800Y-36738669D01*
X57566435Y-36559517D01*
X57636337Y-36390759D01*
X57737819Y-36238881D01*
X57737821Y-36238878D01*
X57866978Y-36109721D01*
X58018858Y-36008238D01*
X58018859Y-36008237D01*
X58187617Y-35938335D01*
X58277193Y-35920517D01*
X58366767Y-35902700D01*
X58549433Y-35902700D01*
X58639007Y-35920517D01*
X58639007Y-35920517D01*
G37*
G36*
X58181807Y-33380518D02*
X58271383Y-33398335D01*
X58440141Y-33468237D01*
X58589971Y-33568350D01*
X58592022Y-33569721D01*
X58721179Y-33698878D01*
X58721181Y-33698881D01*
X58822663Y-33850759D01*
X58892565Y-34019517D01*
X58928200Y-34198669D01*
X58928200Y-34381331D01*
X58892565Y-34560483D01*
X58822663Y-34729241D01*
X58822662Y-34729242D01*
X58721179Y-34881122D01*
X58592022Y-35010279D01*
X58592019Y-35010281D01*
X58440141Y-35111763D01*
X58271383Y-35181665D01*
X58181807Y-35199483D01*
X58092233Y-35217300D01*
X57909567Y-35217300D01*
X57819993Y-35199483D01*
X57730417Y-35181665D01*
X57561659Y-35111763D01*
X57409781Y-35010281D01*
X57409778Y-35010279D01*
X57280621Y-34881122D01*
X57179138Y-34729242D01*
X57179137Y-34729241D01*
X57109235Y-34560483D01*
X57073600Y-34381331D01*
X57073600Y-34198669D01*
X57109235Y-34019517D01*
X57179137Y-33850759D01*
X57280619Y-33698881D01*
X57280621Y-33698878D01*
X57409778Y-33569721D01*
X57411829Y-33568350D01*
X57561659Y-33468237D01*
X57730417Y-33398335D01*
X57819993Y-33380518D01*
X57909567Y-33362700D01*
X58092233Y-33362700D01*
X58181807Y-33380518D01*
X58181807Y-33380518D01*
G37*
G36*
X43399007Y-33380518D02*
X43488583Y-33398335D01*
X43657341Y-33468237D01*
X43807171Y-33568350D01*
X43809222Y-33569721D01*
X43938379Y-33698878D01*
X43938381Y-33698881D01*
X44039863Y-33850759D01*
X44109765Y-34019517D01*
X44145400Y-34198669D01*
X44145400Y-34381331D01*
X44109765Y-34560483D01*
X44039863Y-34729241D01*
X44039862Y-34729242D01*
X43938379Y-34881122D01*
X43809222Y-35010279D01*
X43809219Y-35010281D01*
X43657341Y-35111763D01*
X43488583Y-35181665D01*
X43399007Y-35199483D01*
X43309433Y-35217300D01*
X43126767Y-35217300D01*
X43037193Y-35199483D01*
X42947617Y-35181665D01*
X42778859Y-35111763D01*
X42626981Y-35010281D01*
X42626978Y-35010279D01*
X42497821Y-34881122D01*
X42396338Y-34729242D01*
X42396337Y-34729241D01*
X42326435Y-34560483D01*
X42290800Y-34381331D01*
X42290800Y-34198669D01*
X42326435Y-34019517D01*
X42396337Y-33850759D01*
X42497819Y-33698881D01*
X42497821Y-33698878D01*
X42626978Y-33569721D01*
X42629029Y-33568350D01*
X42778859Y-33468237D01*
X42947617Y-33398335D01*
X43037193Y-33380518D01*
X43126767Y-33362700D01*
X43309433Y-33362700D01*
X43399007Y-33380518D01*
X43399007Y-33380518D01*
G37*
G36*
X90050000Y-33598500D02*
X86748000Y-33598500D01*
X86748000Y-31496500D01*
X90050000Y-31496500D01*
X90050000Y-33598500D01*
X90050000Y-33598500D01*
G37*
G36*
X109100000Y-33535000D02*
X105798000Y-33535000D01*
X105798000Y-31433000D01*
X109100000Y-31433000D01*
X109100000Y-33535000D01*
X109100000Y-33535000D01*
G37*
G36*
X42941807Y-30840518D02*
X43031383Y-30858335D01*
X43200141Y-30928237D01*
X43200142Y-30928238D01*
X43352022Y-31029721D01*
X43481179Y-31158878D01*
X43481181Y-31158881D01*
X43582663Y-31310759D01*
X43652565Y-31479517D01*
X43688200Y-31658669D01*
X43688200Y-31841331D01*
X43652565Y-32020483D01*
X43582663Y-32189241D01*
X43582662Y-32189242D01*
X43481179Y-32341122D01*
X43352022Y-32470279D01*
X43352019Y-32470281D01*
X43200141Y-32571763D01*
X43031383Y-32641665D01*
X42941807Y-32659482D01*
X42852233Y-32677300D01*
X42669567Y-32677300D01*
X42579993Y-32659482D01*
X42490417Y-32641665D01*
X42321659Y-32571763D01*
X42169781Y-32470281D01*
X42169778Y-32470279D01*
X42040621Y-32341122D01*
X41939138Y-32189242D01*
X41939137Y-32189241D01*
X41869235Y-32020483D01*
X41833600Y-31841331D01*
X41833600Y-31658669D01*
X41869235Y-31479517D01*
X41939137Y-31310759D01*
X42040619Y-31158881D01*
X42040621Y-31158878D01*
X42169778Y-31029721D01*
X42321658Y-30928238D01*
X42321659Y-30928237D01*
X42490417Y-30858335D01*
X42579993Y-30840518D01*
X42669567Y-30822700D01*
X42852233Y-30822700D01*
X42941807Y-30840518D01*
X42941807Y-30840518D01*
G37*
G36*
X58639007Y-30840518D02*
X58728583Y-30858335D01*
X58897341Y-30928237D01*
X58897342Y-30928238D01*
X59049222Y-31029721D01*
X59178379Y-31158878D01*
X59178381Y-31158881D01*
X59279863Y-31310759D01*
X59349765Y-31479517D01*
X59385400Y-31658669D01*
X59385400Y-31841331D01*
X59349765Y-32020483D01*
X59279863Y-32189241D01*
X59279862Y-32189242D01*
X59178379Y-32341122D01*
X59049222Y-32470279D01*
X59049219Y-32470281D01*
X58897341Y-32571763D01*
X58728583Y-32641665D01*
X58639007Y-32659482D01*
X58549433Y-32677300D01*
X58366767Y-32677300D01*
X58277193Y-32659482D01*
X58187617Y-32641665D01*
X58018859Y-32571763D01*
X57866981Y-32470281D01*
X57866978Y-32470279D01*
X57737821Y-32341122D01*
X57636338Y-32189242D01*
X57636337Y-32189241D01*
X57566435Y-32020483D01*
X57530800Y-31841331D01*
X57530800Y-31658669D01*
X57566435Y-31479517D01*
X57636337Y-31310759D01*
X57737819Y-31158881D01*
X57737821Y-31158878D01*
X57866978Y-31029721D01*
X58018858Y-30928238D01*
X58018859Y-30928237D01*
X58187617Y-30858335D01*
X58277193Y-30840518D01*
X58366767Y-30822700D01*
X58549433Y-30822700D01*
X58639007Y-30840518D01*
X58639007Y-30840518D01*
G37*
G36*
X81205565Y-28436889D02*
X81396834Y-28516115D01*
X81568976Y-28631137D01*
X81715363Y-28777524D01*
X81830385Y-28949666D01*
X81909611Y-29140935D01*
X81950000Y-29343984D01*
X81950000Y-29551016D01*
X81909611Y-29754065D01*
X81830385Y-29945334D01*
X81715363Y-30117476D01*
X81568976Y-30263863D01*
X81396834Y-30378885D01*
X81205565Y-30458111D01*
X81002516Y-30498500D01*
X80795484Y-30498500D01*
X80592435Y-30458111D01*
X80401166Y-30378885D01*
X80229024Y-30263863D01*
X80082637Y-30117476D01*
X79967615Y-29945334D01*
X79888389Y-29754065D01*
X79848000Y-29551016D01*
X79848000Y-29343984D01*
X79888389Y-29140935D01*
X79967615Y-28949666D01*
X80082637Y-28777524D01*
X80229024Y-28631137D01*
X80401166Y-28516115D01*
X80592435Y-28436889D01*
X80795484Y-28396500D01*
X81002516Y-28396500D01*
X81205565Y-28436889D01*
X81205565Y-28436889D01*
G37*
G36*
X100255565Y-28373389D02*
X100446834Y-28452615D01*
X100618976Y-28567637D01*
X100765363Y-28714024D01*
X100880385Y-28886166D01*
X100959611Y-29077435D01*
X101000000Y-29280484D01*
X101000000Y-29487516D01*
X100959611Y-29690565D01*
X100880385Y-29881834D01*
X100765363Y-30053976D01*
X100618976Y-30200363D01*
X100446834Y-30315385D01*
X100255565Y-30394611D01*
X100052516Y-30435000D01*
X99845484Y-30435000D01*
X99642435Y-30394611D01*
X99451166Y-30315385D01*
X99279024Y-30200363D01*
X99132637Y-30053976D01*
X99017615Y-29881834D01*
X98938389Y-29690565D01*
X98898000Y-29487516D01*
X98898000Y-29280484D01*
X98938389Y-29077435D01*
X99017615Y-28886166D01*
X99132637Y-28714024D01*
X99279024Y-28567637D01*
X99451166Y-28452615D01*
X99642435Y-28373389D01*
X99845484Y-28333000D01*
X100052516Y-28333000D01*
X100255565Y-28373389D01*
X100255565Y-28373389D01*
G37*
G36*
X95632643Y-28677281D02*
X95778415Y-28737662D01*
X95909611Y-28825324D01*
X96021176Y-28936889D01*
X96108838Y-29068085D01*
X96169219Y-29213857D01*
X96200000Y-29368607D01*
X96200000Y-29526393D01*
X96169219Y-29681143D01*
X96108838Y-29826915D01*
X96021176Y-29958111D01*
X95909611Y-30069676D01*
X95778415Y-30157338D01*
X95632643Y-30217719D01*
X95477893Y-30248500D01*
X95320107Y-30248500D01*
X95165357Y-30217719D01*
X95019585Y-30157338D01*
X94888389Y-30069676D01*
X94776824Y-29958111D01*
X94689162Y-29826915D01*
X94628781Y-29681143D01*
X94598000Y-29526393D01*
X94598000Y-29368607D01*
X94628781Y-29213857D01*
X94689162Y-29068085D01*
X94776824Y-28936889D01*
X94888389Y-28825324D01*
X95019585Y-28737662D01*
X95165357Y-28677281D01*
X95320107Y-28646500D01*
X95477893Y-28646500D01*
X95632643Y-28677281D01*
X95632643Y-28677281D01*
G37*
G36*
X114682643Y-28613781D02*
X114828415Y-28674162D01*
X114959611Y-28761824D01*
X115071176Y-28873389D01*
X115158838Y-29004585D01*
X115219219Y-29150357D01*
X115250000Y-29305107D01*
X115250000Y-29462893D01*
X115219219Y-29617643D01*
X115158838Y-29763415D01*
X115071176Y-29894611D01*
X114959611Y-30006176D01*
X114828415Y-30093838D01*
X114682643Y-30154219D01*
X114527893Y-30185000D01*
X114370107Y-30185000D01*
X114215357Y-30154219D01*
X114069585Y-30093838D01*
X113938389Y-30006176D01*
X113826824Y-29894611D01*
X113739162Y-29763415D01*
X113678781Y-29617643D01*
X113648000Y-29462893D01*
X113648000Y-29305107D01*
X113678781Y-29150357D01*
X113739162Y-29004585D01*
X113826824Y-28873389D01*
X113938389Y-28761824D01*
X114069585Y-28674162D01*
X114215357Y-28613781D01*
X114370107Y-28583000D01*
X114527893Y-28583000D01*
X114682643Y-28613781D01*
X114682643Y-28613781D01*
G37*
G36*
X58181807Y-28300517D02*
X58271383Y-28318335D01*
X58440141Y-28388237D01*
X58589971Y-28488350D01*
X58592022Y-28489721D01*
X58721179Y-28618878D01*
X58721181Y-28618881D01*
X58822663Y-28770759D01*
X58892565Y-28939517D01*
X58905507Y-29004584D01*
X58918139Y-29068085D01*
X58928200Y-29118669D01*
X58928200Y-29301331D01*
X58892565Y-29480483D01*
X58822663Y-29649241D01*
X58746374Y-29763415D01*
X58721179Y-29801122D01*
X58592022Y-29930279D01*
X58592019Y-29930281D01*
X58440141Y-30031763D01*
X58271383Y-30101665D01*
X58181807Y-30119483D01*
X58092233Y-30137300D01*
X57909567Y-30137300D01*
X57819993Y-30119483D01*
X57730417Y-30101665D01*
X57561659Y-30031763D01*
X57409781Y-29930281D01*
X57409778Y-29930279D01*
X57280621Y-29801122D01*
X57255426Y-29763415D01*
X57179137Y-29649241D01*
X57109235Y-29480483D01*
X57073600Y-29301331D01*
X57073600Y-29118669D01*
X57083662Y-29068085D01*
X57096293Y-29004584D01*
X57109235Y-28939517D01*
X57179137Y-28770759D01*
X57280619Y-28618881D01*
X57280621Y-28618878D01*
X57409778Y-28489721D01*
X57411829Y-28488350D01*
X57561659Y-28388237D01*
X57730417Y-28318335D01*
X57819993Y-28300517D01*
X57909567Y-28282700D01*
X58092233Y-28282700D01*
X58181807Y-28300517D01*
X58181807Y-28300517D01*
G37*
G36*
X43399007Y-28300517D02*
X43488583Y-28318335D01*
X43657341Y-28388237D01*
X43807171Y-28488350D01*
X43809222Y-28489721D01*
X43938379Y-28618878D01*
X43938381Y-28618881D01*
X44039863Y-28770759D01*
X44109765Y-28939517D01*
X44122707Y-29004584D01*
X44135339Y-29068085D01*
X44145400Y-29118669D01*
X44145400Y-29301331D01*
X44109765Y-29480483D01*
X44039863Y-29649241D01*
X43963574Y-29763415D01*
X43938379Y-29801122D01*
X43809222Y-29930279D01*
X43809219Y-29930281D01*
X43657341Y-30031763D01*
X43488583Y-30101665D01*
X43399007Y-30119483D01*
X43309433Y-30137300D01*
X43126767Y-30137300D01*
X43037193Y-30119483D01*
X42947617Y-30101665D01*
X42778859Y-30031763D01*
X42626981Y-29930281D01*
X42626978Y-29930279D01*
X42497821Y-29801122D01*
X42472626Y-29763415D01*
X42396337Y-29649241D01*
X42326435Y-29480483D01*
X42290800Y-29301331D01*
X42290800Y-29118669D01*
X42300862Y-29068085D01*
X42313493Y-29004584D01*
X42326435Y-28939517D01*
X42396337Y-28770759D01*
X42497819Y-28618881D01*
X42497821Y-28618878D01*
X42626978Y-28489721D01*
X42629029Y-28488350D01*
X42778859Y-28388237D01*
X42947617Y-28318335D01*
X43037193Y-28300517D01*
X43126767Y-28282700D01*
X43309433Y-28282700D01*
X43399007Y-28300517D01*
X43399007Y-28300517D01*
G37*
G36*
X81205565Y-25936889D02*
X81396834Y-26016115D01*
X81568976Y-26131137D01*
X81715363Y-26277524D01*
X81830385Y-26449666D01*
X81909611Y-26640935D01*
X81950000Y-26843984D01*
X81950000Y-27051016D01*
X81909611Y-27254065D01*
X81830385Y-27445334D01*
X81715363Y-27617476D01*
X81568976Y-27763863D01*
X81396834Y-27878885D01*
X81205565Y-27958111D01*
X81002516Y-27998500D01*
X80795484Y-27998500D01*
X80592435Y-27958111D01*
X80401166Y-27878885D01*
X80229024Y-27763863D01*
X80082637Y-27617476D01*
X79967615Y-27445334D01*
X79888389Y-27254065D01*
X79848000Y-27051016D01*
X79848000Y-26843984D01*
X79888389Y-26640935D01*
X79967615Y-26449666D01*
X80082637Y-26277524D01*
X80229024Y-26131137D01*
X80401166Y-26016115D01*
X80592435Y-25936889D01*
X80795484Y-25896500D01*
X81002516Y-25896500D01*
X81205565Y-25936889D01*
X81205565Y-25936889D01*
G37*
G36*
X100255565Y-25873389D02*
X100446834Y-25952615D01*
X100618976Y-26067637D01*
X100765363Y-26214024D01*
X100880385Y-26386166D01*
X100959611Y-26577435D01*
X101000000Y-26780484D01*
X101000000Y-26987516D01*
X100959611Y-27190565D01*
X100880385Y-27381834D01*
X100765363Y-27553976D01*
X100618976Y-27700363D01*
X100446834Y-27815385D01*
X100255565Y-27894611D01*
X100052516Y-27935000D01*
X99845484Y-27935000D01*
X99642435Y-27894611D01*
X99451166Y-27815385D01*
X99279024Y-27700363D01*
X99132637Y-27553976D01*
X99017615Y-27381834D01*
X98938389Y-27190565D01*
X98898000Y-26987516D01*
X98898000Y-26780484D01*
X98938389Y-26577435D01*
X99017615Y-26386166D01*
X99132637Y-26214024D01*
X99279024Y-26067637D01*
X99451166Y-25952615D01*
X99642435Y-25873389D01*
X99845484Y-25833000D01*
X100052516Y-25833000D01*
X100255565Y-25873389D01*
X100255565Y-25873389D01*
G37*
G36*
X58639007Y-25760518D02*
X58728583Y-25778335D01*
X58897341Y-25848237D01*
X58897342Y-25848238D01*
X59049222Y-25949721D01*
X59178379Y-26078878D01*
X59178381Y-26078881D01*
X59279863Y-26230759D01*
X59349765Y-26399517D01*
X59349765Y-26399519D01*
X59385400Y-26578667D01*
X59385400Y-26761333D01*
X59381590Y-26780486D01*
X59349765Y-26940483D01*
X59279863Y-27109241D01*
X59279862Y-27109242D01*
X59178379Y-27261122D01*
X59049222Y-27390279D01*
X59049219Y-27390281D01*
X58897341Y-27491763D01*
X58728583Y-27561665D01*
X58639007Y-27579482D01*
X58549433Y-27597300D01*
X58366767Y-27597300D01*
X58277193Y-27579482D01*
X58187617Y-27561665D01*
X58018859Y-27491763D01*
X57866981Y-27390281D01*
X57866978Y-27390279D01*
X57737821Y-27261122D01*
X57636338Y-27109242D01*
X57636337Y-27109241D01*
X57566435Y-26940483D01*
X57534610Y-26780486D01*
X57530800Y-26761333D01*
X57530800Y-26578667D01*
X57566435Y-26399519D01*
X57566435Y-26399517D01*
X57636337Y-26230759D01*
X57737819Y-26078881D01*
X57737821Y-26078878D01*
X57866978Y-25949721D01*
X58018858Y-25848238D01*
X58018859Y-25848237D01*
X58187617Y-25778335D01*
X58277193Y-25760518D01*
X58366767Y-25742700D01*
X58549433Y-25742700D01*
X58639007Y-25760518D01*
X58639007Y-25760518D01*
G37*
G36*
X42941807Y-25760518D02*
X43031383Y-25778335D01*
X43200141Y-25848237D01*
X43200142Y-25848238D01*
X43352022Y-25949721D01*
X43481179Y-26078878D01*
X43481181Y-26078881D01*
X43582663Y-26230759D01*
X43652565Y-26399517D01*
X43652565Y-26399519D01*
X43688200Y-26578667D01*
X43688200Y-26761333D01*
X43684390Y-26780486D01*
X43652565Y-26940483D01*
X43582663Y-27109241D01*
X43582662Y-27109242D01*
X43481179Y-27261122D01*
X43352022Y-27390279D01*
X43352019Y-27390281D01*
X43200141Y-27491763D01*
X43031383Y-27561665D01*
X42941807Y-27579482D01*
X42852233Y-27597300D01*
X42669567Y-27597300D01*
X42579993Y-27579482D01*
X42490417Y-27561665D01*
X42321659Y-27491763D01*
X42169781Y-27390281D01*
X42169778Y-27390279D01*
X42040621Y-27261122D01*
X41939138Y-27109242D01*
X41939137Y-27109241D01*
X41869235Y-26940483D01*
X41837410Y-26780486D01*
X41833600Y-26761333D01*
X41833600Y-26578667D01*
X41869235Y-26399519D01*
X41869235Y-26399517D01*
X41939137Y-26230759D01*
X42040619Y-26078881D01*
X42040621Y-26078878D01*
X42169778Y-25949721D01*
X42321658Y-25848238D01*
X42321659Y-25848237D01*
X42490417Y-25778335D01*
X42579993Y-25760518D01*
X42669567Y-25742700D01*
X42852233Y-25742700D01*
X42941807Y-25760518D01*
X42941807Y-25760518D01*
G37*
G36*
X84993777Y-23299385D02*
X85211072Y-23389391D01*
X85406631Y-23520060D01*
X85572940Y-23686369D01*
X85703609Y-23881928D01*
X85793615Y-24099223D01*
X85839500Y-24329901D01*
X85839500Y-24565099D01*
X85793615Y-24795777D01*
X85703609Y-25013072D01*
X85572940Y-25208631D01*
X85406631Y-25374940D01*
X85211072Y-25505609D01*
X84993777Y-25595615D01*
X84763099Y-25641500D01*
X84527901Y-25641500D01*
X84297223Y-25595615D01*
X84079928Y-25505609D01*
X83884369Y-25374940D01*
X83718060Y-25208631D01*
X83587391Y-25013072D01*
X83497385Y-24795777D01*
X83451500Y-24565099D01*
X83451500Y-24329901D01*
X83497385Y-24099223D01*
X83587391Y-23881928D01*
X83718060Y-23686369D01*
X83884369Y-23520060D01*
X84079928Y-23389391D01*
X84297223Y-23299385D01*
X84527901Y-23253500D01*
X84763099Y-23253500D01*
X84993777Y-23299385D01*
X84993777Y-23299385D01*
G37*
G36*
X103916777Y-23299385D02*
X104134072Y-23389391D01*
X104329631Y-23520060D01*
X104495940Y-23686369D01*
X104626609Y-23881928D01*
X104716615Y-24099223D01*
X104762500Y-24329901D01*
X104762500Y-24565099D01*
X104716615Y-24795777D01*
X104626609Y-25013072D01*
X104495940Y-25208631D01*
X104329631Y-25374940D01*
X104134072Y-25505609D01*
X103916777Y-25595615D01*
X103686099Y-25641500D01*
X103450901Y-25641500D01*
X103220223Y-25595615D01*
X103002928Y-25505609D01*
X102807369Y-25374940D01*
X102641060Y-25208631D01*
X102510391Y-25013072D01*
X102420385Y-24795777D01*
X102374500Y-24565099D01*
X102374500Y-24329901D01*
X102420385Y-24099223D01*
X102510391Y-23881928D01*
X102641060Y-23686369D01*
X102807369Y-23520060D01*
X103002928Y-23389391D01*
X103220223Y-23299385D01*
X103450901Y-23253500D01*
X103686099Y-23253500D01*
X103916777Y-23299385D01*
X103916777Y-23299385D01*
G37*
G36*
X66070777Y-23299385D02*
X66288072Y-23389391D01*
X66483631Y-23520060D01*
X66649940Y-23686369D01*
X66780609Y-23881928D01*
X66870615Y-24099223D01*
X66916500Y-24329901D01*
X66916500Y-24565099D01*
X66870615Y-24795777D01*
X66780609Y-25013072D01*
X66649940Y-25208631D01*
X66483631Y-25374940D01*
X66288072Y-25505609D01*
X66070777Y-25595615D01*
X65840099Y-25641500D01*
X65604901Y-25641500D01*
X65374223Y-25595615D01*
X65156928Y-25505609D01*
X64961369Y-25374940D01*
X64795060Y-25208631D01*
X64664391Y-25013072D01*
X64574385Y-24795777D01*
X64528500Y-24565099D01*
X64528500Y-24329901D01*
X64574385Y-24099223D01*
X64664391Y-23881928D01*
X64795060Y-23686369D01*
X64961369Y-23520060D01*
X65156928Y-23389391D01*
X65374223Y-23299385D01*
X65604901Y-23253500D01*
X65840099Y-23253500D01*
X66070777Y-23299385D01*
X66070777Y-23299385D01*
G37*
G36*
X47147777Y-23299385D02*
X47365072Y-23389391D01*
X47560631Y-23520060D01*
X47726940Y-23686369D01*
X47857609Y-23881928D01*
X47947615Y-24099223D01*
X47993500Y-24329901D01*
X47993500Y-24565099D01*
X47947615Y-24795777D01*
X47857609Y-25013072D01*
X47726940Y-25208631D01*
X47560631Y-25374940D01*
X47365072Y-25505609D01*
X47147777Y-25595615D01*
X46917099Y-25641500D01*
X46681901Y-25641500D01*
X46451223Y-25595615D01*
X46233928Y-25505609D01*
X46038369Y-25374940D01*
X45872060Y-25208631D01*
X45741391Y-25013072D01*
X45651385Y-24795777D01*
X45605500Y-24565099D01*
X45605500Y-24329901D01*
X45651385Y-24099223D01*
X45741391Y-23881928D01*
X45872060Y-23686369D01*
X46038369Y-23520060D01*
X46233928Y-23389391D01*
X46451223Y-23299385D01*
X46681901Y-23253500D01*
X46917099Y-23253500D01*
X47147777Y-23299385D01*
X47147777Y-23299385D01*
G37*
G36*
X81950000Y-25498500D02*
X79848000Y-25498500D01*
X79848000Y-23396500D01*
X81950000Y-23396500D01*
X81950000Y-25498500D01*
X81950000Y-25498500D01*
G37*
G36*
X101000000Y-25435000D02*
X98898000Y-25435000D01*
X98898000Y-23333000D01*
X101000000Y-23333000D01*
X101000000Y-25435000D01*
X101000000Y-25435000D01*
G37*
G36*
X95632643Y-23677281D02*
X95778415Y-23737662D01*
X95909611Y-23825324D01*
X96021176Y-23936889D01*
X96108838Y-24068085D01*
X96169219Y-24213857D01*
X96200000Y-24368607D01*
X96200000Y-24526393D01*
X96169219Y-24681143D01*
X96108838Y-24826915D01*
X96021176Y-24958111D01*
X95909611Y-25069676D01*
X95778415Y-25157338D01*
X95632643Y-25217719D01*
X95477893Y-25248500D01*
X95320107Y-25248500D01*
X95165357Y-25217719D01*
X95019585Y-25157338D01*
X94888389Y-25069676D01*
X94776824Y-24958111D01*
X94689162Y-24826915D01*
X94628781Y-24681143D01*
X94598000Y-24526393D01*
X94598000Y-24368607D01*
X94628781Y-24213857D01*
X94689162Y-24068085D01*
X94776824Y-23936889D01*
X94888389Y-23825324D01*
X95019585Y-23737662D01*
X95165357Y-23677281D01*
X95320107Y-23646500D01*
X95477893Y-23646500D01*
X95632643Y-23677281D01*
X95632643Y-23677281D01*
G37*
G36*
X114682643Y-23613781D02*
X114828415Y-23674162D01*
X114959611Y-23761824D01*
X115071176Y-23873389D01*
X115158838Y-24004585D01*
X115219219Y-24150357D01*
X115250000Y-24305107D01*
X115250000Y-24462893D01*
X115219219Y-24617643D01*
X115158838Y-24763415D01*
X115071176Y-24894611D01*
X114959611Y-25006176D01*
X114828415Y-25093838D01*
X114682643Y-25154219D01*
X114527893Y-25185000D01*
X114370107Y-25185000D01*
X114215357Y-25154219D01*
X114069585Y-25093838D01*
X113938389Y-25006176D01*
X113826824Y-24894611D01*
X113739162Y-24763415D01*
X113678781Y-24617643D01*
X113648000Y-24462893D01*
X113648000Y-24305107D01*
X113678781Y-24150357D01*
X113739162Y-24004585D01*
X113826824Y-23873389D01*
X113938389Y-23761824D01*
X114069585Y-23674162D01*
X114215357Y-23613781D01*
X114370107Y-23583000D01*
X114527893Y-23583000D01*
X114682643Y-23613781D01*
X114682643Y-23613781D01*
G37*
G36*
X58181807Y-23220517D02*
X58271383Y-23238335D01*
X58440141Y-23308237D01*
X58440142Y-23308238D01*
X58592022Y-23409721D01*
X58721179Y-23538878D01*
X58721181Y-23538881D01*
X58822663Y-23690759D01*
X58892565Y-23859517D01*
X58897023Y-23881929D01*
X58921421Y-24004585D01*
X58928200Y-24038669D01*
X58928200Y-24221331D01*
X58892565Y-24400483D01*
X58822663Y-24569241D01*
X58747892Y-24681143D01*
X58721179Y-24721122D01*
X58592022Y-24850279D01*
X58592019Y-24850281D01*
X58440141Y-24951763D01*
X58271383Y-25021665D01*
X58181807Y-25039482D01*
X58092233Y-25057300D01*
X57909567Y-25057300D01*
X57819993Y-25039482D01*
X57730417Y-25021665D01*
X57561659Y-24951763D01*
X57409781Y-24850281D01*
X57409778Y-24850279D01*
X57280621Y-24721122D01*
X57253908Y-24681143D01*
X57179137Y-24569241D01*
X57109235Y-24400483D01*
X57073600Y-24221331D01*
X57073600Y-24038669D01*
X57080380Y-24004585D01*
X57104777Y-23881929D01*
X57109235Y-23859517D01*
X57179137Y-23690759D01*
X57280619Y-23538881D01*
X57280621Y-23538878D01*
X57409778Y-23409721D01*
X57561658Y-23308238D01*
X57561659Y-23308237D01*
X57730417Y-23238335D01*
X57819993Y-23220518D01*
X57909567Y-23202700D01*
X58092233Y-23202700D01*
X58181807Y-23220517D01*
X58181807Y-23220517D01*
G37*
G36*
X43399007Y-23220517D02*
X43488583Y-23238335D01*
X43657341Y-23308237D01*
X43657342Y-23308238D01*
X43809222Y-23409721D01*
X43938379Y-23538878D01*
X43938381Y-23538881D01*
X44039863Y-23690759D01*
X44109765Y-23859517D01*
X44114223Y-23881929D01*
X44138621Y-24004585D01*
X44145400Y-24038669D01*
X44145400Y-24221331D01*
X44109765Y-24400483D01*
X44039863Y-24569241D01*
X43965092Y-24681143D01*
X43938379Y-24721122D01*
X43809222Y-24850279D01*
X43809219Y-24850281D01*
X43657341Y-24951763D01*
X43488583Y-25021665D01*
X43399007Y-25039482D01*
X43309433Y-25057300D01*
X43126767Y-25057300D01*
X43037193Y-25039482D01*
X42947617Y-25021665D01*
X42778859Y-24951763D01*
X42626981Y-24850281D01*
X42626978Y-24850279D01*
X42497821Y-24721122D01*
X42471108Y-24681143D01*
X42396337Y-24569241D01*
X42326435Y-24400483D01*
X42290800Y-24221331D01*
X42290800Y-24038669D01*
X42297580Y-24004585D01*
X42321977Y-23881929D01*
X42326435Y-23859517D01*
X42396337Y-23690759D01*
X42497819Y-23538881D01*
X42497821Y-23538878D01*
X42626978Y-23409721D01*
X42778858Y-23308238D01*
X42778859Y-23308237D01*
X42947617Y-23238335D01*
X43037193Y-23220518D01*
X43126767Y-23202700D01*
X43309433Y-23202700D01*
X43399007Y-23220517D01*
X43399007Y-23220517D01*
G37*
G36*
X53497777Y-20759385D02*
X53715072Y-20849391D01*
X53910631Y-20980060D01*
X54076940Y-21146369D01*
X54207609Y-21341928D01*
X54297615Y-21559223D01*
X54343500Y-21789901D01*
X54343500Y-22025099D01*
X54297615Y-22255777D01*
X54207609Y-22473072D01*
X54076940Y-22668631D01*
X53910631Y-22834940D01*
X53715072Y-22965609D01*
X53497777Y-23055615D01*
X53267099Y-23101500D01*
X53031901Y-23101500D01*
X52801223Y-23055615D01*
X52583928Y-22965609D01*
X52388369Y-22834940D01*
X52222060Y-22668631D01*
X52091391Y-22473072D01*
X52001385Y-22255777D01*
X51955500Y-22025099D01*
X51955500Y-21789901D01*
X52001385Y-21559223D01*
X52091391Y-21341928D01*
X52222060Y-21146369D01*
X52388369Y-20980060D01*
X52583928Y-20849391D01*
X52801223Y-20759385D01*
X53031901Y-20713500D01*
X53267099Y-20713500D01*
X53497777Y-20759385D01*
X53497777Y-20759385D01*
G37*
G36*
X72420777Y-20759385D02*
X72638072Y-20849391D01*
X72833631Y-20980060D01*
X72999940Y-21146369D01*
X73130609Y-21341928D01*
X73220615Y-21559223D01*
X73266500Y-21789901D01*
X73266500Y-22025099D01*
X73220615Y-22255777D01*
X73130609Y-22473072D01*
X72999940Y-22668631D01*
X72833631Y-22834940D01*
X72638072Y-22965609D01*
X72420777Y-23055615D01*
X72190099Y-23101500D01*
X71954901Y-23101500D01*
X71724223Y-23055615D01*
X71506928Y-22965609D01*
X71311369Y-22834940D01*
X71145060Y-22668631D01*
X71014391Y-22473072D01*
X70924385Y-22255777D01*
X70878500Y-22025099D01*
X70878500Y-21789901D01*
X70924385Y-21559223D01*
X71014391Y-21341928D01*
X71145060Y-21146369D01*
X71311369Y-20980060D01*
X71506928Y-20849391D01*
X71724223Y-20759385D01*
X71954901Y-20713500D01*
X72190099Y-20713500D01*
X72420777Y-20759385D01*
X72420777Y-20759385D01*
G37*
G36*
X90050000Y-20869393D02*
X90052402Y-20893779D01*
X90059515Y-20917228D01*
X90071066Y-20938839D01*
X90086612Y-20957781D01*
X90105554Y-20973327D01*
X90127165Y-20984878D01*
X90150614Y-20991991D01*
X90175000Y-20994393D01*
X90199386Y-20991991D01*
X90222835Y-20984878D01*
X90244447Y-20973327D01*
X90296062Y-20938839D01*
X90429929Y-20849391D01*
X90429932Y-20849389D01*
X90647223Y-20759385D01*
X90877901Y-20713500D01*
X91113099Y-20713500D01*
X91343777Y-20759385D01*
X91561072Y-20849391D01*
X91756631Y-20980060D01*
X91922940Y-21146369D01*
X92053609Y-21341928D01*
X92143615Y-21559223D01*
X92189500Y-21789901D01*
X92189500Y-22025099D01*
X92143615Y-22255777D01*
X92053609Y-22473072D01*
X91922940Y-22668631D01*
X91756631Y-22834940D01*
X91561072Y-22965609D01*
X91343777Y-23055615D01*
X91113099Y-23101500D01*
X90877901Y-23101500D01*
X90647223Y-23055615D01*
X90429928Y-22965609D01*
X90234369Y-22834940D01*
X90068060Y-22668631D01*
X89935832Y-22470739D01*
X89926915Y-22454056D01*
X89911370Y-22435113D01*
X89892428Y-22419568D01*
X89870818Y-22408016D01*
X89847369Y-22400902D01*
X89822980Y-22398500D01*
X86748000Y-22398500D01*
X86748000Y-20296500D01*
X90050000Y-20296500D01*
X90050000Y-20869393D01*
X90050000Y-20869393D01*
G37*
G36*
X109100000Y-20784534D02*
X109102402Y-20808920D01*
X109109515Y-20832369D01*
X109121066Y-20853980D01*
X109136612Y-20872922D01*
X109155554Y-20888468D01*
X109177165Y-20900019D01*
X109200614Y-20907132D01*
X109225000Y-20909534D01*
X109249386Y-20907132D01*
X109272835Y-20900019D01*
X109294447Y-20888467D01*
X109352928Y-20849391D01*
X109570223Y-20759385D01*
X109800901Y-20713500D01*
X110036099Y-20713500D01*
X110266777Y-20759385D01*
X110484072Y-20849391D01*
X110679631Y-20980060D01*
X110845940Y-21146369D01*
X110976609Y-21341928D01*
X111066615Y-21559223D01*
X111112500Y-21789901D01*
X111112500Y-22025099D01*
X111066615Y-22255777D01*
X110976609Y-22473072D01*
X110845940Y-22668631D01*
X110679631Y-22834940D01*
X110484072Y-22965609D01*
X110266777Y-23055615D01*
X110036099Y-23101500D01*
X109800901Y-23101500D01*
X109570223Y-23055615D01*
X109352928Y-22965609D01*
X109157369Y-22834940D01*
X108991060Y-22668631D01*
X108860390Y-22473070D01*
X108835163Y-22412166D01*
X108823612Y-22390555D01*
X108808067Y-22371612D01*
X108789125Y-22356067D01*
X108767514Y-22344515D01*
X108744065Y-22337402D01*
X108719678Y-22335000D01*
X105798000Y-22335000D01*
X105798000Y-20233000D01*
X109100000Y-20233000D01*
X109100000Y-20784534D01*
X109100000Y-20784534D01*
G37*
G36*
X58639007Y-20680517D02*
X58728583Y-20698335D01*
X58897341Y-20768237D01*
X58897342Y-20768238D01*
X59049222Y-20869721D01*
X59178379Y-20998878D01*
X59178381Y-20998881D01*
X59279863Y-21150759D01*
X59349765Y-21319517D01*
X59385400Y-21498669D01*
X59385400Y-21681331D01*
X59349765Y-21860483D01*
X59279863Y-22029241D01*
X59279862Y-22029242D01*
X59178379Y-22181122D01*
X59049222Y-22310279D01*
X59049219Y-22310281D01*
X58897341Y-22411763D01*
X58728583Y-22481665D01*
X58639007Y-22499483D01*
X58549433Y-22517300D01*
X58366767Y-22517300D01*
X58277193Y-22499483D01*
X58187617Y-22481665D01*
X58018859Y-22411763D01*
X57866981Y-22310281D01*
X57866978Y-22310279D01*
X57737821Y-22181122D01*
X57636338Y-22029242D01*
X57636337Y-22029241D01*
X57566435Y-21860483D01*
X57530800Y-21681331D01*
X57530800Y-21498669D01*
X57566435Y-21319517D01*
X57636337Y-21150759D01*
X57737819Y-20998881D01*
X57737821Y-20998878D01*
X57866978Y-20869721D01*
X58018858Y-20768238D01*
X58018859Y-20768237D01*
X58187617Y-20698335D01*
X58277193Y-20680517D01*
X58366767Y-20662700D01*
X58549433Y-20662700D01*
X58639007Y-20680517D01*
X58639007Y-20680517D01*
G37*
G36*
X43688200Y-22517300D02*
X41833600Y-22517300D01*
X41833600Y-20662700D01*
X43688200Y-20662700D01*
X43688200Y-22517300D01*
X43688200Y-22517300D01*
G37*
G36*
X72239321Y-17957313D02*
X72239324Y-17957314D01*
X72239325Y-17957314D01*
X72399739Y-18005975D01*
X72399741Y-18005976D01*
X72399744Y-18005977D01*
X72547578Y-18084995D01*
X72677159Y-18191341D01*
X72783505Y-18320922D01*
X72862523Y-18468756D01*
X72862524Y-18468759D01*
X72862525Y-18468761D01*
X72911186Y-18629175D01*
X72911187Y-18629179D01*
X72927617Y-18796000D01*
X72911187Y-18962821D01*
X72862523Y-19123244D01*
X72783505Y-19271078D01*
X72677159Y-19400659D01*
X72547578Y-19507005D01*
X72399744Y-19586023D01*
X72399741Y-19586024D01*
X72399739Y-19586025D01*
X72239325Y-19634686D01*
X72239324Y-19634686D01*
X72239321Y-19634687D01*
X72114304Y-19647000D01*
X72030696Y-19647000D01*
X71905679Y-19634687D01*
X71905676Y-19634686D01*
X71905675Y-19634686D01*
X71745261Y-19586025D01*
X71745259Y-19586024D01*
X71745256Y-19586023D01*
X71597422Y-19507005D01*
X71467841Y-19400659D01*
X71361495Y-19271078D01*
X71282477Y-19123244D01*
X71233813Y-18962821D01*
X71217383Y-18796000D01*
X71233813Y-18629179D01*
X71233814Y-18629175D01*
X71282475Y-18468761D01*
X71282476Y-18468759D01*
X71282477Y-18468756D01*
X71361495Y-18320922D01*
X71467841Y-18191341D01*
X71597422Y-18084995D01*
X71745256Y-18005977D01*
X71745259Y-18005976D01*
X71745261Y-18005975D01*
X71905675Y-17957314D01*
X71905676Y-17957314D01*
X71905679Y-17957313D01*
X72030696Y-17945000D01*
X72114304Y-17945000D01*
X72239321Y-17957313D01*
X72239321Y-17957313D01*
G37*
G36*
X65303500Y-19647000D02*
X63601500Y-19647000D01*
X63601500Y-17945000D01*
X65303500Y-17945000D01*
X65303500Y-19647000D01*
X65303500Y-19647000D01*
G37*
G36*
X53570321Y-17957313D02*
X53570324Y-17957314D01*
X53570325Y-17957314D01*
X53730739Y-18005975D01*
X53730741Y-18005976D01*
X53730744Y-18005977D01*
X53878578Y-18084995D01*
X54008159Y-18191341D01*
X54114505Y-18320922D01*
X54193523Y-18468756D01*
X54193524Y-18468759D01*
X54193525Y-18468761D01*
X54242186Y-18629175D01*
X54242187Y-18629179D01*
X54258617Y-18796000D01*
X54242187Y-18962821D01*
X54193523Y-19123244D01*
X54114505Y-19271078D01*
X54008159Y-19400659D01*
X53878578Y-19507005D01*
X53730744Y-19586023D01*
X53730741Y-19586024D01*
X53730739Y-19586025D01*
X53570325Y-19634686D01*
X53570324Y-19634686D01*
X53570321Y-19634687D01*
X53445304Y-19647000D01*
X53361696Y-19647000D01*
X53236679Y-19634687D01*
X53236676Y-19634686D01*
X53236675Y-19634686D01*
X53076261Y-19586025D01*
X53076259Y-19586024D01*
X53076256Y-19586023D01*
X52928422Y-19507005D01*
X52798841Y-19400659D01*
X52692495Y-19271078D01*
X52613477Y-19123244D01*
X52564813Y-18962821D01*
X52548383Y-18796000D01*
X52564813Y-18629179D01*
X52564814Y-18629175D01*
X52613475Y-18468761D01*
X52613476Y-18468759D01*
X52613477Y-18468756D01*
X52692495Y-18320922D01*
X52798841Y-18191341D01*
X52928422Y-18084995D01*
X53076256Y-18005977D01*
X53076259Y-18005976D01*
X53076261Y-18005975D01*
X53236675Y-17957314D01*
X53236676Y-17957314D01*
X53236679Y-17957313D01*
X53361696Y-17945000D01*
X53445304Y-17945000D01*
X53570321Y-17957313D01*
X53570321Y-17957313D01*
G37*
G36*
X46634500Y-19647000D02*
X44932500Y-19647000D01*
X44932500Y-17945000D01*
X46634500Y-17945000D01*
X46634500Y-19647000D01*
X46634500Y-19647000D01*
G37*
G36*
X103213000Y-19583500D02*
X101511000Y-19583500D01*
X101511000Y-17881500D01*
X103213000Y-17881500D01*
X103213000Y-19583500D01*
X103213000Y-19583500D01*
G37*
G36*
X110148821Y-17893813D02*
X110148824Y-17893814D01*
X110148825Y-17893814D01*
X110309239Y-17942475D01*
X110309241Y-17942476D01*
X110309244Y-17942477D01*
X110457078Y-18021495D01*
X110586659Y-18127841D01*
X110693005Y-18257422D01*
X110772023Y-18405256D01*
X110772024Y-18405259D01*
X110772025Y-18405261D01*
X110820686Y-18565675D01*
X110820687Y-18565679D01*
X110837117Y-18732500D01*
X110820687Y-18899321D01*
X110820686Y-18899324D01*
X110820686Y-18899325D01*
X110801424Y-18962825D01*
X110772023Y-19059744D01*
X110693005Y-19207578D01*
X110586659Y-19337159D01*
X110457078Y-19443505D01*
X110309244Y-19522523D01*
X110309241Y-19522524D01*
X110309239Y-19522525D01*
X110148825Y-19571186D01*
X110148824Y-19571186D01*
X110148821Y-19571187D01*
X110023804Y-19583500D01*
X109940196Y-19583500D01*
X109815179Y-19571187D01*
X109815176Y-19571186D01*
X109815175Y-19571186D01*
X109654761Y-19522525D01*
X109654759Y-19522524D01*
X109654756Y-19522523D01*
X109506922Y-19443505D01*
X109377341Y-19337159D01*
X109270995Y-19207578D01*
X109191977Y-19059744D01*
X109162577Y-18962825D01*
X109143314Y-18899325D01*
X109143314Y-18899324D01*
X109143313Y-18899321D01*
X109126883Y-18732500D01*
X109143313Y-18565679D01*
X109143314Y-18565675D01*
X109191975Y-18405261D01*
X109191976Y-18405259D01*
X109191977Y-18405256D01*
X109270995Y-18257422D01*
X109377341Y-18127841D01*
X109506922Y-18021495D01*
X109654756Y-17942477D01*
X109654759Y-17942476D01*
X109654761Y-17942475D01*
X109815175Y-17893814D01*
X109815176Y-17893814D01*
X109815179Y-17893813D01*
X109940196Y-17881500D01*
X110023804Y-17881500D01*
X110148821Y-17893813D01*
X110148821Y-17893813D01*
G37*
G36*
X91162321Y-17830313D02*
X91162324Y-17830314D01*
X91162325Y-17830314D01*
X91322739Y-17878975D01*
X91322741Y-17878976D01*
X91322744Y-17878977D01*
X91470578Y-17957995D01*
X91600159Y-18064341D01*
X91706505Y-18193922D01*
X91785523Y-18341756D01*
X91834187Y-18502179D01*
X91850617Y-18669000D01*
X91834187Y-18835821D01*
X91834186Y-18835824D01*
X91834186Y-18835825D01*
X91814924Y-18899325D01*
X91785523Y-18996244D01*
X91706505Y-19144078D01*
X91600159Y-19273659D01*
X91470578Y-19380005D01*
X91322744Y-19459023D01*
X91322741Y-19459024D01*
X91322739Y-19459025D01*
X91162325Y-19507686D01*
X91162324Y-19507686D01*
X91162321Y-19507687D01*
X91037304Y-19520000D01*
X90953696Y-19520000D01*
X90828679Y-19507687D01*
X90828676Y-19507686D01*
X90828675Y-19507686D01*
X90668261Y-19459025D01*
X90668259Y-19459024D01*
X90668256Y-19459023D01*
X90520422Y-19380005D01*
X90390841Y-19273659D01*
X90284495Y-19144078D01*
X90205477Y-18996244D01*
X90176077Y-18899325D01*
X90156814Y-18835825D01*
X90156814Y-18835824D01*
X90156813Y-18835821D01*
X90140383Y-18669000D01*
X90156813Y-18502179D01*
X90205477Y-18341756D01*
X90284495Y-18193922D01*
X90390841Y-18064341D01*
X90520422Y-17957995D01*
X90668256Y-17878977D01*
X90668259Y-17878976D01*
X90668261Y-17878975D01*
X90828675Y-17830314D01*
X90828676Y-17830314D01*
X90828679Y-17830313D01*
X90953696Y-17818000D01*
X91037304Y-17818000D01*
X91162321Y-17830313D01*
X91162321Y-17830313D01*
G37*
G36*
X84226500Y-19520000D02*
X82524500Y-19520000D01*
X82524500Y-17818000D01*
X84226500Y-17818000D01*
X84226500Y-19520000D01*
X84226500Y-19520000D01*
G37*
M02*
