M48
;DRILL file {KiCad (5.0.2)-1} date 1/24/2019 12:30:46 AM
;FORMAT={-:-/ absolute / metric / decimal}
FMAT,2
METRIC,TZ
T1C0.800
T2C1.000
T3C1.092
T4C1.499
T5C1.500
T6C1.800
T7C3.988
%
G90
G05
T1
X64.453Y-37.592
X72.072Y-37.592
X102.362Y-56.388
X109.982Y-56.388
X83.376Y-18.669
X90.995Y-18.669
X64.453Y-18.796
X72.072Y-18.796
X83.376Y-56.388
X90.995Y-56.388
X64.516Y-56.325
X72.136Y-56.325
X45.529Y-56.388
X53.149Y-56.388
X102.298Y-37.592
X109.918Y-37.592
X45.529Y-37.02
X53.149Y-37.02
X102.362Y-18.732
X109.982Y-18.732
X83.376Y-37.592
X90.995Y-37.592
X45.783Y-18.796
X53.404Y-18.796
T2
X99.949Y-24.384
X99.949Y-26.884
X99.949Y-29.384
X114.449Y-24.384
X114.449Y-29.384
X80.899Y-24.447
X80.899Y-26.947
X80.899Y-29.447
X95.399Y-24.447
X95.399Y-29.447
T3
X42.761Y-21.59
X42.761Y-26.67
X42.761Y-31.75
X42.761Y-36.83
X42.761Y-41.91
X42.761Y-46.99
X43.218Y-24.13
X43.218Y-29.21
X43.218Y-34.29
X43.218Y-39.37
X43.218Y-44.45
X43.218Y-49.53
X58.001Y-24.13
X58.001Y-29.21
X58.001Y-34.29
X58.001Y-39.37
X58.001Y-44.45
X58.001Y-49.53
X58.458Y-21.59
X58.458Y-26.67
X58.458Y-31.75
X58.458Y-36.83
X58.458Y-41.91
X58.458Y-46.99
T4
X84.645Y-62.293
X90.995Y-59.753
X65.722Y-24.447
X72.072Y-21.907
X103.569Y-43.37
X109.918Y-40.831
X65.722Y-43.37
X72.072Y-40.831
X103.569Y-24.447
X109.918Y-21.907
X103.569Y-62.293
X109.918Y-59.753
X84.645Y-24.447
X90.995Y-21.907
X46.799Y-62.293
X53.149Y-59.753
X84.645Y-43.37
X90.995Y-40.831
X65.722Y-62.293
X72.072Y-59.753
X46.799Y-43.37
X53.149Y-40.831
X46.799Y-24.447
X53.149Y-21.907
T6
X64.453Y-45.91
X74.612Y-45.91
X102.298Y-26.987
X112.459Y-26.987
X102.298Y-64.834
X112.459Y-64.834
X83.376Y-26.987
X93.535Y-26.987
X45.529Y-64.834
X55.689Y-64.834
X83.376Y-45.91
X93.535Y-45.91
X64.453Y-64.834
X74.612Y-64.834
X45.529Y-45.91
X55.689Y-45.91
X45.529Y-26.987
X55.689Y-26.987
X83.376Y-64.834
X93.535Y-64.834
X64.453Y-26.987
X74.612Y-26.987
X102.298Y-45.91
X112.459Y-45.91
T7
X69.532Y-26.987
X107.378Y-45.91
X107.378Y-26.987
X107.378Y-64.834
X88.456Y-26.987
X50.609Y-64.834
X69.532Y-64.834
X50.609Y-45.91
X50.609Y-26.987
X88.456Y-64.834
X69.532Y-45.91
X88.456Y-45.91
T5
X106.799Y-21.284G85X108.099Y-21.284
G05
X106.799Y-32.484G85X108.099Y-32.484
G05
X87.749Y-21.348G85X89.049Y-21.348
G05
X87.749Y-32.547G85X89.049Y-32.547
G05
T0
M30
