  0
SECTION
  2
HEADER
  9
$ACADVER
  1
AC1009
  9
$EXTMIN
 10
0.0
 20
0.0
 30
0.0
  9
$EXTMAX
 10
1000.0
 20
1000.0
 30
0.0
  9
$FILLMODE
 70
 0
  9
$SPLFRAME
 70
 1
  0
ENDSEC
  0
SECTION
  2
TABLES
  0
TABLE
  2
LAYER
 70
1
  0
LAYER
  2
0
 70
     0
 62
     7
  6
CONTINUOUS
  0
ENDTAB
  0
ENDSEC
  0
SECTION
  2
ENTITIES
  0
LINE
  8
0
 62
     0
 10
94.2964
 20
82.2484
 30
0.0
 11
94.452
 21
82.2427
 31
0.0
  0
LINE
  8
0
 62
     0
 10
94.452
 20
82.2427
 30
0.0
 11
94.6079
 21
82.2247
 31
0.0
  0
LINE
  8
0
 62
     0
 10
94.6079
 20
82.2247
 30
0.0
 11
94.7621
 21
82.193
 31
0.0
  0
LINE
  8
0
 62
     0
 10
94.7621
 20
82.193
 30
0.0
 11
94.9138
 21
82.1517
 31
0.0
  0
LINE
  8
0
 62
     0
 10
94.9138
 20
82.1517
 30
0.0
 11
95.0613
 21
82.0967
 31
0.0
  0
LINE
  8
0
 62
     0
 10
95.0613
 20
82.0967
 30
0.0
 11
95.2031
 21
82.0318
 31
0.0
  0
LINE
  8
0
 62
     0
 10
95.2031
 20
82.0318
 30
0.0
 11
95.3396
 21
81.9549
 31
0.0
  0
LINE
  8
0
 62
     0
 10
95.3396
 20
81.9549
 30
0.0
 11
95.4705
 21
81.8677
 31
0.0
  0
LINE
  8
0
 62
     0
 10
95.4705
 20
81.8677
 30
0.0
 11
95.5933
 21
81.77
 31
0.0
  0
LINE
  8
0
 62
     0
 10
95.5933
 20
81.77
 30
0.0
 11
95.7104
 21
81.6638
 31
0.0
  0
LINE
  8
0
 62
     0
 10
95.7104
 20
81.6638
 30
0.0
 11
95.8162
 21
81.5481
 31
0.0
  0
LINE
  8
0
 62
     0
 10
95.8162
 20
81.5481
 30
0.0
 11
95.9143
 21
81.4243
 31
0.0
  0
LINE
  8
0
 62
     0
 10
95.9143
 20
81.4243
 30
0.0
 11
96.0011
 21
81.2934
 31
0.0
  0
LINE
  8
0
 62
     0
 10
96.0011
 20
81.2934
 30
0.0
 11
96.0783
 21
81.1569
 31
0.0
  0
LINE
  8
0
 62
     0
 10
96.0783
 20
81.1569
 30
0.0
 11
96.1429
 21
81.0147
 31
0.0
  0
LINE
  8
0
 62
     0
 10
96.1429
 20
81.0147
 30
0.0
 11
96.1983
 21
80.8672
 31
0.0
  0
LINE
  8
0
 62
     0
 10
96.1983
 20
80.8672
 30
0.0
 11
96.2395
 21
80.7159
 31
0.0
  0
LINE
  8
0
 62
     0
 10
96.2395
 20
80.7159
 30
0.0
 11
96.2713
 21
80.5614
 31
0.0
  0
LINE
  8
0
 62
     0
 10
96.2713
 20
80.5614
 30
0.0
 11
96.2889
 21
80.4058
 31
0.0
  0
LINE
  8
0
 62
     0
 10
96.2889
 20
80.4058
 30
0.0
 11
96.2946
 21
80.2488
 31
0.0
  0
LINE
  8
0
 62
     0
 10
96.2946
 20
80.2488
 30
0.0
 11
96.296
 21
2.09737
 31
0.0
  0
LINE
  8
0
 62
     0
 10
96.296
 20
2.09737
 30
0.0
 11
96.2889
 21
1.94166
 31
0.0
  0
LINE
  8
0
 62
     0
 10
96.2889
 20
1.94166
 30
0.0
 11
96.2713
 21
1.78594
 31
0.0
  0
LINE
  8
0
 62
     0
 10
96.2713
 20
1.78594
 30
0.0
 11
96.2395
 21
1.6316
 31
0.0
  0
LINE
  8
0
 62
     0
 10
96.2395
 20
1.6316
 30
0.0
 11
96.1983
 21
1.48001
 31
0.0
  0
LINE
  8
0
 62
     0
 10
96.1983
 20
1.48001
 30
0.0
 11
96.1429
 21
1.33256
 31
0.0
  0
LINE
  8
0
 62
     0
 10
96.1429
 20
1.33256
 30
0.0
 11
96.0783
 21
1.19063
 31
0.0
  0
LINE
  8
0
 62
     0
 10
96.0783
 20
1.19063
 30
0.0
 11
96.0011
 21
1.0542
 31
0.0
  0
LINE
  8
0
 62
     0
 10
96.0011
 20
1.0542
 30
0.0
 11
95.9143
 21
0.921907
 31
0.0
  0
LINE
  8
0
 62
     0
 10
95.9143
 20
0.921907
 30
0.0
 11
95.8162
 21
0.799264
 31
0.0
  0
LINE
  8
0
 62
     0
 10
95.8162
 20
0.799264
 30
0.0
 11
95.7104
 21
0.683507
 31
0.0
  0
LINE
  8
0
 62
     0
 10
95.7104
 20
0.683507
 30
0.0
 11
95.5933
 21
0.577398
 31
0.0
  0
LINE
  8
0
 62
     0
 10
95.5933
 20
0.577398
 30
0.0
 11
95.4705
 21
0.479559
 31
0.0
  0
LINE
  8
0
 62
     0
 10
95.4705
 20
0.479559
 30
0.0
 11
95.3396
 21
0.39274
 31
0.0
  0
LINE
  8
0
 62
     0
 10
95.3396
 20
0.39274
 30
0.0
 11
95.2031
 21
0.315571
 31
0.0
  0
LINE
  8
0
 62
     0
 10
95.2031
 20
0.315571
 30
0.0
 11
95.0613
 21
0.250803
 31
0.0
  0
LINE
  8
0
 62
     0
 10
95.0613
 20
0.250803
 30
0.0
 11
94.9138
 21
0.195682
 31
0.0
  0
LINE
  8
0
 62
     0
 10
94.9138
 20
0.195682
 30
0.0
 11
94.7621
 21
0.152962
 31
0.0
  0
LINE
  8
0
 62
     0
 10
94.7621
 20
0.152962
 30
0.0
 11
94.6079
 21
0.122645
 31
0.0
  0
LINE
  8
0
 62
     0
 10
94.6079
 20
0.122645
 30
0.0
 11
94.452
 21
0.104731
 31
0.0
  0
LINE
  8
0
 62
     0
 10
94.452
 20
0.104731
 30
0.0
 11
94.2964
 21
0.0992188
 31
0.0
  0
LINE
  8
0
 62
     0
 10
94.2964
 20
0.0992188
 30
0.0
 11
2.09462
 21
0.0978408
 31
0.0
  0
LINE
  8
0
 62
     0
 10
2.09462
 20
0.0978408
 30
0.0
 11
1.93752
 21
0.104731
 31
0.0
  0
LINE
  8
0
 62
     0
 10
1.93752
 20
0.104731
 30
0.0
 11
1.7818
 21
0.122645
 31
0.0
  0
LINE
  8
0
 62
     0
 10
1.7818
 20
0.122645
 30
0.0
 11
1.62746
 21
0.152962
 31
0.0
  0
LINE
  8
0
 62
     0
 10
1.62746
 20
0.152962
 30
0.0
 11
1.47588
 21
0.195682
 31
0.0
  0
LINE
  8
0
 62
     0
 10
1.47588
 20
0.195682
 30
0.0
 11
1.32843
 21
0.250803
 31
0.0
  0
LINE
  8
0
 62
     0
 10
1.32843
 20
0.250803
 30
0.0
 11
1.18649
 21
0.315571
 31
0.0
  0
LINE
  8
0
 62
     0
 10
1.18649
 20
0.315571
 30
0.0
 11
1.05006
 21
0.39274
 31
0.0
  0
LINE
  8
0
 62
     0
 10
1.05006
 20
0.39274
 30
0.0
 11
0.919152
 21
0.479559
 31
0.0
  0
LINE
  8
0
 62
     0
 10
0.919152
 20
0.479559
 30
0.0
 11
0.795129
 21
0.577398
 31
0.0
  0
LINE
  8
0
 62
     0
 10
0.795129
 20
0.577398
 30
0.0
 11
0.679372
 21
0.683507
 31
0.0
  0
LINE
  8
0
 62
     0
 10
0.679372
 20
0.683507
 30
0.0
 11
0.573264
 21
0.799264
 31
0.0
  0
LINE
  8
0
 62
     0
 10
0.573264
 20
0.799264
 30
0.0
 11
0.475424
 21
0.921907
 31
0.0
  0
LINE
  8
0
 62
     0
 10
0.475424
 20
0.921907
 30
0.0
 11
0.388606
 21
1.0542
 31
0.0
  0
LINE
  8
0
 62
     0
 10
0.388606
 20
1.0542
 30
0.0
 11
0.311437
 21
1.19063
 31
0.0
  0
LINE
  8
0
 62
     0
 10
0.311437
 20
1.19063
 30
0.0
 11
0.246669
 21
1.33256
 31
0.0
  0
LINE
  8
0
 62
     0
 10
0.246669
 20
1.33256
 30
0.0
 11
0.191547
 21
1.48001
 31
0.0
  0
LINE
  8
0
 62
     0
 10
0.191547
 20
1.48001
 30
0.0
 11
0.150206
 21
1.6316
 31
0.0
  0
LINE
  8
0
 62
     0
 10
0.150206
 20
1.6316
 30
0.0
 11
0.118511
 21
1.78594
 31
0.0
  0
LINE
  8
0
 62
     0
 10
0.118511
 20
1.78594
 30
0.0
 11
0.100597
 21
1.94166
 31
0.0
  0
LINE
  8
0
 62
     0
 10
0.100597
 20
1.94166
 30
0.0
 11
0.0937066
 21
2.09737
 31
0.0
  0
LINE
  8
0
 62
     0
 10
0.0937066
 20
2.09737
 30
0.0
 11
0.0950846
 21
80.2488
 31
0.0
  0
LINE
  8
0
 62
     0
 10
0.0950846
 20
80.2488
 30
0.0
 11
0.100597
 21
80.4058
 31
0.0
  0
LINE
  8
0
 62
     0
 10
0.100597
 20
80.4058
 30
0.0
 11
0.118511
 21
80.5614
 31
0.0
  0
LINE
  8
0
 62
     0
 10
0.118511
 20
80.5614
 30
0.0
 11
0.150206
 21
80.7159
 31
0.0
  0
LINE
  8
0
 62
     0
 10
0.150206
 20
80.7159
 30
0.0
 11
0.191547
 21
80.8672
 31
0.0
  0
LINE
  8
0
 62
     0
 10
0.191547
 20
80.8672
 30
0.0
 11
0.246669
 21
81.0147
 31
0.0
  0
LINE
  8
0
 62
     0
 10
0.246669
 20
81.0147
 30
0.0
 11
0.311437
 21
81.1569
 31
0.0
  0
LINE
  8
0
 62
     0
 10
0.311437
 20
81.1569
 30
0.0
 11
0.388606
 21
81.2934
 31
0.0
  0
LINE
  8
0
 62
     0
 10
0.388606
 20
81.2934
 30
0.0
 11
0.475424
 21
81.4243
 31
0.0
  0
LINE
  8
0
 62
     0
 10
0.475424
 20
81.4243
 30
0.0
 11
0.573264
 21
81.5481
 31
0.0
  0
LINE
  8
0
 62
     0
 10
0.573264
 20
81.5481
 30
0.0
 11
0.679372
 21
81.6638
 31
0.0
  0
LINE
  8
0
 62
     0
 10
0.679372
 20
81.6638
 30
0.0
 11
0.795129
 21
81.77
 31
0.0
  0
LINE
  8
0
 62
     0
 10
0.795129
 20
81.77
 30
0.0
 11
0.919152
 21
81.8677
 31
0.0
  0
LINE
  8
0
 62
     0
 10
0.919152
 20
81.8677
 30
0.0
 11
1.05006
 21
81.9549
 31
0.0
  0
LINE
  8
0
 62
     0
 10
1.05006
 20
81.9549
 30
0.0
 11
1.18649
 21
82.0318
 31
0.0
  0
LINE
  8
0
 62
     0
 10
1.18649
 20
82.0318
 30
0.0
 11
1.32843
 21
82.0967
 31
0.0
  0
LINE
  8
0
 62
     0
 10
1.32843
 20
82.0967
 30
0.0
 11
1.47588
 21
82.1517
 31
0.0
  0
LINE
  8
0
 62
     0
 10
1.47588
 20
82.1517
 30
0.0
 11
1.62746
 21
82.193
 31
0.0
  0
LINE
  8
0
 62
     0
 10
1.62746
 20
82.193
 30
0.0
 11
1.7818
 21
82.2247
 31
0.0
  0
LINE
  8
0
 62
     0
 10
1.7818
 20
82.2247
 30
0.0
 11
1.93752
 21
82.2427
 31
0.0
  0
LINE
  8
0
 62
     0
 10
1.93752
 20
82.2427
 30
0.0
 11
2.09462
 21
82.2494
 31
0.0
  0
LINE
  8
0
 62
     0
 10
2.09462
 20
82.2494
 30
0.0
 11
94.2964
 21
82.2484
 31
0.0
  0
LINE
  8
0
 62
     0
 10
93.4861
 20
3.54983
 30
0.0
 11
93.2078
 21
3.40789
 31
0.0
  0
LINE
  8
0
 62
     0
 10
93.2078
 20
3.40789
 30
0.0
 11
92.9859
 21
3.18602
 31
0.0
  0
LINE
  8
0
 62
     0
 10
92.9859
 20
3.18602
 30
0.0
 11
92.8441
 21
2.90766
 31
0.0
  0
LINE
  8
0
 62
     0
 10
92.8441
 20
2.90766
 30
0.0
 11
92.7957
 21
2.5976
 31
0.0
  0
LINE
  8
0
 62
     0
 10
92.7957
 20
2.5976
 30
0.0
 11
92.8441
 21
2.28892
 31
0.0
  0
LINE
  8
0
 62
     0
 10
92.8441
 20
2.28892
 30
0.0
 11
92.9859
 21
2.01056
 31
0.0
  0
LINE
  8
0
 62
     0
 10
92.9859
 20
2.01056
 30
0.0
 11
93.2078
 21
1.78869
 31
0.0
  0
LINE
  8
0
 62
     0
 10
93.2078
 20
1.78869
 30
0.0
 11
93.4861
 21
1.64676
 31
0.0
  0
LINE
  8
0
 62
     0
 10
93.4861
 20
1.64676
 30
0.0
 11
93.7962
 21
1.59714
 31
0.0
  0
LINE
  8
0
 62
     0
 10
93.7962
 20
1.59714
 30
0.0
 11
94.1049
 21
1.64676
 31
0.0
  0
LINE
  8
0
 62
     0
 10
94.1049
 20
1.64676
 30
0.0
 11
94.3832
 21
1.78869
 31
0.0
  0
LINE
  8
0
 62
     0
 10
94.3832
 20
1.78869
 30
0.0
 11
94.6051
 21
2.01056
 31
0.0
  0
LINE
  8
0
 62
     0
 10
94.6051
 20
2.01056
 30
0.0
 11
94.7469
 21
2.28892
 31
0.0
  0
LINE
  8
0
 62
     0
 10
94.7469
 20
2.28892
 30
0.0
 11
94.7953
 21
2.5976
 31
0.0
  0
LINE
  8
0
 62
     0
 10
94.7953
 20
2.5976
 30
0.0
 11
94.7469
 21
2.90766
 31
0.0
  0
LINE
  8
0
 62
     0
 10
94.7469
 20
2.90766
 30
0.0
 11
94.6051
 21
3.18602
 31
0.0
  0
LINE
  8
0
 62
     0
 10
94.6051
 20
3.18602
 30
0.0
 11
94.3832
 21
3.40789
 31
0.0
  0
LINE
  8
0
 62
     0
 10
94.3832
 20
3.40789
 30
0.0
 11
94.1049
 21
3.54983
 31
0.0
  0
LINE
  8
0
 62
     0
 10
94.1049
 20
3.54983
 30
0.0
 11
93.7962
 21
3.59805
 31
0.0
  0
LINE
  8
0
 62
     0
 10
93.7962
 20
3.59805
 30
0.0
 11
93.4861
 21
3.54983
 31
0.0
  0
LINE
  8
0
 62
     0
 10
47.8854
 20
3.54983
 30
0.0
 11
47.607
 21
3.40789
 31
0.0
  0
LINE
  8
0
 62
     0
 10
47.607
 20
3.40789
 30
0.0
 11
47.3851
 21
3.18602
 31
0.0
  0
LINE
  8
0
 62
     0
 10
47.3851
 20
3.18602
 30
0.0
 11
47.2433
 21
2.90766
 31
0.0
  0
LINE
  8
0
 62
     0
 10
47.2433
 20
2.90766
 30
0.0
 11
47.195
 21
2.5976
 31
0.0
  0
LINE
  8
0
 62
     0
 10
47.195
 20
2.5976
 30
0.0
 11
47.2433
 21
2.28892
 31
0.0
  0
LINE
  8
0
 62
     0
 10
47.2433
 20
2.28892
 30
0.0
 11
47.3851
 21
2.01056
 31
0.0
  0
LINE
  8
0
 62
     0
 10
47.3851
 20
2.01056
 30
0.0
 11
47.607
 21
1.78869
 31
0.0
  0
LINE
  8
0
 62
     0
 10
47.607
 20
1.78869
 30
0.0
 11
47.8854
 21
1.64676
 31
0.0
  0
LINE
  8
0
 62
     0
 10
47.8854
 20
1.64676
 30
0.0
 11
48.194
 21
1.59714
 31
0.0
  0
LINE
  8
0
 62
     0
 10
48.194
 20
1.59714
 30
0.0
 11
48.5041
 21
1.64676
 31
0.0
  0
LINE
  8
0
 62
     0
 10
48.5041
 20
1.64676
 30
0.0
 11
48.7825
 21
1.78869
 31
0.0
  0
LINE
  8
0
 62
     0
 10
48.7825
 20
1.78869
 30
0.0
 11
49.0044
 21
2.01056
 31
0.0
  0
LINE
  8
0
 62
     0
 10
49.0044
 20
2.01056
 30
0.0
 11
49.1465
 21
2.28892
 31
0.0
  0
LINE
  8
0
 62
     0
 10
49.1465
 20
2.28892
 30
0.0
 11
49.1945
 21
2.5976
 31
0.0
  0
LINE
  8
0
 62
     0
 10
49.1945
 20
2.5976
 30
0.0
 11
49.1465
 21
2.90766
 31
0.0
  0
LINE
  8
0
 62
     0
 10
49.1465
 20
2.90766
 30
0.0
 11
49.0044
 21
3.18602
 31
0.0
  0
LINE
  8
0
 62
     0
 10
49.0044
 20
3.18602
 30
0.0
 11
48.7825
 21
3.40789
 31
0.0
  0
LINE
  8
0
 62
     0
 10
48.7825
 20
3.40789
 30
0.0
 11
48.5041
 21
3.54983
 31
0.0
  0
LINE
  8
0
 62
     0
 10
48.5041
 20
3.54983
 30
0.0
 11
48.194
 21
3.59805
 31
0.0
  0
LINE
  8
0
 62
     0
 10
48.194
 20
3.59805
 30
0.0
 11
47.8854
 21
3.54983
 31
0.0
  0
LINE
  8
0
 62
     0
 10
2.28479
 20
3.54983
 30
0.0
 11
2.00642
 21
3.40789
 31
0.0
  0
LINE
  8
0
 62
     0
 10
2.00642
 20
3.40789
 30
0.0
 11
1.78456
 21
3.18602
 31
0.0
  0
LINE
  8
0
 62
     0
 10
1.78456
 20
3.18602
 30
0.0
 11
1.64262
 21
2.90766
 31
0.0
  0
LINE
  8
0
 62
     0
 10
1.64262
 20
2.90766
 30
0.0
 11
1.59439
 21
2.5976
 31
0.0
  0
LINE
  8
0
 62
     0
 10
1.59439
 20
2.5976
 30
0.0
 11
1.64262
 21
2.28892
 31
0.0
  0
LINE
  8
0
 62
     0
 10
1.64262
 20
2.28892
 30
0.0
 11
1.78456
 21
2.01056
 31
0.0
  0
LINE
  8
0
 62
     0
 10
1.78456
 20
2.01056
 30
0.0
 11
2.00642
 21
1.78869
 31
0.0
  0
LINE
  8
0
 62
     0
 10
2.00642
 20
1.78869
 30
0.0
 11
2.28479
 21
1.64676
 31
0.0
  0
LINE
  8
0
 62
     0
 10
2.28479
 20
1.64676
 30
0.0
 11
2.59347
 21
1.59714
 31
0.0
  0
LINE
  8
0
 62
     0
 10
2.59347
 20
1.59714
 30
0.0
 11
2.90353
 21
1.64676
 31
0.0
  0
LINE
  8
0
 62
     0
 10
2.90353
 20
1.64676
 30
0.0
 11
3.18189
 21
1.78869
 31
0.0
  0
LINE
  8
0
 62
     0
 10
3.18189
 20
1.78869
 30
0.0
 11
3.40376
 21
2.01056
 31
0.0
  0
LINE
  8
0
 62
     0
 10
3.40376
 20
2.01056
 30
0.0
 11
3.5457
 21
2.28892
 31
0.0
  0
LINE
  8
0
 62
     0
 10
3.5457
 20
2.28892
 30
0.0
 11
3.5953
 21
2.5976
 31
0.0
  0
LINE
  8
0
 62
     0
 10
3.5953
 20
2.5976
 30
0.0
 11
3.5457
 21
2.90766
 31
0.0
  0
LINE
  8
0
 62
     0
 10
3.5457
 20
2.90766
 30
0.0
 11
3.40376
 21
3.18602
 31
0.0
  0
LINE
  8
0
 62
     0
 10
3.40376
 20
3.18602
 30
0.0
 11
3.18189
 21
3.40789
 31
0.0
  0
LINE
  8
0
 62
     0
 10
3.18189
 20
3.40789
 30
0.0
 11
2.90353
 21
3.54983
 31
0.0
  0
LINE
  8
0
 62
     0
 10
2.90353
 20
3.54983
 30
0.0
 11
2.59485
 21
3.59805
 31
0.0
  0
LINE
  8
0
 62
     0
 10
2.59485
 20
3.59805
 30
0.0
 11
2.28479
 21
3.54983
 31
0.0
  0
LINE
  8
0
 62
     0
 10
47.8854
 20
80.7007
 30
0.0
 11
47.607
 21
80.5586
 31
0.0
  0
LINE
  8
0
 62
     0
 10
47.607
 20
80.5586
 30
0.0
 11
47.3851
 21
80.337
 31
0.0
  0
LINE
  8
0
 62
     0
 10
47.3851
 20
80.337
 30
0.0
 11
47.2433
 21
80.0587
 31
0.0
  0
LINE
  8
0
 62
     0
 10
47.2433
 20
80.0587
 30
0.0
 11
47.195
 21
79.75
 31
0.0
  0
LINE
  8
0
 62
     0
 10
47.195
 20
79.75
 30
0.0
 11
47.2433
 21
79.4399
 31
0.0
  0
LINE
  8
0
 62
     0
 10
47.2433
 20
79.4399
 30
0.0
 11
47.3851
 21
79.1616
 31
0.0
  0
LINE
  8
0
 62
     0
 10
47.3851
 20
79.1616
 30
0.0
 11
47.607
 21
78.9397
 31
0.0
  0
LINE
  8
0
 62
     0
 10
47.607
 20
78.9397
 30
0.0
 11
47.8854
 21
78.7975
 31
0.0
  0
LINE
  8
0
 62
     0
 10
47.8854
 20
78.7975
 30
0.0
 11
48.194
 21
78.7481
 31
0.0
  0
LINE
  8
0
 62
     0
 10
48.194
 20
78.7481
 30
0.0
 11
48.5041
 21
78.7975
 31
0.0
  0
LINE
  8
0
 62
     0
 10
48.5041
 20
78.7975
 30
0.0
 11
48.7825
 21
78.9397
 31
0.0
  0
LINE
  8
0
 62
     0
 10
48.7825
 20
78.9397
 30
0.0
 11
49.0044
 21
79.1616
 31
0.0
  0
LINE
  8
0
 62
     0
 10
49.0044
 20
79.1616
 30
0.0
 11
49.1465
 21
79.4399
 31
0.0
  0
LINE
  8
0
 62
     0
 10
49.1465
 20
79.4399
 30
0.0
 11
49.1945
 21
79.7486
 31
0.0
  0
LINE
  8
0
 62
     0
 10
49.1945
 20
79.7486
 30
0.0
 11
49.1465
 21
80.0587
 31
0.0
  0
LINE
  8
0
 62
     0
 10
49.1465
 20
80.0587
 30
0.0
 11
49.0044
 21
80.337
 31
0.0
  0
LINE
  8
0
 62
     0
 10
49.0044
 20
80.337
 30
0.0
 11
48.7825
 21
80.5586
 31
0.0
  0
LINE
  8
0
 62
     0
 10
48.7825
 20
80.5586
 30
0.0
 11
48.5041
 21
80.7007
 31
0.0
  0
LINE
  8
0
 62
     0
 10
48.5041
 20
80.7007
 30
0.0
 11
48.194
 21
80.7491
 31
0.0
  0
LINE
  8
0
 62
     0
 10
48.194
 20
80.7491
 30
0.0
 11
47.8854
 21
80.7007
 31
0.0
  0
LINE
  8
0
 62
     0
 10
93.4861
 20
80.7007
 30
0.0
 11
93.2078
 21
80.5586
 31
0.0
  0
LINE
  8
0
 62
     0
 10
93.2078
 20
80.5586
 30
0.0
 11
92.9859
 21
80.337
 31
0.0
  0
LINE
  8
0
 62
     0
 10
92.9859
 20
80.337
 30
0.0
 11
92.8441
 21
80.0587
 31
0.0
  0
LINE
  8
0
 62
     0
 10
92.8441
 20
80.0587
 30
0.0
 11
92.7957
 21
79.75
 31
0.0
  0
LINE
  8
0
 62
     0
 10
92.7957
 20
79.75
 30
0.0
 11
92.8441
 21
79.4399
 31
0.0
  0
LINE
  8
0
 62
     0
 10
92.8441
 20
79.4399
 30
0.0
 11
92.9859
 21
79.1616
 31
0.0
  0
LINE
  8
0
 62
     0
 10
92.9859
 20
79.1616
 30
0.0
 11
93.2078
 21
78.9397
 31
0.0
  0
LINE
  8
0
 62
     0
 10
93.2078
 20
78.9397
 30
0.0
 11
93.4861
 21
78.7975
 31
0.0
  0
LINE
  8
0
 62
     0
 10
93.4861
 20
78.7975
 30
0.0
 11
93.7962
 21
78.7481
 31
0.0
  0
LINE
  8
0
 62
     0
 10
93.7962
 20
78.7481
 30
0.0
 11
94.1049
 21
78.7975
 31
0.0
  0
LINE
  8
0
 62
     0
 10
94.1049
 20
78.7975
 30
0.0
 11
94.3832
 21
78.9397
 31
0.0
  0
LINE
  8
0
 62
     0
 10
94.3832
 20
78.9397
 30
0.0
 11
94.6051
 21
79.1616
 31
0.0
  0
LINE
  8
0
 62
     0
 10
94.6051
 20
79.1616
 30
0.0
 11
94.7469
 21
79.4399
 31
0.0
  0
LINE
  8
0
 62
     0
 10
94.7469
 20
79.4399
 30
0.0
 11
94.7953
 21
79.7486
 31
0.0
  0
LINE
  8
0
 62
     0
 10
94.7953
 20
79.7486
 30
0.0
 11
94.7469
 21
80.0587
 31
0.0
  0
LINE
  8
0
 62
     0
 10
94.7469
 20
80.0587
 30
0.0
 11
94.6051
 21
80.337
 31
0.0
  0
LINE
  8
0
 62
     0
 10
94.6051
 20
80.337
 30
0.0
 11
94.3832
 21
80.5586
 31
0.0
  0
LINE
  8
0
 62
     0
 10
94.3832
 20
80.5586
 30
0.0
 11
94.1049
 21
80.7007
 31
0.0
  0
LINE
  8
0
 62
     0
 10
94.1049
 20
80.7007
 30
0.0
 11
93.7962
 21
80.7491
 31
0.0
  0
LINE
  8
0
 62
     0
 10
93.7962
 20
80.7491
 30
0.0
 11
93.4861
 21
80.7007
 31
0.0
  0
LINE
  8
0
 62
     0
 10
2.28479
 20
80.7007
 30
0.0
 11
2.00642
 21
80.5586
 31
0.0
  0
LINE
  8
0
 62
     0
 10
2.00642
 20
80.5586
 30
0.0
 11
1.78456
 21
80.337
 31
0.0
  0
LINE
  8
0
 62
     0
 10
1.78456
 20
80.337
 30
0.0
 11
1.64262
 21
80.0587
 31
0.0
  0
LINE
  8
0
 62
     0
 10
1.64262
 20
80.0587
 30
0.0
 11
1.59439
 21
79.75
 31
0.0
  0
LINE
  8
0
 62
     0
 10
1.59439
 20
79.75
 30
0.0
 11
1.64262
 21
79.4399
 31
0.0
  0
LINE
  8
0
 62
     0
 10
1.64262
 20
79.4399
 30
0.0
 11
1.78456
 21
79.1616
 31
0.0
  0
LINE
  8
0
 62
     0
 10
1.78456
 20
79.1616
 30
0.0
 11
2.00642
 21
78.9397
 31
0.0
  0
LINE
  8
0
 62
     0
 10
2.00642
 20
78.9397
 30
0.0
 11
2.28479
 21
78.7975
 31
0.0
  0
LINE
  8
0
 62
     0
 10
2.28479
 20
78.7975
 30
0.0
 11
2.59347
 21
78.7481
 31
0.0
  0
LINE
  8
0
 62
     0
 10
2.59347
 20
78.7481
 30
0.0
 11
2.90353
 21
78.7975
 31
0.0
  0
LINE
  8
0
 62
     0
 10
2.90353
 20
78.7975
 30
0.0
 11
3.18189
 21
78.9397
 31
0.0
  0
LINE
  8
0
 62
     0
 10
3.18189
 20
78.9397
 30
0.0
 11
3.40376
 21
79.1616
 31
0.0
  0
LINE
  8
0
 62
     0
 10
3.40376
 20
79.1616
 30
0.0
 11
3.5457
 21
79.4399
 31
0.0
  0
LINE
  8
0
 62
     0
 10
3.5457
 20
79.4399
 30
0.0
 11
3.5953
 21
79.7486
 31
0.0
  0
LINE
  8
0
 62
     0
 10
3.5953
 20
79.7486
 30
0.0
 11
3.5457
 21
80.0587
 31
0.0
  0
LINE
  8
0
 62
     0
 10
3.5457
 20
80.0587
 30
0.0
 11
3.40376
 21
80.337
 31
0.0
  0
LINE
  8
0
 62
     0
 10
3.40376
 20
80.337
 30
0.0
 11
3.18189
 21
80.5586
 31
0.0
  0
LINE
  8
0
 62
     0
 10
3.18189
 20
80.5586
 30
0.0
 11
2.90353
 21
80.7007
 31
0.0
  0
LINE
  8
0
 62
     0
 10
2.90353
 20
80.7007
 30
0.0
 11
2.59485
 21
80.7491
 31
0.0
  0
LINE
  8
0
 62
     0
 10
2.59485
 20
80.7491
 30
0.0
 11
2.28479
 21
80.7007
 31
0.0
  0
ENDSEC
  0
EOF
