G04 #@! TF.GenerationSoftware,KiCad,Pcbnew,(5.0.2)-1*
G04 #@! TF.CreationDate,2019-03-06T02:06:32-05:00*
G04 #@! TF.ProjectId,plate,706c6174-652e-46b6-9963-61645f706362,rev?*
G04 #@! TF.SameCoordinates,Original*
G04 #@! TF.FileFunction,Legend,Top*
G04 #@! TF.FilePolarity,Positive*
%FSLAX46Y46*%
G04 Gerber Fmt 4.6, Leading zero omitted, Abs format (unit mm)*
G04 Created by KiCad (PCBNEW (5.0.2)-1) date 3/6/2019 2:06:32 AM*
%MOMM*%
%LPD*%
G01*
G04 APERTURE LIST*
%ADD10C,0.010000*%
G04 APERTURE END LIST*
D10*
G04 #@! TO.C,REF\002A\002A*
G36*
X75803314Y-72335431D02*
X75887135Y-72780055D01*
X76196420Y-72907553D01*
X76505706Y-73035051D01*
X76876746Y-72782746D01*
X76980657Y-72712496D01*
X77074587Y-72649772D01*
X77154152Y-72597438D01*
X77214970Y-72558357D01*
X77252657Y-72535393D01*
X77262921Y-72530442D01*
X77281410Y-72543176D01*
X77320920Y-72578382D01*
X77377022Y-72631562D01*
X77445287Y-72698218D01*
X77521286Y-72773854D01*
X77600592Y-72853972D01*
X77678775Y-72934074D01*
X77751407Y-73009664D01*
X77814059Y-73076245D01*
X77862303Y-73129318D01*
X77891710Y-73164387D01*
X77898741Y-73176123D01*
X77888623Y-73197760D01*
X77860259Y-73245162D01*
X77816629Y-73313693D01*
X77760718Y-73398715D01*
X77695506Y-73495593D01*
X77657719Y-73550850D01*
X77588843Y-73651748D01*
X77527640Y-73742799D01*
X77477078Y-73819470D01*
X77440128Y-73877228D01*
X77419758Y-73911543D01*
X77416697Y-73918754D01*
X77423636Y-73939248D01*
X77442551Y-73987013D01*
X77470587Y-74055332D01*
X77504891Y-74137489D01*
X77542609Y-74226770D01*
X77580887Y-74316458D01*
X77616870Y-74399838D01*
X77647706Y-74470194D01*
X77670539Y-74520810D01*
X77682517Y-74544971D01*
X77683224Y-74545922D01*
X77702031Y-74550536D01*
X77752118Y-74560828D01*
X77828293Y-74575787D01*
X77925365Y-74594401D01*
X78038143Y-74615659D01*
X78103942Y-74627918D01*
X78224450Y-74650862D01*
X78333297Y-74672695D01*
X78424976Y-74692222D01*
X78493981Y-74708248D01*
X78534804Y-74719579D01*
X78543011Y-74723174D01*
X78551048Y-74747506D01*
X78557533Y-74802459D01*
X78562470Y-74881608D01*
X78565864Y-74978526D01*
X78567718Y-75086787D01*
X78568038Y-75199965D01*
X78566827Y-75311635D01*
X78564090Y-75415368D01*
X78559831Y-75504741D01*
X78554055Y-75573326D01*
X78546767Y-75614697D01*
X78542395Y-75623310D01*
X78516264Y-75633633D01*
X78460893Y-75648392D01*
X78383607Y-75665852D01*
X78291730Y-75684280D01*
X78259658Y-75690241D01*
X78105024Y-75718566D01*
X77982875Y-75741376D01*
X77889173Y-75759580D01*
X77819884Y-75774083D01*
X77770971Y-75785792D01*
X77738397Y-75795615D01*
X77718128Y-75804456D01*
X77706126Y-75813224D01*
X77704447Y-75814957D01*
X77687684Y-75842871D01*
X77662114Y-75897195D01*
X77630288Y-75971277D01*
X77594760Y-76058465D01*
X77558083Y-76152108D01*
X77522811Y-76245552D01*
X77491496Y-76332147D01*
X77466693Y-76405240D01*
X77450954Y-76458178D01*
X77446832Y-76484311D01*
X77447176Y-76485226D01*
X77461141Y-76506586D01*
X77492822Y-76553584D01*
X77538891Y-76621327D01*
X77596018Y-76704923D01*
X77660873Y-76799482D01*
X77679343Y-76826354D01*
X77745199Y-76923775D01*
X77803150Y-77012663D01*
X77850038Y-77087912D01*
X77882707Y-77144420D01*
X77898000Y-77177081D01*
X77898741Y-77181093D01*
X77885892Y-77202184D01*
X77850388Y-77243964D01*
X77796793Y-77301945D01*
X77729671Y-77371635D01*
X77653587Y-77448545D01*
X77573104Y-77528183D01*
X77492787Y-77606061D01*
X77417199Y-77677686D01*
X77350905Y-77738570D01*
X77298469Y-77784221D01*
X77264455Y-77810150D01*
X77255045Y-77814383D01*
X77233143Y-77804412D01*
X77188300Y-77777520D01*
X77127821Y-77738236D01*
X77081289Y-77706617D01*
X76996975Y-77648598D01*
X76897126Y-77580284D01*
X76796973Y-77512079D01*
X76743127Y-77475575D01*
X76560871Y-77352300D01*
X76407881Y-77435020D01*
X76338182Y-77471259D01*
X76278914Y-77499426D01*
X76238811Y-77515491D01*
X76228603Y-77517726D01*
X76216329Y-77501222D01*
X76192113Y-77454582D01*
X76157763Y-77382109D01*
X76115088Y-77288106D01*
X76065894Y-77176874D01*
X76011990Y-77052715D01*
X75955184Y-76919932D01*
X75897282Y-76782827D01*
X75840093Y-76645702D01*
X75785424Y-76512858D01*
X75735084Y-76388598D01*
X75690880Y-76277225D01*
X75654619Y-76183039D01*
X75628109Y-76110344D01*
X75613158Y-76063441D01*
X75610754Y-76047333D01*
X75629811Y-76026786D01*
X75671536Y-75993433D01*
X75727206Y-75954202D01*
X75731878Y-75951099D01*
X75875764Y-75835923D01*
X75991783Y-75701553D01*
X76078930Y-75552284D01*
X76136199Y-75392413D01*
X76162586Y-75226237D01*
X76157085Y-75058052D01*
X76118690Y-74892155D01*
X76046395Y-74732842D01*
X76025126Y-74697987D01*
X75914496Y-74557237D01*
X75783802Y-74444214D01*
X75637564Y-74359503D01*
X75480308Y-74303694D01*
X75316557Y-74277374D01*
X75150833Y-74281130D01*
X74987662Y-74315550D01*
X74831565Y-74381223D01*
X74687067Y-74478735D01*
X74642369Y-74518313D01*
X74528612Y-74642203D01*
X74445718Y-74772624D01*
X74388856Y-74918815D01*
X74357187Y-75063588D01*
X74349369Y-75226360D01*
X74375438Y-75389940D01*
X74432745Y-75548798D01*
X74518644Y-75697406D01*
X74630486Y-75830235D01*
X74765623Y-75941756D01*
X74783383Y-75953511D01*
X74839650Y-75992008D01*
X74882423Y-76025363D01*
X74902872Y-76046660D01*
X74903169Y-76047333D01*
X74898779Y-76070371D01*
X74881376Y-76122657D01*
X74852768Y-76199890D01*
X74814765Y-76297768D01*
X74769174Y-76411991D01*
X74717803Y-76538258D01*
X74662462Y-76672267D01*
X74604958Y-76809718D01*
X74547101Y-76946308D01*
X74490698Y-77077737D01*
X74437558Y-77199705D01*
X74389490Y-77307909D01*
X74348301Y-77398049D01*
X74315801Y-77465823D01*
X74293797Y-77506930D01*
X74284936Y-77517726D01*
X74257860Y-77509319D01*
X74207197Y-77486772D01*
X74141683Y-77454113D01*
X74105659Y-77435020D01*
X73952668Y-77352300D01*
X73770412Y-77475575D01*
X73677375Y-77538728D01*
X73575515Y-77608227D01*
X73480062Y-77673665D01*
X73432250Y-77706617D01*
X73365005Y-77751773D01*
X73308064Y-77787557D01*
X73268854Y-77809438D01*
X73256119Y-77814063D01*
X73237583Y-77801585D01*
X73196559Y-77766752D01*
X73137025Y-77713178D01*
X73062958Y-77644483D01*
X72978335Y-77564281D01*
X72924815Y-77512786D01*
X72831181Y-77420786D01*
X72750259Y-77338499D01*
X72685323Y-77269445D01*
X72639642Y-77217144D01*
X72616489Y-77185116D01*
X72614268Y-77178616D01*
X72624576Y-77153894D01*
X72653061Y-77103905D01*
X72696563Y-77033712D01*
X72751923Y-76948375D01*
X72815980Y-76852956D01*
X72834197Y-76826354D01*
X72900573Y-76729667D01*
X72960122Y-76642617D01*
X73009516Y-76570095D01*
X73045425Y-76516993D01*
X73064519Y-76488203D01*
X73066364Y-76485226D01*
X73063605Y-76462282D01*
X73048962Y-76411836D01*
X73024987Y-76340541D01*
X72994234Y-76255047D01*
X72959256Y-76162007D01*
X72922607Y-76068074D01*
X72886839Y-75979899D01*
X72854506Y-75904134D01*
X72828162Y-75847431D01*
X72810358Y-75816443D01*
X72809093Y-75814957D01*
X72798206Y-75806101D01*
X72779818Y-75797343D01*
X72749894Y-75787777D01*
X72704397Y-75776496D01*
X72639291Y-75762593D01*
X72550539Y-75745163D01*
X72434107Y-75723298D01*
X72285958Y-75696091D01*
X72253882Y-75690241D01*
X72158814Y-75671874D01*
X72075935Y-75653905D01*
X72012570Y-75638069D01*
X71976042Y-75626100D01*
X71971144Y-75623310D01*
X71963073Y-75598572D01*
X71956513Y-75543290D01*
X71951467Y-75463889D01*
X71947941Y-75366796D01*
X71945939Y-75258438D01*
X71945464Y-75145240D01*
X71946523Y-75033628D01*
X71949118Y-74930029D01*
X71953254Y-74840868D01*
X71958937Y-74772572D01*
X71966169Y-74731566D01*
X71970529Y-74723174D01*
X71994802Y-74714708D01*
X72050074Y-74700935D01*
X72130838Y-74683050D01*
X72231588Y-74662248D01*
X72346817Y-74639723D01*
X72409598Y-74627918D01*
X72528713Y-74605651D01*
X72634935Y-74585479D01*
X72723073Y-74568415D01*
X72787934Y-74555469D01*
X72824326Y-74547655D01*
X72830316Y-74545922D01*
X72840439Y-74526390D01*
X72861838Y-74479343D01*
X72891661Y-74411503D01*
X72927055Y-74329591D01*
X72965168Y-74240328D01*
X73003147Y-74150435D01*
X73038140Y-74066635D01*
X73067294Y-73995647D01*
X73087757Y-73944194D01*
X73096677Y-73918997D01*
X73096843Y-73917896D01*
X73086731Y-73898019D01*
X73058383Y-73852277D01*
X73014777Y-73785217D01*
X72958894Y-73701384D01*
X72893713Y-73605326D01*
X72855821Y-73550150D01*
X72786775Y-73448981D01*
X72725450Y-73357130D01*
X72674837Y-73279244D01*
X72637929Y-73219969D01*
X72617718Y-73183951D01*
X72614799Y-73175877D01*
X72627347Y-73157084D01*
X72662037Y-73116957D01*
X72714437Y-73059993D01*
X72780116Y-72990685D01*
X72854644Y-72913531D01*
X72933587Y-72833025D01*
X73012517Y-72753663D01*
X73087000Y-72679940D01*
X73152606Y-72616352D01*
X73204904Y-72567394D01*
X73239461Y-72537561D01*
X73251022Y-72530442D01*
X73269846Y-72540453D01*
X73314869Y-72568578D01*
X73381713Y-72611954D01*
X73466001Y-72667718D01*
X73563356Y-72733006D01*
X73636793Y-72782746D01*
X74007833Y-73035051D01*
X74626405Y-72780055D01*
X74710225Y-72335431D01*
X74794046Y-71890807D01*
X75719494Y-71890807D01*
X75803314Y-72335431D01*
X75803314Y-72335431D01*
G37*
X75803314Y-72335431D02*
X75887135Y-72780055D01*
X76196420Y-72907553D01*
X76505706Y-73035051D01*
X76876746Y-72782746D01*
X76980657Y-72712496D01*
X77074587Y-72649772D01*
X77154152Y-72597438D01*
X77214970Y-72558357D01*
X77252657Y-72535393D01*
X77262921Y-72530442D01*
X77281410Y-72543176D01*
X77320920Y-72578382D01*
X77377022Y-72631562D01*
X77445287Y-72698218D01*
X77521286Y-72773854D01*
X77600592Y-72853972D01*
X77678775Y-72934074D01*
X77751407Y-73009664D01*
X77814059Y-73076245D01*
X77862303Y-73129318D01*
X77891710Y-73164387D01*
X77898741Y-73176123D01*
X77888623Y-73197760D01*
X77860259Y-73245162D01*
X77816629Y-73313693D01*
X77760718Y-73398715D01*
X77695506Y-73495593D01*
X77657719Y-73550850D01*
X77588843Y-73651748D01*
X77527640Y-73742799D01*
X77477078Y-73819470D01*
X77440128Y-73877228D01*
X77419758Y-73911543D01*
X77416697Y-73918754D01*
X77423636Y-73939248D01*
X77442551Y-73987013D01*
X77470587Y-74055332D01*
X77504891Y-74137489D01*
X77542609Y-74226770D01*
X77580887Y-74316458D01*
X77616870Y-74399838D01*
X77647706Y-74470194D01*
X77670539Y-74520810D01*
X77682517Y-74544971D01*
X77683224Y-74545922D01*
X77702031Y-74550536D01*
X77752118Y-74560828D01*
X77828293Y-74575787D01*
X77925365Y-74594401D01*
X78038143Y-74615659D01*
X78103942Y-74627918D01*
X78224450Y-74650862D01*
X78333297Y-74672695D01*
X78424976Y-74692222D01*
X78493981Y-74708248D01*
X78534804Y-74719579D01*
X78543011Y-74723174D01*
X78551048Y-74747506D01*
X78557533Y-74802459D01*
X78562470Y-74881608D01*
X78565864Y-74978526D01*
X78567718Y-75086787D01*
X78568038Y-75199965D01*
X78566827Y-75311635D01*
X78564090Y-75415368D01*
X78559831Y-75504741D01*
X78554055Y-75573326D01*
X78546767Y-75614697D01*
X78542395Y-75623310D01*
X78516264Y-75633633D01*
X78460893Y-75648392D01*
X78383607Y-75665852D01*
X78291730Y-75684280D01*
X78259658Y-75690241D01*
X78105024Y-75718566D01*
X77982875Y-75741376D01*
X77889173Y-75759580D01*
X77819884Y-75774083D01*
X77770971Y-75785792D01*
X77738397Y-75795615D01*
X77718128Y-75804456D01*
X77706126Y-75813224D01*
X77704447Y-75814957D01*
X77687684Y-75842871D01*
X77662114Y-75897195D01*
X77630288Y-75971277D01*
X77594760Y-76058465D01*
X77558083Y-76152108D01*
X77522811Y-76245552D01*
X77491496Y-76332147D01*
X77466693Y-76405240D01*
X77450954Y-76458178D01*
X77446832Y-76484311D01*
X77447176Y-76485226D01*
X77461141Y-76506586D01*
X77492822Y-76553584D01*
X77538891Y-76621327D01*
X77596018Y-76704923D01*
X77660873Y-76799482D01*
X77679343Y-76826354D01*
X77745199Y-76923775D01*
X77803150Y-77012663D01*
X77850038Y-77087912D01*
X77882707Y-77144420D01*
X77898000Y-77177081D01*
X77898741Y-77181093D01*
X77885892Y-77202184D01*
X77850388Y-77243964D01*
X77796793Y-77301945D01*
X77729671Y-77371635D01*
X77653587Y-77448545D01*
X77573104Y-77528183D01*
X77492787Y-77606061D01*
X77417199Y-77677686D01*
X77350905Y-77738570D01*
X77298469Y-77784221D01*
X77264455Y-77810150D01*
X77255045Y-77814383D01*
X77233143Y-77804412D01*
X77188300Y-77777520D01*
X77127821Y-77738236D01*
X77081289Y-77706617D01*
X76996975Y-77648598D01*
X76897126Y-77580284D01*
X76796973Y-77512079D01*
X76743127Y-77475575D01*
X76560871Y-77352300D01*
X76407881Y-77435020D01*
X76338182Y-77471259D01*
X76278914Y-77499426D01*
X76238811Y-77515491D01*
X76228603Y-77517726D01*
X76216329Y-77501222D01*
X76192113Y-77454582D01*
X76157763Y-77382109D01*
X76115088Y-77288106D01*
X76065894Y-77176874D01*
X76011990Y-77052715D01*
X75955184Y-76919932D01*
X75897282Y-76782827D01*
X75840093Y-76645702D01*
X75785424Y-76512858D01*
X75735084Y-76388598D01*
X75690880Y-76277225D01*
X75654619Y-76183039D01*
X75628109Y-76110344D01*
X75613158Y-76063441D01*
X75610754Y-76047333D01*
X75629811Y-76026786D01*
X75671536Y-75993433D01*
X75727206Y-75954202D01*
X75731878Y-75951099D01*
X75875764Y-75835923D01*
X75991783Y-75701553D01*
X76078930Y-75552284D01*
X76136199Y-75392413D01*
X76162586Y-75226237D01*
X76157085Y-75058052D01*
X76118690Y-74892155D01*
X76046395Y-74732842D01*
X76025126Y-74697987D01*
X75914496Y-74557237D01*
X75783802Y-74444214D01*
X75637564Y-74359503D01*
X75480308Y-74303694D01*
X75316557Y-74277374D01*
X75150833Y-74281130D01*
X74987662Y-74315550D01*
X74831565Y-74381223D01*
X74687067Y-74478735D01*
X74642369Y-74518313D01*
X74528612Y-74642203D01*
X74445718Y-74772624D01*
X74388856Y-74918815D01*
X74357187Y-75063588D01*
X74349369Y-75226360D01*
X74375438Y-75389940D01*
X74432745Y-75548798D01*
X74518644Y-75697406D01*
X74630486Y-75830235D01*
X74765623Y-75941756D01*
X74783383Y-75953511D01*
X74839650Y-75992008D01*
X74882423Y-76025363D01*
X74902872Y-76046660D01*
X74903169Y-76047333D01*
X74898779Y-76070371D01*
X74881376Y-76122657D01*
X74852768Y-76199890D01*
X74814765Y-76297768D01*
X74769174Y-76411991D01*
X74717803Y-76538258D01*
X74662462Y-76672267D01*
X74604958Y-76809718D01*
X74547101Y-76946308D01*
X74490698Y-77077737D01*
X74437558Y-77199705D01*
X74389490Y-77307909D01*
X74348301Y-77398049D01*
X74315801Y-77465823D01*
X74293797Y-77506930D01*
X74284936Y-77517726D01*
X74257860Y-77509319D01*
X74207197Y-77486772D01*
X74141683Y-77454113D01*
X74105659Y-77435020D01*
X73952668Y-77352300D01*
X73770412Y-77475575D01*
X73677375Y-77538728D01*
X73575515Y-77608227D01*
X73480062Y-77673665D01*
X73432250Y-77706617D01*
X73365005Y-77751773D01*
X73308064Y-77787557D01*
X73268854Y-77809438D01*
X73256119Y-77814063D01*
X73237583Y-77801585D01*
X73196559Y-77766752D01*
X73137025Y-77713178D01*
X73062958Y-77644483D01*
X72978335Y-77564281D01*
X72924815Y-77512786D01*
X72831181Y-77420786D01*
X72750259Y-77338499D01*
X72685323Y-77269445D01*
X72639642Y-77217144D01*
X72616489Y-77185116D01*
X72614268Y-77178616D01*
X72624576Y-77153894D01*
X72653061Y-77103905D01*
X72696563Y-77033712D01*
X72751923Y-76948375D01*
X72815980Y-76852956D01*
X72834197Y-76826354D01*
X72900573Y-76729667D01*
X72960122Y-76642617D01*
X73009516Y-76570095D01*
X73045425Y-76516993D01*
X73064519Y-76488203D01*
X73066364Y-76485226D01*
X73063605Y-76462282D01*
X73048962Y-76411836D01*
X73024987Y-76340541D01*
X72994234Y-76255047D01*
X72959256Y-76162007D01*
X72922607Y-76068074D01*
X72886839Y-75979899D01*
X72854506Y-75904134D01*
X72828162Y-75847431D01*
X72810358Y-75816443D01*
X72809093Y-75814957D01*
X72798206Y-75806101D01*
X72779818Y-75797343D01*
X72749894Y-75787777D01*
X72704397Y-75776496D01*
X72639291Y-75762593D01*
X72550539Y-75745163D01*
X72434107Y-75723298D01*
X72285958Y-75696091D01*
X72253882Y-75690241D01*
X72158814Y-75671874D01*
X72075935Y-75653905D01*
X72012570Y-75638069D01*
X71976042Y-75626100D01*
X71971144Y-75623310D01*
X71963073Y-75598572D01*
X71956513Y-75543290D01*
X71951467Y-75463889D01*
X71947941Y-75366796D01*
X71945939Y-75258438D01*
X71945464Y-75145240D01*
X71946523Y-75033628D01*
X71949118Y-74930029D01*
X71953254Y-74840868D01*
X71958937Y-74772572D01*
X71966169Y-74731566D01*
X71970529Y-74723174D01*
X71994802Y-74714708D01*
X72050074Y-74700935D01*
X72130838Y-74683050D01*
X72231588Y-74662248D01*
X72346817Y-74639723D01*
X72409598Y-74627918D01*
X72528713Y-74605651D01*
X72634935Y-74585479D01*
X72723073Y-74568415D01*
X72787934Y-74555469D01*
X72824326Y-74547655D01*
X72830316Y-74545922D01*
X72840439Y-74526390D01*
X72861838Y-74479343D01*
X72891661Y-74411503D01*
X72927055Y-74329591D01*
X72965168Y-74240328D01*
X73003147Y-74150435D01*
X73038140Y-74066635D01*
X73067294Y-73995647D01*
X73087757Y-73944194D01*
X73096677Y-73918997D01*
X73096843Y-73917896D01*
X73086731Y-73898019D01*
X73058383Y-73852277D01*
X73014777Y-73785217D01*
X72958894Y-73701384D01*
X72893713Y-73605326D01*
X72855821Y-73550150D01*
X72786775Y-73448981D01*
X72725450Y-73357130D01*
X72674837Y-73279244D01*
X72637929Y-73219969D01*
X72617718Y-73183951D01*
X72614799Y-73175877D01*
X72627347Y-73157084D01*
X72662037Y-73116957D01*
X72714437Y-73059993D01*
X72780116Y-72990685D01*
X72854644Y-72913531D01*
X72933587Y-72833025D01*
X73012517Y-72753663D01*
X73087000Y-72679940D01*
X73152606Y-72616352D01*
X73204904Y-72567394D01*
X73239461Y-72537561D01*
X73251022Y-72530442D01*
X73269846Y-72540453D01*
X73314869Y-72568578D01*
X73381713Y-72611954D01*
X73466001Y-72667718D01*
X73563356Y-72733006D01*
X73636793Y-72782746D01*
X74007833Y-73035051D01*
X74626405Y-72780055D01*
X74710225Y-72335431D01*
X74794046Y-71890807D01*
X75719494Y-71890807D01*
X75803314Y-72335431D01*
G04 #@! TD*
M02*
