G04 #@! TF.GenerationSoftware,KiCad,Pcbnew,(5.0.2)-1*
G04 #@! TF.CreationDate,2019-03-11T01:50:24-04:00*
G04 #@! TF.ProjectId,plate,706c6174-652e-46b6-9963-61645f706362,rev?*
G04 #@! TF.SameCoordinates,Original*
G04 #@! TF.FileFunction,Profile,NP*
%FSLAX46Y46*%
G04 Gerber Fmt 4.6, Leading zero omitted, Abs format (unit mm)*
G04 Created by KiCad (PCBNEW (5.0.2)-1) date 3/11/2019 1:50:24 AM*
%MOMM*%
%LPD*%
G01*
G04 APERTURE LIST*
%ADD10C,0.200000*%
G04 APERTURE END LIST*
D10*
X39086500Y-72390020D02*
X39086500Y-58389100D01*
X53085800Y-72390020D02*
X39086500Y-72390020D01*
X53085800Y-58389100D02*
X53085800Y-72390020D01*
X34036000Y-58389100D02*
X34036000Y-72390020D01*
X93712100Y-17766100D02*
X93712100Y-74915959D01*
X34036000Y-72390020D02*
X20036450Y-72390020D01*
X20036450Y-58389100D02*
X34036000Y-58389100D01*
X20036450Y-72390020D02*
X20036450Y-58389100D01*
X17511885Y-74915959D02*
X17511885Y-17766100D01*
X93712100Y-74915959D02*
X17511885Y-74915959D01*
X17511885Y-17766100D02*
X93712100Y-17766100D01*
X72135800Y-58389100D02*
X72135800Y-72390020D01*
X58136500Y-58389100D02*
X72135800Y-58389100D01*
X39086500Y-58389100D02*
X53085800Y-58389100D01*
X91185800Y-39339100D02*
X91185800Y-53340000D01*
X58136500Y-53340000D02*
X58136500Y-39339100D01*
X39086500Y-20289100D02*
X53085800Y-20289100D01*
X77186500Y-34289800D02*
X77186500Y-20289100D01*
X58136500Y-39339100D02*
X72135800Y-39339100D01*
X91185800Y-34289800D02*
X77186500Y-34289800D01*
X91185800Y-20289100D02*
X91185800Y-34289800D01*
X77186500Y-20289100D02*
X91185800Y-20289100D01*
X58136500Y-34289800D02*
X58136500Y-20289100D01*
X72135800Y-34289800D02*
X58136500Y-34289800D01*
X72135800Y-20289100D02*
X72135800Y-34289800D01*
X58136500Y-20289100D02*
X72135800Y-20289100D01*
X53085800Y-53340000D02*
X39086500Y-53340000D01*
X20036450Y-39339100D02*
X34036000Y-39339100D01*
X34036000Y-34289800D02*
X20036450Y-34289800D01*
X77186500Y-39339100D02*
X91185800Y-39339100D01*
X53085800Y-39339100D02*
X53085800Y-53340000D01*
X91185800Y-58389100D02*
X91185800Y-72390020D01*
X20036450Y-20289100D02*
X34036000Y-20289100D01*
X53085800Y-34289800D02*
X39086500Y-34289800D01*
X77186500Y-53340000D02*
X77186500Y-39339100D01*
X39086500Y-53340000D02*
X39086500Y-39339100D01*
X77186500Y-72390020D02*
X77186500Y-58389100D01*
X72135800Y-72390020D02*
X58136500Y-72390020D01*
X39086500Y-39339100D02*
X53085800Y-39339100D01*
X58136500Y-72390020D02*
X58136500Y-58389100D01*
X34036000Y-39339100D02*
X34036000Y-53340000D01*
X39086500Y-34289800D02*
X39086500Y-20289100D01*
X53085800Y-20289100D02*
X53085800Y-34289800D01*
X20036450Y-34289800D02*
X20036450Y-20289100D01*
X91185800Y-72390020D02*
X77186500Y-72390020D01*
X77186500Y-58389100D02*
X91185800Y-58389100D01*
X34036000Y-20289100D02*
X34036000Y-34289800D01*
X20036450Y-53340000D02*
X20036450Y-39339100D01*
X72135800Y-39339100D02*
X72135800Y-53340000D01*
X91185800Y-53340000D02*
X77186500Y-53340000D01*
X72135800Y-53340000D02*
X58136500Y-53340000D01*
X34036000Y-53340000D02*
X20036450Y-53340000D01*
M02*
