M48
;DRILL file {KiCad (5.0.2)-1} date 4/24/2019 12:03:07 AM
;FORMAT={-:-/ absolute / metric / decimal}
FMAT,2
METRIC,TZ
T1C0.400
T2C0.600
T3C1.000
T4C1.100
T5C1.200
T6C1.470
T7C1.500
T8C1.200
T9C1.700
T10C1.750
T11C2.200
T12C3.988
%
G90
G05
T1
X175.057Y-55.766
X177.885Y-56.477
X184.112Y-50.482
X184.861Y-52.006
X185.433Y-50.482
X187.579Y-55.855
X194.018Y-54.635
X196.621Y-53.327
X197.383Y-54.
X197.714Y-51.054
X197.714Y-78.016
X197.79Y-46.647
X198.044Y-54.686
X198.056Y-49.238
X198.361Y-47.422
X198.361Y-47.422
X199.606Y-55.22
X200.635Y-54.623
X201.803Y-58.61
X202.768Y-56.363
X207.569Y-53.632
X208.458Y-53.188
X210.706Y-67.729
X210.82Y-51.765
X211.719Y-52.365
X211.929Y-68.618
X212.331Y-49.136
X212.687Y-50.419
X213.208Y-69.583
X213.208Y-74.095
X213.728Y-49.784
X214.325Y-93.145
X214.414Y-55.715
X216.738Y-77.826
X217.691Y-52.311
X218.948Y-52.349
X220.154Y-60.046
X221.107Y-67.551
X223.609Y-45.06
X228.613Y-52.514
X228.803Y-54.686
X229.697Y-53.119
X231.788Y-50.419
X233.032Y-49.784
X234.455Y-54.978
X235.864Y-78.016
X236.982Y-56.845
X242.265Y-49.86
X244.919Y-53.073
X255.079Y-51.994
T3
X185.674Y-57.763
X185.674Y-72.263
X188.174Y-72.263
X190.674Y-57.763
X190.674Y-72.263
X230.746Y-44.361
X230.746Y-46.901
X234.417Y-44.323
X236.957Y-44.323
X239.497Y-44.323
X242.037Y-44.323
X244.577Y-44.323
X247.117Y-44.323
X249.657Y-44.323
X204.724Y-57.763
X204.724Y-72.263
X207.224Y-72.263
X209.724Y-57.763
X209.724Y-72.263
X242.76Y-57.763
X242.76Y-72.263
X245.26Y-72.263
X247.76Y-57.763
X247.76Y-72.263
X223.774Y-57.763
X223.774Y-72.263
X226.274Y-72.263
X228.774Y-57.763
X228.774Y-72.263
T4
X170.815Y-47.208
X170.815Y-53.708
X175.315Y-47.208
X175.315Y-53.708
T5
X245.3Y-78.82
X250.3Y-80.02
X226.25Y-59.77
X231.25Y-60.97
X226.25Y-78.757
X231.25Y-79.956
X188.15Y-59.77
X193.15Y-60.97
X245.3Y-97.87
X250.3Y-99.07
X207.2Y-78.82
X212.2Y-80.02
X188.15Y-78.82
X193.15Y-80.02
X207.2Y-97.87
X212.2Y-99.07
X207.2Y-59.77
X212.2Y-60.97
X226.187Y-97.87
X231.187Y-99.07
X188.15Y-97.87
X193.15Y-99.07
X245.3Y-59.77
X250.3Y-60.97
T6
X222.44Y-81.216
X228.79Y-78.676
X184.34Y-62.23
X190.69Y-59.69
X241.49Y-100.33
X247.84Y-97.79
X203.391Y-81.28
X209.74Y-78.74
X184.34Y-81.28
X190.69Y-78.74
X203.391Y-100.33
X209.74Y-97.79
X203.391Y-62.23
X209.74Y-59.69
X222.377Y-100.33
X228.727Y-97.79
X184.34Y-100.33
X190.69Y-97.79
X241.49Y-62.23
X247.84Y-59.69
X241.49Y-81.28
X247.84Y-78.74
X222.44Y-62.23
X228.79Y-59.69
T8
X240.081Y-88.02
X221.03Y-68.97
X221.03Y-87.956
X182.93Y-68.97
X240.081Y-107.07
X201.98Y-88.02
X182.93Y-88.02
X201.98Y-107.07
X201.98Y-68.97
X220.967Y-107.07
X182.93Y-107.07
X240.081Y-68.97
T9
X239.8Y-102.87
X250.8Y-102.87
X201.7Y-83.82
X212.7Y-83.82
X182.65Y-83.82
X193.65Y-83.82
X201.7Y-102.87
X212.7Y-102.87
X201.7Y-64.77
X212.7Y-64.77
X220.687Y-102.87
X231.687Y-102.87
X182.65Y-102.87
X193.65Y-102.87
X239.8Y-64.77
X250.8Y-64.77
X239.8Y-83.82
X250.8Y-83.82
X220.75Y-64.77
X231.75Y-64.77
X220.75Y-83.757
X231.75Y-83.757
X182.65Y-64.77
X193.65Y-64.77
T10
X240.22Y-83.82
X250.38Y-83.82
X221.171Y-64.77
X231.331Y-64.77
X221.171Y-83.757
X231.331Y-83.757
X183.07Y-64.77
X193.23Y-64.77
X240.22Y-102.87
X250.38Y-102.87
X202.12Y-83.82
X212.28Y-83.82
X183.07Y-83.82
X193.23Y-83.82
X202.12Y-102.87
X212.28Y-102.87
X202.12Y-64.77
X212.28Y-64.77
X221.107Y-102.87
X231.267Y-102.87
X183.07Y-102.87
X193.23Y-102.87
X240.22Y-64.77
X250.38Y-64.77
T11
X253.555Y-44.501
X253.555Y-109.804
X216.7Y-109.804
X216.611Y-44.488
X171.767Y-109.817
X171.767Y-44.501
T12
X226.25Y-64.77
X226.25Y-83.757
X188.15Y-64.77
X245.3Y-102.87
X207.2Y-83.82
X188.15Y-83.82
X207.2Y-102.87
X207.2Y-64.77
X226.187Y-102.87
X188.15Y-102.87
X245.3Y-64.77
X245.3Y-83.82
T2
X179.286Y-43.448G85X179.286Y-44.648
G05
X179.286Y-47.648G85X179.286Y-48.448
G05
X190.436Y-43.448G85X190.436Y-44.648
G05
X190.436Y-47.648G85X190.436Y-48.448
G05
T7
X193.774Y-65.413G85X193.774Y-64.113
G05
X201.624Y-65.413G85X201.624Y-64.113
G05
X212.824Y-65.413G85X212.824Y-64.113
G05
X239.66Y-65.413G85X239.66Y-64.113
G05
X250.861Y-65.413G85X250.861Y-64.113
G05
X220.674Y-65.413G85X220.674Y-64.113
G05
X231.874Y-65.413G85X231.874Y-64.113
G05
X182.574Y-65.413G85X182.574Y-64.113
G05
T0
M30
