G04 #@! TF.GenerationSoftware,KiCad,Pcbnew,(5.0.2)-1*
G04 #@! TF.CreationDate,2019-03-06T02:08:12-05:00*
G04 #@! TF.ProjectId,4x5macro,3478356d-6163-4726-9f2e-6b696361645f,rev?*
G04 #@! TF.SameCoordinates,Original*
G04 #@! TF.FileFunction,Legend,Top*
G04 #@! TF.FilePolarity,Positive*
%FSLAX46Y46*%
G04 Gerber Fmt 4.6, Leading zero omitted, Abs format (unit mm)*
G04 Created by KiCad (PCBNEW (5.0.2)-1) date 3/6/2019 2:08:12 AM*
%MOMM*%
%LPD*%
G01*
G04 APERTURE LIST*
%ADD10C,1.000000*%
%ADD11C,0.500000*%
%ADD12C,0.120000*%
%ADD13C,0.381000*%
%ADD14C,0.150000*%
G04 APERTURE END LIST*
D10*
X41656714Y-81438857D02*
X42609095Y-84105523D01*
X43561476Y-81438857D01*
X47180523Y-84105523D02*
X44894809Y-84105523D01*
X46037666Y-84105523D02*
X46037666Y-80105523D01*
X45656714Y-80676952D01*
X45275761Y-81057904D01*
X44894809Y-81248380D01*
X48894809Y-83724571D02*
X49085285Y-83915047D01*
X48894809Y-84105523D01*
X48704333Y-83915047D01*
X48894809Y-83724571D01*
X48894809Y-84105523D01*
X52894809Y-84105523D02*
X50609095Y-84105523D01*
X51751952Y-84105523D02*
X51751952Y-80105523D01*
X51371000Y-80676952D01*
X50990047Y-81057904D01*
X50609095Y-81248380D01*
D11*
X56343476Y-81295761D02*
X56343476Y-79295761D01*
X56343476Y-81200523D02*
X56153000Y-81295761D01*
X55772047Y-81295761D01*
X55581571Y-81200523D01*
X55486333Y-81105285D01*
X55391095Y-80914809D01*
X55391095Y-80343380D01*
X55486333Y-80152904D01*
X55581571Y-80057666D01*
X55772047Y-79962428D01*
X56153000Y-79962428D01*
X56343476Y-80057666D01*
X58057761Y-81200523D02*
X57867285Y-81295761D01*
X57486333Y-81295761D01*
X57295857Y-81200523D01*
X57200619Y-81010047D01*
X57200619Y-80248142D01*
X57295857Y-80057666D01*
X57486333Y-79962428D01*
X57867285Y-79962428D01*
X58057761Y-80057666D01*
X58153000Y-80248142D01*
X58153000Y-80438619D01*
X57200619Y-80629095D01*
X58914904Y-81200523D02*
X59105380Y-81295761D01*
X59486333Y-81295761D01*
X59676809Y-81200523D01*
X59772047Y-81010047D01*
X59772047Y-80914809D01*
X59676809Y-80724333D01*
X59486333Y-80629095D01*
X59200619Y-80629095D01*
X59010142Y-80533857D01*
X58914904Y-80343380D01*
X58914904Y-80248142D01*
X59010142Y-80057666D01*
X59200619Y-79962428D01*
X59486333Y-79962428D01*
X59676809Y-80057666D01*
X60629190Y-81295761D02*
X60629190Y-79962428D01*
X60629190Y-79295761D02*
X60533952Y-79391000D01*
X60629190Y-79486238D01*
X60724428Y-79391000D01*
X60629190Y-79295761D01*
X60629190Y-79486238D01*
X62438714Y-79962428D02*
X62438714Y-81581476D01*
X62343476Y-81771952D01*
X62248238Y-81867190D01*
X62057761Y-81962428D01*
X61772047Y-81962428D01*
X61581571Y-81867190D01*
X62438714Y-81200523D02*
X62248238Y-81295761D01*
X61867285Y-81295761D01*
X61676809Y-81200523D01*
X61581571Y-81105285D01*
X61486333Y-80914809D01*
X61486333Y-80343380D01*
X61581571Y-80152904D01*
X61676809Y-80057666D01*
X61867285Y-79962428D01*
X62248238Y-79962428D01*
X62438714Y-80057666D01*
X63391095Y-79962428D02*
X63391095Y-81295761D01*
X63391095Y-80152904D02*
X63486333Y-80057666D01*
X63676809Y-79962428D01*
X63962523Y-79962428D01*
X64153000Y-80057666D01*
X64248238Y-80248142D01*
X64248238Y-81295761D01*
X65962523Y-81200523D02*
X65772047Y-81295761D01*
X65391095Y-81295761D01*
X65200619Y-81200523D01*
X65105380Y-81010047D01*
X65105380Y-80248142D01*
X65200619Y-80057666D01*
X65391095Y-79962428D01*
X65772047Y-79962428D01*
X65962523Y-80057666D01*
X66057761Y-80248142D01*
X66057761Y-80438619D01*
X65105380Y-80629095D01*
X67772047Y-81295761D02*
X67772047Y-79295761D01*
X67772047Y-81200523D02*
X67581571Y-81295761D01*
X67200619Y-81295761D01*
X67010142Y-81200523D01*
X66914904Y-81105285D01*
X66819666Y-80914809D01*
X66819666Y-80343380D01*
X66914904Y-80152904D01*
X67010142Y-80057666D01*
X67200619Y-79962428D01*
X67581571Y-79962428D01*
X67772047Y-80057666D01*
X70248238Y-81295761D02*
X70248238Y-79295761D01*
X70248238Y-80057666D02*
X70438714Y-79962428D01*
X70819666Y-79962428D01*
X71010142Y-80057666D01*
X71105380Y-80152904D01*
X71200619Y-80343380D01*
X71200619Y-80914809D01*
X71105380Y-81105285D01*
X71010142Y-81200523D01*
X70819666Y-81295761D01*
X70438714Y-81295761D01*
X70248238Y-81200523D01*
X71867285Y-79962428D02*
X72343476Y-81295761D01*
X72819666Y-79962428D02*
X72343476Y-81295761D01*
X72153000Y-81771952D01*
X72057761Y-81867190D01*
X71867285Y-81962428D01*
X75962523Y-79962428D02*
X75962523Y-81295761D01*
X75105380Y-79962428D02*
X75105380Y-81010047D01*
X75200619Y-81200523D01*
X75391095Y-81295761D01*
X75676809Y-81295761D01*
X75867285Y-81200523D01*
X75962523Y-81105285D01*
X78343476Y-79200523D02*
X76629190Y-81771952D01*
X79010142Y-81295761D02*
X79010142Y-79962428D01*
X79010142Y-80152904D02*
X79105380Y-80057666D01*
X79295857Y-79962428D01*
X79581571Y-79962428D01*
X79772047Y-80057666D01*
X79867285Y-80248142D01*
X79867285Y-81295761D01*
X79867285Y-80248142D02*
X79962523Y-80057666D01*
X80153000Y-79962428D01*
X80438714Y-79962428D01*
X80629190Y-80057666D01*
X80724428Y-80248142D01*
X80724428Y-81295761D01*
X81486333Y-79962428D02*
X81962523Y-81295761D01*
X82438714Y-79962428D02*
X81962523Y-81295761D01*
X81772047Y-81771952D01*
X81676809Y-81867190D01*
X81486333Y-81962428D01*
X82914904Y-79962428D02*
X83676809Y-79962428D01*
X83200619Y-79295761D02*
X83200619Y-81010047D01*
X83295857Y-81200523D01*
X83486333Y-81295761D01*
X83676809Y-81295761D01*
X84343476Y-81295761D02*
X84343476Y-79295761D01*
X85200619Y-81295761D02*
X85200619Y-80248142D01*
X85105380Y-80057666D01*
X84914904Y-79962428D01*
X84629190Y-79962428D01*
X84438714Y-80057666D01*
X84343476Y-80152904D01*
X86438714Y-81295761D02*
X86248238Y-81200523D01*
X86153000Y-81105285D01*
X86057761Y-80914809D01*
X86057761Y-80343380D01*
X86153000Y-80152904D01*
X86248238Y-80057666D01*
X86438714Y-79962428D01*
X86724428Y-79962428D01*
X86914904Y-80057666D01*
X87010142Y-80152904D01*
X87105380Y-80343380D01*
X87105380Y-80914809D01*
X87010142Y-81105285D01*
X86914904Y-81200523D01*
X86724428Y-81295761D01*
X86438714Y-81295761D01*
X87867285Y-81200523D02*
X88057761Y-81295761D01*
X88438714Y-81295761D01*
X88629190Y-81200523D01*
X88724428Y-81010047D01*
X88724428Y-80914809D01*
X88629190Y-80724333D01*
X88438714Y-80629095D01*
X88153000Y-80629095D01*
X87962523Y-80533857D01*
X87867285Y-80343380D01*
X87867285Y-80248142D01*
X87962523Y-80057666D01*
X88153000Y-79962428D01*
X88438714Y-79962428D01*
X88629190Y-80057666D01*
X89581571Y-81295761D02*
X89581571Y-79962428D01*
X89581571Y-80152904D02*
X89676809Y-80057666D01*
X89867285Y-79962428D01*
X90153000Y-79962428D01*
X90343476Y-80057666D01*
X90438714Y-80248142D01*
X90438714Y-81295761D01*
X90438714Y-80248142D02*
X90533952Y-80057666D01*
X90724428Y-79962428D01*
X91010142Y-79962428D01*
X91200619Y-80057666D01*
X91295857Y-80248142D01*
X91295857Y-81295761D01*
X93105380Y-81295761D02*
X93105380Y-80248142D01*
X93010142Y-80057666D01*
X92819666Y-79962428D01*
X92438714Y-79962428D01*
X92248238Y-80057666D01*
X93105380Y-81200523D02*
X92914904Y-81295761D01*
X92438714Y-81295761D01*
X92248238Y-81200523D01*
X92153000Y-81010047D01*
X92153000Y-80819571D01*
X92248238Y-80629095D01*
X92438714Y-80533857D01*
X92914904Y-80533857D01*
X93105380Y-80438619D01*
X94057761Y-79962428D02*
X94057761Y-81295761D01*
X94057761Y-80152904D02*
X94153000Y-80057666D01*
X94343476Y-79962428D01*
X94629190Y-79962428D01*
X94819666Y-80057666D01*
X94914904Y-80248142D01*
X94914904Y-81295761D01*
X95867285Y-79962428D02*
X95867285Y-81295761D01*
X95867285Y-80152904D02*
X95962523Y-80057666D01*
X96152999Y-79962428D01*
X96438714Y-79962428D01*
X96629190Y-80057666D01*
X96724428Y-80248142D01*
X96724428Y-81295761D01*
X99581571Y-79295761D02*
X99772047Y-79295761D01*
X99962523Y-79391000D01*
X100057761Y-79486238D01*
X100152999Y-79676714D01*
X100248238Y-80057666D01*
X100248238Y-80533857D01*
X100152999Y-80914809D01*
X100057761Y-81105285D01*
X99962523Y-81200523D01*
X99772047Y-81295761D01*
X99581571Y-81295761D01*
X99391095Y-81200523D01*
X99295857Y-81105285D01*
X99200619Y-80914809D01*
X99105380Y-80533857D01*
X99105380Y-80057666D01*
X99200619Y-79676714D01*
X99295857Y-79486238D01*
X99391095Y-79391000D01*
X99581571Y-79295761D01*
X102152999Y-81295761D02*
X101010142Y-81295761D01*
X101581571Y-81295761D02*
X101581571Y-79295761D01*
X101391095Y-79581476D01*
X101200619Y-79771952D01*
X101010142Y-79867190D01*
X103010142Y-81105285D02*
X103105380Y-81200523D01*
X103010142Y-81295761D01*
X102914904Y-81200523D01*
X103010142Y-81105285D01*
X103010142Y-81295761D01*
X105010142Y-81295761D02*
X103867285Y-81295761D01*
X104438714Y-81295761D02*
X104438714Y-79295761D01*
X104248238Y-79581476D01*
X104057761Y-79771952D01*
X103867285Y-79867190D01*
X105962523Y-81295761D02*
X106343476Y-81295761D01*
X106533952Y-81200523D01*
X106629190Y-81105285D01*
X106819666Y-80819571D01*
X106914904Y-80438619D01*
X106914904Y-79676714D01*
X106819666Y-79486238D01*
X106724428Y-79391000D01*
X106533952Y-79295761D01*
X106152999Y-79295761D01*
X105962523Y-79391000D01*
X105867285Y-79486238D01*
X105772047Y-79676714D01*
X105772047Y-80152904D01*
X105867285Y-80343380D01*
X105962523Y-80438619D01*
X106152999Y-80533857D01*
X106533952Y-80533857D01*
X106724428Y-80438619D01*
X106819666Y-80343380D01*
X106914904Y-80152904D01*
D12*
G04 #@! TO.C,SW1*
X80430000Y-34410000D02*
G75*
G03X80430000Y-34410000I-3000000J0D01*
G01*
X71530000Y-32410000D02*
X71530000Y-28310000D01*
X83330000Y-28310000D02*
X83330000Y-32410000D01*
X83330000Y-36410000D02*
X83330000Y-40510000D01*
X71530000Y-36410000D02*
X71530000Y-40510000D01*
X71530000Y-40510000D02*
X83330000Y-40510000D01*
X73630000Y-41910000D02*
X73330000Y-42210000D01*
X73330000Y-42210000D02*
X73330000Y-41610000D01*
X73330000Y-41610000D02*
X73630000Y-41910000D01*
X71530000Y-28310000D02*
X73930000Y-28310000D01*
X76130000Y-28310000D02*
X78730000Y-28310000D01*
X80930000Y-28310000D02*
X83330000Y-28310000D01*
X76930000Y-34410000D02*
X77930000Y-34410000D01*
X77430000Y-34910000D02*
X77430000Y-33910000D01*
G04 #@! TO.C,D14*
X39466500Y-18332000D02*
X39466500Y-19482000D01*
X46766500Y-18332000D02*
X39466500Y-18332000D01*
X46766500Y-23832000D02*
X39466500Y-23832000D01*
G04 #@! TO.C,SW14*
X99734000Y-34410000D02*
G75*
G03X99734000Y-34410000I-3000000J0D01*
G01*
X90834000Y-32410000D02*
X90834000Y-28310000D01*
X102634000Y-28310000D02*
X102634000Y-32410000D01*
X102634000Y-36410000D02*
X102634000Y-40510000D01*
X90834000Y-36410000D02*
X90834000Y-40510000D01*
X90834000Y-40510000D02*
X102634000Y-40510000D01*
X92934000Y-41910000D02*
X92634000Y-42210000D01*
X92634000Y-42210000D02*
X92634000Y-41610000D01*
X92634000Y-41610000D02*
X92934000Y-41910000D01*
X90834000Y-28310000D02*
X93234000Y-28310000D01*
X95434000Y-28310000D02*
X98034000Y-28310000D01*
X100234000Y-28310000D02*
X102634000Y-28310000D01*
X96234000Y-34410000D02*
X97234000Y-34410000D01*
X96734000Y-34910000D02*
X96734000Y-33910000D01*
D13*
G04 #@! TO.C,U1*
X33274000Y-27559000D02*
X30734000Y-27559000D01*
X30734000Y-25019000D02*
X30734000Y-27559000D01*
X48514000Y-25019000D02*
X30734000Y-25019000D01*
X48514000Y-27559000D02*
X48514000Y-25019000D01*
D14*
G36*
X44555568Y-34038360D02*
X44555568Y-34238360D01*
X44455568Y-34238360D01*
X44455568Y-34038360D01*
X44555568Y-34038360D01*
G37*
X44555568Y-34038360D02*
X44555568Y-34238360D01*
X44455568Y-34238360D01*
X44455568Y-34038360D01*
X44555568Y-34038360D01*
G36*
X44155568Y-33438360D02*
X44155568Y-34238360D01*
X44055568Y-34238360D01*
X44055568Y-33438360D01*
X44155568Y-33438360D01*
G37*
X44155568Y-33438360D02*
X44155568Y-34238360D01*
X44055568Y-34238360D01*
X44055568Y-33438360D01*
X44155568Y-33438360D01*
G36*
X44555568Y-33438360D02*
X44555568Y-33538360D01*
X44055568Y-33538360D01*
X44055568Y-33438360D01*
X44555568Y-33438360D01*
G37*
X44555568Y-33438360D02*
X44555568Y-33538360D01*
X44055568Y-33538360D01*
X44055568Y-33438360D01*
X44555568Y-33438360D01*
G36*
X44355568Y-33838360D02*
X44355568Y-33938360D01*
X44255568Y-33938360D01*
X44255568Y-33838360D01*
X44355568Y-33838360D01*
G37*
X44355568Y-33838360D02*
X44355568Y-33938360D01*
X44255568Y-33938360D01*
X44255568Y-33838360D01*
X44355568Y-33838360D01*
G36*
X44555568Y-33438360D02*
X44555568Y-33738360D01*
X44455568Y-33738360D01*
X44455568Y-33438360D01*
X44555568Y-33438360D01*
G37*
X44555568Y-33438360D02*
X44555568Y-33738360D01*
X44455568Y-33738360D01*
X44455568Y-33438360D01*
X44555568Y-33438360D01*
D13*
X33274000Y-30099000D02*
X30734000Y-30099000D01*
X33274000Y-27559000D02*
X33274000Y-30099000D01*
X48514000Y-58039000D02*
X48514000Y-27559000D01*
X30734000Y-58039000D02*
X48514000Y-58039000D01*
X30734000Y-27559000D02*
X30734000Y-58039000D01*
D12*
G04 #@! TO.C,D11*
X93384000Y-43711000D02*
X93384000Y-45951000D01*
X93384000Y-45951000D02*
X97624000Y-45951000D01*
X97624000Y-45951000D02*
X97624000Y-43711000D01*
X97624000Y-43711000D02*
X93384000Y-43711000D01*
X92734000Y-44831000D02*
X93384000Y-44831000D01*
X98274000Y-44831000D02*
X97624000Y-44831000D01*
X94104000Y-43711000D02*
X94104000Y-45951000D01*
X94224000Y-43711000D02*
X94224000Y-45951000D01*
X93984000Y-43711000D02*
X93984000Y-45951000D01*
G04 #@! TO.C,D1*
X36869000Y-24915000D02*
X36869000Y-27155000D01*
X36869000Y-27155000D02*
X41109000Y-27155000D01*
X41109000Y-27155000D02*
X41109000Y-24915000D01*
X41109000Y-24915000D02*
X36869000Y-24915000D01*
X36219000Y-26035000D02*
X36869000Y-26035000D01*
X41759000Y-26035000D02*
X41109000Y-26035000D01*
X37589000Y-24915000D02*
X37589000Y-27155000D01*
X37709000Y-24915000D02*
X37709000Y-27155000D01*
X37469000Y-24915000D02*
X37469000Y-27155000D01*
G04 #@! TO.C,D2*
X37215000Y-43139500D02*
X37215000Y-45379500D01*
X37455000Y-43139500D02*
X37455000Y-45379500D01*
X37335000Y-43139500D02*
X37335000Y-45379500D01*
X41505000Y-44259500D02*
X40855000Y-44259500D01*
X35965000Y-44259500D02*
X36615000Y-44259500D01*
X40855000Y-43139500D02*
X36615000Y-43139500D01*
X40855000Y-45379500D02*
X40855000Y-43139500D01*
X36615000Y-45379500D02*
X40855000Y-45379500D01*
X36615000Y-43139500D02*
X36615000Y-45379500D01*
G04 #@! TO.C,D3*
X37215000Y-62507000D02*
X37215000Y-64747000D01*
X37455000Y-62507000D02*
X37455000Y-64747000D01*
X37335000Y-62507000D02*
X37335000Y-64747000D01*
X41505000Y-63627000D02*
X40855000Y-63627000D01*
X35965000Y-63627000D02*
X36615000Y-63627000D01*
X40855000Y-62507000D02*
X36615000Y-62507000D01*
X40855000Y-64747000D02*
X40855000Y-62507000D01*
X36615000Y-64747000D02*
X40855000Y-64747000D01*
X36615000Y-62507000D02*
X36615000Y-64747000D01*
G04 #@! TO.C,D4*
X55538000Y-24915000D02*
X55538000Y-27155000D01*
X55538000Y-27155000D02*
X59778000Y-27155000D01*
X59778000Y-27155000D02*
X59778000Y-24915000D01*
X59778000Y-24915000D02*
X55538000Y-24915000D01*
X54888000Y-26035000D02*
X55538000Y-26035000D01*
X60428000Y-26035000D02*
X59778000Y-26035000D01*
X56258000Y-24915000D02*
X56258000Y-27155000D01*
X56378000Y-24915000D02*
X56378000Y-27155000D01*
X56138000Y-24915000D02*
X56138000Y-27155000D01*
G04 #@! TO.C,D5*
X55538000Y-43711000D02*
X55538000Y-45951000D01*
X55538000Y-45951000D02*
X59778000Y-45951000D01*
X59778000Y-45951000D02*
X59778000Y-43711000D01*
X59778000Y-43711000D02*
X55538000Y-43711000D01*
X54888000Y-44831000D02*
X55538000Y-44831000D01*
X60428000Y-44831000D02*
X59778000Y-44831000D01*
X56258000Y-43711000D02*
X56258000Y-45951000D01*
X56378000Y-43711000D02*
X56378000Y-45951000D01*
X56138000Y-43711000D02*
X56138000Y-45951000D01*
G04 #@! TO.C,D6*
X55601500Y-62443500D02*
X55601500Y-64683500D01*
X55601500Y-64683500D02*
X59841500Y-64683500D01*
X59841500Y-64683500D02*
X59841500Y-62443500D01*
X59841500Y-62443500D02*
X55601500Y-62443500D01*
X54951500Y-63563500D02*
X55601500Y-63563500D01*
X60491500Y-63563500D02*
X59841500Y-63563500D01*
X56321500Y-62443500D02*
X56321500Y-64683500D01*
X56441500Y-62443500D02*
X56441500Y-64683500D01*
X56201500Y-62443500D02*
X56201500Y-64683500D01*
G04 #@! TO.C,D7*
X70778000Y-24724500D02*
X70778000Y-26964500D01*
X70778000Y-26964500D02*
X75018000Y-26964500D01*
X75018000Y-26964500D02*
X75018000Y-24724500D01*
X75018000Y-24724500D02*
X70778000Y-24724500D01*
X70128000Y-25844500D02*
X70778000Y-25844500D01*
X75668000Y-25844500D02*
X75018000Y-25844500D01*
X71498000Y-24724500D02*
X71498000Y-26964500D01*
X71618000Y-24724500D02*
X71618000Y-26964500D01*
X71378000Y-24724500D02*
X71378000Y-26964500D01*
G04 #@! TO.C,D8*
X75061000Y-43711000D02*
X75061000Y-45951000D01*
X75301000Y-43711000D02*
X75301000Y-45951000D01*
X75181000Y-43711000D02*
X75181000Y-45951000D01*
X79351000Y-44831000D02*
X78701000Y-44831000D01*
X73811000Y-44831000D02*
X74461000Y-44831000D01*
X78701000Y-43711000D02*
X74461000Y-43711000D01*
X78701000Y-45951000D02*
X78701000Y-43711000D01*
X74461000Y-45951000D02*
X78701000Y-45951000D01*
X74461000Y-43711000D02*
X74461000Y-45951000D01*
G04 #@! TO.C,D9*
X75061000Y-62507000D02*
X75061000Y-64747000D01*
X75301000Y-62507000D02*
X75301000Y-64747000D01*
X75181000Y-62507000D02*
X75181000Y-64747000D01*
X79351000Y-63627000D02*
X78701000Y-63627000D01*
X73811000Y-63627000D02*
X74461000Y-63627000D01*
X78701000Y-62507000D02*
X74461000Y-62507000D01*
X78701000Y-64747000D02*
X78701000Y-62507000D01*
X74461000Y-64747000D02*
X78701000Y-64747000D01*
X74461000Y-62507000D02*
X74461000Y-64747000D01*
G04 #@! TO.C,D10*
X91444000Y-23772000D02*
X91444000Y-26012000D01*
X91684000Y-23772000D02*
X91684000Y-26012000D01*
X91564000Y-23772000D02*
X91564000Y-26012000D01*
X95734000Y-24892000D02*
X95084000Y-24892000D01*
X90194000Y-24892000D02*
X90844000Y-24892000D01*
X95084000Y-23772000D02*
X90844000Y-23772000D01*
X95084000Y-26012000D02*
X95084000Y-23772000D01*
X90844000Y-26012000D02*
X95084000Y-26012000D01*
X90844000Y-23772000D02*
X90844000Y-26012000D01*
G04 #@! TO.C,D12*
X94047500Y-62507000D02*
X94047500Y-64747000D01*
X94287500Y-62507000D02*
X94287500Y-64747000D01*
X94167500Y-62507000D02*
X94167500Y-64747000D01*
X98337500Y-63627000D02*
X97687500Y-63627000D01*
X92797500Y-63627000D02*
X93447500Y-63627000D01*
X97687500Y-62507000D02*
X93447500Y-62507000D01*
X97687500Y-64747000D02*
X97687500Y-62507000D01*
X93447500Y-64747000D02*
X97687500Y-64747000D01*
X93447500Y-62507000D02*
X93447500Y-64747000D01*
G04 #@! TO.C,D13*
X37622500Y-23832000D02*
X30322500Y-23832000D01*
X37622500Y-18332000D02*
X30322500Y-18332000D01*
X30322500Y-18332000D02*
X30322500Y-19482000D01*
G04 #@! TO.C,D15*
X55783500Y-23832000D02*
X48483500Y-23832000D01*
X55783500Y-18332000D02*
X48483500Y-18332000D01*
X48483500Y-18332000D02*
X48483500Y-19482000D01*
G04 #@! TO.C,D16*
X57564000Y-18395500D02*
X57564000Y-19545500D01*
X64864000Y-18395500D02*
X57564000Y-18395500D01*
X64864000Y-23895500D02*
X57564000Y-23895500D01*
G04 #@! TO.C,D17*
X79215000Y-23895500D02*
X71915000Y-23895500D01*
X79215000Y-18395500D02*
X71915000Y-18395500D01*
X71915000Y-18395500D02*
X71915000Y-19545500D01*
G04 #@! TO.C,D18*
X80995500Y-18395500D02*
X80995500Y-19545500D01*
X88295500Y-18395500D02*
X80995500Y-18395500D01*
X88295500Y-23895500D02*
X80995500Y-23895500D01*
G04 #@! TO.C,D19*
X97630000Y-23895500D02*
X90330000Y-23895500D01*
X97630000Y-18395500D02*
X90330000Y-18395500D01*
X90330000Y-18395500D02*
X90330000Y-19545500D01*
G04 #@! TO.C,SW1*
D14*
X70634761Y-40443333D02*
X70682380Y-40300476D01*
X70682380Y-40062380D01*
X70634761Y-39967142D01*
X70587142Y-39919523D01*
X70491904Y-39871904D01*
X70396666Y-39871904D01*
X70301428Y-39919523D01*
X70253809Y-39967142D01*
X70206190Y-40062380D01*
X70158571Y-40252857D01*
X70110952Y-40348095D01*
X70063333Y-40395714D01*
X69968095Y-40443333D01*
X69872857Y-40443333D01*
X69777619Y-40395714D01*
X69730000Y-40348095D01*
X69682380Y-40252857D01*
X69682380Y-40014761D01*
X69730000Y-39871904D01*
X69682380Y-39538571D02*
X70682380Y-39300476D01*
X69968095Y-39110000D01*
X70682380Y-38919523D01*
X69682380Y-38681428D01*
X70682380Y-37776666D02*
X70682380Y-38348095D01*
X70682380Y-38062380D02*
X69682380Y-38062380D01*
X69825238Y-38157619D01*
X69920476Y-38252857D01*
X69968095Y-38348095D01*
G04 #@! TO.C,D14*
X41902214Y-25034380D02*
X41902214Y-24034380D01*
X42140309Y-24034380D01*
X42283166Y-24082000D01*
X42378404Y-24177238D01*
X42426023Y-24272476D01*
X42473642Y-24462952D01*
X42473642Y-24605809D01*
X42426023Y-24796285D01*
X42378404Y-24891523D01*
X42283166Y-24986761D01*
X42140309Y-25034380D01*
X41902214Y-25034380D01*
X43426023Y-25034380D02*
X42854595Y-25034380D01*
X43140309Y-25034380D02*
X43140309Y-24034380D01*
X43045071Y-24177238D01*
X42949833Y-24272476D01*
X42854595Y-24320095D01*
X44283166Y-24367714D02*
X44283166Y-25034380D01*
X44045071Y-23986761D02*
X43806976Y-24701047D01*
X44426023Y-24701047D01*
X47552214Y-23134380D02*
X46980785Y-23134380D01*
X47266500Y-23134380D02*
X47266500Y-22134380D01*
X47171261Y-22277238D01*
X47076023Y-22372476D01*
X46980785Y-22420095D01*
G04 #@! TO.C,SW14*
X89938761Y-40919523D02*
X89986380Y-40776666D01*
X89986380Y-40538571D01*
X89938761Y-40443333D01*
X89891142Y-40395714D01*
X89795904Y-40348095D01*
X89700666Y-40348095D01*
X89605428Y-40395714D01*
X89557809Y-40443333D01*
X89510190Y-40538571D01*
X89462571Y-40729047D01*
X89414952Y-40824285D01*
X89367333Y-40871904D01*
X89272095Y-40919523D01*
X89176857Y-40919523D01*
X89081619Y-40871904D01*
X89034000Y-40824285D01*
X88986380Y-40729047D01*
X88986380Y-40490952D01*
X89034000Y-40348095D01*
X88986380Y-40014761D02*
X89986380Y-39776666D01*
X89272095Y-39586190D01*
X89986380Y-39395714D01*
X88986380Y-39157619D01*
X89986380Y-38252857D02*
X89986380Y-38824285D01*
X89986380Y-38538571D02*
X88986380Y-38538571D01*
X89129238Y-38633809D01*
X89224476Y-38729047D01*
X89272095Y-38824285D01*
X89319714Y-37395714D02*
X89986380Y-37395714D01*
X88938761Y-37633809D02*
X89653047Y-37871904D01*
X89653047Y-37252857D01*
G04 #@! TO.C,U1*
X33861651Y-28390904D02*
X34318794Y-28390904D01*
X34090223Y-29190904D02*
X34090223Y-28390904D01*
X34509270Y-28390904D02*
X35042604Y-29190904D01*
X35042604Y-28390904D02*
X34509270Y-29190904D01*
X35499747Y-28390904D02*
X35575937Y-28390904D01*
X35652128Y-28429000D01*
X35690223Y-28467095D01*
X35728318Y-28543285D01*
X35766413Y-28695666D01*
X35766413Y-28886142D01*
X35728318Y-29038523D01*
X35690223Y-29114714D01*
X35652128Y-29152809D01*
X35575937Y-29190904D01*
X35499747Y-29190904D01*
X35423556Y-29152809D01*
X35385461Y-29114714D01*
X35347366Y-29038523D01*
X35309270Y-28886142D01*
X35309270Y-28695666D01*
X35347366Y-28543285D01*
X35385461Y-28467095D01*
X35423556Y-28429000D01*
X35499747Y-28390904D01*
X36680699Y-28352809D02*
X35994985Y-29381380D01*
X36947366Y-29190904D02*
X36947366Y-28390904D01*
X37137842Y-28390904D01*
X37252128Y-28429000D01*
X37328318Y-28505190D01*
X37366413Y-28581380D01*
X37404508Y-28733761D01*
X37404508Y-28848047D01*
X37366413Y-29000428D01*
X37328318Y-29076619D01*
X37252128Y-29152809D01*
X37137842Y-29190904D01*
X36947366Y-29190904D01*
X37671175Y-28390904D02*
X38166413Y-28390904D01*
X37899747Y-28695666D01*
X38014032Y-28695666D01*
X38090223Y-28733761D01*
X38128318Y-28771857D01*
X38166413Y-28848047D01*
X38166413Y-29038523D01*
X38128318Y-29114714D01*
X38090223Y-29152809D01*
X38014032Y-29190904D01*
X37785461Y-29190904D01*
X37709270Y-29152809D01*
X37671175Y-29114714D01*
X33572523Y-31730904D02*
X33572523Y-30930904D01*
X33763000Y-30930904D01*
X33877285Y-30969000D01*
X33953476Y-31045190D01*
X33991571Y-31121380D01*
X34029666Y-31273761D01*
X34029666Y-31388047D01*
X33991571Y-31540428D01*
X33953476Y-31616619D01*
X33877285Y-31692809D01*
X33763000Y-31730904D01*
X33572523Y-31730904D01*
X34334428Y-31007095D02*
X34372523Y-30969000D01*
X34448714Y-30930904D01*
X34639190Y-30930904D01*
X34715380Y-30969000D01*
X34753476Y-31007095D01*
X34791571Y-31083285D01*
X34791571Y-31159476D01*
X34753476Y-31273761D01*
X34296333Y-31730904D01*
X34791571Y-31730904D01*
X33572523Y-41890904D02*
X33572523Y-41090904D01*
X33763000Y-41090904D01*
X33877285Y-41129000D01*
X33953476Y-41205190D01*
X33991571Y-41281380D01*
X34029666Y-41433761D01*
X34029666Y-41548047D01*
X33991571Y-41700428D01*
X33953476Y-41776619D01*
X33877285Y-41852809D01*
X33763000Y-41890904D01*
X33572523Y-41890904D01*
X34524904Y-41090904D02*
X34601095Y-41090904D01*
X34677285Y-41129000D01*
X34715380Y-41167095D01*
X34753476Y-41243285D01*
X34791571Y-41395666D01*
X34791571Y-41586142D01*
X34753476Y-41738523D01*
X34715380Y-41814714D01*
X34677285Y-41852809D01*
X34601095Y-41890904D01*
X34524904Y-41890904D01*
X34448714Y-41852809D01*
X34410619Y-41814714D01*
X34372523Y-41738523D01*
X34334428Y-41586142D01*
X34334428Y-41395666D01*
X34372523Y-41243285D01*
X34410619Y-41167095D01*
X34448714Y-41129000D01*
X34524904Y-41090904D01*
X33572523Y-39350904D02*
X33572523Y-38550904D01*
X33763000Y-38550904D01*
X33877285Y-38589000D01*
X33953476Y-38665190D01*
X33991571Y-38741380D01*
X34029666Y-38893761D01*
X34029666Y-39008047D01*
X33991571Y-39160428D01*
X33953476Y-39236619D01*
X33877285Y-39312809D01*
X33763000Y-39350904D01*
X33572523Y-39350904D01*
X34791571Y-39350904D02*
X34334428Y-39350904D01*
X34563000Y-39350904D02*
X34563000Y-38550904D01*
X34486809Y-38665190D01*
X34410619Y-38741380D01*
X34334428Y-38779476D01*
X33553476Y-36049000D02*
X33477285Y-36010904D01*
X33363000Y-36010904D01*
X33248714Y-36049000D01*
X33172523Y-36125190D01*
X33134428Y-36201380D01*
X33096333Y-36353761D01*
X33096333Y-36468047D01*
X33134428Y-36620428D01*
X33172523Y-36696619D01*
X33248714Y-36772809D01*
X33363000Y-36810904D01*
X33439190Y-36810904D01*
X33553476Y-36772809D01*
X33591571Y-36734714D01*
X33591571Y-36468047D01*
X33439190Y-36468047D01*
X33934428Y-36810904D02*
X33934428Y-36010904D01*
X34391571Y-36810904D01*
X34391571Y-36010904D01*
X34772523Y-36810904D02*
X34772523Y-36010904D01*
X34963000Y-36010904D01*
X35077285Y-36049000D01*
X35153476Y-36125190D01*
X35191571Y-36201380D01*
X35229666Y-36353761D01*
X35229666Y-36468047D01*
X35191571Y-36620428D01*
X35153476Y-36696619D01*
X35077285Y-36772809D01*
X34963000Y-36810904D01*
X34772523Y-36810904D01*
X33553476Y-33509000D02*
X33477285Y-33470904D01*
X33363000Y-33470904D01*
X33248714Y-33509000D01*
X33172523Y-33585190D01*
X33134428Y-33661380D01*
X33096333Y-33813761D01*
X33096333Y-33928047D01*
X33134428Y-34080428D01*
X33172523Y-34156619D01*
X33248714Y-34232809D01*
X33363000Y-34270904D01*
X33439190Y-34270904D01*
X33553476Y-34232809D01*
X33591571Y-34194714D01*
X33591571Y-33928047D01*
X33439190Y-33928047D01*
X33934428Y-34270904D02*
X33934428Y-33470904D01*
X34391571Y-34270904D01*
X34391571Y-33470904D01*
X34772523Y-34270904D02*
X34772523Y-33470904D01*
X34963000Y-33470904D01*
X35077285Y-33509000D01*
X35153476Y-33585190D01*
X35191571Y-33661380D01*
X35229666Y-33813761D01*
X35229666Y-33928047D01*
X35191571Y-34080428D01*
X35153476Y-34156619D01*
X35077285Y-34232809D01*
X34963000Y-34270904D01*
X34772523Y-34270904D01*
X33572523Y-44430904D02*
X33572523Y-43630904D01*
X33763000Y-43630904D01*
X33877285Y-43669000D01*
X33953476Y-43745190D01*
X33991571Y-43821380D01*
X34029666Y-43973761D01*
X34029666Y-44088047D01*
X33991571Y-44240428D01*
X33953476Y-44316619D01*
X33877285Y-44392809D01*
X33763000Y-44430904D01*
X33572523Y-44430904D01*
X34715380Y-43897571D02*
X34715380Y-44430904D01*
X34524904Y-43592809D02*
X34334428Y-44164238D01*
X34829666Y-44164238D01*
X34029666Y-46894714D02*
X33991571Y-46932809D01*
X33877285Y-46970904D01*
X33801095Y-46970904D01*
X33686809Y-46932809D01*
X33610619Y-46856619D01*
X33572523Y-46780428D01*
X33534428Y-46628047D01*
X33534428Y-46513761D01*
X33572523Y-46361380D01*
X33610619Y-46285190D01*
X33686809Y-46209000D01*
X33801095Y-46170904D01*
X33877285Y-46170904D01*
X33991571Y-46209000D01*
X34029666Y-46247095D01*
X34715380Y-46170904D02*
X34563000Y-46170904D01*
X34486809Y-46209000D01*
X34448714Y-46247095D01*
X34372523Y-46361380D01*
X34334428Y-46513761D01*
X34334428Y-46818523D01*
X34372523Y-46894714D01*
X34410619Y-46932809D01*
X34486809Y-46970904D01*
X34639190Y-46970904D01*
X34715380Y-46932809D01*
X34753476Y-46894714D01*
X34791571Y-46818523D01*
X34791571Y-46628047D01*
X34753476Y-46551857D01*
X34715380Y-46513761D01*
X34639190Y-46475666D01*
X34486809Y-46475666D01*
X34410619Y-46513761D01*
X34372523Y-46551857D01*
X34334428Y-46628047D01*
X33572523Y-49510904D02*
X33572523Y-48710904D01*
X33763000Y-48710904D01*
X33877285Y-48749000D01*
X33953476Y-48825190D01*
X33991571Y-48901380D01*
X34029666Y-49053761D01*
X34029666Y-49168047D01*
X33991571Y-49320428D01*
X33953476Y-49396619D01*
X33877285Y-49472809D01*
X33763000Y-49510904D01*
X33572523Y-49510904D01*
X34296333Y-48710904D02*
X34829666Y-48710904D01*
X34486809Y-49510904D01*
X33610619Y-51631857D02*
X33877285Y-51631857D01*
X33991571Y-52050904D02*
X33610619Y-52050904D01*
X33610619Y-51250904D01*
X33991571Y-51250904D01*
X34677285Y-51250904D02*
X34524904Y-51250904D01*
X34448714Y-51289000D01*
X34410619Y-51327095D01*
X34334428Y-51441380D01*
X34296333Y-51593761D01*
X34296333Y-51898523D01*
X34334428Y-51974714D01*
X34372523Y-52012809D01*
X34448714Y-52050904D01*
X34601095Y-52050904D01*
X34677285Y-52012809D01*
X34715380Y-51974714D01*
X34753476Y-51898523D01*
X34753476Y-51708047D01*
X34715380Y-51631857D01*
X34677285Y-51593761D01*
X34601095Y-51555666D01*
X34448714Y-51555666D01*
X34372523Y-51593761D01*
X34334428Y-51631857D01*
X34296333Y-51708047D01*
X33839190Y-54171857D02*
X33953476Y-54209952D01*
X33991571Y-54248047D01*
X34029666Y-54324238D01*
X34029666Y-54438523D01*
X33991571Y-54514714D01*
X33953476Y-54552809D01*
X33877285Y-54590904D01*
X33572523Y-54590904D01*
X33572523Y-53790904D01*
X33839190Y-53790904D01*
X33915380Y-53829000D01*
X33953476Y-53867095D01*
X33991571Y-53943285D01*
X33991571Y-54019476D01*
X33953476Y-54095666D01*
X33915380Y-54133761D01*
X33839190Y-54171857D01*
X33572523Y-54171857D01*
X34715380Y-54057571D02*
X34715380Y-54590904D01*
X34524904Y-53752809D02*
X34334428Y-54324238D01*
X34829666Y-54324238D01*
X33839190Y-56711857D02*
X33953476Y-56749952D01*
X33991571Y-56788047D01*
X34029666Y-56864238D01*
X34029666Y-56978523D01*
X33991571Y-57054714D01*
X33953476Y-57092809D01*
X33877285Y-57130904D01*
X33572523Y-57130904D01*
X33572523Y-56330904D01*
X33839190Y-56330904D01*
X33915380Y-56369000D01*
X33953476Y-56407095D01*
X33991571Y-56483285D01*
X33991571Y-56559476D01*
X33953476Y-56635666D01*
X33915380Y-56673761D01*
X33839190Y-56711857D01*
X33572523Y-56711857D01*
X34753476Y-56330904D02*
X34372523Y-56330904D01*
X34334428Y-56711857D01*
X34372523Y-56673761D01*
X34448714Y-56635666D01*
X34639190Y-56635666D01*
X34715380Y-56673761D01*
X34753476Y-56711857D01*
X34791571Y-56788047D01*
X34791571Y-56978523D01*
X34753476Y-57054714D01*
X34715380Y-57092809D01*
X34639190Y-57130904D01*
X34448714Y-57130904D01*
X34372523Y-57092809D01*
X34334428Y-57054714D01*
X44761190Y-56711857D02*
X44875476Y-56749952D01*
X44913571Y-56788047D01*
X44951666Y-56864238D01*
X44951666Y-56978523D01*
X44913571Y-57054714D01*
X44875476Y-57092809D01*
X44799285Y-57130904D01*
X44494523Y-57130904D01*
X44494523Y-56330904D01*
X44761190Y-56330904D01*
X44837380Y-56369000D01*
X44875476Y-56407095D01*
X44913571Y-56483285D01*
X44913571Y-56559476D01*
X44875476Y-56635666D01*
X44837380Y-56673761D01*
X44761190Y-56711857D01*
X44494523Y-56711857D01*
X45637380Y-56330904D02*
X45485000Y-56330904D01*
X45408809Y-56369000D01*
X45370714Y-56407095D01*
X45294523Y-56521380D01*
X45256428Y-56673761D01*
X45256428Y-56978523D01*
X45294523Y-57054714D01*
X45332619Y-57092809D01*
X45408809Y-57130904D01*
X45561190Y-57130904D01*
X45637380Y-57092809D01*
X45675476Y-57054714D01*
X45713571Y-56978523D01*
X45713571Y-56788047D01*
X45675476Y-56711857D01*
X45637380Y-56673761D01*
X45561190Y-56635666D01*
X45408809Y-56635666D01*
X45332619Y-56673761D01*
X45294523Y-56711857D01*
X45256428Y-56788047D01*
X44761190Y-51631857D02*
X44875476Y-51669952D01*
X44913571Y-51708047D01*
X44951666Y-51784238D01*
X44951666Y-51898523D01*
X44913571Y-51974714D01*
X44875476Y-52012809D01*
X44799285Y-52050904D01*
X44494523Y-52050904D01*
X44494523Y-51250904D01*
X44761190Y-51250904D01*
X44837380Y-51289000D01*
X44875476Y-51327095D01*
X44913571Y-51403285D01*
X44913571Y-51479476D01*
X44875476Y-51555666D01*
X44837380Y-51593761D01*
X44761190Y-51631857D01*
X44494523Y-51631857D01*
X45218333Y-51250904D02*
X45713571Y-51250904D01*
X45446904Y-51555666D01*
X45561190Y-51555666D01*
X45637380Y-51593761D01*
X45675476Y-51631857D01*
X45713571Y-51708047D01*
X45713571Y-51898523D01*
X45675476Y-51974714D01*
X45637380Y-52012809D01*
X45561190Y-52050904D01*
X45332619Y-52050904D01*
X45256428Y-52012809D01*
X45218333Y-51974714D01*
X44761190Y-49091857D02*
X44875476Y-49129952D01*
X44913571Y-49168047D01*
X44951666Y-49244238D01*
X44951666Y-49358523D01*
X44913571Y-49434714D01*
X44875476Y-49472809D01*
X44799285Y-49510904D01*
X44494523Y-49510904D01*
X44494523Y-48710904D01*
X44761190Y-48710904D01*
X44837380Y-48749000D01*
X44875476Y-48787095D01*
X44913571Y-48863285D01*
X44913571Y-48939476D01*
X44875476Y-49015666D01*
X44837380Y-49053761D01*
X44761190Y-49091857D01*
X44494523Y-49091857D01*
X45713571Y-49510904D02*
X45256428Y-49510904D01*
X45485000Y-49510904D02*
X45485000Y-48710904D01*
X45408809Y-48825190D01*
X45332619Y-48901380D01*
X45256428Y-48939476D01*
X44818333Y-38931857D02*
X44551666Y-38931857D01*
X44551666Y-39350904D02*
X44551666Y-38550904D01*
X44932619Y-38550904D01*
X45580238Y-38817571D02*
X45580238Y-39350904D01*
X45389761Y-38512809D02*
X45199285Y-39084238D01*
X45694523Y-39084238D01*
X44018333Y-36010904D02*
X44285000Y-36810904D01*
X44551666Y-36010904D01*
X45275476Y-36734714D02*
X45237380Y-36772809D01*
X45123095Y-36810904D01*
X45046904Y-36810904D01*
X44932619Y-36772809D01*
X44856428Y-36696619D01*
X44818333Y-36620428D01*
X44780238Y-36468047D01*
X44780238Y-36353761D01*
X44818333Y-36201380D01*
X44856428Y-36125190D01*
X44932619Y-36049000D01*
X45046904Y-36010904D01*
X45123095Y-36010904D01*
X45237380Y-36049000D01*
X45275476Y-36087095D01*
X46075476Y-36734714D02*
X46037380Y-36772809D01*
X45923095Y-36810904D01*
X45846904Y-36810904D01*
X45732619Y-36772809D01*
X45656428Y-36696619D01*
X45618333Y-36620428D01*
X45580238Y-36468047D01*
X45580238Y-36353761D01*
X45618333Y-36201380D01*
X45656428Y-36125190D01*
X45732619Y-36049000D01*
X45846904Y-36010904D01*
X45923095Y-36010904D01*
X46037380Y-36049000D01*
X46075476Y-36087095D01*
X44823786Y-34202809D02*
X44938072Y-34240904D01*
X45128548Y-34240904D01*
X45204739Y-34202809D01*
X45242834Y-34164714D01*
X45280929Y-34088523D01*
X45280929Y-34012333D01*
X45242834Y-33936142D01*
X45204739Y-33898047D01*
X45128548Y-33859952D01*
X44976167Y-33821857D01*
X44899977Y-33783761D01*
X44861881Y-33745666D01*
X44823786Y-33669476D01*
X44823786Y-33593285D01*
X44861881Y-33517095D01*
X44899977Y-33479000D01*
X44976167Y-33440904D01*
X45166643Y-33440904D01*
X45280929Y-33479000D01*
X45509500Y-33440904D02*
X45966643Y-33440904D01*
X45738072Y-34240904D02*
X45738072Y-33440904D01*
X44475476Y-30969000D02*
X44399285Y-30930904D01*
X44285000Y-30930904D01*
X44170714Y-30969000D01*
X44094523Y-31045190D01*
X44056428Y-31121380D01*
X44018333Y-31273761D01*
X44018333Y-31388047D01*
X44056428Y-31540428D01*
X44094523Y-31616619D01*
X44170714Y-31692809D01*
X44285000Y-31730904D01*
X44361190Y-31730904D01*
X44475476Y-31692809D01*
X44513571Y-31654714D01*
X44513571Y-31388047D01*
X44361190Y-31388047D01*
X44856428Y-31730904D02*
X44856428Y-30930904D01*
X45313571Y-31730904D01*
X45313571Y-30930904D01*
X45694523Y-31730904D02*
X45694523Y-30930904D01*
X45885000Y-30930904D01*
X45999285Y-30969000D01*
X46075476Y-31045190D01*
X46113571Y-31121380D01*
X46151666Y-31273761D01*
X46151666Y-31388047D01*
X46113571Y-31540428D01*
X46075476Y-31616619D01*
X45999285Y-31692809D01*
X45885000Y-31730904D01*
X45694523Y-31730904D01*
X44532619Y-29190904D02*
X44265952Y-28809952D01*
X44075476Y-29190904D02*
X44075476Y-28390904D01*
X44380238Y-28390904D01*
X44456428Y-28429000D01*
X44494523Y-28467095D01*
X44532619Y-28543285D01*
X44532619Y-28657571D01*
X44494523Y-28733761D01*
X44456428Y-28771857D01*
X44380238Y-28809952D01*
X44075476Y-28809952D01*
X44837380Y-28962333D02*
X45218333Y-28962333D01*
X44761190Y-29190904D02*
X45027857Y-28390904D01*
X45294523Y-29190904D01*
X45485000Y-28390904D02*
X45675476Y-29190904D01*
X45827857Y-28619476D01*
X45980238Y-29190904D01*
X46170714Y-28390904D01*
X44818333Y-41471857D02*
X44551666Y-41471857D01*
X44551666Y-41890904D02*
X44551666Y-41090904D01*
X44932619Y-41090904D01*
X45618333Y-41090904D02*
X45237380Y-41090904D01*
X45199285Y-41471857D01*
X45237380Y-41433761D01*
X45313571Y-41395666D01*
X45504047Y-41395666D01*
X45580238Y-41433761D01*
X45618333Y-41471857D01*
X45656428Y-41548047D01*
X45656428Y-41738523D01*
X45618333Y-41814714D01*
X45580238Y-41852809D01*
X45504047Y-41890904D01*
X45313571Y-41890904D01*
X45237380Y-41852809D01*
X45199285Y-41814714D01*
X44818333Y-44011857D02*
X44551666Y-44011857D01*
X44551666Y-44430904D02*
X44551666Y-43630904D01*
X44932619Y-43630904D01*
X45580238Y-43630904D02*
X45427857Y-43630904D01*
X45351666Y-43669000D01*
X45313571Y-43707095D01*
X45237380Y-43821380D01*
X45199285Y-43973761D01*
X45199285Y-44278523D01*
X45237380Y-44354714D01*
X45275476Y-44392809D01*
X45351666Y-44430904D01*
X45504047Y-44430904D01*
X45580238Y-44392809D01*
X45618333Y-44354714D01*
X45656428Y-44278523D01*
X45656428Y-44088047D01*
X45618333Y-44011857D01*
X45580238Y-43973761D01*
X45504047Y-43935666D01*
X45351666Y-43935666D01*
X45275476Y-43973761D01*
X45237380Y-44011857D01*
X45199285Y-44088047D01*
X44818333Y-46551857D02*
X44551666Y-46551857D01*
X44551666Y-46970904D02*
X44551666Y-46170904D01*
X44932619Y-46170904D01*
X45161190Y-46170904D02*
X45694523Y-46170904D01*
X45351666Y-46970904D01*
X44761190Y-54171857D02*
X44875476Y-54209952D01*
X44913571Y-54248047D01*
X44951666Y-54324238D01*
X44951666Y-54438523D01*
X44913571Y-54514714D01*
X44875476Y-54552809D01*
X44799285Y-54590904D01*
X44494523Y-54590904D01*
X44494523Y-53790904D01*
X44761190Y-53790904D01*
X44837380Y-53829000D01*
X44875476Y-53867095D01*
X44913571Y-53943285D01*
X44913571Y-54019476D01*
X44875476Y-54095666D01*
X44837380Y-54133761D01*
X44761190Y-54171857D01*
X44494523Y-54171857D01*
X45256428Y-53867095D02*
X45294523Y-53829000D01*
X45370714Y-53790904D01*
X45561190Y-53790904D01*
X45637380Y-53829000D01*
X45675476Y-53867095D01*
X45713571Y-53943285D01*
X45713571Y-54019476D01*
X45675476Y-54133761D01*
X45218333Y-54590904D01*
X45713571Y-54590904D01*
G04 #@! TO.C,D11*
X94289714Y-43163380D02*
X94289714Y-42163380D01*
X94527809Y-42163380D01*
X94670666Y-42211000D01*
X94765904Y-42306238D01*
X94813523Y-42401476D01*
X94861142Y-42591952D01*
X94861142Y-42734809D01*
X94813523Y-42925285D01*
X94765904Y-43020523D01*
X94670666Y-43115761D01*
X94527809Y-43163380D01*
X94289714Y-43163380D01*
X95813523Y-43163380D02*
X95242095Y-43163380D01*
X95527809Y-43163380D02*
X95527809Y-42163380D01*
X95432571Y-42306238D01*
X95337333Y-42401476D01*
X95242095Y-42449095D01*
X96765904Y-43163380D02*
X96194476Y-43163380D01*
X96480190Y-43163380D02*
X96480190Y-42163380D01*
X96384952Y-42306238D01*
X96289714Y-42401476D01*
X96194476Y-42449095D01*
X91432095Y-43483380D02*
X91432095Y-42483380D01*
X92003523Y-43483380D02*
X91574952Y-42911952D01*
X92003523Y-42483380D02*
X91432095Y-43054809D01*
G04 #@! TO.C,D1*
X38250904Y-24367380D02*
X38250904Y-23367380D01*
X38489000Y-23367380D01*
X38631857Y-23415000D01*
X38727095Y-23510238D01*
X38774714Y-23605476D01*
X38822333Y-23795952D01*
X38822333Y-23938809D01*
X38774714Y-24129285D01*
X38727095Y-24224523D01*
X38631857Y-24319761D01*
X38489000Y-24367380D01*
X38250904Y-24367380D01*
X39774714Y-24367380D02*
X39203285Y-24367380D01*
X39489000Y-24367380D02*
X39489000Y-23367380D01*
X39393761Y-23510238D01*
X39298523Y-23605476D01*
X39203285Y-23653095D01*
X34917095Y-24687380D02*
X34917095Y-23687380D01*
X35488523Y-24687380D02*
X35059952Y-24115952D01*
X35488523Y-23687380D02*
X34917095Y-24258809D01*
G04 #@! TO.C,D2*
X37996904Y-42591880D02*
X37996904Y-41591880D01*
X38235000Y-41591880D01*
X38377857Y-41639500D01*
X38473095Y-41734738D01*
X38520714Y-41829976D01*
X38568333Y-42020452D01*
X38568333Y-42163309D01*
X38520714Y-42353785D01*
X38473095Y-42449023D01*
X38377857Y-42544261D01*
X38235000Y-42591880D01*
X37996904Y-42591880D01*
X38949285Y-41687119D02*
X38996904Y-41639500D01*
X39092142Y-41591880D01*
X39330238Y-41591880D01*
X39425476Y-41639500D01*
X39473095Y-41687119D01*
X39520714Y-41782357D01*
X39520714Y-41877595D01*
X39473095Y-42020452D01*
X38901666Y-42591880D01*
X39520714Y-42591880D01*
X34663095Y-42911880D02*
X34663095Y-41911880D01*
X35234523Y-42911880D02*
X34805952Y-42340452D01*
X35234523Y-41911880D02*
X34663095Y-42483309D01*
G04 #@! TO.C,D3*
X37996904Y-61959380D02*
X37996904Y-60959380D01*
X38235000Y-60959380D01*
X38377857Y-61007000D01*
X38473095Y-61102238D01*
X38520714Y-61197476D01*
X38568333Y-61387952D01*
X38568333Y-61530809D01*
X38520714Y-61721285D01*
X38473095Y-61816523D01*
X38377857Y-61911761D01*
X38235000Y-61959380D01*
X37996904Y-61959380D01*
X38901666Y-60959380D02*
X39520714Y-60959380D01*
X39187380Y-61340333D01*
X39330238Y-61340333D01*
X39425476Y-61387952D01*
X39473095Y-61435571D01*
X39520714Y-61530809D01*
X39520714Y-61768904D01*
X39473095Y-61864142D01*
X39425476Y-61911761D01*
X39330238Y-61959380D01*
X39044523Y-61959380D01*
X38949285Y-61911761D01*
X38901666Y-61864142D01*
X34663095Y-62279380D02*
X34663095Y-61279380D01*
X35234523Y-62279380D02*
X34805952Y-61707952D01*
X35234523Y-61279380D02*
X34663095Y-61850809D01*
G04 #@! TO.C,D4*
X56919904Y-24367380D02*
X56919904Y-23367380D01*
X57158000Y-23367380D01*
X57300857Y-23415000D01*
X57396095Y-23510238D01*
X57443714Y-23605476D01*
X57491333Y-23795952D01*
X57491333Y-23938809D01*
X57443714Y-24129285D01*
X57396095Y-24224523D01*
X57300857Y-24319761D01*
X57158000Y-24367380D01*
X56919904Y-24367380D01*
X58348476Y-23700714D02*
X58348476Y-24367380D01*
X58110380Y-23319761D02*
X57872285Y-24034047D01*
X58491333Y-24034047D01*
X53586095Y-24687380D02*
X53586095Y-23687380D01*
X54157523Y-24687380D02*
X53728952Y-24115952D01*
X54157523Y-23687380D02*
X53586095Y-24258809D01*
G04 #@! TO.C,D5*
X56919904Y-43163380D02*
X56919904Y-42163380D01*
X57158000Y-42163380D01*
X57300857Y-42211000D01*
X57396095Y-42306238D01*
X57443714Y-42401476D01*
X57491333Y-42591952D01*
X57491333Y-42734809D01*
X57443714Y-42925285D01*
X57396095Y-43020523D01*
X57300857Y-43115761D01*
X57158000Y-43163380D01*
X56919904Y-43163380D01*
X58396095Y-42163380D02*
X57919904Y-42163380D01*
X57872285Y-42639571D01*
X57919904Y-42591952D01*
X58015142Y-42544333D01*
X58253238Y-42544333D01*
X58348476Y-42591952D01*
X58396095Y-42639571D01*
X58443714Y-42734809D01*
X58443714Y-42972904D01*
X58396095Y-43068142D01*
X58348476Y-43115761D01*
X58253238Y-43163380D01*
X58015142Y-43163380D01*
X57919904Y-43115761D01*
X57872285Y-43068142D01*
X53586095Y-43483380D02*
X53586095Y-42483380D01*
X54157523Y-43483380D02*
X53728952Y-42911952D01*
X54157523Y-42483380D02*
X53586095Y-43054809D01*
G04 #@! TO.C,D6*
X56983404Y-61895880D02*
X56983404Y-60895880D01*
X57221500Y-60895880D01*
X57364357Y-60943500D01*
X57459595Y-61038738D01*
X57507214Y-61133976D01*
X57554833Y-61324452D01*
X57554833Y-61467309D01*
X57507214Y-61657785D01*
X57459595Y-61753023D01*
X57364357Y-61848261D01*
X57221500Y-61895880D01*
X56983404Y-61895880D01*
X58411976Y-60895880D02*
X58221500Y-60895880D01*
X58126261Y-60943500D01*
X58078642Y-60991119D01*
X57983404Y-61133976D01*
X57935785Y-61324452D01*
X57935785Y-61705404D01*
X57983404Y-61800642D01*
X58031023Y-61848261D01*
X58126261Y-61895880D01*
X58316738Y-61895880D01*
X58411976Y-61848261D01*
X58459595Y-61800642D01*
X58507214Y-61705404D01*
X58507214Y-61467309D01*
X58459595Y-61372071D01*
X58411976Y-61324452D01*
X58316738Y-61276833D01*
X58126261Y-61276833D01*
X58031023Y-61324452D01*
X57983404Y-61372071D01*
X57935785Y-61467309D01*
X53649595Y-62215880D02*
X53649595Y-61215880D01*
X54221023Y-62215880D02*
X53792452Y-61644452D01*
X54221023Y-61215880D02*
X53649595Y-61787309D01*
G04 #@! TO.C,D7*
X72159904Y-24176880D02*
X72159904Y-23176880D01*
X72398000Y-23176880D01*
X72540857Y-23224500D01*
X72636095Y-23319738D01*
X72683714Y-23414976D01*
X72731333Y-23605452D01*
X72731333Y-23748309D01*
X72683714Y-23938785D01*
X72636095Y-24034023D01*
X72540857Y-24129261D01*
X72398000Y-24176880D01*
X72159904Y-24176880D01*
X73064666Y-23176880D02*
X73731333Y-23176880D01*
X73302761Y-24176880D01*
X68826095Y-24496880D02*
X68826095Y-23496880D01*
X69397523Y-24496880D02*
X68968952Y-23925452D01*
X69397523Y-23496880D02*
X68826095Y-24068309D01*
G04 #@! TO.C,D8*
X75842904Y-43163380D02*
X75842904Y-42163380D01*
X76081000Y-42163380D01*
X76223857Y-42211000D01*
X76319095Y-42306238D01*
X76366714Y-42401476D01*
X76414333Y-42591952D01*
X76414333Y-42734809D01*
X76366714Y-42925285D01*
X76319095Y-43020523D01*
X76223857Y-43115761D01*
X76081000Y-43163380D01*
X75842904Y-43163380D01*
X76985761Y-42591952D02*
X76890523Y-42544333D01*
X76842904Y-42496714D01*
X76795285Y-42401476D01*
X76795285Y-42353857D01*
X76842904Y-42258619D01*
X76890523Y-42211000D01*
X76985761Y-42163380D01*
X77176238Y-42163380D01*
X77271476Y-42211000D01*
X77319095Y-42258619D01*
X77366714Y-42353857D01*
X77366714Y-42401476D01*
X77319095Y-42496714D01*
X77271476Y-42544333D01*
X77176238Y-42591952D01*
X76985761Y-42591952D01*
X76890523Y-42639571D01*
X76842904Y-42687190D01*
X76795285Y-42782428D01*
X76795285Y-42972904D01*
X76842904Y-43068142D01*
X76890523Y-43115761D01*
X76985761Y-43163380D01*
X77176238Y-43163380D01*
X77271476Y-43115761D01*
X77319095Y-43068142D01*
X77366714Y-42972904D01*
X77366714Y-42782428D01*
X77319095Y-42687190D01*
X77271476Y-42639571D01*
X77176238Y-42591952D01*
X72509095Y-43483380D02*
X72509095Y-42483380D01*
X73080523Y-43483380D02*
X72651952Y-42911952D01*
X73080523Y-42483380D02*
X72509095Y-43054809D01*
G04 #@! TO.C,D9*
X75842904Y-61959380D02*
X75842904Y-60959380D01*
X76081000Y-60959380D01*
X76223857Y-61007000D01*
X76319095Y-61102238D01*
X76366714Y-61197476D01*
X76414333Y-61387952D01*
X76414333Y-61530809D01*
X76366714Y-61721285D01*
X76319095Y-61816523D01*
X76223857Y-61911761D01*
X76081000Y-61959380D01*
X75842904Y-61959380D01*
X76890523Y-61959380D02*
X77081000Y-61959380D01*
X77176238Y-61911761D01*
X77223857Y-61864142D01*
X77319095Y-61721285D01*
X77366714Y-61530809D01*
X77366714Y-61149857D01*
X77319095Y-61054619D01*
X77271476Y-61007000D01*
X77176238Y-60959380D01*
X76985761Y-60959380D01*
X76890523Y-61007000D01*
X76842904Y-61054619D01*
X76795285Y-61149857D01*
X76795285Y-61387952D01*
X76842904Y-61483190D01*
X76890523Y-61530809D01*
X76985761Y-61578428D01*
X77176238Y-61578428D01*
X77271476Y-61530809D01*
X77319095Y-61483190D01*
X77366714Y-61387952D01*
X72509095Y-62279380D02*
X72509095Y-61279380D01*
X73080523Y-62279380D02*
X72651952Y-61707952D01*
X73080523Y-61279380D02*
X72509095Y-61850809D01*
G04 #@! TO.C,D10*
X91749714Y-23224380D02*
X91749714Y-22224380D01*
X91987809Y-22224380D01*
X92130666Y-22272000D01*
X92225904Y-22367238D01*
X92273523Y-22462476D01*
X92321142Y-22652952D01*
X92321142Y-22795809D01*
X92273523Y-22986285D01*
X92225904Y-23081523D01*
X92130666Y-23176761D01*
X91987809Y-23224380D01*
X91749714Y-23224380D01*
X93273523Y-23224380D02*
X92702095Y-23224380D01*
X92987809Y-23224380D02*
X92987809Y-22224380D01*
X92892571Y-22367238D01*
X92797333Y-22462476D01*
X92702095Y-22510095D01*
X93892571Y-22224380D02*
X93987809Y-22224380D01*
X94083047Y-22272000D01*
X94130666Y-22319619D01*
X94178285Y-22414857D01*
X94225904Y-22605333D01*
X94225904Y-22843428D01*
X94178285Y-23033904D01*
X94130666Y-23129142D01*
X94083047Y-23176761D01*
X93987809Y-23224380D01*
X93892571Y-23224380D01*
X93797333Y-23176761D01*
X93749714Y-23129142D01*
X93702095Y-23033904D01*
X93654476Y-22843428D01*
X93654476Y-22605333D01*
X93702095Y-22414857D01*
X93749714Y-22319619D01*
X93797333Y-22272000D01*
X93892571Y-22224380D01*
X88892095Y-23544380D02*
X88892095Y-22544380D01*
X89463523Y-23544380D02*
X89034952Y-22972952D01*
X89463523Y-22544380D02*
X88892095Y-23115809D01*
G04 #@! TO.C,D12*
X94353214Y-61959380D02*
X94353214Y-60959380D01*
X94591309Y-60959380D01*
X94734166Y-61007000D01*
X94829404Y-61102238D01*
X94877023Y-61197476D01*
X94924642Y-61387952D01*
X94924642Y-61530809D01*
X94877023Y-61721285D01*
X94829404Y-61816523D01*
X94734166Y-61911761D01*
X94591309Y-61959380D01*
X94353214Y-61959380D01*
X95877023Y-61959380D02*
X95305595Y-61959380D01*
X95591309Y-61959380D02*
X95591309Y-60959380D01*
X95496071Y-61102238D01*
X95400833Y-61197476D01*
X95305595Y-61245095D01*
X96257976Y-61054619D02*
X96305595Y-61007000D01*
X96400833Y-60959380D01*
X96638928Y-60959380D01*
X96734166Y-61007000D01*
X96781785Y-61054619D01*
X96829404Y-61149857D01*
X96829404Y-61245095D01*
X96781785Y-61387952D01*
X96210357Y-61959380D01*
X96829404Y-61959380D01*
X91495595Y-62279380D02*
X91495595Y-61279380D01*
X92067023Y-62279380D02*
X91638452Y-61707952D01*
X92067023Y-61279380D02*
X91495595Y-61850809D01*
G04 #@! TO.C,D13*
X32758214Y-25034380D02*
X32758214Y-24034380D01*
X32996309Y-24034380D01*
X33139166Y-24082000D01*
X33234404Y-24177238D01*
X33282023Y-24272476D01*
X33329642Y-24462952D01*
X33329642Y-24605809D01*
X33282023Y-24796285D01*
X33234404Y-24891523D01*
X33139166Y-24986761D01*
X32996309Y-25034380D01*
X32758214Y-25034380D01*
X34282023Y-25034380D02*
X33710595Y-25034380D01*
X33996309Y-25034380D02*
X33996309Y-24034380D01*
X33901071Y-24177238D01*
X33805833Y-24272476D01*
X33710595Y-24320095D01*
X34615357Y-24034380D02*
X35234404Y-24034380D01*
X34901071Y-24415333D01*
X35043928Y-24415333D01*
X35139166Y-24462952D01*
X35186785Y-24510571D01*
X35234404Y-24605809D01*
X35234404Y-24843904D01*
X35186785Y-24939142D01*
X35139166Y-24986761D01*
X35043928Y-25034380D01*
X34758214Y-25034380D01*
X34662976Y-24986761D01*
X34615357Y-24939142D01*
X38408214Y-23134380D02*
X37836785Y-23134380D01*
X38122500Y-23134380D02*
X38122500Y-22134380D01*
X38027261Y-22277238D01*
X37932023Y-22372476D01*
X37836785Y-22420095D01*
G04 #@! TO.C,D15*
X50919214Y-25034380D02*
X50919214Y-24034380D01*
X51157309Y-24034380D01*
X51300166Y-24082000D01*
X51395404Y-24177238D01*
X51443023Y-24272476D01*
X51490642Y-24462952D01*
X51490642Y-24605809D01*
X51443023Y-24796285D01*
X51395404Y-24891523D01*
X51300166Y-24986761D01*
X51157309Y-25034380D01*
X50919214Y-25034380D01*
X52443023Y-25034380D02*
X51871595Y-25034380D01*
X52157309Y-25034380D02*
X52157309Y-24034380D01*
X52062071Y-24177238D01*
X51966833Y-24272476D01*
X51871595Y-24320095D01*
X53347785Y-24034380D02*
X52871595Y-24034380D01*
X52823976Y-24510571D01*
X52871595Y-24462952D01*
X52966833Y-24415333D01*
X53204928Y-24415333D01*
X53300166Y-24462952D01*
X53347785Y-24510571D01*
X53395404Y-24605809D01*
X53395404Y-24843904D01*
X53347785Y-24939142D01*
X53300166Y-24986761D01*
X53204928Y-25034380D01*
X52966833Y-25034380D01*
X52871595Y-24986761D01*
X52823976Y-24939142D01*
X56569214Y-23134380D02*
X55997785Y-23134380D01*
X56283500Y-23134380D02*
X56283500Y-22134380D01*
X56188261Y-22277238D01*
X56093023Y-22372476D01*
X55997785Y-22420095D01*
G04 #@! TO.C,D16*
X59999714Y-25097880D02*
X59999714Y-24097880D01*
X60237809Y-24097880D01*
X60380666Y-24145500D01*
X60475904Y-24240738D01*
X60523523Y-24335976D01*
X60571142Y-24526452D01*
X60571142Y-24669309D01*
X60523523Y-24859785D01*
X60475904Y-24955023D01*
X60380666Y-25050261D01*
X60237809Y-25097880D01*
X59999714Y-25097880D01*
X61523523Y-25097880D02*
X60952095Y-25097880D01*
X61237809Y-25097880D02*
X61237809Y-24097880D01*
X61142571Y-24240738D01*
X61047333Y-24335976D01*
X60952095Y-24383595D01*
X62380666Y-24097880D02*
X62190190Y-24097880D01*
X62094952Y-24145500D01*
X62047333Y-24193119D01*
X61952095Y-24335976D01*
X61904476Y-24526452D01*
X61904476Y-24907404D01*
X61952095Y-25002642D01*
X61999714Y-25050261D01*
X62094952Y-25097880D01*
X62285428Y-25097880D01*
X62380666Y-25050261D01*
X62428285Y-25002642D01*
X62475904Y-24907404D01*
X62475904Y-24669309D01*
X62428285Y-24574071D01*
X62380666Y-24526452D01*
X62285428Y-24478833D01*
X62094952Y-24478833D01*
X61999714Y-24526452D01*
X61952095Y-24574071D01*
X61904476Y-24669309D01*
X65649714Y-23197880D02*
X65078285Y-23197880D01*
X65364000Y-23197880D02*
X65364000Y-22197880D01*
X65268761Y-22340738D01*
X65173523Y-22435976D01*
X65078285Y-22483595D01*
G04 #@! TO.C,D17*
X74350714Y-25097880D02*
X74350714Y-24097880D01*
X74588809Y-24097880D01*
X74731666Y-24145500D01*
X74826904Y-24240738D01*
X74874523Y-24335976D01*
X74922142Y-24526452D01*
X74922142Y-24669309D01*
X74874523Y-24859785D01*
X74826904Y-24955023D01*
X74731666Y-25050261D01*
X74588809Y-25097880D01*
X74350714Y-25097880D01*
X75874523Y-25097880D02*
X75303095Y-25097880D01*
X75588809Y-25097880D02*
X75588809Y-24097880D01*
X75493571Y-24240738D01*
X75398333Y-24335976D01*
X75303095Y-24383595D01*
X76207857Y-24097880D02*
X76874523Y-24097880D01*
X76445952Y-25097880D01*
X80000714Y-23197880D02*
X79429285Y-23197880D01*
X79715000Y-23197880D02*
X79715000Y-22197880D01*
X79619761Y-22340738D01*
X79524523Y-22435976D01*
X79429285Y-22483595D01*
G04 #@! TO.C,D18*
X83431214Y-25097880D02*
X83431214Y-24097880D01*
X83669309Y-24097880D01*
X83812166Y-24145500D01*
X83907404Y-24240738D01*
X83955023Y-24335976D01*
X84002642Y-24526452D01*
X84002642Y-24669309D01*
X83955023Y-24859785D01*
X83907404Y-24955023D01*
X83812166Y-25050261D01*
X83669309Y-25097880D01*
X83431214Y-25097880D01*
X84955023Y-25097880D02*
X84383595Y-25097880D01*
X84669309Y-25097880D02*
X84669309Y-24097880D01*
X84574071Y-24240738D01*
X84478833Y-24335976D01*
X84383595Y-24383595D01*
X85526452Y-24526452D02*
X85431214Y-24478833D01*
X85383595Y-24431214D01*
X85335976Y-24335976D01*
X85335976Y-24288357D01*
X85383595Y-24193119D01*
X85431214Y-24145500D01*
X85526452Y-24097880D01*
X85716928Y-24097880D01*
X85812166Y-24145500D01*
X85859785Y-24193119D01*
X85907404Y-24288357D01*
X85907404Y-24335976D01*
X85859785Y-24431214D01*
X85812166Y-24478833D01*
X85716928Y-24526452D01*
X85526452Y-24526452D01*
X85431214Y-24574071D01*
X85383595Y-24621690D01*
X85335976Y-24716928D01*
X85335976Y-24907404D01*
X85383595Y-25002642D01*
X85431214Y-25050261D01*
X85526452Y-25097880D01*
X85716928Y-25097880D01*
X85812166Y-25050261D01*
X85859785Y-25002642D01*
X85907404Y-24907404D01*
X85907404Y-24716928D01*
X85859785Y-24621690D01*
X85812166Y-24574071D01*
X85716928Y-24526452D01*
X89081214Y-23197880D02*
X88509785Y-23197880D01*
X88795500Y-23197880D02*
X88795500Y-22197880D01*
X88700261Y-22340738D01*
X88605023Y-22435976D01*
X88509785Y-22483595D01*
G04 #@! TO.C,D19*
X92765714Y-25097880D02*
X92765714Y-24097880D01*
X93003809Y-24097880D01*
X93146666Y-24145500D01*
X93241904Y-24240738D01*
X93289523Y-24335976D01*
X93337142Y-24526452D01*
X93337142Y-24669309D01*
X93289523Y-24859785D01*
X93241904Y-24955023D01*
X93146666Y-25050261D01*
X93003809Y-25097880D01*
X92765714Y-25097880D01*
X94289523Y-25097880D02*
X93718095Y-25097880D01*
X94003809Y-25097880D02*
X94003809Y-24097880D01*
X93908571Y-24240738D01*
X93813333Y-24335976D01*
X93718095Y-24383595D01*
X94765714Y-25097880D02*
X94956190Y-25097880D01*
X95051428Y-25050261D01*
X95099047Y-25002642D01*
X95194285Y-24859785D01*
X95241904Y-24669309D01*
X95241904Y-24288357D01*
X95194285Y-24193119D01*
X95146666Y-24145500D01*
X95051428Y-24097880D01*
X94860952Y-24097880D01*
X94765714Y-24145500D01*
X94718095Y-24193119D01*
X94670476Y-24288357D01*
X94670476Y-24526452D01*
X94718095Y-24621690D01*
X94765714Y-24669309D01*
X94860952Y-24716928D01*
X95051428Y-24716928D01*
X95146666Y-24669309D01*
X95194285Y-24621690D01*
X95241904Y-24526452D01*
X98415714Y-23197880D02*
X97844285Y-23197880D01*
X98130000Y-23197880D02*
X98130000Y-22197880D01*
X98034761Y-22340738D01*
X97939523Y-22435976D01*
X97844285Y-22483595D01*
G04 #@! TD*
M02*
