G04 #@! TF.GenerationSoftware,KiCad,Pcbnew,(5.0.2)-1*
G04 #@! TF.CreationDate,2019-04-24T00:03:05-04:00*
G04 #@! TF.ProjectId,4x5macro,3478356d-6163-4726-9f2e-6b696361645f,rev?*
G04 #@! TF.SameCoordinates,Original*
G04 #@! TF.FileFunction,Paste,Top*
G04 #@! TF.FilePolarity,Positive*
%FSLAX46Y46*%
G04 Gerber Fmt 4.6, Leading zero omitted, Abs format (unit mm)*
G04 Created by KiCad (PCBNEW (5.0.2)-1) date 4/24/2019 12:03:05 AM*
%MOMM*%
%LPD*%
G01*
G04 APERTURE LIST*
%ADD10R,1.500000X1.000000*%
%ADD11R,1.397000X1.397000*%
%ADD12R,0.889000X0.889000*%
%ADD13C,0.100000*%
%ADD14C,1.050000*%
%ADD15C,0.250000*%
%ADD16C,0.875000*%
%ADD17R,0.300000X1.150000*%
%ADD18R,0.600000X1.150000*%
%ADD19R,1.700000X2.400000*%
G04 APERTURE END LIST*
D10*
G04 #@! TO.C,D6*
X176274900Y-85623200D03*
X176274900Y-82423200D03*
X171374900Y-85623200D03*
X171374900Y-82423200D03*
G04 #@! TD*
D11*
G04 #@! TO.C,D14*
X226250500Y-74993500D03*
X222948500Y-74993500D03*
G04 #@! TD*
G04 #@! TO.C,D19*
X245300500Y-94043500D03*
X241998500Y-94043500D03*
G04 #@! TD*
G04 #@! TO.C,D18*
X226187000Y-94043500D03*
X222885000Y-94043500D03*
G04 #@! TD*
G04 #@! TO.C,D17*
X207200500Y-94107000D03*
X203898500Y-94107000D03*
G04 #@! TD*
G04 #@! TO.C,D16*
X188150500Y-94107000D03*
X184848500Y-94107000D03*
G04 #@! TD*
G04 #@! TO.C,D15*
X245300500Y-74993500D03*
X241998500Y-74993500D03*
G04 #@! TD*
G04 #@! TO.C,D13*
X207200500Y-75057000D03*
X203898500Y-75057000D03*
G04 #@! TD*
G04 #@! TO.C,D12*
X188150500Y-75057000D03*
X184848500Y-75057000D03*
G04 #@! TD*
G04 #@! TO.C,D11*
X236791500Y-61976000D03*
X236791500Y-58674000D03*
G04 #@! TD*
G04 #@! TO.C,D10*
X234759500Y-61976000D03*
X234759500Y-58674000D03*
G04 #@! TD*
G04 #@! TO.C,D9*
X198564500Y-62039500D03*
X198564500Y-58737500D03*
G04 #@! TD*
G04 #@! TO.C,D8*
X196786500Y-62039500D03*
X196786500Y-58737500D03*
G04 #@! TD*
D10*
G04 #@! TO.C,D1*
X248667100Y-49885800D03*
X248667100Y-53085800D03*
X253567100Y-49885800D03*
X253567100Y-53085800D03*
G04 #@! TD*
G04 #@! TO.C,D2*
X244931100Y-53149300D03*
X244931100Y-49949300D03*
X240031100Y-53149300D03*
X240031100Y-49949300D03*
G04 #@! TD*
G04 #@! TO.C,D3*
X171362200Y-57150200D03*
X171362200Y-60350200D03*
X176262200Y-57150200D03*
X176262200Y-60350200D03*
G04 #@! TD*
G04 #@! TO.C,D4*
X176262200Y-68325800D03*
X176262200Y-65125800D03*
X171362200Y-68325800D03*
X171362200Y-65125800D03*
G04 #@! TD*
G04 #@! TO.C,D5*
X171374900Y-73787200D03*
X171374900Y-76987200D03*
X176274900Y-73787200D03*
X176274900Y-76987200D03*
G04 #@! TD*
G04 #@! TO.C,D7*
X176274900Y-94513200D03*
X176274900Y-91313200D03*
X171374900Y-94513200D03*
X171374900Y-91313200D03*
G04 #@! TD*
D12*
G04 #@! TO.C,R1*
X195287900Y-54635400D03*
X195287900Y-53111400D03*
G04 #@! TD*
D13*
G04 #@! TO.C,U1*
G36*
X201625705Y-46040204D02*
X201649973Y-46043804D01*
X201673772Y-46049765D01*
X201696871Y-46058030D01*
X201719050Y-46068520D01*
X201740093Y-46081132D01*
X201759799Y-46095747D01*
X201777977Y-46112223D01*
X201794453Y-46130401D01*
X201809068Y-46150107D01*
X201821680Y-46171150D01*
X201832170Y-46193329D01*
X201840435Y-46216428D01*
X201846396Y-46240227D01*
X201849996Y-46264495D01*
X201851200Y-46288999D01*
X201851200Y-46839001D01*
X201849996Y-46863505D01*
X201846396Y-46887773D01*
X201840435Y-46911572D01*
X201832170Y-46934671D01*
X201821680Y-46956850D01*
X201809068Y-46977893D01*
X201794453Y-46997599D01*
X201777977Y-47015777D01*
X201759799Y-47032253D01*
X201740093Y-47046868D01*
X201719050Y-47059480D01*
X201696871Y-47069970D01*
X201673772Y-47078235D01*
X201649973Y-47084196D01*
X201625705Y-47087796D01*
X201601201Y-47089000D01*
X201051199Y-47089000D01*
X201026695Y-47087796D01*
X201002427Y-47084196D01*
X200978628Y-47078235D01*
X200955529Y-47069970D01*
X200933350Y-47059480D01*
X200912307Y-47046868D01*
X200892601Y-47032253D01*
X200874423Y-47015777D01*
X200857947Y-46997599D01*
X200843332Y-46977893D01*
X200830720Y-46956850D01*
X200820230Y-46934671D01*
X200811965Y-46911572D01*
X200806004Y-46887773D01*
X200802404Y-46863505D01*
X200801200Y-46839001D01*
X200801200Y-46288999D01*
X200802404Y-46264495D01*
X200806004Y-46240227D01*
X200811965Y-46216428D01*
X200820230Y-46193329D01*
X200830720Y-46171150D01*
X200843332Y-46150107D01*
X200857947Y-46130401D01*
X200874423Y-46112223D01*
X200892601Y-46095747D01*
X200912307Y-46081132D01*
X200933350Y-46068520D01*
X200955529Y-46058030D01*
X200978628Y-46049765D01*
X201002427Y-46043804D01*
X201026695Y-46040204D01*
X201051199Y-46039000D01*
X201601201Y-46039000D01*
X201625705Y-46040204D01*
X201625705Y-46040204D01*
G37*
D14*
X201326200Y-46564000D03*
D13*
G36*
X201625705Y-47340204D02*
X201649973Y-47343804D01*
X201673772Y-47349765D01*
X201696871Y-47358030D01*
X201719050Y-47368520D01*
X201740093Y-47381132D01*
X201759799Y-47395747D01*
X201777977Y-47412223D01*
X201794453Y-47430401D01*
X201809068Y-47450107D01*
X201821680Y-47471150D01*
X201832170Y-47493329D01*
X201840435Y-47516428D01*
X201846396Y-47540227D01*
X201849996Y-47564495D01*
X201851200Y-47588999D01*
X201851200Y-48139001D01*
X201849996Y-48163505D01*
X201846396Y-48187773D01*
X201840435Y-48211572D01*
X201832170Y-48234671D01*
X201821680Y-48256850D01*
X201809068Y-48277893D01*
X201794453Y-48297599D01*
X201777977Y-48315777D01*
X201759799Y-48332253D01*
X201740093Y-48346868D01*
X201719050Y-48359480D01*
X201696871Y-48369970D01*
X201673772Y-48378235D01*
X201649973Y-48384196D01*
X201625705Y-48387796D01*
X201601201Y-48389000D01*
X201051199Y-48389000D01*
X201026695Y-48387796D01*
X201002427Y-48384196D01*
X200978628Y-48378235D01*
X200955529Y-48369970D01*
X200933350Y-48359480D01*
X200912307Y-48346868D01*
X200892601Y-48332253D01*
X200874423Y-48315777D01*
X200857947Y-48297599D01*
X200843332Y-48277893D01*
X200830720Y-48256850D01*
X200820230Y-48234671D01*
X200811965Y-48211572D01*
X200806004Y-48187773D01*
X200802404Y-48163505D01*
X200801200Y-48139001D01*
X200801200Y-47588999D01*
X200802404Y-47564495D01*
X200806004Y-47540227D01*
X200811965Y-47516428D01*
X200820230Y-47493329D01*
X200830720Y-47471150D01*
X200843332Y-47450107D01*
X200857947Y-47430401D01*
X200874423Y-47412223D01*
X200892601Y-47395747D01*
X200912307Y-47381132D01*
X200933350Y-47368520D01*
X200955529Y-47358030D01*
X200978628Y-47349765D01*
X201002427Y-47343804D01*
X201026695Y-47340204D01*
X201051199Y-47339000D01*
X201601201Y-47339000D01*
X201625705Y-47340204D01*
X201625705Y-47340204D01*
G37*
D14*
X201326200Y-47864000D03*
D13*
G36*
X201625705Y-48640204D02*
X201649973Y-48643804D01*
X201673772Y-48649765D01*
X201696871Y-48658030D01*
X201719050Y-48668520D01*
X201740093Y-48681132D01*
X201759799Y-48695747D01*
X201777977Y-48712223D01*
X201794453Y-48730401D01*
X201809068Y-48750107D01*
X201821680Y-48771150D01*
X201832170Y-48793329D01*
X201840435Y-48816428D01*
X201846396Y-48840227D01*
X201849996Y-48864495D01*
X201851200Y-48888999D01*
X201851200Y-49439001D01*
X201849996Y-49463505D01*
X201846396Y-49487773D01*
X201840435Y-49511572D01*
X201832170Y-49534671D01*
X201821680Y-49556850D01*
X201809068Y-49577893D01*
X201794453Y-49597599D01*
X201777977Y-49615777D01*
X201759799Y-49632253D01*
X201740093Y-49646868D01*
X201719050Y-49659480D01*
X201696871Y-49669970D01*
X201673772Y-49678235D01*
X201649973Y-49684196D01*
X201625705Y-49687796D01*
X201601201Y-49689000D01*
X201051199Y-49689000D01*
X201026695Y-49687796D01*
X201002427Y-49684196D01*
X200978628Y-49678235D01*
X200955529Y-49669970D01*
X200933350Y-49659480D01*
X200912307Y-49646868D01*
X200892601Y-49632253D01*
X200874423Y-49615777D01*
X200857947Y-49597599D01*
X200843332Y-49577893D01*
X200830720Y-49556850D01*
X200820230Y-49534671D01*
X200811965Y-49511572D01*
X200806004Y-49487773D01*
X200802404Y-49463505D01*
X200801200Y-49439001D01*
X200801200Y-48888999D01*
X200802404Y-48864495D01*
X200806004Y-48840227D01*
X200811965Y-48816428D01*
X200820230Y-48793329D01*
X200830720Y-48771150D01*
X200843332Y-48750107D01*
X200857947Y-48730401D01*
X200874423Y-48712223D01*
X200892601Y-48695747D01*
X200912307Y-48681132D01*
X200933350Y-48668520D01*
X200955529Y-48658030D01*
X200978628Y-48649765D01*
X201002427Y-48643804D01*
X201026695Y-48640204D01*
X201051199Y-48639000D01*
X201601201Y-48639000D01*
X201625705Y-48640204D01*
X201625705Y-48640204D01*
G37*
D14*
X201326200Y-49164000D03*
D13*
G36*
X201625705Y-49940204D02*
X201649973Y-49943804D01*
X201673772Y-49949765D01*
X201696871Y-49958030D01*
X201719050Y-49968520D01*
X201740093Y-49981132D01*
X201759799Y-49995747D01*
X201777977Y-50012223D01*
X201794453Y-50030401D01*
X201809068Y-50050107D01*
X201821680Y-50071150D01*
X201832170Y-50093329D01*
X201840435Y-50116428D01*
X201846396Y-50140227D01*
X201849996Y-50164495D01*
X201851200Y-50188999D01*
X201851200Y-50739001D01*
X201849996Y-50763505D01*
X201846396Y-50787773D01*
X201840435Y-50811572D01*
X201832170Y-50834671D01*
X201821680Y-50856850D01*
X201809068Y-50877893D01*
X201794453Y-50897599D01*
X201777977Y-50915777D01*
X201759799Y-50932253D01*
X201740093Y-50946868D01*
X201719050Y-50959480D01*
X201696871Y-50969970D01*
X201673772Y-50978235D01*
X201649973Y-50984196D01*
X201625705Y-50987796D01*
X201601201Y-50989000D01*
X201051199Y-50989000D01*
X201026695Y-50987796D01*
X201002427Y-50984196D01*
X200978628Y-50978235D01*
X200955529Y-50969970D01*
X200933350Y-50959480D01*
X200912307Y-50946868D01*
X200892601Y-50932253D01*
X200874423Y-50915777D01*
X200857947Y-50897599D01*
X200843332Y-50877893D01*
X200830720Y-50856850D01*
X200820230Y-50834671D01*
X200811965Y-50811572D01*
X200806004Y-50787773D01*
X200802404Y-50763505D01*
X200801200Y-50739001D01*
X200801200Y-50188999D01*
X200802404Y-50164495D01*
X200806004Y-50140227D01*
X200811965Y-50116428D01*
X200820230Y-50093329D01*
X200830720Y-50071150D01*
X200843332Y-50050107D01*
X200857947Y-50030401D01*
X200874423Y-50012223D01*
X200892601Y-49995747D01*
X200912307Y-49981132D01*
X200933350Y-49968520D01*
X200955529Y-49958030D01*
X200978628Y-49949765D01*
X201002427Y-49943804D01*
X201026695Y-49940204D01*
X201051199Y-49939000D01*
X201601201Y-49939000D01*
X201625705Y-49940204D01*
X201625705Y-49940204D01*
G37*
D14*
X201326200Y-50464000D03*
D13*
G36*
X202925705Y-46040204D02*
X202949973Y-46043804D01*
X202973772Y-46049765D01*
X202996871Y-46058030D01*
X203019050Y-46068520D01*
X203040093Y-46081132D01*
X203059799Y-46095747D01*
X203077977Y-46112223D01*
X203094453Y-46130401D01*
X203109068Y-46150107D01*
X203121680Y-46171150D01*
X203132170Y-46193329D01*
X203140435Y-46216428D01*
X203146396Y-46240227D01*
X203149996Y-46264495D01*
X203151200Y-46288999D01*
X203151200Y-46839001D01*
X203149996Y-46863505D01*
X203146396Y-46887773D01*
X203140435Y-46911572D01*
X203132170Y-46934671D01*
X203121680Y-46956850D01*
X203109068Y-46977893D01*
X203094453Y-46997599D01*
X203077977Y-47015777D01*
X203059799Y-47032253D01*
X203040093Y-47046868D01*
X203019050Y-47059480D01*
X202996871Y-47069970D01*
X202973772Y-47078235D01*
X202949973Y-47084196D01*
X202925705Y-47087796D01*
X202901201Y-47089000D01*
X202351199Y-47089000D01*
X202326695Y-47087796D01*
X202302427Y-47084196D01*
X202278628Y-47078235D01*
X202255529Y-47069970D01*
X202233350Y-47059480D01*
X202212307Y-47046868D01*
X202192601Y-47032253D01*
X202174423Y-47015777D01*
X202157947Y-46997599D01*
X202143332Y-46977893D01*
X202130720Y-46956850D01*
X202120230Y-46934671D01*
X202111965Y-46911572D01*
X202106004Y-46887773D01*
X202102404Y-46863505D01*
X202101200Y-46839001D01*
X202101200Y-46288999D01*
X202102404Y-46264495D01*
X202106004Y-46240227D01*
X202111965Y-46216428D01*
X202120230Y-46193329D01*
X202130720Y-46171150D01*
X202143332Y-46150107D01*
X202157947Y-46130401D01*
X202174423Y-46112223D01*
X202192601Y-46095747D01*
X202212307Y-46081132D01*
X202233350Y-46068520D01*
X202255529Y-46058030D01*
X202278628Y-46049765D01*
X202302427Y-46043804D01*
X202326695Y-46040204D01*
X202351199Y-46039000D01*
X202901201Y-46039000D01*
X202925705Y-46040204D01*
X202925705Y-46040204D01*
G37*
D14*
X202626200Y-46564000D03*
D13*
G36*
X202925705Y-47340204D02*
X202949973Y-47343804D01*
X202973772Y-47349765D01*
X202996871Y-47358030D01*
X203019050Y-47368520D01*
X203040093Y-47381132D01*
X203059799Y-47395747D01*
X203077977Y-47412223D01*
X203094453Y-47430401D01*
X203109068Y-47450107D01*
X203121680Y-47471150D01*
X203132170Y-47493329D01*
X203140435Y-47516428D01*
X203146396Y-47540227D01*
X203149996Y-47564495D01*
X203151200Y-47588999D01*
X203151200Y-48139001D01*
X203149996Y-48163505D01*
X203146396Y-48187773D01*
X203140435Y-48211572D01*
X203132170Y-48234671D01*
X203121680Y-48256850D01*
X203109068Y-48277893D01*
X203094453Y-48297599D01*
X203077977Y-48315777D01*
X203059799Y-48332253D01*
X203040093Y-48346868D01*
X203019050Y-48359480D01*
X202996871Y-48369970D01*
X202973772Y-48378235D01*
X202949973Y-48384196D01*
X202925705Y-48387796D01*
X202901201Y-48389000D01*
X202351199Y-48389000D01*
X202326695Y-48387796D01*
X202302427Y-48384196D01*
X202278628Y-48378235D01*
X202255529Y-48369970D01*
X202233350Y-48359480D01*
X202212307Y-48346868D01*
X202192601Y-48332253D01*
X202174423Y-48315777D01*
X202157947Y-48297599D01*
X202143332Y-48277893D01*
X202130720Y-48256850D01*
X202120230Y-48234671D01*
X202111965Y-48211572D01*
X202106004Y-48187773D01*
X202102404Y-48163505D01*
X202101200Y-48139001D01*
X202101200Y-47588999D01*
X202102404Y-47564495D01*
X202106004Y-47540227D01*
X202111965Y-47516428D01*
X202120230Y-47493329D01*
X202130720Y-47471150D01*
X202143332Y-47450107D01*
X202157947Y-47430401D01*
X202174423Y-47412223D01*
X202192601Y-47395747D01*
X202212307Y-47381132D01*
X202233350Y-47368520D01*
X202255529Y-47358030D01*
X202278628Y-47349765D01*
X202302427Y-47343804D01*
X202326695Y-47340204D01*
X202351199Y-47339000D01*
X202901201Y-47339000D01*
X202925705Y-47340204D01*
X202925705Y-47340204D01*
G37*
D14*
X202626200Y-47864000D03*
D13*
G36*
X202925705Y-48640204D02*
X202949973Y-48643804D01*
X202973772Y-48649765D01*
X202996871Y-48658030D01*
X203019050Y-48668520D01*
X203040093Y-48681132D01*
X203059799Y-48695747D01*
X203077977Y-48712223D01*
X203094453Y-48730401D01*
X203109068Y-48750107D01*
X203121680Y-48771150D01*
X203132170Y-48793329D01*
X203140435Y-48816428D01*
X203146396Y-48840227D01*
X203149996Y-48864495D01*
X203151200Y-48888999D01*
X203151200Y-49439001D01*
X203149996Y-49463505D01*
X203146396Y-49487773D01*
X203140435Y-49511572D01*
X203132170Y-49534671D01*
X203121680Y-49556850D01*
X203109068Y-49577893D01*
X203094453Y-49597599D01*
X203077977Y-49615777D01*
X203059799Y-49632253D01*
X203040093Y-49646868D01*
X203019050Y-49659480D01*
X202996871Y-49669970D01*
X202973772Y-49678235D01*
X202949973Y-49684196D01*
X202925705Y-49687796D01*
X202901201Y-49689000D01*
X202351199Y-49689000D01*
X202326695Y-49687796D01*
X202302427Y-49684196D01*
X202278628Y-49678235D01*
X202255529Y-49669970D01*
X202233350Y-49659480D01*
X202212307Y-49646868D01*
X202192601Y-49632253D01*
X202174423Y-49615777D01*
X202157947Y-49597599D01*
X202143332Y-49577893D01*
X202130720Y-49556850D01*
X202120230Y-49534671D01*
X202111965Y-49511572D01*
X202106004Y-49487773D01*
X202102404Y-49463505D01*
X202101200Y-49439001D01*
X202101200Y-48888999D01*
X202102404Y-48864495D01*
X202106004Y-48840227D01*
X202111965Y-48816428D01*
X202120230Y-48793329D01*
X202130720Y-48771150D01*
X202143332Y-48750107D01*
X202157947Y-48730401D01*
X202174423Y-48712223D01*
X202192601Y-48695747D01*
X202212307Y-48681132D01*
X202233350Y-48668520D01*
X202255529Y-48658030D01*
X202278628Y-48649765D01*
X202302427Y-48643804D01*
X202326695Y-48640204D01*
X202351199Y-48639000D01*
X202901201Y-48639000D01*
X202925705Y-48640204D01*
X202925705Y-48640204D01*
G37*
D14*
X202626200Y-49164000D03*
D13*
G36*
X202925705Y-49940204D02*
X202949973Y-49943804D01*
X202973772Y-49949765D01*
X202996871Y-49958030D01*
X203019050Y-49968520D01*
X203040093Y-49981132D01*
X203059799Y-49995747D01*
X203077977Y-50012223D01*
X203094453Y-50030401D01*
X203109068Y-50050107D01*
X203121680Y-50071150D01*
X203132170Y-50093329D01*
X203140435Y-50116428D01*
X203146396Y-50140227D01*
X203149996Y-50164495D01*
X203151200Y-50188999D01*
X203151200Y-50739001D01*
X203149996Y-50763505D01*
X203146396Y-50787773D01*
X203140435Y-50811572D01*
X203132170Y-50834671D01*
X203121680Y-50856850D01*
X203109068Y-50877893D01*
X203094453Y-50897599D01*
X203077977Y-50915777D01*
X203059799Y-50932253D01*
X203040093Y-50946868D01*
X203019050Y-50959480D01*
X202996871Y-50969970D01*
X202973772Y-50978235D01*
X202949973Y-50984196D01*
X202925705Y-50987796D01*
X202901201Y-50989000D01*
X202351199Y-50989000D01*
X202326695Y-50987796D01*
X202302427Y-50984196D01*
X202278628Y-50978235D01*
X202255529Y-50969970D01*
X202233350Y-50959480D01*
X202212307Y-50946868D01*
X202192601Y-50932253D01*
X202174423Y-50915777D01*
X202157947Y-50897599D01*
X202143332Y-50877893D01*
X202130720Y-50856850D01*
X202120230Y-50834671D01*
X202111965Y-50811572D01*
X202106004Y-50787773D01*
X202102404Y-50763505D01*
X202101200Y-50739001D01*
X202101200Y-50188999D01*
X202102404Y-50164495D01*
X202106004Y-50140227D01*
X202111965Y-50116428D01*
X202120230Y-50093329D01*
X202130720Y-50071150D01*
X202143332Y-50050107D01*
X202157947Y-50030401D01*
X202174423Y-50012223D01*
X202192601Y-49995747D01*
X202212307Y-49981132D01*
X202233350Y-49968520D01*
X202255529Y-49958030D01*
X202278628Y-49949765D01*
X202302427Y-49943804D01*
X202326695Y-49940204D01*
X202351199Y-49939000D01*
X202901201Y-49939000D01*
X202925705Y-49940204D01*
X202925705Y-49940204D01*
G37*
D14*
X202626200Y-50464000D03*
D13*
G36*
X204225705Y-46040204D02*
X204249973Y-46043804D01*
X204273772Y-46049765D01*
X204296871Y-46058030D01*
X204319050Y-46068520D01*
X204340093Y-46081132D01*
X204359799Y-46095747D01*
X204377977Y-46112223D01*
X204394453Y-46130401D01*
X204409068Y-46150107D01*
X204421680Y-46171150D01*
X204432170Y-46193329D01*
X204440435Y-46216428D01*
X204446396Y-46240227D01*
X204449996Y-46264495D01*
X204451200Y-46288999D01*
X204451200Y-46839001D01*
X204449996Y-46863505D01*
X204446396Y-46887773D01*
X204440435Y-46911572D01*
X204432170Y-46934671D01*
X204421680Y-46956850D01*
X204409068Y-46977893D01*
X204394453Y-46997599D01*
X204377977Y-47015777D01*
X204359799Y-47032253D01*
X204340093Y-47046868D01*
X204319050Y-47059480D01*
X204296871Y-47069970D01*
X204273772Y-47078235D01*
X204249973Y-47084196D01*
X204225705Y-47087796D01*
X204201201Y-47089000D01*
X203651199Y-47089000D01*
X203626695Y-47087796D01*
X203602427Y-47084196D01*
X203578628Y-47078235D01*
X203555529Y-47069970D01*
X203533350Y-47059480D01*
X203512307Y-47046868D01*
X203492601Y-47032253D01*
X203474423Y-47015777D01*
X203457947Y-46997599D01*
X203443332Y-46977893D01*
X203430720Y-46956850D01*
X203420230Y-46934671D01*
X203411965Y-46911572D01*
X203406004Y-46887773D01*
X203402404Y-46863505D01*
X203401200Y-46839001D01*
X203401200Y-46288999D01*
X203402404Y-46264495D01*
X203406004Y-46240227D01*
X203411965Y-46216428D01*
X203420230Y-46193329D01*
X203430720Y-46171150D01*
X203443332Y-46150107D01*
X203457947Y-46130401D01*
X203474423Y-46112223D01*
X203492601Y-46095747D01*
X203512307Y-46081132D01*
X203533350Y-46068520D01*
X203555529Y-46058030D01*
X203578628Y-46049765D01*
X203602427Y-46043804D01*
X203626695Y-46040204D01*
X203651199Y-46039000D01*
X204201201Y-46039000D01*
X204225705Y-46040204D01*
X204225705Y-46040204D01*
G37*
D14*
X203926200Y-46564000D03*
D13*
G36*
X204225705Y-47340204D02*
X204249973Y-47343804D01*
X204273772Y-47349765D01*
X204296871Y-47358030D01*
X204319050Y-47368520D01*
X204340093Y-47381132D01*
X204359799Y-47395747D01*
X204377977Y-47412223D01*
X204394453Y-47430401D01*
X204409068Y-47450107D01*
X204421680Y-47471150D01*
X204432170Y-47493329D01*
X204440435Y-47516428D01*
X204446396Y-47540227D01*
X204449996Y-47564495D01*
X204451200Y-47588999D01*
X204451200Y-48139001D01*
X204449996Y-48163505D01*
X204446396Y-48187773D01*
X204440435Y-48211572D01*
X204432170Y-48234671D01*
X204421680Y-48256850D01*
X204409068Y-48277893D01*
X204394453Y-48297599D01*
X204377977Y-48315777D01*
X204359799Y-48332253D01*
X204340093Y-48346868D01*
X204319050Y-48359480D01*
X204296871Y-48369970D01*
X204273772Y-48378235D01*
X204249973Y-48384196D01*
X204225705Y-48387796D01*
X204201201Y-48389000D01*
X203651199Y-48389000D01*
X203626695Y-48387796D01*
X203602427Y-48384196D01*
X203578628Y-48378235D01*
X203555529Y-48369970D01*
X203533350Y-48359480D01*
X203512307Y-48346868D01*
X203492601Y-48332253D01*
X203474423Y-48315777D01*
X203457947Y-48297599D01*
X203443332Y-48277893D01*
X203430720Y-48256850D01*
X203420230Y-48234671D01*
X203411965Y-48211572D01*
X203406004Y-48187773D01*
X203402404Y-48163505D01*
X203401200Y-48139001D01*
X203401200Y-47588999D01*
X203402404Y-47564495D01*
X203406004Y-47540227D01*
X203411965Y-47516428D01*
X203420230Y-47493329D01*
X203430720Y-47471150D01*
X203443332Y-47450107D01*
X203457947Y-47430401D01*
X203474423Y-47412223D01*
X203492601Y-47395747D01*
X203512307Y-47381132D01*
X203533350Y-47368520D01*
X203555529Y-47358030D01*
X203578628Y-47349765D01*
X203602427Y-47343804D01*
X203626695Y-47340204D01*
X203651199Y-47339000D01*
X204201201Y-47339000D01*
X204225705Y-47340204D01*
X204225705Y-47340204D01*
G37*
D14*
X203926200Y-47864000D03*
D13*
G36*
X204225705Y-48640204D02*
X204249973Y-48643804D01*
X204273772Y-48649765D01*
X204296871Y-48658030D01*
X204319050Y-48668520D01*
X204340093Y-48681132D01*
X204359799Y-48695747D01*
X204377977Y-48712223D01*
X204394453Y-48730401D01*
X204409068Y-48750107D01*
X204421680Y-48771150D01*
X204432170Y-48793329D01*
X204440435Y-48816428D01*
X204446396Y-48840227D01*
X204449996Y-48864495D01*
X204451200Y-48888999D01*
X204451200Y-49439001D01*
X204449996Y-49463505D01*
X204446396Y-49487773D01*
X204440435Y-49511572D01*
X204432170Y-49534671D01*
X204421680Y-49556850D01*
X204409068Y-49577893D01*
X204394453Y-49597599D01*
X204377977Y-49615777D01*
X204359799Y-49632253D01*
X204340093Y-49646868D01*
X204319050Y-49659480D01*
X204296871Y-49669970D01*
X204273772Y-49678235D01*
X204249973Y-49684196D01*
X204225705Y-49687796D01*
X204201201Y-49689000D01*
X203651199Y-49689000D01*
X203626695Y-49687796D01*
X203602427Y-49684196D01*
X203578628Y-49678235D01*
X203555529Y-49669970D01*
X203533350Y-49659480D01*
X203512307Y-49646868D01*
X203492601Y-49632253D01*
X203474423Y-49615777D01*
X203457947Y-49597599D01*
X203443332Y-49577893D01*
X203430720Y-49556850D01*
X203420230Y-49534671D01*
X203411965Y-49511572D01*
X203406004Y-49487773D01*
X203402404Y-49463505D01*
X203401200Y-49439001D01*
X203401200Y-48888999D01*
X203402404Y-48864495D01*
X203406004Y-48840227D01*
X203411965Y-48816428D01*
X203420230Y-48793329D01*
X203430720Y-48771150D01*
X203443332Y-48750107D01*
X203457947Y-48730401D01*
X203474423Y-48712223D01*
X203492601Y-48695747D01*
X203512307Y-48681132D01*
X203533350Y-48668520D01*
X203555529Y-48658030D01*
X203578628Y-48649765D01*
X203602427Y-48643804D01*
X203626695Y-48640204D01*
X203651199Y-48639000D01*
X204201201Y-48639000D01*
X204225705Y-48640204D01*
X204225705Y-48640204D01*
G37*
D14*
X203926200Y-49164000D03*
D13*
G36*
X204225705Y-49940204D02*
X204249973Y-49943804D01*
X204273772Y-49949765D01*
X204296871Y-49958030D01*
X204319050Y-49968520D01*
X204340093Y-49981132D01*
X204359799Y-49995747D01*
X204377977Y-50012223D01*
X204394453Y-50030401D01*
X204409068Y-50050107D01*
X204421680Y-50071150D01*
X204432170Y-50093329D01*
X204440435Y-50116428D01*
X204446396Y-50140227D01*
X204449996Y-50164495D01*
X204451200Y-50188999D01*
X204451200Y-50739001D01*
X204449996Y-50763505D01*
X204446396Y-50787773D01*
X204440435Y-50811572D01*
X204432170Y-50834671D01*
X204421680Y-50856850D01*
X204409068Y-50877893D01*
X204394453Y-50897599D01*
X204377977Y-50915777D01*
X204359799Y-50932253D01*
X204340093Y-50946868D01*
X204319050Y-50959480D01*
X204296871Y-50969970D01*
X204273772Y-50978235D01*
X204249973Y-50984196D01*
X204225705Y-50987796D01*
X204201201Y-50989000D01*
X203651199Y-50989000D01*
X203626695Y-50987796D01*
X203602427Y-50984196D01*
X203578628Y-50978235D01*
X203555529Y-50969970D01*
X203533350Y-50959480D01*
X203512307Y-50946868D01*
X203492601Y-50932253D01*
X203474423Y-50915777D01*
X203457947Y-50897599D01*
X203443332Y-50877893D01*
X203430720Y-50856850D01*
X203420230Y-50834671D01*
X203411965Y-50811572D01*
X203406004Y-50787773D01*
X203402404Y-50763505D01*
X203401200Y-50739001D01*
X203401200Y-50188999D01*
X203402404Y-50164495D01*
X203406004Y-50140227D01*
X203411965Y-50116428D01*
X203420230Y-50093329D01*
X203430720Y-50071150D01*
X203443332Y-50050107D01*
X203457947Y-50030401D01*
X203474423Y-50012223D01*
X203492601Y-49995747D01*
X203512307Y-49981132D01*
X203533350Y-49968520D01*
X203555529Y-49958030D01*
X203578628Y-49949765D01*
X203602427Y-49943804D01*
X203626695Y-49940204D01*
X203651199Y-49939000D01*
X204201201Y-49939000D01*
X204225705Y-49940204D01*
X204225705Y-49940204D01*
G37*
D14*
X203926200Y-50464000D03*
D13*
G36*
X205525705Y-46040204D02*
X205549973Y-46043804D01*
X205573772Y-46049765D01*
X205596871Y-46058030D01*
X205619050Y-46068520D01*
X205640093Y-46081132D01*
X205659799Y-46095747D01*
X205677977Y-46112223D01*
X205694453Y-46130401D01*
X205709068Y-46150107D01*
X205721680Y-46171150D01*
X205732170Y-46193329D01*
X205740435Y-46216428D01*
X205746396Y-46240227D01*
X205749996Y-46264495D01*
X205751200Y-46288999D01*
X205751200Y-46839001D01*
X205749996Y-46863505D01*
X205746396Y-46887773D01*
X205740435Y-46911572D01*
X205732170Y-46934671D01*
X205721680Y-46956850D01*
X205709068Y-46977893D01*
X205694453Y-46997599D01*
X205677977Y-47015777D01*
X205659799Y-47032253D01*
X205640093Y-47046868D01*
X205619050Y-47059480D01*
X205596871Y-47069970D01*
X205573772Y-47078235D01*
X205549973Y-47084196D01*
X205525705Y-47087796D01*
X205501201Y-47089000D01*
X204951199Y-47089000D01*
X204926695Y-47087796D01*
X204902427Y-47084196D01*
X204878628Y-47078235D01*
X204855529Y-47069970D01*
X204833350Y-47059480D01*
X204812307Y-47046868D01*
X204792601Y-47032253D01*
X204774423Y-47015777D01*
X204757947Y-46997599D01*
X204743332Y-46977893D01*
X204730720Y-46956850D01*
X204720230Y-46934671D01*
X204711965Y-46911572D01*
X204706004Y-46887773D01*
X204702404Y-46863505D01*
X204701200Y-46839001D01*
X204701200Y-46288999D01*
X204702404Y-46264495D01*
X204706004Y-46240227D01*
X204711965Y-46216428D01*
X204720230Y-46193329D01*
X204730720Y-46171150D01*
X204743332Y-46150107D01*
X204757947Y-46130401D01*
X204774423Y-46112223D01*
X204792601Y-46095747D01*
X204812307Y-46081132D01*
X204833350Y-46068520D01*
X204855529Y-46058030D01*
X204878628Y-46049765D01*
X204902427Y-46043804D01*
X204926695Y-46040204D01*
X204951199Y-46039000D01*
X205501201Y-46039000D01*
X205525705Y-46040204D01*
X205525705Y-46040204D01*
G37*
D14*
X205226200Y-46564000D03*
D13*
G36*
X205525705Y-47340204D02*
X205549973Y-47343804D01*
X205573772Y-47349765D01*
X205596871Y-47358030D01*
X205619050Y-47368520D01*
X205640093Y-47381132D01*
X205659799Y-47395747D01*
X205677977Y-47412223D01*
X205694453Y-47430401D01*
X205709068Y-47450107D01*
X205721680Y-47471150D01*
X205732170Y-47493329D01*
X205740435Y-47516428D01*
X205746396Y-47540227D01*
X205749996Y-47564495D01*
X205751200Y-47588999D01*
X205751200Y-48139001D01*
X205749996Y-48163505D01*
X205746396Y-48187773D01*
X205740435Y-48211572D01*
X205732170Y-48234671D01*
X205721680Y-48256850D01*
X205709068Y-48277893D01*
X205694453Y-48297599D01*
X205677977Y-48315777D01*
X205659799Y-48332253D01*
X205640093Y-48346868D01*
X205619050Y-48359480D01*
X205596871Y-48369970D01*
X205573772Y-48378235D01*
X205549973Y-48384196D01*
X205525705Y-48387796D01*
X205501201Y-48389000D01*
X204951199Y-48389000D01*
X204926695Y-48387796D01*
X204902427Y-48384196D01*
X204878628Y-48378235D01*
X204855529Y-48369970D01*
X204833350Y-48359480D01*
X204812307Y-48346868D01*
X204792601Y-48332253D01*
X204774423Y-48315777D01*
X204757947Y-48297599D01*
X204743332Y-48277893D01*
X204730720Y-48256850D01*
X204720230Y-48234671D01*
X204711965Y-48211572D01*
X204706004Y-48187773D01*
X204702404Y-48163505D01*
X204701200Y-48139001D01*
X204701200Y-47588999D01*
X204702404Y-47564495D01*
X204706004Y-47540227D01*
X204711965Y-47516428D01*
X204720230Y-47493329D01*
X204730720Y-47471150D01*
X204743332Y-47450107D01*
X204757947Y-47430401D01*
X204774423Y-47412223D01*
X204792601Y-47395747D01*
X204812307Y-47381132D01*
X204833350Y-47368520D01*
X204855529Y-47358030D01*
X204878628Y-47349765D01*
X204902427Y-47343804D01*
X204926695Y-47340204D01*
X204951199Y-47339000D01*
X205501201Y-47339000D01*
X205525705Y-47340204D01*
X205525705Y-47340204D01*
G37*
D14*
X205226200Y-47864000D03*
D13*
G36*
X205525705Y-48640204D02*
X205549973Y-48643804D01*
X205573772Y-48649765D01*
X205596871Y-48658030D01*
X205619050Y-48668520D01*
X205640093Y-48681132D01*
X205659799Y-48695747D01*
X205677977Y-48712223D01*
X205694453Y-48730401D01*
X205709068Y-48750107D01*
X205721680Y-48771150D01*
X205732170Y-48793329D01*
X205740435Y-48816428D01*
X205746396Y-48840227D01*
X205749996Y-48864495D01*
X205751200Y-48888999D01*
X205751200Y-49439001D01*
X205749996Y-49463505D01*
X205746396Y-49487773D01*
X205740435Y-49511572D01*
X205732170Y-49534671D01*
X205721680Y-49556850D01*
X205709068Y-49577893D01*
X205694453Y-49597599D01*
X205677977Y-49615777D01*
X205659799Y-49632253D01*
X205640093Y-49646868D01*
X205619050Y-49659480D01*
X205596871Y-49669970D01*
X205573772Y-49678235D01*
X205549973Y-49684196D01*
X205525705Y-49687796D01*
X205501201Y-49689000D01*
X204951199Y-49689000D01*
X204926695Y-49687796D01*
X204902427Y-49684196D01*
X204878628Y-49678235D01*
X204855529Y-49669970D01*
X204833350Y-49659480D01*
X204812307Y-49646868D01*
X204792601Y-49632253D01*
X204774423Y-49615777D01*
X204757947Y-49597599D01*
X204743332Y-49577893D01*
X204730720Y-49556850D01*
X204720230Y-49534671D01*
X204711965Y-49511572D01*
X204706004Y-49487773D01*
X204702404Y-49463505D01*
X204701200Y-49439001D01*
X204701200Y-48888999D01*
X204702404Y-48864495D01*
X204706004Y-48840227D01*
X204711965Y-48816428D01*
X204720230Y-48793329D01*
X204730720Y-48771150D01*
X204743332Y-48750107D01*
X204757947Y-48730401D01*
X204774423Y-48712223D01*
X204792601Y-48695747D01*
X204812307Y-48681132D01*
X204833350Y-48668520D01*
X204855529Y-48658030D01*
X204878628Y-48649765D01*
X204902427Y-48643804D01*
X204926695Y-48640204D01*
X204951199Y-48639000D01*
X205501201Y-48639000D01*
X205525705Y-48640204D01*
X205525705Y-48640204D01*
G37*
D14*
X205226200Y-49164000D03*
D13*
G36*
X205525705Y-49940204D02*
X205549973Y-49943804D01*
X205573772Y-49949765D01*
X205596871Y-49958030D01*
X205619050Y-49968520D01*
X205640093Y-49981132D01*
X205659799Y-49995747D01*
X205677977Y-50012223D01*
X205694453Y-50030401D01*
X205709068Y-50050107D01*
X205721680Y-50071150D01*
X205732170Y-50093329D01*
X205740435Y-50116428D01*
X205746396Y-50140227D01*
X205749996Y-50164495D01*
X205751200Y-50188999D01*
X205751200Y-50739001D01*
X205749996Y-50763505D01*
X205746396Y-50787773D01*
X205740435Y-50811572D01*
X205732170Y-50834671D01*
X205721680Y-50856850D01*
X205709068Y-50877893D01*
X205694453Y-50897599D01*
X205677977Y-50915777D01*
X205659799Y-50932253D01*
X205640093Y-50946868D01*
X205619050Y-50959480D01*
X205596871Y-50969970D01*
X205573772Y-50978235D01*
X205549973Y-50984196D01*
X205525705Y-50987796D01*
X205501201Y-50989000D01*
X204951199Y-50989000D01*
X204926695Y-50987796D01*
X204902427Y-50984196D01*
X204878628Y-50978235D01*
X204855529Y-50969970D01*
X204833350Y-50959480D01*
X204812307Y-50946868D01*
X204792601Y-50932253D01*
X204774423Y-50915777D01*
X204757947Y-50897599D01*
X204743332Y-50877893D01*
X204730720Y-50856850D01*
X204720230Y-50834671D01*
X204711965Y-50811572D01*
X204706004Y-50787773D01*
X204702404Y-50763505D01*
X204701200Y-50739001D01*
X204701200Y-50188999D01*
X204702404Y-50164495D01*
X204706004Y-50140227D01*
X204711965Y-50116428D01*
X204720230Y-50093329D01*
X204730720Y-50071150D01*
X204743332Y-50050107D01*
X204757947Y-50030401D01*
X204774423Y-50012223D01*
X204792601Y-49995747D01*
X204812307Y-49981132D01*
X204833350Y-49968520D01*
X204855529Y-49958030D01*
X204878628Y-49949765D01*
X204902427Y-49943804D01*
X204926695Y-49940204D01*
X204951199Y-49939000D01*
X205501201Y-49939000D01*
X205525705Y-49940204D01*
X205525705Y-49940204D01*
G37*
D14*
X205226200Y-50464000D03*
D13*
G36*
X200394826Y-45889301D02*
X200400893Y-45890201D01*
X200406843Y-45891691D01*
X200412618Y-45893758D01*
X200418162Y-45896380D01*
X200423423Y-45899533D01*
X200428350Y-45903187D01*
X200432894Y-45907306D01*
X200437013Y-45911850D01*
X200440667Y-45916777D01*
X200443820Y-45922038D01*
X200446442Y-45927582D01*
X200448509Y-45933357D01*
X200449999Y-45939307D01*
X200450899Y-45945374D01*
X200451200Y-45951500D01*
X200451200Y-46076500D01*
X200450899Y-46082626D01*
X200449999Y-46088693D01*
X200448509Y-46094643D01*
X200446442Y-46100418D01*
X200443820Y-46105962D01*
X200440667Y-46111223D01*
X200437013Y-46116150D01*
X200432894Y-46120694D01*
X200428350Y-46124813D01*
X200423423Y-46128467D01*
X200418162Y-46131620D01*
X200412618Y-46134242D01*
X200406843Y-46136309D01*
X200400893Y-46137799D01*
X200394826Y-46138699D01*
X200388700Y-46139000D01*
X199463700Y-46139000D01*
X199457574Y-46138699D01*
X199451507Y-46137799D01*
X199445557Y-46136309D01*
X199439782Y-46134242D01*
X199434238Y-46131620D01*
X199428977Y-46128467D01*
X199424050Y-46124813D01*
X199419506Y-46120694D01*
X199415387Y-46116150D01*
X199411733Y-46111223D01*
X199408580Y-46105962D01*
X199405958Y-46100418D01*
X199403891Y-46094643D01*
X199402401Y-46088693D01*
X199401501Y-46082626D01*
X199401200Y-46076500D01*
X199401200Y-45951500D01*
X199401501Y-45945374D01*
X199402401Y-45939307D01*
X199403891Y-45933357D01*
X199405958Y-45927582D01*
X199408580Y-45922038D01*
X199411733Y-45916777D01*
X199415387Y-45911850D01*
X199419506Y-45907306D01*
X199424050Y-45903187D01*
X199428977Y-45899533D01*
X199434238Y-45896380D01*
X199439782Y-45893758D01*
X199445557Y-45891691D01*
X199451507Y-45890201D01*
X199457574Y-45889301D01*
X199463700Y-45889000D01*
X200388700Y-45889000D01*
X200394826Y-45889301D01*
X200394826Y-45889301D01*
G37*
D15*
X199926200Y-46014000D03*
D13*
G36*
X200394826Y-46389301D02*
X200400893Y-46390201D01*
X200406843Y-46391691D01*
X200412618Y-46393758D01*
X200418162Y-46396380D01*
X200423423Y-46399533D01*
X200428350Y-46403187D01*
X200432894Y-46407306D01*
X200437013Y-46411850D01*
X200440667Y-46416777D01*
X200443820Y-46422038D01*
X200446442Y-46427582D01*
X200448509Y-46433357D01*
X200449999Y-46439307D01*
X200450899Y-46445374D01*
X200451200Y-46451500D01*
X200451200Y-46576500D01*
X200450899Y-46582626D01*
X200449999Y-46588693D01*
X200448509Y-46594643D01*
X200446442Y-46600418D01*
X200443820Y-46605962D01*
X200440667Y-46611223D01*
X200437013Y-46616150D01*
X200432894Y-46620694D01*
X200428350Y-46624813D01*
X200423423Y-46628467D01*
X200418162Y-46631620D01*
X200412618Y-46634242D01*
X200406843Y-46636309D01*
X200400893Y-46637799D01*
X200394826Y-46638699D01*
X200388700Y-46639000D01*
X199463700Y-46639000D01*
X199457574Y-46638699D01*
X199451507Y-46637799D01*
X199445557Y-46636309D01*
X199439782Y-46634242D01*
X199434238Y-46631620D01*
X199428977Y-46628467D01*
X199424050Y-46624813D01*
X199419506Y-46620694D01*
X199415387Y-46616150D01*
X199411733Y-46611223D01*
X199408580Y-46605962D01*
X199405958Y-46600418D01*
X199403891Y-46594643D01*
X199402401Y-46588693D01*
X199401501Y-46582626D01*
X199401200Y-46576500D01*
X199401200Y-46451500D01*
X199401501Y-46445374D01*
X199402401Y-46439307D01*
X199403891Y-46433357D01*
X199405958Y-46427582D01*
X199408580Y-46422038D01*
X199411733Y-46416777D01*
X199415387Y-46411850D01*
X199419506Y-46407306D01*
X199424050Y-46403187D01*
X199428977Y-46399533D01*
X199434238Y-46396380D01*
X199439782Y-46393758D01*
X199445557Y-46391691D01*
X199451507Y-46390201D01*
X199457574Y-46389301D01*
X199463700Y-46389000D01*
X200388700Y-46389000D01*
X200394826Y-46389301D01*
X200394826Y-46389301D01*
G37*
D15*
X199926200Y-46514000D03*
D13*
G36*
X200394826Y-46889301D02*
X200400893Y-46890201D01*
X200406843Y-46891691D01*
X200412618Y-46893758D01*
X200418162Y-46896380D01*
X200423423Y-46899533D01*
X200428350Y-46903187D01*
X200432894Y-46907306D01*
X200437013Y-46911850D01*
X200440667Y-46916777D01*
X200443820Y-46922038D01*
X200446442Y-46927582D01*
X200448509Y-46933357D01*
X200449999Y-46939307D01*
X200450899Y-46945374D01*
X200451200Y-46951500D01*
X200451200Y-47076500D01*
X200450899Y-47082626D01*
X200449999Y-47088693D01*
X200448509Y-47094643D01*
X200446442Y-47100418D01*
X200443820Y-47105962D01*
X200440667Y-47111223D01*
X200437013Y-47116150D01*
X200432894Y-47120694D01*
X200428350Y-47124813D01*
X200423423Y-47128467D01*
X200418162Y-47131620D01*
X200412618Y-47134242D01*
X200406843Y-47136309D01*
X200400893Y-47137799D01*
X200394826Y-47138699D01*
X200388700Y-47139000D01*
X199463700Y-47139000D01*
X199457574Y-47138699D01*
X199451507Y-47137799D01*
X199445557Y-47136309D01*
X199439782Y-47134242D01*
X199434238Y-47131620D01*
X199428977Y-47128467D01*
X199424050Y-47124813D01*
X199419506Y-47120694D01*
X199415387Y-47116150D01*
X199411733Y-47111223D01*
X199408580Y-47105962D01*
X199405958Y-47100418D01*
X199403891Y-47094643D01*
X199402401Y-47088693D01*
X199401501Y-47082626D01*
X199401200Y-47076500D01*
X199401200Y-46951500D01*
X199401501Y-46945374D01*
X199402401Y-46939307D01*
X199403891Y-46933357D01*
X199405958Y-46927582D01*
X199408580Y-46922038D01*
X199411733Y-46916777D01*
X199415387Y-46911850D01*
X199419506Y-46907306D01*
X199424050Y-46903187D01*
X199428977Y-46899533D01*
X199434238Y-46896380D01*
X199439782Y-46893758D01*
X199445557Y-46891691D01*
X199451507Y-46890201D01*
X199457574Y-46889301D01*
X199463700Y-46889000D01*
X200388700Y-46889000D01*
X200394826Y-46889301D01*
X200394826Y-46889301D01*
G37*
D15*
X199926200Y-47014000D03*
D13*
G36*
X200394826Y-47389301D02*
X200400893Y-47390201D01*
X200406843Y-47391691D01*
X200412618Y-47393758D01*
X200418162Y-47396380D01*
X200423423Y-47399533D01*
X200428350Y-47403187D01*
X200432894Y-47407306D01*
X200437013Y-47411850D01*
X200440667Y-47416777D01*
X200443820Y-47422038D01*
X200446442Y-47427582D01*
X200448509Y-47433357D01*
X200449999Y-47439307D01*
X200450899Y-47445374D01*
X200451200Y-47451500D01*
X200451200Y-47576500D01*
X200450899Y-47582626D01*
X200449999Y-47588693D01*
X200448509Y-47594643D01*
X200446442Y-47600418D01*
X200443820Y-47605962D01*
X200440667Y-47611223D01*
X200437013Y-47616150D01*
X200432894Y-47620694D01*
X200428350Y-47624813D01*
X200423423Y-47628467D01*
X200418162Y-47631620D01*
X200412618Y-47634242D01*
X200406843Y-47636309D01*
X200400893Y-47637799D01*
X200394826Y-47638699D01*
X200388700Y-47639000D01*
X199463700Y-47639000D01*
X199457574Y-47638699D01*
X199451507Y-47637799D01*
X199445557Y-47636309D01*
X199439782Y-47634242D01*
X199434238Y-47631620D01*
X199428977Y-47628467D01*
X199424050Y-47624813D01*
X199419506Y-47620694D01*
X199415387Y-47616150D01*
X199411733Y-47611223D01*
X199408580Y-47605962D01*
X199405958Y-47600418D01*
X199403891Y-47594643D01*
X199402401Y-47588693D01*
X199401501Y-47582626D01*
X199401200Y-47576500D01*
X199401200Y-47451500D01*
X199401501Y-47445374D01*
X199402401Y-47439307D01*
X199403891Y-47433357D01*
X199405958Y-47427582D01*
X199408580Y-47422038D01*
X199411733Y-47416777D01*
X199415387Y-47411850D01*
X199419506Y-47407306D01*
X199424050Y-47403187D01*
X199428977Y-47399533D01*
X199434238Y-47396380D01*
X199439782Y-47393758D01*
X199445557Y-47391691D01*
X199451507Y-47390201D01*
X199457574Y-47389301D01*
X199463700Y-47389000D01*
X200388700Y-47389000D01*
X200394826Y-47389301D01*
X200394826Y-47389301D01*
G37*
D15*
X199926200Y-47514000D03*
D13*
G36*
X200394826Y-47889301D02*
X200400893Y-47890201D01*
X200406843Y-47891691D01*
X200412618Y-47893758D01*
X200418162Y-47896380D01*
X200423423Y-47899533D01*
X200428350Y-47903187D01*
X200432894Y-47907306D01*
X200437013Y-47911850D01*
X200440667Y-47916777D01*
X200443820Y-47922038D01*
X200446442Y-47927582D01*
X200448509Y-47933357D01*
X200449999Y-47939307D01*
X200450899Y-47945374D01*
X200451200Y-47951500D01*
X200451200Y-48076500D01*
X200450899Y-48082626D01*
X200449999Y-48088693D01*
X200448509Y-48094643D01*
X200446442Y-48100418D01*
X200443820Y-48105962D01*
X200440667Y-48111223D01*
X200437013Y-48116150D01*
X200432894Y-48120694D01*
X200428350Y-48124813D01*
X200423423Y-48128467D01*
X200418162Y-48131620D01*
X200412618Y-48134242D01*
X200406843Y-48136309D01*
X200400893Y-48137799D01*
X200394826Y-48138699D01*
X200388700Y-48139000D01*
X199463700Y-48139000D01*
X199457574Y-48138699D01*
X199451507Y-48137799D01*
X199445557Y-48136309D01*
X199439782Y-48134242D01*
X199434238Y-48131620D01*
X199428977Y-48128467D01*
X199424050Y-48124813D01*
X199419506Y-48120694D01*
X199415387Y-48116150D01*
X199411733Y-48111223D01*
X199408580Y-48105962D01*
X199405958Y-48100418D01*
X199403891Y-48094643D01*
X199402401Y-48088693D01*
X199401501Y-48082626D01*
X199401200Y-48076500D01*
X199401200Y-47951500D01*
X199401501Y-47945374D01*
X199402401Y-47939307D01*
X199403891Y-47933357D01*
X199405958Y-47927582D01*
X199408580Y-47922038D01*
X199411733Y-47916777D01*
X199415387Y-47911850D01*
X199419506Y-47907306D01*
X199424050Y-47903187D01*
X199428977Y-47899533D01*
X199434238Y-47896380D01*
X199439782Y-47893758D01*
X199445557Y-47891691D01*
X199451507Y-47890201D01*
X199457574Y-47889301D01*
X199463700Y-47889000D01*
X200388700Y-47889000D01*
X200394826Y-47889301D01*
X200394826Y-47889301D01*
G37*
D15*
X199926200Y-48014000D03*
D13*
G36*
X200394826Y-48389301D02*
X200400893Y-48390201D01*
X200406843Y-48391691D01*
X200412618Y-48393758D01*
X200418162Y-48396380D01*
X200423423Y-48399533D01*
X200428350Y-48403187D01*
X200432894Y-48407306D01*
X200437013Y-48411850D01*
X200440667Y-48416777D01*
X200443820Y-48422038D01*
X200446442Y-48427582D01*
X200448509Y-48433357D01*
X200449999Y-48439307D01*
X200450899Y-48445374D01*
X200451200Y-48451500D01*
X200451200Y-48576500D01*
X200450899Y-48582626D01*
X200449999Y-48588693D01*
X200448509Y-48594643D01*
X200446442Y-48600418D01*
X200443820Y-48605962D01*
X200440667Y-48611223D01*
X200437013Y-48616150D01*
X200432894Y-48620694D01*
X200428350Y-48624813D01*
X200423423Y-48628467D01*
X200418162Y-48631620D01*
X200412618Y-48634242D01*
X200406843Y-48636309D01*
X200400893Y-48637799D01*
X200394826Y-48638699D01*
X200388700Y-48639000D01*
X199463700Y-48639000D01*
X199457574Y-48638699D01*
X199451507Y-48637799D01*
X199445557Y-48636309D01*
X199439782Y-48634242D01*
X199434238Y-48631620D01*
X199428977Y-48628467D01*
X199424050Y-48624813D01*
X199419506Y-48620694D01*
X199415387Y-48616150D01*
X199411733Y-48611223D01*
X199408580Y-48605962D01*
X199405958Y-48600418D01*
X199403891Y-48594643D01*
X199402401Y-48588693D01*
X199401501Y-48582626D01*
X199401200Y-48576500D01*
X199401200Y-48451500D01*
X199401501Y-48445374D01*
X199402401Y-48439307D01*
X199403891Y-48433357D01*
X199405958Y-48427582D01*
X199408580Y-48422038D01*
X199411733Y-48416777D01*
X199415387Y-48411850D01*
X199419506Y-48407306D01*
X199424050Y-48403187D01*
X199428977Y-48399533D01*
X199434238Y-48396380D01*
X199439782Y-48393758D01*
X199445557Y-48391691D01*
X199451507Y-48390201D01*
X199457574Y-48389301D01*
X199463700Y-48389000D01*
X200388700Y-48389000D01*
X200394826Y-48389301D01*
X200394826Y-48389301D01*
G37*
D15*
X199926200Y-48514000D03*
D13*
G36*
X200394826Y-48889301D02*
X200400893Y-48890201D01*
X200406843Y-48891691D01*
X200412618Y-48893758D01*
X200418162Y-48896380D01*
X200423423Y-48899533D01*
X200428350Y-48903187D01*
X200432894Y-48907306D01*
X200437013Y-48911850D01*
X200440667Y-48916777D01*
X200443820Y-48922038D01*
X200446442Y-48927582D01*
X200448509Y-48933357D01*
X200449999Y-48939307D01*
X200450899Y-48945374D01*
X200451200Y-48951500D01*
X200451200Y-49076500D01*
X200450899Y-49082626D01*
X200449999Y-49088693D01*
X200448509Y-49094643D01*
X200446442Y-49100418D01*
X200443820Y-49105962D01*
X200440667Y-49111223D01*
X200437013Y-49116150D01*
X200432894Y-49120694D01*
X200428350Y-49124813D01*
X200423423Y-49128467D01*
X200418162Y-49131620D01*
X200412618Y-49134242D01*
X200406843Y-49136309D01*
X200400893Y-49137799D01*
X200394826Y-49138699D01*
X200388700Y-49139000D01*
X199463700Y-49139000D01*
X199457574Y-49138699D01*
X199451507Y-49137799D01*
X199445557Y-49136309D01*
X199439782Y-49134242D01*
X199434238Y-49131620D01*
X199428977Y-49128467D01*
X199424050Y-49124813D01*
X199419506Y-49120694D01*
X199415387Y-49116150D01*
X199411733Y-49111223D01*
X199408580Y-49105962D01*
X199405958Y-49100418D01*
X199403891Y-49094643D01*
X199402401Y-49088693D01*
X199401501Y-49082626D01*
X199401200Y-49076500D01*
X199401200Y-48951500D01*
X199401501Y-48945374D01*
X199402401Y-48939307D01*
X199403891Y-48933357D01*
X199405958Y-48927582D01*
X199408580Y-48922038D01*
X199411733Y-48916777D01*
X199415387Y-48911850D01*
X199419506Y-48907306D01*
X199424050Y-48903187D01*
X199428977Y-48899533D01*
X199434238Y-48896380D01*
X199439782Y-48893758D01*
X199445557Y-48891691D01*
X199451507Y-48890201D01*
X199457574Y-48889301D01*
X199463700Y-48889000D01*
X200388700Y-48889000D01*
X200394826Y-48889301D01*
X200394826Y-48889301D01*
G37*
D15*
X199926200Y-49014000D03*
D13*
G36*
X200394826Y-49389301D02*
X200400893Y-49390201D01*
X200406843Y-49391691D01*
X200412618Y-49393758D01*
X200418162Y-49396380D01*
X200423423Y-49399533D01*
X200428350Y-49403187D01*
X200432894Y-49407306D01*
X200437013Y-49411850D01*
X200440667Y-49416777D01*
X200443820Y-49422038D01*
X200446442Y-49427582D01*
X200448509Y-49433357D01*
X200449999Y-49439307D01*
X200450899Y-49445374D01*
X200451200Y-49451500D01*
X200451200Y-49576500D01*
X200450899Y-49582626D01*
X200449999Y-49588693D01*
X200448509Y-49594643D01*
X200446442Y-49600418D01*
X200443820Y-49605962D01*
X200440667Y-49611223D01*
X200437013Y-49616150D01*
X200432894Y-49620694D01*
X200428350Y-49624813D01*
X200423423Y-49628467D01*
X200418162Y-49631620D01*
X200412618Y-49634242D01*
X200406843Y-49636309D01*
X200400893Y-49637799D01*
X200394826Y-49638699D01*
X200388700Y-49639000D01*
X199463700Y-49639000D01*
X199457574Y-49638699D01*
X199451507Y-49637799D01*
X199445557Y-49636309D01*
X199439782Y-49634242D01*
X199434238Y-49631620D01*
X199428977Y-49628467D01*
X199424050Y-49624813D01*
X199419506Y-49620694D01*
X199415387Y-49616150D01*
X199411733Y-49611223D01*
X199408580Y-49605962D01*
X199405958Y-49600418D01*
X199403891Y-49594643D01*
X199402401Y-49588693D01*
X199401501Y-49582626D01*
X199401200Y-49576500D01*
X199401200Y-49451500D01*
X199401501Y-49445374D01*
X199402401Y-49439307D01*
X199403891Y-49433357D01*
X199405958Y-49427582D01*
X199408580Y-49422038D01*
X199411733Y-49416777D01*
X199415387Y-49411850D01*
X199419506Y-49407306D01*
X199424050Y-49403187D01*
X199428977Y-49399533D01*
X199434238Y-49396380D01*
X199439782Y-49393758D01*
X199445557Y-49391691D01*
X199451507Y-49390201D01*
X199457574Y-49389301D01*
X199463700Y-49389000D01*
X200388700Y-49389000D01*
X200394826Y-49389301D01*
X200394826Y-49389301D01*
G37*
D15*
X199926200Y-49514000D03*
D13*
G36*
X200394826Y-49889301D02*
X200400893Y-49890201D01*
X200406843Y-49891691D01*
X200412618Y-49893758D01*
X200418162Y-49896380D01*
X200423423Y-49899533D01*
X200428350Y-49903187D01*
X200432894Y-49907306D01*
X200437013Y-49911850D01*
X200440667Y-49916777D01*
X200443820Y-49922038D01*
X200446442Y-49927582D01*
X200448509Y-49933357D01*
X200449999Y-49939307D01*
X200450899Y-49945374D01*
X200451200Y-49951500D01*
X200451200Y-50076500D01*
X200450899Y-50082626D01*
X200449999Y-50088693D01*
X200448509Y-50094643D01*
X200446442Y-50100418D01*
X200443820Y-50105962D01*
X200440667Y-50111223D01*
X200437013Y-50116150D01*
X200432894Y-50120694D01*
X200428350Y-50124813D01*
X200423423Y-50128467D01*
X200418162Y-50131620D01*
X200412618Y-50134242D01*
X200406843Y-50136309D01*
X200400893Y-50137799D01*
X200394826Y-50138699D01*
X200388700Y-50139000D01*
X199463700Y-50139000D01*
X199457574Y-50138699D01*
X199451507Y-50137799D01*
X199445557Y-50136309D01*
X199439782Y-50134242D01*
X199434238Y-50131620D01*
X199428977Y-50128467D01*
X199424050Y-50124813D01*
X199419506Y-50120694D01*
X199415387Y-50116150D01*
X199411733Y-50111223D01*
X199408580Y-50105962D01*
X199405958Y-50100418D01*
X199403891Y-50094643D01*
X199402401Y-50088693D01*
X199401501Y-50082626D01*
X199401200Y-50076500D01*
X199401200Y-49951500D01*
X199401501Y-49945374D01*
X199402401Y-49939307D01*
X199403891Y-49933357D01*
X199405958Y-49927582D01*
X199408580Y-49922038D01*
X199411733Y-49916777D01*
X199415387Y-49911850D01*
X199419506Y-49907306D01*
X199424050Y-49903187D01*
X199428977Y-49899533D01*
X199434238Y-49896380D01*
X199439782Y-49893758D01*
X199445557Y-49891691D01*
X199451507Y-49890201D01*
X199457574Y-49889301D01*
X199463700Y-49889000D01*
X200388700Y-49889000D01*
X200394826Y-49889301D01*
X200394826Y-49889301D01*
G37*
D15*
X199926200Y-50014000D03*
D13*
G36*
X200394826Y-50389301D02*
X200400893Y-50390201D01*
X200406843Y-50391691D01*
X200412618Y-50393758D01*
X200418162Y-50396380D01*
X200423423Y-50399533D01*
X200428350Y-50403187D01*
X200432894Y-50407306D01*
X200437013Y-50411850D01*
X200440667Y-50416777D01*
X200443820Y-50422038D01*
X200446442Y-50427582D01*
X200448509Y-50433357D01*
X200449999Y-50439307D01*
X200450899Y-50445374D01*
X200451200Y-50451500D01*
X200451200Y-50576500D01*
X200450899Y-50582626D01*
X200449999Y-50588693D01*
X200448509Y-50594643D01*
X200446442Y-50600418D01*
X200443820Y-50605962D01*
X200440667Y-50611223D01*
X200437013Y-50616150D01*
X200432894Y-50620694D01*
X200428350Y-50624813D01*
X200423423Y-50628467D01*
X200418162Y-50631620D01*
X200412618Y-50634242D01*
X200406843Y-50636309D01*
X200400893Y-50637799D01*
X200394826Y-50638699D01*
X200388700Y-50639000D01*
X199463700Y-50639000D01*
X199457574Y-50638699D01*
X199451507Y-50637799D01*
X199445557Y-50636309D01*
X199439782Y-50634242D01*
X199434238Y-50631620D01*
X199428977Y-50628467D01*
X199424050Y-50624813D01*
X199419506Y-50620694D01*
X199415387Y-50616150D01*
X199411733Y-50611223D01*
X199408580Y-50605962D01*
X199405958Y-50600418D01*
X199403891Y-50594643D01*
X199402401Y-50588693D01*
X199401501Y-50582626D01*
X199401200Y-50576500D01*
X199401200Y-50451500D01*
X199401501Y-50445374D01*
X199402401Y-50439307D01*
X199403891Y-50433357D01*
X199405958Y-50427582D01*
X199408580Y-50422038D01*
X199411733Y-50416777D01*
X199415387Y-50411850D01*
X199419506Y-50407306D01*
X199424050Y-50403187D01*
X199428977Y-50399533D01*
X199434238Y-50396380D01*
X199439782Y-50393758D01*
X199445557Y-50391691D01*
X199451507Y-50390201D01*
X199457574Y-50389301D01*
X199463700Y-50389000D01*
X200388700Y-50389000D01*
X200394826Y-50389301D01*
X200394826Y-50389301D01*
G37*
D15*
X199926200Y-50514000D03*
D13*
G36*
X200394826Y-50889301D02*
X200400893Y-50890201D01*
X200406843Y-50891691D01*
X200412618Y-50893758D01*
X200418162Y-50896380D01*
X200423423Y-50899533D01*
X200428350Y-50903187D01*
X200432894Y-50907306D01*
X200437013Y-50911850D01*
X200440667Y-50916777D01*
X200443820Y-50922038D01*
X200446442Y-50927582D01*
X200448509Y-50933357D01*
X200449999Y-50939307D01*
X200450899Y-50945374D01*
X200451200Y-50951500D01*
X200451200Y-51076500D01*
X200450899Y-51082626D01*
X200449999Y-51088693D01*
X200448509Y-51094643D01*
X200446442Y-51100418D01*
X200443820Y-51105962D01*
X200440667Y-51111223D01*
X200437013Y-51116150D01*
X200432894Y-51120694D01*
X200428350Y-51124813D01*
X200423423Y-51128467D01*
X200418162Y-51131620D01*
X200412618Y-51134242D01*
X200406843Y-51136309D01*
X200400893Y-51137799D01*
X200394826Y-51138699D01*
X200388700Y-51139000D01*
X199463700Y-51139000D01*
X199457574Y-51138699D01*
X199451507Y-51137799D01*
X199445557Y-51136309D01*
X199439782Y-51134242D01*
X199434238Y-51131620D01*
X199428977Y-51128467D01*
X199424050Y-51124813D01*
X199419506Y-51120694D01*
X199415387Y-51116150D01*
X199411733Y-51111223D01*
X199408580Y-51105962D01*
X199405958Y-51100418D01*
X199403891Y-51094643D01*
X199402401Y-51088693D01*
X199401501Y-51082626D01*
X199401200Y-51076500D01*
X199401200Y-50951500D01*
X199401501Y-50945374D01*
X199402401Y-50939307D01*
X199403891Y-50933357D01*
X199405958Y-50927582D01*
X199408580Y-50922038D01*
X199411733Y-50916777D01*
X199415387Y-50911850D01*
X199419506Y-50907306D01*
X199424050Y-50903187D01*
X199428977Y-50899533D01*
X199434238Y-50896380D01*
X199439782Y-50893758D01*
X199445557Y-50891691D01*
X199451507Y-50890201D01*
X199457574Y-50889301D01*
X199463700Y-50889000D01*
X200388700Y-50889000D01*
X200394826Y-50889301D01*
X200394826Y-50889301D01*
G37*
D15*
X199926200Y-51014000D03*
D13*
G36*
X200844826Y-51339301D02*
X200850893Y-51340201D01*
X200856843Y-51341691D01*
X200862618Y-51343758D01*
X200868162Y-51346380D01*
X200873423Y-51349533D01*
X200878350Y-51353187D01*
X200882894Y-51357306D01*
X200887013Y-51361850D01*
X200890667Y-51366777D01*
X200893820Y-51372038D01*
X200896442Y-51377582D01*
X200898509Y-51383357D01*
X200899999Y-51389307D01*
X200900899Y-51395374D01*
X200901200Y-51401500D01*
X200901200Y-52326500D01*
X200900899Y-52332626D01*
X200899999Y-52338693D01*
X200898509Y-52344643D01*
X200896442Y-52350418D01*
X200893820Y-52355962D01*
X200890667Y-52361223D01*
X200887013Y-52366150D01*
X200882894Y-52370694D01*
X200878350Y-52374813D01*
X200873423Y-52378467D01*
X200868162Y-52381620D01*
X200862618Y-52384242D01*
X200856843Y-52386309D01*
X200850893Y-52387799D01*
X200844826Y-52388699D01*
X200838700Y-52389000D01*
X200713700Y-52389000D01*
X200707574Y-52388699D01*
X200701507Y-52387799D01*
X200695557Y-52386309D01*
X200689782Y-52384242D01*
X200684238Y-52381620D01*
X200678977Y-52378467D01*
X200674050Y-52374813D01*
X200669506Y-52370694D01*
X200665387Y-52366150D01*
X200661733Y-52361223D01*
X200658580Y-52355962D01*
X200655958Y-52350418D01*
X200653891Y-52344643D01*
X200652401Y-52338693D01*
X200651501Y-52332626D01*
X200651200Y-52326500D01*
X200651200Y-51401500D01*
X200651501Y-51395374D01*
X200652401Y-51389307D01*
X200653891Y-51383357D01*
X200655958Y-51377582D01*
X200658580Y-51372038D01*
X200661733Y-51366777D01*
X200665387Y-51361850D01*
X200669506Y-51357306D01*
X200674050Y-51353187D01*
X200678977Y-51349533D01*
X200684238Y-51346380D01*
X200689782Y-51343758D01*
X200695557Y-51341691D01*
X200701507Y-51340201D01*
X200707574Y-51339301D01*
X200713700Y-51339000D01*
X200838700Y-51339000D01*
X200844826Y-51339301D01*
X200844826Y-51339301D01*
G37*
D15*
X200776200Y-51864000D03*
D13*
G36*
X201344826Y-51339301D02*
X201350893Y-51340201D01*
X201356843Y-51341691D01*
X201362618Y-51343758D01*
X201368162Y-51346380D01*
X201373423Y-51349533D01*
X201378350Y-51353187D01*
X201382894Y-51357306D01*
X201387013Y-51361850D01*
X201390667Y-51366777D01*
X201393820Y-51372038D01*
X201396442Y-51377582D01*
X201398509Y-51383357D01*
X201399999Y-51389307D01*
X201400899Y-51395374D01*
X201401200Y-51401500D01*
X201401200Y-52326500D01*
X201400899Y-52332626D01*
X201399999Y-52338693D01*
X201398509Y-52344643D01*
X201396442Y-52350418D01*
X201393820Y-52355962D01*
X201390667Y-52361223D01*
X201387013Y-52366150D01*
X201382894Y-52370694D01*
X201378350Y-52374813D01*
X201373423Y-52378467D01*
X201368162Y-52381620D01*
X201362618Y-52384242D01*
X201356843Y-52386309D01*
X201350893Y-52387799D01*
X201344826Y-52388699D01*
X201338700Y-52389000D01*
X201213700Y-52389000D01*
X201207574Y-52388699D01*
X201201507Y-52387799D01*
X201195557Y-52386309D01*
X201189782Y-52384242D01*
X201184238Y-52381620D01*
X201178977Y-52378467D01*
X201174050Y-52374813D01*
X201169506Y-52370694D01*
X201165387Y-52366150D01*
X201161733Y-52361223D01*
X201158580Y-52355962D01*
X201155958Y-52350418D01*
X201153891Y-52344643D01*
X201152401Y-52338693D01*
X201151501Y-52332626D01*
X201151200Y-52326500D01*
X201151200Y-51401500D01*
X201151501Y-51395374D01*
X201152401Y-51389307D01*
X201153891Y-51383357D01*
X201155958Y-51377582D01*
X201158580Y-51372038D01*
X201161733Y-51366777D01*
X201165387Y-51361850D01*
X201169506Y-51357306D01*
X201174050Y-51353187D01*
X201178977Y-51349533D01*
X201184238Y-51346380D01*
X201189782Y-51343758D01*
X201195557Y-51341691D01*
X201201507Y-51340201D01*
X201207574Y-51339301D01*
X201213700Y-51339000D01*
X201338700Y-51339000D01*
X201344826Y-51339301D01*
X201344826Y-51339301D01*
G37*
D15*
X201276200Y-51864000D03*
D13*
G36*
X201844826Y-51339301D02*
X201850893Y-51340201D01*
X201856843Y-51341691D01*
X201862618Y-51343758D01*
X201868162Y-51346380D01*
X201873423Y-51349533D01*
X201878350Y-51353187D01*
X201882894Y-51357306D01*
X201887013Y-51361850D01*
X201890667Y-51366777D01*
X201893820Y-51372038D01*
X201896442Y-51377582D01*
X201898509Y-51383357D01*
X201899999Y-51389307D01*
X201900899Y-51395374D01*
X201901200Y-51401500D01*
X201901200Y-52326500D01*
X201900899Y-52332626D01*
X201899999Y-52338693D01*
X201898509Y-52344643D01*
X201896442Y-52350418D01*
X201893820Y-52355962D01*
X201890667Y-52361223D01*
X201887013Y-52366150D01*
X201882894Y-52370694D01*
X201878350Y-52374813D01*
X201873423Y-52378467D01*
X201868162Y-52381620D01*
X201862618Y-52384242D01*
X201856843Y-52386309D01*
X201850893Y-52387799D01*
X201844826Y-52388699D01*
X201838700Y-52389000D01*
X201713700Y-52389000D01*
X201707574Y-52388699D01*
X201701507Y-52387799D01*
X201695557Y-52386309D01*
X201689782Y-52384242D01*
X201684238Y-52381620D01*
X201678977Y-52378467D01*
X201674050Y-52374813D01*
X201669506Y-52370694D01*
X201665387Y-52366150D01*
X201661733Y-52361223D01*
X201658580Y-52355962D01*
X201655958Y-52350418D01*
X201653891Y-52344643D01*
X201652401Y-52338693D01*
X201651501Y-52332626D01*
X201651200Y-52326500D01*
X201651200Y-51401500D01*
X201651501Y-51395374D01*
X201652401Y-51389307D01*
X201653891Y-51383357D01*
X201655958Y-51377582D01*
X201658580Y-51372038D01*
X201661733Y-51366777D01*
X201665387Y-51361850D01*
X201669506Y-51357306D01*
X201674050Y-51353187D01*
X201678977Y-51349533D01*
X201684238Y-51346380D01*
X201689782Y-51343758D01*
X201695557Y-51341691D01*
X201701507Y-51340201D01*
X201707574Y-51339301D01*
X201713700Y-51339000D01*
X201838700Y-51339000D01*
X201844826Y-51339301D01*
X201844826Y-51339301D01*
G37*
D15*
X201776200Y-51864000D03*
D13*
G36*
X202344826Y-51339301D02*
X202350893Y-51340201D01*
X202356843Y-51341691D01*
X202362618Y-51343758D01*
X202368162Y-51346380D01*
X202373423Y-51349533D01*
X202378350Y-51353187D01*
X202382894Y-51357306D01*
X202387013Y-51361850D01*
X202390667Y-51366777D01*
X202393820Y-51372038D01*
X202396442Y-51377582D01*
X202398509Y-51383357D01*
X202399999Y-51389307D01*
X202400899Y-51395374D01*
X202401200Y-51401500D01*
X202401200Y-52326500D01*
X202400899Y-52332626D01*
X202399999Y-52338693D01*
X202398509Y-52344643D01*
X202396442Y-52350418D01*
X202393820Y-52355962D01*
X202390667Y-52361223D01*
X202387013Y-52366150D01*
X202382894Y-52370694D01*
X202378350Y-52374813D01*
X202373423Y-52378467D01*
X202368162Y-52381620D01*
X202362618Y-52384242D01*
X202356843Y-52386309D01*
X202350893Y-52387799D01*
X202344826Y-52388699D01*
X202338700Y-52389000D01*
X202213700Y-52389000D01*
X202207574Y-52388699D01*
X202201507Y-52387799D01*
X202195557Y-52386309D01*
X202189782Y-52384242D01*
X202184238Y-52381620D01*
X202178977Y-52378467D01*
X202174050Y-52374813D01*
X202169506Y-52370694D01*
X202165387Y-52366150D01*
X202161733Y-52361223D01*
X202158580Y-52355962D01*
X202155958Y-52350418D01*
X202153891Y-52344643D01*
X202152401Y-52338693D01*
X202151501Y-52332626D01*
X202151200Y-52326500D01*
X202151200Y-51401500D01*
X202151501Y-51395374D01*
X202152401Y-51389307D01*
X202153891Y-51383357D01*
X202155958Y-51377582D01*
X202158580Y-51372038D01*
X202161733Y-51366777D01*
X202165387Y-51361850D01*
X202169506Y-51357306D01*
X202174050Y-51353187D01*
X202178977Y-51349533D01*
X202184238Y-51346380D01*
X202189782Y-51343758D01*
X202195557Y-51341691D01*
X202201507Y-51340201D01*
X202207574Y-51339301D01*
X202213700Y-51339000D01*
X202338700Y-51339000D01*
X202344826Y-51339301D01*
X202344826Y-51339301D01*
G37*
D15*
X202276200Y-51864000D03*
D13*
G36*
X202844826Y-51339301D02*
X202850893Y-51340201D01*
X202856843Y-51341691D01*
X202862618Y-51343758D01*
X202868162Y-51346380D01*
X202873423Y-51349533D01*
X202878350Y-51353187D01*
X202882894Y-51357306D01*
X202887013Y-51361850D01*
X202890667Y-51366777D01*
X202893820Y-51372038D01*
X202896442Y-51377582D01*
X202898509Y-51383357D01*
X202899999Y-51389307D01*
X202900899Y-51395374D01*
X202901200Y-51401500D01*
X202901200Y-52326500D01*
X202900899Y-52332626D01*
X202899999Y-52338693D01*
X202898509Y-52344643D01*
X202896442Y-52350418D01*
X202893820Y-52355962D01*
X202890667Y-52361223D01*
X202887013Y-52366150D01*
X202882894Y-52370694D01*
X202878350Y-52374813D01*
X202873423Y-52378467D01*
X202868162Y-52381620D01*
X202862618Y-52384242D01*
X202856843Y-52386309D01*
X202850893Y-52387799D01*
X202844826Y-52388699D01*
X202838700Y-52389000D01*
X202713700Y-52389000D01*
X202707574Y-52388699D01*
X202701507Y-52387799D01*
X202695557Y-52386309D01*
X202689782Y-52384242D01*
X202684238Y-52381620D01*
X202678977Y-52378467D01*
X202674050Y-52374813D01*
X202669506Y-52370694D01*
X202665387Y-52366150D01*
X202661733Y-52361223D01*
X202658580Y-52355962D01*
X202655958Y-52350418D01*
X202653891Y-52344643D01*
X202652401Y-52338693D01*
X202651501Y-52332626D01*
X202651200Y-52326500D01*
X202651200Y-51401500D01*
X202651501Y-51395374D01*
X202652401Y-51389307D01*
X202653891Y-51383357D01*
X202655958Y-51377582D01*
X202658580Y-51372038D01*
X202661733Y-51366777D01*
X202665387Y-51361850D01*
X202669506Y-51357306D01*
X202674050Y-51353187D01*
X202678977Y-51349533D01*
X202684238Y-51346380D01*
X202689782Y-51343758D01*
X202695557Y-51341691D01*
X202701507Y-51340201D01*
X202707574Y-51339301D01*
X202713700Y-51339000D01*
X202838700Y-51339000D01*
X202844826Y-51339301D01*
X202844826Y-51339301D01*
G37*
D15*
X202776200Y-51864000D03*
D13*
G36*
X203344826Y-51339301D02*
X203350893Y-51340201D01*
X203356843Y-51341691D01*
X203362618Y-51343758D01*
X203368162Y-51346380D01*
X203373423Y-51349533D01*
X203378350Y-51353187D01*
X203382894Y-51357306D01*
X203387013Y-51361850D01*
X203390667Y-51366777D01*
X203393820Y-51372038D01*
X203396442Y-51377582D01*
X203398509Y-51383357D01*
X203399999Y-51389307D01*
X203400899Y-51395374D01*
X203401200Y-51401500D01*
X203401200Y-52326500D01*
X203400899Y-52332626D01*
X203399999Y-52338693D01*
X203398509Y-52344643D01*
X203396442Y-52350418D01*
X203393820Y-52355962D01*
X203390667Y-52361223D01*
X203387013Y-52366150D01*
X203382894Y-52370694D01*
X203378350Y-52374813D01*
X203373423Y-52378467D01*
X203368162Y-52381620D01*
X203362618Y-52384242D01*
X203356843Y-52386309D01*
X203350893Y-52387799D01*
X203344826Y-52388699D01*
X203338700Y-52389000D01*
X203213700Y-52389000D01*
X203207574Y-52388699D01*
X203201507Y-52387799D01*
X203195557Y-52386309D01*
X203189782Y-52384242D01*
X203184238Y-52381620D01*
X203178977Y-52378467D01*
X203174050Y-52374813D01*
X203169506Y-52370694D01*
X203165387Y-52366150D01*
X203161733Y-52361223D01*
X203158580Y-52355962D01*
X203155958Y-52350418D01*
X203153891Y-52344643D01*
X203152401Y-52338693D01*
X203151501Y-52332626D01*
X203151200Y-52326500D01*
X203151200Y-51401500D01*
X203151501Y-51395374D01*
X203152401Y-51389307D01*
X203153891Y-51383357D01*
X203155958Y-51377582D01*
X203158580Y-51372038D01*
X203161733Y-51366777D01*
X203165387Y-51361850D01*
X203169506Y-51357306D01*
X203174050Y-51353187D01*
X203178977Y-51349533D01*
X203184238Y-51346380D01*
X203189782Y-51343758D01*
X203195557Y-51341691D01*
X203201507Y-51340201D01*
X203207574Y-51339301D01*
X203213700Y-51339000D01*
X203338700Y-51339000D01*
X203344826Y-51339301D01*
X203344826Y-51339301D01*
G37*
D15*
X203276200Y-51864000D03*
D13*
G36*
X203844826Y-51339301D02*
X203850893Y-51340201D01*
X203856843Y-51341691D01*
X203862618Y-51343758D01*
X203868162Y-51346380D01*
X203873423Y-51349533D01*
X203878350Y-51353187D01*
X203882894Y-51357306D01*
X203887013Y-51361850D01*
X203890667Y-51366777D01*
X203893820Y-51372038D01*
X203896442Y-51377582D01*
X203898509Y-51383357D01*
X203899999Y-51389307D01*
X203900899Y-51395374D01*
X203901200Y-51401500D01*
X203901200Y-52326500D01*
X203900899Y-52332626D01*
X203899999Y-52338693D01*
X203898509Y-52344643D01*
X203896442Y-52350418D01*
X203893820Y-52355962D01*
X203890667Y-52361223D01*
X203887013Y-52366150D01*
X203882894Y-52370694D01*
X203878350Y-52374813D01*
X203873423Y-52378467D01*
X203868162Y-52381620D01*
X203862618Y-52384242D01*
X203856843Y-52386309D01*
X203850893Y-52387799D01*
X203844826Y-52388699D01*
X203838700Y-52389000D01*
X203713700Y-52389000D01*
X203707574Y-52388699D01*
X203701507Y-52387799D01*
X203695557Y-52386309D01*
X203689782Y-52384242D01*
X203684238Y-52381620D01*
X203678977Y-52378467D01*
X203674050Y-52374813D01*
X203669506Y-52370694D01*
X203665387Y-52366150D01*
X203661733Y-52361223D01*
X203658580Y-52355962D01*
X203655958Y-52350418D01*
X203653891Y-52344643D01*
X203652401Y-52338693D01*
X203651501Y-52332626D01*
X203651200Y-52326500D01*
X203651200Y-51401500D01*
X203651501Y-51395374D01*
X203652401Y-51389307D01*
X203653891Y-51383357D01*
X203655958Y-51377582D01*
X203658580Y-51372038D01*
X203661733Y-51366777D01*
X203665387Y-51361850D01*
X203669506Y-51357306D01*
X203674050Y-51353187D01*
X203678977Y-51349533D01*
X203684238Y-51346380D01*
X203689782Y-51343758D01*
X203695557Y-51341691D01*
X203701507Y-51340201D01*
X203707574Y-51339301D01*
X203713700Y-51339000D01*
X203838700Y-51339000D01*
X203844826Y-51339301D01*
X203844826Y-51339301D01*
G37*
D15*
X203776200Y-51864000D03*
D13*
G36*
X204344826Y-51339301D02*
X204350893Y-51340201D01*
X204356843Y-51341691D01*
X204362618Y-51343758D01*
X204368162Y-51346380D01*
X204373423Y-51349533D01*
X204378350Y-51353187D01*
X204382894Y-51357306D01*
X204387013Y-51361850D01*
X204390667Y-51366777D01*
X204393820Y-51372038D01*
X204396442Y-51377582D01*
X204398509Y-51383357D01*
X204399999Y-51389307D01*
X204400899Y-51395374D01*
X204401200Y-51401500D01*
X204401200Y-52326500D01*
X204400899Y-52332626D01*
X204399999Y-52338693D01*
X204398509Y-52344643D01*
X204396442Y-52350418D01*
X204393820Y-52355962D01*
X204390667Y-52361223D01*
X204387013Y-52366150D01*
X204382894Y-52370694D01*
X204378350Y-52374813D01*
X204373423Y-52378467D01*
X204368162Y-52381620D01*
X204362618Y-52384242D01*
X204356843Y-52386309D01*
X204350893Y-52387799D01*
X204344826Y-52388699D01*
X204338700Y-52389000D01*
X204213700Y-52389000D01*
X204207574Y-52388699D01*
X204201507Y-52387799D01*
X204195557Y-52386309D01*
X204189782Y-52384242D01*
X204184238Y-52381620D01*
X204178977Y-52378467D01*
X204174050Y-52374813D01*
X204169506Y-52370694D01*
X204165387Y-52366150D01*
X204161733Y-52361223D01*
X204158580Y-52355962D01*
X204155958Y-52350418D01*
X204153891Y-52344643D01*
X204152401Y-52338693D01*
X204151501Y-52332626D01*
X204151200Y-52326500D01*
X204151200Y-51401500D01*
X204151501Y-51395374D01*
X204152401Y-51389307D01*
X204153891Y-51383357D01*
X204155958Y-51377582D01*
X204158580Y-51372038D01*
X204161733Y-51366777D01*
X204165387Y-51361850D01*
X204169506Y-51357306D01*
X204174050Y-51353187D01*
X204178977Y-51349533D01*
X204184238Y-51346380D01*
X204189782Y-51343758D01*
X204195557Y-51341691D01*
X204201507Y-51340201D01*
X204207574Y-51339301D01*
X204213700Y-51339000D01*
X204338700Y-51339000D01*
X204344826Y-51339301D01*
X204344826Y-51339301D01*
G37*
D15*
X204276200Y-51864000D03*
D13*
G36*
X204844826Y-51339301D02*
X204850893Y-51340201D01*
X204856843Y-51341691D01*
X204862618Y-51343758D01*
X204868162Y-51346380D01*
X204873423Y-51349533D01*
X204878350Y-51353187D01*
X204882894Y-51357306D01*
X204887013Y-51361850D01*
X204890667Y-51366777D01*
X204893820Y-51372038D01*
X204896442Y-51377582D01*
X204898509Y-51383357D01*
X204899999Y-51389307D01*
X204900899Y-51395374D01*
X204901200Y-51401500D01*
X204901200Y-52326500D01*
X204900899Y-52332626D01*
X204899999Y-52338693D01*
X204898509Y-52344643D01*
X204896442Y-52350418D01*
X204893820Y-52355962D01*
X204890667Y-52361223D01*
X204887013Y-52366150D01*
X204882894Y-52370694D01*
X204878350Y-52374813D01*
X204873423Y-52378467D01*
X204868162Y-52381620D01*
X204862618Y-52384242D01*
X204856843Y-52386309D01*
X204850893Y-52387799D01*
X204844826Y-52388699D01*
X204838700Y-52389000D01*
X204713700Y-52389000D01*
X204707574Y-52388699D01*
X204701507Y-52387799D01*
X204695557Y-52386309D01*
X204689782Y-52384242D01*
X204684238Y-52381620D01*
X204678977Y-52378467D01*
X204674050Y-52374813D01*
X204669506Y-52370694D01*
X204665387Y-52366150D01*
X204661733Y-52361223D01*
X204658580Y-52355962D01*
X204655958Y-52350418D01*
X204653891Y-52344643D01*
X204652401Y-52338693D01*
X204651501Y-52332626D01*
X204651200Y-52326500D01*
X204651200Y-51401500D01*
X204651501Y-51395374D01*
X204652401Y-51389307D01*
X204653891Y-51383357D01*
X204655958Y-51377582D01*
X204658580Y-51372038D01*
X204661733Y-51366777D01*
X204665387Y-51361850D01*
X204669506Y-51357306D01*
X204674050Y-51353187D01*
X204678977Y-51349533D01*
X204684238Y-51346380D01*
X204689782Y-51343758D01*
X204695557Y-51341691D01*
X204701507Y-51340201D01*
X204707574Y-51339301D01*
X204713700Y-51339000D01*
X204838700Y-51339000D01*
X204844826Y-51339301D01*
X204844826Y-51339301D01*
G37*
D15*
X204776200Y-51864000D03*
D13*
G36*
X205344826Y-51339301D02*
X205350893Y-51340201D01*
X205356843Y-51341691D01*
X205362618Y-51343758D01*
X205368162Y-51346380D01*
X205373423Y-51349533D01*
X205378350Y-51353187D01*
X205382894Y-51357306D01*
X205387013Y-51361850D01*
X205390667Y-51366777D01*
X205393820Y-51372038D01*
X205396442Y-51377582D01*
X205398509Y-51383357D01*
X205399999Y-51389307D01*
X205400899Y-51395374D01*
X205401200Y-51401500D01*
X205401200Y-52326500D01*
X205400899Y-52332626D01*
X205399999Y-52338693D01*
X205398509Y-52344643D01*
X205396442Y-52350418D01*
X205393820Y-52355962D01*
X205390667Y-52361223D01*
X205387013Y-52366150D01*
X205382894Y-52370694D01*
X205378350Y-52374813D01*
X205373423Y-52378467D01*
X205368162Y-52381620D01*
X205362618Y-52384242D01*
X205356843Y-52386309D01*
X205350893Y-52387799D01*
X205344826Y-52388699D01*
X205338700Y-52389000D01*
X205213700Y-52389000D01*
X205207574Y-52388699D01*
X205201507Y-52387799D01*
X205195557Y-52386309D01*
X205189782Y-52384242D01*
X205184238Y-52381620D01*
X205178977Y-52378467D01*
X205174050Y-52374813D01*
X205169506Y-52370694D01*
X205165387Y-52366150D01*
X205161733Y-52361223D01*
X205158580Y-52355962D01*
X205155958Y-52350418D01*
X205153891Y-52344643D01*
X205152401Y-52338693D01*
X205151501Y-52332626D01*
X205151200Y-52326500D01*
X205151200Y-51401500D01*
X205151501Y-51395374D01*
X205152401Y-51389307D01*
X205153891Y-51383357D01*
X205155958Y-51377582D01*
X205158580Y-51372038D01*
X205161733Y-51366777D01*
X205165387Y-51361850D01*
X205169506Y-51357306D01*
X205174050Y-51353187D01*
X205178977Y-51349533D01*
X205184238Y-51346380D01*
X205189782Y-51343758D01*
X205195557Y-51341691D01*
X205201507Y-51340201D01*
X205207574Y-51339301D01*
X205213700Y-51339000D01*
X205338700Y-51339000D01*
X205344826Y-51339301D01*
X205344826Y-51339301D01*
G37*
D15*
X205276200Y-51864000D03*
D13*
G36*
X205844826Y-51339301D02*
X205850893Y-51340201D01*
X205856843Y-51341691D01*
X205862618Y-51343758D01*
X205868162Y-51346380D01*
X205873423Y-51349533D01*
X205878350Y-51353187D01*
X205882894Y-51357306D01*
X205887013Y-51361850D01*
X205890667Y-51366777D01*
X205893820Y-51372038D01*
X205896442Y-51377582D01*
X205898509Y-51383357D01*
X205899999Y-51389307D01*
X205900899Y-51395374D01*
X205901200Y-51401500D01*
X205901200Y-52326500D01*
X205900899Y-52332626D01*
X205899999Y-52338693D01*
X205898509Y-52344643D01*
X205896442Y-52350418D01*
X205893820Y-52355962D01*
X205890667Y-52361223D01*
X205887013Y-52366150D01*
X205882894Y-52370694D01*
X205878350Y-52374813D01*
X205873423Y-52378467D01*
X205868162Y-52381620D01*
X205862618Y-52384242D01*
X205856843Y-52386309D01*
X205850893Y-52387799D01*
X205844826Y-52388699D01*
X205838700Y-52389000D01*
X205713700Y-52389000D01*
X205707574Y-52388699D01*
X205701507Y-52387799D01*
X205695557Y-52386309D01*
X205689782Y-52384242D01*
X205684238Y-52381620D01*
X205678977Y-52378467D01*
X205674050Y-52374813D01*
X205669506Y-52370694D01*
X205665387Y-52366150D01*
X205661733Y-52361223D01*
X205658580Y-52355962D01*
X205655958Y-52350418D01*
X205653891Y-52344643D01*
X205652401Y-52338693D01*
X205651501Y-52332626D01*
X205651200Y-52326500D01*
X205651200Y-51401500D01*
X205651501Y-51395374D01*
X205652401Y-51389307D01*
X205653891Y-51383357D01*
X205655958Y-51377582D01*
X205658580Y-51372038D01*
X205661733Y-51366777D01*
X205665387Y-51361850D01*
X205669506Y-51357306D01*
X205674050Y-51353187D01*
X205678977Y-51349533D01*
X205684238Y-51346380D01*
X205689782Y-51343758D01*
X205695557Y-51341691D01*
X205701507Y-51340201D01*
X205707574Y-51339301D01*
X205713700Y-51339000D01*
X205838700Y-51339000D01*
X205844826Y-51339301D01*
X205844826Y-51339301D01*
G37*
D15*
X205776200Y-51864000D03*
D13*
G36*
X207094826Y-50889301D02*
X207100893Y-50890201D01*
X207106843Y-50891691D01*
X207112618Y-50893758D01*
X207118162Y-50896380D01*
X207123423Y-50899533D01*
X207128350Y-50903187D01*
X207132894Y-50907306D01*
X207137013Y-50911850D01*
X207140667Y-50916777D01*
X207143820Y-50922038D01*
X207146442Y-50927582D01*
X207148509Y-50933357D01*
X207149999Y-50939307D01*
X207150899Y-50945374D01*
X207151200Y-50951500D01*
X207151200Y-51076500D01*
X207150899Y-51082626D01*
X207149999Y-51088693D01*
X207148509Y-51094643D01*
X207146442Y-51100418D01*
X207143820Y-51105962D01*
X207140667Y-51111223D01*
X207137013Y-51116150D01*
X207132894Y-51120694D01*
X207128350Y-51124813D01*
X207123423Y-51128467D01*
X207118162Y-51131620D01*
X207112618Y-51134242D01*
X207106843Y-51136309D01*
X207100893Y-51137799D01*
X207094826Y-51138699D01*
X207088700Y-51139000D01*
X206163700Y-51139000D01*
X206157574Y-51138699D01*
X206151507Y-51137799D01*
X206145557Y-51136309D01*
X206139782Y-51134242D01*
X206134238Y-51131620D01*
X206128977Y-51128467D01*
X206124050Y-51124813D01*
X206119506Y-51120694D01*
X206115387Y-51116150D01*
X206111733Y-51111223D01*
X206108580Y-51105962D01*
X206105958Y-51100418D01*
X206103891Y-51094643D01*
X206102401Y-51088693D01*
X206101501Y-51082626D01*
X206101200Y-51076500D01*
X206101200Y-50951500D01*
X206101501Y-50945374D01*
X206102401Y-50939307D01*
X206103891Y-50933357D01*
X206105958Y-50927582D01*
X206108580Y-50922038D01*
X206111733Y-50916777D01*
X206115387Y-50911850D01*
X206119506Y-50907306D01*
X206124050Y-50903187D01*
X206128977Y-50899533D01*
X206134238Y-50896380D01*
X206139782Y-50893758D01*
X206145557Y-50891691D01*
X206151507Y-50890201D01*
X206157574Y-50889301D01*
X206163700Y-50889000D01*
X207088700Y-50889000D01*
X207094826Y-50889301D01*
X207094826Y-50889301D01*
G37*
D15*
X206626200Y-51014000D03*
D13*
G36*
X207094826Y-50389301D02*
X207100893Y-50390201D01*
X207106843Y-50391691D01*
X207112618Y-50393758D01*
X207118162Y-50396380D01*
X207123423Y-50399533D01*
X207128350Y-50403187D01*
X207132894Y-50407306D01*
X207137013Y-50411850D01*
X207140667Y-50416777D01*
X207143820Y-50422038D01*
X207146442Y-50427582D01*
X207148509Y-50433357D01*
X207149999Y-50439307D01*
X207150899Y-50445374D01*
X207151200Y-50451500D01*
X207151200Y-50576500D01*
X207150899Y-50582626D01*
X207149999Y-50588693D01*
X207148509Y-50594643D01*
X207146442Y-50600418D01*
X207143820Y-50605962D01*
X207140667Y-50611223D01*
X207137013Y-50616150D01*
X207132894Y-50620694D01*
X207128350Y-50624813D01*
X207123423Y-50628467D01*
X207118162Y-50631620D01*
X207112618Y-50634242D01*
X207106843Y-50636309D01*
X207100893Y-50637799D01*
X207094826Y-50638699D01*
X207088700Y-50639000D01*
X206163700Y-50639000D01*
X206157574Y-50638699D01*
X206151507Y-50637799D01*
X206145557Y-50636309D01*
X206139782Y-50634242D01*
X206134238Y-50631620D01*
X206128977Y-50628467D01*
X206124050Y-50624813D01*
X206119506Y-50620694D01*
X206115387Y-50616150D01*
X206111733Y-50611223D01*
X206108580Y-50605962D01*
X206105958Y-50600418D01*
X206103891Y-50594643D01*
X206102401Y-50588693D01*
X206101501Y-50582626D01*
X206101200Y-50576500D01*
X206101200Y-50451500D01*
X206101501Y-50445374D01*
X206102401Y-50439307D01*
X206103891Y-50433357D01*
X206105958Y-50427582D01*
X206108580Y-50422038D01*
X206111733Y-50416777D01*
X206115387Y-50411850D01*
X206119506Y-50407306D01*
X206124050Y-50403187D01*
X206128977Y-50399533D01*
X206134238Y-50396380D01*
X206139782Y-50393758D01*
X206145557Y-50391691D01*
X206151507Y-50390201D01*
X206157574Y-50389301D01*
X206163700Y-50389000D01*
X207088700Y-50389000D01*
X207094826Y-50389301D01*
X207094826Y-50389301D01*
G37*
D15*
X206626200Y-50514000D03*
D13*
G36*
X207094826Y-49889301D02*
X207100893Y-49890201D01*
X207106843Y-49891691D01*
X207112618Y-49893758D01*
X207118162Y-49896380D01*
X207123423Y-49899533D01*
X207128350Y-49903187D01*
X207132894Y-49907306D01*
X207137013Y-49911850D01*
X207140667Y-49916777D01*
X207143820Y-49922038D01*
X207146442Y-49927582D01*
X207148509Y-49933357D01*
X207149999Y-49939307D01*
X207150899Y-49945374D01*
X207151200Y-49951500D01*
X207151200Y-50076500D01*
X207150899Y-50082626D01*
X207149999Y-50088693D01*
X207148509Y-50094643D01*
X207146442Y-50100418D01*
X207143820Y-50105962D01*
X207140667Y-50111223D01*
X207137013Y-50116150D01*
X207132894Y-50120694D01*
X207128350Y-50124813D01*
X207123423Y-50128467D01*
X207118162Y-50131620D01*
X207112618Y-50134242D01*
X207106843Y-50136309D01*
X207100893Y-50137799D01*
X207094826Y-50138699D01*
X207088700Y-50139000D01*
X206163700Y-50139000D01*
X206157574Y-50138699D01*
X206151507Y-50137799D01*
X206145557Y-50136309D01*
X206139782Y-50134242D01*
X206134238Y-50131620D01*
X206128977Y-50128467D01*
X206124050Y-50124813D01*
X206119506Y-50120694D01*
X206115387Y-50116150D01*
X206111733Y-50111223D01*
X206108580Y-50105962D01*
X206105958Y-50100418D01*
X206103891Y-50094643D01*
X206102401Y-50088693D01*
X206101501Y-50082626D01*
X206101200Y-50076500D01*
X206101200Y-49951500D01*
X206101501Y-49945374D01*
X206102401Y-49939307D01*
X206103891Y-49933357D01*
X206105958Y-49927582D01*
X206108580Y-49922038D01*
X206111733Y-49916777D01*
X206115387Y-49911850D01*
X206119506Y-49907306D01*
X206124050Y-49903187D01*
X206128977Y-49899533D01*
X206134238Y-49896380D01*
X206139782Y-49893758D01*
X206145557Y-49891691D01*
X206151507Y-49890201D01*
X206157574Y-49889301D01*
X206163700Y-49889000D01*
X207088700Y-49889000D01*
X207094826Y-49889301D01*
X207094826Y-49889301D01*
G37*
D15*
X206626200Y-50014000D03*
D13*
G36*
X207094826Y-49389301D02*
X207100893Y-49390201D01*
X207106843Y-49391691D01*
X207112618Y-49393758D01*
X207118162Y-49396380D01*
X207123423Y-49399533D01*
X207128350Y-49403187D01*
X207132894Y-49407306D01*
X207137013Y-49411850D01*
X207140667Y-49416777D01*
X207143820Y-49422038D01*
X207146442Y-49427582D01*
X207148509Y-49433357D01*
X207149999Y-49439307D01*
X207150899Y-49445374D01*
X207151200Y-49451500D01*
X207151200Y-49576500D01*
X207150899Y-49582626D01*
X207149999Y-49588693D01*
X207148509Y-49594643D01*
X207146442Y-49600418D01*
X207143820Y-49605962D01*
X207140667Y-49611223D01*
X207137013Y-49616150D01*
X207132894Y-49620694D01*
X207128350Y-49624813D01*
X207123423Y-49628467D01*
X207118162Y-49631620D01*
X207112618Y-49634242D01*
X207106843Y-49636309D01*
X207100893Y-49637799D01*
X207094826Y-49638699D01*
X207088700Y-49639000D01*
X206163700Y-49639000D01*
X206157574Y-49638699D01*
X206151507Y-49637799D01*
X206145557Y-49636309D01*
X206139782Y-49634242D01*
X206134238Y-49631620D01*
X206128977Y-49628467D01*
X206124050Y-49624813D01*
X206119506Y-49620694D01*
X206115387Y-49616150D01*
X206111733Y-49611223D01*
X206108580Y-49605962D01*
X206105958Y-49600418D01*
X206103891Y-49594643D01*
X206102401Y-49588693D01*
X206101501Y-49582626D01*
X206101200Y-49576500D01*
X206101200Y-49451500D01*
X206101501Y-49445374D01*
X206102401Y-49439307D01*
X206103891Y-49433357D01*
X206105958Y-49427582D01*
X206108580Y-49422038D01*
X206111733Y-49416777D01*
X206115387Y-49411850D01*
X206119506Y-49407306D01*
X206124050Y-49403187D01*
X206128977Y-49399533D01*
X206134238Y-49396380D01*
X206139782Y-49393758D01*
X206145557Y-49391691D01*
X206151507Y-49390201D01*
X206157574Y-49389301D01*
X206163700Y-49389000D01*
X207088700Y-49389000D01*
X207094826Y-49389301D01*
X207094826Y-49389301D01*
G37*
D15*
X206626200Y-49514000D03*
D13*
G36*
X207094826Y-48889301D02*
X207100893Y-48890201D01*
X207106843Y-48891691D01*
X207112618Y-48893758D01*
X207118162Y-48896380D01*
X207123423Y-48899533D01*
X207128350Y-48903187D01*
X207132894Y-48907306D01*
X207137013Y-48911850D01*
X207140667Y-48916777D01*
X207143820Y-48922038D01*
X207146442Y-48927582D01*
X207148509Y-48933357D01*
X207149999Y-48939307D01*
X207150899Y-48945374D01*
X207151200Y-48951500D01*
X207151200Y-49076500D01*
X207150899Y-49082626D01*
X207149999Y-49088693D01*
X207148509Y-49094643D01*
X207146442Y-49100418D01*
X207143820Y-49105962D01*
X207140667Y-49111223D01*
X207137013Y-49116150D01*
X207132894Y-49120694D01*
X207128350Y-49124813D01*
X207123423Y-49128467D01*
X207118162Y-49131620D01*
X207112618Y-49134242D01*
X207106843Y-49136309D01*
X207100893Y-49137799D01*
X207094826Y-49138699D01*
X207088700Y-49139000D01*
X206163700Y-49139000D01*
X206157574Y-49138699D01*
X206151507Y-49137799D01*
X206145557Y-49136309D01*
X206139782Y-49134242D01*
X206134238Y-49131620D01*
X206128977Y-49128467D01*
X206124050Y-49124813D01*
X206119506Y-49120694D01*
X206115387Y-49116150D01*
X206111733Y-49111223D01*
X206108580Y-49105962D01*
X206105958Y-49100418D01*
X206103891Y-49094643D01*
X206102401Y-49088693D01*
X206101501Y-49082626D01*
X206101200Y-49076500D01*
X206101200Y-48951500D01*
X206101501Y-48945374D01*
X206102401Y-48939307D01*
X206103891Y-48933357D01*
X206105958Y-48927582D01*
X206108580Y-48922038D01*
X206111733Y-48916777D01*
X206115387Y-48911850D01*
X206119506Y-48907306D01*
X206124050Y-48903187D01*
X206128977Y-48899533D01*
X206134238Y-48896380D01*
X206139782Y-48893758D01*
X206145557Y-48891691D01*
X206151507Y-48890201D01*
X206157574Y-48889301D01*
X206163700Y-48889000D01*
X207088700Y-48889000D01*
X207094826Y-48889301D01*
X207094826Y-48889301D01*
G37*
D15*
X206626200Y-49014000D03*
D13*
G36*
X207094826Y-48389301D02*
X207100893Y-48390201D01*
X207106843Y-48391691D01*
X207112618Y-48393758D01*
X207118162Y-48396380D01*
X207123423Y-48399533D01*
X207128350Y-48403187D01*
X207132894Y-48407306D01*
X207137013Y-48411850D01*
X207140667Y-48416777D01*
X207143820Y-48422038D01*
X207146442Y-48427582D01*
X207148509Y-48433357D01*
X207149999Y-48439307D01*
X207150899Y-48445374D01*
X207151200Y-48451500D01*
X207151200Y-48576500D01*
X207150899Y-48582626D01*
X207149999Y-48588693D01*
X207148509Y-48594643D01*
X207146442Y-48600418D01*
X207143820Y-48605962D01*
X207140667Y-48611223D01*
X207137013Y-48616150D01*
X207132894Y-48620694D01*
X207128350Y-48624813D01*
X207123423Y-48628467D01*
X207118162Y-48631620D01*
X207112618Y-48634242D01*
X207106843Y-48636309D01*
X207100893Y-48637799D01*
X207094826Y-48638699D01*
X207088700Y-48639000D01*
X206163700Y-48639000D01*
X206157574Y-48638699D01*
X206151507Y-48637799D01*
X206145557Y-48636309D01*
X206139782Y-48634242D01*
X206134238Y-48631620D01*
X206128977Y-48628467D01*
X206124050Y-48624813D01*
X206119506Y-48620694D01*
X206115387Y-48616150D01*
X206111733Y-48611223D01*
X206108580Y-48605962D01*
X206105958Y-48600418D01*
X206103891Y-48594643D01*
X206102401Y-48588693D01*
X206101501Y-48582626D01*
X206101200Y-48576500D01*
X206101200Y-48451500D01*
X206101501Y-48445374D01*
X206102401Y-48439307D01*
X206103891Y-48433357D01*
X206105958Y-48427582D01*
X206108580Y-48422038D01*
X206111733Y-48416777D01*
X206115387Y-48411850D01*
X206119506Y-48407306D01*
X206124050Y-48403187D01*
X206128977Y-48399533D01*
X206134238Y-48396380D01*
X206139782Y-48393758D01*
X206145557Y-48391691D01*
X206151507Y-48390201D01*
X206157574Y-48389301D01*
X206163700Y-48389000D01*
X207088700Y-48389000D01*
X207094826Y-48389301D01*
X207094826Y-48389301D01*
G37*
D15*
X206626200Y-48514000D03*
D13*
G36*
X207094826Y-47889301D02*
X207100893Y-47890201D01*
X207106843Y-47891691D01*
X207112618Y-47893758D01*
X207118162Y-47896380D01*
X207123423Y-47899533D01*
X207128350Y-47903187D01*
X207132894Y-47907306D01*
X207137013Y-47911850D01*
X207140667Y-47916777D01*
X207143820Y-47922038D01*
X207146442Y-47927582D01*
X207148509Y-47933357D01*
X207149999Y-47939307D01*
X207150899Y-47945374D01*
X207151200Y-47951500D01*
X207151200Y-48076500D01*
X207150899Y-48082626D01*
X207149999Y-48088693D01*
X207148509Y-48094643D01*
X207146442Y-48100418D01*
X207143820Y-48105962D01*
X207140667Y-48111223D01*
X207137013Y-48116150D01*
X207132894Y-48120694D01*
X207128350Y-48124813D01*
X207123423Y-48128467D01*
X207118162Y-48131620D01*
X207112618Y-48134242D01*
X207106843Y-48136309D01*
X207100893Y-48137799D01*
X207094826Y-48138699D01*
X207088700Y-48139000D01*
X206163700Y-48139000D01*
X206157574Y-48138699D01*
X206151507Y-48137799D01*
X206145557Y-48136309D01*
X206139782Y-48134242D01*
X206134238Y-48131620D01*
X206128977Y-48128467D01*
X206124050Y-48124813D01*
X206119506Y-48120694D01*
X206115387Y-48116150D01*
X206111733Y-48111223D01*
X206108580Y-48105962D01*
X206105958Y-48100418D01*
X206103891Y-48094643D01*
X206102401Y-48088693D01*
X206101501Y-48082626D01*
X206101200Y-48076500D01*
X206101200Y-47951500D01*
X206101501Y-47945374D01*
X206102401Y-47939307D01*
X206103891Y-47933357D01*
X206105958Y-47927582D01*
X206108580Y-47922038D01*
X206111733Y-47916777D01*
X206115387Y-47911850D01*
X206119506Y-47907306D01*
X206124050Y-47903187D01*
X206128977Y-47899533D01*
X206134238Y-47896380D01*
X206139782Y-47893758D01*
X206145557Y-47891691D01*
X206151507Y-47890201D01*
X206157574Y-47889301D01*
X206163700Y-47889000D01*
X207088700Y-47889000D01*
X207094826Y-47889301D01*
X207094826Y-47889301D01*
G37*
D15*
X206626200Y-48014000D03*
D13*
G36*
X207094826Y-47389301D02*
X207100893Y-47390201D01*
X207106843Y-47391691D01*
X207112618Y-47393758D01*
X207118162Y-47396380D01*
X207123423Y-47399533D01*
X207128350Y-47403187D01*
X207132894Y-47407306D01*
X207137013Y-47411850D01*
X207140667Y-47416777D01*
X207143820Y-47422038D01*
X207146442Y-47427582D01*
X207148509Y-47433357D01*
X207149999Y-47439307D01*
X207150899Y-47445374D01*
X207151200Y-47451500D01*
X207151200Y-47576500D01*
X207150899Y-47582626D01*
X207149999Y-47588693D01*
X207148509Y-47594643D01*
X207146442Y-47600418D01*
X207143820Y-47605962D01*
X207140667Y-47611223D01*
X207137013Y-47616150D01*
X207132894Y-47620694D01*
X207128350Y-47624813D01*
X207123423Y-47628467D01*
X207118162Y-47631620D01*
X207112618Y-47634242D01*
X207106843Y-47636309D01*
X207100893Y-47637799D01*
X207094826Y-47638699D01*
X207088700Y-47639000D01*
X206163700Y-47639000D01*
X206157574Y-47638699D01*
X206151507Y-47637799D01*
X206145557Y-47636309D01*
X206139782Y-47634242D01*
X206134238Y-47631620D01*
X206128977Y-47628467D01*
X206124050Y-47624813D01*
X206119506Y-47620694D01*
X206115387Y-47616150D01*
X206111733Y-47611223D01*
X206108580Y-47605962D01*
X206105958Y-47600418D01*
X206103891Y-47594643D01*
X206102401Y-47588693D01*
X206101501Y-47582626D01*
X206101200Y-47576500D01*
X206101200Y-47451500D01*
X206101501Y-47445374D01*
X206102401Y-47439307D01*
X206103891Y-47433357D01*
X206105958Y-47427582D01*
X206108580Y-47422038D01*
X206111733Y-47416777D01*
X206115387Y-47411850D01*
X206119506Y-47407306D01*
X206124050Y-47403187D01*
X206128977Y-47399533D01*
X206134238Y-47396380D01*
X206139782Y-47393758D01*
X206145557Y-47391691D01*
X206151507Y-47390201D01*
X206157574Y-47389301D01*
X206163700Y-47389000D01*
X207088700Y-47389000D01*
X207094826Y-47389301D01*
X207094826Y-47389301D01*
G37*
D15*
X206626200Y-47514000D03*
D13*
G36*
X207094826Y-46889301D02*
X207100893Y-46890201D01*
X207106843Y-46891691D01*
X207112618Y-46893758D01*
X207118162Y-46896380D01*
X207123423Y-46899533D01*
X207128350Y-46903187D01*
X207132894Y-46907306D01*
X207137013Y-46911850D01*
X207140667Y-46916777D01*
X207143820Y-46922038D01*
X207146442Y-46927582D01*
X207148509Y-46933357D01*
X207149999Y-46939307D01*
X207150899Y-46945374D01*
X207151200Y-46951500D01*
X207151200Y-47076500D01*
X207150899Y-47082626D01*
X207149999Y-47088693D01*
X207148509Y-47094643D01*
X207146442Y-47100418D01*
X207143820Y-47105962D01*
X207140667Y-47111223D01*
X207137013Y-47116150D01*
X207132894Y-47120694D01*
X207128350Y-47124813D01*
X207123423Y-47128467D01*
X207118162Y-47131620D01*
X207112618Y-47134242D01*
X207106843Y-47136309D01*
X207100893Y-47137799D01*
X207094826Y-47138699D01*
X207088700Y-47139000D01*
X206163700Y-47139000D01*
X206157574Y-47138699D01*
X206151507Y-47137799D01*
X206145557Y-47136309D01*
X206139782Y-47134242D01*
X206134238Y-47131620D01*
X206128977Y-47128467D01*
X206124050Y-47124813D01*
X206119506Y-47120694D01*
X206115387Y-47116150D01*
X206111733Y-47111223D01*
X206108580Y-47105962D01*
X206105958Y-47100418D01*
X206103891Y-47094643D01*
X206102401Y-47088693D01*
X206101501Y-47082626D01*
X206101200Y-47076500D01*
X206101200Y-46951500D01*
X206101501Y-46945374D01*
X206102401Y-46939307D01*
X206103891Y-46933357D01*
X206105958Y-46927582D01*
X206108580Y-46922038D01*
X206111733Y-46916777D01*
X206115387Y-46911850D01*
X206119506Y-46907306D01*
X206124050Y-46903187D01*
X206128977Y-46899533D01*
X206134238Y-46896380D01*
X206139782Y-46893758D01*
X206145557Y-46891691D01*
X206151507Y-46890201D01*
X206157574Y-46889301D01*
X206163700Y-46889000D01*
X207088700Y-46889000D01*
X207094826Y-46889301D01*
X207094826Y-46889301D01*
G37*
D15*
X206626200Y-47014000D03*
D13*
G36*
X207094826Y-46389301D02*
X207100893Y-46390201D01*
X207106843Y-46391691D01*
X207112618Y-46393758D01*
X207118162Y-46396380D01*
X207123423Y-46399533D01*
X207128350Y-46403187D01*
X207132894Y-46407306D01*
X207137013Y-46411850D01*
X207140667Y-46416777D01*
X207143820Y-46422038D01*
X207146442Y-46427582D01*
X207148509Y-46433357D01*
X207149999Y-46439307D01*
X207150899Y-46445374D01*
X207151200Y-46451500D01*
X207151200Y-46576500D01*
X207150899Y-46582626D01*
X207149999Y-46588693D01*
X207148509Y-46594643D01*
X207146442Y-46600418D01*
X207143820Y-46605962D01*
X207140667Y-46611223D01*
X207137013Y-46616150D01*
X207132894Y-46620694D01*
X207128350Y-46624813D01*
X207123423Y-46628467D01*
X207118162Y-46631620D01*
X207112618Y-46634242D01*
X207106843Y-46636309D01*
X207100893Y-46637799D01*
X207094826Y-46638699D01*
X207088700Y-46639000D01*
X206163700Y-46639000D01*
X206157574Y-46638699D01*
X206151507Y-46637799D01*
X206145557Y-46636309D01*
X206139782Y-46634242D01*
X206134238Y-46631620D01*
X206128977Y-46628467D01*
X206124050Y-46624813D01*
X206119506Y-46620694D01*
X206115387Y-46616150D01*
X206111733Y-46611223D01*
X206108580Y-46605962D01*
X206105958Y-46600418D01*
X206103891Y-46594643D01*
X206102401Y-46588693D01*
X206101501Y-46582626D01*
X206101200Y-46576500D01*
X206101200Y-46451500D01*
X206101501Y-46445374D01*
X206102401Y-46439307D01*
X206103891Y-46433357D01*
X206105958Y-46427582D01*
X206108580Y-46422038D01*
X206111733Y-46416777D01*
X206115387Y-46411850D01*
X206119506Y-46407306D01*
X206124050Y-46403187D01*
X206128977Y-46399533D01*
X206134238Y-46396380D01*
X206139782Y-46393758D01*
X206145557Y-46391691D01*
X206151507Y-46390201D01*
X206157574Y-46389301D01*
X206163700Y-46389000D01*
X207088700Y-46389000D01*
X207094826Y-46389301D01*
X207094826Y-46389301D01*
G37*
D15*
X206626200Y-46514000D03*
D13*
G36*
X207094826Y-45889301D02*
X207100893Y-45890201D01*
X207106843Y-45891691D01*
X207112618Y-45893758D01*
X207118162Y-45896380D01*
X207123423Y-45899533D01*
X207128350Y-45903187D01*
X207132894Y-45907306D01*
X207137013Y-45911850D01*
X207140667Y-45916777D01*
X207143820Y-45922038D01*
X207146442Y-45927582D01*
X207148509Y-45933357D01*
X207149999Y-45939307D01*
X207150899Y-45945374D01*
X207151200Y-45951500D01*
X207151200Y-46076500D01*
X207150899Y-46082626D01*
X207149999Y-46088693D01*
X207148509Y-46094643D01*
X207146442Y-46100418D01*
X207143820Y-46105962D01*
X207140667Y-46111223D01*
X207137013Y-46116150D01*
X207132894Y-46120694D01*
X207128350Y-46124813D01*
X207123423Y-46128467D01*
X207118162Y-46131620D01*
X207112618Y-46134242D01*
X207106843Y-46136309D01*
X207100893Y-46137799D01*
X207094826Y-46138699D01*
X207088700Y-46139000D01*
X206163700Y-46139000D01*
X206157574Y-46138699D01*
X206151507Y-46137799D01*
X206145557Y-46136309D01*
X206139782Y-46134242D01*
X206134238Y-46131620D01*
X206128977Y-46128467D01*
X206124050Y-46124813D01*
X206119506Y-46120694D01*
X206115387Y-46116150D01*
X206111733Y-46111223D01*
X206108580Y-46105962D01*
X206105958Y-46100418D01*
X206103891Y-46094643D01*
X206102401Y-46088693D01*
X206101501Y-46082626D01*
X206101200Y-46076500D01*
X206101200Y-45951500D01*
X206101501Y-45945374D01*
X206102401Y-45939307D01*
X206103891Y-45933357D01*
X206105958Y-45927582D01*
X206108580Y-45922038D01*
X206111733Y-45916777D01*
X206115387Y-45911850D01*
X206119506Y-45907306D01*
X206124050Y-45903187D01*
X206128977Y-45899533D01*
X206134238Y-45896380D01*
X206139782Y-45893758D01*
X206145557Y-45891691D01*
X206151507Y-45890201D01*
X206157574Y-45889301D01*
X206163700Y-45889000D01*
X207088700Y-45889000D01*
X207094826Y-45889301D01*
X207094826Y-45889301D01*
G37*
D15*
X206626200Y-46014000D03*
D13*
G36*
X205844826Y-44639301D02*
X205850893Y-44640201D01*
X205856843Y-44641691D01*
X205862618Y-44643758D01*
X205868162Y-44646380D01*
X205873423Y-44649533D01*
X205878350Y-44653187D01*
X205882894Y-44657306D01*
X205887013Y-44661850D01*
X205890667Y-44666777D01*
X205893820Y-44672038D01*
X205896442Y-44677582D01*
X205898509Y-44683357D01*
X205899999Y-44689307D01*
X205900899Y-44695374D01*
X205901200Y-44701500D01*
X205901200Y-45626500D01*
X205900899Y-45632626D01*
X205899999Y-45638693D01*
X205898509Y-45644643D01*
X205896442Y-45650418D01*
X205893820Y-45655962D01*
X205890667Y-45661223D01*
X205887013Y-45666150D01*
X205882894Y-45670694D01*
X205878350Y-45674813D01*
X205873423Y-45678467D01*
X205868162Y-45681620D01*
X205862618Y-45684242D01*
X205856843Y-45686309D01*
X205850893Y-45687799D01*
X205844826Y-45688699D01*
X205838700Y-45689000D01*
X205713700Y-45689000D01*
X205707574Y-45688699D01*
X205701507Y-45687799D01*
X205695557Y-45686309D01*
X205689782Y-45684242D01*
X205684238Y-45681620D01*
X205678977Y-45678467D01*
X205674050Y-45674813D01*
X205669506Y-45670694D01*
X205665387Y-45666150D01*
X205661733Y-45661223D01*
X205658580Y-45655962D01*
X205655958Y-45650418D01*
X205653891Y-45644643D01*
X205652401Y-45638693D01*
X205651501Y-45632626D01*
X205651200Y-45626500D01*
X205651200Y-44701500D01*
X205651501Y-44695374D01*
X205652401Y-44689307D01*
X205653891Y-44683357D01*
X205655958Y-44677582D01*
X205658580Y-44672038D01*
X205661733Y-44666777D01*
X205665387Y-44661850D01*
X205669506Y-44657306D01*
X205674050Y-44653187D01*
X205678977Y-44649533D01*
X205684238Y-44646380D01*
X205689782Y-44643758D01*
X205695557Y-44641691D01*
X205701507Y-44640201D01*
X205707574Y-44639301D01*
X205713700Y-44639000D01*
X205838700Y-44639000D01*
X205844826Y-44639301D01*
X205844826Y-44639301D01*
G37*
D15*
X205776200Y-45164000D03*
D13*
G36*
X205344826Y-44639301D02*
X205350893Y-44640201D01*
X205356843Y-44641691D01*
X205362618Y-44643758D01*
X205368162Y-44646380D01*
X205373423Y-44649533D01*
X205378350Y-44653187D01*
X205382894Y-44657306D01*
X205387013Y-44661850D01*
X205390667Y-44666777D01*
X205393820Y-44672038D01*
X205396442Y-44677582D01*
X205398509Y-44683357D01*
X205399999Y-44689307D01*
X205400899Y-44695374D01*
X205401200Y-44701500D01*
X205401200Y-45626500D01*
X205400899Y-45632626D01*
X205399999Y-45638693D01*
X205398509Y-45644643D01*
X205396442Y-45650418D01*
X205393820Y-45655962D01*
X205390667Y-45661223D01*
X205387013Y-45666150D01*
X205382894Y-45670694D01*
X205378350Y-45674813D01*
X205373423Y-45678467D01*
X205368162Y-45681620D01*
X205362618Y-45684242D01*
X205356843Y-45686309D01*
X205350893Y-45687799D01*
X205344826Y-45688699D01*
X205338700Y-45689000D01*
X205213700Y-45689000D01*
X205207574Y-45688699D01*
X205201507Y-45687799D01*
X205195557Y-45686309D01*
X205189782Y-45684242D01*
X205184238Y-45681620D01*
X205178977Y-45678467D01*
X205174050Y-45674813D01*
X205169506Y-45670694D01*
X205165387Y-45666150D01*
X205161733Y-45661223D01*
X205158580Y-45655962D01*
X205155958Y-45650418D01*
X205153891Y-45644643D01*
X205152401Y-45638693D01*
X205151501Y-45632626D01*
X205151200Y-45626500D01*
X205151200Y-44701500D01*
X205151501Y-44695374D01*
X205152401Y-44689307D01*
X205153891Y-44683357D01*
X205155958Y-44677582D01*
X205158580Y-44672038D01*
X205161733Y-44666777D01*
X205165387Y-44661850D01*
X205169506Y-44657306D01*
X205174050Y-44653187D01*
X205178977Y-44649533D01*
X205184238Y-44646380D01*
X205189782Y-44643758D01*
X205195557Y-44641691D01*
X205201507Y-44640201D01*
X205207574Y-44639301D01*
X205213700Y-44639000D01*
X205338700Y-44639000D01*
X205344826Y-44639301D01*
X205344826Y-44639301D01*
G37*
D15*
X205276200Y-45164000D03*
D13*
G36*
X204844826Y-44639301D02*
X204850893Y-44640201D01*
X204856843Y-44641691D01*
X204862618Y-44643758D01*
X204868162Y-44646380D01*
X204873423Y-44649533D01*
X204878350Y-44653187D01*
X204882894Y-44657306D01*
X204887013Y-44661850D01*
X204890667Y-44666777D01*
X204893820Y-44672038D01*
X204896442Y-44677582D01*
X204898509Y-44683357D01*
X204899999Y-44689307D01*
X204900899Y-44695374D01*
X204901200Y-44701500D01*
X204901200Y-45626500D01*
X204900899Y-45632626D01*
X204899999Y-45638693D01*
X204898509Y-45644643D01*
X204896442Y-45650418D01*
X204893820Y-45655962D01*
X204890667Y-45661223D01*
X204887013Y-45666150D01*
X204882894Y-45670694D01*
X204878350Y-45674813D01*
X204873423Y-45678467D01*
X204868162Y-45681620D01*
X204862618Y-45684242D01*
X204856843Y-45686309D01*
X204850893Y-45687799D01*
X204844826Y-45688699D01*
X204838700Y-45689000D01*
X204713700Y-45689000D01*
X204707574Y-45688699D01*
X204701507Y-45687799D01*
X204695557Y-45686309D01*
X204689782Y-45684242D01*
X204684238Y-45681620D01*
X204678977Y-45678467D01*
X204674050Y-45674813D01*
X204669506Y-45670694D01*
X204665387Y-45666150D01*
X204661733Y-45661223D01*
X204658580Y-45655962D01*
X204655958Y-45650418D01*
X204653891Y-45644643D01*
X204652401Y-45638693D01*
X204651501Y-45632626D01*
X204651200Y-45626500D01*
X204651200Y-44701500D01*
X204651501Y-44695374D01*
X204652401Y-44689307D01*
X204653891Y-44683357D01*
X204655958Y-44677582D01*
X204658580Y-44672038D01*
X204661733Y-44666777D01*
X204665387Y-44661850D01*
X204669506Y-44657306D01*
X204674050Y-44653187D01*
X204678977Y-44649533D01*
X204684238Y-44646380D01*
X204689782Y-44643758D01*
X204695557Y-44641691D01*
X204701507Y-44640201D01*
X204707574Y-44639301D01*
X204713700Y-44639000D01*
X204838700Y-44639000D01*
X204844826Y-44639301D01*
X204844826Y-44639301D01*
G37*
D15*
X204776200Y-45164000D03*
D13*
G36*
X204344826Y-44639301D02*
X204350893Y-44640201D01*
X204356843Y-44641691D01*
X204362618Y-44643758D01*
X204368162Y-44646380D01*
X204373423Y-44649533D01*
X204378350Y-44653187D01*
X204382894Y-44657306D01*
X204387013Y-44661850D01*
X204390667Y-44666777D01*
X204393820Y-44672038D01*
X204396442Y-44677582D01*
X204398509Y-44683357D01*
X204399999Y-44689307D01*
X204400899Y-44695374D01*
X204401200Y-44701500D01*
X204401200Y-45626500D01*
X204400899Y-45632626D01*
X204399999Y-45638693D01*
X204398509Y-45644643D01*
X204396442Y-45650418D01*
X204393820Y-45655962D01*
X204390667Y-45661223D01*
X204387013Y-45666150D01*
X204382894Y-45670694D01*
X204378350Y-45674813D01*
X204373423Y-45678467D01*
X204368162Y-45681620D01*
X204362618Y-45684242D01*
X204356843Y-45686309D01*
X204350893Y-45687799D01*
X204344826Y-45688699D01*
X204338700Y-45689000D01*
X204213700Y-45689000D01*
X204207574Y-45688699D01*
X204201507Y-45687799D01*
X204195557Y-45686309D01*
X204189782Y-45684242D01*
X204184238Y-45681620D01*
X204178977Y-45678467D01*
X204174050Y-45674813D01*
X204169506Y-45670694D01*
X204165387Y-45666150D01*
X204161733Y-45661223D01*
X204158580Y-45655962D01*
X204155958Y-45650418D01*
X204153891Y-45644643D01*
X204152401Y-45638693D01*
X204151501Y-45632626D01*
X204151200Y-45626500D01*
X204151200Y-44701500D01*
X204151501Y-44695374D01*
X204152401Y-44689307D01*
X204153891Y-44683357D01*
X204155958Y-44677582D01*
X204158580Y-44672038D01*
X204161733Y-44666777D01*
X204165387Y-44661850D01*
X204169506Y-44657306D01*
X204174050Y-44653187D01*
X204178977Y-44649533D01*
X204184238Y-44646380D01*
X204189782Y-44643758D01*
X204195557Y-44641691D01*
X204201507Y-44640201D01*
X204207574Y-44639301D01*
X204213700Y-44639000D01*
X204338700Y-44639000D01*
X204344826Y-44639301D01*
X204344826Y-44639301D01*
G37*
D15*
X204276200Y-45164000D03*
D13*
G36*
X203844826Y-44639301D02*
X203850893Y-44640201D01*
X203856843Y-44641691D01*
X203862618Y-44643758D01*
X203868162Y-44646380D01*
X203873423Y-44649533D01*
X203878350Y-44653187D01*
X203882894Y-44657306D01*
X203887013Y-44661850D01*
X203890667Y-44666777D01*
X203893820Y-44672038D01*
X203896442Y-44677582D01*
X203898509Y-44683357D01*
X203899999Y-44689307D01*
X203900899Y-44695374D01*
X203901200Y-44701500D01*
X203901200Y-45626500D01*
X203900899Y-45632626D01*
X203899999Y-45638693D01*
X203898509Y-45644643D01*
X203896442Y-45650418D01*
X203893820Y-45655962D01*
X203890667Y-45661223D01*
X203887013Y-45666150D01*
X203882894Y-45670694D01*
X203878350Y-45674813D01*
X203873423Y-45678467D01*
X203868162Y-45681620D01*
X203862618Y-45684242D01*
X203856843Y-45686309D01*
X203850893Y-45687799D01*
X203844826Y-45688699D01*
X203838700Y-45689000D01*
X203713700Y-45689000D01*
X203707574Y-45688699D01*
X203701507Y-45687799D01*
X203695557Y-45686309D01*
X203689782Y-45684242D01*
X203684238Y-45681620D01*
X203678977Y-45678467D01*
X203674050Y-45674813D01*
X203669506Y-45670694D01*
X203665387Y-45666150D01*
X203661733Y-45661223D01*
X203658580Y-45655962D01*
X203655958Y-45650418D01*
X203653891Y-45644643D01*
X203652401Y-45638693D01*
X203651501Y-45632626D01*
X203651200Y-45626500D01*
X203651200Y-44701500D01*
X203651501Y-44695374D01*
X203652401Y-44689307D01*
X203653891Y-44683357D01*
X203655958Y-44677582D01*
X203658580Y-44672038D01*
X203661733Y-44666777D01*
X203665387Y-44661850D01*
X203669506Y-44657306D01*
X203674050Y-44653187D01*
X203678977Y-44649533D01*
X203684238Y-44646380D01*
X203689782Y-44643758D01*
X203695557Y-44641691D01*
X203701507Y-44640201D01*
X203707574Y-44639301D01*
X203713700Y-44639000D01*
X203838700Y-44639000D01*
X203844826Y-44639301D01*
X203844826Y-44639301D01*
G37*
D15*
X203776200Y-45164000D03*
D13*
G36*
X203344826Y-44639301D02*
X203350893Y-44640201D01*
X203356843Y-44641691D01*
X203362618Y-44643758D01*
X203368162Y-44646380D01*
X203373423Y-44649533D01*
X203378350Y-44653187D01*
X203382894Y-44657306D01*
X203387013Y-44661850D01*
X203390667Y-44666777D01*
X203393820Y-44672038D01*
X203396442Y-44677582D01*
X203398509Y-44683357D01*
X203399999Y-44689307D01*
X203400899Y-44695374D01*
X203401200Y-44701500D01*
X203401200Y-45626500D01*
X203400899Y-45632626D01*
X203399999Y-45638693D01*
X203398509Y-45644643D01*
X203396442Y-45650418D01*
X203393820Y-45655962D01*
X203390667Y-45661223D01*
X203387013Y-45666150D01*
X203382894Y-45670694D01*
X203378350Y-45674813D01*
X203373423Y-45678467D01*
X203368162Y-45681620D01*
X203362618Y-45684242D01*
X203356843Y-45686309D01*
X203350893Y-45687799D01*
X203344826Y-45688699D01*
X203338700Y-45689000D01*
X203213700Y-45689000D01*
X203207574Y-45688699D01*
X203201507Y-45687799D01*
X203195557Y-45686309D01*
X203189782Y-45684242D01*
X203184238Y-45681620D01*
X203178977Y-45678467D01*
X203174050Y-45674813D01*
X203169506Y-45670694D01*
X203165387Y-45666150D01*
X203161733Y-45661223D01*
X203158580Y-45655962D01*
X203155958Y-45650418D01*
X203153891Y-45644643D01*
X203152401Y-45638693D01*
X203151501Y-45632626D01*
X203151200Y-45626500D01*
X203151200Y-44701500D01*
X203151501Y-44695374D01*
X203152401Y-44689307D01*
X203153891Y-44683357D01*
X203155958Y-44677582D01*
X203158580Y-44672038D01*
X203161733Y-44666777D01*
X203165387Y-44661850D01*
X203169506Y-44657306D01*
X203174050Y-44653187D01*
X203178977Y-44649533D01*
X203184238Y-44646380D01*
X203189782Y-44643758D01*
X203195557Y-44641691D01*
X203201507Y-44640201D01*
X203207574Y-44639301D01*
X203213700Y-44639000D01*
X203338700Y-44639000D01*
X203344826Y-44639301D01*
X203344826Y-44639301D01*
G37*
D15*
X203276200Y-45164000D03*
D13*
G36*
X202844826Y-44639301D02*
X202850893Y-44640201D01*
X202856843Y-44641691D01*
X202862618Y-44643758D01*
X202868162Y-44646380D01*
X202873423Y-44649533D01*
X202878350Y-44653187D01*
X202882894Y-44657306D01*
X202887013Y-44661850D01*
X202890667Y-44666777D01*
X202893820Y-44672038D01*
X202896442Y-44677582D01*
X202898509Y-44683357D01*
X202899999Y-44689307D01*
X202900899Y-44695374D01*
X202901200Y-44701500D01*
X202901200Y-45626500D01*
X202900899Y-45632626D01*
X202899999Y-45638693D01*
X202898509Y-45644643D01*
X202896442Y-45650418D01*
X202893820Y-45655962D01*
X202890667Y-45661223D01*
X202887013Y-45666150D01*
X202882894Y-45670694D01*
X202878350Y-45674813D01*
X202873423Y-45678467D01*
X202868162Y-45681620D01*
X202862618Y-45684242D01*
X202856843Y-45686309D01*
X202850893Y-45687799D01*
X202844826Y-45688699D01*
X202838700Y-45689000D01*
X202713700Y-45689000D01*
X202707574Y-45688699D01*
X202701507Y-45687799D01*
X202695557Y-45686309D01*
X202689782Y-45684242D01*
X202684238Y-45681620D01*
X202678977Y-45678467D01*
X202674050Y-45674813D01*
X202669506Y-45670694D01*
X202665387Y-45666150D01*
X202661733Y-45661223D01*
X202658580Y-45655962D01*
X202655958Y-45650418D01*
X202653891Y-45644643D01*
X202652401Y-45638693D01*
X202651501Y-45632626D01*
X202651200Y-45626500D01*
X202651200Y-44701500D01*
X202651501Y-44695374D01*
X202652401Y-44689307D01*
X202653891Y-44683357D01*
X202655958Y-44677582D01*
X202658580Y-44672038D01*
X202661733Y-44666777D01*
X202665387Y-44661850D01*
X202669506Y-44657306D01*
X202674050Y-44653187D01*
X202678977Y-44649533D01*
X202684238Y-44646380D01*
X202689782Y-44643758D01*
X202695557Y-44641691D01*
X202701507Y-44640201D01*
X202707574Y-44639301D01*
X202713700Y-44639000D01*
X202838700Y-44639000D01*
X202844826Y-44639301D01*
X202844826Y-44639301D01*
G37*
D15*
X202776200Y-45164000D03*
D13*
G36*
X202344826Y-44639301D02*
X202350893Y-44640201D01*
X202356843Y-44641691D01*
X202362618Y-44643758D01*
X202368162Y-44646380D01*
X202373423Y-44649533D01*
X202378350Y-44653187D01*
X202382894Y-44657306D01*
X202387013Y-44661850D01*
X202390667Y-44666777D01*
X202393820Y-44672038D01*
X202396442Y-44677582D01*
X202398509Y-44683357D01*
X202399999Y-44689307D01*
X202400899Y-44695374D01*
X202401200Y-44701500D01*
X202401200Y-45626500D01*
X202400899Y-45632626D01*
X202399999Y-45638693D01*
X202398509Y-45644643D01*
X202396442Y-45650418D01*
X202393820Y-45655962D01*
X202390667Y-45661223D01*
X202387013Y-45666150D01*
X202382894Y-45670694D01*
X202378350Y-45674813D01*
X202373423Y-45678467D01*
X202368162Y-45681620D01*
X202362618Y-45684242D01*
X202356843Y-45686309D01*
X202350893Y-45687799D01*
X202344826Y-45688699D01*
X202338700Y-45689000D01*
X202213700Y-45689000D01*
X202207574Y-45688699D01*
X202201507Y-45687799D01*
X202195557Y-45686309D01*
X202189782Y-45684242D01*
X202184238Y-45681620D01*
X202178977Y-45678467D01*
X202174050Y-45674813D01*
X202169506Y-45670694D01*
X202165387Y-45666150D01*
X202161733Y-45661223D01*
X202158580Y-45655962D01*
X202155958Y-45650418D01*
X202153891Y-45644643D01*
X202152401Y-45638693D01*
X202151501Y-45632626D01*
X202151200Y-45626500D01*
X202151200Y-44701500D01*
X202151501Y-44695374D01*
X202152401Y-44689307D01*
X202153891Y-44683357D01*
X202155958Y-44677582D01*
X202158580Y-44672038D01*
X202161733Y-44666777D01*
X202165387Y-44661850D01*
X202169506Y-44657306D01*
X202174050Y-44653187D01*
X202178977Y-44649533D01*
X202184238Y-44646380D01*
X202189782Y-44643758D01*
X202195557Y-44641691D01*
X202201507Y-44640201D01*
X202207574Y-44639301D01*
X202213700Y-44639000D01*
X202338700Y-44639000D01*
X202344826Y-44639301D01*
X202344826Y-44639301D01*
G37*
D15*
X202276200Y-45164000D03*
D13*
G36*
X201844826Y-44639301D02*
X201850893Y-44640201D01*
X201856843Y-44641691D01*
X201862618Y-44643758D01*
X201868162Y-44646380D01*
X201873423Y-44649533D01*
X201878350Y-44653187D01*
X201882894Y-44657306D01*
X201887013Y-44661850D01*
X201890667Y-44666777D01*
X201893820Y-44672038D01*
X201896442Y-44677582D01*
X201898509Y-44683357D01*
X201899999Y-44689307D01*
X201900899Y-44695374D01*
X201901200Y-44701500D01*
X201901200Y-45626500D01*
X201900899Y-45632626D01*
X201899999Y-45638693D01*
X201898509Y-45644643D01*
X201896442Y-45650418D01*
X201893820Y-45655962D01*
X201890667Y-45661223D01*
X201887013Y-45666150D01*
X201882894Y-45670694D01*
X201878350Y-45674813D01*
X201873423Y-45678467D01*
X201868162Y-45681620D01*
X201862618Y-45684242D01*
X201856843Y-45686309D01*
X201850893Y-45687799D01*
X201844826Y-45688699D01*
X201838700Y-45689000D01*
X201713700Y-45689000D01*
X201707574Y-45688699D01*
X201701507Y-45687799D01*
X201695557Y-45686309D01*
X201689782Y-45684242D01*
X201684238Y-45681620D01*
X201678977Y-45678467D01*
X201674050Y-45674813D01*
X201669506Y-45670694D01*
X201665387Y-45666150D01*
X201661733Y-45661223D01*
X201658580Y-45655962D01*
X201655958Y-45650418D01*
X201653891Y-45644643D01*
X201652401Y-45638693D01*
X201651501Y-45632626D01*
X201651200Y-45626500D01*
X201651200Y-44701500D01*
X201651501Y-44695374D01*
X201652401Y-44689307D01*
X201653891Y-44683357D01*
X201655958Y-44677582D01*
X201658580Y-44672038D01*
X201661733Y-44666777D01*
X201665387Y-44661850D01*
X201669506Y-44657306D01*
X201674050Y-44653187D01*
X201678977Y-44649533D01*
X201684238Y-44646380D01*
X201689782Y-44643758D01*
X201695557Y-44641691D01*
X201701507Y-44640201D01*
X201707574Y-44639301D01*
X201713700Y-44639000D01*
X201838700Y-44639000D01*
X201844826Y-44639301D01*
X201844826Y-44639301D01*
G37*
D15*
X201776200Y-45164000D03*
D13*
G36*
X201344826Y-44639301D02*
X201350893Y-44640201D01*
X201356843Y-44641691D01*
X201362618Y-44643758D01*
X201368162Y-44646380D01*
X201373423Y-44649533D01*
X201378350Y-44653187D01*
X201382894Y-44657306D01*
X201387013Y-44661850D01*
X201390667Y-44666777D01*
X201393820Y-44672038D01*
X201396442Y-44677582D01*
X201398509Y-44683357D01*
X201399999Y-44689307D01*
X201400899Y-44695374D01*
X201401200Y-44701500D01*
X201401200Y-45626500D01*
X201400899Y-45632626D01*
X201399999Y-45638693D01*
X201398509Y-45644643D01*
X201396442Y-45650418D01*
X201393820Y-45655962D01*
X201390667Y-45661223D01*
X201387013Y-45666150D01*
X201382894Y-45670694D01*
X201378350Y-45674813D01*
X201373423Y-45678467D01*
X201368162Y-45681620D01*
X201362618Y-45684242D01*
X201356843Y-45686309D01*
X201350893Y-45687799D01*
X201344826Y-45688699D01*
X201338700Y-45689000D01*
X201213700Y-45689000D01*
X201207574Y-45688699D01*
X201201507Y-45687799D01*
X201195557Y-45686309D01*
X201189782Y-45684242D01*
X201184238Y-45681620D01*
X201178977Y-45678467D01*
X201174050Y-45674813D01*
X201169506Y-45670694D01*
X201165387Y-45666150D01*
X201161733Y-45661223D01*
X201158580Y-45655962D01*
X201155958Y-45650418D01*
X201153891Y-45644643D01*
X201152401Y-45638693D01*
X201151501Y-45632626D01*
X201151200Y-45626500D01*
X201151200Y-44701500D01*
X201151501Y-44695374D01*
X201152401Y-44689307D01*
X201153891Y-44683357D01*
X201155958Y-44677582D01*
X201158580Y-44672038D01*
X201161733Y-44666777D01*
X201165387Y-44661850D01*
X201169506Y-44657306D01*
X201174050Y-44653187D01*
X201178977Y-44649533D01*
X201184238Y-44646380D01*
X201189782Y-44643758D01*
X201195557Y-44641691D01*
X201201507Y-44640201D01*
X201207574Y-44639301D01*
X201213700Y-44639000D01*
X201338700Y-44639000D01*
X201344826Y-44639301D01*
X201344826Y-44639301D01*
G37*
D15*
X201276200Y-45164000D03*
D13*
G36*
X200844826Y-44639301D02*
X200850893Y-44640201D01*
X200856843Y-44641691D01*
X200862618Y-44643758D01*
X200868162Y-44646380D01*
X200873423Y-44649533D01*
X200878350Y-44653187D01*
X200882894Y-44657306D01*
X200887013Y-44661850D01*
X200890667Y-44666777D01*
X200893820Y-44672038D01*
X200896442Y-44677582D01*
X200898509Y-44683357D01*
X200899999Y-44689307D01*
X200900899Y-44695374D01*
X200901200Y-44701500D01*
X200901200Y-45626500D01*
X200900899Y-45632626D01*
X200899999Y-45638693D01*
X200898509Y-45644643D01*
X200896442Y-45650418D01*
X200893820Y-45655962D01*
X200890667Y-45661223D01*
X200887013Y-45666150D01*
X200882894Y-45670694D01*
X200878350Y-45674813D01*
X200873423Y-45678467D01*
X200868162Y-45681620D01*
X200862618Y-45684242D01*
X200856843Y-45686309D01*
X200850893Y-45687799D01*
X200844826Y-45688699D01*
X200838700Y-45689000D01*
X200713700Y-45689000D01*
X200707574Y-45688699D01*
X200701507Y-45687799D01*
X200695557Y-45686309D01*
X200689782Y-45684242D01*
X200684238Y-45681620D01*
X200678977Y-45678467D01*
X200674050Y-45674813D01*
X200669506Y-45670694D01*
X200665387Y-45666150D01*
X200661733Y-45661223D01*
X200658580Y-45655962D01*
X200655958Y-45650418D01*
X200653891Y-45644643D01*
X200652401Y-45638693D01*
X200651501Y-45632626D01*
X200651200Y-45626500D01*
X200651200Y-44701500D01*
X200651501Y-44695374D01*
X200652401Y-44689307D01*
X200653891Y-44683357D01*
X200655958Y-44677582D01*
X200658580Y-44672038D01*
X200661733Y-44666777D01*
X200665387Y-44661850D01*
X200669506Y-44657306D01*
X200674050Y-44653187D01*
X200678977Y-44649533D01*
X200684238Y-44646380D01*
X200689782Y-44643758D01*
X200695557Y-44641691D01*
X200701507Y-44640201D01*
X200707574Y-44639301D01*
X200713700Y-44639000D01*
X200838700Y-44639000D01*
X200844826Y-44639301D01*
X200844826Y-44639301D01*
G37*
D15*
X200776200Y-45164000D03*
G04 #@! TD*
D13*
G04 #@! TO.C,C1*
G36*
X196048191Y-46363153D02*
X196069426Y-46366303D01*
X196090250Y-46371519D01*
X196110462Y-46378751D01*
X196129868Y-46387930D01*
X196148281Y-46398966D01*
X196165524Y-46411754D01*
X196181430Y-46426170D01*
X196195846Y-46442076D01*
X196208634Y-46459319D01*
X196219670Y-46477732D01*
X196228849Y-46497138D01*
X196236081Y-46517350D01*
X196241297Y-46538174D01*
X196244447Y-46559409D01*
X196245500Y-46580850D01*
X196245500Y-47018350D01*
X196244447Y-47039791D01*
X196241297Y-47061026D01*
X196236081Y-47081850D01*
X196228849Y-47102062D01*
X196219670Y-47121468D01*
X196208634Y-47139881D01*
X196195846Y-47157124D01*
X196181430Y-47173030D01*
X196165524Y-47187446D01*
X196148281Y-47200234D01*
X196129868Y-47211270D01*
X196110462Y-47220449D01*
X196090250Y-47227681D01*
X196069426Y-47232897D01*
X196048191Y-47236047D01*
X196026750Y-47237100D01*
X195514250Y-47237100D01*
X195492809Y-47236047D01*
X195471574Y-47232897D01*
X195450750Y-47227681D01*
X195430538Y-47220449D01*
X195411132Y-47211270D01*
X195392719Y-47200234D01*
X195375476Y-47187446D01*
X195359570Y-47173030D01*
X195345154Y-47157124D01*
X195332366Y-47139881D01*
X195321330Y-47121468D01*
X195312151Y-47102062D01*
X195304919Y-47081850D01*
X195299703Y-47061026D01*
X195296553Y-47039791D01*
X195295500Y-47018350D01*
X195295500Y-46580850D01*
X195296553Y-46559409D01*
X195299703Y-46538174D01*
X195304919Y-46517350D01*
X195312151Y-46497138D01*
X195321330Y-46477732D01*
X195332366Y-46459319D01*
X195345154Y-46442076D01*
X195359570Y-46426170D01*
X195375476Y-46411754D01*
X195392719Y-46398966D01*
X195411132Y-46387930D01*
X195430538Y-46378751D01*
X195450750Y-46371519D01*
X195471574Y-46366303D01*
X195492809Y-46363153D01*
X195514250Y-46362100D01*
X196026750Y-46362100D01*
X196048191Y-46363153D01*
X196048191Y-46363153D01*
G37*
D16*
X195770500Y-46799600D03*
D13*
G36*
X196048191Y-44788153D02*
X196069426Y-44791303D01*
X196090250Y-44796519D01*
X196110462Y-44803751D01*
X196129868Y-44812930D01*
X196148281Y-44823966D01*
X196165524Y-44836754D01*
X196181430Y-44851170D01*
X196195846Y-44867076D01*
X196208634Y-44884319D01*
X196219670Y-44902732D01*
X196228849Y-44922138D01*
X196236081Y-44942350D01*
X196241297Y-44963174D01*
X196244447Y-44984409D01*
X196245500Y-45005850D01*
X196245500Y-45443350D01*
X196244447Y-45464791D01*
X196241297Y-45486026D01*
X196236081Y-45506850D01*
X196228849Y-45527062D01*
X196219670Y-45546468D01*
X196208634Y-45564881D01*
X196195846Y-45582124D01*
X196181430Y-45598030D01*
X196165524Y-45612446D01*
X196148281Y-45625234D01*
X196129868Y-45636270D01*
X196110462Y-45645449D01*
X196090250Y-45652681D01*
X196069426Y-45657897D01*
X196048191Y-45661047D01*
X196026750Y-45662100D01*
X195514250Y-45662100D01*
X195492809Y-45661047D01*
X195471574Y-45657897D01*
X195450750Y-45652681D01*
X195430538Y-45645449D01*
X195411132Y-45636270D01*
X195392719Y-45625234D01*
X195375476Y-45612446D01*
X195359570Y-45598030D01*
X195345154Y-45582124D01*
X195332366Y-45564881D01*
X195321330Y-45546468D01*
X195312151Y-45527062D01*
X195304919Y-45506850D01*
X195299703Y-45486026D01*
X195296553Y-45464791D01*
X195295500Y-45443350D01*
X195295500Y-45005850D01*
X195296553Y-44984409D01*
X195299703Y-44963174D01*
X195304919Y-44942350D01*
X195312151Y-44922138D01*
X195321330Y-44902732D01*
X195332366Y-44884319D01*
X195345154Y-44867076D01*
X195359570Y-44851170D01*
X195375476Y-44836754D01*
X195392719Y-44823966D01*
X195411132Y-44812930D01*
X195430538Y-44803751D01*
X195450750Y-44796519D01*
X195471574Y-44791303D01*
X195492809Y-44788153D01*
X195514250Y-44787100D01*
X196026750Y-44787100D01*
X196048191Y-44788153D01*
X196048191Y-44788153D01*
G37*
D16*
X195770500Y-45224600D03*
G04 #@! TD*
D13*
G04 #@! TO.C,C2*
G36*
X192923991Y-46363153D02*
X192945226Y-46366303D01*
X192966050Y-46371519D01*
X192986262Y-46378751D01*
X193005668Y-46387930D01*
X193024081Y-46398966D01*
X193041324Y-46411754D01*
X193057230Y-46426170D01*
X193071646Y-46442076D01*
X193084434Y-46459319D01*
X193095470Y-46477732D01*
X193104649Y-46497138D01*
X193111881Y-46517350D01*
X193117097Y-46538174D01*
X193120247Y-46559409D01*
X193121300Y-46580850D01*
X193121300Y-47018350D01*
X193120247Y-47039791D01*
X193117097Y-47061026D01*
X193111881Y-47081850D01*
X193104649Y-47102062D01*
X193095470Y-47121468D01*
X193084434Y-47139881D01*
X193071646Y-47157124D01*
X193057230Y-47173030D01*
X193041324Y-47187446D01*
X193024081Y-47200234D01*
X193005668Y-47211270D01*
X192986262Y-47220449D01*
X192966050Y-47227681D01*
X192945226Y-47232897D01*
X192923991Y-47236047D01*
X192902550Y-47237100D01*
X192390050Y-47237100D01*
X192368609Y-47236047D01*
X192347374Y-47232897D01*
X192326550Y-47227681D01*
X192306338Y-47220449D01*
X192286932Y-47211270D01*
X192268519Y-47200234D01*
X192251276Y-47187446D01*
X192235370Y-47173030D01*
X192220954Y-47157124D01*
X192208166Y-47139881D01*
X192197130Y-47121468D01*
X192187951Y-47102062D01*
X192180719Y-47081850D01*
X192175503Y-47061026D01*
X192172353Y-47039791D01*
X192171300Y-47018350D01*
X192171300Y-46580850D01*
X192172353Y-46559409D01*
X192175503Y-46538174D01*
X192180719Y-46517350D01*
X192187951Y-46497138D01*
X192197130Y-46477732D01*
X192208166Y-46459319D01*
X192220954Y-46442076D01*
X192235370Y-46426170D01*
X192251276Y-46411754D01*
X192268519Y-46398966D01*
X192286932Y-46387930D01*
X192306338Y-46378751D01*
X192326550Y-46371519D01*
X192347374Y-46366303D01*
X192368609Y-46363153D01*
X192390050Y-46362100D01*
X192902550Y-46362100D01*
X192923991Y-46363153D01*
X192923991Y-46363153D01*
G37*
D16*
X192646300Y-46799600D03*
D13*
G36*
X192923991Y-44788153D02*
X192945226Y-44791303D01*
X192966050Y-44796519D01*
X192986262Y-44803751D01*
X193005668Y-44812930D01*
X193024081Y-44823966D01*
X193041324Y-44836754D01*
X193057230Y-44851170D01*
X193071646Y-44867076D01*
X193084434Y-44884319D01*
X193095470Y-44902732D01*
X193104649Y-44922138D01*
X193111881Y-44942350D01*
X193117097Y-44963174D01*
X193120247Y-44984409D01*
X193121300Y-45005850D01*
X193121300Y-45443350D01*
X193120247Y-45464791D01*
X193117097Y-45486026D01*
X193111881Y-45506850D01*
X193104649Y-45527062D01*
X193095470Y-45546468D01*
X193084434Y-45564881D01*
X193071646Y-45582124D01*
X193057230Y-45598030D01*
X193041324Y-45612446D01*
X193024081Y-45625234D01*
X193005668Y-45636270D01*
X192986262Y-45645449D01*
X192966050Y-45652681D01*
X192945226Y-45657897D01*
X192923991Y-45661047D01*
X192902550Y-45662100D01*
X192390050Y-45662100D01*
X192368609Y-45661047D01*
X192347374Y-45657897D01*
X192326550Y-45652681D01*
X192306338Y-45645449D01*
X192286932Y-45636270D01*
X192268519Y-45625234D01*
X192251276Y-45612446D01*
X192235370Y-45598030D01*
X192220954Y-45582124D01*
X192208166Y-45564881D01*
X192197130Y-45546468D01*
X192187951Y-45527062D01*
X192180719Y-45506850D01*
X192175503Y-45486026D01*
X192172353Y-45464791D01*
X192171300Y-45443350D01*
X192171300Y-45005850D01*
X192172353Y-44984409D01*
X192175503Y-44963174D01*
X192180719Y-44942350D01*
X192187951Y-44922138D01*
X192197130Y-44902732D01*
X192208166Y-44884319D01*
X192220954Y-44867076D01*
X192235370Y-44851170D01*
X192251276Y-44836754D01*
X192268519Y-44823966D01*
X192286932Y-44812930D01*
X192306338Y-44803751D01*
X192326550Y-44796519D01*
X192347374Y-44791303D01*
X192368609Y-44788153D01*
X192390050Y-44787100D01*
X192902550Y-44787100D01*
X192923991Y-44788153D01*
X192923991Y-44788153D01*
G37*
D16*
X192646300Y-45224600D03*
G04 #@! TD*
D13*
G04 #@! TO.C,C3*
G36*
X194486091Y-44788153D02*
X194507326Y-44791303D01*
X194528150Y-44796519D01*
X194548362Y-44803751D01*
X194567768Y-44812930D01*
X194586181Y-44823966D01*
X194603424Y-44836754D01*
X194619330Y-44851170D01*
X194633746Y-44867076D01*
X194646534Y-44884319D01*
X194657570Y-44902732D01*
X194666749Y-44922138D01*
X194673981Y-44942350D01*
X194679197Y-44963174D01*
X194682347Y-44984409D01*
X194683400Y-45005850D01*
X194683400Y-45443350D01*
X194682347Y-45464791D01*
X194679197Y-45486026D01*
X194673981Y-45506850D01*
X194666749Y-45527062D01*
X194657570Y-45546468D01*
X194646534Y-45564881D01*
X194633746Y-45582124D01*
X194619330Y-45598030D01*
X194603424Y-45612446D01*
X194586181Y-45625234D01*
X194567768Y-45636270D01*
X194548362Y-45645449D01*
X194528150Y-45652681D01*
X194507326Y-45657897D01*
X194486091Y-45661047D01*
X194464650Y-45662100D01*
X193952150Y-45662100D01*
X193930709Y-45661047D01*
X193909474Y-45657897D01*
X193888650Y-45652681D01*
X193868438Y-45645449D01*
X193849032Y-45636270D01*
X193830619Y-45625234D01*
X193813376Y-45612446D01*
X193797470Y-45598030D01*
X193783054Y-45582124D01*
X193770266Y-45564881D01*
X193759230Y-45546468D01*
X193750051Y-45527062D01*
X193742819Y-45506850D01*
X193737603Y-45486026D01*
X193734453Y-45464791D01*
X193733400Y-45443350D01*
X193733400Y-45005850D01*
X193734453Y-44984409D01*
X193737603Y-44963174D01*
X193742819Y-44942350D01*
X193750051Y-44922138D01*
X193759230Y-44902732D01*
X193770266Y-44884319D01*
X193783054Y-44867076D01*
X193797470Y-44851170D01*
X193813376Y-44836754D01*
X193830619Y-44823966D01*
X193849032Y-44812930D01*
X193868438Y-44803751D01*
X193888650Y-44796519D01*
X193909474Y-44791303D01*
X193930709Y-44788153D01*
X193952150Y-44787100D01*
X194464650Y-44787100D01*
X194486091Y-44788153D01*
X194486091Y-44788153D01*
G37*
D16*
X194208400Y-45224600D03*
D13*
G36*
X194486091Y-46363153D02*
X194507326Y-46366303D01*
X194528150Y-46371519D01*
X194548362Y-46378751D01*
X194567768Y-46387930D01*
X194586181Y-46398966D01*
X194603424Y-46411754D01*
X194619330Y-46426170D01*
X194633746Y-46442076D01*
X194646534Y-46459319D01*
X194657570Y-46477732D01*
X194666749Y-46497138D01*
X194673981Y-46517350D01*
X194679197Y-46538174D01*
X194682347Y-46559409D01*
X194683400Y-46580850D01*
X194683400Y-47018350D01*
X194682347Y-47039791D01*
X194679197Y-47061026D01*
X194673981Y-47081850D01*
X194666749Y-47102062D01*
X194657570Y-47121468D01*
X194646534Y-47139881D01*
X194633746Y-47157124D01*
X194619330Y-47173030D01*
X194603424Y-47187446D01*
X194586181Y-47200234D01*
X194567768Y-47211270D01*
X194548362Y-47220449D01*
X194528150Y-47227681D01*
X194507326Y-47232897D01*
X194486091Y-47236047D01*
X194464650Y-47237100D01*
X193952150Y-47237100D01*
X193930709Y-47236047D01*
X193909474Y-47232897D01*
X193888650Y-47227681D01*
X193868438Y-47220449D01*
X193849032Y-47211270D01*
X193830619Y-47200234D01*
X193813376Y-47187446D01*
X193797470Y-47173030D01*
X193783054Y-47157124D01*
X193770266Y-47139881D01*
X193759230Y-47121468D01*
X193750051Y-47102062D01*
X193742819Y-47081850D01*
X193737603Y-47061026D01*
X193734453Y-47039791D01*
X193733400Y-47018350D01*
X193733400Y-46580850D01*
X193734453Y-46559409D01*
X193737603Y-46538174D01*
X193742819Y-46517350D01*
X193750051Y-46497138D01*
X193759230Y-46477732D01*
X193770266Y-46459319D01*
X193783054Y-46442076D01*
X193797470Y-46426170D01*
X193813376Y-46411754D01*
X193830619Y-46398966D01*
X193849032Y-46387930D01*
X193868438Y-46378751D01*
X193888650Y-46371519D01*
X193909474Y-46366303D01*
X193930709Y-46363153D01*
X193952150Y-46362100D01*
X194464650Y-46362100D01*
X194486091Y-46363153D01*
X194486091Y-46363153D01*
G37*
D16*
X194208400Y-46799600D03*
G04 #@! TD*
D17*
G04 #@! TO.C,USB1*
X185111200Y-48908100D03*
X184611200Y-48908100D03*
X185611200Y-48908100D03*
X184111200Y-48908100D03*
X186111200Y-48908100D03*
X186611200Y-48908100D03*
X183111200Y-48908100D03*
X183611200Y-48908100D03*
D18*
X187311200Y-48908100D03*
X188086200Y-48908100D03*
X182411200Y-48908100D03*
X181636200Y-48908100D03*
G04 #@! TD*
D19*
G04 #@! TO.C,Y1*
X195906000Y-49428400D03*
X192206000Y-49428400D03*
G04 #@! TD*
D12*
G04 #@! TO.C,R2*
X192659000Y-43078400D03*
X194183000Y-43078400D03*
G04 #@! TD*
M02*
