G04 #@! TF.GenerationSoftware,KiCad,Pcbnew,(5.0.2)-1*
G04 #@! TF.CreationDate,2019-04-24T00:03:05-04:00*
G04 #@! TF.ProjectId,4x5macro,3478356d-6163-4726-9f2e-6b696361645f,rev?*
G04 #@! TF.SameCoordinates,Original*
G04 #@! TF.FileFunction,Legend,Bot*
G04 #@! TF.FilePolarity,Positive*
%FSLAX46Y46*%
G04 Gerber Fmt 4.6, Leading zero omitted, Abs format (unit mm)*
G04 Created by KiCad (PCBNEW (5.0.2)-1) date 4/24/2019 12:03:05 AM*
%MOMM*%
%LPD*%
G01*
G04 APERTURE LIST*
%ADD10C,0.500000*%
%ADD11C,0.375000*%
%ADD12C,1.250000*%
%ADD13C,0.300000*%
%ADD14C,0.010000*%
G04 APERTURE END LIST*
D10*
X251282904Y-94821261D02*
X251282904Y-92821261D01*
X251282904Y-94726023D02*
X251473380Y-94821261D01*
X251854333Y-94821261D01*
X252044809Y-94726023D01*
X252140047Y-94630785D01*
X252235285Y-94440309D01*
X252235285Y-93868880D01*
X252140047Y-93678404D01*
X252044809Y-93583166D01*
X251854333Y-93487928D01*
X251473380Y-93487928D01*
X251282904Y-93583166D01*
X249568619Y-94726023D02*
X249759095Y-94821261D01*
X250140047Y-94821261D01*
X250330523Y-94726023D01*
X250425761Y-94535547D01*
X250425761Y-93773642D01*
X250330523Y-93583166D01*
X250140047Y-93487928D01*
X249759095Y-93487928D01*
X249568619Y-93583166D01*
X249473380Y-93773642D01*
X249473380Y-93964119D01*
X250425761Y-94154595D01*
X248711476Y-94726023D02*
X248521000Y-94821261D01*
X248140047Y-94821261D01*
X247949571Y-94726023D01*
X247854333Y-94535547D01*
X247854333Y-94440309D01*
X247949571Y-94249833D01*
X248140047Y-94154595D01*
X248425761Y-94154595D01*
X248616238Y-94059357D01*
X248711476Y-93868880D01*
X248711476Y-93773642D01*
X248616238Y-93583166D01*
X248425761Y-93487928D01*
X248140047Y-93487928D01*
X247949571Y-93583166D01*
X246997190Y-94821261D02*
X246997190Y-93487928D01*
X246997190Y-92821261D02*
X247092428Y-92916500D01*
X246997190Y-93011738D01*
X246901952Y-92916500D01*
X246997190Y-92821261D01*
X246997190Y-93011738D01*
X245187666Y-93487928D02*
X245187666Y-95106976D01*
X245282904Y-95297452D01*
X245378142Y-95392690D01*
X245568619Y-95487928D01*
X245854333Y-95487928D01*
X246044809Y-95392690D01*
X245187666Y-94726023D02*
X245378142Y-94821261D01*
X245759095Y-94821261D01*
X245949571Y-94726023D01*
X246044809Y-94630785D01*
X246140047Y-94440309D01*
X246140047Y-93868880D01*
X246044809Y-93678404D01*
X245949571Y-93583166D01*
X245759095Y-93487928D01*
X245378142Y-93487928D01*
X245187666Y-93583166D01*
X244235285Y-93487928D02*
X244235285Y-94821261D01*
X244235285Y-93678404D02*
X244140047Y-93583166D01*
X243949571Y-93487928D01*
X243663857Y-93487928D01*
X243473380Y-93583166D01*
X243378142Y-93773642D01*
X243378142Y-94821261D01*
X241663857Y-94726023D02*
X241854333Y-94821261D01*
X242235285Y-94821261D01*
X242425761Y-94726023D01*
X242521000Y-94535547D01*
X242521000Y-93773642D01*
X242425761Y-93583166D01*
X242235285Y-93487928D01*
X241854333Y-93487928D01*
X241663857Y-93583166D01*
X241568619Y-93773642D01*
X241568619Y-93964119D01*
X242521000Y-94154595D01*
X239854333Y-94821261D02*
X239854333Y-92821261D01*
X239854333Y-94726023D02*
X240044809Y-94821261D01*
X240425761Y-94821261D01*
X240616238Y-94726023D01*
X240711476Y-94630785D01*
X240806714Y-94440309D01*
X240806714Y-93868880D01*
X240711476Y-93678404D01*
X240616238Y-93583166D01*
X240425761Y-93487928D01*
X240044809Y-93487928D01*
X239854333Y-93583166D01*
X237378142Y-94821261D02*
X237378142Y-92821261D01*
X237378142Y-93583166D02*
X237187666Y-93487928D01*
X236806714Y-93487928D01*
X236616238Y-93583166D01*
X236521000Y-93678404D01*
X236425761Y-93868880D01*
X236425761Y-94440309D01*
X236521000Y-94630785D01*
X236616238Y-94726023D01*
X236806714Y-94821261D01*
X237187666Y-94821261D01*
X237378142Y-94726023D01*
X235759095Y-93487928D02*
X235282904Y-94821261D01*
X234806714Y-93487928D02*
X235282904Y-94821261D01*
X235473380Y-95297452D01*
X235568619Y-95392690D01*
X235759095Y-95487928D01*
X231663857Y-93487928D02*
X231663857Y-94821261D01*
X232521000Y-93487928D02*
X232521000Y-94535547D01*
X232425761Y-94726023D01*
X232235285Y-94821261D01*
X231949571Y-94821261D01*
X231759095Y-94726023D01*
X231663857Y-94630785D01*
X229282904Y-92726023D02*
X230997190Y-95297452D01*
X228616238Y-94821261D02*
X228616238Y-93487928D01*
X228616238Y-93678404D02*
X228521000Y-93583166D01*
X228330523Y-93487928D01*
X228044809Y-93487928D01*
X227854333Y-93583166D01*
X227759095Y-93773642D01*
X227759095Y-94821261D01*
X227759095Y-93773642D02*
X227663857Y-93583166D01*
X227473380Y-93487928D01*
X227187666Y-93487928D01*
X226997190Y-93583166D01*
X226901952Y-93773642D01*
X226901952Y-94821261D01*
X226140047Y-93487928D02*
X225663857Y-94821261D01*
X225187666Y-93487928D02*
X225663857Y-94821261D01*
X225854333Y-95297452D01*
X225949571Y-95392690D01*
X226140047Y-95487928D01*
X224711476Y-93487928D02*
X223949571Y-93487928D01*
X224425761Y-92821261D02*
X224425761Y-94535547D01*
X224330523Y-94726023D01*
X224140047Y-94821261D01*
X223949571Y-94821261D01*
X223282904Y-94821261D02*
X223282904Y-92821261D01*
X222425761Y-94821261D02*
X222425761Y-93773642D01*
X222521000Y-93583166D01*
X222711476Y-93487928D01*
X222997190Y-93487928D01*
X223187666Y-93583166D01*
X223282904Y-93678404D01*
X221187666Y-94821261D02*
X221378142Y-94726023D01*
X221473380Y-94630785D01*
X221568619Y-94440309D01*
X221568619Y-93868880D01*
X221473380Y-93678404D01*
X221378142Y-93583166D01*
X221187666Y-93487928D01*
X220901952Y-93487928D01*
X220711476Y-93583166D01*
X220616238Y-93678404D01*
X220521000Y-93868880D01*
X220521000Y-94440309D01*
X220616238Y-94630785D01*
X220711476Y-94726023D01*
X220901952Y-94821261D01*
X221187666Y-94821261D01*
X219759095Y-94726023D02*
X219568619Y-94821261D01*
X219187666Y-94821261D01*
X218997190Y-94726023D01*
X218901952Y-94535547D01*
X218901952Y-94440309D01*
X218997190Y-94249833D01*
X219187666Y-94154595D01*
X219473380Y-94154595D01*
X219663857Y-94059357D01*
X219759095Y-93868880D01*
X219759095Y-93773642D01*
X219663857Y-93583166D01*
X219473380Y-93487928D01*
X219187666Y-93487928D01*
X218997190Y-93583166D01*
X218044809Y-94821261D02*
X218044809Y-93487928D01*
X218044809Y-93678404D02*
X217949571Y-93583166D01*
X217759095Y-93487928D01*
X217473380Y-93487928D01*
X217282904Y-93583166D01*
X217187666Y-93773642D01*
X217187666Y-94821261D01*
X217187666Y-93773642D02*
X217092428Y-93583166D01*
X216901952Y-93487928D01*
X216616238Y-93487928D01*
X216425761Y-93583166D01*
X216330523Y-93773642D01*
X216330523Y-94821261D01*
X214521000Y-94821261D02*
X214521000Y-93773642D01*
X214616238Y-93583166D01*
X214806714Y-93487928D01*
X215187666Y-93487928D01*
X215378142Y-93583166D01*
X214521000Y-94726023D02*
X214711476Y-94821261D01*
X215187666Y-94821261D01*
X215378142Y-94726023D01*
X215473380Y-94535547D01*
X215473380Y-94345071D01*
X215378142Y-94154595D01*
X215187666Y-94059357D01*
X214711476Y-94059357D01*
X214521000Y-93964119D01*
X213568619Y-93487928D02*
X213568619Y-94821261D01*
X213568619Y-93678404D02*
X213473380Y-93583166D01*
X213282904Y-93487928D01*
X212997190Y-93487928D01*
X212806714Y-93583166D01*
X212711476Y-93773642D01*
X212711476Y-94821261D01*
X211759095Y-93487928D02*
X211759095Y-94821261D01*
X211759095Y-93678404D02*
X211663857Y-93583166D01*
X211473380Y-93487928D01*
X211187666Y-93487928D01*
X210997190Y-93583166D01*
X210901952Y-93773642D01*
X210901952Y-94821261D01*
D11*
X246172357Y-109682671D02*
X246172357Y-108682671D01*
X246172357Y-108968385D02*
X246100928Y-108825528D01*
X246029500Y-108754100D01*
X245886642Y-108682671D01*
X245743785Y-108682671D01*
X244672357Y-109611242D02*
X244815214Y-109682671D01*
X245100928Y-109682671D01*
X245243785Y-109611242D01*
X245315214Y-109468385D01*
X245315214Y-108896957D01*
X245243785Y-108754100D01*
X245100928Y-108682671D01*
X244815214Y-108682671D01*
X244672357Y-108754100D01*
X244600928Y-108896957D01*
X244600928Y-109039814D01*
X245315214Y-109182671D01*
X244100928Y-108682671D02*
X243743785Y-109682671D01*
X243386642Y-108682671D01*
X242815214Y-109682671D02*
X242815214Y-108682671D01*
X242815214Y-108182671D02*
X242886642Y-108254100D01*
X242815214Y-108325528D01*
X242743785Y-108254100D01*
X242815214Y-108182671D01*
X242815214Y-108325528D01*
X242172357Y-109611242D02*
X242029500Y-109682671D01*
X241743785Y-109682671D01*
X241600928Y-109611242D01*
X241529500Y-109468385D01*
X241529500Y-109396957D01*
X241600928Y-109254100D01*
X241743785Y-109182671D01*
X241958071Y-109182671D01*
X242100928Y-109111242D01*
X242172357Y-108968385D01*
X242172357Y-108896957D01*
X242100928Y-108754100D01*
X241958071Y-108682671D01*
X241743785Y-108682671D01*
X241600928Y-108754100D01*
X240886642Y-109682671D02*
X240886642Y-108682671D01*
X240886642Y-108182671D02*
X240958071Y-108254100D01*
X240886642Y-108325528D01*
X240815214Y-108254100D01*
X240886642Y-108182671D01*
X240886642Y-108325528D01*
X239958071Y-109682671D02*
X240100928Y-109611242D01*
X240172357Y-109539814D01*
X240243785Y-109396957D01*
X240243785Y-108968385D01*
X240172357Y-108825528D01*
X240100928Y-108754100D01*
X239958071Y-108682671D01*
X239743785Y-108682671D01*
X239600928Y-108754100D01*
X239529500Y-108825528D01*
X239458071Y-108968385D01*
X239458071Y-109396957D01*
X239529500Y-109539814D01*
X239600928Y-109611242D01*
X239743785Y-109682671D01*
X239958071Y-109682671D01*
X238815214Y-108682671D02*
X238815214Y-109682671D01*
X238815214Y-108825528D02*
X238743785Y-108754100D01*
X238600928Y-108682671D01*
X238386642Y-108682671D01*
X238243785Y-108754100D01*
X238172357Y-108896957D01*
X238172357Y-109682671D01*
X236386642Y-108325528D02*
X236315214Y-108254100D01*
X236172357Y-108182671D01*
X235815214Y-108182671D01*
X235672357Y-108254100D01*
X235600928Y-108325528D01*
X235529500Y-108468385D01*
X235529500Y-108611242D01*
X235600928Y-108825528D01*
X236458071Y-109682671D01*
X235529500Y-109682671D01*
X234886642Y-109539814D02*
X234815214Y-109611242D01*
X234886642Y-109682671D01*
X234958071Y-109611242D01*
X234886642Y-109539814D01*
X234886642Y-109682671D01*
X233886642Y-108182671D02*
X233743785Y-108182671D01*
X233600928Y-108254100D01*
X233529500Y-108325528D01*
X233458071Y-108468385D01*
X233386642Y-108754100D01*
X233386642Y-109111242D01*
X233458071Y-109396957D01*
X233529500Y-109539814D01*
X233600928Y-109611242D01*
X233743785Y-109682671D01*
X233886642Y-109682671D01*
X234029500Y-109611242D01*
X234100928Y-109539814D01*
X234172357Y-109396957D01*
X234243785Y-109111242D01*
X234243785Y-108754100D01*
X234172357Y-108468385D01*
X234100928Y-108325528D01*
X234029500Y-108254100D01*
X233886642Y-108182671D01*
X231315214Y-108182671D02*
X231172357Y-108182671D01*
X231029500Y-108254100D01*
X230958071Y-108325528D01*
X230886642Y-108468385D01*
X230815214Y-108754100D01*
X230815214Y-109111242D01*
X230886642Y-109396957D01*
X230958071Y-109539814D01*
X231029500Y-109611242D01*
X231172357Y-109682671D01*
X231315214Y-109682671D01*
X231458071Y-109611242D01*
X231529500Y-109539814D01*
X231600928Y-109396957D01*
X231672357Y-109111242D01*
X231672357Y-108754100D01*
X231600928Y-108468385D01*
X231529500Y-108325528D01*
X231458071Y-108254100D01*
X231315214Y-108182671D01*
X229529500Y-108682671D02*
X229529500Y-109682671D01*
X229886642Y-108111242D02*
X230243785Y-109182671D01*
X229315214Y-109182671D01*
X228743785Y-109539814D02*
X228672357Y-109611242D01*
X228743785Y-109682671D01*
X228815214Y-109611242D01*
X228743785Y-109539814D01*
X228743785Y-109682671D01*
X227243785Y-109682671D02*
X228100928Y-109682671D01*
X227672357Y-109682671D02*
X227672357Y-108182671D01*
X227815214Y-108396957D01*
X227958071Y-108539814D01*
X228100928Y-108611242D01*
X226529500Y-109682671D02*
X226243785Y-109682671D01*
X226100928Y-109611242D01*
X226029500Y-109539814D01*
X225886642Y-109325528D01*
X225815214Y-109039814D01*
X225815214Y-108468385D01*
X225886642Y-108325528D01*
X225958071Y-108254100D01*
X226100928Y-108182671D01*
X226386642Y-108182671D01*
X226529500Y-108254100D01*
X226600928Y-108325528D01*
X226672357Y-108468385D01*
X226672357Y-108825528D01*
X226600928Y-108968385D01*
X226529500Y-109039814D01*
X226386642Y-109111242D01*
X226100928Y-109111242D01*
X225958071Y-109039814D01*
X225886642Y-108968385D01*
X225815214Y-108825528D01*
D12*
X253109923Y-89980804D02*
X253109923Y-84980804D01*
X251443257Y-88552233D01*
X249776590Y-84980804D01*
X249776590Y-89980804D01*
X245252780Y-89980804D02*
X245252780Y-87361757D01*
X245490876Y-86885566D01*
X245967066Y-86647471D01*
X246919447Y-86647471D01*
X247395638Y-86885566D01*
X245252780Y-89742709D02*
X245728971Y-89980804D01*
X246919447Y-89980804D01*
X247395638Y-89742709D01*
X247633733Y-89266519D01*
X247633733Y-88790328D01*
X247395638Y-88314138D01*
X246919447Y-88076042D01*
X245728971Y-88076042D01*
X245252780Y-87837947D01*
X240728971Y-89742709D02*
X241205161Y-89980804D01*
X242157542Y-89980804D01*
X242633733Y-89742709D01*
X242871828Y-89504614D01*
X243109923Y-89028423D01*
X243109923Y-87599852D01*
X242871828Y-87123661D01*
X242633733Y-86885566D01*
X242157542Y-86647471D01*
X241205161Y-86647471D01*
X240728971Y-86885566D01*
X238586114Y-89980804D02*
X238586114Y-86647471D01*
X238586114Y-87599852D02*
X238348019Y-87123661D01*
X238109923Y-86885566D01*
X237633733Y-86647471D01*
X237157542Y-86647471D01*
X234776590Y-89980804D02*
X235252780Y-89742709D01*
X235490876Y-89504614D01*
X235728971Y-89028423D01*
X235728971Y-87599852D01*
X235490876Y-87123661D01*
X235252780Y-86885566D01*
X234776590Y-86647471D01*
X234062304Y-86647471D01*
X233586114Y-86885566D01*
X233348019Y-87123661D01*
X233109923Y-87599852D01*
X233109923Y-89028423D01*
X233348019Y-89504614D01*
X233586114Y-89742709D01*
X234062304Y-89980804D01*
X234776590Y-89980804D01*
X227157542Y-89980804D02*
X227157542Y-84980804D01*
X225252780Y-84980804D01*
X224776590Y-85218900D01*
X224538495Y-85456995D01*
X224300400Y-85933185D01*
X224300400Y-86647471D01*
X224538495Y-87123661D01*
X224776590Y-87361757D01*
X225252780Y-87599852D01*
X227157542Y-87599852D01*
X221443257Y-89980804D02*
X221919447Y-89742709D01*
X222157542Y-89504614D01*
X222395638Y-89028423D01*
X222395638Y-87599852D01*
X222157542Y-87123661D01*
X221919447Y-86885566D01*
X221443257Y-86647471D01*
X220728971Y-86647471D01*
X220252780Y-86885566D01*
X220014685Y-87123661D01*
X219776590Y-87599852D01*
X219776590Y-89028423D01*
X220014685Y-89504614D01*
X220252780Y-89742709D01*
X220728971Y-89980804D01*
X221443257Y-89980804D01*
X216919447Y-89980804D02*
X217395638Y-89742709D01*
X217633733Y-89266519D01*
X217633733Y-84980804D01*
X214300400Y-89980804D02*
X214776590Y-89742709D01*
X215014685Y-89504614D01*
X215252780Y-89028423D01*
X215252780Y-87599852D01*
X215014685Y-87123661D01*
X214776590Y-86885566D01*
X214300400Y-86647471D01*
X213586114Y-86647471D01*
X213109923Y-86885566D01*
X212871828Y-87123661D01*
X212633733Y-87599852D01*
X212633733Y-89028423D01*
X212871828Y-89504614D01*
X213109923Y-89742709D01*
X213586114Y-89980804D01*
X214300400Y-89980804D01*
X210490876Y-89504614D02*
X210252780Y-89742709D01*
X210490876Y-89980804D01*
X210728971Y-89742709D01*
X210490876Y-89504614D01*
X210490876Y-89980804D01*
X210490876Y-88076042D02*
X210728971Y-85218900D01*
X210490876Y-84980804D01*
X210252780Y-85218900D01*
X210490876Y-88076042D01*
X210490876Y-84980804D01*
D13*
X160418384Y-83404872D02*
X160418565Y-82404872D01*
X161918449Y-83048000D01*
X160418719Y-81547730D02*
X160418745Y-81404872D01*
X160490200Y-81262028D01*
X160561641Y-81190612D01*
X160704511Y-81119210D01*
X160990238Y-81047833D01*
X161347381Y-81047897D01*
X161633082Y-81119377D01*
X161775927Y-81190832D01*
X161847342Y-81262273D01*
X161918745Y-81405143D01*
X161918719Y-81548000D01*
X161847265Y-81690845D01*
X161775824Y-81762260D01*
X161632954Y-81833663D01*
X161347226Y-81905040D01*
X160990084Y-81904976D01*
X160704382Y-81833495D01*
X160561538Y-81762041D01*
X160490122Y-81690600D01*
X160418719Y-81547730D01*
X161776069Y-80405117D02*
X161847510Y-80333702D01*
X161918926Y-80405143D01*
X161847484Y-80476559D01*
X161776069Y-80405117D01*
X161918926Y-80405143D01*
X160419029Y-79833444D02*
X160419197Y-78904872D01*
X160990535Y-79404976D01*
X160990574Y-79190690D01*
X161062028Y-79047846D01*
X161133469Y-78976430D01*
X161276339Y-78905027D01*
X161633482Y-78905092D01*
X161776326Y-78976546D01*
X161847742Y-79047988D01*
X161919145Y-79190858D01*
X161919068Y-79619429D01*
X161847613Y-79762273D01*
X161776172Y-79833689D01*
X160919429Y-77619248D02*
X161919429Y-77619429D01*
X160347936Y-77976288D02*
X161419300Y-78333624D01*
X161419467Y-77405053D01*
X160419699Y-76119158D02*
X160419571Y-76833444D01*
X161133843Y-76905001D01*
X161062428Y-76833560D01*
X160991025Y-76690690D01*
X160991089Y-76333547D01*
X161062544Y-76190703D01*
X161133985Y-76119287D01*
X161276855Y-76047884D01*
X161633998Y-76047949D01*
X161776842Y-76119403D01*
X161848258Y-76190845D01*
X161919661Y-76333715D01*
X161919596Y-76690858D01*
X161848142Y-76833702D01*
X161776700Y-76905118D01*
X161920035Y-74262286D02*
X160920035Y-74262106D01*
X161062892Y-74262131D02*
X160991476Y-74190690D01*
X160920073Y-74047820D01*
X160920112Y-73833534D01*
X160991566Y-73690690D01*
X161134437Y-73619287D01*
X161920151Y-73619429D01*
X161134437Y-73619287D02*
X160991592Y-73547833D01*
X160920190Y-73404963D01*
X160920228Y-73190677D01*
X160991683Y-73047833D01*
X161134553Y-72976430D01*
X161920267Y-72976572D01*
X161920396Y-72262286D02*
X160920396Y-72262106D01*
X161063253Y-72262131D02*
X160991837Y-72190690D01*
X160920435Y-72047820D01*
X160920473Y-71833534D01*
X160991928Y-71690690D01*
X161134798Y-71619287D01*
X161920512Y-71619429D01*
X161134798Y-71619287D02*
X160991953Y-71547833D01*
X160920551Y-71404963D01*
X160920589Y-71190677D01*
X160992044Y-71047833D01*
X161134914Y-70976430D01*
X161920628Y-70976572D01*
X163347298Y-41947036D02*
X163334598Y-112292336D01*
X169240200Y-41948100D02*
X162760877Y-41946930D01*
X169227500Y-112293400D02*
X162748177Y-112292230D01*
X163334598Y-112292336D02*
X162748381Y-111165726D01*
X163334598Y-112292336D02*
X163921222Y-111165938D01*
X163347298Y-41947036D02*
X162760674Y-43073434D01*
X163347298Y-41947036D02*
X163933515Y-43073646D01*
X206720228Y-34830826D02*
X206577371Y-34759398D01*
X206505942Y-34687969D01*
X206434514Y-34545112D01*
X206434514Y-34473683D01*
X206505942Y-34330826D01*
X206577371Y-34259398D01*
X206720228Y-34187969D01*
X207005942Y-34187969D01*
X207148800Y-34259398D01*
X207220228Y-34330826D01*
X207291657Y-34473683D01*
X207291657Y-34545112D01*
X207220228Y-34687969D01*
X207148800Y-34759398D01*
X207005942Y-34830826D01*
X206720228Y-34830826D01*
X206577371Y-34902255D01*
X206505942Y-34973683D01*
X206434514Y-35116540D01*
X206434514Y-35402255D01*
X206505942Y-35545112D01*
X206577371Y-35616540D01*
X206720228Y-35687969D01*
X207005942Y-35687969D01*
X207148800Y-35616540D01*
X207220228Y-35545112D01*
X207291657Y-35402255D01*
X207291657Y-35116540D01*
X207220228Y-34973683D01*
X207148800Y-34902255D01*
X207005942Y-34830826D01*
X208577371Y-34187969D02*
X208291657Y-34187969D01*
X208148800Y-34259398D01*
X208077371Y-34330826D01*
X207934514Y-34545112D01*
X207863085Y-34830826D01*
X207863085Y-35402255D01*
X207934514Y-35545112D01*
X208005942Y-35616540D01*
X208148800Y-35687969D01*
X208434514Y-35687969D01*
X208577371Y-35616540D01*
X208648800Y-35545112D01*
X208720228Y-35402255D01*
X208720228Y-35045112D01*
X208648800Y-34902255D01*
X208577371Y-34830826D01*
X208434514Y-34759398D01*
X208148800Y-34759398D01*
X208005942Y-34830826D01*
X207934514Y-34902255D01*
X207863085Y-35045112D01*
X209363085Y-35545112D02*
X209434514Y-35616540D01*
X209363085Y-35687969D01*
X209291657Y-35616540D01*
X209363085Y-35545112D01*
X209363085Y-35687969D01*
X210291657Y-34830826D02*
X210148800Y-34759398D01*
X210077371Y-34687969D01*
X210005942Y-34545112D01*
X210005942Y-34473683D01*
X210077371Y-34330826D01*
X210148800Y-34259398D01*
X210291657Y-34187969D01*
X210577371Y-34187969D01*
X210720228Y-34259398D01*
X210791657Y-34330826D01*
X210863085Y-34473683D01*
X210863085Y-34545112D01*
X210791657Y-34687969D01*
X210720228Y-34759398D01*
X210577371Y-34830826D01*
X210291657Y-34830826D01*
X210148800Y-34902255D01*
X210077371Y-34973683D01*
X210005942Y-35116540D01*
X210005942Y-35402255D01*
X210077371Y-35545112D01*
X210148800Y-35616540D01*
X210291657Y-35687969D01*
X210577371Y-35687969D01*
X210720228Y-35616540D01*
X210791657Y-35545112D01*
X210863085Y-35402255D01*
X210863085Y-35116540D01*
X210791657Y-34973683D01*
X210720228Y-34902255D01*
X210577371Y-34830826D01*
X212291657Y-35687969D02*
X211434514Y-35687969D01*
X211863085Y-35687969D02*
X211863085Y-34187969D01*
X211720228Y-34402255D01*
X211577371Y-34545112D01*
X211434514Y-34616540D01*
X212791657Y-34187969D02*
X213791657Y-34187969D01*
X213148800Y-35687969D01*
X215505942Y-35687969D02*
X215505942Y-34687969D01*
X215505942Y-34830826D02*
X215577371Y-34759398D01*
X215720228Y-34687969D01*
X215934514Y-34687969D01*
X216077371Y-34759398D01*
X216148800Y-34902255D01*
X216148800Y-35687969D01*
X216148800Y-34902255D02*
X216220228Y-34759398D01*
X216363085Y-34687969D01*
X216577371Y-34687969D01*
X216720228Y-34759398D01*
X216791657Y-34902255D01*
X216791657Y-35687969D01*
X217505942Y-35687969D02*
X217505942Y-34687969D01*
X217505942Y-34830826D02*
X217577371Y-34759398D01*
X217720228Y-34687969D01*
X217934514Y-34687969D01*
X218077371Y-34759398D01*
X218148800Y-34902255D01*
X218148800Y-35687969D01*
X218148800Y-34902255D02*
X218220228Y-34759398D01*
X218363085Y-34687969D01*
X218577371Y-34687969D01*
X218720228Y-34759398D01*
X218791657Y-34902255D01*
X218791657Y-35687969D01*
X169240200Y-37109398D02*
X256057400Y-37109398D01*
X169240200Y-41821100D02*
X169240200Y-36522977D01*
X256057400Y-41821100D02*
X256057400Y-36522977D01*
X256057400Y-37109398D02*
X254930896Y-37695819D01*
X256057400Y-37109398D02*
X254930896Y-36522977D01*
X169240200Y-37109398D02*
X170366704Y-37695819D01*
X169240200Y-37109398D02*
X170366704Y-36522977D01*
D14*
G04 #@! TO.C,G\002A\002A\002A*
G36*
X202065730Y-87299585D02*
X202170334Y-87451047D01*
X202268667Y-87579200D01*
X202428867Y-87771907D01*
X202545396Y-87894577D01*
X202579229Y-87917866D01*
X202556271Y-87858814D01*
X202451667Y-87707352D01*
X202353334Y-87579200D01*
X202193134Y-87386492D01*
X202076605Y-87263822D01*
X202042772Y-87240533D01*
X202065730Y-87299585D01*
X202065730Y-87299585D01*
G37*
X202065730Y-87299585D02*
X202170334Y-87451047D01*
X202268667Y-87579200D01*
X202428867Y-87771907D01*
X202545396Y-87894577D01*
X202579229Y-87917866D01*
X202556271Y-87858814D01*
X202451667Y-87707352D01*
X202353334Y-87579200D01*
X202193134Y-87386492D01*
X202076605Y-87263822D01*
X202042772Y-87240533D01*
X202065730Y-87299585D01*
G36*
X194733334Y-88468200D02*
X194775667Y-88510533D01*
X194818000Y-88468200D01*
X194775667Y-88425866D01*
X194733334Y-88468200D01*
X194733334Y-88468200D01*
G37*
X194733334Y-88468200D02*
X194775667Y-88510533D01*
X194818000Y-88468200D01*
X194775667Y-88425866D01*
X194733334Y-88468200D01*
G36*
X202653587Y-88062486D02*
X202745003Y-88211105D01*
X202776667Y-88256533D01*
X202905029Y-88422302D01*
X202991181Y-88507500D01*
X202999864Y-88510533D01*
X202984414Y-88450580D01*
X202892998Y-88301960D01*
X202861334Y-88256533D01*
X202732972Y-88090763D01*
X202646820Y-88005566D01*
X202638137Y-88002533D01*
X202653587Y-88062486D01*
X202653587Y-88062486D01*
G37*
X202653587Y-88062486D02*
X202745003Y-88211105D01*
X202776667Y-88256533D01*
X202905029Y-88422302D01*
X202991181Y-88507500D01*
X202999864Y-88510533D01*
X202984414Y-88450580D01*
X202892998Y-88301960D01*
X202861334Y-88256533D01*
X202732972Y-88090763D01*
X202646820Y-88005566D01*
X202638137Y-88002533D01*
X202653587Y-88062486D01*
G36*
X203057230Y-88649890D02*
X203073000Y-88679866D01*
X203152775Y-88760723D01*
X203167661Y-88764533D01*
X203173437Y-88709843D01*
X203157667Y-88679866D01*
X203077893Y-88599009D01*
X203063007Y-88595200D01*
X203057230Y-88649890D01*
X203057230Y-88649890D01*
G37*
X203057230Y-88649890D02*
X203073000Y-88679866D01*
X203152775Y-88760723D01*
X203167661Y-88764533D01*
X203173437Y-88709843D01*
X203157667Y-88679866D01*
X203077893Y-88599009D01*
X203063007Y-88595200D01*
X203057230Y-88649890D01*
G36*
X194676889Y-88708088D02*
X194666756Y-88808568D01*
X194676889Y-88820977D01*
X194727224Y-88809355D01*
X194733334Y-88764533D01*
X194702356Y-88694843D01*
X194676889Y-88708088D01*
X194676889Y-88708088D01*
G37*
X194676889Y-88708088D02*
X194666756Y-88808568D01*
X194676889Y-88820977D01*
X194727224Y-88809355D01*
X194733334Y-88764533D01*
X194702356Y-88694843D01*
X194676889Y-88708088D01*
G36*
X192729556Y-88962088D02*
X192719423Y-89062568D01*
X192729556Y-89074977D01*
X192779890Y-89063355D01*
X192786000Y-89018533D01*
X192755022Y-88948843D01*
X192729556Y-88962088D01*
X192729556Y-88962088D01*
G37*
X192729556Y-88962088D02*
X192719423Y-89062568D01*
X192729556Y-89074977D01*
X192779890Y-89063355D01*
X192786000Y-89018533D01*
X192755022Y-88948843D01*
X192729556Y-88962088D01*
G36*
X194564000Y-89060866D02*
X194606334Y-89103200D01*
X194648667Y-89060866D01*
X194606334Y-89018533D01*
X194564000Y-89060866D01*
X194564000Y-89060866D01*
G37*
X194564000Y-89060866D02*
X194606334Y-89103200D01*
X194648667Y-89060866D01*
X194606334Y-89018533D01*
X194564000Y-89060866D01*
G36*
X192616667Y-89230200D02*
X192659000Y-89272533D01*
X192701334Y-89230200D01*
X192659000Y-89187866D01*
X192616667Y-89230200D01*
X192616667Y-89230200D01*
G37*
X192616667Y-89230200D02*
X192659000Y-89272533D01*
X192701334Y-89230200D01*
X192659000Y-89187866D01*
X192616667Y-89230200D01*
G36*
X194507556Y-89300755D02*
X194497423Y-89401235D01*
X194507556Y-89413644D01*
X194557890Y-89402022D01*
X194564000Y-89357200D01*
X194533022Y-89287509D01*
X194507556Y-89300755D01*
X194507556Y-89300755D01*
G37*
X194507556Y-89300755D02*
X194497423Y-89401235D01*
X194507556Y-89413644D01*
X194557890Y-89402022D01*
X194564000Y-89357200D01*
X194533022Y-89287509D01*
X194507556Y-89300755D01*
G36*
X204034955Y-89247118D02*
X203963699Y-89312820D01*
X203888255Y-89422407D01*
X203938577Y-89421701D01*
X204044215Y-89360507D01*
X204126551Y-89271201D01*
X204119780Y-89232757D01*
X204034955Y-89247118D01*
X204034955Y-89247118D01*
G37*
X204034955Y-89247118D02*
X203963699Y-89312820D01*
X203888255Y-89422407D01*
X203938577Y-89421701D01*
X204044215Y-89360507D01*
X204126551Y-89271201D01*
X204119780Y-89232757D01*
X204034955Y-89247118D01*
G36*
X192521665Y-89469383D02*
X192465573Y-89609679D01*
X192471447Y-89663535D01*
X192529199Y-89633349D01*
X192563874Y-89565593D01*
X192611844Y-89404826D01*
X192592148Y-89372751D01*
X192521665Y-89469383D01*
X192521665Y-89469383D01*
G37*
X192521665Y-89469383D02*
X192465573Y-89609679D01*
X192471447Y-89663535D01*
X192529199Y-89633349D01*
X192563874Y-89565593D01*
X192611844Y-89404826D01*
X192592148Y-89372751D01*
X192521665Y-89469383D01*
G36*
X194422889Y-89554755D02*
X194412756Y-89655235D01*
X194422889Y-89667644D01*
X194473224Y-89656022D01*
X194479334Y-89611200D01*
X194448356Y-89541509D01*
X194422889Y-89554755D01*
X194422889Y-89554755D01*
G37*
X194422889Y-89554755D02*
X194412756Y-89655235D01*
X194422889Y-89667644D01*
X194473224Y-89656022D01*
X194479334Y-89611200D01*
X194448356Y-89541509D01*
X194422889Y-89554755D01*
G36*
X192390889Y-89808755D02*
X192380756Y-89909235D01*
X192390889Y-89921644D01*
X192441224Y-89910022D01*
X192447334Y-89865200D01*
X192416356Y-89795509D01*
X192390889Y-89808755D01*
X192390889Y-89808755D01*
G37*
X192390889Y-89808755D02*
X192380756Y-89909235D01*
X192390889Y-89921644D01*
X192441224Y-89910022D01*
X192447334Y-89865200D01*
X192416356Y-89795509D01*
X192390889Y-89808755D01*
G36*
X194338223Y-89893422D02*
X194328090Y-89993901D01*
X194338223Y-90006311D01*
X194388557Y-89994688D01*
X194394667Y-89949866D01*
X194363689Y-89880176D01*
X194338223Y-89893422D01*
X194338223Y-89893422D01*
G37*
X194338223Y-89893422D02*
X194328090Y-89993901D01*
X194338223Y-90006311D01*
X194388557Y-89994688D01*
X194394667Y-89949866D01*
X194363689Y-89880176D01*
X194338223Y-89893422D01*
G36*
X201667040Y-89087122D02*
X201281917Y-89135186D01*
X200954590Y-89224439D01*
X200892834Y-89250230D01*
X200643633Y-89380690D01*
X200521626Y-89501104D01*
X200490667Y-89638405D01*
X200537180Y-89867984D01*
X200677223Y-89956800D01*
X200911550Y-89905187D01*
X200998667Y-89863255D01*
X201382525Y-89707780D01*
X201797003Y-89642798D01*
X202290454Y-89663314D01*
X202565678Y-89701438D01*
X202929582Y-89751476D01*
X203161782Y-89753690D01*
X203295288Y-89699537D01*
X203363108Y-89580471D01*
X203383425Y-89489782D01*
X203329552Y-89355932D01*
X203139753Y-89244637D01*
X202846316Y-89159003D01*
X202481526Y-89102136D01*
X202077672Y-89077140D01*
X201667040Y-89087122D01*
X201667040Y-89087122D01*
G37*
X201667040Y-89087122D02*
X201281917Y-89135186D01*
X200954590Y-89224439D01*
X200892834Y-89250230D01*
X200643633Y-89380690D01*
X200521626Y-89501104D01*
X200490667Y-89638405D01*
X200537180Y-89867984D01*
X200677223Y-89956800D01*
X200911550Y-89905187D01*
X200998667Y-89863255D01*
X201382525Y-89707780D01*
X201797003Y-89642798D01*
X202290454Y-89663314D01*
X202565678Y-89701438D01*
X202929582Y-89751476D01*
X203161782Y-89753690D01*
X203295288Y-89699537D01*
X203363108Y-89580471D01*
X203383425Y-89489782D01*
X203329552Y-89355932D01*
X203139753Y-89244637D01*
X202846316Y-89159003D01*
X202481526Y-89102136D01*
X202077672Y-89077140D01*
X201667040Y-89087122D01*
G36*
X194905127Y-90098962D02*
X194902667Y-90119200D01*
X194967096Y-90201406D01*
X194987334Y-90203866D01*
X195069540Y-90139437D01*
X195072000Y-90119200D01*
X195007571Y-90036993D01*
X194987334Y-90034533D01*
X194905127Y-90098962D01*
X194905127Y-90098962D01*
G37*
X194905127Y-90098962D02*
X194902667Y-90119200D01*
X194967096Y-90201406D01*
X194987334Y-90203866D01*
X195069540Y-90139437D01*
X195072000Y-90119200D01*
X195007571Y-90036993D01*
X194987334Y-90034533D01*
X194905127Y-90098962D01*
G36*
X194253556Y-90147422D02*
X194243423Y-90247901D01*
X194253556Y-90260311D01*
X194303890Y-90248688D01*
X194310000Y-90203866D01*
X194279022Y-90134176D01*
X194253556Y-90147422D01*
X194253556Y-90147422D01*
G37*
X194253556Y-90147422D02*
X194243423Y-90247901D01*
X194253556Y-90260311D01*
X194303890Y-90248688D01*
X194310000Y-90203866D01*
X194279022Y-90134176D01*
X194253556Y-90147422D01*
G36*
X197334033Y-89470851D02*
X196717370Y-89575615D01*
X196176596Y-89757325D01*
X195837025Y-89947712D01*
X195650364Y-90118352D01*
X195592868Y-90294180D01*
X195596426Y-90360451D01*
X195643630Y-90520522D01*
X195751973Y-90583381D01*
X195944239Y-90548574D01*
X196243214Y-90415648D01*
X196379104Y-90344889D01*
X196596807Y-90232878D01*
X196780029Y-90157408D01*
X196970614Y-90111275D01*
X197210402Y-90087277D01*
X197541236Y-90078212D01*
X197936134Y-90076866D01*
X198385439Y-90073905D01*
X198694779Y-90062534D01*
X198893457Y-90039028D01*
X199010777Y-89999656D01*
X199076042Y-89940692D01*
X199082461Y-89931030D01*
X199123760Y-89771690D01*
X199016049Y-89647097D01*
X198751128Y-89550063D01*
X198613644Y-89520097D01*
X197981240Y-89450017D01*
X197334033Y-89470851D01*
X197334033Y-89470851D01*
G37*
X197334033Y-89470851D02*
X196717370Y-89575615D01*
X196176596Y-89757325D01*
X195837025Y-89947712D01*
X195650364Y-90118352D01*
X195592868Y-90294180D01*
X195596426Y-90360451D01*
X195643630Y-90520522D01*
X195751973Y-90583381D01*
X195944239Y-90548574D01*
X196243214Y-90415648D01*
X196379104Y-90344889D01*
X196596807Y-90232878D01*
X196780029Y-90157408D01*
X196970614Y-90111275D01*
X197210402Y-90087277D01*
X197541236Y-90078212D01*
X197936134Y-90076866D01*
X198385439Y-90073905D01*
X198694779Y-90062534D01*
X198893457Y-90039028D01*
X199010777Y-89999656D01*
X199076042Y-89940692D01*
X199082461Y-89931030D01*
X199123760Y-89771690D01*
X199016049Y-89647097D01*
X198751128Y-89550063D01*
X198613644Y-89520097D01*
X197981240Y-89450017D01*
X197334033Y-89470851D01*
G36*
X192108667Y-90754200D02*
X192151000Y-90796533D01*
X192193334Y-90754200D01*
X192151000Y-90711866D01*
X192108667Y-90754200D01*
X192108667Y-90754200D01*
G37*
X192108667Y-90754200D02*
X192151000Y-90796533D01*
X192193334Y-90754200D01*
X192151000Y-90711866D01*
X192108667Y-90754200D01*
G36*
X207518000Y-91262200D02*
X207560334Y-91304533D01*
X207602667Y-91262200D01*
X207560334Y-91219866D01*
X207518000Y-91262200D01*
X207518000Y-91262200D01*
G37*
X207518000Y-91262200D02*
X207560334Y-91304533D01*
X207602667Y-91262200D01*
X207560334Y-91219866D01*
X207518000Y-91262200D01*
G36*
X206438500Y-91327523D02*
X206364033Y-91342666D01*
X206441221Y-91354191D01*
X206652396Y-91360248D01*
X206756000Y-91360734D01*
X207010396Y-91357057D01*
X207137062Y-91347258D01*
X207118330Y-91333184D01*
X207073500Y-91327523D01*
X206755583Y-91313823D01*
X206438500Y-91327523D01*
X206438500Y-91327523D01*
G37*
X206438500Y-91327523D02*
X206364033Y-91342666D01*
X206441221Y-91354191D01*
X206652396Y-91360248D01*
X206756000Y-91360734D01*
X207010396Y-91357057D01*
X207137062Y-91347258D01*
X207118330Y-91333184D01*
X207073500Y-91327523D01*
X206755583Y-91313823D01*
X206438500Y-91327523D01*
G36*
X205294336Y-91414267D02*
X205260267Y-91434097D01*
X205371197Y-91446878D01*
X205528334Y-91449650D01*
X205720436Y-91443314D01*
X205776625Y-91428143D01*
X205717670Y-91413111D01*
X205467277Y-91399183D01*
X205294336Y-91414267D01*
X205294336Y-91414267D01*
G37*
X205294336Y-91414267D02*
X205260267Y-91434097D01*
X205371197Y-91446878D01*
X205528334Y-91449650D01*
X205720436Y-91443314D01*
X205776625Y-91428143D01*
X205717670Y-91413111D01*
X205467277Y-91399183D01*
X205294336Y-91414267D01*
G36*
X202635556Y-91586755D02*
X202647178Y-91637089D01*
X202692000Y-91643200D01*
X202761691Y-91612221D01*
X202748445Y-91586755D01*
X202647965Y-91576622D01*
X202635556Y-91586755D01*
X202635556Y-91586755D01*
G37*
X202635556Y-91586755D02*
X202647178Y-91637089D01*
X202692000Y-91643200D01*
X202761691Y-91612221D01*
X202748445Y-91586755D01*
X202647965Y-91576622D01*
X202635556Y-91586755D01*
G36*
X198215039Y-97034796D02*
X198348588Y-97110927D01*
X198585326Y-97208330D01*
X198594360Y-97211644D01*
X198926839Y-97326897D01*
X199122831Y-97381635D01*
X199176708Y-97376750D01*
X199082842Y-97313133D01*
X198835607Y-97191674D01*
X198806043Y-97178120D01*
X198536647Y-97069394D01*
X198314356Y-97004703D01*
X198213376Y-96996168D01*
X198215039Y-97034796D01*
X198215039Y-97034796D01*
G37*
X198215039Y-97034796D02*
X198348588Y-97110927D01*
X198585326Y-97208330D01*
X198594360Y-97211644D01*
X198926839Y-97326897D01*
X199122831Y-97381635D01*
X199176708Y-97376750D01*
X199082842Y-97313133D01*
X198835607Y-97191674D01*
X198806043Y-97178120D01*
X198536647Y-97069394D01*
X198314356Y-97004703D01*
X198213376Y-96996168D01*
X198215039Y-97034796D01*
G36*
X199250850Y-98001420D02*
X199246661Y-98015978D01*
X199234266Y-98200408D01*
X199249798Y-98269978D01*
X199277593Y-98272792D01*
X199288944Y-98140250D01*
X199288828Y-98120200D01*
X199276620Y-97988885D01*
X199250850Y-98001420D01*
X199250850Y-98001420D01*
G37*
X199250850Y-98001420D02*
X199246661Y-98015978D01*
X199234266Y-98200408D01*
X199249798Y-98269978D01*
X199277593Y-98272792D01*
X199288944Y-98140250D01*
X199288828Y-98120200D01*
X199276620Y-97988885D01*
X199250850Y-98001420D01*
G36*
X196823300Y-82524328D02*
X196411035Y-82580723D01*
X196025258Y-82666482D01*
X195766745Y-82755501D01*
X195541708Y-82869727D01*
X195447060Y-82968627D01*
X195451057Y-83085721D01*
X195451800Y-83088084D01*
X195462610Y-83201786D01*
X195376428Y-83266994D01*
X195173470Y-83310666D01*
X194970678Y-83344927D01*
X194824246Y-83389559D01*
X194725495Y-83469533D01*
X194665748Y-83609815D01*
X194636324Y-83835374D01*
X194628545Y-84171178D01*
X194633733Y-84642194D01*
X194637166Y-84853566D01*
X194658878Y-86203746D01*
X194166939Y-86258258D01*
X193780456Y-86337900D01*
X193332746Y-86504040D01*
X192895860Y-86713151D01*
X192680133Y-86821961D01*
X192504778Y-86912369D01*
X192357021Y-87000606D01*
X192224087Y-87102897D01*
X192093201Y-87235472D01*
X191951589Y-87414557D01*
X191786474Y-87656381D01*
X191585083Y-87977172D01*
X191334640Y-88393156D01*
X191022371Y-88920563D01*
X190635501Y-89575619D01*
X190614452Y-89611200D01*
X190318916Y-90108630D01*
X190039247Y-90575537D01*
X189791320Y-90985711D01*
X189591009Y-91312945D01*
X189454192Y-91531032D01*
X189420431Y-91582376D01*
X189245379Y-91947970D01*
X189208671Y-92260342D01*
X189283979Y-92759473D01*
X189483658Y-93323279D01*
X189789112Y-93925689D01*
X190181747Y-94540634D01*
X190642967Y-95142041D01*
X191154178Y-95703841D01*
X191696785Y-96199962D01*
X192252193Y-96604335D01*
X192349416Y-96663781D01*
X192732254Y-96867084D01*
X193209926Y-97086279D01*
X193724755Y-97297918D01*
X194219069Y-97478554D01*
X194635192Y-97604739D01*
X194705949Y-97621831D01*
X194745336Y-97695316D01*
X194704620Y-97890286D01*
X194632310Y-98093990D01*
X194462086Y-98563055D01*
X194282779Y-99103705D01*
X194106982Y-99673135D01*
X193947287Y-100228539D01*
X193816286Y-100727114D01*
X193726572Y-101126054D01*
X193705797Y-101243447D01*
X193641186Y-102082569D01*
X193692768Y-102964719D01*
X193850667Y-103855794D01*
X194105007Y-104721690D01*
X194445914Y-105528301D01*
X194863511Y-106241525D01*
X195312304Y-106791383D01*
X195586459Y-107056380D01*
X195806932Y-107222573D01*
X196026124Y-107323147D01*
X196241662Y-107379929D01*
X196622015Y-107450666D01*
X196890670Y-107466768D01*
X197097162Y-107425341D01*
X197291027Y-107323492D01*
X197299163Y-107318158D01*
X197581007Y-107076932D01*
X197783976Y-106758018D01*
X197905743Y-106437302D01*
X197972984Y-106254435D01*
X198017680Y-106190628D01*
X198026963Y-106215615D01*
X198117097Y-106464429D01*
X198318270Y-106673511D01*
X198572726Y-106789661D01*
X198659855Y-106798533D01*
X198992228Y-106737075D01*
X199372818Y-106573316D01*
X199745317Y-106338175D01*
X200053415Y-106062572D01*
X200100712Y-106007340D01*
X200566067Y-105302416D01*
X200899685Y-104507360D01*
X201098982Y-103641554D01*
X201161372Y-102724381D01*
X201084272Y-101775222D01*
X200900942Y-100970748D01*
X200421160Y-100970748D01*
X200342309Y-101144017D01*
X200127574Y-101357722D01*
X200062746Y-101413067D01*
X199842078Y-101579448D01*
X199712875Y-101617352D01*
X199654245Y-101524986D01*
X199644000Y-101377147D01*
X199618234Y-101183648D01*
X199454526Y-101183648D01*
X199414426Y-101351989D01*
X199379996Y-101387841D01*
X199246744Y-101451263D01*
X199163380Y-101411693D01*
X199101344Y-101243051D01*
X199069931Y-101104700D01*
X199035121Y-100805027D01*
X199088184Y-100649293D01*
X199229542Y-100636432D01*
X199252638Y-100644507D01*
X199361573Y-100759525D01*
X199432889Y-100962699D01*
X199454526Y-101183648D01*
X199618234Y-101183648D01*
X199610075Y-101122383D01*
X199527256Y-100842028D01*
X199515889Y-100813814D01*
X199439977Y-100617298D01*
X199408235Y-100504364D01*
X199410056Y-100495010D01*
X199677811Y-100365832D01*
X199866052Y-100340813D01*
X200033749Y-100426658D01*
X200197365Y-100584561D01*
X200370666Y-100797676D01*
X200421160Y-100970748D01*
X200900942Y-100970748D01*
X200865097Y-100813459D01*
X200814587Y-100653341D01*
X200714895Y-100349657D01*
X200311459Y-100349657D01*
X200299029Y-100423698D01*
X200236667Y-100406200D01*
X200162998Y-100285371D01*
X200153297Y-100210703D01*
X200166999Y-100115950D01*
X200225530Y-100177495D01*
X200236667Y-100194533D01*
X200311459Y-100349657D01*
X200714895Y-100349657D01*
X200628410Y-100086206D01*
X200807761Y-99940976D01*
X201082887Y-99652607D01*
X201295111Y-99306268D01*
X201410530Y-98962816D01*
X201422000Y-98838418D01*
X201428987Y-98765376D01*
X201083334Y-98765376D01*
X201003066Y-99092795D01*
X200776362Y-99429613D01*
X200424374Y-99760973D01*
X199968253Y-100072015D01*
X199429150Y-100347880D01*
X198828216Y-100573709D01*
X198317695Y-100708249D01*
X198039625Y-100775938D01*
X197828600Y-100842253D01*
X197746308Y-100882190D01*
X197765615Y-100913449D01*
X197905527Y-100912481D01*
X198121574Y-100884788D01*
X198369283Y-100835872D01*
X198580044Y-100779039D01*
X198761647Y-100743933D01*
X198879182Y-100796644D01*
X198956144Y-100964131D01*
X199016030Y-101273356D01*
X199017121Y-101280553D01*
X199060663Y-101506323D01*
X199120434Y-101602187D01*
X199227887Y-101606883D01*
X199273592Y-101596440D01*
X199431213Y-101587919D01*
X199474667Y-101674586D01*
X199530577Y-101781574D01*
X199681668Y-101778086D01*
X199902988Y-101672981D01*
X200169581Y-101475119D01*
X200256951Y-101396860D01*
X200418304Y-101269642D01*
X200527058Y-101225870D01*
X200539838Y-101231481D01*
X200561469Y-101330244D01*
X200585665Y-101566093D01*
X200609870Y-101906857D01*
X200631527Y-102320366D01*
X200637338Y-102458648D01*
X200652195Y-103042467D01*
X200637920Y-103506125D01*
X200584624Y-103897699D01*
X200482415Y-104265266D01*
X200321402Y-104656902D01*
X200091695Y-105120683D01*
X200088328Y-105127178D01*
X199806942Y-105586563D01*
X199500344Y-105942876D01*
X199187929Y-106180680D01*
X198889092Y-106284542D01*
X198666700Y-106258521D01*
X198552317Y-106152867D01*
X198430586Y-105952633D01*
X198402020Y-105889556D01*
X198302461Y-105594605D01*
X198197128Y-105190338D01*
X198097800Y-104734277D01*
X198016258Y-104283947D01*
X197964280Y-103896868D01*
X197951779Y-103690995D01*
X197962754Y-103467777D01*
X198025683Y-103335512D01*
X198182863Y-103233257D01*
X198310500Y-103174120D01*
X198569202Y-103034521D01*
X198783183Y-102879080D01*
X198831623Y-102831491D01*
X198928153Y-102717901D01*
X198948134Y-102668525D01*
X198872188Y-102686868D01*
X198680941Y-102776435D01*
X198425569Y-102904939D01*
X198146503Y-103035826D01*
X197911608Y-103127213D01*
X197782525Y-103157866D01*
X197617285Y-103216921D01*
X197493672Y-103317618D01*
X197437030Y-103395423D01*
X197401487Y-103499177D01*
X197385830Y-103658461D01*
X197388846Y-103902860D01*
X197409323Y-104261955D01*
X197438444Y-104664767D01*
X197468377Y-105102491D01*
X197488864Y-105484299D01*
X197498495Y-105776128D01*
X197495859Y-105943913D01*
X197492300Y-105965515D01*
X197447546Y-106132992D01*
X197409245Y-106297943D01*
X197321591Y-106522771D01*
X197184362Y-106742443D01*
X196943738Y-106921977D01*
X196631024Y-106966508D01*
X196277992Y-106874770D01*
X196108872Y-106785269D01*
X195896223Y-106600832D01*
X195639178Y-106295383D01*
X195362100Y-105902654D01*
X195089350Y-105456377D01*
X194915250Y-105132564D01*
X194774174Y-104797630D01*
X194625058Y-104349989D01*
X194483767Y-103844571D01*
X194366168Y-103336307D01*
X194312341Y-103045247D01*
X194268996Y-102432176D01*
X194314037Y-101694299D01*
X194444057Y-100849104D01*
X194655648Y-99914080D01*
X194945403Y-98906714D01*
X195309912Y-97844494D01*
X195343312Y-97754698D01*
X195513931Y-97298679D01*
X195991466Y-97354188D01*
X196397409Y-97415358D01*
X196767203Y-97496222D01*
X197068544Y-97586918D01*
X197269130Y-97677586D01*
X197336657Y-97758364D01*
X197335248Y-97764392D01*
X197385140Y-97858742D01*
X197552942Y-98001973D01*
X197802933Y-98171763D01*
X198099390Y-98345785D01*
X198406589Y-98501717D01*
X198688808Y-98617234D01*
X198712667Y-98625179D01*
X199044353Y-98714377D01*
X199411542Y-98787210D01*
X199518603Y-98802750D01*
X199773294Y-98828351D01*
X199924955Y-98803740D01*
X200038391Y-98701167D01*
X200153987Y-98530679D01*
X200381444Y-98281139D01*
X200620206Y-98180467D01*
X200837916Y-98220492D01*
X201002220Y-98393042D01*
X201080763Y-98689946D01*
X201083334Y-98765376D01*
X201428987Y-98765376D01*
X201446886Y-98578267D01*
X201539067Y-98434494D01*
X201724824Y-98393515D01*
X202030444Y-98441748D01*
X202137763Y-98468524D01*
X202707439Y-98644118D01*
X203360300Y-98889872D01*
X204038151Y-99182754D01*
X204482331Y-99396409D01*
X204840252Y-99562411D01*
X205072995Y-99627889D01*
X205195767Y-99587007D01*
X205223777Y-99433928D01*
X205172231Y-99162815D01*
X205164762Y-99134490D01*
X205102520Y-98869337D01*
X205066362Y-98652535D01*
X205062667Y-98597354D01*
X205132652Y-98370198D01*
X205326397Y-98088352D01*
X205553396Y-97849053D01*
X201401263Y-97849053D01*
X201294913Y-98052274D01*
X201290773Y-98058209D01*
X201183520Y-98183910D01*
X201078707Y-98184578D01*
X200957582Y-98113232D01*
X200723842Y-98025573D01*
X200474977Y-98008217D01*
X200281970Y-98011575D01*
X200198243Y-97939790D01*
X200168381Y-97768123D01*
X200213695Y-97480899D01*
X200395059Y-97270185D01*
X200688027Y-97158502D01*
X200843124Y-97146533D01*
X201074820Y-97170129D01*
X201214203Y-97268195D01*
X201292826Y-97396328D01*
X201400496Y-97653619D01*
X201401263Y-97849053D01*
X205553396Y-97849053D01*
X205619590Y-97779273D01*
X205987918Y-97470418D01*
X206185157Y-97329706D01*
X206481169Y-97115481D01*
X200218998Y-97115481D01*
X200194311Y-97215698D01*
X200117079Y-97307676D01*
X200007308Y-97522695D01*
X199989660Y-97839479D01*
X199988819Y-98130209D01*
X199957585Y-98391104D01*
X199946244Y-98437700D01*
X199853501Y-98617296D01*
X199744268Y-98665381D01*
X199662165Y-98579613D01*
X199646804Y-98473320D01*
X199466734Y-98473320D01*
X199449204Y-98611968D01*
X199395129Y-98653119D01*
X199330938Y-98643183D01*
X199136231Y-98594106D01*
X198924334Y-98544641D01*
X198727252Y-98479516D01*
X198437288Y-98359132D01*
X198111261Y-98207368D01*
X198052421Y-98178205D01*
X197434507Y-97868732D01*
X197490593Y-97528799D01*
X197528672Y-97312674D01*
X197555758Y-97185167D01*
X197560312Y-97172616D01*
X197641530Y-97189145D01*
X197852003Y-97246268D01*
X198159126Y-97334829D01*
X198503139Y-97437444D01*
X199432334Y-97718522D01*
X199457938Y-98201641D01*
X199466734Y-98473320D01*
X199646804Y-98473320D01*
X199644000Y-98453918D01*
X199658451Y-98209712D01*
X199696189Y-97897078D01*
X199748795Y-97564622D01*
X199759173Y-97511252D01*
X199474667Y-97511252D01*
X199453874Y-97549690D01*
X199375416Y-97556353D01*
X199215172Y-97526299D01*
X198949022Y-97454587D01*
X198552846Y-97336275D01*
X198416334Y-97294433D01*
X198072255Y-97181245D01*
X197861170Y-97088788D01*
X197751219Y-96999101D01*
X197710910Y-96896755D01*
X197716801Y-96759722D01*
X197815873Y-96746715D01*
X197837910Y-96752675D01*
X197991473Y-96797398D01*
X198254953Y-96874027D01*
X198575655Y-96967238D01*
X198628000Y-96982447D01*
X199062213Y-97131646D01*
X199337339Y-97282983D01*
X199463577Y-97442828D01*
X199474667Y-97511252D01*
X199759173Y-97511252D01*
X199807847Y-97260953D01*
X199826948Y-97185230D01*
X199636000Y-97185230D01*
X199587371Y-97259606D01*
X199492168Y-97255884D01*
X199362374Y-97160586D01*
X199254097Y-97025132D01*
X199220667Y-96923559D01*
X199252632Y-96855625D01*
X199375343Y-96883132D01*
X199432334Y-96907938D01*
X199607936Y-97037954D01*
X199636000Y-97185230D01*
X199826948Y-97185230D01*
X199864926Y-97034676D01*
X199906523Y-96938495D01*
X200022240Y-96923847D01*
X200125779Y-96999359D01*
X200218998Y-97115481D01*
X206481169Y-97115481D01*
X206977299Y-96756431D01*
X207615654Y-96203142D01*
X208111644Y-95652684D01*
X208476693Y-95087897D01*
X208583705Y-94828015D01*
X202505537Y-94828015D01*
X202475997Y-94979497D01*
X202388692Y-95087770D01*
X202192683Y-95161669D01*
X201914278Y-95194505D01*
X201634733Y-95183169D01*
X201435304Y-95124553D01*
X201434837Y-95124258D01*
X201353121Y-94990338D01*
X201351594Y-94892721D01*
X201402423Y-94794601D01*
X201533849Y-94745645D01*
X201788775Y-94730468D01*
X201804425Y-94730329D01*
X202075872Y-94720922D01*
X202287115Y-94700667D01*
X202348305Y-94687995D01*
X202460884Y-94710169D01*
X202505537Y-94828015D01*
X208583705Y-94828015D01*
X208722221Y-94491626D01*
X208859653Y-93846712D01*
X208899954Y-93251866D01*
X208880466Y-92630055D01*
X208809543Y-92071629D01*
X208693935Y-91597120D01*
X208601803Y-91375060D01*
X207643165Y-91375060D01*
X207635363Y-91520327D01*
X207579126Y-91662189D01*
X207482074Y-91813868D01*
X207351824Y-91988588D01*
X207195996Y-92199570D01*
X207185631Y-92214192D01*
X206703255Y-92810825D01*
X206214606Y-93242042D01*
X205714733Y-93511753D01*
X205443289Y-93590611D01*
X205229220Y-93627603D01*
X205024821Y-93639802D01*
X204789857Y-93623731D01*
X204484094Y-93575911D01*
X204067296Y-93492866D01*
X203898134Y-93457054D01*
X203442835Y-93362363D01*
X203102273Y-93302000D01*
X202826110Y-93272555D01*
X202564009Y-93270618D01*
X202265633Y-93292779D01*
X201963381Y-93325984D01*
X201064644Y-93465516D01*
X200258178Y-93672187D01*
X199473907Y-93964998D01*
X199264783Y-94057675D01*
X198893010Y-94218360D01*
X198519085Y-94365269D01*
X198212971Y-94471200D01*
X198164117Y-94485619D01*
X197679187Y-94566083D01*
X197115939Y-94572655D01*
X196546398Y-94509354D01*
X196042592Y-94380199D01*
X196001535Y-94364946D01*
X195649464Y-94209676D01*
X195273302Y-94013979D01*
X195096323Y-93909196D01*
X194705685Y-93658851D01*
X194320317Y-93405287D01*
X193965257Y-93165757D01*
X193665544Y-92957509D01*
X193446218Y-92797793D01*
X193332317Y-92703859D01*
X193322487Y-92687158D01*
X193411367Y-92671404D01*
X193644342Y-92643173D01*
X193996845Y-92605077D01*
X194444310Y-92559727D01*
X194962173Y-92509733D01*
X195206329Y-92486908D01*
X195802960Y-92429165D01*
X196391915Y-92367630D01*
X196934933Y-92306637D01*
X197393750Y-92250517D01*
X197730104Y-92203602D01*
X197781334Y-92195369D01*
X198154442Y-92137583D01*
X198633230Y-92069639D01*
X199155088Y-92000145D01*
X199641381Y-91939618D01*
X200062340Y-91886585D01*
X200420030Y-91836141D01*
X200682221Y-91793236D01*
X200816680Y-91762819D01*
X200826714Y-91757593D01*
X200775159Y-91741622D01*
X200596071Y-91745911D01*
X200363667Y-91766017D01*
X199642189Y-91844808D01*
X199059975Y-91911877D01*
X198587668Y-91971000D01*
X198195909Y-92025953D01*
X197855342Y-92080513D01*
X197687136Y-92110272D01*
X197364048Y-92159373D01*
X196923221Y-92212762D01*
X196415962Y-92264870D01*
X195893577Y-92310127D01*
X195739802Y-92321664D01*
X195224256Y-92360414D01*
X194709337Y-92401991D01*
X194245918Y-92442102D01*
X193884871Y-92476451D01*
X193802000Y-92485224D01*
X193167000Y-92555024D01*
X192222082Y-92095341D01*
X191801670Y-91902791D01*
X191380644Y-91730452D01*
X191011428Y-91598671D01*
X190772653Y-91532746D01*
X190268142Y-91429835D01*
X190895978Y-90372351D01*
X191180432Y-89889412D01*
X191489816Y-89357901D01*
X191786639Y-88842556D01*
X192031760Y-88411053D01*
X192267405Y-88003668D01*
X192455555Y-87713969D01*
X192623378Y-87507655D01*
X192798038Y-87350425D01*
X192962406Y-87235995D01*
X193191326Y-87096920D01*
X193356334Y-87011342D01*
X193414522Y-86996808D01*
X193404032Y-87086479D01*
X193349774Y-87295339D01*
X193262686Y-87582320D01*
X193239422Y-87654263D01*
X193125504Y-88024640D01*
X193073644Y-88238977D01*
X193078946Y-88296767D01*
X193136514Y-88197504D01*
X193241452Y-87940681D01*
X193341201Y-87664788D01*
X193459925Y-87344820D01*
X193569289Y-87086829D01*
X193650908Y-86933007D01*
X193669367Y-86911703D01*
X193834267Y-86838497D01*
X194161732Y-86746085D01*
X194646230Y-86635695D01*
X195282230Y-86508557D01*
X196064201Y-86365902D01*
X196342000Y-86317581D01*
X197237017Y-86170370D01*
X198026473Y-86057734D01*
X198769184Y-85973587D01*
X199523969Y-85911843D01*
X200349645Y-85866419D01*
X200920955Y-85843853D01*
X202324910Y-85794559D01*
X205047752Y-88503550D01*
X205701684Y-89152092D01*
X206246235Y-89691444D01*
X206689023Y-90134829D01*
X207037667Y-90495471D01*
X207299785Y-90786592D01*
X207482995Y-91021415D01*
X207594915Y-91213163D01*
X207643165Y-91375060D01*
X208601803Y-91375060D01*
X208540397Y-91227057D01*
X208355679Y-90981972D01*
X208146536Y-90882396D01*
X208120241Y-90881199D01*
X208033891Y-90822994D01*
X207843722Y-90657886D01*
X207564204Y-90400140D01*
X207209806Y-90064021D01*
X206794999Y-89663791D01*
X206334253Y-89213716D01*
X205842039Y-88728059D01*
X205332827Y-88221085D01*
X204821086Y-87707057D01*
X204321288Y-87200240D01*
X203847903Y-86714898D01*
X203415400Y-86265295D01*
X203108481Y-85940848D01*
X202565000Y-85360830D01*
X200686911Y-85421849D01*
X198808822Y-85482869D01*
X198755714Y-85155201D01*
X198661703Y-84609970D01*
X198565882Y-84116141D01*
X198475118Y-83705580D01*
X198396282Y-83410153D01*
X198354667Y-83294911D01*
X198209925Y-83114961D01*
X197991639Y-82969990D01*
X197976854Y-82963576D01*
X197790860Y-82852957D01*
X197698802Y-82733688D01*
X197696667Y-82716799D01*
X197624225Y-82602405D01*
X197477889Y-82532182D01*
X197199702Y-82505436D01*
X196823300Y-82524328D01*
X196823300Y-82524328D01*
G37*
X196823300Y-82524328D02*
X196411035Y-82580723D01*
X196025258Y-82666482D01*
X195766745Y-82755501D01*
X195541708Y-82869727D01*
X195447060Y-82968627D01*
X195451057Y-83085721D01*
X195451800Y-83088084D01*
X195462610Y-83201786D01*
X195376428Y-83266994D01*
X195173470Y-83310666D01*
X194970678Y-83344927D01*
X194824246Y-83389559D01*
X194725495Y-83469533D01*
X194665748Y-83609815D01*
X194636324Y-83835374D01*
X194628545Y-84171178D01*
X194633733Y-84642194D01*
X194637166Y-84853566D01*
X194658878Y-86203746D01*
X194166939Y-86258258D01*
X193780456Y-86337900D01*
X193332746Y-86504040D01*
X192895860Y-86713151D01*
X192680133Y-86821961D01*
X192504778Y-86912369D01*
X192357021Y-87000606D01*
X192224087Y-87102897D01*
X192093201Y-87235472D01*
X191951589Y-87414557D01*
X191786474Y-87656381D01*
X191585083Y-87977172D01*
X191334640Y-88393156D01*
X191022371Y-88920563D01*
X190635501Y-89575619D01*
X190614452Y-89611200D01*
X190318916Y-90108630D01*
X190039247Y-90575537D01*
X189791320Y-90985711D01*
X189591009Y-91312945D01*
X189454192Y-91531032D01*
X189420431Y-91582376D01*
X189245379Y-91947970D01*
X189208671Y-92260342D01*
X189283979Y-92759473D01*
X189483658Y-93323279D01*
X189789112Y-93925689D01*
X190181747Y-94540634D01*
X190642967Y-95142041D01*
X191154178Y-95703841D01*
X191696785Y-96199962D01*
X192252193Y-96604335D01*
X192349416Y-96663781D01*
X192732254Y-96867084D01*
X193209926Y-97086279D01*
X193724755Y-97297918D01*
X194219069Y-97478554D01*
X194635192Y-97604739D01*
X194705949Y-97621831D01*
X194745336Y-97695316D01*
X194704620Y-97890286D01*
X194632310Y-98093990D01*
X194462086Y-98563055D01*
X194282779Y-99103705D01*
X194106982Y-99673135D01*
X193947287Y-100228539D01*
X193816286Y-100727114D01*
X193726572Y-101126054D01*
X193705797Y-101243447D01*
X193641186Y-102082569D01*
X193692768Y-102964719D01*
X193850667Y-103855794D01*
X194105007Y-104721690D01*
X194445914Y-105528301D01*
X194863511Y-106241525D01*
X195312304Y-106791383D01*
X195586459Y-107056380D01*
X195806932Y-107222573D01*
X196026124Y-107323147D01*
X196241662Y-107379929D01*
X196622015Y-107450666D01*
X196890670Y-107466768D01*
X197097162Y-107425341D01*
X197291027Y-107323492D01*
X197299163Y-107318158D01*
X197581007Y-107076932D01*
X197783976Y-106758018D01*
X197905743Y-106437302D01*
X197972984Y-106254435D01*
X198017680Y-106190628D01*
X198026963Y-106215615D01*
X198117097Y-106464429D01*
X198318270Y-106673511D01*
X198572726Y-106789661D01*
X198659855Y-106798533D01*
X198992228Y-106737075D01*
X199372818Y-106573316D01*
X199745317Y-106338175D01*
X200053415Y-106062572D01*
X200100712Y-106007340D01*
X200566067Y-105302416D01*
X200899685Y-104507360D01*
X201098982Y-103641554D01*
X201161372Y-102724381D01*
X201084272Y-101775222D01*
X200900942Y-100970748D01*
X200421160Y-100970748D01*
X200342309Y-101144017D01*
X200127574Y-101357722D01*
X200062746Y-101413067D01*
X199842078Y-101579448D01*
X199712875Y-101617352D01*
X199654245Y-101524986D01*
X199644000Y-101377147D01*
X199618234Y-101183648D01*
X199454526Y-101183648D01*
X199414426Y-101351989D01*
X199379996Y-101387841D01*
X199246744Y-101451263D01*
X199163380Y-101411693D01*
X199101344Y-101243051D01*
X199069931Y-101104700D01*
X199035121Y-100805027D01*
X199088184Y-100649293D01*
X199229542Y-100636432D01*
X199252638Y-100644507D01*
X199361573Y-100759525D01*
X199432889Y-100962699D01*
X199454526Y-101183648D01*
X199618234Y-101183648D01*
X199610075Y-101122383D01*
X199527256Y-100842028D01*
X199515889Y-100813814D01*
X199439977Y-100617298D01*
X199408235Y-100504364D01*
X199410056Y-100495010D01*
X199677811Y-100365832D01*
X199866052Y-100340813D01*
X200033749Y-100426658D01*
X200197365Y-100584561D01*
X200370666Y-100797676D01*
X200421160Y-100970748D01*
X200900942Y-100970748D01*
X200865097Y-100813459D01*
X200814587Y-100653341D01*
X200714895Y-100349657D01*
X200311459Y-100349657D01*
X200299029Y-100423698D01*
X200236667Y-100406200D01*
X200162998Y-100285371D01*
X200153297Y-100210703D01*
X200166999Y-100115950D01*
X200225530Y-100177495D01*
X200236667Y-100194533D01*
X200311459Y-100349657D01*
X200714895Y-100349657D01*
X200628410Y-100086206D01*
X200807761Y-99940976D01*
X201082887Y-99652607D01*
X201295111Y-99306268D01*
X201410530Y-98962816D01*
X201422000Y-98838418D01*
X201428987Y-98765376D01*
X201083334Y-98765376D01*
X201003066Y-99092795D01*
X200776362Y-99429613D01*
X200424374Y-99760973D01*
X199968253Y-100072015D01*
X199429150Y-100347880D01*
X198828216Y-100573709D01*
X198317695Y-100708249D01*
X198039625Y-100775938D01*
X197828600Y-100842253D01*
X197746308Y-100882190D01*
X197765615Y-100913449D01*
X197905527Y-100912481D01*
X198121574Y-100884788D01*
X198369283Y-100835872D01*
X198580044Y-100779039D01*
X198761647Y-100743933D01*
X198879182Y-100796644D01*
X198956144Y-100964131D01*
X199016030Y-101273356D01*
X199017121Y-101280553D01*
X199060663Y-101506323D01*
X199120434Y-101602187D01*
X199227887Y-101606883D01*
X199273592Y-101596440D01*
X199431213Y-101587919D01*
X199474667Y-101674586D01*
X199530577Y-101781574D01*
X199681668Y-101778086D01*
X199902988Y-101672981D01*
X200169581Y-101475119D01*
X200256951Y-101396860D01*
X200418304Y-101269642D01*
X200527058Y-101225870D01*
X200539838Y-101231481D01*
X200561469Y-101330244D01*
X200585665Y-101566093D01*
X200609870Y-101906857D01*
X200631527Y-102320366D01*
X200637338Y-102458648D01*
X200652195Y-103042467D01*
X200637920Y-103506125D01*
X200584624Y-103897699D01*
X200482415Y-104265266D01*
X200321402Y-104656902D01*
X200091695Y-105120683D01*
X200088328Y-105127178D01*
X199806942Y-105586563D01*
X199500344Y-105942876D01*
X199187929Y-106180680D01*
X198889092Y-106284542D01*
X198666700Y-106258521D01*
X198552317Y-106152867D01*
X198430586Y-105952633D01*
X198402020Y-105889556D01*
X198302461Y-105594605D01*
X198197128Y-105190338D01*
X198097800Y-104734277D01*
X198016258Y-104283947D01*
X197964280Y-103896868D01*
X197951779Y-103690995D01*
X197962754Y-103467777D01*
X198025683Y-103335512D01*
X198182863Y-103233257D01*
X198310500Y-103174120D01*
X198569202Y-103034521D01*
X198783183Y-102879080D01*
X198831623Y-102831491D01*
X198928153Y-102717901D01*
X198948134Y-102668525D01*
X198872188Y-102686868D01*
X198680941Y-102776435D01*
X198425569Y-102904939D01*
X198146503Y-103035826D01*
X197911608Y-103127213D01*
X197782525Y-103157866D01*
X197617285Y-103216921D01*
X197493672Y-103317618D01*
X197437030Y-103395423D01*
X197401487Y-103499177D01*
X197385830Y-103658461D01*
X197388846Y-103902860D01*
X197409323Y-104261955D01*
X197438444Y-104664767D01*
X197468377Y-105102491D01*
X197488864Y-105484299D01*
X197498495Y-105776128D01*
X197495859Y-105943913D01*
X197492300Y-105965515D01*
X197447546Y-106132992D01*
X197409245Y-106297943D01*
X197321591Y-106522771D01*
X197184362Y-106742443D01*
X196943738Y-106921977D01*
X196631024Y-106966508D01*
X196277992Y-106874770D01*
X196108872Y-106785269D01*
X195896223Y-106600832D01*
X195639178Y-106295383D01*
X195362100Y-105902654D01*
X195089350Y-105456377D01*
X194915250Y-105132564D01*
X194774174Y-104797630D01*
X194625058Y-104349989D01*
X194483767Y-103844571D01*
X194366168Y-103336307D01*
X194312341Y-103045247D01*
X194268996Y-102432176D01*
X194314037Y-101694299D01*
X194444057Y-100849104D01*
X194655648Y-99914080D01*
X194945403Y-98906714D01*
X195309912Y-97844494D01*
X195343312Y-97754698D01*
X195513931Y-97298679D01*
X195991466Y-97354188D01*
X196397409Y-97415358D01*
X196767203Y-97496222D01*
X197068544Y-97586918D01*
X197269130Y-97677586D01*
X197336657Y-97758364D01*
X197335248Y-97764392D01*
X197385140Y-97858742D01*
X197552942Y-98001973D01*
X197802933Y-98171763D01*
X198099390Y-98345785D01*
X198406589Y-98501717D01*
X198688808Y-98617234D01*
X198712667Y-98625179D01*
X199044353Y-98714377D01*
X199411542Y-98787210D01*
X199518603Y-98802750D01*
X199773294Y-98828351D01*
X199924955Y-98803740D01*
X200038391Y-98701167D01*
X200153987Y-98530679D01*
X200381444Y-98281139D01*
X200620206Y-98180467D01*
X200837916Y-98220492D01*
X201002220Y-98393042D01*
X201080763Y-98689946D01*
X201083334Y-98765376D01*
X201428987Y-98765376D01*
X201446886Y-98578267D01*
X201539067Y-98434494D01*
X201724824Y-98393515D01*
X202030444Y-98441748D01*
X202137763Y-98468524D01*
X202707439Y-98644118D01*
X203360300Y-98889872D01*
X204038151Y-99182754D01*
X204482331Y-99396409D01*
X204840252Y-99562411D01*
X205072995Y-99627889D01*
X205195767Y-99587007D01*
X205223777Y-99433928D01*
X205172231Y-99162815D01*
X205164762Y-99134490D01*
X205102520Y-98869337D01*
X205066362Y-98652535D01*
X205062667Y-98597354D01*
X205132652Y-98370198D01*
X205326397Y-98088352D01*
X205553396Y-97849053D01*
X201401263Y-97849053D01*
X201294913Y-98052274D01*
X201290773Y-98058209D01*
X201183520Y-98183910D01*
X201078707Y-98184578D01*
X200957582Y-98113232D01*
X200723842Y-98025573D01*
X200474977Y-98008217D01*
X200281970Y-98011575D01*
X200198243Y-97939790D01*
X200168381Y-97768123D01*
X200213695Y-97480899D01*
X200395059Y-97270185D01*
X200688027Y-97158502D01*
X200843124Y-97146533D01*
X201074820Y-97170129D01*
X201214203Y-97268195D01*
X201292826Y-97396328D01*
X201400496Y-97653619D01*
X201401263Y-97849053D01*
X205553396Y-97849053D01*
X205619590Y-97779273D01*
X205987918Y-97470418D01*
X206185157Y-97329706D01*
X206481169Y-97115481D01*
X200218998Y-97115481D01*
X200194311Y-97215698D01*
X200117079Y-97307676D01*
X200007308Y-97522695D01*
X199989660Y-97839479D01*
X199988819Y-98130209D01*
X199957585Y-98391104D01*
X199946244Y-98437700D01*
X199853501Y-98617296D01*
X199744268Y-98665381D01*
X199662165Y-98579613D01*
X199646804Y-98473320D01*
X199466734Y-98473320D01*
X199449204Y-98611968D01*
X199395129Y-98653119D01*
X199330938Y-98643183D01*
X199136231Y-98594106D01*
X198924334Y-98544641D01*
X198727252Y-98479516D01*
X198437288Y-98359132D01*
X198111261Y-98207368D01*
X198052421Y-98178205D01*
X197434507Y-97868732D01*
X197490593Y-97528799D01*
X197528672Y-97312674D01*
X197555758Y-97185167D01*
X197560312Y-97172616D01*
X197641530Y-97189145D01*
X197852003Y-97246268D01*
X198159126Y-97334829D01*
X198503139Y-97437444D01*
X199432334Y-97718522D01*
X199457938Y-98201641D01*
X199466734Y-98473320D01*
X199646804Y-98473320D01*
X199644000Y-98453918D01*
X199658451Y-98209712D01*
X199696189Y-97897078D01*
X199748795Y-97564622D01*
X199759173Y-97511252D01*
X199474667Y-97511252D01*
X199453874Y-97549690D01*
X199375416Y-97556353D01*
X199215172Y-97526299D01*
X198949022Y-97454587D01*
X198552846Y-97336275D01*
X198416334Y-97294433D01*
X198072255Y-97181245D01*
X197861170Y-97088788D01*
X197751219Y-96999101D01*
X197710910Y-96896755D01*
X197716801Y-96759722D01*
X197815873Y-96746715D01*
X197837910Y-96752675D01*
X197991473Y-96797398D01*
X198254953Y-96874027D01*
X198575655Y-96967238D01*
X198628000Y-96982447D01*
X199062213Y-97131646D01*
X199337339Y-97282983D01*
X199463577Y-97442828D01*
X199474667Y-97511252D01*
X199759173Y-97511252D01*
X199807847Y-97260953D01*
X199826948Y-97185230D01*
X199636000Y-97185230D01*
X199587371Y-97259606D01*
X199492168Y-97255884D01*
X199362374Y-97160586D01*
X199254097Y-97025132D01*
X199220667Y-96923559D01*
X199252632Y-96855625D01*
X199375343Y-96883132D01*
X199432334Y-96907938D01*
X199607936Y-97037954D01*
X199636000Y-97185230D01*
X199826948Y-97185230D01*
X199864926Y-97034676D01*
X199906523Y-96938495D01*
X200022240Y-96923847D01*
X200125779Y-96999359D01*
X200218998Y-97115481D01*
X206481169Y-97115481D01*
X206977299Y-96756431D01*
X207615654Y-96203142D01*
X208111644Y-95652684D01*
X208476693Y-95087897D01*
X208583705Y-94828015D01*
X202505537Y-94828015D01*
X202475997Y-94979497D01*
X202388692Y-95087770D01*
X202192683Y-95161669D01*
X201914278Y-95194505D01*
X201634733Y-95183169D01*
X201435304Y-95124553D01*
X201434837Y-95124258D01*
X201353121Y-94990338D01*
X201351594Y-94892721D01*
X201402423Y-94794601D01*
X201533849Y-94745645D01*
X201788775Y-94730468D01*
X201804425Y-94730329D01*
X202075872Y-94720922D01*
X202287115Y-94700667D01*
X202348305Y-94687995D01*
X202460884Y-94710169D01*
X202505537Y-94828015D01*
X208583705Y-94828015D01*
X208722221Y-94491626D01*
X208859653Y-93846712D01*
X208899954Y-93251866D01*
X208880466Y-92630055D01*
X208809543Y-92071629D01*
X208693935Y-91597120D01*
X208601803Y-91375060D01*
X207643165Y-91375060D01*
X207635363Y-91520327D01*
X207579126Y-91662189D01*
X207482074Y-91813868D01*
X207351824Y-91988588D01*
X207195996Y-92199570D01*
X207185631Y-92214192D01*
X206703255Y-92810825D01*
X206214606Y-93242042D01*
X205714733Y-93511753D01*
X205443289Y-93590611D01*
X205229220Y-93627603D01*
X205024821Y-93639802D01*
X204789857Y-93623731D01*
X204484094Y-93575911D01*
X204067296Y-93492866D01*
X203898134Y-93457054D01*
X203442835Y-93362363D01*
X203102273Y-93302000D01*
X202826110Y-93272555D01*
X202564009Y-93270618D01*
X202265633Y-93292779D01*
X201963381Y-93325984D01*
X201064644Y-93465516D01*
X200258178Y-93672187D01*
X199473907Y-93964998D01*
X199264783Y-94057675D01*
X198893010Y-94218360D01*
X198519085Y-94365269D01*
X198212971Y-94471200D01*
X198164117Y-94485619D01*
X197679187Y-94566083D01*
X197115939Y-94572655D01*
X196546398Y-94509354D01*
X196042592Y-94380199D01*
X196001535Y-94364946D01*
X195649464Y-94209676D01*
X195273302Y-94013979D01*
X195096323Y-93909196D01*
X194705685Y-93658851D01*
X194320317Y-93405287D01*
X193965257Y-93165757D01*
X193665544Y-92957509D01*
X193446218Y-92797793D01*
X193332317Y-92703859D01*
X193322487Y-92687158D01*
X193411367Y-92671404D01*
X193644342Y-92643173D01*
X193996845Y-92605077D01*
X194444310Y-92559727D01*
X194962173Y-92509733D01*
X195206329Y-92486908D01*
X195802960Y-92429165D01*
X196391915Y-92367630D01*
X196934933Y-92306637D01*
X197393750Y-92250517D01*
X197730104Y-92203602D01*
X197781334Y-92195369D01*
X198154442Y-92137583D01*
X198633230Y-92069639D01*
X199155088Y-92000145D01*
X199641381Y-91939618D01*
X200062340Y-91886585D01*
X200420030Y-91836141D01*
X200682221Y-91793236D01*
X200816680Y-91762819D01*
X200826714Y-91757593D01*
X200775159Y-91741622D01*
X200596071Y-91745911D01*
X200363667Y-91766017D01*
X199642189Y-91844808D01*
X199059975Y-91911877D01*
X198587668Y-91971000D01*
X198195909Y-92025953D01*
X197855342Y-92080513D01*
X197687136Y-92110272D01*
X197364048Y-92159373D01*
X196923221Y-92212762D01*
X196415962Y-92264870D01*
X195893577Y-92310127D01*
X195739802Y-92321664D01*
X195224256Y-92360414D01*
X194709337Y-92401991D01*
X194245918Y-92442102D01*
X193884871Y-92476451D01*
X193802000Y-92485224D01*
X193167000Y-92555024D01*
X192222082Y-92095341D01*
X191801670Y-91902791D01*
X191380644Y-91730452D01*
X191011428Y-91598671D01*
X190772653Y-91532746D01*
X190268142Y-91429835D01*
X190895978Y-90372351D01*
X191180432Y-89889412D01*
X191489816Y-89357901D01*
X191786639Y-88842556D01*
X192031760Y-88411053D01*
X192267405Y-88003668D01*
X192455555Y-87713969D01*
X192623378Y-87507655D01*
X192798038Y-87350425D01*
X192962406Y-87235995D01*
X193191326Y-87096920D01*
X193356334Y-87011342D01*
X193414522Y-86996808D01*
X193404032Y-87086479D01*
X193349774Y-87295339D01*
X193262686Y-87582320D01*
X193239422Y-87654263D01*
X193125504Y-88024640D01*
X193073644Y-88238977D01*
X193078946Y-88296767D01*
X193136514Y-88197504D01*
X193241452Y-87940681D01*
X193341201Y-87664788D01*
X193459925Y-87344820D01*
X193569289Y-87086829D01*
X193650908Y-86933007D01*
X193669367Y-86911703D01*
X193834267Y-86838497D01*
X194161732Y-86746085D01*
X194646230Y-86635695D01*
X195282230Y-86508557D01*
X196064201Y-86365902D01*
X196342000Y-86317581D01*
X197237017Y-86170370D01*
X198026473Y-86057734D01*
X198769184Y-85973587D01*
X199523969Y-85911843D01*
X200349645Y-85866419D01*
X200920955Y-85843853D01*
X202324910Y-85794559D01*
X205047752Y-88503550D01*
X205701684Y-89152092D01*
X206246235Y-89691444D01*
X206689023Y-90134829D01*
X207037667Y-90495471D01*
X207299785Y-90786592D01*
X207482995Y-91021415D01*
X207594915Y-91213163D01*
X207643165Y-91375060D01*
X208601803Y-91375060D01*
X208540397Y-91227057D01*
X208355679Y-90981972D01*
X208146536Y-90882396D01*
X208120241Y-90881199D01*
X208033891Y-90822994D01*
X207843722Y-90657886D01*
X207564204Y-90400140D01*
X207209806Y-90064021D01*
X206794999Y-89663791D01*
X206334253Y-89213716D01*
X205842039Y-88728059D01*
X205332827Y-88221085D01*
X204821086Y-87707057D01*
X204321288Y-87200240D01*
X203847903Y-86714898D01*
X203415400Y-86265295D01*
X203108481Y-85940848D01*
X202565000Y-85360830D01*
X200686911Y-85421849D01*
X198808822Y-85482869D01*
X198755714Y-85155201D01*
X198661703Y-84609970D01*
X198565882Y-84116141D01*
X198475118Y-83705580D01*
X198396282Y-83410153D01*
X198354667Y-83294911D01*
X198209925Y-83114961D01*
X197991639Y-82969990D01*
X197976854Y-82963576D01*
X197790860Y-82852957D01*
X197698802Y-82733688D01*
X197696667Y-82716799D01*
X197624225Y-82602405D01*
X197477889Y-82532182D01*
X197199702Y-82505436D01*
X196823300Y-82524328D01*
G04 #@! TD*
M02*
