G04 #@! TF.GenerationSoftware,KiCad,Pcbnew,(5.0.2)-1*
G04 #@! TF.CreationDate,2019-04-24T00:03:05-04:00*
G04 #@! TF.ProjectId,4x5macro,3478356d-6163-4726-9f2e-6b696361645f,rev?*
G04 #@! TF.SameCoordinates,Original*
G04 #@! TF.FileFunction,Legend,Top*
G04 #@! TF.FilePolarity,Positive*
%FSLAX46Y46*%
G04 Gerber Fmt 4.6, Leading zero omitted, Abs format (unit mm)*
G04 Created by KiCad (PCBNEW (5.0.2)-1) date 4/24/2019 12:03:05 AM*
%MOMM*%
%LPD*%
G01*
G04 APERTURE LIST*
%ADD10C,0.187500*%
%ADD11C,0.375000*%
%ADD12C,0.125000*%
%ADD13C,0.250000*%
%ADD14C,0.200000*%
%ADD15C,0.120000*%
%ADD16C,0.150000*%
%ADD17C,0.127000*%
%ADD18C,0.010000*%
%ADD19C,0.066040*%
G04 APERTURE END LIST*
D10*
X174614514Y-110092685D02*
X174614514Y-109592685D01*
X174614514Y-109735542D02*
X174650228Y-109664114D01*
X174685942Y-109628400D01*
X174757371Y-109592685D01*
X174828800Y-109592685D01*
X175364514Y-110056971D02*
X175293085Y-110092685D01*
X175150228Y-110092685D01*
X175078800Y-110056971D01*
X175043085Y-109985542D01*
X175043085Y-109699828D01*
X175078800Y-109628400D01*
X175150228Y-109592685D01*
X175293085Y-109592685D01*
X175364514Y-109628400D01*
X175400228Y-109699828D01*
X175400228Y-109771257D01*
X175043085Y-109842685D01*
X175650228Y-109592685D02*
X175828800Y-110092685D01*
X176007371Y-109592685D01*
X176828800Y-109414114D02*
X176864514Y-109378400D01*
X176935942Y-109342685D01*
X177114514Y-109342685D01*
X177185942Y-109378400D01*
X177221657Y-109414114D01*
X177257371Y-109485542D01*
X177257371Y-109556971D01*
X177221657Y-109664114D01*
X176793085Y-110092685D01*
X177257371Y-110092685D01*
X177578800Y-110021257D02*
X177614514Y-110056971D01*
X177578800Y-110092685D01*
X177543085Y-110056971D01*
X177578800Y-110021257D01*
X177578800Y-110092685D01*
X178078800Y-109342685D02*
X178150228Y-109342685D01*
X178221657Y-109378400D01*
X178257371Y-109414114D01*
X178293085Y-109485542D01*
X178328800Y-109628400D01*
X178328800Y-109806971D01*
X178293085Y-109949828D01*
X178257371Y-110021257D01*
X178221657Y-110056971D01*
X178150228Y-110092685D01*
X178078800Y-110092685D01*
X178007371Y-110056971D01*
X177971657Y-110021257D01*
X177935942Y-109949828D01*
X177900228Y-109806971D01*
X177900228Y-109628400D01*
X177935942Y-109485542D01*
X177971657Y-109414114D01*
X178007371Y-109378400D01*
X178078800Y-109342685D01*
D11*
X171165414Y-104217271D02*
X171165414Y-102717271D01*
X171665414Y-103788700D01*
X172165414Y-102717271D01*
X172165414Y-104217271D01*
X173522557Y-104217271D02*
X173522557Y-103431557D01*
X173451128Y-103288700D01*
X173308271Y-103217271D01*
X173022557Y-103217271D01*
X172879700Y-103288700D01*
X173522557Y-104145842D02*
X173379700Y-104217271D01*
X173022557Y-104217271D01*
X172879700Y-104145842D01*
X172808271Y-104002985D01*
X172808271Y-103860128D01*
X172879700Y-103717271D01*
X173022557Y-103645842D01*
X173379700Y-103645842D01*
X173522557Y-103574414D01*
X174879700Y-104145842D02*
X174736842Y-104217271D01*
X174451128Y-104217271D01*
X174308271Y-104145842D01*
X174236842Y-104074414D01*
X174165414Y-103931557D01*
X174165414Y-103502985D01*
X174236842Y-103360128D01*
X174308271Y-103288700D01*
X174451128Y-103217271D01*
X174736842Y-103217271D01*
X174879700Y-103288700D01*
X175522557Y-104217271D02*
X175522557Y-103217271D01*
X175522557Y-103502985D02*
X175593985Y-103360128D01*
X175665414Y-103288700D01*
X175808271Y-103217271D01*
X175951128Y-103217271D01*
X176665414Y-104217271D02*
X176522557Y-104145842D01*
X176451128Y-104074414D01*
X176379700Y-103931557D01*
X176379700Y-103502985D01*
X176451128Y-103360128D01*
X176522557Y-103288700D01*
X176665414Y-103217271D01*
X176879700Y-103217271D01*
X177022557Y-103288700D01*
X177093985Y-103360128D01*
X177165414Y-103502985D01*
X177165414Y-103931557D01*
X177093985Y-104074414D01*
X177022557Y-104145842D01*
X176879700Y-104217271D01*
X176665414Y-104217271D01*
X171986842Y-106842271D02*
X171986842Y-105342271D01*
X172558271Y-105342271D01*
X172701128Y-105413700D01*
X172772557Y-105485128D01*
X172843985Y-105627985D01*
X172843985Y-105842271D01*
X172772557Y-105985128D01*
X172701128Y-106056557D01*
X172558271Y-106127985D01*
X171986842Y-106127985D01*
X173701128Y-106842271D02*
X173558271Y-106770842D01*
X173486842Y-106699414D01*
X173415414Y-106556557D01*
X173415414Y-106127985D01*
X173486842Y-105985128D01*
X173558271Y-105913700D01*
X173701128Y-105842271D01*
X173915414Y-105842271D01*
X174058271Y-105913700D01*
X174129700Y-105985128D01*
X174201128Y-106127985D01*
X174201128Y-106556557D01*
X174129700Y-106699414D01*
X174058271Y-106770842D01*
X173915414Y-106842271D01*
X173701128Y-106842271D01*
X175058271Y-106842271D02*
X174915414Y-106770842D01*
X174843985Y-106627985D01*
X174843985Y-105342271D01*
X175843985Y-106842271D02*
X175701128Y-106770842D01*
X175629700Y-106699414D01*
X175558271Y-106556557D01*
X175558271Y-106127985D01*
X175629700Y-105985128D01*
X175701128Y-105913700D01*
X175843985Y-105842271D01*
X176058271Y-105842271D01*
X176201128Y-105913700D01*
X176272557Y-105985128D01*
X176343985Y-106127985D01*
X176343985Y-106556557D01*
X176272557Y-106699414D01*
X176201128Y-106770842D01*
X176058271Y-106842271D01*
X175843985Y-106842271D01*
D12*
X190460333Y-69636485D02*
X190293666Y-69636485D01*
X190293666Y-69898390D02*
X190293666Y-69398390D01*
X190531761Y-69398390D01*
X190936523Y-69398390D02*
X190841285Y-69398390D01*
X190793666Y-69422200D01*
X190769857Y-69446009D01*
X190722238Y-69517438D01*
X190698428Y-69612676D01*
X190698428Y-69803152D01*
X190722238Y-69850771D01*
X190746047Y-69874580D01*
X190793666Y-69898390D01*
X190888904Y-69898390D01*
X190936523Y-69874580D01*
X190960333Y-69850771D01*
X190984142Y-69803152D01*
X190984142Y-69684104D01*
X190960333Y-69636485D01*
X190936523Y-69612676D01*
X190888904Y-69588866D01*
X190793666Y-69588866D01*
X190746047Y-69612676D01*
X190722238Y-69636485D01*
X190698428Y-69684104D01*
X185393033Y-69623785D02*
X185226366Y-69623785D01*
X185226366Y-69885690D02*
X185226366Y-69385690D01*
X185464461Y-69385690D01*
X185607319Y-69385690D02*
X185940652Y-69385690D01*
X185726366Y-69885690D01*
X209624633Y-69801585D02*
X209457966Y-69801585D01*
X209457966Y-70063490D02*
X209457966Y-69563490D01*
X209696061Y-69563490D01*
X210100823Y-69730157D02*
X210100823Y-70063490D01*
X209981776Y-69539680D02*
X209862728Y-69896823D01*
X210172252Y-69896823D01*
X204557333Y-69788885D02*
X204390666Y-69788885D01*
X204390666Y-70050790D02*
X204390666Y-69550790D01*
X204628761Y-69550790D01*
X205057333Y-69550790D02*
X204819238Y-69550790D01*
X204795428Y-69788885D01*
X204819238Y-69765076D01*
X204866857Y-69741266D01*
X204985904Y-69741266D01*
X205033523Y-69765076D01*
X205057333Y-69788885D01*
X205081142Y-69836504D01*
X205081142Y-69955552D01*
X205057333Y-70003171D01*
X205033523Y-70026980D01*
X204985904Y-70050790D01*
X204866857Y-70050790D01*
X204819238Y-70026980D01*
X204795428Y-70003171D01*
X228496833Y-69826985D02*
X228330166Y-69826985D01*
X228330166Y-70088890D02*
X228330166Y-69588890D01*
X228568261Y-69588890D01*
X228853976Y-69588890D02*
X228901595Y-69588890D01*
X228949214Y-69612700D01*
X228973023Y-69636509D01*
X228996833Y-69684128D01*
X229020642Y-69779366D01*
X229020642Y-69898414D01*
X228996833Y-69993652D01*
X228973023Y-70041271D01*
X228949214Y-70065080D01*
X228901595Y-70088890D01*
X228853976Y-70088890D01*
X228806357Y-70065080D01*
X228782547Y-70041271D01*
X228758738Y-69993652D01*
X228734928Y-69898414D01*
X228734928Y-69779366D01*
X228758738Y-69684128D01*
X228782547Y-69636509D01*
X228806357Y-69612700D01*
X228853976Y-69588890D01*
X223429533Y-69814285D02*
X223262866Y-69814285D01*
X223262866Y-70076190D02*
X223262866Y-69576190D01*
X223500961Y-69576190D01*
X223953342Y-70076190D02*
X223667628Y-70076190D01*
X223810485Y-70076190D02*
X223810485Y-69576190D01*
X223762866Y-69647619D01*
X223715247Y-69695238D01*
X223667628Y-69719047D01*
X247357152Y-70203190D02*
X247357152Y-69703190D01*
X247476200Y-69703190D01*
X247547628Y-69727000D01*
X247595247Y-69774619D01*
X247619057Y-69822238D01*
X247642866Y-69917476D01*
X247642866Y-69988904D01*
X247619057Y-70084142D01*
X247595247Y-70131761D01*
X247547628Y-70179380D01*
X247476200Y-70203190D01*
X247357152Y-70203190D01*
X247809533Y-69703190D02*
X248142866Y-69703190D01*
X247928580Y-70203190D01*
X242289852Y-70190490D02*
X242289852Y-69690490D01*
X242408900Y-69690490D01*
X242480328Y-69714300D01*
X242527947Y-69761919D01*
X242551757Y-69809538D01*
X242575566Y-69904776D01*
X242575566Y-69976204D01*
X242551757Y-70071442D01*
X242527947Y-70119061D01*
X242480328Y-70166680D01*
X242408900Y-70190490D01*
X242289852Y-70190490D01*
X243004138Y-69690490D02*
X242908900Y-69690490D01*
X242861280Y-69714300D01*
X242837471Y-69738109D01*
X242789852Y-69809538D01*
X242766042Y-69904776D01*
X242766042Y-70095252D01*
X242789852Y-70142871D01*
X242813661Y-70166680D01*
X242861280Y-70190490D01*
X242956519Y-70190490D01*
X243004138Y-70166680D01*
X243027947Y-70142871D01*
X243051757Y-70095252D01*
X243051757Y-69976204D01*
X243027947Y-69928585D01*
X243004138Y-69904776D01*
X242956519Y-69880966D01*
X242861280Y-69880966D01*
X242813661Y-69904776D01*
X242789852Y-69928585D01*
X242766042Y-69976204D01*
X249547890Y-42682290D02*
X249381223Y-42444195D01*
X249262176Y-42682290D02*
X249262176Y-42182290D01*
X249452652Y-42182290D01*
X249500271Y-42206100D01*
X249524080Y-42229909D01*
X249547890Y-42277528D01*
X249547890Y-42348957D01*
X249524080Y-42396576D01*
X249500271Y-42420385D01*
X249452652Y-42444195D01*
X249262176Y-42444195D01*
X249738366Y-42658480D02*
X249809795Y-42682290D01*
X249928842Y-42682290D01*
X249976461Y-42658480D01*
X250000271Y-42634671D01*
X250024080Y-42587052D01*
X250024080Y-42539433D01*
X250000271Y-42491814D01*
X249976461Y-42468004D01*
X249928842Y-42444195D01*
X249833604Y-42420385D01*
X249785985Y-42396576D01*
X249762176Y-42372766D01*
X249738366Y-42325147D01*
X249738366Y-42277528D01*
X249762176Y-42229909D01*
X249785985Y-42206100D01*
X249833604Y-42182290D01*
X249952652Y-42182290D01*
X250024080Y-42206100D01*
X250166938Y-42182290D02*
X250452652Y-42182290D01*
X250309795Y-42682290D02*
X250309795Y-42182290D01*
X245998371Y-42682290D02*
X245998371Y-42182290D01*
X246117419Y-42182290D01*
X246188847Y-42206100D01*
X246236466Y-42253719D01*
X246260276Y-42301338D01*
X246284085Y-42396576D01*
X246284085Y-42468004D01*
X246260276Y-42563242D01*
X246236466Y-42610861D01*
X246188847Y-42658480D01*
X246117419Y-42682290D01*
X245998371Y-42682290D01*
X246593609Y-42182290D02*
X246641228Y-42182290D01*
X246688847Y-42206100D01*
X246712657Y-42229909D01*
X246736466Y-42277528D01*
X246760276Y-42372766D01*
X246760276Y-42491814D01*
X246736466Y-42587052D01*
X246712657Y-42634671D01*
X246688847Y-42658480D01*
X246641228Y-42682290D01*
X246593609Y-42682290D01*
X246545990Y-42658480D01*
X246522180Y-42634671D01*
X246498371Y-42587052D01*
X246474561Y-42491814D01*
X246474561Y-42372766D01*
X246498371Y-42277528D01*
X246522180Y-42229909D01*
X246545990Y-42206100D01*
X246593609Y-42182290D01*
X247331704Y-42158480D02*
X246903133Y-42801338D01*
X247474561Y-42658480D02*
X247545990Y-42682290D01*
X247665038Y-42682290D01*
X247712657Y-42658480D01*
X247736466Y-42634671D01*
X247760276Y-42587052D01*
X247760276Y-42539433D01*
X247736466Y-42491814D01*
X247712657Y-42468004D01*
X247665038Y-42444195D01*
X247569800Y-42420385D01*
X247522180Y-42396576D01*
X247498371Y-42372766D01*
X247474561Y-42325147D01*
X247474561Y-42277528D01*
X247498371Y-42229909D01*
X247522180Y-42206100D01*
X247569800Y-42182290D01*
X247688847Y-42182290D01*
X247760276Y-42206100D01*
X248260276Y-42634671D02*
X248236466Y-42658480D01*
X248165038Y-42682290D01*
X248117419Y-42682290D01*
X248045990Y-42658480D01*
X247998371Y-42610861D01*
X247974561Y-42563242D01*
X247950752Y-42468004D01*
X247950752Y-42396576D01*
X247974561Y-42301338D01*
X247998371Y-42253719D01*
X248045990Y-42206100D01*
X248117419Y-42182290D01*
X248165038Y-42182290D01*
X248236466Y-42206100D01*
X248260276Y-42229909D01*
X248712657Y-42682290D02*
X248474561Y-42682290D01*
X248474561Y-42182290D01*
X242874966Y-42669590D02*
X242874966Y-42169590D01*
X242994014Y-42169590D01*
X243065442Y-42193400D01*
X243113061Y-42241019D01*
X243136871Y-42288638D01*
X243160680Y-42383876D01*
X243160680Y-42455304D01*
X243136871Y-42550542D01*
X243113061Y-42598161D01*
X243065442Y-42645780D01*
X242994014Y-42669590D01*
X242874966Y-42669590D01*
X243636871Y-42669590D02*
X243351157Y-42669590D01*
X243494014Y-42669590D02*
X243494014Y-42169590D01*
X243446395Y-42241019D01*
X243398776Y-42288638D01*
X243351157Y-42312447D01*
X244208300Y-42145780D02*
X243779728Y-42788638D01*
X244351157Y-42645780D02*
X244422585Y-42669590D01*
X244541633Y-42669590D01*
X244589252Y-42645780D01*
X244613061Y-42621971D01*
X244636871Y-42574352D01*
X244636871Y-42526733D01*
X244613061Y-42479114D01*
X244589252Y-42455304D01*
X244541633Y-42431495D01*
X244446395Y-42407685D01*
X244398776Y-42383876D01*
X244374966Y-42360066D01*
X244351157Y-42312447D01*
X244351157Y-42264828D01*
X244374966Y-42217209D01*
X244398776Y-42193400D01*
X244446395Y-42169590D01*
X244565442Y-42169590D01*
X244636871Y-42193400D01*
X244851157Y-42669590D02*
X244851157Y-42169590D01*
X244970204Y-42169590D01*
X245041633Y-42193400D01*
X245089252Y-42241019D01*
X245113061Y-42288638D01*
X245136871Y-42383876D01*
X245136871Y-42455304D01*
X245113061Y-42550542D01*
X245089252Y-42598161D01*
X245041633Y-42645780D01*
X244970204Y-42669590D01*
X244851157Y-42669590D01*
X245327347Y-42526733D02*
X245565442Y-42526733D01*
X245279728Y-42669590D02*
X245446395Y-42169590D01*
X245613061Y-42669590D01*
X241796119Y-42420385D02*
X241867547Y-42444195D01*
X241891357Y-42468004D01*
X241915166Y-42515623D01*
X241915166Y-42587052D01*
X241891357Y-42634671D01*
X241867547Y-42658480D01*
X241819928Y-42682290D01*
X241629452Y-42682290D01*
X241629452Y-42182290D01*
X241796119Y-42182290D01*
X241843738Y-42206100D01*
X241867547Y-42229909D01*
X241891357Y-42277528D01*
X241891357Y-42325147D01*
X241867547Y-42372766D01*
X241843738Y-42396576D01*
X241796119Y-42420385D01*
X241629452Y-42420385D01*
X242367547Y-42182290D02*
X242129452Y-42182290D01*
X242105642Y-42420385D01*
X242129452Y-42396576D01*
X242177071Y-42372766D01*
X242296119Y-42372766D01*
X242343738Y-42396576D01*
X242367547Y-42420385D01*
X242391357Y-42468004D01*
X242391357Y-42587052D01*
X242367547Y-42634671D01*
X242343738Y-42658480D01*
X242296119Y-42682290D01*
X242177071Y-42682290D01*
X242129452Y-42658480D01*
X242105642Y-42634671D01*
X239268819Y-42420385D02*
X239340247Y-42444195D01*
X239364057Y-42468004D01*
X239387866Y-42515623D01*
X239387866Y-42587052D01*
X239364057Y-42634671D01*
X239340247Y-42658480D01*
X239292628Y-42682290D01*
X239102152Y-42682290D01*
X239102152Y-42182290D01*
X239268819Y-42182290D01*
X239316438Y-42206100D01*
X239340247Y-42229909D01*
X239364057Y-42277528D01*
X239364057Y-42325147D01*
X239340247Y-42372766D01*
X239316438Y-42396576D01*
X239268819Y-42420385D01*
X239102152Y-42420385D01*
X239816438Y-42182290D02*
X239721200Y-42182290D01*
X239673580Y-42206100D01*
X239649771Y-42229909D01*
X239602152Y-42301338D01*
X239578342Y-42396576D01*
X239578342Y-42587052D01*
X239602152Y-42634671D01*
X239625961Y-42658480D01*
X239673580Y-42682290D01*
X239768819Y-42682290D01*
X239816438Y-42658480D01*
X239840247Y-42634671D01*
X239864057Y-42587052D01*
X239864057Y-42468004D01*
X239840247Y-42420385D01*
X239816438Y-42396576D01*
X239768819Y-42372766D01*
X239673580Y-42372766D01*
X239625961Y-42396576D01*
X239602152Y-42420385D01*
X239578342Y-42468004D01*
X236340733Y-42182290D02*
X236507400Y-42682290D01*
X236674066Y-42182290D01*
X237126447Y-42634671D02*
X237102638Y-42658480D01*
X237031209Y-42682290D01*
X236983590Y-42682290D01*
X236912161Y-42658480D01*
X236864542Y-42610861D01*
X236840733Y-42563242D01*
X236816923Y-42468004D01*
X236816923Y-42396576D01*
X236840733Y-42301338D01*
X236864542Y-42253719D01*
X236912161Y-42206100D01*
X236983590Y-42182290D01*
X237031209Y-42182290D01*
X237102638Y-42206100D01*
X237126447Y-42229909D01*
X237626447Y-42634671D02*
X237602638Y-42658480D01*
X237531209Y-42682290D01*
X237483590Y-42682290D01*
X237412161Y-42658480D01*
X237364542Y-42610861D01*
X237340733Y-42563242D01*
X237316923Y-42468004D01*
X237316923Y-42396576D01*
X237340733Y-42301338D01*
X237364542Y-42253719D01*
X237412161Y-42206100D01*
X237483590Y-42182290D01*
X237531209Y-42182290D01*
X237602638Y-42206100D01*
X237626447Y-42229909D01*
X230441547Y-48479900D02*
X230393928Y-48456090D01*
X230322500Y-48456090D01*
X230251071Y-48479900D01*
X230203452Y-48527519D01*
X230179642Y-48575138D01*
X230155833Y-48670376D01*
X230155833Y-48741804D01*
X230179642Y-48837042D01*
X230203452Y-48884661D01*
X230251071Y-48932280D01*
X230322500Y-48956090D01*
X230370119Y-48956090D01*
X230441547Y-48932280D01*
X230465357Y-48908471D01*
X230465357Y-48741804D01*
X230370119Y-48741804D01*
X230679642Y-48956090D02*
X230679642Y-48456090D01*
X230965357Y-48956090D01*
X230965357Y-48456090D01*
X231203452Y-48956090D02*
X231203452Y-48456090D01*
X231322500Y-48456090D01*
X231393928Y-48479900D01*
X231441547Y-48527519D01*
X231465357Y-48575138D01*
X231489166Y-48670376D01*
X231489166Y-48741804D01*
X231465357Y-48837042D01*
X231441547Y-48884661D01*
X231393928Y-48932280D01*
X231322500Y-48956090D01*
X231203452Y-48956090D01*
X230624866Y-42698171D02*
X230601057Y-42721980D01*
X230529628Y-42745790D01*
X230482009Y-42745790D01*
X230410580Y-42721980D01*
X230362961Y-42674361D01*
X230339152Y-42626742D01*
X230315342Y-42531504D01*
X230315342Y-42460076D01*
X230339152Y-42364838D01*
X230362961Y-42317219D01*
X230410580Y-42269600D01*
X230482009Y-42245790D01*
X230529628Y-42245790D01*
X230601057Y-42269600D01*
X230624866Y-42293409D01*
X231053438Y-42245790D02*
X230958200Y-42245790D01*
X230910580Y-42269600D01*
X230886771Y-42293409D01*
X230839152Y-42364838D01*
X230815342Y-42460076D01*
X230815342Y-42650552D01*
X230839152Y-42698171D01*
X230862961Y-42721980D01*
X230910580Y-42745790D01*
X231005819Y-42745790D01*
X231053438Y-42721980D01*
X231077247Y-42698171D01*
X231101057Y-42650552D01*
X231101057Y-42531504D01*
X231077247Y-42483885D01*
X231053438Y-42460076D01*
X231005819Y-42436266D01*
X230910580Y-42436266D01*
X230862961Y-42460076D01*
X230839152Y-42483885D01*
X230815342Y-42531504D01*
X234010247Y-42206100D02*
X233962628Y-42182290D01*
X233891200Y-42182290D01*
X233819771Y-42206100D01*
X233772152Y-42253719D01*
X233748342Y-42301338D01*
X233724533Y-42396576D01*
X233724533Y-42468004D01*
X233748342Y-42563242D01*
X233772152Y-42610861D01*
X233819771Y-42658480D01*
X233891200Y-42682290D01*
X233938819Y-42682290D01*
X234010247Y-42658480D01*
X234034057Y-42634671D01*
X234034057Y-42468004D01*
X233938819Y-42468004D01*
X234248342Y-42682290D02*
X234248342Y-42182290D01*
X234534057Y-42682290D01*
X234534057Y-42182290D01*
X234772152Y-42682290D02*
X234772152Y-42182290D01*
X234891200Y-42182290D01*
X234962628Y-42206100D01*
X235010247Y-42253719D01*
X235034057Y-42301338D01*
X235057866Y-42396576D01*
X235057866Y-42468004D01*
X235034057Y-42563242D01*
X235010247Y-42610861D01*
X234962628Y-42658480D01*
X234891200Y-42682290D01*
X234772152Y-42682290D01*
D13*
X219792895Y-49121961D02*
X219935752Y-49169580D01*
X220173847Y-49169580D01*
X220269085Y-49121961D01*
X220316704Y-49074342D01*
X220364323Y-48979104D01*
X220364323Y-48883866D01*
X220316704Y-48788628D01*
X220269085Y-48741009D01*
X220173847Y-48693390D01*
X219983371Y-48645771D01*
X219888133Y-48598152D01*
X219840514Y-48550533D01*
X219792895Y-48455295D01*
X219792895Y-48360057D01*
X219840514Y-48264819D01*
X219888133Y-48217200D01*
X219983371Y-48169580D01*
X220221466Y-48169580D01*
X220364323Y-48217200D01*
X220792895Y-48502914D02*
X220792895Y-49502914D01*
X220792895Y-48550533D02*
X220888133Y-48502914D01*
X221078609Y-48502914D01*
X221173847Y-48550533D01*
X221221466Y-48598152D01*
X221269085Y-48693390D01*
X221269085Y-48979104D01*
X221221466Y-49074342D01*
X221173847Y-49121961D01*
X221078609Y-49169580D01*
X220888133Y-49169580D01*
X220792895Y-49121961D01*
X222078609Y-49121961D02*
X221983371Y-49169580D01*
X221792895Y-49169580D01*
X221697657Y-49121961D01*
X221650038Y-49026723D01*
X221650038Y-48645771D01*
X221697657Y-48550533D01*
X221792895Y-48502914D01*
X221983371Y-48502914D01*
X222078609Y-48550533D01*
X222126228Y-48645771D01*
X222126228Y-48741009D01*
X221650038Y-48836247D01*
X222983371Y-49169580D02*
X222983371Y-48645771D01*
X222935752Y-48550533D01*
X222840514Y-48502914D01*
X222650038Y-48502914D01*
X222554800Y-48550533D01*
X222983371Y-49121961D02*
X222888133Y-49169580D01*
X222650038Y-49169580D01*
X222554800Y-49121961D01*
X222507180Y-49026723D01*
X222507180Y-48931485D01*
X222554800Y-48836247D01*
X222650038Y-48788628D01*
X222888133Y-48788628D01*
X222983371Y-48741009D01*
X223459561Y-49169580D02*
X223459561Y-48169580D01*
X223554800Y-48788628D02*
X223840514Y-49169580D01*
X223840514Y-48502914D02*
X223459561Y-48883866D01*
X224650038Y-49121961D02*
X224554800Y-49169580D01*
X224364323Y-49169580D01*
X224269085Y-49121961D01*
X224221466Y-49026723D01*
X224221466Y-48645771D01*
X224269085Y-48550533D01*
X224364323Y-48502914D01*
X224554800Y-48502914D01*
X224650038Y-48550533D01*
X224697657Y-48645771D01*
X224697657Y-48741009D01*
X224221466Y-48836247D01*
X225126228Y-49169580D02*
X225126228Y-48502914D01*
X225126228Y-48693390D02*
X225173847Y-48598152D01*
X225221466Y-48550533D01*
X225316704Y-48502914D01*
X225411942Y-48502914D01*
D14*
X228436430Y-48920400D02*
G75*
G03X228436430Y-48920400I-6007865J0D01*
G01*
D15*
G04 #@! TO.C,D6*
X170174900Y-81273200D02*
X177474900Y-81273200D01*
X170174900Y-86773200D02*
X177474900Y-86773200D01*
X177474900Y-86773200D02*
X177474900Y-85623200D01*
D16*
G04 #@! TO.C,SW17*
X238315500Y-109855000D02*
X238315500Y-95885000D01*
X252285500Y-109855000D02*
X238315500Y-109855000D01*
X252285500Y-95885000D02*
X252285500Y-109855000D01*
X238315500Y-95885000D02*
X252285500Y-95885000D01*
G04 #@! TO.C,SW16*
X219202000Y-109855000D02*
X219202000Y-95885000D01*
X233172000Y-109855000D02*
X219202000Y-109855000D01*
X233172000Y-95885000D02*
X233172000Y-109855000D01*
X219202000Y-95885000D02*
X233172000Y-95885000D01*
G04 #@! TO.C,SW15*
X200215500Y-109855000D02*
X200215500Y-95885000D01*
X214185500Y-109855000D02*
X200215500Y-109855000D01*
X214185500Y-95885000D02*
X214185500Y-109855000D01*
X200215500Y-95885000D02*
X214185500Y-95885000D01*
G04 #@! TO.C,SW14*
X181165500Y-109855000D02*
X181165500Y-95885000D01*
X195135500Y-109855000D02*
X181165500Y-109855000D01*
X195135500Y-95885000D02*
X195135500Y-109855000D01*
X181165500Y-95885000D02*
X195135500Y-95885000D01*
G04 #@! TO.C,SW13*
X238315500Y-90805000D02*
X238315500Y-76835000D01*
X252285500Y-90805000D02*
X238315500Y-90805000D01*
X252285500Y-76835000D02*
X252285500Y-90805000D01*
X238315500Y-76835000D02*
X252285500Y-76835000D01*
G04 #@! TO.C,SW12*
X219265500Y-90741500D02*
X219265500Y-76771500D01*
X233235500Y-90741500D02*
X219265500Y-90741500D01*
X233235500Y-76771500D02*
X233235500Y-90741500D01*
X219265500Y-76771500D02*
X233235500Y-76771500D01*
G04 #@! TO.C,SW11*
X200215500Y-90805000D02*
X200215500Y-76835000D01*
X214185500Y-90805000D02*
X200215500Y-90805000D01*
X214185500Y-76835000D02*
X214185500Y-90805000D01*
X200215500Y-76835000D02*
X214185500Y-76835000D01*
G04 #@! TO.C,SW10*
X181165500Y-90805000D02*
X181165500Y-76835000D01*
X195135500Y-90805000D02*
X181165500Y-90805000D01*
X195135500Y-76835000D02*
X195135500Y-90805000D01*
X181165500Y-76835000D02*
X195135500Y-76835000D01*
G04 #@! TO.C,SW9*
X238315500Y-71755000D02*
X238315500Y-57785000D01*
X252285500Y-71755000D02*
X238315500Y-71755000D01*
X252285500Y-57785000D02*
X252285500Y-71755000D01*
X238315500Y-57785000D02*
X252285500Y-57785000D01*
G04 #@! TO.C,SW7*
X200215500Y-71755000D02*
X200215500Y-57785000D01*
X214185500Y-71755000D02*
X200215500Y-71755000D01*
X214185500Y-57785000D02*
X214185500Y-71755000D01*
X200215500Y-57785000D02*
X214185500Y-57785000D01*
G04 #@! TO.C,SW6*
X181165500Y-71755000D02*
X181165500Y-57785000D01*
X195135500Y-71755000D02*
X181165500Y-71755000D01*
X195135500Y-57785000D02*
X195135500Y-71755000D01*
X181165500Y-57785000D02*
X195135500Y-57785000D01*
G04 #@! TO.C,SW8*
X219265500Y-71755000D02*
X219265500Y-57785000D01*
X233235500Y-71755000D02*
X219265500Y-71755000D01*
X233235500Y-57785000D02*
X233235500Y-71755000D01*
X219265500Y-57785000D02*
X233235500Y-57785000D01*
D17*
G04 #@! TO.C,D14*
X224472500Y-74866500D02*
X224472500Y-74993500D01*
X224345500Y-75120500D02*
X224472500Y-74866500D01*
X224599500Y-74993500D02*
X224345500Y-75120500D01*
X224472500Y-74866500D02*
X224599500Y-74993500D01*
X224345500Y-74739500D02*
X224472500Y-74866500D01*
X224345500Y-75120500D02*
X224345500Y-74739500D01*
X224345500Y-75247500D02*
X224345500Y-75120500D01*
X224726500Y-74993500D02*
X224345500Y-75247500D01*
X224345500Y-74612500D02*
X224726500Y-74993500D01*
X224218500Y-75374500D02*
X224345500Y-74612500D01*
X224853500Y-74993500D02*
X224218500Y-75374500D01*
X224345500Y-74485500D02*
X224853500Y-74993500D01*
X224218500Y-75501500D02*
X224345500Y-74485500D01*
X224980500Y-74993500D02*
X224218500Y-75501500D01*
X224218500Y-74358500D02*
X224980500Y-74993500D01*
X224218500Y-75374500D02*
X224218500Y-74358500D01*
X224218500Y-75501500D02*
X224218500Y-75374500D01*
X224218500Y-75628500D02*
X224218500Y-75501500D01*
X224980500Y-74993500D02*
X224218500Y-75628500D01*
X225742500Y-75882500D02*
X223456500Y-75882500D01*
X223456500Y-74104500D02*
X225742500Y-74104500D01*
G04 #@! TO.C,D19*
X243522500Y-93916500D02*
X243522500Y-94043500D01*
X243395500Y-94170500D02*
X243522500Y-93916500D01*
X243649500Y-94043500D02*
X243395500Y-94170500D01*
X243522500Y-93916500D02*
X243649500Y-94043500D01*
X243395500Y-93789500D02*
X243522500Y-93916500D01*
X243395500Y-94170500D02*
X243395500Y-93789500D01*
X243395500Y-94297500D02*
X243395500Y-94170500D01*
X243776500Y-94043500D02*
X243395500Y-94297500D01*
X243395500Y-93662500D02*
X243776500Y-94043500D01*
X243268500Y-94424500D02*
X243395500Y-93662500D01*
X243903500Y-94043500D02*
X243268500Y-94424500D01*
X243395500Y-93535500D02*
X243903500Y-94043500D01*
X243268500Y-94551500D02*
X243395500Y-93535500D01*
X244030500Y-94043500D02*
X243268500Y-94551500D01*
X243268500Y-93408500D02*
X244030500Y-94043500D01*
X243268500Y-94424500D02*
X243268500Y-93408500D01*
X243268500Y-94551500D02*
X243268500Y-94424500D01*
X243268500Y-94678500D02*
X243268500Y-94551500D01*
X244030500Y-94043500D02*
X243268500Y-94678500D01*
X244792500Y-94932500D02*
X242506500Y-94932500D01*
X242506500Y-93154500D02*
X244792500Y-93154500D01*
G04 #@! TO.C,D18*
X224409000Y-93916500D02*
X224409000Y-94043500D01*
X224282000Y-94170500D02*
X224409000Y-93916500D01*
X224536000Y-94043500D02*
X224282000Y-94170500D01*
X224409000Y-93916500D02*
X224536000Y-94043500D01*
X224282000Y-93789500D02*
X224409000Y-93916500D01*
X224282000Y-94170500D02*
X224282000Y-93789500D01*
X224282000Y-94297500D02*
X224282000Y-94170500D01*
X224663000Y-94043500D02*
X224282000Y-94297500D01*
X224282000Y-93662500D02*
X224663000Y-94043500D01*
X224155000Y-94424500D02*
X224282000Y-93662500D01*
X224790000Y-94043500D02*
X224155000Y-94424500D01*
X224282000Y-93535500D02*
X224790000Y-94043500D01*
X224155000Y-94551500D02*
X224282000Y-93535500D01*
X224917000Y-94043500D02*
X224155000Y-94551500D01*
X224155000Y-93408500D02*
X224917000Y-94043500D01*
X224155000Y-94424500D02*
X224155000Y-93408500D01*
X224155000Y-94551500D02*
X224155000Y-94424500D01*
X224155000Y-94678500D02*
X224155000Y-94551500D01*
X224917000Y-94043500D02*
X224155000Y-94678500D01*
X225679000Y-94932500D02*
X223393000Y-94932500D01*
X223393000Y-93154500D02*
X225679000Y-93154500D01*
G04 #@! TO.C,D17*
X205422500Y-93980000D02*
X205422500Y-94107000D01*
X205295500Y-94234000D02*
X205422500Y-93980000D01*
X205549500Y-94107000D02*
X205295500Y-94234000D01*
X205422500Y-93980000D02*
X205549500Y-94107000D01*
X205295500Y-93853000D02*
X205422500Y-93980000D01*
X205295500Y-94234000D02*
X205295500Y-93853000D01*
X205295500Y-94361000D02*
X205295500Y-94234000D01*
X205676500Y-94107000D02*
X205295500Y-94361000D01*
X205295500Y-93726000D02*
X205676500Y-94107000D01*
X205168500Y-94488000D02*
X205295500Y-93726000D01*
X205803500Y-94107000D02*
X205168500Y-94488000D01*
X205295500Y-93599000D02*
X205803500Y-94107000D01*
X205168500Y-94615000D02*
X205295500Y-93599000D01*
X205930500Y-94107000D02*
X205168500Y-94615000D01*
X205168500Y-93472000D02*
X205930500Y-94107000D01*
X205168500Y-94488000D02*
X205168500Y-93472000D01*
X205168500Y-94615000D02*
X205168500Y-94488000D01*
X205168500Y-94742000D02*
X205168500Y-94615000D01*
X205930500Y-94107000D02*
X205168500Y-94742000D01*
X206692500Y-94996000D02*
X204406500Y-94996000D01*
X204406500Y-93218000D02*
X206692500Y-93218000D01*
G04 #@! TO.C,D16*
X186372500Y-93980000D02*
X186372500Y-94107000D01*
X186245500Y-94234000D02*
X186372500Y-93980000D01*
X186499500Y-94107000D02*
X186245500Y-94234000D01*
X186372500Y-93980000D02*
X186499500Y-94107000D01*
X186245500Y-93853000D02*
X186372500Y-93980000D01*
X186245500Y-94234000D02*
X186245500Y-93853000D01*
X186245500Y-94361000D02*
X186245500Y-94234000D01*
X186626500Y-94107000D02*
X186245500Y-94361000D01*
X186245500Y-93726000D02*
X186626500Y-94107000D01*
X186118500Y-94488000D02*
X186245500Y-93726000D01*
X186753500Y-94107000D02*
X186118500Y-94488000D01*
X186245500Y-93599000D02*
X186753500Y-94107000D01*
X186118500Y-94615000D02*
X186245500Y-93599000D01*
X186880500Y-94107000D02*
X186118500Y-94615000D01*
X186118500Y-93472000D02*
X186880500Y-94107000D01*
X186118500Y-94488000D02*
X186118500Y-93472000D01*
X186118500Y-94615000D02*
X186118500Y-94488000D01*
X186118500Y-94742000D02*
X186118500Y-94615000D01*
X186880500Y-94107000D02*
X186118500Y-94742000D01*
X187642500Y-94996000D02*
X185356500Y-94996000D01*
X185356500Y-93218000D02*
X187642500Y-93218000D01*
G04 #@! TO.C,D15*
X243522500Y-74866500D02*
X243522500Y-74993500D01*
X243395500Y-75120500D02*
X243522500Y-74866500D01*
X243649500Y-74993500D02*
X243395500Y-75120500D01*
X243522500Y-74866500D02*
X243649500Y-74993500D01*
X243395500Y-74739500D02*
X243522500Y-74866500D01*
X243395500Y-75120500D02*
X243395500Y-74739500D01*
X243395500Y-75247500D02*
X243395500Y-75120500D01*
X243776500Y-74993500D02*
X243395500Y-75247500D01*
X243395500Y-74612500D02*
X243776500Y-74993500D01*
X243268500Y-75374500D02*
X243395500Y-74612500D01*
X243903500Y-74993500D02*
X243268500Y-75374500D01*
X243395500Y-74485500D02*
X243903500Y-74993500D01*
X243268500Y-75501500D02*
X243395500Y-74485500D01*
X244030500Y-74993500D02*
X243268500Y-75501500D01*
X243268500Y-74358500D02*
X244030500Y-74993500D01*
X243268500Y-75374500D02*
X243268500Y-74358500D01*
X243268500Y-75501500D02*
X243268500Y-75374500D01*
X243268500Y-75628500D02*
X243268500Y-75501500D01*
X244030500Y-74993500D02*
X243268500Y-75628500D01*
X244792500Y-75882500D02*
X242506500Y-75882500D01*
X242506500Y-74104500D02*
X244792500Y-74104500D01*
G04 #@! TO.C,D13*
X205422500Y-74930000D02*
X205422500Y-75057000D01*
X205295500Y-75184000D02*
X205422500Y-74930000D01*
X205549500Y-75057000D02*
X205295500Y-75184000D01*
X205422500Y-74930000D02*
X205549500Y-75057000D01*
X205295500Y-74803000D02*
X205422500Y-74930000D01*
X205295500Y-75184000D02*
X205295500Y-74803000D01*
X205295500Y-75311000D02*
X205295500Y-75184000D01*
X205676500Y-75057000D02*
X205295500Y-75311000D01*
X205295500Y-74676000D02*
X205676500Y-75057000D01*
X205168500Y-75438000D02*
X205295500Y-74676000D01*
X205803500Y-75057000D02*
X205168500Y-75438000D01*
X205295500Y-74549000D02*
X205803500Y-75057000D01*
X205168500Y-75565000D02*
X205295500Y-74549000D01*
X205930500Y-75057000D02*
X205168500Y-75565000D01*
X205168500Y-74422000D02*
X205930500Y-75057000D01*
X205168500Y-75438000D02*
X205168500Y-74422000D01*
X205168500Y-75565000D02*
X205168500Y-75438000D01*
X205168500Y-75692000D02*
X205168500Y-75565000D01*
X205930500Y-75057000D02*
X205168500Y-75692000D01*
X206692500Y-75946000D02*
X204406500Y-75946000D01*
X204406500Y-74168000D02*
X206692500Y-74168000D01*
G04 #@! TO.C,D12*
X186372500Y-74930000D02*
X186372500Y-75057000D01*
X186245500Y-75184000D02*
X186372500Y-74930000D01*
X186499500Y-75057000D02*
X186245500Y-75184000D01*
X186372500Y-74930000D02*
X186499500Y-75057000D01*
X186245500Y-74803000D02*
X186372500Y-74930000D01*
X186245500Y-75184000D02*
X186245500Y-74803000D01*
X186245500Y-75311000D02*
X186245500Y-75184000D01*
X186626500Y-75057000D02*
X186245500Y-75311000D01*
X186245500Y-74676000D02*
X186626500Y-75057000D01*
X186118500Y-75438000D02*
X186245500Y-74676000D01*
X186753500Y-75057000D02*
X186118500Y-75438000D01*
X186245500Y-74549000D02*
X186753500Y-75057000D01*
X186118500Y-75565000D02*
X186245500Y-74549000D01*
X186880500Y-75057000D02*
X186118500Y-75565000D01*
X186118500Y-74422000D02*
X186880500Y-75057000D01*
X186118500Y-75438000D02*
X186118500Y-74422000D01*
X186118500Y-75565000D02*
X186118500Y-75438000D01*
X186118500Y-75692000D02*
X186118500Y-75565000D01*
X186880500Y-75057000D02*
X186118500Y-75692000D01*
X187642500Y-75946000D02*
X185356500Y-75946000D01*
X185356500Y-74168000D02*
X187642500Y-74168000D01*
G04 #@! TO.C,D11*
X236918500Y-60198000D02*
X236791500Y-60198000D01*
X236664500Y-60071000D02*
X236918500Y-60198000D01*
X236791500Y-60325000D02*
X236664500Y-60071000D01*
X236918500Y-60198000D02*
X236791500Y-60325000D01*
X237045500Y-60071000D02*
X236918500Y-60198000D01*
X236664500Y-60071000D02*
X237045500Y-60071000D01*
X236537500Y-60071000D02*
X236664500Y-60071000D01*
X236791500Y-60452000D02*
X236537500Y-60071000D01*
X237172500Y-60071000D02*
X236791500Y-60452000D01*
X236410500Y-59944000D02*
X237172500Y-60071000D01*
X236791500Y-60579000D02*
X236410500Y-59944000D01*
X237299500Y-60071000D02*
X236791500Y-60579000D01*
X236283500Y-59944000D02*
X237299500Y-60071000D01*
X236791500Y-60706000D02*
X236283500Y-59944000D01*
X237426500Y-59944000D02*
X236791500Y-60706000D01*
X236410500Y-59944000D02*
X237426500Y-59944000D01*
X236283500Y-59944000D02*
X236410500Y-59944000D01*
X236156500Y-59944000D02*
X236283500Y-59944000D01*
X236791500Y-60706000D02*
X236156500Y-59944000D01*
X235902500Y-61468000D02*
X235902500Y-59182000D01*
X237680500Y-59182000D02*
X237680500Y-61468000D01*
G04 #@! TO.C,D10*
X234886500Y-60198000D02*
X234759500Y-60198000D01*
X234632500Y-60071000D02*
X234886500Y-60198000D01*
X234759500Y-60325000D02*
X234632500Y-60071000D01*
X234886500Y-60198000D02*
X234759500Y-60325000D01*
X235013500Y-60071000D02*
X234886500Y-60198000D01*
X234632500Y-60071000D02*
X235013500Y-60071000D01*
X234505500Y-60071000D02*
X234632500Y-60071000D01*
X234759500Y-60452000D02*
X234505500Y-60071000D01*
X235140500Y-60071000D02*
X234759500Y-60452000D01*
X234378500Y-59944000D02*
X235140500Y-60071000D01*
X234759500Y-60579000D02*
X234378500Y-59944000D01*
X235267500Y-60071000D02*
X234759500Y-60579000D01*
X234251500Y-59944000D02*
X235267500Y-60071000D01*
X234759500Y-60706000D02*
X234251500Y-59944000D01*
X235394500Y-59944000D02*
X234759500Y-60706000D01*
X234378500Y-59944000D02*
X235394500Y-59944000D01*
X234251500Y-59944000D02*
X234378500Y-59944000D01*
X234124500Y-59944000D02*
X234251500Y-59944000D01*
X234759500Y-60706000D02*
X234124500Y-59944000D01*
X233870500Y-61468000D02*
X233870500Y-59182000D01*
X235648500Y-59182000D02*
X235648500Y-61468000D01*
G04 #@! TO.C,D9*
X198691500Y-60261500D02*
X198564500Y-60261500D01*
X198437500Y-60134500D02*
X198691500Y-60261500D01*
X198564500Y-60388500D02*
X198437500Y-60134500D01*
X198691500Y-60261500D02*
X198564500Y-60388500D01*
X198818500Y-60134500D02*
X198691500Y-60261500D01*
X198437500Y-60134500D02*
X198818500Y-60134500D01*
X198310500Y-60134500D02*
X198437500Y-60134500D01*
X198564500Y-60515500D02*
X198310500Y-60134500D01*
X198945500Y-60134500D02*
X198564500Y-60515500D01*
X198183500Y-60007500D02*
X198945500Y-60134500D01*
X198564500Y-60642500D02*
X198183500Y-60007500D01*
X199072500Y-60134500D02*
X198564500Y-60642500D01*
X198056500Y-60007500D02*
X199072500Y-60134500D01*
X198564500Y-60769500D02*
X198056500Y-60007500D01*
X199199500Y-60007500D02*
X198564500Y-60769500D01*
X198183500Y-60007500D02*
X199199500Y-60007500D01*
X198056500Y-60007500D02*
X198183500Y-60007500D01*
X197929500Y-60007500D02*
X198056500Y-60007500D01*
X198564500Y-60769500D02*
X197929500Y-60007500D01*
X197675500Y-61531500D02*
X197675500Y-59245500D01*
X199453500Y-59245500D02*
X199453500Y-61531500D01*
G04 #@! TO.C,D8*
X196913500Y-60261500D02*
X196786500Y-60261500D01*
X196659500Y-60134500D02*
X196913500Y-60261500D01*
X196786500Y-60388500D02*
X196659500Y-60134500D01*
X196913500Y-60261500D02*
X196786500Y-60388500D01*
X197040500Y-60134500D02*
X196913500Y-60261500D01*
X196659500Y-60134500D02*
X197040500Y-60134500D01*
X196532500Y-60134500D02*
X196659500Y-60134500D01*
X196786500Y-60515500D02*
X196532500Y-60134500D01*
X197167500Y-60134500D02*
X196786500Y-60515500D01*
X196405500Y-60007500D02*
X197167500Y-60134500D01*
X196786500Y-60642500D02*
X196405500Y-60007500D01*
X197294500Y-60134500D02*
X196786500Y-60642500D01*
X196278500Y-60007500D02*
X197294500Y-60134500D01*
X196786500Y-60769500D02*
X196278500Y-60007500D01*
X197421500Y-60007500D02*
X196786500Y-60769500D01*
X196405500Y-60007500D02*
X197421500Y-60007500D01*
X196278500Y-60007500D02*
X196405500Y-60007500D01*
X196151500Y-60007500D02*
X196278500Y-60007500D01*
X196786500Y-60769500D02*
X196151500Y-60007500D01*
X195897500Y-61531500D02*
X195897500Y-59245500D01*
X197675500Y-59245500D02*
X197675500Y-61531500D01*
D15*
G04 #@! TO.C,D1*
X254767100Y-54235800D02*
X254767100Y-53085800D01*
X247467100Y-54235800D02*
X254767100Y-54235800D01*
X247467100Y-48735800D02*
X254767100Y-48735800D01*
G04 #@! TO.C,D2*
X238831100Y-48799300D02*
X246131100Y-48799300D01*
X238831100Y-54299300D02*
X246131100Y-54299300D01*
X246131100Y-54299300D02*
X246131100Y-53149300D01*
G04 #@! TO.C,D3*
X177462200Y-61500200D02*
X177462200Y-60350200D01*
X170162200Y-61500200D02*
X177462200Y-61500200D01*
X170162200Y-56000200D02*
X177462200Y-56000200D01*
G04 #@! TO.C,D4*
X170162200Y-63975800D02*
X177462200Y-63975800D01*
X170162200Y-69475800D02*
X177462200Y-69475800D01*
X177462200Y-69475800D02*
X177462200Y-68325800D01*
G04 #@! TO.C,D5*
X177474900Y-78137200D02*
X177474900Y-76987200D01*
X170174900Y-78137200D02*
X177474900Y-78137200D01*
X170174900Y-72637200D02*
X177474900Y-72637200D01*
G04 #@! TO.C,D7*
X170174900Y-90163200D02*
X177474900Y-90163200D01*
X170174900Y-95663200D02*
X177474900Y-95663200D01*
X177474900Y-95663200D02*
X177474900Y-94513200D01*
G04 #@! TO.C,SPKR1*
X229416300Y-48231100D02*
X232076300Y-48231100D01*
X229416300Y-45631100D02*
X229416300Y-48231100D01*
X232076300Y-45631100D02*
X232076300Y-48231100D01*
X229416300Y-45631100D02*
X232076300Y-45631100D01*
X229416300Y-44361100D02*
X229416300Y-43031100D01*
X229416300Y-43031100D02*
X230746300Y-43031100D01*
G04 #@! TO.C,SW1*
X176315000Y-52708300D02*
X176315000Y-48208300D01*
X172315000Y-53958300D02*
X173815000Y-53958300D01*
X169815000Y-48208300D02*
X169815000Y-52708300D01*
X173815000Y-46958300D02*
X172315000Y-46958300D01*
G04 #@! TO.C,SW2*
X188174000Y-65263000D02*
X188174000Y-64263000D01*
X187674000Y-64763000D02*
X188674000Y-64763000D01*
X191674000Y-58663000D02*
X194074000Y-58663000D01*
X186874000Y-58663000D02*
X189474000Y-58663000D01*
X182274000Y-58663000D02*
X184674000Y-58663000D01*
X184074000Y-71963000D02*
X184374000Y-72263000D01*
X184074000Y-72563000D02*
X184074000Y-71963000D01*
X184374000Y-72263000D02*
X184074000Y-72563000D01*
X182274000Y-70863000D02*
X194074000Y-70863000D01*
X182274000Y-66763000D02*
X182274000Y-70863000D01*
X194074000Y-66763000D02*
X194074000Y-70863000D01*
X194074000Y-58663000D02*
X194074000Y-62763000D01*
X182274000Y-62763000D02*
X182274000Y-58663000D01*
X191174000Y-64763000D02*
G75*
G03X191174000Y-64763000I-3000000J0D01*
G01*
G04 #@! TO.C,SW3*
X210224000Y-64763000D02*
G75*
G03X210224000Y-64763000I-3000000J0D01*
G01*
X201324000Y-62763000D02*
X201324000Y-58663000D01*
X213124000Y-58663000D02*
X213124000Y-62763000D01*
X213124000Y-66763000D02*
X213124000Y-70863000D01*
X201324000Y-66763000D02*
X201324000Y-70863000D01*
X201324000Y-70863000D02*
X213124000Y-70863000D01*
X203424000Y-72263000D02*
X203124000Y-72563000D01*
X203124000Y-72563000D02*
X203124000Y-71963000D01*
X203124000Y-71963000D02*
X203424000Y-72263000D01*
X201324000Y-58663000D02*
X203724000Y-58663000D01*
X205924000Y-58663000D02*
X208524000Y-58663000D01*
X210724000Y-58663000D02*
X213124000Y-58663000D01*
X206724000Y-64763000D02*
X207724000Y-64763000D01*
X207224000Y-65263000D02*
X207224000Y-64263000D01*
G04 #@! TO.C,SW4*
X226274000Y-65263000D02*
X226274000Y-64263000D01*
X225774000Y-64763000D02*
X226774000Y-64763000D01*
X229774000Y-58663000D02*
X232174000Y-58663000D01*
X224974000Y-58663000D02*
X227574000Y-58663000D01*
X220374000Y-58663000D02*
X222774000Y-58663000D01*
X222174000Y-71963000D02*
X222474000Y-72263000D01*
X222174000Y-72563000D02*
X222174000Y-71963000D01*
X222474000Y-72263000D02*
X222174000Y-72563000D01*
X220374000Y-70863000D02*
X232174000Y-70863000D01*
X220374000Y-66763000D02*
X220374000Y-70863000D01*
X232174000Y-66763000D02*
X232174000Y-70863000D01*
X232174000Y-58663000D02*
X232174000Y-62763000D01*
X220374000Y-62763000D02*
X220374000Y-58663000D01*
X229274000Y-64763000D02*
G75*
G03X229274000Y-64763000I-3000000J0D01*
G01*
G04 #@! TO.C,SW5*
X248260500Y-64763000D02*
G75*
G03X248260500Y-64763000I-3000000J0D01*
G01*
X239360500Y-62763000D02*
X239360500Y-58663000D01*
X251160500Y-58663000D02*
X251160500Y-62763000D01*
X251160500Y-66763000D02*
X251160500Y-70863000D01*
X239360500Y-66763000D02*
X239360500Y-70863000D01*
X239360500Y-70863000D02*
X251160500Y-70863000D01*
X241460500Y-72263000D02*
X241160500Y-72563000D01*
X241160500Y-72563000D02*
X241160500Y-71963000D01*
X241160500Y-71963000D02*
X241460500Y-72263000D01*
X239360500Y-58663000D02*
X241760500Y-58663000D01*
X243960500Y-58663000D02*
X246560500Y-58663000D01*
X248760500Y-58663000D02*
X251160500Y-58663000D01*
X244760500Y-64763000D02*
X245760500Y-64763000D01*
X245260500Y-65263000D02*
X245260500Y-64263000D01*
D17*
G04 #@! TO.C,R1*
X194652900Y-55270400D02*
X194652900Y-52476400D01*
X194652900Y-52476400D02*
X195922900Y-52476400D01*
X195922900Y-52476400D02*
X195922900Y-55270400D01*
X195922900Y-55270400D02*
X194652900Y-55270400D01*
D15*
G04 #@! TO.C,U1*
X206161200Y-44904000D02*
X206886200Y-44904000D01*
X206886200Y-44904000D02*
X206886200Y-45629000D01*
X200391200Y-52124000D02*
X199666200Y-52124000D01*
X199666200Y-52124000D02*
X199666200Y-51399000D01*
X206161200Y-52124000D02*
X206886200Y-52124000D01*
X206886200Y-52124000D02*
X206886200Y-51399000D01*
X200391200Y-44904000D02*
X199666200Y-44904000D01*
G04 #@! TO.C,C1*
X195260500Y-46174879D02*
X195260500Y-45849321D01*
X196280500Y-46174879D02*
X196280500Y-45849321D01*
G04 #@! TO.C,C2*
X192136300Y-45849321D02*
X192136300Y-46174879D01*
X193156300Y-45849321D02*
X193156300Y-46174879D01*
G04 #@! TO.C,C3*
X194718400Y-45849321D02*
X194718400Y-46174879D01*
X193698400Y-45849321D02*
X193698400Y-46174879D01*
D18*
G04 #@! TO.C,REF\002A\002A*
G36*
X174723614Y-96744831D02*
X174807435Y-97189455D01*
X175116720Y-97316953D01*
X175426006Y-97444451D01*
X175797046Y-97192146D01*
X175900957Y-97121896D01*
X175994887Y-97059172D01*
X176074452Y-97006838D01*
X176135270Y-96967757D01*
X176172957Y-96944793D01*
X176183221Y-96939842D01*
X176201710Y-96952576D01*
X176241220Y-96987782D01*
X176297322Y-97040962D01*
X176365587Y-97107618D01*
X176441586Y-97183254D01*
X176520892Y-97263372D01*
X176599075Y-97343474D01*
X176671707Y-97419064D01*
X176734359Y-97485645D01*
X176782603Y-97538718D01*
X176812010Y-97573787D01*
X176819041Y-97585523D01*
X176808923Y-97607160D01*
X176780559Y-97654562D01*
X176736929Y-97723093D01*
X176681018Y-97808115D01*
X176615806Y-97904993D01*
X176578019Y-97960250D01*
X176509143Y-98061148D01*
X176447940Y-98152199D01*
X176397378Y-98228870D01*
X176360428Y-98286628D01*
X176340058Y-98320943D01*
X176336997Y-98328154D01*
X176343936Y-98348648D01*
X176362851Y-98396413D01*
X176390887Y-98464732D01*
X176425191Y-98546889D01*
X176462909Y-98636170D01*
X176501187Y-98725858D01*
X176537170Y-98809238D01*
X176568006Y-98879594D01*
X176590839Y-98930210D01*
X176602817Y-98954371D01*
X176603524Y-98955322D01*
X176622331Y-98959936D01*
X176672418Y-98970228D01*
X176748593Y-98985187D01*
X176845665Y-99003801D01*
X176958443Y-99025059D01*
X177024242Y-99037318D01*
X177144750Y-99060262D01*
X177253597Y-99082095D01*
X177345276Y-99101622D01*
X177414281Y-99117648D01*
X177455104Y-99128979D01*
X177463311Y-99132574D01*
X177471348Y-99156906D01*
X177477833Y-99211859D01*
X177482770Y-99291008D01*
X177486164Y-99387926D01*
X177488018Y-99496187D01*
X177488338Y-99609365D01*
X177487127Y-99721035D01*
X177484390Y-99824768D01*
X177480131Y-99914141D01*
X177474355Y-99982726D01*
X177467067Y-100024097D01*
X177462695Y-100032710D01*
X177436564Y-100043033D01*
X177381193Y-100057792D01*
X177303907Y-100075252D01*
X177212030Y-100093680D01*
X177179958Y-100099641D01*
X177025324Y-100127966D01*
X176903175Y-100150776D01*
X176809473Y-100168980D01*
X176740184Y-100183483D01*
X176691271Y-100195192D01*
X176658697Y-100205015D01*
X176638428Y-100213856D01*
X176626426Y-100222624D01*
X176624747Y-100224357D01*
X176607984Y-100252271D01*
X176582414Y-100306595D01*
X176550588Y-100380677D01*
X176515060Y-100467865D01*
X176478383Y-100561508D01*
X176443111Y-100654952D01*
X176411796Y-100741547D01*
X176386993Y-100814640D01*
X176371254Y-100867578D01*
X176367132Y-100893711D01*
X176367476Y-100894626D01*
X176381441Y-100915986D01*
X176413122Y-100962984D01*
X176459191Y-101030727D01*
X176516318Y-101114323D01*
X176581173Y-101208882D01*
X176599643Y-101235754D01*
X176665499Y-101333175D01*
X176723450Y-101422063D01*
X176770338Y-101497312D01*
X176803007Y-101553820D01*
X176818300Y-101586481D01*
X176819041Y-101590493D01*
X176806192Y-101611584D01*
X176770688Y-101653364D01*
X176717093Y-101711345D01*
X176649971Y-101781035D01*
X176573887Y-101857945D01*
X176493404Y-101937583D01*
X176413087Y-102015461D01*
X176337499Y-102087086D01*
X176271205Y-102147970D01*
X176218769Y-102193621D01*
X176184755Y-102219550D01*
X176175345Y-102223783D01*
X176153443Y-102213812D01*
X176108600Y-102186920D01*
X176048121Y-102147636D01*
X176001589Y-102116017D01*
X175917275Y-102057998D01*
X175817426Y-101989684D01*
X175717273Y-101921479D01*
X175663427Y-101884975D01*
X175481171Y-101761700D01*
X175328181Y-101844420D01*
X175258482Y-101880659D01*
X175199214Y-101908826D01*
X175159111Y-101924891D01*
X175148903Y-101927126D01*
X175136629Y-101910622D01*
X175112413Y-101863982D01*
X175078063Y-101791509D01*
X175035388Y-101697506D01*
X174986194Y-101586274D01*
X174932290Y-101462115D01*
X174875484Y-101329332D01*
X174817582Y-101192227D01*
X174760393Y-101055102D01*
X174705724Y-100922258D01*
X174655384Y-100797998D01*
X174611180Y-100686625D01*
X174574919Y-100592439D01*
X174548409Y-100519744D01*
X174533458Y-100472841D01*
X174531054Y-100456733D01*
X174550111Y-100436186D01*
X174591836Y-100402833D01*
X174647506Y-100363602D01*
X174652178Y-100360499D01*
X174796064Y-100245323D01*
X174912083Y-100110953D01*
X174999230Y-99961684D01*
X175056499Y-99801813D01*
X175082886Y-99635637D01*
X175077385Y-99467452D01*
X175038990Y-99301555D01*
X174966695Y-99142242D01*
X174945426Y-99107387D01*
X174834796Y-98966637D01*
X174704102Y-98853614D01*
X174557864Y-98768903D01*
X174400608Y-98713094D01*
X174236857Y-98686774D01*
X174071133Y-98690530D01*
X173907962Y-98724950D01*
X173751865Y-98790623D01*
X173607367Y-98888135D01*
X173562669Y-98927713D01*
X173448912Y-99051603D01*
X173366018Y-99182024D01*
X173309156Y-99328215D01*
X173277487Y-99472988D01*
X173269669Y-99635760D01*
X173295738Y-99799340D01*
X173353045Y-99958198D01*
X173438944Y-100106806D01*
X173550786Y-100239635D01*
X173685923Y-100351156D01*
X173703683Y-100362911D01*
X173759950Y-100401408D01*
X173802723Y-100434763D01*
X173823172Y-100456060D01*
X173823469Y-100456733D01*
X173819079Y-100479771D01*
X173801676Y-100532057D01*
X173773068Y-100609290D01*
X173735065Y-100707168D01*
X173689474Y-100821391D01*
X173638103Y-100947658D01*
X173582762Y-101081667D01*
X173525258Y-101219118D01*
X173467401Y-101355708D01*
X173410998Y-101487137D01*
X173357858Y-101609105D01*
X173309790Y-101717309D01*
X173268601Y-101807449D01*
X173236101Y-101875223D01*
X173214097Y-101916330D01*
X173205236Y-101927126D01*
X173178160Y-101918719D01*
X173127497Y-101896172D01*
X173061983Y-101863513D01*
X173025959Y-101844420D01*
X172872968Y-101761700D01*
X172690712Y-101884975D01*
X172597675Y-101948128D01*
X172495815Y-102017627D01*
X172400362Y-102083065D01*
X172352550Y-102116017D01*
X172285305Y-102161173D01*
X172228364Y-102196957D01*
X172189154Y-102218838D01*
X172176419Y-102223463D01*
X172157883Y-102210985D01*
X172116859Y-102176152D01*
X172057325Y-102122578D01*
X171983258Y-102053883D01*
X171898635Y-101973681D01*
X171845115Y-101922186D01*
X171751481Y-101830186D01*
X171670559Y-101747899D01*
X171605623Y-101678845D01*
X171559942Y-101626544D01*
X171536789Y-101594516D01*
X171534568Y-101588016D01*
X171544876Y-101563294D01*
X171573361Y-101513305D01*
X171616863Y-101443112D01*
X171672223Y-101357775D01*
X171736280Y-101262356D01*
X171754497Y-101235754D01*
X171820873Y-101139067D01*
X171880422Y-101052017D01*
X171929816Y-100979495D01*
X171965725Y-100926393D01*
X171984819Y-100897603D01*
X171986664Y-100894626D01*
X171983905Y-100871682D01*
X171969262Y-100821236D01*
X171945287Y-100749941D01*
X171914534Y-100664447D01*
X171879556Y-100571407D01*
X171842907Y-100477474D01*
X171807139Y-100389299D01*
X171774806Y-100313534D01*
X171748462Y-100256831D01*
X171730658Y-100225843D01*
X171729393Y-100224357D01*
X171718506Y-100215501D01*
X171700118Y-100206743D01*
X171670194Y-100197177D01*
X171624697Y-100185896D01*
X171559591Y-100171993D01*
X171470839Y-100154563D01*
X171354407Y-100132698D01*
X171206258Y-100105491D01*
X171174182Y-100099641D01*
X171079114Y-100081274D01*
X170996235Y-100063305D01*
X170932870Y-100047469D01*
X170896342Y-100035500D01*
X170891444Y-100032710D01*
X170883373Y-100007972D01*
X170876813Y-99952690D01*
X170871767Y-99873289D01*
X170868241Y-99776196D01*
X170866239Y-99667838D01*
X170865764Y-99554640D01*
X170866823Y-99443028D01*
X170869418Y-99339429D01*
X170873554Y-99250268D01*
X170879237Y-99181972D01*
X170886469Y-99140966D01*
X170890829Y-99132574D01*
X170915102Y-99124108D01*
X170970374Y-99110335D01*
X171051138Y-99092450D01*
X171151888Y-99071648D01*
X171267117Y-99049123D01*
X171329898Y-99037318D01*
X171449013Y-99015051D01*
X171555235Y-98994879D01*
X171643373Y-98977815D01*
X171708234Y-98964869D01*
X171744626Y-98957055D01*
X171750616Y-98955322D01*
X171760739Y-98935790D01*
X171782138Y-98888743D01*
X171811961Y-98820903D01*
X171847355Y-98738991D01*
X171885468Y-98649728D01*
X171923447Y-98559835D01*
X171958440Y-98476035D01*
X171987594Y-98405047D01*
X172008057Y-98353594D01*
X172016977Y-98328397D01*
X172017143Y-98327296D01*
X172007031Y-98307419D01*
X171978683Y-98261677D01*
X171935077Y-98194617D01*
X171879194Y-98110784D01*
X171814013Y-98014726D01*
X171776121Y-97959550D01*
X171707075Y-97858381D01*
X171645750Y-97766530D01*
X171595137Y-97688644D01*
X171558229Y-97629369D01*
X171538018Y-97593351D01*
X171535099Y-97585277D01*
X171547647Y-97566484D01*
X171582337Y-97526357D01*
X171634737Y-97469393D01*
X171700416Y-97400085D01*
X171774944Y-97322931D01*
X171853887Y-97242425D01*
X171932817Y-97163063D01*
X172007300Y-97089340D01*
X172072906Y-97025752D01*
X172125204Y-96976794D01*
X172159761Y-96946961D01*
X172171322Y-96939842D01*
X172190146Y-96949853D01*
X172235169Y-96977978D01*
X172302013Y-97021354D01*
X172386301Y-97077118D01*
X172483656Y-97142406D01*
X172557093Y-97192146D01*
X172928133Y-97444451D01*
X173546705Y-97189455D01*
X173630525Y-96744831D01*
X173714346Y-96300207D01*
X174639794Y-96300207D01*
X174723614Y-96744831D01*
X174723614Y-96744831D01*
G37*
X174723614Y-96744831D02*
X174807435Y-97189455D01*
X175116720Y-97316953D01*
X175426006Y-97444451D01*
X175797046Y-97192146D01*
X175900957Y-97121896D01*
X175994887Y-97059172D01*
X176074452Y-97006838D01*
X176135270Y-96967757D01*
X176172957Y-96944793D01*
X176183221Y-96939842D01*
X176201710Y-96952576D01*
X176241220Y-96987782D01*
X176297322Y-97040962D01*
X176365587Y-97107618D01*
X176441586Y-97183254D01*
X176520892Y-97263372D01*
X176599075Y-97343474D01*
X176671707Y-97419064D01*
X176734359Y-97485645D01*
X176782603Y-97538718D01*
X176812010Y-97573787D01*
X176819041Y-97585523D01*
X176808923Y-97607160D01*
X176780559Y-97654562D01*
X176736929Y-97723093D01*
X176681018Y-97808115D01*
X176615806Y-97904993D01*
X176578019Y-97960250D01*
X176509143Y-98061148D01*
X176447940Y-98152199D01*
X176397378Y-98228870D01*
X176360428Y-98286628D01*
X176340058Y-98320943D01*
X176336997Y-98328154D01*
X176343936Y-98348648D01*
X176362851Y-98396413D01*
X176390887Y-98464732D01*
X176425191Y-98546889D01*
X176462909Y-98636170D01*
X176501187Y-98725858D01*
X176537170Y-98809238D01*
X176568006Y-98879594D01*
X176590839Y-98930210D01*
X176602817Y-98954371D01*
X176603524Y-98955322D01*
X176622331Y-98959936D01*
X176672418Y-98970228D01*
X176748593Y-98985187D01*
X176845665Y-99003801D01*
X176958443Y-99025059D01*
X177024242Y-99037318D01*
X177144750Y-99060262D01*
X177253597Y-99082095D01*
X177345276Y-99101622D01*
X177414281Y-99117648D01*
X177455104Y-99128979D01*
X177463311Y-99132574D01*
X177471348Y-99156906D01*
X177477833Y-99211859D01*
X177482770Y-99291008D01*
X177486164Y-99387926D01*
X177488018Y-99496187D01*
X177488338Y-99609365D01*
X177487127Y-99721035D01*
X177484390Y-99824768D01*
X177480131Y-99914141D01*
X177474355Y-99982726D01*
X177467067Y-100024097D01*
X177462695Y-100032710D01*
X177436564Y-100043033D01*
X177381193Y-100057792D01*
X177303907Y-100075252D01*
X177212030Y-100093680D01*
X177179958Y-100099641D01*
X177025324Y-100127966D01*
X176903175Y-100150776D01*
X176809473Y-100168980D01*
X176740184Y-100183483D01*
X176691271Y-100195192D01*
X176658697Y-100205015D01*
X176638428Y-100213856D01*
X176626426Y-100222624D01*
X176624747Y-100224357D01*
X176607984Y-100252271D01*
X176582414Y-100306595D01*
X176550588Y-100380677D01*
X176515060Y-100467865D01*
X176478383Y-100561508D01*
X176443111Y-100654952D01*
X176411796Y-100741547D01*
X176386993Y-100814640D01*
X176371254Y-100867578D01*
X176367132Y-100893711D01*
X176367476Y-100894626D01*
X176381441Y-100915986D01*
X176413122Y-100962984D01*
X176459191Y-101030727D01*
X176516318Y-101114323D01*
X176581173Y-101208882D01*
X176599643Y-101235754D01*
X176665499Y-101333175D01*
X176723450Y-101422063D01*
X176770338Y-101497312D01*
X176803007Y-101553820D01*
X176818300Y-101586481D01*
X176819041Y-101590493D01*
X176806192Y-101611584D01*
X176770688Y-101653364D01*
X176717093Y-101711345D01*
X176649971Y-101781035D01*
X176573887Y-101857945D01*
X176493404Y-101937583D01*
X176413087Y-102015461D01*
X176337499Y-102087086D01*
X176271205Y-102147970D01*
X176218769Y-102193621D01*
X176184755Y-102219550D01*
X176175345Y-102223783D01*
X176153443Y-102213812D01*
X176108600Y-102186920D01*
X176048121Y-102147636D01*
X176001589Y-102116017D01*
X175917275Y-102057998D01*
X175817426Y-101989684D01*
X175717273Y-101921479D01*
X175663427Y-101884975D01*
X175481171Y-101761700D01*
X175328181Y-101844420D01*
X175258482Y-101880659D01*
X175199214Y-101908826D01*
X175159111Y-101924891D01*
X175148903Y-101927126D01*
X175136629Y-101910622D01*
X175112413Y-101863982D01*
X175078063Y-101791509D01*
X175035388Y-101697506D01*
X174986194Y-101586274D01*
X174932290Y-101462115D01*
X174875484Y-101329332D01*
X174817582Y-101192227D01*
X174760393Y-101055102D01*
X174705724Y-100922258D01*
X174655384Y-100797998D01*
X174611180Y-100686625D01*
X174574919Y-100592439D01*
X174548409Y-100519744D01*
X174533458Y-100472841D01*
X174531054Y-100456733D01*
X174550111Y-100436186D01*
X174591836Y-100402833D01*
X174647506Y-100363602D01*
X174652178Y-100360499D01*
X174796064Y-100245323D01*
X174912083Y-100110953D01*
X174999230Y-99961684D01*
X175056499Y-99801813D01*
X175082886Y-99635637D01*
X175077385Y-99467452D01*
X175038990Y-99301555D01*
X174966695Y-99142242D01*
X174945426Y-99107387D01*
X174834796Y-98966637D01*
X174704102Y-98853614D01*
X174557864Y-98768903D01*
X174400608Y-98713094D01*
X174236857Y-98686774D01*
X174071133Y-98690530D01*
X173907962Y-98724950D01*
X173751865Y-98790623D01*
X173607367Y-98888135D01*
X173562669Y-98927713D01*
X173448912Y-99051603D01*
X173366018Y-99182024D01*
X173309156Y-99328215D01*
X173277487Y-99472988D01*
X173269669Y-99635760D01*
X173295738Y-99799340D01*
X173353045Y-99958198D01*
X173438944Y-100106806D01*
X173550786Y-100239635D01*
X173685923Y-100351156D01*
X173703683Y-100362911D01*
X173759950Y-100401408D01*
X173802723Y-100434763D01*
X173823172Y-100456060D01*
X173823469Y-100456733D01*
X173819079Y-100479771D01*
X173801676Y-100532057D01*
X173773068Y-100609290D01*
X173735065Y-100707168D01*
X173689474Y-100821391D01*
X173638103Y-100947658D01*
X173582762Y-101081667D01*
X173525258Y-101219118D01*
X173467401Y-101355708D01*
X173410998Y-101487137D01*
X173357858Y-101609105D01*
X173309790Y-101717309D01*
X173268601Y-101807449D01*
X173236101Y-101875223D01*
X173214097Y-101916330D01*
X173205236Y-101927126D01*
X173178160Y-101918719D01*
X173127497Y-101896172D01*
X173061983Y-101863513D01*
X173025959Y-101844420D01*
X172872968Y-101761700D01*
X172690712Y-101884975D01*
X172597675Y-101948128D01*
X172495815Y-102017627D01*
X172400362Y-102083065D01*
X172352550Y-102116017D01*
X172285305Y-102161173D01*
X172228364Y-102196957D01*
X172189154Y-102218838D01*
X172176419Y-102223463D01*
X172157883Y-102210985D01*
X172116859Y-102176152D01*
X172057325Y-102122578D01*
X171983258Y-102053883D01*
X171898635Y-101973681D01*
X171845115Y-101922186D01*
X171751481Y-101830186D01*
X171670559Y-101747899D01*
X171605623Y-101678845D01*
X171559942Y-101626544D01*
X171536789Y-101594516D01*
X171534568Y-101588016D01*
X171544876Y-101563294D01*
X171573361Y-101513305D01*
X171616863Y-101443112D01*
X171672223Y-101357775D01*
X171736280Y-101262356D01*
X171754497Y-101235754D01*
X171820873Y-101139067D01*
X171880422Y-101052017D01*
X171929816Y-100979495D01*
X171965725Y-100926393D01*
X171984819Y-100897603D01*
X171986664Y-100894626D01*
X171983905Y-100871682D01*
X171969262Y-100821236D01*
X171945287Y-100749941D01*
X171914534Y-100664447D01*
X171879556Y-100571407D01*
X171842907Y-100477474D01*
X171807139Y-100389299D01*
X171774806Y-100313534D01*
X171748462Y-100256831D01*
X171730658Y-100225843D01*
X171729393Y-100224357D01*
X171718506Y-100215501D01*
X171700118Y-100206743D01*
X171670194Y-100197177D01*
X171624697Y-100185896D01*
X171559591Y-100171993D01*
X171470839Y-100154563D01*
X171354407Y-100132698D01*
X171206258Y-100105491D01*
X171174182Y-100099641D01*
X171079114Y-100081274D01*
X170996235Y-100063305D01*
X170932870Y-100047469D01*
X170896342Y-100035500D01*
X170891444Y-100032710D01*
X170883373Y-100007972D01*
X170876813Y-99952690D01*
X170871767Y-99873289D01*
X170868241Y-99776196D01*
X170866239Y-99667838D01*
X170865764Y-99554640D01*
X170866823Y-99443028D01*
X170869418Y-99339429D01*
X170873554Y-99250268D01*
X170879237Y-99181972D01*
X170886469Y-99140966D01*
X170890829Y-99132574D01*
X170915102Y-99124108D01*
X170970374Y-99110335D01*
X171051138Y-99092450D01*
X171151888Y-99071648D01*
X171267117Y-99049123D01*
X171329898Y-99037318D01*
X171449013Y-99015051D01*
X171555235Y-98994879D01*
X171643373Y-98977815D01*
X171708234Y-98964869D01*
X171744626Y-98957055D01*
X171750616Y-98955322D01*
X171760739Y-98935790D01*
X171782138Y-98888743D01*
X171811961Y-98820903D01*
X171847355Y-98738991D01*
X171885468Y-98649728D01*
X171923447Y-98559835D01*
X171958440Y-98476035D01*
X171987594Y-98405047D01*
X172008057Y-98353594D01*
X172016977Y-98328397D01*
X172017143Y-98327296D01*
X172007031Y-98307419D01*
X171978683Y-98261677D01*
X171935077Y-98194617D01*
X171879194Y-98110784D01*
X171814013Y-98014726D01*
X171776121Y-97959550D01*
X171707075Y-97858381D01*
X171645750Y-97766530D01*
X171595137Y-97688644D01*
X171558229Y-97629369D01*
X171538018Y-97593351D01*
X171535099Y-97585277D01*
X171547647Y-97566484D01*
X171582337Y-97526357D01*
X171634737Y-97469393D01*
X171700416Y-97400085D01*
X171774944Y-97322931D01*
X171853887Y-97242425D01*
X171932817Y-97163063D01*
X172007300Y-97089340D01*
X172072906Y-97025752D01*
X172125204Y-96976794D01*
X172159761Y-96946961D01*
X172171322Y-96939842D01*
X172190146Y-96949853D01*
X172235169Y-96977978D01*
X172302013Y-97021354D01*
X172386301Y-97077118D01*
X172483656Y-97142406D01*
X172557093Y-97192146D01*
X172928133Y-97444451D01*
X173546705Y-97189455D01*
X173630525Y-96744831D01*
X173714346Y-96300207D01*
X174639794Y-96300207D01*
X174723614Y-96744831D01*
D15*
G04 #@! TO.C,J1*
X235686600Y-45653000D02*
X235686600Y-42993000D01*
X235686600Y-45653000D02*
X250986600Y-45653000D01*
X250986600Y-45653000D02*
X250986600Y-42993000D01*
X235686600Y-42993000D02*
X250986600Y-42993000D01*
X233086600Y-42993000D02*
X234416600Y-42993000D01*
X233086600Y-44323000D02*
X233086600Y-42993000D01*
D14*
G04 #@! TO.C,USB1*
X191861200Y-41948100D02*
X189361200Y-41948100D01*
X177861200Y-41948100D02*
X180361200Y-41948100D01*
X180361200Y-48048100D02*
X189361200Y-48048100D01*
X180361200Y-48048100D02*
X180361200Y-41948100D01*
X189361200Y-48048100D02*
X189361200Y-41948100D01*
D17*
G04 #@! TO.C,Y1*
X194691000Y-49428400D02*
X195199000Y-49428400D01*
X193421000Y-49428400D02*
X192913000Y-49428400D01*
X194691000Y-49428400D02*
X194691000Y-50698400D01*
X194691000Y-48158400D02*
X194691000Y-49428400D01*
X193421000Y-49428400D02*
X193421000Y-50698400D01*
X193421000Y-48158400D02*
X193421000Y-49428400D01*
X194310000Y-48412400D02*
X193802000Y-48412400D01*
X194310000Y-50444400D02*
X194310000Y-48412400D01*
X193802000Y-50444400D02*
X194310000Y-50444400D01*
X193802000Y-48412400D02*
X193802000Y-50444400D01*
X196555360Y-47830740D02*
X191556640Y-47830740D01*
X196555360Y-48229520D02*
X196555360Y-47830740D01*
X196555360Y-51026060D02*
X196555360Y-50627280D01*
X191556640Y-51026060D02*
X196555360Y-51026060D01*
X191556640Y-50627280D02*
X191556640Y-51026060D01*
X191556640Y-47830740D02*
X191556640Y-48229520D01*
D19*
X191516000Y-47777400D02*
X196596000Y-47777400D01*
X191516000Y-51079400D02*
X196596000Y-51079400D01*
D17*
G04 #@! TO.C,R2*
X192024000Y-42443400D02*
X194818000Y-42443400D01*
X194818000Y-42443400D02*
X194818000Y-43713400D01*
X194818000Y-43713400D02*
X192024000Y-43713400D01*
X192024000Y-43713400D02*
X192024000Y-42443400D01*
G04 #@! TO.C,D6*
D16*
X173086804Y-80975580D02*
X173086804Y-79975580D01*
X173324900Y-79975580D01*
X173467757Y-80023200D01*
X173562995Y-80118438D01*
X173610614Y-80213676D01*
X173658233Y-80404152D01*
X173658233Y-80547009D01*
X173610614Y-80737485D01*
X173562995Y-80832723D01*
X173467757Y-80927961D01*
X173324900Y-80975580D01*
X173086804Y-80975580D01*
X174515376Y-79975580D02*
X174324900Y-79975580D01*
X174229661Y-80023200D01*
X174182042Y-80070819D01*
X174086804Y-80213676D01*
X174039185Y-80404152D01*
X174039185Y-80785104D01*
X174086804Y-80880342D01*
X174134423Y-80927961D01*
X174229661Y-80975580D01*
X174420138Y-80975580D01*
X174515376Y-80927961D01*
X174562995Y-80880342D01*
X174610614Y-80785104D01*
X174610614Y-80547009D01*
X174562995Y-80451771D01*
X174515376Y-80404152D01*
X174420138Y-80356533D01*
X174229661Y-80356533D01*
X174134423Y-80404152D01*
X174086804Y-80451771D01*
X174039185Y-80547009D01*
X169960614Y-82875580D02*
X169389185Y-82875580D01*
X169674900Y-82875580D02*
X169674900Y-81875580D01*
X169579661Y-82018438D01*
X169484423Y-82113676D01*
X169389185Y-82161295D01*
G04 #@! TO.C,SW17*
X243490976Y-106449761D02*
X243633833Y-106497380D01*
X243871928Y-106497380D01*
X243967166Y-106449761D01*
X244014785Y-106402142D01*
X244062404Y-106306904D01*
X244062404Y-106211666D01*
X244014785Y-106116428D01*
X243967166Y-106068809D01*
X243871928Y-106021190D01*
X243681452Y-105973571D01*
X243586214Y-105925952D01*
X243538595Y-105878333D01*
X243490976Y-105783095D01*
X243490976Y-105687857D01*
X243538595Y-105592619D01*
X243586214Y-105545000D01*
X243681452Y-105497380D01*
X243919547Y-105497380D01*
X244062404Y-105545000D01*
X244395738Y-105497380D02*
X244633833Y-106497380D01*
X244824309Y-105783095D01*
X245014785Y-106497380D01*
X245252880Y-105497380D01*
X246157642Y-106497380D02*
X245586214Y-106497380D01*
X245871928Y-106497380D02*
X245871928Y-105497380D01*
X245776690Y-105640238D01*
X245681452Y-105735476D01*
X245586214Y-105783095D01*
X246490976Y-105497380D02*
X247157642Y-105497380D01*
X246729071Y-106497380D01*
G04 #@! TO.C,SW16*
X224377476Y-106449761D02*
X224520333Y-106497380D01*
X224758428Y-106497380D01*
X224853666Y-106449761D01*
X224901285Y-106402142D01*
X224948904Y-106306904D01*
X224948904Y-106211666D01*
X224901285Y-106116428D01*
X224853666Y-106068809D01*
X224758428Y-106021190D01*
X224567952Y-105973571D01*
X224472714Y-105925952D01*
X224425095Y-105878333D01*
X224377476Y-105783095D01*
X224377476Y-105687857D01*
X224425095Y-105592619D01*
X224472714Y-105545000D01*
X224567952Y-105497380D01*
X224806047Y-105497380D01*
X224948904Y-105545000D01*
X225282238Y-105497380D02*
X225520333Y-106497380D01*
X225710809Y-105783095D01*
X225901285Y-106497380D01*
X226139380Y-105497380D01*
X227044142Y-106497380D02*
X226472714Y-106497380D01*
X226758428Y-106497380D02*
X226758428Y-105497380D01*
X226663190Y-105640238D01*
X226567952Y-105735476D01*
X226472714Y-105783095D01*
X227901285Y-105497380D02*
X227710809Y-105497380D01*
X227615571Y-105545000D01*
X227567952Y-105592619D01*
X227472714Y-105735476D01*
X227425095Y-105925952D01*
X227425095Y-106306904D01*
X227472714Y-106402142D01*
X227520333Y-106449761D01*
X227615571Y-106497380D01*
X227806047Y-106497380D01*
X227901285Y-106449761D01*
X227948904Y-106402142D01*
X227996523Y-106306904D01*
X227996523Y-106068809D01*
X227948904Y-105973571D01*
X227901285Y-105925952D01*
X227806047Y-105878333D01*
X227615571Y-105878333D01*
X227520333Y-105925952D01*
X227472714Y-105973571D01*
X227425095Y-106068809D01*
G04 #@! TO.C,SW15*
X205390976Y-106449761D02*
X205533833Y-106497380D01*
X205771928Y-106497380D01*
X205867166Y-106449761D01*
X205914785Y-106402142D01*
X205962404Y-106306904D01*
X205962404Y-106211666D01*
X205914785Y-106116428D01*
X205867166Y-106068809D01*
X205771928Y-106021190D01*
X205581452Y-105973571D01*
X205486214Y-105925952D01*
X205438595Y-105878333D01*
X205390976Y-105783095D01*
X205390976Y-105687857D01*
X205438595Y-105592619D01*
X205486214Y-105545000D01*
X205581452Y-105497380D01*
X205819547Y-105497380D01*
X205962404Y-105545000D01*
X206295738Y-105497380D02*
X206533833Y-106497380D01*
X206724309Y-105783095D01*
X206914785Y-106497380D01*
X207152880Y-105497380D01*
X208057642Y-106497380D02*
X207486214Y-106497380D01*
X207771928Y-106497380D02*
X207771928Y-105497380D01*
X207676690Y-105640238D01*
X207581452Y-105735476D01*
X207486214Y-105783095D01*
X208962404Y-105497380D02*
X208486214Y-105497380D01*
X208438595Y-105973571D01*
X208486214Y-105925952D01*
X208581452Y-105878333D01*
X208819547Y-105878333D01*
X208914785Y-105925952D01*
X208962404Y-105973571D01*
X209010023Y-106068809D01*
X209010023Y-106306904D01*
X208962404Y-106402142D01*
X208914785Y-106449761D01*
X208819547Y-106497380D01*
X208581452Y-106497380D01*
X208486214Y-106449761D01*
X208438595Y-106402142D01*
G04 #@! TO.C,SW14*
X186340976Y-106449761D02*
X186483833Y-106497380D01*
X186721928Y-106497380D01*
X186817166Y-106449761D01*
X186864785Y-106402142D01*
X186912404Y-106306904D01*
X186912404Y-106211666D01*
X186864785Y-106116428D01*
X186817166Y-106068809D01*
X186721928Y-106021190D01*
X186531452Y-105973571D01*
X186436214Y-105925952D01*
X186388595Y-105878333D01*
X186340976Y-105783095D01*
X186340976Y-105687857D01*
X186388595Y-105592619D01*
X186436214Y-105545000D01*
X186531452Y-105497380D01*
X186769547Y-105497380D01*
X186912404Y-105545000D01*
X187245738Y-105497380D02*
X187483833Y-106497380D01*
X187674309Y-105783095D01*
X187864785Y-106497380D01*
X188102880Y-105497380D01*
X189007642Y-106497380D02*
X188436214Y-106497380D01*
X188721928Y-106497380D02*
X188721928Y-105497380D01*
X188626690Y-105640238D01*
X188531452Y-105735476D01*
X188436214Y-105783095D01*
X189864785Y-105830714D02*
X189864785Y-106497380D01*
X189626690Y-105449761D02*
X189388595Y-106164047D01*
X190007642Y-106164047D01*
G04 #@! TO.C,SW13*
X243490976Y-87399761D02*
X243633833Y-87447380D01*
X243871928Y-87447380D01*
X243967166Y-87399761D01*
X244014785Y-87352142D01*
X244062404Y-87256904D01*
X244062404Y-87161666D01*
X244014785Y-87066428D01*
X243967166Y-87018809D01*
X243871928Y-86971190D01*
X243681452Y-86923571D01*
X243586214Y-86875952D01*
X243538595Y-86828333D01*
X243490976Y-86733095D01*
X243490976Y-86637857D01*
X243538595Y-86542619D01*
X243586214Y-86495000D01*
X243681452Y-86447380D01*
X243919547Y-86447380D01*
X244062404Y-86495000D01*
X244395738Y-86447380D02*
X244633833Y-87447380D01*
X244824309Y-86733095D01*
X245014785Y-87447380D01*
X245252880Y-86447380D01*
X246157642Y-87447380D02*
X245586214Y-87447380D01*
X245871928Y-87447380D02*
X245871928Y-86447380D01*
X245776690Y-86590238D01*
X245681452Y-86685476D01*
X245586214Y-86733095D01*
X246490976Y-86447380D02*
X247110023Y-86447380D01*
X246776690Y-86828333D01*
X246919547Y-86828333D01*
X247014785Y-86875952D01*
X247062404Y-86923571D01*
X247110023Y-87018809D01*
X247110023Y-87256904D01*
X247062404Y-87352142D01*
X247014785Y-87399761D01*
X246919547Y-87447380D01*
X246633833Y-87447380D01*
X246538595Y-87399761D01*
X246490976Y-87352142D01*
G04 #@! TO.C,SW12*
X224440976Y-87336261D02*
X224583833Y-87383880D01*
X224821928Y-87383880D01*
X224917166Y-87336261D01*
X224964785Y-87288642D01*
X225012404Y-87193404D01*
X225012404Y-87098166D01*
X224964785Y-87002928D01*
X224917166Y-86955309D01*
X224821928Y-86907690D01*
X224631452Y-86860071D01*
X224536214Y-86812452D01*
X224488595Y-86764833D01*
X224440976Y-86669595D01*
X224440976Y-86574357D01*
X224488595Y-86479119D01*
X224536214Y-86431500D01*
X224631452Y-86383880D01*
X224869547Y-86383880D01*
X225012404Y-86431500D01*
X225345738Y-86383880D02*
X225583833Y-87383880D01*
X225774309Y-86669595D01*
X225964785Y-87383880D01*
X226202880Y-86383880D01*
X227107642Y-87383880D02*
X226536214Y-87383880D01*
X226821928Y-87383880D02*
X226821928Y-86383880D01*
X226726690Y-86526738D01*
X226631452Y-86621976D01*
X226536214Y-86669595D01*
X227488595Y-86479119D02*
X227536214Y-86431500D01*
X227631452Y-86383880D01*
X227869547Y-86383880D01*
X227964785Y-86431500D01*
X228012404Y-86479119D01*
X228060023Y-86574357D01*
X228060023Y-86669595D01*
X228012404Y-86812452D01*
X227440976Y-87383880D01*
X228060023Y-87383880D01*
G04 #@! TO.C,SW11*
X205390976Y-87399761D02*
X205533833Y-87447380D01*
X205771928Y-87447380D01*
X205867166Y-87399761D01*
X205914785Y-87352142D01*
X205962404Y-87256904D01*
X205962404Y-87161666D01*
X205914785Y-87066428D01*
X205867166Y-87018809D01*
X205771928Y-86971190D01*
X205581452Y-86923571D01*
X205486214Y-86875952D01*
X205438595Y-86828333D01*
X205390976Y-86733095D01*
X205390976Y-86637857D01*
X205438595Y-86542619D01*
X205486214Y-86495000D01*
X205581452Y-86447380D01*
X205819547Y-86447380D01*
X205962404Y-86495000D01*
X206295738Y-86447380D02*
X206533833Y-87447380D01*
X206724309Y-86733095D01*
X206914785Y-87447380D01*
X207152880Y-86447380D01*
X208057642Y-87447380D02*
X207486214Y-87447380D01*
X207771928Y-87447380D02*
X207771928Y-86447380D01*
X207676690Y-86590238D01*
X207581452Y-86685476D01*
X207486214Y-86733095D01*
X209010023Y-87447380D02*
X208438595Y-87447380D01*
X208724309Y-87447380D02*
X208724309Y-86447380D01*
X208629071Y-86590238D01*
X208533833Y-86685476D01*
X208438595Y-86733095D01*
G04 #@! TO.C,SW10*
X186340976Y-87399761D02*
X186483833Y-87447380D01*
X186721928Y-87447380D01*
X186817166Y-87399761D01*
X186864785Y-87352142D01*
X186912404Y-87256904D01*
X186912404Y-87161666D01*
X186864785Y-87066428D01*
X186817166Y-87018809D01*
X186721928Y-86971190D01*
X186531452Y-86923571D01*
X186436214Y-86875952D01*
X186388595Y-86828333D01*
X186340976Y-86733095D01*
X186340976Y-86637857D01*
X186388595Y-86542619D01*
X186436214Y-86495000D01*
X186531452Y-86447380D01*
X186769547Y-86447380D01*
X186912404Y-86495000D01*
X187245738Y-86447380D02*
X187483833Y-87447380D01*
X187674309Y-86733095D01*
X187864785Y-87447380D01*
X188102880Y-86447380D01*
X189007642Y-87447380D02*
X188436214Y-87447380D01*
X188721928Y-87447380D02*
X188721928Y-86447380D01*
X188626690Y-86590238D01*
X188531452Y-86685476D01*
X188436214Y-86733095D01*
X189626690Y-86447380D02*
X189721928Y-86447380D01*
X189817166Y-86495000D01*
X189864785Y-86542619D01*
X189912404Y-86637857D01*
X189960023Y-86828333D01*
X189960023Y-87066428D01*
X189912404Y-87256904D01*
X189864785Y-87352142D01*
X189817166Y-87399761D01*
X189721928Y-87447380D01*
X189626690Y-87447380D01*
X189531452Y-87399761D01*
X189483833Y-87352142D01*
X189436214Y-87256904D01*
X189388595Y-87066428D01*
X189388595Y-86828333D01*
X189436214Y-86637857D01*
X189483833Y-86542619D01*
X189531452Y-86495000D01*
X189626690Y-86447380D01*
G04 #@! TO.C,SW9*
X243967166Y-68349761D02*
X244110023Y-68397380D01*
X244348119Y-68397380D01*
X244443357Y-68349761D01*
X244490976Y-68302142D01*
X244538595Y-68206904D01*
X244538595Y-68111666D01*
X244490976Y-68016428D01*
X244443357Y-67968809D01*
X244348119Y-67921190D01*
X244157642Y-67873571D01*
X244062404Y-67825952D01*
X244014785Y-67778333D01*
X243967166Y-67683095D01*
X243967166Y-67587857D01*
X244014785Y-67492619D01*
X244062404Y-67445000D01*
X244157642Y-67397380D01*
X244395738Y-67397380D01*
X244538595Y-67445000D01*
X244871928Y-67397380D02*
X245110023Y-68397380D01*
X245300500Y-67683095D01*
X245490976Y-68397380D01*
X245729071Y-67397380D01*
X246157642Y-68397380D02*
X246348119Y-68397380D01*
X246443357Y-68349761D01*
X246490976Y-68302142D01*
X246586214Y-68159285D01*
X246633833Y-67968809D01*
X246633833Y-67587857D01*
X246586214Y-67492619D01*
X246538595Y-67445000D01*
X246443357Y-67397380D01*
X246252880Y-67397380D01*
X246157642Y-67445000D01*
X246110023Y-67492619D01*
X246062404Y-67587857D01*
X246062404Y-67825952D01*
X246110023Y-67921190D01*
X246157642Y-67968809D01*
X246252880Y-68016428D01*
X246443357Y-68016428D01*
X246538595Y-67968809D01*
X246586214Y-67921190D01*
X246633833Y-67825952D01*
G04 #@! TO.C,SW7*
X205867166Y-68349761D02*
X206010023Y-68397380D01*
X206248119Y-68397380D01*
X206343357Y-68349761D01*
X206390976Y-68302142D01*
X206438595Y-68206904D01*
X206438595Y-68111666D01*
X206390976Y-68016428D01*
X206343357Y-67968809D01*
X206248119Y-67921190D01*
X206057642Y-67873571D01*
X205962404Y-67825952D01*
X205914785Y-67778333D01*
X205867166Y-67683095D01*
X205867166Y-67587857D01*
X205914785Y-67492619D01*
X205962404Y-67445000D01*
X206057642Y-67397380D01*
X206295738Y-67397380D01*
X206438595Y-67445000D01*
X206771928Y-67397380D02*
X207010023Y-68397380D01*
X207200500Y-67683095D01*
X207390976Y-68397380D01*
X207629071Y-67397380D01*
X207914785Y-67397380D02*
X208581452Y-67397380D01*
X208152880Y-68397380D01*
G04 #@! TO.C,SW6*
X186817166Y-68349761D02*
X186960023Y-68397380D01*
X187198119Y-68397380D01*
X187293357Y-68349761D01*
X187340976Y-68302142D01*
X187388595Y-68206904D01*
X187388595Y-68111666D01*
X187340976Y-68016428D01*
X187293357Y-67968809D01*
X187198119Y-67921190D01*
X187007642Y-67873571D01*
X186912404Y-67825952D01*
X186864785Y-67778333D01*
X186817166Y-67683095D01*
X186817166Y-67587857D01*
X186864785Y-67492619D01*
X186912404Y-67445000D01*
X187007642Y-67397380D01*
X187245738Y-67397380D01*
X187388595Y-67445000D01*
X187721928Y-67397380D02*
X187960023Y-68397380D01*
X188150500Y-67683095D01*
X188340976Y-68397380D01*
X188579071Y-67397380D01*
X189388595Y-67397380D02*
X189198119Y-67397380D01*
X189102880Y-67445000D01*
X189055261Y-67492619D01*
X188960023Y-67635476D01*
X188912404Y-67825952D01*
X188912404Y-68206904D01*
X188960023Y-68302142D01*
X189007642Y-68349761D01*
X189102880Y-68397380D01*
X189293357Y-68397380D01*
X189388595Y-68349761D01*
X189436214Y-68302142D01*
X189483833Y-68206904D01*
X189483833Y-67968809D01*
X189436214Y-67873571D01*
X189388595Y-67825952D01*
X189293357Y-67778333D01*
X189102880Y-67778333D01*
X189007642Y-67825952D01*
X188960023Y-67873571D01*
X188912404Y-67968809D01*
G04 #@! TO.C,SW8*
X224917166Y-68349761D02*
X225060023Y-68397380D01*
X225298119Y-68397380D01*
X225393357Y-68349761D01*
X225440976Y-68302142D01*
X225488595Y-68206904D01*
X225488595Y-68111666D01*
X225440976Y-68016428D01*
X225393357Y-67968809D01*
X225298119Y-67921190D01*
X225107642Y-67873571D01*
X225012404Y-67825952D01*
X224964785Y-67778333D01*
X224917166Y-67683095D01*
X224917166Y-67587857D01*
X224964785Y-67492619D01*
X225012404Y-67445000D01*
X225107642Y-67397380D01*
X225345738Y-67397380D01*
X225488595Y-67445000D01*
X225821928Y-67397380D02*
X226060023Y-68397380D01*
X226250500Y-67683095D01*
X226440976Y-68397380D01*
X226679071Y-67397380D01*
X227202880Y-67825952D02*
X227107642Y-67778333D01*
X227060023Y-67730714D01*
X227012404Y-67635476D01*
X227012404Y-67587857D01*
X227060023Y-67492619D01*
X227107642Y-67445000D01*
X227202880Y-67397380D01*
X227393357Y-67397380D01*
X227488595Y-67445000D01*
X227536214Y-67492619D01*
X227583833Y-67587857D01*
X227583833Y-67635476D01*
X227536214Y-67730714D01*
X227488595Y-67778333D01*
X227393357Y-67825952D01*
X227202880Y-67825952D01*
X227107642Y-67873571D01*
X227060023Y-67921190D01*
X227012404Y-68016428D01*
X227012404Y-68206904D01*
X227060023Y-68302142D01*
X227107642Y-68349761D01*
X227202880Y-68397380D01*
X227393357Y-68397380D01*
X227488595Y-68349761D01*
X227536214Y-68302142D01*
X227583833Y-68206904D01*
X227583833Y-68016428D01*
X227536214Y-67921190D01*
X227488595Y-67873571D01*
X227393357Y-67825952D01*
G04 #@! TO.C,D14*
X223385214Y-73595880D02*
X223385214Y-72595880D01*
X223623309Y-72595880D01*
X223766166Y-72643500D01*
X223861404Y-72738738D01*
X223909023Y-72833976D01*
X223956642Y-73024452D01*
X223956642Y-73167309D01*
X223909023Y-73357785D01*
X223861404Y-73453023D01*
X223766166Y-73548261D01*
X223623309Y-73595880D01*
X223385214Y-73595880D01*
X224909023Y-73595880D02*
X224337595Y-73595880D01*
X224623309Y-73595880D02*
X224623309Y-72595880D01*
X224528071Y-72738738D01*
X224432833Y-72833976D01*
X224337595Y-72881595D01*
X225766166Y-72929214D02*
X225766166Y-73595880D01*
X225528071Y-72548261D02*
X225289976Y-73262547D01*
X225909023Y-73262547D01*
G04 #@! TO.C,D19*
X242435214Y-92645880D02*
X242435214Y-91645880D01*
X242673309Y-91645880D01*
X242816166Y-91693500D01*
X242911404Y-91788738D01*
X242959023Y-91883976D01*
X243006642Y-92074452D01*
X243006642Y-92217309D01*
X242959023Y-92407785D01*
X242911404Y-92503023D01*
X242816166Y-92598261D01*
X242673309Y-92645880D01*
X242435214Y-92645880D01*
X243959023Y-92645880D02*
X243387595Y-92645880D01*
X243673309Y-92645880D02*
X243673309Y-91645880D01*
X243578071Y-91788738D01*
X243482833Y-91883976D01*
X243387595Y-91931595D01*
X244435214Y-92645880D02*
X244625690Y-92645880D01*
X244720928Y-92598261D01*
X244768547Y-92550642D01*
X244863785Y-92407785D01*
X244911404Y-92217309D01*
X244911404Y-91836357D01*
X244863785Y-91741119D01*
X244816166Y-91693500D01*
X244720928Y-91645880D01*
X244530452Y-91645880D01*
X244435214Y-91693500D01*
X244387595Y-91741119D01*
X244339976Y-91836357D01*
X244339976Y-92074452D01*
X244387595Y-92169690D01*
X244435214Y-92217309D01*
X244530452Y-92264928D01*
X244720928Y-92264928D01*
X244816166Y-92217309D01*
X244863785Y-92169690D01*
X244911404Y-92074452D01*
G04 #@! TO.C,D18*
X223321714Y-92645880D02*
X223321714Y-91645880D01*
X223559809Y-91645880D01*
X223702666Y-91693500D01*
X223797904Y-91788738D01*
X223845523Y-91883976D01*
X223893142Y-92074452D01*
X223893142Y-92217309D01*
X223845523Y-92407785D01*
X223797904Y-92503023D01*
X223702666Y-92598261D01*
X223559809Y-92645880D01*
X223321714Y-92645880D01*
X224845523Y-92645880D02*
X224274095Y-92645880D01*
X224559809Y-92645880D02*
X224559809Y-91645880D01*
X224464571Y-91788738D01*
X224369333Y-91883976D01*
X224274095Y-91931595D01*
X225416952Y-92074452D02*
X225321714Y-92026833D01*
X225274095Y-91979214D01*
X225226476Y-91883976D01*
X225226476Y-91836357D01*
X225274095Y-91741119D01*
X225321714Y-91693500D01*
X225416952Y-91645880D01*
X225607428Y-91645880D01*
X225702666Y-91693500D01*
X225750285Y-91741119D01*
X225797904Y-91836357D01*
X225797904Y-91883976D01*
X225750285Y-91979214D01*
X225702666Y-92026833D01*
X225607428Y-92074452D01*
X225416952Y-92074452D01*
X225321714Y-92122071D01*
X225274095Y-92169690D01*
X225226476Y-92264928D01*
X225226476Y-92455404D01*
X225274095Y-92550642D01*
X225321714Y-92598261D01*
X225416952Y-92645880D01*
X225607428Y-92645880D01*
X225702666Y-92598261D01*
X225750285Y-92550642D01*
X225797904Y-92455404D01*
X225797904Y-92264928D01*
X225750285Y-92169690D01*
X225702666Y-92122071D01*
X225607428Y-92074452D01*
G04 #@! TO.C,D17*
X204335214Y-92709380D02*
X204335214Y-91709380D01*
X204573309Y-91709380D01*
X204716166Y-91757000D01*
X204811404Y-91852238D01*
X204859023Y-91947476D01*
X204906642Y-92137952D01*
X204906642Y-92280809D01*
X204859023Y-92471285D01*
X204811404Y-92566523D01*
X204716166Y-92661761D01*
X204573309Y-92709380D01*
X204335214Y-92709380D01*
X205859023Y-92709380D02*
X205287595Y-92709380D01*
X205573309Y-92709380D02*
X205573309Y-91709380D01*
X205478071Y-91852238D01*
X205382833Y-91947476D01*
X205287595Y-91995095D01*
X206192357Y-91709380D02*
X206859023Y-91709380D01*
X206430452Y-92709380D01*
G04 #@! TO.C,D16*
X185285214Y-92709380D02*
X185285214Y-91709380D01*
X185523309Y-91709380D01*
X185666166Y-91757000D01*
X185761404Y-91852238D01*
X185809023Y-91947476D01*
X185856642Y-92137952D01*
X185856642Y-92280809D01*
X185809023Y-92471285D01*
X185761404Y-92566523D01*
X185666166Y-92661761D01*
X185523309Y-92709380D01*
X185285214Y-92709380D01*
X186809023Y-92709380D02*
X186237595Y-92709380D01*
X186523309Y-92709380D02*
X186523309Y-91709380D01*
X186428071Y-91852238D01*
X186332833Y-91947476D01*
X186237595Y-91995095D01*
X187666166Y-91709380D02*
X187475690Y-91709380D01*
X187380452Y-91757000D01*
X187332833Y-91804619D01*
X187237595Y-91947476D01*
X187189976Y-92137952D01*
X187189976Y-92518904D01*
X187237595Y-92614142D01*
X187285214Y-92661761D01*
X187380452Y-92709380D01*
X187570928Y-92709380D01*
X187666166Y-92661761D01*
X187713785Y-92614142D01*
X187761404Y-92518904D01*
X187761404Y-92280809D01*
X187713785Y-92185571D01*
X187666166Y-92137952D01*
X187570928Y-92090333D01*
X187380452Y-92090333D01*
X187285214Y-92137952D01*
X187237595Y-92185571D01*
X187189976Y-92280809D01*
G04 #@! TO.C,D15*
X242435214Y-73595880D02*
X242435214Y-72595880D01*
X242673309Y-72595880D01*
X242816166Y-72643500D01*
X242911404Y-72738738D01*
X242959023Y-72833976D01*
X243006642Y-73024452D01*
X243006642Y-73167309D01*
X242959023Y-73357785D01*
X242911404Y-73453023D01*
X242816166Y-73548261D01*
X242673309Y-73595880D01*
X242435214Y-73595880D01*
X243959023Y-73595880D02*
X243387595Y-73595880D01*
X243673309Y-73595880D02*
X243673309Y-72595880D01*
X243578071Y-72738738D01*
X243482833Y-72833976D01*
X243387595Y-72881595D01*
X244863785Y-72595880D02*
X244387595Y-72595880D01*
X244339976Y-73072071D01*
X244387595Y-73024452D01*
X244482833Y-72976833D01*
X244720928Y-72976833D01*
X244816166Y-73024452D01*
X244863785Y-73072071D01*
X244911404Y-73167309D01*
X244911404Y-73405404D01*
X244863785Y-73500642D01*
X244816166Y-73548261D01*
X244720928Y-73595880D01*
X244482833Y-73595880D01*
X244387595Y-73548261D01*
X244339976Y-73500642D01*
G04 #@! TO.C,D13*
X204335214Y-73659380D02*
X204335214Y-72659380D01*
X204573309Y-72659380D01*
X204716166Y-72707000D01*
X204811404Y-72802238D01*
X204859023Y-72897476D01*
X204906642Y-73087952D01*
X204906642Y-73230809D01*
X204859023Y-73421285D01*
X204811404Y-73516523D01*
X204716166Y-73611761D01*
X204573309Y-73659380D01*
X204335214Y-73659380D01*
X205859023Y-73659380D02*
X205287595Y-73659380D01*
X205573309Y-73659380D02*
X205573309Y-72659380D01*
X205478071Y-72802238D01*
X205382833Y-72897476D01*
X205287595Y-72945095D01*
X206192357Y-72659380D02*
X206811404Y-72659380D01*
X206478071Y-73040333D01*
X206620928Y-73040333D01*
X206716166Y-73087952D01*
X206763785Y-73135571D01*
X206811404Y-73230809D01*
X206811404Y-73468904D01*
X206763785Y-73564142D01*
X206716166Y-73611761D01*
X206620928Y-73659380D01*
X206335214Y-73659380D01*
X206239976Y-73611761D01*
X206192357Y-73564142D01*
G04 #@! TO.C,D12*
X185285214Y-73659380D02*
X185285214Y-72659380D01*
X185523309Y-72659380D01*
X185666166Y-72707000D01*
X185761404Y-72802238D01*
X185809023Y-72897476D01*
X185856642Y-73087952D01*
X185856642Y-73230809D01*
X185809023Y-73421285D01*
X185761404Y-73516523D01*
X185666166Y-73611761D01*
X185523309Y-73659380D01*
X185285214Y-73659380D01*
X186809023Y-73659380D02*
X186237595Y-73659380D01*
X186523309Y-73659380D02*
X186523309Y-72659380D01*
X186428071Y-72802238D01*
X186332833Y-72897476D01*
X186237595Y-72945095D01*
X187189976Y-72754619D02*
X187237595Y-72707000D01*
X187332833Y-72659380D01*
X187570928Y-72659380D01*
X187666166Y-72707000D01*
X187713785Y-72754619D01*
X187761404Y-72849857D01*
X187761404Y-72945095D01*
X187713785Y-73087952D01*
X187142357Y-73659380D01*
X187761404Y-73659380D01*
G04 #@! TO.C,D11*
X239093880Y-61539285D02*
X238093880Y-61539285D01*
X238093880Y-61301190D01*
X238141500Y-61158333D01*
X238236738Y-61063095D01*
X238331976Y-61015476D01*
X238522452Y-60967857D01*
X238665309Y-60967857D01*
X238855785Y-61015476D01*
X238951023Y-61063095D01*
X239046261Y-61158333D01*
X239093880Y-61301190D01*
X239093880Y-61539285D01*
X239093880Y-60015476D02*
X239093880Y-60586904D01*
X239093880Y-60301190D02*
X238093880Y-60301190D01*
X238236738Y-60396428D01*
X238331976Y-60491666D01*
X238379595Y-60586904D01*
X239093880Y-59063095D02*
X239093880Y-59634523D01*
X239093880Y-59348809D02*
X238093880Y-59348809D01*
X238236738Y-59444047D01*
X238331976Y-59539285D01*
X238379595Y-59634523D01*
G04 #@! TO.C,D10*
X233510080Y-61539285D02*
X232510080Y-61539285D01*
X232510080Y-61301190D01*
X232557700Y-61158333D01*
X232652938Y-61063095D01*
X232748176Y-61015476D01*
X232938652Y-60967857D01*
X233081509Y-60967857D01*
X233271985Y-61015476D01*
X233367223Y-61063095D01*
X233462461Y-61158333D01*
X233510080Y-61301190D01*
X233510080Y-61539285D01*
X233510080Y-60015476D02*
X233510080Y-60586904D01*
X233510080Y-60301190D02*
X232510080Y-60301190D01*
X232652938Y-60396428D01*
X232748176Y-60491666D01*
X232795795Y-60586904D01*
X232510080Y-59396428D02*
X232510080Y-59301190D01*
X232557700Y-59205952D01*
X232605319Y-59158333D01*
X232700557Y-59110714D01*
X232891033Y-59063095D01*
X233129128Y-59063095D01*
X233319604Y-59110714D01*
X233414842Y-59158333D01*
X233462461Y-59205952D01*
X233510080Y-59301190D01*
X233510080Y-59396428D01*
X233462461Y-59491666D01*
X233414842Y-59539285D01*
X233319604Y-59586904D01*
X233129128Y-59634523D01*
X232891033Y-59634523D01*
X232700557Y-59586904D01*
X232605319Y-59539285D01*
X232557700Y-59491666D01*
X232510080Y-59396428D01*
G04 #@! TO.C,D9*
X200866880Y-61126595D02*
X199866880Y-61126595D01*
X199866880Y-60888500D01*
X199914500Y-60745642D01*
X200009738Y-60650404D01*
X200104976Y-60602785D01*
X200295452Y-60555166D01*
X200438309Y-60555166D01*
X200628785Y-60602785D01*
X200724023Y-60650404D01*
X200819261Y-60745642D01*
X200866880Y-60888500D01*
X200866880Y-61126595D01*
X200866880Y-60078976D02*
X200866880Y-59888500D01*
X200819261Y-59793261D01*
X200771642Y-59745642D01*
X200628785Y-59650404D01*
X200438309Y-59602785D01*
X200057357Y-59602785D01*
X199962119Y-59650404D01*
X199914500Y-59698023D01*
X199866880Y-59793261D01*
X199866880Y-59983738D01*
X199914500Y-60078976D01*
X199962119Y-60126595D01*
X200057357Y-60174214D01*
X200295452Y-60174214D01*
X200390690Y-60126595D01*
X200438309Y-60078976D01*
X200485928Y-59983738D01*
X200485928Y-59793261D01*
X200438309Y-59698023D01*
X200390690Y-59650404D01*
X200295452Y-59602785D01*
G04 #@! TO.C,D8*
X195460880Y-61126595D02*
X194460880Y-61126595D01*
X194460880Y-60888500D01*
X194508500Y-60745642D01*
X194603738Y-60650404D01*
X194698976Y-60602785D01*
X194889452Y-60555166D01*
X195032309Y-60555166D01*
X195222785Y-60602785D01*
X195318023Y-60650404D01*
X195413261Y-60745642D01*
X195460880Y-60888500D01*
X195460880Y-61126595D01*
X194889452Y-59983738D02*
X194841833Y-60078976D01*
X194794214Y-60126595D01*
X194698976Y-60174214D01*
X194651357Y-60174214D01*
X194556119Y-60126595D01*
X194508500Y-60078976D01*
X194460880Y-59983738D01*
X194460880Y-59793261D01*
X194508500Y-59698023D01*
X194556119Y-59650404D01*
X194651357Y-59602785D01*
X194698976Y-59602785D01*
X194794214Y-59650404D01*
X194841833Y-59698023D01*
X194889452Y-59793261D01*
X194889452Y-59983738D01*
X194937071Y-60078976D01*
X194984690Y-60126595D01*
X195079928Y-60174214D01*
X195270404Y-60174214D01*
X195365642Y-60126595D01*
X195413261Y-60078976D01*
X195460880Y-59983738D01*
X195460880Y-59793261D01*
X195413261Y-59698023D01*
X195365642Y-59650404D01*
X195270404Y-59602785D01*
X195079928Y-59602785D01*
X194984690Y-59650404D01*
X194937071Y-59698023D01*
X194889452Y-59793261D01*
G04 #@! TO.C,D1*
X250379004Y-48438180D02*
X250379004Y-47438180D01*
X250617100Y-47438180D01*
X250759957Y-47485800D01*
X250855195Y-47581038D01*
X250902814Y-47676276D01*
X250950433Y-47866752D01*
X250950433Y-48009609D01*
X250902814Y-48200085D01*
X250855195Y-48295323D01*
X250759957Y-48390561D01*
X250617100Y-48438180D01*
X250379004Y-48438180D01*
X251902814Y-48438180D02*
X251331385Y-48438180D01*
X251617100Y-48438180D02*
X251617100Y-47438180D01*
X251521861Y-47581038D01*
X251426623Y-47676276D01*
X251331385Y-47723895D01*
X247252814Y-50338180D02*
X246681385Y-50338180D01*
X246967100Y-50338180D02*
X246967100Y-49338180D01*
X246871861Y-49481038D01*
X246776623Y-49576276D01*
X246681385Y-49623895D01*
G04 #@! TO.C,D2*
X241743004Y-48501680D02*
X241743004Y-47501680D01*
X241981100Y-47501680D01*
X242123957Y-47549300D01*
X242219195Y-47644538D01*
X242266814Y-47739776D01*
X242314433Y-47930252D01*
X242314433Y-48073109D01*
X242266814Y-48263585D01*
X242219195Y-48358823D01*
X242123957Y-48454061D01*
X241981100Y-48501680D01*
X241743004Y-48501680D01*
X242695385Y-47596919D02*
X242743004Y-47549300D01*
X242838242Y-47501680D01*
X243076338Y-47501680D01*
X243171576Y-47549300D01*
X243219195Y-47596919D01*
X243266814Y-47692157D01*
X243266814Y-47787395D01*
X243219195Y-47930252D01*
X242647766Y-48501680D01*
X243266814Y-48501680D01*
X238616814Y-50401680D02*
X238045385Y-50401680D01*
X238331100Y-50401680D02*
X238331100Y-49401680D01*
X238235861Y-49544538D01*
X238140623Y-49639776D01*
X238045385Y-49687395D01*
G04 #@! TO.C,D3*
X173074104Y-55702580D02*
X173074104Y-54702580D01*
X173312200Y-54702580D01*
X173455057Y-54750200D01*
X173550295Y-54845438D01*
X173597914Y-54940676D01*
X173645533Y-55131152D01*
X173645533Y-55274009D01*
X173597914Y-55464485D01*
X173550295Y-55559723D01*
X173455057Y-55654961D01*
X173312200Y-55702580D01*
X173074104Y-55702580D01*
X173978866Y-54702580D02*
X174597914Y-54702580D01*
X174264580Y-55083533D01*
X174407438Y-55083533D01*
X174502676Y-55131152D01*
X174550295Y-55178771D01*
X174597914Y-55274009D01*
X174597914Y-55512104D01*
X174550295Y-55607342D01*
X174502676Y-55654961D01*
X174407438Y-55702580D01*
X174121723Y-55702580D01*
X174026485Y-55654961D01*
X173978866Y-55607342D01*
X169947914Y-57602580D02*
X169376485Y-57602580D01*
X169662200Y-57602580D02*
X169662200Y-56602580D01*
X169566961Y-56745438D01*
X169471723Y-56840676D01*
X169376485Y-56888295D01*
G04 #@! TO.C,D4*
X173074104Y-63678180D02*
X173074104Y-62678180D01*
X173312200Y-62678180D01*
X173455057Y-62725800D01*
X173550295Y-62821038D01*
X173597914Y-62916276D01*
X173645533Y-63106752D01*
X173645533Y-63249609D01*
X173597914Y-63440085D01*
X173550295Y-63535323D01*
X173455057Y-63630561D01*
X173312200Y-63678180D01*
X173074104Y-63678180D01*
X174502676Y-63011514D02*
X174502676Y-63678180D01*
X174264580Y-62630561D02*
X174026485Y-63344847D01*
X174645533Y-63344847D01*
X169947914Y-65578180D02*
X169376485Y-65578180D01*
X169662200Y-65578180D02*
X169662200Y-64578180D01*
X169566961Y-64721038D01*
X169471723Y-64816276D01*
X169376485Y-64863895D01*
G04 #@! TO.C,D5*
X173086804Y-72339580D02*
X173086804Y-71339580D01*
X173324900Y-71339580D01*
X173467757Y-71387200D01*
X173562995Y-71482438D01*
X173610614Y-71577676D01*
X173658233Y-71768152D01*
X173658233Y-71911009D01*
X173610614Y-72101485D01*
X173562995Y-72196723D01*
X173467757Y-72291961D01*
X173324900Y-72339580D01*
X173086804Y-72339580D01*
X174562995Y-71339580D02*
X174086804Y-71339580D01*
X174039185Y-71815771D01*
X174086804Y-71768152D01*
X174182042Y-71720533D01*
X174420138Y-71720533D01*
X174515376Y-71768152D01*
X174562995Y-71815771D01*
X174610614Y-71911009D01*
X174610614Y-72149104D01*
X174562995Y-72244342D01*
X174515376Y-72291961D01*
X174420138Y-72339580D01*
X174182042Y-72339580D01*
X174086804Y-72291961D01*
X174039185Y-72244342D01*
X169960614Y-74239580D02*
X169389185Y-74239580D01*
X169674900Y-74239580D02*
X169674900Y-73239580D01*
X169579661Y-73382438D01*
X169484423Y-73477676D01*
X169389185Y-73525295D01*
G04 #@! TO.C,D7*
X173086804Y-89865580D02*
X173086804Y-88865580D01*
X173324900Y-88865580D01*
X173467757Y-88913200D01*
X173562995Y-89008438D01*
X173610614Y-89103676D01*
X173658233Y-89294152D01*
X173658233Y-89437009D01*
X173610614Y-89627485D01*
X173562995Y-89722723D01*
X173467757Y-89817961D01*
X173324900Y-89865580D01*
X173086804Y-89865580D01*
X173991566Y-88865580D02*
X174658233Y-88865580D01*
X174229661Y-89865580D01*
X169960614Y-91765580D02*
X169389185Y-91765580D01*
X169674900Y-91765580D02*
X169674900Y-90765580D01*
X169579661Y-90908438D01*
X169484423Y-91003676D01*
X169389185Y-91051295D01*
G04 #@! TO.C,SPKR1*
D12*
X228776980Y-46711252D02*
X228800790Y-46639823D01*
X228800790Y-46520776D01*
X228776980Y-46473157D01*
X228753171Y-46449347D01*
X228705552Y-46425538D01*
X228657933Y-46425538D01*
X228610314Y-46449347D01*
X228586504Y-46473157D01*
X228562695Y-46520776D01*
X228538885Y-46616014D01*
X228515076Y-46663633D01*
X228491266Y-46687442D01*
X228443647Y-46711252D01*
X228396028Y-46711252D01*
X228348409Y-46687442D01*
X228324600Y-46663633D01*
X228300790Y-46616014D01*
X228300790Y-46496966D01*
X228324600Y-46425538D01*
X228800790Y-46211252D02*
X228300790Y-46211252D01*
X228300790Y-46020776D01*
X228324600Y-45973157D01*
X228348409Y-45949347D01*
X228396028Y-45925538D01*
X228467457Y-45925538D01*
X228515076Y-45949347D01*
X228538885Y-45973157D01*
X228562695Y-46020776D01*
X228562695Y-46211252D01*
X228800790Y-45711252D02*
X228300790Y-45711252D01*
X228800790Y-45425538D02*
X228515076Y-45639823D01*
X228300790Y-45425538D02*
X228586504Y-45711252D01*
X228800790Y-44925538D02*
X228562695Y-45092204D01*
X228800790Y-45211252D02*
X228300790Y-45211252D01*
X228300790Y-45020776D01*
X228324600Y-44973157D01*
X228348409Y-44949347D01*
X228396028Y-44925538D01*
X228467457Y-44925538D01*
X228515076Y-44949347D01*
X228538885Y-44973157D01*
X228562695Y-45020776D01*
X228562695Y-45211252D01*
X228800790Y-44449347D02*
X228800790Y-44735061D01*
X228800790Y-44592204D02*
X228300790Y-44592204D01*
X228372219Y-44639823D01*
X228419838Y-44687442D01*
X228443647Y-44735061D01*
G04 #@! TO.C,SW1*
D16*
X169219761Y-51791633D02*
X169267380Y-51648776D01*
X169267380Y-51410680D01*
X169219761Y-51315442D01*
X169172142Y-51267823D01*
X169076904Y-51220204D01*
X168981666Y-51220204D01*
X168886428Y-51267823D01*
X168838809Y-51315442D01*
X168791190Y-51410680D01*
X168743571Y-51601157D01*
X168695952Y-51696395D01*
X168648333Y-51744014D01*
X168553095Y-51791633D01*
X168457857Y-51791633D01*
X168362619Y-51744014D01*
X168315000Y-51696395D01*
X168267380Y-51601157D01*
X168267380Y-51363061D01*
X168315000Y-51220204D01*
X168267380Y-50886871D02*
X169267380Y-50648776D01*
X168553095Y-50458300D01*
X169267380Y-50267823D01*
X168267380Y-50029728D01*
X169267380Y-49124966D02*
X169267380Y-49696395D01*
X169267380Y-49410680D02*
X168267380Y-49410680D01*
X168410238Y-49505919D01*
X168505476Y-49601157D01*
X168553095Y-49696395D01*
G04 #@! TO.C,SW2*
X181378761Y-70796333D02*
X181426380Y-70653476D01*
X181426380Y-70415380D01*
X181378761Y-70320142D01*
X181331142Y-70272523D01*
X181235904Y-70224904D01*
X181140666Y-70224904D01*
X181045428Y-70272523D01*
X180997809Y-70320142D01*
X180950190Y-70415380D01*
X180902571Y-70605857D01*
X180854952Y-70701095D01*
X180807333Y-70748714D01*
X180712095Y-70796333D01*
X180616857Y-70796333D01*
X180521619Y-70748714D01*
X180474000Y-70701095D01*
X180426380Y-70605857D01*
X180426380Y-70367761D01*
X180474000Y-70224904D01*
X180426380Y-69891571D02*
X181426380Y-69653476D01*
X180712095Y-69463000D01*
X181426380Y-69272523D01*
X180426380Y-69034428D01*
X180521619Y-68701095D02*
X180474000Y-68653476D01*
X180426380Y-68558238D01*
X180426380Y-68320142D01*
X180474000Y-68224904D01*
X180521619Y-68177285D01*
X180616857Y-68129666D01*
X180712095Y-68129666D01*
X180854952Y-68177285D01*
X181426380Y-68748714D01*
X181426380Y-68129666D01*
G04 #@! TO.C,SW3*
X200428761Y-70796333D02*
X200476380Y-70653476D01*
X200476380Y-70415380D01*
X200428761Y-70320142D01*
X200381142Y-70272523D01*
X200285904Y-70224904D01*
X200190666Y-70224904D01*
X200095428Y-70272523D01*
X200047809Y-70320142D01*
X200000190Y-70415380D01*
X199952571Y-70605857D01*
X199904952Y-70701095D01*
X199857333Y-70748714D01*
X199762095Y-70796333D01*
X199666857Y-70796333D01*
X199571619Y-70748714D01*
X199524000Y-70701095D01*
X199476380Y-70605857D01*
X199476380Y-70367761D01*
X199524000Y-70224904D01*
X199476380Y-69891571D02*
X200476380Y-69653476D01*
X199762095Y-69463000D01*
X200476380Y-69272523D01*
X199476380Y-69034428D01*
X199476380Y-68748714D02*
X199476380Y-68129666D01*
X199857333Y-68463000D01*
X199857333Y-68320142D01*
X199904952Y-68224904D01*
X199952571Y-68177285D01*
X200047809Y-68129666D01*
X200285904Y-68129666D01*
X200381142Y-68177285D01*
X200428761Y-68224904D01*
X200476380Y-68320142D01*
X200476380Y-68605857D01*
X200428761Y-68701095D01*
X200381142Y-68748714D01*
G04 #@! TO.C,SW4*
X219478761Y-70796333D02*
X219526380Y-70653476D01*
X219526380Y-70415380D01*
X219478761Y-70320142D01*
X219431142Y-70272523D01*
X219335904Y-70224904D01*
X219240666Y-70224904D01*
X219145428Y-70272523D01*
X219097809Y-70320142D01*
X219050190Y-70415380D01*
X219002571Y-70605857D01*
X218954952Y-70701095D01*
X218907333Y-70748714D01*
X218812095Y-70796333D01*
X218716857Y-70796333D01*
X218621619Y-70748714D01*
X218574000Y-70701095D01*
X218526380Y-70605857D01*
X218526380Y-70367761D01*
X218574000Y-70224904D01*
X218526380Y-69891571D02*
X219526380Y-69653476D01*
X218812095Y-69463000D01*
X219526380Y-69272523D01*
X218526380Y-69034428D01*
X218859714Y-68224904D02*
X219526380Y-68224904D01*
X218478761Y-68463000D02*
X219193047Y-68701095D01*
X219193047Y-68082047D01*
G04 #@! TO.C,SW5*
X238465261Y-70796333D02*
X238512880Y-70653476D01*
X238512880Y-70415380D01*
X238465261Y-70320142D01*
X238417642Y-70272523D01*
X238322404Y-70224904D01*
X238227166Y-70224904D01*
X238131928Y-70272523D01*
X238084309Y-70320142D01*
X238036690Y-70415380D01*
X237989071Y-70605857D01*
X237941452Y-70701095D01*
X237893833Y-70748714D01*
X237798595Y-70796333D01*
X237703357Y-70796333D01*
X237608119Y-70748714D01*
X237560500Y-70701095D01*
X237512880Y-70605857D01*
X237512880Y-70367761D01*
X237560500Y-70224904D01*
X237512880Y-69891571D02*
X238512880Y-69653476D01*
X237798595Y-69463000D01*
X238512880Y-69272523D01*
X237512880Y-69034428D01*
X237512880Y-68177285D02*
X237512880Y-68653476D01*
X237989071Y-68701095D01*
X237941452Y-68653476D01*
X237893833Y-68558238D01*
X237893833Y-68320142D01*
X237941452Y-68224904D01*
X237989071Y-68177285D01*
X238084309Y-68129666D01*
X238322404Y-68129666D01*
X238417642Y-68177285D01*
X238465261Y-68224904D01*
X238512880Y-68320142D01*
X238512880Y-68558238D01*
X238465261Y-68653476D01*
X238417642Y-68701095D01*
G04 #@! TO.C,R1*
D12*
X194459990Y-53956733D02*
X194221895Y-54123400D01*
X194459990Y-54242447D02*
X193959990Y-54242447D01*
X193959990Y-54051971D01*
X193983800Y-54004352D01*
X194007609Y-53980542D01*
X194055228Y-53956733D01*
X194126657Y-53956733D01*
X194174276Y-53980542D01*
X194198085Y-54004352D01*
X194221895Y-54051971D01*
X194221895Y-54242447D01*
X194459990Y-53480542D02*
X194459990Y-53766257D01*
X194459990Y-53623400D02*
X193959990Y-53623400D01*
X194031419Y-53671019D01*
X194079038Y-53718638D01*
X194102847Y-53766257D01*
G04 #@! TO.C,U1*
D16*
X202514295Y-43146380D02*
X202514295Y-43955904D01*
X202561914Y-44051142D01*
X202609533Y-44098761D01*
X202704771Y-44146380D01*
X202895247Y-44146380D01*
X202990485Y-44098761D01*
X203038104Y-44051142D01*
X203085723Y-43955904D01*
X203085723Y-43146380D01*
X204085723Y-44146380D02*
X203514295Y-44146380D01*
X203800009Y-44146380D02*
X203800009Y-43146380D01*
X203704771Y-43289238D01*
X203609533Y-43384476D01*
X203514295Y-43432095D01*
G04 #@! TO.C,C1*
D12*
X195585566Y-44387271D02*
X195561757Y-44411080D01*
X195490328Y-44434890D01*
X195442709Y-44434890D01*
X195371280Y-44411080D01*
X195323661Y-44363461D01*
X195299852Y-44315842D01*
X195276042Y-44220604D01*
X195276042Y-44149176D01*
X195299852Y-44053938D01*
X195323661Y-44006319D01*
X195371280Y-43958700D01*
X195442709Y-43934890D01*
X195490328Y-43934890D01*
X195561757Y-43958700D01*
X195585566Y-43982509D01*
X196061757Y-44434890D02*
X195776042Y-44434890D01*
X195918900Y-44434890D02*
X195918900Y-43934890D01*
X195871280Y-44006319D01*
X195823661Y-44053938D01*
X195776042Y-44077747D01*
G04 #@! TO.C,C2*
X192537566Y-44374571D02*
X192513757Y-44398380D01*
X192442328Y-44422190D01*
X192394709Y-44422190D01*
X192323280Y-44398380D01*
X192275661Y-44350761D01*
X192251852Y-44303142D01*
X192228042Y-44207904D01*
X192228042Y-44136476D01*
X192251852Y-44041238D01*
X192275661Y-43993619D01*
X192323280Y-43946000D01*
X192394709Y-43922190D01*
X192442328Y-43922190D01*
X192513757Y-43946000D01*
X192537566Y-43969809D01*
X192728042Y-43969809D02*
X192751852Y-43946000D01*
X192799471Y-43922190D01*
X192918519Y-43922190D01*
X192966138Y-43946000D01*
X192989947Y-43969809D01*
X193013757Y-44017428D01*
X193013757Y-44065047D01*
X192989947Y-44136476D01*
X192704233Y-44422190D01*
X193013757Y-44422190D01*
G04 #@! TO.C,C3*
X194086966Y-44399971D02*
X194063157Y-44423780D01*
X193991728Y-44447590D01*
X193944109Y-44447590D01*
X193872680Y-44423780D01*
X193825061Y-44376161D01*
X193801252Y-44328542D01*
X193777442Y-44233304D01*
X193777442Y-44161876D01*
X193801252Y-44066638D01*
X193825061Y-44019019D01*
X193872680Y-43971400D01*
X193944109Y-43947590D01*
X193991728Y-43947590D01*
X194063157Y-43971400D01*
X194086966Y-43995209D01*
X194253633Y-43947590D02*
X194563157Y-43947590D01*
X194396490Y-44138066D01*
X194467919Y-44138066D01*
X194515538Y-44161876D01*
X194539347Y-44185685D01*
X194563157Y-44233304D01*
X194563157Y-44352352D01*
X194539347Y-44399971D01*
X194515538Y-44423780D01*
X194467919Y-44447590D01*
X194325061Y-44447590D01*
X194277442Y-44423780D01*
X194253633Y-44399971D01*
G04 #@! TO.C,J1*
D16*
X231098980Y-44656333D02*
X231813266Y-44656333D01*
X231956123Y-44703952D01*
X232051361Y-44799190D01*
X232098980Y-44942047D01*
X232098980Y-45037285D01*
X232098980Y-43656333D02*
X232098980Y-44227761D01*
X232098980Y-43942047D02*
X231098980Y-43942047D01*
X231241838Y-44037285D01*
X231337076Y-44132523D01*
X231384695Y-44227761D01*
G04 #@! TO.C,USB1*
X183123104Y-50400480D02*
X183123104Y-51210004D01*
X183170723Y-51305242D01*
X183218342Y-51352861D01*
X183313580Y-51400480D01*
X183504057Y-51400480D01*
X183599295Y-51352861D01*
X183646914Y-51305242D01*
X183694533Y-51210004D01*
X183694533Y-50400480D01*
X184123104Y-51352861D02*
X184265961Y-51400480D01*
X184504057Y-51400480D01*
X184599295Y-51352861D01*
X184646914Y-51305242D01*
X184694533Y-51210004D01*
X184694533Y-51114766D01*
X184646914Y-51019528D01*
X184599295Y-50971909D01*
X184504057Y-50924290D01*
X184313580Y-50876671D01*
X184218342Y-50829052D01*
X184170723Y-50781433D01*
X184123104Y-50686195D01*
X184123104Y-50590957D01*
X184170723Y-50495719D01*
X184218342Y-50448100D01*
X184313580Y-50400480D01*
X184551676Y-50400480D01*
X184694533Y-50448100D01*
X185456438Y-50876671D02*
X185599295Y-50924290D01*
X185646914Y-50971909D01*
X185694533Y-51067147D01*
X185694533Y-51210004D01*
X185646914Y-51305242D01*
X185599295Y-51352861D01*
X185504057Y-51400480D01*
X185123104Y-51400480D01*
X185123104Y-50400480D01*
X185456438Y-50400480D01*
X185551676Y-50448100D01*
X185599295Y-50495719D01*
X185646914Y-50590957D01*
X185646914Y-50686195D01*
X185599295Y-50781433D01*
X185551676Y-50829052D01*
X185456438Y-50876671D01*
X185123104Y-50876671D01*
X186646914Y-51400480D02*
X186075485Y-51400480D01*
X186361200Y-51400480D02*
X186361200Y-50400480D01*
X186265961Y-50543338D01*
X186170723Y-50638576D01*
X186075485Y-50686195D01*
G04 #@! TO.C,Y1*
X193579809Y-46604590D02*
X193579809Y-47080780D01*
X193246476Y-46080780D02*
X193579809Y-46604590D01*
X193913142Y-46080780D01*
X194770285Y-47080780D02*
X194198857Y-47080780D01*
X194484571Y-47080780D02*
X194484571Y-46080780D01*
X194389333Y-46223638D01*
X194294095Y-46318876D01*
X194198857Y-46366495D01*
G04 #@! TO.C,R2*
D12*
X191805690Y-43161733D02*
X191567595Y-43328400D01*
X191805690Y-43447447D02*
X191305690Y-43447447D01*
X191305690Y-43256971D01*
X191329500Y-43209352D01*
X191353309Y-43185542D01*
X191400928Y-43161733D01*
X191472357Y-43161733D01*
X191519976Y-43185542D01*
X191543785Y-43209352D01*
X191567595Y-43256971D01*
X191567595Y-43447447D01*
X191353309Y-42971257D02*
X191329500Y-42947447D01*
X191305690Y-42899828D01*
X191305690Y-42780780D01*
X191329500Y-42733161D01*
X191353309Y-42709352D01*
X191400928Y-42685542D01*
X191448547Y-42685542D01*
X191519976Y-42709352D01*
X191805690Y-42995066D01*
X191805690Y-42685542D01*
G04 #@! TD*
M02*
