G04 #@! TF.GenerationSoftware,KiCad,Pcbnew,(5.0.2)-1*
G04 #@! TF.CreationDate,2019-04-24T00:03:05-04:00*
G04 #@! TF.ProjectId,4x5macro,3478356d-6163-4726-9f2e-6b696361645f,rev?*
G04 #@! TF.SameCoordinates,Original*
G04 #@! TF.FileFunction,Soldermask,Top*
G04 #@! TF.FilePolarity,Negative*
%FSLAX46Y46*%
G04 Gerber Fmt 4.6, Leading zero omitted, Abs format (unit mm)*
G04 Created by KiCad (PCBNEW (5.0.2)-1) date 4/24/2019 12:03:05 AM*
%MOMM*%
%LPD*%
G01*
G04 APERTURE LIST*
%ADD10C,0.100000*%
G04 APERTURE END LIST*
D10*
G36*
X172103234Y-108710132D02*
X172312702Y-108796896D01*
X172501223Y-108922862D01*
X172661538Y-109083177D01*
X172787504Y-109271698D01*
X172874268Y-109481166D01*
X172918500Y-109703535D01*
X172918500Y-109930265D01*
X172874268Y-110152634D01*
X172787504Y-110362102D01*
X172661538Y-110550623D01*
X172501223Y-110710938D01*
X172312702Y-110836904D01*
X172103234Y-110923668D01*
X171880865Y-110967900D01*
X171654135Y-110967900D01*
X171431766Y-110923668D01*
X171222298Y-110836904D01*
X171033777Y-110710938D01*
X170873462Y-110550623D01*
X170747496Y-110362102D01*
X170660732Y-110152634D01*
X170616500Y-109930265D01*
X170616500Y-109703535D01*
X170660732Y-109481166D01*
X170747496Y-109271698D01*
X170873462Y-109083177D01*
X171033777Y-108922862D01*
X171222298Y-108796896D01*
X171431766Y-108710132D01*
X171654135Y-108665900D01*
X171880865Y-108665900D01*
X172103234Y-108710132D01*
X172103234Y-108710132D01*
G37*
G36*
X253891234Y-108697432D02*
X254100702Y-108784196D01*
X254289223Y-108910162D01*
X254449538Y-109070477D01*
X254575504Y-109258998D01*
X254662268Y-109468466D01*
X254706500Y-109690835D01*
X254706500Y-109917565D01*
X254662268Y-110139934D01*
X254575504Y-110349402D01*
X254449538Y-110537923D01*
X254289223Y-110698238D01*
X254100702Y-110824204D01*
X253891234Y-110910968D01*
X253668865Y-110955200D01*
X253442135Y-110955200D01*
X253219766Y-110910968D01*
X253010298Y-110824204D01*
X252821777Y-110698238D01*
X252661462Y-110537923D01*
X252535496Y-110349402D01*
X252448732Y-110139934D01*
X252404500Y-109917565D01*
X252404500Y-109690835D01*
X252448732Y-109468466D01*
X252535496Y-109258998D01*
X252661462Y-109070477D01*
X252821777Y-108910162D01*
X253010298Y-108784196D01*
X253219766Y-108697432D01*
X253442135Y-108653200D01*
X253668865Y-108653200D01*
X253891234Y-108697432D01*
X253891234Y-108697432D01*
G37*
G36*
X217035834Y-108697432D02*
X217245302Y-108784196D01*
X217433823Y-108910162D01*
X217594138Y-109070477D01*
X217720104Y-109258998D01*
X217806868Y-109468466D01*
X217851100Y-109690835D01*
X217851100Y-109917565D01*
X217806868Y-110139934D01*
X217720104Y-110349402D01*
X217594138Y-110537923D01*
X217433823Y-110698238D01*
X217245302Y-110824204D01*
X217035834Y-110910968D01*
X216813465Y-110955200D01*
X216586735Y-110955200D01*
X216364366Y-110910968D01*
X216154898Y-110824204D01*
X215966377Y-110698238D01*
X215806062Y-110537923D01*
X215680096Y-110349402D01*
X215593332Y-110139934D01*
X215549100Y-109917565D01*
X215549100Y-109690835D01*
X215593332Y-109468466D01*
X215680096Y-109258998D01*
X215806062Y-109070477D01*
X215966377Y-108910162D01*
X216154898Y-108784196D01*
X216364366Y-108697432D01*
X216586735Y-108653200D01*
X216813465Y-108653200D01*
X217035834Y-108697432D01*
X217035834Y-108697432D01*
G37*
G36*
X183120390Y-106444017D02*
X183238861Y-106493089D01*
X183345492Y-106564338D01*
X183436162Y-106655008D01*
X183507411Y-106761639D01*
X183556483Y-106880110D01*
X183581500Y-107005881D01*
X183581500Y-107134119D01*
X183556483Y-107259890D01*
X183507411Y-107378361D01*
X183436162Y-107484992D01*
X183345492Y-107575662D01*
X183238861Y-107646911D01*
X183120390Y-107695983D01*
X182994619Y-107721000D01*
X182866381Y-107721000D01*
X182740610Y-107695983D01*
X182622139Y-107646911D01*
X182515508Y-107575662D01*
X182424838Y-107484992D01*
X182353589Y-107378361D01*
X182304517Y-107259890D01*
X182279500Y-107134119D01*
X182279500Y-107005881D01*
X182304517Y-106880110D01*
X182353589Y-106761639D01*
X182424838Y-106655008D01*
X182515508Y-106564338D01*
X182622139Y-106493089D01*
X182740610Y-106444017D01*
X182866381Y-106419000D01*
X182994619Y-106419000D01*
X183120390Y-106444017D01*
X183120390Y-106444017D01*
G37*
G36*
X240270390Y-106444017D02*
X240388861Y-106493089D01*
X240495492Y-106564338D01*
X240586162Y-106655008D01*
X240657411Y-106761639D01*
X240706483Y-106880110D01*
X240731500Y-107005881D01*
X240731500Y-107134119D01*
X240706483Y-107259890D01*
X240657411Y-107378361D01*
X240586162Y-107484992D01*
X240495492Y-107575662D01*
X240388861Y-107646911D01*
X240270390Y-107695983D01*
X240144619Y-107721000D01*
X240016381Y-107721000D01*
X239890610Y-107695983D01*
X239772139Y-107646911D01*
X239665508Y-107575662D01*
X239574838Y-107484992D01*
X239503589Y-107378361D01*
X239454517Y-107259890D01*
X239429500Y-107134119D01*
X239429500Y-107005881D01*
X239454517Y-106880110D01*
X239503589Y-106761639D01*
X239574838Y-106655008D01*
X239665508Y-106564338D01*
X239772139Y-106493089D01*
X239890610Y-106444017D01*
X240016381Y-106419000D01*
X240144619Y-106419000D01*
X240270390Y-106444017D01*
X240270390Y-106444017D01*
G37*
G36*
X221156890Y-106444017D02*
X221275361Y-106493089D01*
X221381992Y-106564338D01*
X221472662Y-106655008D01*
X221543911Y-106761639D01*
X221592983Y-106880110D01*
X221618000Y-107005881D01*
X221618000Y-107134119D01*
X221592983Y-107259890D01*
X221543911Y-107378361D01*
X221472662Y-107484992D01*
X221381992Y-107575662D01*
X221275361Y-107646911D01*
X221156890Y-107695983D01*
X221031119Y-107721000D01*
X220902881Y-107721000D01*
X220777110Y-107695983D01*
X220658639Y-107646911D01*
X220552008Y-107575662D01*
X220461338Y-107484992D01*
X220390089Y-107378361D01*
X220341017Y-107259890D01*
X220316000Y-107134119D01*
X220316000Y-107005881D01*
X220341017Y-106880110D01*
X220390089Y-106761639D01*
X220461338Y-106655008D01*
X220552008Y-106564338D01*
X220658639Y-106493089D01*
X220777110Y-106444017D01*
X220902881Y-106419000D01*
X221031119Y-106419000D01*
X221156890Y-106444017D01*
X221156890Y-106444017D01*
G37*
G36*
X202170390Y-106444017D02*
X202288861Y-106493089D01*
X202395492Y-106564338D01*
X202486162Y-106655008D01*
X202557411Y-106761639D01*
X202606483Y-106880110D01*
X202631500Y-107005881D01*
X202631500Y-107134119D01*
X202606483Y-107259890D01*
X202557411Y-107378361D01*
X202486162Y-107484992D01*
X202395492Y-107575662D01*
X202288861Y-107646911D01*
X202170390Y-107695983D01*
X202044619Y-107721000D01*
X201916381Y-107721000D01*
X201790610Y-107695983D01*
X201672139Y-107646911D01*
X201565508Y-107575662D01*
X201474838Y-107484992D01*
X201403589Y-107378361D01*
X201354517Y-107259890D01*
X201329500Y-107134119D01*
X201329500Y-107005881D01*
X201354517Y-106880110D01*
X201403589Y-106761639D01*
X201474838Y-106655008D01*
X201565508Y-106564338D01*
X201672139Y-106493089D01*
X201790610Y-106444017D01*
X201916381Y-106419000D01*
X202044619Y-106419000D01*
X202170390Y-106444017D01*
X202170390Y-106444017D01*
G37*
G36*
X188746972Y-100903684D02*
X188746974Y-100903685D01*
X188746975Y-100903685D01*
X189119123Y-101057833D01*
X189454048Y-101281623D01*
X189738877Y-101566452D01*
X189962667Y-101901377D01*
X190073996Y-102170150D01*
X190116816Y-102273528D01*
X190195400Y-102668594D01*
X190195400Y-103071406D01*
X190121216Y-103444354D01*
X190116815Y-103466475D01*
X189962667Y-103838623D01*
X189738877Y-104173548D01*
X189454048Y-104458377D01*
X189119123Y-104682167D01*
X188746975Y-104836315D01*
X188746974Y-104836315D01*
X188746972Y-104836316D01*
X188351906Y-104914900D01*
X187949094Y-104914900D01*
X187554028Y-104836316D01*
X187554026Y-104836315D01*
X187554025Y-104836315D01*
X187181877Y-104682167D01*
X186846952Y-104458377D01*
X186562123Y-104173548D01*
X186338333Y-103838623D01*
X186184185Y-103466475D01*
X186179785Y-103444354D01*
X186105600Y-103071406D01*
X186105600Y-102668594D01*
X186184184Y-102273528D01*
X186227004Y-102170150D01*
X186338333Y-101901377D01*
X186562123Y-101566452D01*
X186846952Y-101281623D01*
X187181877Y-101057833D01*
X187554025Y-100903685D01*
X187554026Y-100903685D01*
X187554028Y-100903684D01*
X187949094Y-100825100D01*
X188351906Y-100825100D01*
X188746972Y-100903684D01*
X188746972Y-100903684D01*
G37*
G36*
X207796972Y-100903684D02*
X207796974Y-100903685D01*
X207796975Y-100903685D01*
X208169123Y-101057833D01*
X208504048Y-101281623D01*
X208788877Y-101566452D01*
X209012667Y-101901377D01*
X209123996Y-102170150D01*
X209166816Y-102273528D01*
X209245400Y-102668594D01*
X209245400Y-103071406D01*
X209171216Y-103444354D01*
X209166815Y-103466475D01*
X209012667Y-103838623D01*
X208788877Y-104173548D01*
X208504048Y-104458377D01*
X208169123Y-104682167D01*
X207796975Y-104836315D01*
X207796974Y-104836315D01*
X207796972Y-104836316D01*
X207401906Y-104914900D01*
X206999094Y-104914900D01*
X206604028Y-104836316D01*
X206604026Y-104836315D01*
X206604025Y-104836315D01*
X206231877Y-104682167D01*
X205896952Y-104458377D01*
X205612123Y-104173548D01*
X205388333Y-103838623D01*
X205234185Y-103466475D01*
X205229785Y-103444354D01*
X205155600Y-103071406D01*
X205155600Y-102668594D01*
X205234184Y-102273528D01*
X205277004Y-102170150D01*
X205388333Y-101901377D01*
X205612123Y-101566452D01*
X205896952Y-101281623D01*
X206231877Y-101057833D01*
X206604025Y-100903685D01*
X206604026Y-100903685D01*
X206604028Y-100903684D01*
X206999094Y-100825100D01*
X207401906Y-100825100D01*
X207796972Y-100903684D01*
X207796972Y-100903684D01*
G37*
G36*
X226783472Y-100903684D02*
X226783474Y-100903685D01*
X226783475Y-100903685D01*
X227155623Y-101057833D01*
X227490548Y-101281623D01*
X227775377Y-101566452D01*
X227999167Y-101901377D01*
X228110496Y-102170150D01*
X228153316Y-102273528D01*
X228231900Y-102668594D01*
X228231900Y-103071406D01*
X228157716Y-103444354D01*
X228153315Y-103466475D01*
X227999167Y-103838623D01*
X227775377Y-104173548D01*
X227490548Y-104458377D01*
X227155623Y-104682167D01*
X226783475Y-104836315D01*
X226783474Y-104836315D01*
X226783472Y-104836316D01*
X226388406Y-104914900D01*
X225985594Y-104914900D01*
X225590528Y-104836316D01*
X225590526Y-104836315D01*
X225590525Y-104836315D01*
X225218377Y-104682167D01*
X224883452Y-104458377D01*
X224598623Y-104173548D01*
X224374833Y-103838623D01*
X224220685Y-103466475D01*
X224216285Y-103444354D01*
X224142100Y-103071406D01*
X224142100Y-102668594D01*
X224220684Y-102273528D01*
X224263504Y-102170150D01*
X224374833Y-101901377D01*
X224598623Y-101566452D01*
X224883452Y-101281623D01*
X225218377Y-101057833D01*
X225590525Y-100903685D01*
X225590526Y-100903685D01*
X225590528Y-100903684D01*
X225985594Y-100825100D01*
X226388406Y-100825100D01*
X226783472Y-100903684D01*
X226783472Y-100903684D01*
G37*
G36*
X245896972Y-100903684D02*
X245896974Y-100903685D01*
X245896975Y-100903685D01*
X246269123Y-101057833D01*
X246604048Y-101281623D01*
X246888877Y-101566452D01*
X247112667Y-101901377D01*
X247223996Y-102170150D01*
X247266816Y-102273528D01*
X247345400Y-102668594D01*
X247345400Y-103071406D01*
X247271216Y-103444354D01*
X247266815Y-103466475D01*
X247112667Y-103838623D01*
X246888877Y-104173548D01*
X246604048Y-104458377D01*
X246269123Y-104682167D01*
X245896975Y-104836315D01*
X245896974Y-104836315D01*
X245896972Y-104836316D01*
X245501906Y-104914900D01*
X245099094Y-104914900D01*
X244704028Y-104836316D01*
X244704026Y-104836315D01*
X244704025Y-104836315D01*
X244331877Y-104682167D01*
X243996952Y-104458377D01*
X243712123Y-104173548D01*
X243488333Y-103838623D01*
X243334185Y-103466475D01*
X243329785Y-103444354D01*
X243255600Y-103071406D01*
X243255600Y-102668594D01*
X243334184Y-102273528D01*
X243377004Y-102170150D01*
X243488333Y-101901377D01*
X243712123Y-101566452D01*
X243996952Y-101281623D01*
X244331877Y-101057833D01*
X244704025Y-100903685D01*
X244704026Y-100903685D01*
X244704028Y-100903684D01*
X245099094Y-100825100D01*
X245501906Y-100825100D01*
X245896972Y-100903684D01*
X245896972Y-100903684D01*
G37*
G36*
X193480200Y-101975526D02*
X193504571Y-101977927D01*
X193528950Y-101975526D01*
X193561759Y-101969000D01*
X193739241Y-101969000D01*
X193913312Y-102003624D01*
X194077284Y-102071544D01*
X194224854Y-102170147D01*
X194350353Y-102295646D01*
X194448956Y-102443216D01*
X194516876Y-102607188D01*
X194551500Y-102781259D01*
X194551500Y-102958741D01*
X194516876Y-103132812D01*
X194448956Y-103296784D01*
X194350353Y-103444354D01*
X194224854Y-103569853D01*
X194077284Y-103668456D01*
X193913312Y-103736376D01*
X193739241Y-103771000D01*
X193561759Y-103771000D01*
X193528950Y-103764474D01*
X193504574Y-103762073D01*
X193480200Y-103764474D01*
X193321703Y-103796000D01*
X193139297Y-103796000D01*
X192960396Y-103760415D01*
X192791874Y-103690611D01*
X192640209Y-103589272D01*
X192511228Y-103460291D01*
X192409889Y-103308626D01*
X192340085Y-103140104D01*
X192304500Y-102961203D01*
X192304500Y-102778797D01*
X192340085Y-102599896D01*
X192409889Y-102431374D01*
X192511228Y-102279709D01*
X192640209Y-102150728D01*
X192791874Y-102049389D01*
X192960396Y-101979585D01*
X193139297Y-101944000D01*
X193321703Y-101944000D01*
X193480200Y-101975526D01*
X193480200Y-101975526D01*
G37*
G36*
X183340604Y-101979585D02*
X183509126Y-102049389D01*
X183660791Y-102150728D01*
X183789772Y-102279709D01*
X183891111Y-102431374D01*
X183960915Y-102599896D01*
X183996500Y-102778797D01*
X183996500Y-102961203D01*
X183960915Y-103140104D01*
X183891111Y-103308626D01*
X183789772Y-103460291D01*
X183660791Y-103589272D01*
X183509126Y-103690611D01*
X183340604Y-103760415D01*
X183161703Y-103796000D01*
X182979297Y-103796000D01*
X182820800Y-103764474D01*
X182796429Y-103762073D01*
X182772050Y-103764474D01*
X182739241Y-103771000D01*
X182561759Y-103771000D01*
X182387688Y-103736376D01*
X182223716Y-103668456D01*
X182076146Y-103569853D01*
X181950647Y-103444354D01*
X181852044Y-103296784D01*
X181784124Y-103132812D01*
X181749500Y-102958741D01*
X181749500Y-102781259D01*
X181784124Y-102607188D01*
X181852044Y-102443216D01*
X181950647Y-102295646D01*
X182076146Y-102170147D01*
X182223716Y-102071544D01*
X182387688Y-102003624D01*
X182561759Y-101969000D01*
X182739241Y-101969000D01*
X182772050Y-101975526D01*
X182796426Y-101977927D01*
X182820800Y-101975526D01*
X182979297Y-101944000D01*
X183161703Y-101944000D01*
X183340604Y-101979585D01*
X183340604Y-101979585D01*
G37*
G36*
X240490604Y-101979585D02*
X240659126Y-102049389D01*
X240810791Y-102150728D01*
X240939772Y-102279709D01*
X241041111Y-102431374D01*
X241110915Y-102599896D01*
X241146500Y-102778797D01*
X241146500Y-102961203D01*
X241110915Y-103140104D01*
X241041111Y-103308626D01*
X240939772Y-103460291D01*
X240810791Y-103589272D01*
X240659126Y-103690611D01*
X240490604Y-103760415D01*
X240311703Y-103796000D01*
X240129297Y-103796000D01*
X239970800Y-103764474D01*
X239946429Y-103762073D01*
X239922050Y-103764474D01*
X239889241Y-103771000D01*
X239711759Y-103771000D01*
X239537688Y-103736376D01*
X239373716Y-103668456D01*
X239226146Y-103569853D01*
X239100647Y-103444354D01*
X239002044Y-103296784D01*
X238934124Y-103132812D01*
X238899500Y-102958741D01*
X238899500Y-102781259D01*
X238934124Y-102607188D01*
X239002044Y-102443216D01*
X239100647Y-102295646D01*
X239226146Y-102170147D01*
X239373716Y-102071544D01*
X239537688Y-102003624D01*
X239711759Y-101969000D01*
X239889241Y-101969000D01*
X239922050Y-101975526D01*
X239946426Y-101977927D01*
X239970800Y-101975526D01*
X240129297Y-101944000D01*
X240311703Y-101944000D01*
X240490604Y-101979585D01*
X240490604Y-101979585D01*
G37*
G36*
X202390604Y-101979585D02*
X202559126Y-102049389D01*
X202710791Y-102150728D01*
X202839772Y-102279709D01*
X202941111Y-102431374D01*
X203010915Y-102599896D01*
X203046500Y-102778797D01*
X203046500Y-102961203D01*
X203010915Y-103140104D01*
X202941111Y-103308626D01*
X202839772Y-103460291D01*
X202710791Y-103589272D01*
X202559126Y-103690611D01*
X202390604Y-103760415D01*
X202211703Y-103796000D01*
X202029297Y-103796000D01*
X201870800Y-103764474D01*
X201846429Y-103762073D01*
X201822050Y-103764474D01*
X201789241Y-103771000D01*
X201611759Y-103771000D01*
X201437688Y-103736376D01*
X201273716Y-103668456D01*
X201126146Y-103569853D01*
X201000647Y-103444354D01*
X200902044Y-103296784D01*
X200834124Y-103132812D01*
X200799500Y-102958741D01*
X200799500Y-102781259D01*
X200834124Y-102607188D01*
X200902044Y-102443216D01*
X201000647Y-102295646D01*
X201126146Y-102170147D01*
X201273716Y-102071544D01*
X201437688Y-102003624D01*
X201611759Y-101969000D01*
X201789241Y-101969000D01*
X201822050Y-101975526D01*
X201846426Y-101977927D01*
X201870800Y-101975526D01*
X202029297Y-101944000D01*
X202211703Y-101944000D01*
X202390604Y-101979585D01*
X202390604Y-101979585D01*
G37*
G36*
X221377104Y-101979585D02*
X221545626Y-102049389D01*
X221697291Y-102150728D01*
X221826272Y-102279709D01*
X221927611Y-102431374D01*
X221997415Y-102599896D01*
X222033000Y-102778797D01*
X222033000Y-102961203D01*
X221997415Y-103140104D01*
X221927611Y-103308626D01*
X221826272Y-103460291D01*
X221697291Y-103589272D01*
X221545626Y-103690611D01*
X221377104Y-103760415D01*
X221198203Y-103796000D01*
X221015797Y-103796000D01*
X220857300Y-103764474D01*
X220832929Y-103762073D01*
X220808550Y-103764474D01*
X220775741Y-103771000D01*
X220598259Y-103771000D01*
X220424188Y-103736376D01*
X220260216Y-103668456D01*
X220112646Y-103569853D01*
X219987147Y-103444354D01*
X219888544Y-103296784D01*
X219820624Y-103132812D01*
X219786000Y-102958741D01*
X219786000Y-102781259D01*
X219820624Y-102607188D01*
X219888544Y-102443216D01*
X219987147Y-102295646D01*
X220112646Y-102170147D01*
X220260216Y-102071544D01*
X220424188Y-102003624D01*
X220598259Y-101969000D01*
X220775741Y-101969000D01*
X220808550Y-101975526D01*
X220832926Y-101977927D01*
X220857300Y-101975526D01*
X221015797Y-101944000D01*
X221198203Y-101944000D01*
X221377104Y-101979585D01*
X221377104Y-101979585D01*
G37*
G36*
X212530200Y-101975526D02*
X212554571Y-101977927D01*
X212578950Y-101975526D01*
X212611759Y-101969000D01*
X212789241Y-101969000D01*
X212963312Y-102003624D01*
X213127284Y-102071544D01*
X213274854Y-102170147D01*
X213400353Y-102295646D01*
X213498956Y-102443216D01*
X213566876Y-102607188D01*
X213601500Y-102781259D01*
X213601500Y-102958741D01*
X213566876Y-103132812D01*
X213498956Y-103296784D01*
X213400353Y-103444354D01*
X213274854Y-103569853D01*
X213127284Y-103668456D01*
X212963312Y-103736376D01*
X212789241Y-103771000D01*
X212611759Y-103771000D01*
X212578950Y-103764474D01*
X212554574Y-103762073D01*
X212530200Y-103764474D01*
X212371703Y-103796000D01*
X212189297Y-103796000D01*
X212010396Y-103760415D01*
X211841874Y-103690611D01*
X211690209Y-103589272D01*
X211561228Y-103460291D01*
X211459889Y-103308626D01*
X211390085Y-103140104D01*
X211354500Y-102961203D01*
X211354500Y-102778797D01*
X211390085Y-102599896D01*
X211459889Y-102431374D01*
X211561228Y-102279709D01*
X211690209Y-102150728D01*
X211841874Y-102049389D01*
X212010396Y-101979585D01*
X212189297Y-101944000D01*
X212371703Y-101944000D01*
X212530200Y-101975526D01*
X212530200Y-101975526D01*
G37*
G36*
X250630200Y-101975526D02*
X250654571Y-101977927D01*
X250678950Y-101975526D01*
X250711759Y-101969000D01*
X250889241Y-101969000D01*
X251063312Y-102003624D01*
X251227284Y-102071544D01*
X251374854Y-102170147D01*
X251500353Y-102295646D01*
X251598956Y-102443216D01*
X251666876Y-102607188D01*
X251701500Y-102781259D01*
X251701500Y-102958741D01*
X251666876Y-103132812D01*
X251598956Y-103296784D01*
X251500353Y-103444354D01*
X251374854Y-103569853D01*
X251227284Y-103668456D01*
X251063312Y-103736376D01*
X250889241Y-103771000D01*
X250711759Y-103771000D01*
X250678950Y-103764474D01*
X250654574Y-103762073D01*
X250630200Y-103764474D01*
X250471703Y-103796000D01*
X250289297Y-103796000D01*
X250110396Y-103760415D01*
X249941874Y-103690611D01*
X249790209Y-103589272D01*
X249661228Y-103460291D01*
X249559889Y-103308626D01*
X249490085Y-103140104D01*
X249454500Y-102961203D01*
X249454500Y-102778797D01*
X249490085Y-102599896D01*
X249559889Y-102431374D01*
X249661228Y-102279709D01*
X249790209Y-102150728D01*
X249941874Y-102049389D01*
X250110396Y-101979585D01*
X250289297Y-101944000D01*
X250471703Y-101944000D01*
X250630200Y-101975526D01*
X250630200Y-101975526D01*
G37*
G36*
X231516700Y-101975526D02*
X231541071Y-101977927D01*
X231565450Y-101975526D01*
X231598259Y-101969000D01*
X231775741Y-101969000D01*
X231949812Y-102003624D01*
X232113784Y-102071544D01*
X232261354Y-102170147D01*
X232386853Y-102295646D01*
X232485456Y-102443216D01*
X232553376Y-102607188D01*
X232588000Y-102781259D01*
X232588000Y-102958741D01*
X232553376Y-103132812D01*
X232485456Y-103296784D01*
X232386853Y-103444354D01*
X232261354Y-103569853D01*
X232113784Y-103668456D01*
X231949812Y-103736376D01*
X231775741Y-103771000D01*
X231598259Y-103771000D01*
X231565450Y-103764474D01*
X231541074Y-103762073D01*
X231516700Y-103764474D01*
X231358203Y-103796000D01*
X231175797Y-103796000D01*
X230996896Y-103760415D01*
X230828374Y-103690611D01*
X230676709Y-103589272D01*
X230547728Y-103460291D01*
X230446389Y-103308626D01*
X230376585Y-103140104D01*
X230341000Y-102961203D01*
X230341000Y-102778797D01*
X230376585Y-102599896D01*
X230446389Y-102431374D01*
X230547728Y-102279709D01*
X230676709Y-102150728D01*
X230828374Y-102049389D01*
X230996896Y-101979585D01*
X231175797Y-101944000D01*
X231358203Y-101944000D01*
X231516700Y-101975526D01*
X231516700Y-101975526D01*
G37*
G36*
X184554430Y-99173514D02*
X184683527Y-99199193D01*
X184897545Y-99287842D01*
X185030328Y-99376565D01*
X185090159Y-99416543D01*
X185253957Y-99580341D01*
X185253959Y-99580344D01*
X185382658Y-99772955D01*
X185471307Y-99986973D01*
X185516500Y-100214174D01*
X185516500Y-100445826D01*
X185471307Y-100673027D01*
X185382658Y-100887045D01*
X185371540Y-100903684D01*
X185253957Y-101079659D01*
X185090159Y-101243457D01*
X185090156Y-101243459D01*
X184897545Y-101372158D01*
X184683527Y-101460807D01*
X184569926Y-101483404D01*
X184456327Y-101506000D01*
X184224673Y-101506000D01*
X184111074Y-101483404D01*
X183997473Y-101460807D01*
X183783455Y-101372158D01*
X183590844Y-101243459D01*
X183590841Y-101243457D01*
X183427043Y-101079659D01*
X183309460Y-100903684D01*
X183298342Y-100887045D01*
X183209693Y-100673027D01*
X183164500Y-100445826D01*
X183164500Y-100214174D01*
X183209693Y-99986973D01*
X183298342Y-99772955D01*
X183427041Y-99580344D01*
X183427043Y-99580341D01*
X183590841Y-99416543D01*
X183650672Y-99376565D01*
X183783455Y-99287842D01*
X183997473Y-99199193D01*
X184126570Y-99173514D01*
X184224673Y-99154000D01*
X184456327Y-99154000D01*
X184554430Y-99173514D01*
X184554430Y-99173514D01*
G37*
G36*
X241704430Y-99173514D02*
X241833527Y-99199193D01*
X242047545Y-99287842D01*
X242180328Y-99376565D01*
X242240159Y-99416543D01*
X242403957Y-99580341D01*
X242403959Y-99580344D01*
X242532658Y-99772955D01*
X242621307Y-99986973D01*
X242666500Y-100214174D01*
X242666500Y-100445826D01*
X242621307Y-100673027D01*
X242532658Y-100887045D01*
X242521540Y-100903684D01*
X242403957Y-101079659D01*
X242240159Y-101243457D01*
X242240156Y-101243459D01*
X242047545Y-101372158D01*
X241833527Y-101460807D01*
X241719926Y-101483404D01*
X241606327Y-101506000D01*
X241374673Y-101506000D01*
X241261074Y-101483404D01*
X241147473Y-101460807D01*
X240933455Y-101372158D01*
X240740844Y-101243459D01*
X240740841Y-101243457D01*
X240577043Y-101079659D01*
X240459460Y-100903684D01*
X240448342Y-100887045D01*
X240359693Y-100673027D01*
X240314500Y-100445826D01*
X240314500Y-100214174D01*
X240359693Y-99986973D01*
X240448342Y-99772955D01*
X240577041Y-99580344D01*
X240577043Y-99580341D01*
X240740841Y-99416543D01*
X240800672Y-99376565D01*
X240933455Y-99287842D01*
X241147473Y-99199193D01*
X241276570Y-99173514D01*
X241374673Y-99154000D01*
X241606327Y-99154000D01*
X241704430Y-99173514D01*
X241704430Y-99173514D01*
G37*
G36*
X203604430Y-99173514D02*
X203733527Y-99199193D01*
X203947545Y-99287842D01*
X204080328Y-99376565D01*
X204140159Y-99416543D01*
X204303957Y-99580341D01*
X204303959Y-99580344D01*
X204432658Y-99772955D01*
X204521307Y-99986973D01*
X204566500Y-100214174D01*
X204566500Y-100445826D01*
X204521307Y-100673027D01*
X204432658Y-100887045D01*
X204421540Y-100903684D01*
X204303957Y-101079659D01*
X204140159Y-101243457D01*
X204140156Y-101243459D01*
X203947545Y-101372158D01*
X203733527Y-101460807D01*
X203619926Y-101483404D01*
X203506327Y-101506000D01*
X203274673Y-101506000D01*
X203161074Y-101483404D01*
X203047473Y-101460807D01*
X202833455Y-101372158D01*
X202640844Y-101243459D01*
X202640841Y-101243457D01*
X202477043Y-101079659D01*
X202359460Y-100903684D01*
X202348342Y-100887045D01*
X202259693Y-100673027D01*
X202214500Y-100445826D01*
X202214500Y-100214174D01*
X202259693Y-99986973D01*
X202348342Y-99772955D01*
X202477041Y-99580344D01*
X202477043Y-99580341D01*
X202640841Y-99416543D01*
X202700672Y-99376565D01*
X202833455Y-99287842D01*
X203047473Y-99199193D01*
X203176570Y-99173514D01*
X203274673Y-99154000D01*
X203506327Y-99154000D01*
X203604430Y-99173514D01*
X203604430Y-99173514D01*
G37*
G36*
X222590930Y-99173514D02*
X222720027Y-99199193D01*
X222934045Y-99287842D01*
X223066828Y-99376565D01*
X223126659Y-99416543D01*
X223290457Y-99580341D01*
X223290459Y-99580344D01*
X223419158Y-99772955D01*
X223507807Y-99986973D01*
X223553000Y-100214174D01*
X223553000Y-100445826D01*
X223507807Y-100673027D01*
X223419158Y-100887045D01*
X223408040Y-100903684D01*
X223290457Y-101079659D01*
X223126659Y-101243457D01*
X223126656Y-101243459D01*
X222934045Y-101372158D01*
X222720027Y-101460807D01*
X222606426Y-101483404D01*
X222492827Y-101506000D01*
X222261173Y-101506000D01*
X222147574Y-101483404D01*
X222033973Y-101460807D01*
X221819955Y-101372158D01*
X221627344Y-101243459D01*
X221627341Y-101243457D01*
X221463543Y-101079659D01*
X221345960Y-100903684D01*
X221334842Y-100887045D01*
X221246193Y-100673027D01*
X221201000Y-100445826D01*
X221201000Y-100214174D01*
X221246193Y-99986973D01*
X221334842Y-99772955D01*
X221463541Y-99580344D01*
X221463543Y-99580341D01*
X221627341Y-99416543D01*
X221687172Y-99376565D01*
X221819955Y-99287842D01*
X222033973Y-99199193D01*
X222163070Y-99173514D01*
X222261173Y-99154000D01*
X222492827Y-99154000D01*
X222590930Y-99173514D01*
X222590930Y-99173514D01*
G37*
G36*
X231493565Y-98059389D02*
X231684834Y-98138615D01*
X231856976Y-98253637D01*
X232003363Y-98400024D01*
X232118385Y-98572166D01*
X232197611Y-98763435D01*
X232238000Y-98966484D01*
X232238000Y-99173516D01*
X232197611Y-99376565D01*
X232118385Y-99567834D01*
X232003363Y-99739976D01*
X231856976Y-99886363D01*
X231684834Y-100001385D01*
X231493565Y-100080611D01*
X231290516Y-100121000D01*
X231083484Y-100121000D01*
X230880435Y-100080611D01*
X230689166Y-100001385D01*
X230517024Y-99886363D01*
X230370637Y-99739976D01*
X230255615Y-99567834D01*
X230176389Y-99376565D01*
X230136000Y-99173516D01*
X230136000Y-98966484D01*
X230176389Y-98763435D01*
X230255615Y-98572166D01*
X230370637Y-98400024D01*
X230517024Y-98253637D01*
X230689166Y-98138615D01*
X230880435Y-98059389D01*
X231083484Y-98019000D01*
X231290516Y-98019000D01*
X231493565Y-98059389D01*
X231493565Y-98059389D01*
G37*
G36*
X193457065Y-98059389D02*
X193648334Y-98138615D01*
X193820476Y-98253637D01*
X193966863Y-98400024D01*
X194081885Y-98572166D01*
X194161111Y-98763435D01*
X194201500Y-98966484D01*
X194201500Y-99173516D01*
X194161111Y-99376565D01*
X194081885Y-99567834D01*
X193966863Y-99739976D01*
X193820476Y-99886363D01*
X193648334Y-100001385D01*
X193457065Y-100080611D01*
X193254016Y-100121000D01*
X193046984Y-100121000D01*
X192843935Y-100080611D01*
X192652666Y-100001385D01*
X192480524Y-99886363D01*
X192334137Y-99739976D01*
X192219115Y-99567834D01*
X192139889Y-99376565D01*
X192099500Y-99173516D01*
X192099500Y-98966484D01*
X192139889Y-98763435D01*
X192219115Y-98572166D01*
X192334137Y-98400024D01*
X192480524Y-98253637D01*
X192652666Y-98138615D01*
X192843935Y-98059389D01*
X193046984Y-98019000D01*
X193254016Y-98019000D01*
X193457065Y-98059389D01*
X193457065Y-98059389D01*
G37*
G36*
X212507065Y-98059389D02*
X212698334Y-98138615D01*
X212870476Y-98253637D01*
X213016863Y-98400024D01*
X213131885Y-98572166D01*
X213211111Y-98763435D01*
X213251500Y-98966484D01*
X213251500Y-99173516D01*
X213211111Y-99376565D01*
X213131885Y-99567834D01*
X213016863Y-99739976D01*
X212870476Y-99886363D01*
X212698334Y-100001385D01*
X212507065Y-100080611D01*
X212304016Y-100121000D01*
X212096984Y-100121000D01*
X211893935Y-100080611D01*
X211702666Y-100001385D01*
X211530524Y-99886363D01*
X211384137Y-99739976D01*
X211269115Y-99567834D01*
X211189889Y-99376565D01*
X211149500Y-99173516D01*
X211149500Y-98966484D01*
X211189889Y-98763435D01*
X211269115Y-98572166D01*
X211384137Y-98400024D01*
X211530524Y-98253637D01*
X211702666Y-98138615D01*
X211893935Y-98059389D01*
X212096984Y-98019000D01*
X212304016Y-98019000D01*
X212507065Y-98059389D01*
X212507065Y-98059389D01*
G37*
G36*
X250607065Y-98059389D02*
X250798334Y-98138615D01*
X250970476Y-98253637D01*
X251116863Y-98400024D01*
X251231885Y-98572166D01*
X251311111Y-98763435D01*
X251351500Y-98966484D01*
X251351500Y-99173516D01*
X251311111Y-99376565D01*
X251231885Y-99567834D01*
X251116863Y-99739976D01*
X250970476Y-99886363D01*
X250798334Y-100001385D01*
X250607065Y-100080611D01*
X250404016Y-100121000D01*
X250196984Y-100121000D01*
X249993935Y-100080611D01*
X249802666Y-100001385D01*
X249630524Y-99886363D01*
X249484137Y-99739976D01*
X249369115Y-99567834D01*
X249289889Y-99376565D01*
X249249500Y-99173516D01*
X249249500Y-98966484D01*
X249289889Y-98763435D01*
X249369115Y-98572166D01*
X249484137Y-98400024D01*
X249630524Y-98253637D01*
X249802666Y-98138615D01*
X249993935Y-98059389D01*
X250196984Y-98019000D01*
X250404016Y-98019000D01*
X250607065Y-98059389D01*
X250607065Y-98059389D01*
G37*
G36*
X248069927Y-96636597D02*
X248183527Y-96659193D01*
X248397545Y-96747842D01*
X248504040Y-96819000D01*
X248590159Y-96876543D01*
X248753957Y-97040341D01*
X248753959Y-97040344D01*
X248882658Y-97232955D01*
X248971307Y-97446973D01*
X249016500Y-97674174D01*
X249016500Y-97905826D01*
X248971307Y-98133027D01*
X248882658Y-98347045D01*
X248847258Y-98400024D01*
X248753957Y-98539659D01*
X248590159Y-98703457D01*
X248590156Y-98703459D01*
X248397545Y-98832158D01*
X248183527Y-98920807D01*
X248069926Y-98943404D01*
X247956327Y-98966000D01*
X247724673Y-98966000D01*
X247611074Y-98943404D01*
X247497473Y-98920807D01*
X247283455Y-98832158D01*
X247090844Y-98703459D01*
X247090841Y-98703457D01*
X246927043Y-98539659D01*
X246833742Y-98400024D01*
X246798342Y-98347045D01*
X246709693Y-98133027D01*
X246664500Y-97905826D01*
X246664500Y-97674174D01*
X246709693Y-97446973D01*
X246798342Y-97232955D01*
X246927041Y-97040344D01*
X246927043Y-97040341D01*
X247090841Y-96876543D01*
X247176960Y-96819000D01*
X247283455Y-96747842D01*
X247497473Y-96659193D01*
X247611073Y-96636597D01*
X247724673Y-96614000D01*
X247956327Y-96614000D01*
X248069927Y-96636597D01*
X248069927Y-96636597D01*
G37*
G36*
X209969927Y-96636597D02*
X210083527Y-96659193D01*
X210297545Y-96747842D01*
X210404040Y-96819000D01*
X210490159Y-96876543D01*
X210653957Y-97040341D01*
X210653959Y-97040344D01*
X210782658Y-97232955D01*
X210871307Y-97446973D01*
X210916500Y-97674174D01*
X210916500Y-97905826D01*
X210871307Y-98133027D01*
X210782658Y-98347045D01*
X210747258Y-98400024D01*
X210653957Y-98539659D01*
X210490159Y-98703457D01*
X210490156Y-98703459D01*
X210297545Y-98832158D01*
X210083527Y-98920807D01*
X209969926Y-98943404D01*
X209856327Y-98966000D01*
X209624673Y-98966000D01*
X209511074Y-98943404D01*
X209397473Y-98920807D01*
X209183455Y-98832158D01*
X208990844Y-98703459D01*
X208990841Y-98703457D01*
X208827043Y-98539659D01*
X208733742Y-98400024D01*
X208698342Y-98347045D01*
X208609693Y-98133027D01*
X208564500Y-97905826D01*
X208564500Y-97674174D01*
X208609693Y-97446973D01*
X208698342Y-97232955D01*
X208827041Y-97040344D01*
X208827043Y-97040341D01*
X208990841Y-96876543D01*
X209076960Y-96819000D01*
X209183455Y-96747842D01*
X209397473Y-96659193D01*
X209511073Y-96636597D01*
X209624673Y-96614000D01*
X209856327Y-96614000D01*
X209969927Y-96636597D01*
X209969927Y-96636597D01*
G37*
G36*
X190919927Y-96636597D02*
X191033527Y-96659193D01*
X191247545Y-96747842D01*
X191354040Y-96819000D01*
X191440159Y-96876543D01*
X191603957Y-97040341D01*
X191603959Y-97040344D01*
X191732658Y-97232955D01*
X191821307Y-97446973D01*
X191866500Y-97674174D01*
X191866500Y-97905826D01*
X191821307Y-98133027D01*
X191732658Y-98347045D01*
X191697258Y-98400024D01*
X191603957Y-98539659D01*
X191440159Y-98703457D01*
X191440156Y-98703459D01*
X191247545Y-98832158D01*
X191033527Y-98920807D01*
X190919926Y-98943404D01*
X190806327Y-98966000D01*
X190574673Y-98966000D01*
X190461074Y-98943404D01*
X190347473Y-98920807D01*
X190133455Y-98832158D01*
X189940844Y-98703459D01*
X189940841Y-98703457D01*
X189777043Y-98539659D01*
X189683742Y-98400024D01*
X189648342Y-98347045D01*
X189559693Y-98133027D01*
X189514500Y-97905826D01*
X189514500Y-97674174D01*
X189559693Y-97446973D01*
X189648342Y-97232955D01*
X189777041Y-97040344D01*
X189777043Y-97040341D01*
X189940841Y-96876543D01*
X190026960Y-96819000D01*
X190133455Y-96747842D01*
X190347473Y-96659193D01*
X190461073Y-96636597D01*
X190574673Y-96614000D01*
X190806327Y-96614000D01*
X190919927Y-96636597D01*
X190919927Y-96636597D01*
G37*
G36*
X228956427Y-96636597D02*
X229070027Y-96659193D01*
X229284045Y-96747842D01*
X229390540Y-96819000D01*
X229476659Y-96876543D01*
X229640457Y-97040341D01*
X229640459Y-97040344D01*
X229769158Y-97232955D01*
X229857807Y-97446973D01*
X229903000Y-97674174D01*
X229903000Y-97905826D01*
X229857807Y-98133027D01*
X229769158Y-98347045D01*
X229733758Y-98400024D01*
X229640457Y-98539659D01*
X229476659Y-98703457D01*
X229476656Y-98703459D01*
X229284045Y-98832158D01*
X229070027Y-98920807D01*
X228956426Y-98943404D01*
X228842827Y-98966000D01*
X228611173Y-98966000D01*
X228497574Y-98943404D01*
X228383973Y-98920807D01*
X228169955Y-98832158D01*
X227977344Y-98703459D01*
X227977341Y-98703457D01*
X227813543Y-98539659D01*
X227720242Y-98400024D01*
X227684842Y-98347045D01*
X227596193Y-98133027D01*
X227551000Y-97905826D01*
X227551000Y-97674174D01*
X227596193Y-97446973D01*
X227684842Y-97232955D01*
X227813541Y-97040344D01*
X227813543Y-97040341D01*
X227977341Y-96876543D01*
X228063460Y-96819000D01*
X228169955Y-96747842D01*
X228383973Y-96659193D01*
X228497573Y-96636597D01*
X228611173Y-96614000D01*
X228842827Y-96614000D01*
X228956427Y-96636597D01*
X228956427Y-96636597D01*
G37*
G36*
X226493565Y-96859389D02*
X226684834Y-96938615D01*
X226856976Y-97053637D01*
X227003363Y-97200024D01*
X227118385Y-97372166D01*
X227197611Y-97563435D01*
X227238000Y-97766484D01*
X227238000Y-97973516D01*
X227197611Y-98176565D01*
X227118385Y-98367834D01*
X227003363Y-98539976D01*
X226856976Y-98686363D01*
X226684834Y-98801385D01*
X226493565Y-98880611D01*
X226290516Y-98921000D01*
X226083484Y-98921000D01*
X225880435Y-98880611D01*
X225689166Y-98801385D01*
X225517024Y-98686363D01*
X225370637Y-98539976D01*
X225255615Y-98367834D01*
X225176389Y-98176565D01*
X225136000Y-97973516D01*
X225136000Y-97766484D01*
X225176389Y-97563435D01*
X225255615Y-97372166D01*
X225370637Y-97200024D01*
X225517024Y-97053637D01*
X225689166Y-96938615D01*
X225880435Y-96859389D01*
X226083484Y-96819000D01*
X226290516Y-96819000D01*
X226493565Y-96859389D01*
X226493565Y-96859389D01*
G37*
G36*
X245607065Y-96859389D02*
X245798334Y-96938615D01*
X245970476Y-97053637D01*
X246116863Y-97200024D01*
X246231885Y-97372166D01*
X246311111Y-97563435D01*
X246351500Y-97766484D01*
X246351500Y-97973516D01*
X246311111Y-98176565D01*
X246231885Y-98367834D01*
X246116863Y-98539976D01*
X245970476Y-98686363D01*
X245798334Y-98801385D01*
X245607065Y-98880611D01*
X245404016Y-98921000D01*
X245196984Y-98921000D01*
X244993935Y-98880611D01*
X244802666Y-98801385D01*
X244630524Y-98686363D01*
X244484137Y-98539976D01*
X244369115Y-98367834D01*
X244289889Y-98176565D01*
X244249500Y-97973516D01*
X244249500Y-97766484D01*
X244289889Y-97563435D01*
X244369115Y-97372166D01*
X244484137Y-97200024D01*
X244630524Y-97053637D01*
X244802666Y-96938615D01*
X244993935Y-96859389D01*
X245196984Y-96819000D01*
X245404016Y-96819000D01*
X245607065Y-96859389D01*
X245607065Y-96859389D01*
G37*
G36*
X207507065Y-96859389D02*
X207698334Y-96938615D01*
X207870476Y-97053637D01*
X208016863Y-97200024D01*
X208131885Y-97372166D01*
X208211111Y-97563435D01*
X208251500Y-97766484D01*
X208251500Y-97973516D01*
X208211111Y-98176565D01*
X208131885Y-98367834D01*
X208016863Y-98539976D01*
X207870476Y-98686363D01*
X207698334Y-98801385D01*
X207507065Y-98880611D01*
X207304016Y-98921000D01*
X207096984Y-98921000D01*
X206893935Y-98880611D01*
X206702666Y-98801385D01*
X206530524Y-98686363D01*
X206384137Y-98539976D01*
X206269115Y-98367834D01*
X206189889Y-98176565D01*
X206149500Y-97973516D01*
X206149500Y-97766484D01*
X206189889Y-97563435D01*
X206269115Y-97372166D01*
X206384137Y-97200024D01*
X206530524Y-97053637D01*
X206702666Y-96938615D01*
X206893935Y-96859389D01*
X207096984Y-96819000D01*
X207304016Y-96819000D01*
X207507065Y-96859389D01*
X207507065Y-96859389D01*
G37*
G36*
X188457065Y-96859389D02*
X188648334Y-96938615D01*
X188820476Y-97053637D01*
X188966863Y-97200024D01*
X189081885Y-97372166D01*
X189161111Y-97563435D01*
X189201500Y-97766484D01*
X189201500Y-97973516D01*
X189161111Y-98176565D01*
X189081885Y-98367834D01*
X188966863Y-98539976D01*
X188820476Y-98686363D01*
X188648334Y-98801385D01*
X188457065Y-98880611D01*
X188254016Y-98921000D01*
X188046984Y-98921000D01*
X187843935Y-98880611D01*
X187652666Y-98801385D01*
X187480524Y-98686363D01*
X187334137Y-98539976D01*
X187219115Y-98367834D01*
X187139889Y-98176565D01*
X187099500Y-97973516D01*
X187099500Y-97766484D01*
X187139889Y-97563435D01*
X187219115Y-97372166D01*
X187334137Y-97200024D01*
X187480524Y-97053637D01*
X187652666Y-96938615D01*
X187843935Y-96859389D01*
X188046984Y-96819000D01*
X188254016Y-96819000D01*
X188457065Y-96859389D01*
X188457065Y-96859389D01*
G37*
G36*
X177075900Y-95064200D02*
X175473900Y-95064200D01*
X175473900Y-93962200D01*
X177075900Y-93962200D01*
X177075900Y-95064200D01*
X177075900Y-95064200D01*
G37*
G36*
X172175900Y-95064200D02*
X170573900Y-95064200D01*
X170573900Y-93962200D01*
X172175900Y-93962200D01*
X172175900Y-95064200D01*
X172175900Y-95064200D01*
G37*
G36*
X207950000Y-94856500D02*
X206451000Y-94856500D01*
X206451000Y-93357500D01*
X207950000Y-93357500D01*
X207950000Y-94856500D01*
X207950000Y-94856500D01*
G37*
G36*
X204648000Y-94856500D02*
X203149000Y-94856500D01*
X203149000Y-93357500D01*
X204648000Y-93357500D01*
X204648000Y-94856500D01*
X204648000Y-94856500D01*
G37*
G36*
X188900000Y-94856500D02*
X187401000Y-94856500D01*
X187401000Y-93357500D01*
X188900000Y-93357500D01*
X188900000Y-94856500D01*
X188900000Y-94856500D01*
G37*
G36*
X185598000Y-94856500D02*
X184099000Y-94856500D01*
X184099000Y-93357500D01*
X185598000Y-93357500D01*
X185598000Y-94856500D01*
X185598000Y-94856500D01*
G37*
G36*
X246050000Y-94793000D02*
X244551000Y-94793000D01*
X244551000Y-93294000D01*
X246050000Y-93294000D01*
X246050000Y-94793000D01*
X246050000Y-94793000D01*
G37*
G36*
X242748000Y-94793000D02*
X241249000Y-94793000D01*
X241249000Y-93294000D01*
X242748000Y-93294000D01*
X242748000Y-94793000D01*
X242748000Y-94793000D01*
G37*
G36*
X226936500Y-94793000D02*
X225437500Y-94793000D01*
X225437500Y-93294000D01*
X226936500Y-93294000D01*
X226936500Y-94793000D01*
X226936500Y-94793000D01*
G37*
G36*
X223634500Y-94793000D02*
X222135500Y-94793000D01*
X222135500Y-93294000D01*
X223634500Y-93294000D01*
X223634500Y-94793000D01*
X223634500Y-94793000D01*
G37*
G36*
X177075900Y-91864200D02*
X175473900Y-91864200D01*
X175473900Y-90762200D01*
X177075900Y-90762200D01*
X177075900Y-91864200D01*
X177075900Y-91864200D01*
G37*
G36*
X172175900Y-91864200D02*
X170573900Y-91864200D01*
X170573900Y-90762200D01*
X172175900Y-90762200D01*
X172175900Y-91864200D01*
X172175900Y-91864200D01*
G37*
G36*
X202170390Y-87394017D02*
X202288861Y-87443089D01*
X202395492Y-87514338D01*
X202486162Y-87605008D01*
X202486164Y-87605011D01*
X202486165Y-87605012D01*
X202557409Y-87711636D01*
X202557411Y-87711639D01*
X202606483Y-87830110D01*
X202631500Y-87955881D01*
X202631500Y-88084119D01*
X202606483Y-88209890D01*
X202557411Y-88328361D01*
X202486162Y-88434992D01*
X202395492Y-88525662D01*
X202288861Y-88596911D01*
X202170390Y-88645983D01*
X202044619Y-88671000D01*
X201916381Y-88671000D01*
X201790610Y-88645983D01*
X201672139Y-88596911D01*
X201565508Y-88525662D01*
X201474838Y-88434992D01*
X201403589Y-88328361D01*
X201354517Y-88209890D01*
X201329500Y-88084119D01*
X201329500Y-87955881D01*
X201354517Y-87830110D01*
X201403589Y-87711639D01*
X201403591Y-87711636D01*
X201474835Y-87605012D01*
X201474836Y-87605011D01*
X201474838Y-87605008D01*
X201565508Y-87514338D01*
X201672139Y-87443089D01*
X201790610Y-87394017D01*
X201916381Y-87369000D01*
X202044619Y-87369000D01*
X202170390Y-87394017D01*
X202170390Y-87394017D01*
G37*
G36*
X183120390Y-87394017D02*
X183238861Y-87443089D01*
X183345492Y-87514338D01*
X183436162Y-87605008D01*
X183436164Y-87605011D01*
X183436165Y-87605012D01*
X183507409Y-87711636D01*
X183507411Y-87711639D01*
X183556483Y-87830110D01*
X183581500Y-87955881D01*
X183581500Y-88084119D01*
X183556483Y-88209890D01*
X183507411Y-88328361D01*
X183436162Y-88434992D01*
X183345492Y-88525662D01*
X183238861Y-88596911D01*
X183120390Y-88645983D01*
X182994619Y-88671000D01*
X182866381Y-88671000D01*
X182740610Y-88645983D01*
X182622139Y-88596911D01*
X182515508Y-88525662D01*
X182424838Y-88434992D01*
X182353589Y-88328361D01*
X182304517Y-88209890D01*
X182279500Y-88084119D01*
X182279500Y-87955881D01*
X182304517Y-87830110D01*
X182353589Y-87711639D01*
X182353591Y-87711636D01*
X182424835Y-87605012D01*
X182424836Y-87605011D01*
X182424838Y-87605008D01*
X182515508Y-87514338D01*
X182622139Y-87443089D01*
X182740610Y-87394017D01*
X182866381Y-87369000D01*
X182994619Y-87369000D01*
X183120390Y-87394017D01*
X183120390Y-87394017D01*
G37*
G36*
X240270390Y-87394017D02*
X240388861Y-87443089D01*
X240495492Y-87514338D01*
X240586162Y-87605008D01*
X240586164Y-87605011D01*
X240586165Y-87605012D01*
X240657409Y-87711636D01*
X240657411Y-87711639D01*
X240706483Y-87830110D01*
X240731500Y-87955881D01*
X240731500Y-88084119D01*
X240706483Y-88209890D01*
X240657411Y-88328361D01*
X240586162Y-88434992D01*
X240495492Y-88525662D01*
X240388861Y-88596911D01*
X240270390Y-88645983D01*
X240144619Y-88671000D01*
X240016381Y-88671000D01*
X239890610Y-88645983D01*
X239772139Y-88596911D01*
X239665508Y-88525662D01*
X239574838Y-88434992D01*
X239503589Y-88328361D01*
X239454517Y-88209890D01*
X239429500Y-88084119D01*
X239429500Y-87955881D01*
X239454517Y-87830110D01*
X239503589Y-87711639D01*
X239503591Y-87711636D01*
X239574835Y-87605012D01*
X239574836Y-87605011D01*
X239574838Y-87605008D01*
X239665508Y-87514338D01*
X239772139Y-87443089D01*
X239890610Y-87394017D01*
X240016381Y-87369000D01*
X240144619Y-87369000D01*
X240270390Y-87394017D01*
X240270390Y-87394017D01*
G37*
G36*
X221220390Y-87330517D02*
X221338861Y-87379589D01*
X221445492Y-87450838D01*
X221536162Y-87541508D01*
X221607411Y-87648139D01*
X221656483Y-87766610D01*
X221681500Y-87892381D01*
X221681500Y-88020619D01*
X221656483Y-88146390D01*
X221607411Y-88264861D01*
X221607409Y-88264864D01*
X221564980Y-88328364D01*
X221536162Y-88371492D01*
X221445492Y-88462162D01*
X221338861Y-88533411D01*
X221220390Y-88582483D01*
X221094619Y-88607500D01*
X220966381Y-88607500D01*
X220840610Y-88582483D01*
X220722139Y-88533411D01*
X220615508Y-88462162D01*
X220524838Y-88371492D01*
X220496021Y-88328364D01*
X220453591Y-88264864D01*
X220453589Y-88264861D01*
X220404517Y-88146390D01*
X220379500Y-88020619D01*
X220379500Y-87892381D01*
X220404517Y-87766610D01*
X220453589Y-87648139D01*
X220524838Y-87541508D01*
X220615508Y-87450838D01*
X220722139Y-87379589D01*
X220840610Y-87330517D01*
X220966381Y-87305500D01*
X221094619Y-87305500D01*
X221220390Y-87330517D01*
X221220390Y-87330517D01*
G37*
G36*
X177075900Y-86174200D02*
X175473900Y-86174200D01*
X175473900Y-85072200D01*
X177075900Y-85072200D01*
X177075900Y-86174200D01*
X177075900Y-86174200D01*
G37*
G36*
X172175900Y-86174200D02*
X170573900Y-86174200D01*
X170573900Y-85072200D01*
X172175900Y-85072200D01*
X172175900Y-86174200D01*
X172175900Y-86174200D01*
G37*
G36*
X245896972Y-81853684D02*
X245896974Y-81853685D01*
X245896975Y-81853685D01*
X246269123Y-82007833D01*
X246604048Y-82231623D01*
X246888877Y-82516452D01*
X247112667Y-82851377D01*
X247240514Y-83160028D01*
X247266816Y-83223528D01*
X247345400Y-83618594D01*
X247345400Y-84021406D01*
X247271216Y-84394354D01*
X247266815Y-84416475D01*
X247112667Y-84788623D01*
X246888877Y-85123548D01*
X246604048Y-85408377D01*
X246269123Y-85632167D01*
X245896975Y-85786315D01*
X245896974Y-85786315D01*
X245896972Y-85786316D01*
X245501906Y-85864900D01*
X245099094Y-85864900D01*
X244704028Y-85786316D01*
X244704026Y-85786315D01*
X244704025Y-85786315D01*
X244331877Y-85632167D01*
X243996952Y-85408377D01*
X243712123Y-85123548D01*
X243488333Y-84788623D01*
X243334185Y-84416475D01*
X243329785Y-84394354D01*
X243255600Y-84021406D01*
X243255600Y-83618594D01*
X243334184Y-83223528D01*
X243360486Y-83160028D01*
X243488333Y-82851377D01*
X243712123Y-82516452D01*
X243996952Y-82231623D01*
X244331877Y-82007833D01*
X244704025Y-81853685D01*
X244704026Y-81853685D01*
X244704028Y-81853684D01*
X245099094Y-81775100D01*
X245501906Y-81775100D01*
X245896972Y-81853684D01*
X245896972Y-81853684D01*
G37*
G36*
X207796972Y-81853684D02*
X207796974Y-81853685D01*
X207796975Y-81853685D01*
X208169123Y-82007833D01*
X208504048Y-82231623D01*
X208788877Y-82516452D01*
X209012667Y-82851377D01*
X209140514Y-83160028D01*
X209166816Y-83223528D01*
X209245400Y-83618594D01*
X209245400Y-84021406D01*
X209171216Y-84394354D01*
X209166815Y-84416475D01*
X209012667Y-84788623D01*
X208788877Y-85123548D01*
X208504048Y-85408377D01*
X208169123Y-85632167D01*
X207796975Y-85786315D01*
X207796974Y-85786315D01*
X207796972Y-85786316D01*
X207401906Y-85864900D01*
X206999094Y-85864900D01*
X206604028Y-85786316D01*
X206604026Y-85786315D01*
X206604025Y-85786315D01*
X206231877Y-85632167D01*
X205896952Y-85408377D01*
X205612123Y-85123548D01*
X205388333Y-84788623D01*
X205234185Y-84416475D01*
X205229785Y-84394354D01*
X205155600Y-84021406D01*
X205155600Y-83618594D01*
X205234184Y-83223528D01*
X205260486Y-83160028D01*
X205388333Y-82851377D01*
X205612123Y-82516452D01*
X205896952Y-82231623D01*
X206231877Y-82007833D01*
X206604025Y-81853685D01*
X206604026Y-81853685D01*
X206604028Y-81853684D01*
X206999094Y-81775100D01*
X207401906Y-81775100D01*
X207796972Y-81853684D01*
X207796972Y-81853684D01*
G37*
G36*
X188746972Y-81853684D02*
X188746974Y-81853685D01*
X188746975Y-81853685D01*
X189119123Y-82007833D01*
X189454048Y-82231623D01*
X189738877Y-82516452D01*
X189962667Y-82851377D01*
X190090514Y-83160028D01*
X190116816Y-83223528D01*
X190195400Y-83618594D01*
X190195400Y-84021406D01*
X190121216Y-84394354D01*
X190116815Y-84416475D01*
X189962667Y-84788623D01*
X189738877Y-85123548D01*
X189454048Y-85408377D01*
X189119123Y-85632167D01*
X188746975Y-85786315D01*
X188746974Y-85786315D01*
X188746972Y-85786316D01*
X188351906Y-85864900D01*
X187949094Y-85864900D01*
X187554028Y-85786316D01*
X187554026Y-85786315D01*
X187554025Y-85786315D01*
X187181877Y-85632167D01*
X186846952Y-85408377D01*
X186562123Y-85123548D01*
X186338333Y-84788623D01*
X186184185Y-84416475D01*
X186179785Y-84394354D01*
X186105600Y-84021406D01*
X186105600Y-83618594D01*
X186184184Y-83223528D01*
X186210486Y-83160028D01*
X186338333Y-82851377D01*
X186562123Y-82516452D01*
X186846952Y-82231623D01*
X187181877Y-82007833D01*
X187554025Y-81853685D01*
X187554026Y-81853685D01*
X187554028Y-81853684D01*
X187949094Y-81775100D01*
X188351906Y-81775100D01*
X188746972Y-81853684D01*
X188746972Y-81853684D01*
G37*
G36*
X226846972Y-81790184D02*
X226846974Y-81790185D01*
X226846975Y-81790185D01*
X227219123Y-81944333D01*
X227554048Y-82168123D01*
X227838877Y-82452952D01*
X228062667Y-82787877D01*
X228200297Y-83120147D01*
X228216816Y-83160028D01*
X228295400Y-83555094D01*
X228295400Y-83957906D01*
X228221216Y-84330854D01*
X228216815Y-84352975D01*
X228062667Y-84725123D01*
X227838877Y-85060048D01*
X227554048Y-85344877D01*
X227219123Y-85568667D01*
X226846975Y-85722815D01*
X226846974Y-85722815D01*
X226846972Y-85722816D01*
X226451906Y-85801400D01*
X226049094Y-85801400D01*
X225654028Y-85722816D01*
X225654026Y-85722815D01*
X225654025Y-85722815D01*
X225281877Y-85568667D01*
X224946952Y-85344877D01*
X224662123Y-85060048D01*
X224438333Y-84725123D01*
X224284185Y-84352975D01*
X224279785Y-84330854D01*
X224205600Y-83957906D01*
X224205600Y-83555094D01*
X224284184Y-83160028D01*
X224300703Y-83120147D01*
X224438333Y-82787877D01*
X224662123Y-82452952D01*
X224946952Y-82168123D01*
X225281877Y-81944333D01*
X225654025Y-81790185D01*
X225654026Y-81790185D01*
X225654028Y-81790184D01*
X226049094Y-81711600D01*
X226451906Y-81711600D01*
X226846972Y-81790184D01*
X226846972Y-81790184D01*
G37*
G36*
X202390604Y-82929585D02*
X202559126Y-82999389D01*
X202710791Y-83100728D01*
X202839772Y-83229709D01*
X202941111Y-83381374D01*
X203010915Y-83549896D01*
X203046500Y-83728797D01*
X203046500Y-83911203D01*
X203010915Y-84090104D01*
X202941111Y-84258626D01*
X202839772Y-84410291D01*
X202710791Y-84539272D01*
X202559126Y-84640611D01*
X202390604Y-84710415D01*
X202211703Y-84746000D01*
X202029297Y-84746000D01*
X201870800Y-84714474D01*
X201846429Y-84712073D01*
X201822050Y-84714474D01*
X201789241Y-84721000D01*
X201611759Y-84721000D01*
X201437688Y-84686376D01*
X201273716Y-84618456D01*
X201126146Y-84519853D01*
X201000647Y-84394354D01*
X200902044Y-84246784D01*
X200834124Y-84082812D01*
X200799500Y-83908741D01*
X200799500Y-83731259D01*
X200834124Y-83557188D01*
X200902044Y-83393216D01*
X201000647Y-83245646D01*
X201126146Y-83120147D01*
X201273716Y-83021544D01*
X201437688Y-82953624D01*
X201611759Y-82919000D01*
X201789241Y-82919000D01*
X201822050Y-82925526D01*
X201846426Y-82927927D01*
X201870800Y-82925526D01*
X202029297Y-82894000D01*
X202211703Y-82894000D01*
X202390604Y-82929585D01*
X202390604Y-82929585D01*
G37*
G36*
X193480200Y-82925526D02*
X193504571Y-82927927D01*
X193528950Y-82925526D01*
X193561759Y-82919000D01*
X193739241Y-82919000D01*
X193913312Y-82953624D01*
X194077284Y-83021544D01*
X194224854Y-83120147D01*
X194350353Y-83245646D01*
X194448956Y-83393216D01*
X194516876Y-83557188D01*
X194551500Y-83731259D01*
X194551500Y-83908741D01*
X194516876Y-84082812D01*
X194448956Y-84246784D01*
X194350353Y-84394354D01*
X194224854Y-84519853D01*
X194077284Y-84618456D01*
X193913312Y-84686376D01*
X193739241Y-84721000D01*
X193561759Y-84721000D01*
X193528950Y-84714474D01*
X193504574Y-84712073D01*
X193480200Y-84714474D01*
X193321703Y-84746000D01*
X193139297Y-84746000D01*
X192960396Y-84710415D01*
X192791874Y-84640611D01*
X192640209Y-84539272D01*
X192511228Y-84410291D01*
X192409889Y-84258626D01*
X192340085Y-84090104D01*
X192304500Y-83911203D01*
X192304500Y-83728797D01*
X192340085Y-83549896D01*
X192409889Y-83381374D01*
X192511228Y-83229709D01*
X192640209Y-83100728D01*
X192791874Y-82999389D01*
X192960396Y-82929585D01*
X193139297Y-82894000D01*
X193321703Y-82894000D01*
X193480200Y-82925526D01*
X193480200Y-82925526D01*
G37*
G36*
X212530200Y-82925526D02*
X212554571Y-82927927D01*
X212578950Y-82925526D01*
X212611759Y-82919000D01*
X212789241Y-82919000D01*
X212963312Y-82953624D01*
X213127284Y-83021544D01*
X213274854Y-83120147D01*
X213400353Y-83245646D01*
X213498956Y-83393216D01*
X213566876Y-83557188D01*
X213601500Y-83731259D01*
X213601500Y-83908741D01*
X213566876Y-84082812D01*
X213498956Y-84246784D01*
X213400353Y-84394354D01*
X213274854Y-84519853D01*
X213127284Y-84618456D01*
X212963312Y-84686376D01*
X212789241Y-84721000D01*
X212611759Y-84721000D01*
X212578950Y-84714474D01*
X212554574Y-84712073D01*
X212530200Y-84714474D01*
X212371703Y-84746000D01*
X212189297Y-84746000D01*
X212010396Y-84710415D01*
X211841874Y-84640611D01*
X211690209Y-84539272D01*
X211561228Y-84410291D01*
X211459889Y-84258626D01*
X211390085Y-84090104D01*
X211354500Y-83911203D01*
X211354500Y-83728797D01*
X211390085Y-83549896D01*
X211459889Y-83381374D01*
X211561228Y-83229709D01*
X211690209Y-83100728D01*
X211841874Y-82999389D01*
X212010396Y-82929585D01*
X212189297Y-82894000D01*
X212371703Y-82894000D01*
X212530200Y-82925526D01*
X212530200Y-82925526D01*
G37*
G36*
X240490604Y-82929585D02*
X240659126Y-82999389D01*
X240810791Y-83100728D01*
X240939772Y-83229709D01*
X241041111Y-83381374D01*
X241110915Y-83549896D01*
X241146500Y-83728797D01*
X241146500Y-83911203D01*
X241110915Y-84090104D01*
X241041111Y-84258626D01*
X240939772Y-84410291D01*
X240810791Y-84539272D01*
X240659126Y-84640611D01*
X240490604Y-84710415D01*
X240311703Y-84746000D01*
X240129297Y-84746000D01*
X239970800Y-84714474D01*
X239946429Y-84712073D01*
X239922050Y-84714474D01*
X239889241Y-84721000D01*
X239711759Y-84721000D01*
X239537688Y-84686376D01*
X239373716Y-84618456D01*
X239226146Y-84519853D01*
X239100647Y-84394354D01*
X239002044Y-84246784D01*
X238934124Y-84082812D01*
X238899500Y-83908741D01*
X238899500Y-83731259D01*
X238934124Y-83557188D01*
X239002044Y-83393216D01*
X239100647Y-83245646D01*
X239226146Y-83120147D01*
X239373716Y-83021544D01*
X239537688Y-82953624D01*
X239711759Y-82919000D01*
X239889241Y-82919000D01*
X239922050Y-82925526D01*
X239946426Y-82927927D01*
X239970800Y-82925526D01*
X240129297Y-82894000D01*
X240311703Y-82894000D01*
X240490604Y-82929585D01*
X240490604Y-82929585D01*
G37*
G36*
X183340604Y-82929585D02*
X183509126Y-82999389D01*
X183660791Y-83100728D01*
X183789772Y-83229709D01*
X183891111Y-83381374D01*
X183960915Y-83549896D01*
X183996500Y-83728797D01*
X183996500Y-83911203D01*
X183960915Y-84090104D01*
X183891111Y-84258626D01*
X183789772Y-84410291D01*
X183660791Y-84539272D01*
X183509126Y-84640611D01*
X183340604Y-84710415D01*
X183161703Y-84746000D01*
X182979297Y-84746000D01*
X182820800Y-84714474D01*
X182796429Y-84712073D01*
X182772050Y-84714474D01*
X182739241Y-84721000D01*
X182561759Y-84721000D01*
X182387688Y-84686376D01*
X182223716Y-84618456D01*
X182076146Y-84519853D01*
X181950647Y-84394354D01*
X181852044Y-84246784D01*
X181784124Y-84082812D01*
X181749500Y-83908741D01*
X181749500Y-83731259D01*
X181784124Y-83557188D01*
X181852044Y-83393216D01*
X181950647Y-83245646D01*
X182076146Y-83120147D01*
X182223716Y-83021544D01*
X182387688Y-82953624D01*
X182561759Y-82919000D01*
X182739241Y-82919000D01*
X182772050Y-82925526D01*
X182796426Y-82927927D01*
X182820800Y-82925526D01*
X182979297Y-82894000D01*
X183161703Y-82894000D01*
X183340604Y-82929585D01*
X183340604Y-82929585D01*
G37*
G36*
X250630200Y-82925526D02*
X250654571Y-82927927D01*
X250678950Y-82925526D01*
X250711759Y-82919000D01*
X250889241Y-82919000D01*
X251063312Y-82953624D01*
X251227284Y-83021544D01*
X251374854Y-83120147D01*
X251500353Y-83245646D01*
X251598956Y-83393216D01*
X251666876Y-83557188D01*
X251701500Y-83731259D01*
X251701500Y-83908741D01*
X251666876Y-84082812D01*
X251598956Y-84246784D01*
X251500353Y-84394354D01*
X251374854Y-84519853D01*
X251227284Y-84618456D01*
X251063312Y-84686376D01*
X250889241Y-84721000D01*
X250711759Y-84721000D01*
X250678950Y-84714474D01*
X250654574Y-84712073D01*
X250630200Y-84714474D01*
X250471703Y-84746000D01*
X250289297Y-84746000D01*
X250110396Y-84710415D01*
X249941874Y-84640611D01*
X249790209Y-84539272D01*
X249661228Y-84410291D01*
X249559889Y-84258626D01*
X249490085Y-84090104D01*
X249454500Y-83911203D01*
X249454500Y-83728797D01*
X249490085Y-83549896D01*
X249559889Y-83381374D01*
X249661228Y-83229709D01*
X249790209Y-83100728D01*
X249941874Y-82999389D01*
X250110396Y-82929585D01*
X250289297Y-82894000D01*
X250471703Y-82894000D01*
X250630200Y-82925526D01*
X250630200Y-82925526D01*
G37*
G36*
X221440604Y-82866085D02*
X221609126Y-82935889D01*
X221760791Y-83037228D01*
X221889772Y-83166209D01*
X221991111Y-83317874D01*
X222060915Y-83486396D01*
X222096500Y-83665297D01*
X222096500Y-83847703D01*
X222060915Y-84026604D01*
X221991111Y-84195126D01*
X221889772Y-84346791D01*
X221760791Y-84475772D01*
X221609126Y-84577111D01*
X221440604Y-84646915D01*
X221261703Y-84682500D01*
X221079297Y-84682500D01*
X220920800Y-84650974D01*
X220896429Y-84648573D01*
X220872050Y-84650974D01*
X220839241Y-84657500D01*
X220661759Y-84657500D01*
X220487688Y-84622876D01*
X220323716Y-84554956D01*
X220176146Y-84456353D01*
X220050647Y-84330854D01*
X219952044Y-84183284D01*
X219884124Y-84019312D01*
X219849500Y-83845241D01*
X219849500Y-83667759D01*
X219884124Y-83493688D01*
X219952044Y-83329716D01*
X220050647Y-83182146D01*
X220176146Y-83056647D01*
X220323716Y-82958044D01*
X220487688Y-82890124D01*
X220661759Y-82855500D01*
X220839241Y-82855500D01*
X220872050Y-82862026D01*
X220896426Y-82864427D01*
X220920800Y-82862026D01*
X221079297Y-82830500D01*
X221261703Y-82830500D01*
X221440604Y-82866085D01*
X221440604Y-82866085D01*
G37*
G36*
X231580200Y-82862026D02*
X231604571Y-82864427D01*
X231628950Y-82862026D01*
X231661759Y-82855500D01*
X231839241Y-82855500D01*
X232013312Y-82890124D01*
X232177284Y-82958044D01*
X232324854Y-83056647D01*
X232450353Y-83182146D01*
X232548956Y-83329716D01*
X232616876Y-83493688D01*
X232651500Y-83667759D01*
X232651500Y-83845241D01*
X232616876Y-84019312D01*
X232548956Y-84183284D01*
X232450353Y-84330854D01*
X232324854Y-84456353D01*
X232177284Y-84554956D01*
X232013312Y-84622876D01*
X231839241Y-84657500D01*
X231661759Y-84657500D01*
X231628950Y-84650974D01*
X231604574Y-84648573D01*
X231580200Y-84650974D01*
X231421703Y-84682500D01*
X231239297Y-84682500D01*
X231060396Y-84646915D01*
X230891874Y-84577111D01*
X230740209Y-84475772D01*
X230611228Y-84346791D01*
X230509889Y-84195126D01*
X230440085Y-84026604D01*
X230404500Y-83847703D01*
X230404500Y-83665297D01*
X230440085Y-83486396D01*
X230509889Y-83317874D01*
X230611228Y-83166209D01*
X230740209Y-83037228D01*
X230891874Y-82935889D01*
X231060396Y-82866085D01*
X231239297Y-82830500D01*
X231421703Y-82830500D01*
X231580200Y-82862026D01*
X231580200Y-82862026D01*
G37*
G36*
X177075900Y-82974200D02*
X175473900Y-82974200D01*
X175473900Y-81872200D01*
X177075900Y-81872200D01*
X177075900Y-82974200D01*
X177075900Y-82974200D01*
G37*
G36*
X172175900Y-82974200D02*
X170573900Y-82974200D01*
X170573900Y-81872200D01*
X172175900Y-81872200D01*
X172175900Y-82974200D01*
X172175900Y-82974200D01*
G37*
G36*
X184554430Y-80123514D02*
X184683527Y-80149193D01*
X184897545Y-80237842D01*
X185030328Y-80326565D01*
X185090159Y-80366543D01*
X185253957Y-80530341D01*
X185253959Y-80530344D01*
X185382658Y-80722955D01*
X185471307Y-80936973D01*
X185516500Y-81164174D01*
X185516500Y-81395826D01*
X185471307Y-81623027D01*
X185382658Y-81837045D01*
X185296388Y-81966156D01*
X185253957Y-82029659D01*
X185090159Y-82193457D01*
X185090156Y-82193459D01*
X184897545Y-82322158D01*
X184683527Y-82410807D01*
X184569927Y-82433403D01*
X184456327Y-82456000D01*
X184224673Y-82456000D01*
X184111074Y-82433404D01*
X183997473Y-82410807D01*
X183783455Y-82322158D01*
X183590844Y-82193459D01*
X183590841Y-82193457D01*
X183427043Y-82029659D01*
X183384612Y-81966156D01*
X183298342Y-81837045D01*
X183209693Y-81623027D01*
X183164500Y-81395826D01*
X183164500Y-81164174D01*
X183209693Y-80936973D01*
X183298342Y-80722955D01*
X183427041Y-80530344D01*
X183427043Y-80530341D01*
X183590841Y-80366543D01*
X183650672Y-80326565D01*
X183783455Y-80237842D01*
X183997473Y-80149193D01*
X184126570Y-80123514D01*
X184224673Y-80104000D01*
X184456327Y-80104000D01*
X184554430Y-80123514D01*
X184554430Y-80123514D01*
G37*
G36*
X203604430Y-80123514D02*
X203733527Y-80149193D01*
X203947545Y-80237842D01*
X204080328Y-80326565D01*
X204140159Y-80366543D01*
X204303957Y-80530341D01*
X204303959Y-80530344D01*
X204432658Y-80722955D01*
X204521307Y-80936973D01*
X204566500Y-81164174D01*
X204566500Y-81395826D01*
X204521307Y-81623027D01*
X204432658Y-81837045D01*
X204346388Y-81966156D01*
X204303957Y-82029659D01*
X204140159Y-82193457D01*
X204140156Y-82193459D01*
X203947545Y-82322158D01*
X203733527Y-82410807D01*
X203619927Y-82433403D01*
X203506327Y-82456000D01*
X203274673Y-82456000D01*
X203161074Y-82433404D01*
X203047473Y-82410807D01*
X202833455Y-82322158D01*
X202640844Y-82193459D01*
X202640841Y-82193457D01*
X202477043Y-82029659D01*
X202434612Y-81966156D01*
X202348342Y-81837045D01*
X202259693Y-81623027D01*
X202214500Y-81395826D01*
X202214500Y-81164174D01*
X202259693Y-80936973D01*
X202348342Y-80722955D01*
X202477041Y-80530344D01*
X202477043Y-80530341D01*
X202640841Y-80366543D01*
X202700672Y-80326565D01*
X202833455Y-80237842D01*
X203047473Y-80149193D01*
X203176570Y-80123514D01*
X203274673Y-80104000D01*
X203506327Y-80104000D01*
X203604430Y-80123514D01*
X203604430Y-80123514D01*
G37*
G36*
X241704430Y-80123514D02*
X241833527Y-80149193D01*
X242047545Y-80237842D01*
X242180328Y-80326565D01*
X242240159Y-80366543D01*
X242403957Y-80530341D01*
X242403959Y-80530344D01*
X242532658Y-80722955D01*
X242621307Y-80936973D01*
X242666500Y-81164174D01*
X242666500Y-81395826D01*
X242621307Y-81623027D01*
X242532658Y-81837045D01*
X242446388Y-81966156D01*
X242403957Y-82029659D01*
X242240159Y-82193457D01*
X242240156Y-82193459D01*
X242047545Y-82322158D01*
X241833527Y-82410807D01*
X241719927Y-82433403D01*
X241606327Y-82456000D01*
X241374673Y-82456000D01*
X241261074Y-82433404D01*
X241147473Y-82410807D01*
X240933455Y-82322158D01*
X240740844Y-82193459D01*
X240740841Y-82193457D01*
X240577043Y-82029659D01*
X240534612Y-81966156D01*
X240448342Y-81837045D01*
X240359693Y-81623027D01*
X240314500Y-81395826D01*
X240314500Y-81164174D01*
X240359693Y-80936973D01*
X240448342Y-80722955D01*
X240577041Y-80530344D01*
X240577043Y-80530341D01*
X240740841Y-80366543D01*
X240800672Y-80326565D01*
X240933455Y-80237842D01*
X241147473Y-80149193D01*
X241276570Y-80123514D01*
X241374673Y-80104000D01*
X241606327Y-80104000D01*
X241704430Y-80123514D01*
X241704430Y-80123514D01*
G37*
G36*
X222654430Y-80060014D02*
X222783527Y-80085693D01*
X222997545Y-80174342D01*
X223092579Y-80237842D01*
X223190159Y-80303043D01*
X223353957Y-80466841D01*
X223353959Y-80466844D01*
X223482658Y-80659455D01*
X223571307Y-80873473D01*
X223589933Y-80967111D01*
X223610598Y-81071000D01*
X223616500Y-81100674D01*
X223616500Y-81332326D01*
X223571307Y-81559527D01*
X223482658Y-81773545D01*
X223368541Y-81944333D01*
X223353957Y-81966159D01*
X223190159Y-82129957D01*
X223190156Y-82129959D01*
X222997545Y-82258658D01*
X222783527Y-82347307D01*
X222669927Y-82369903D01*
X222556327Y-82392500D01*
X222324673Y-82392500D01*
X222211073Y-82369903D01*
X222097473Y-82347307D01*
X221883455Y-82258658D01*
X221690844Y-82129959D01*
X221690841Y-82129957D01*
X221527043Y-81966159D01*
X221512459Y-81944333D01*
X221398342Y-81773545D01*
X221309693Y-81559527D01*
X221264500Y-81332326D01*
X221264500Y-81100674D01*
X221270403Y-81071000D01*
X221291067Y-80967111D01*
X221309693Y-80873473D01*
X221398342Y-80659455D01*
X221527041Y-80466844D01*
X221527043Y-80466841D01*
X221690841Y-80303043D01*
X221788421Y-80237842D01*
X221883455Y-80174342D01*
X222097473Y-80085693D01*
X222226570Y-80060014D01*
X222324673Y-80040500D01*
X222556327Y-80040500D01*
X222654430Y-80060014D01*
X222654430Y-80060014D01*
G37*
G36*
X212507065Y-79009389D02*
X212698334Y-79088615D01*
X212870476Y-79203637D01*
X213016863Y-79350024D01*
X213131885Y-79522166D01*
X213211111Y-79713435D01*
X213251500Y-79916484D01*
X213251500Y-80123516D01*
X213211111Y-80326565D01*
X213131885Y-80517834D01*
X213016863Y-80689976D01*
X212870476Y-80836363D01*
X212698334Y-80951385D01*
X212507065Y-81030611D01*
X212304016Y-81071000D01*
X212096984Y-81071000D01*
X211893935Y-81030611D01*
X211702666Y-80951385D01*
X211530524Y-80836363D01*
X211384137Y-80689976D01*
X211269115Y-80517834D01*
X211189889Y-80326565D01*
X211149500Y-80123516D01*
X211149500Y-79916484D01*
X211189889Y-79713435D01*
X211269115Y-79522166D01*
X211384137Y-79350024D01*
X211530524Y-79203637D01*
X211702666Y-79088615D01*
X211893935Y-79009389D01*
X212096984Y-78969000D01*
X212304016Y-78969000D01*
X212507065Y-79009389D01*
X212507065Y-79009389D01*
G37*
G36*
X193457065Y-79009389D02*
X193648334Y-79088615D01*
X193820476Y-79203637D01*
X193966863Y-79350024D01*
X194081885Y-79522166D01*
X194161111Y-79713435D01*
X194201500Y-79916484D01*
X194201500Y-80123516D01*
X194161111Y-80326565D01*
X194081885Y-80517834D01*
X193966863Y-80689976D01*
X193820476Y-80836363D01*
X193648334Y-80951385D01*
X193457065Y-81030611D01*
X193254016Y-81071000D01*
X193046984Y-81071000D01*
X192843935Y-81030611D01*
X192652666Y-80951385D01*
X192480524Y-80836363D01*
X192334137Y-80689976D01*
X192219115Y-80517834D01*
X192139889Y-80326565D01*
X192099500Y-80123516D01*
X192099500Y-79916484D01*
X192139889Y-79713435D01*
X192219115Y-79522166D01*
X192334137Y-79350024D01*
X192480524Y-79203637D01*
X192652666Y-79088615D01*
X192843935Y-79009389D01*
X193046984Y-78969000D01*
X193254016Y-78969000D01*
X193457065Y-79009389D01*
X193457065Y-79009389D01*
G37*
G36*
X250607065Y-79009389D02*
X250798334Y-79088615D01*
X250970476Y-79203637D01*
X251116863Y-79350024D01*
X251231885Y-79522166D01*
X251311111Y-79713435D01*
X251351500Y-79916484D01*
X251351500Y-80123516D01*
X251311111Y-80326565D01*
X251231885Y-80517834D01*
X251116863Y-80689976D01*
X250970476Y-80836363D01*
X250798334Y-80951385D01*
X250607065Y-81030611D01*
X250404016Y-81071000D01*
X250196984Y-81071000D01*
X249993935Y-81030611D01*
X249802666Y-80951385D01*
X249630524Y-80836363D01*
X249484137Y-80689976D01*
X249369115Y-80517834D01*
X249289889Y-80326565D01*
X249249500Y-80123516D01*
X249249500Y-79916484D01*
X249289889Y-79713435D01*
X249369115Y-79522166D01*
X249484137Y-79350024D01*
X249630524Y-79203637D01*
X249802666Y-79088615D01*
X249993935Y-79009389D01*
X250196984Y-78969000D01*
X250404016Y-78969000D01*
X250607065Y-79009389D01*
X250607065Y-79009389D01*
G37*
G36*
X231557065Y-78945889D02*
X231748334Y-79025115D01*
X231920476Y-79140137D01*
X232066863Y-79286524D01*
X232181885Y-79458666D01*
X232261111Y-79649935D01*
X232301500Y-79852984D01*
X232301500Y-80060016D01*
X232261111Y-80263065D01*
X232181885Y-80454334D01*
X232066863Y-80626476D01*
X231920476Y-80772863D01*
X231748334Y-80887885D01*
X231557065Y-80967111D01*
X231354016Y-81007500D01*
X231146984Y-81007500D01*
X230943935Y-80967111D01*
X230752666Y-80887885D01*
X230580524Y-80772863D01*
X230434137Y-80626476D01*
X230319115Y-80454334D01*
X230239889Y-80263065D01*
X230199500Y-80060016D01*
X230199500Y-79852984D01*
X230239889Y-79649935D01*
X230319115Y-79458666D01*
X230434137Y-79286524D01*
X230580524Y-79140137D01*
X230752666Y-79025115D01*
X230943935Y-78945889D01*
X231146984Y-78905500D01*
X231354016Y-78905500D01*
X231557065Y-78945889D01*
X231557065Y-78945889D01*
G37*
G36*
X248069927Y-77586597D02*
X248183527Y-77609193D01*
X248397545Y-77697842D01*
X248504040Y-77769000D01*
X248590159Y-77826543D01*
X248753957Y-77990341D01*
X248753959Y-77990344D01*
X248882658Y-78182955D01*
X248971307Y-78396973D01*
X249016500Y-78624174D01*
X249016500Y-78855826D01*
X248971307Y-79083027D01*
X248882658Y-79297045D01*
X248774666Y-79458666D01*
X248753957Y-79489659D01*
X248590159Y-79653457D01*
X248590156Y-79653459D01*
X248397545Y-79782158D01*
X248183527Y-79870807D01*
X248069927Y-79893403D01*
X247956327Y-79916000D01*
X247724673Y-79916000D01*
X247611073Y-79893403D01*
X247497473Y-79870807D01*
X247283455Y-79782158D01*
X247090844Y-79653459D01*
X247090841Y-79653457D01*
X246927043Y-79489659D01*
X246906334Y-79458666D01*
X246798342Y-79297045D01*
X246709693Y-79083027D01*
X246664500Y-78855826D01*
X246664500Y-78624174D01*
X246709693Y-78396973D01*
X246798342Y-78182955D01*
X246927041Y-77990344D01*
X246927043Y-77990341D01*
X247090841Y-77826543D01*
X247176960Y-77769000D01*
X247283455Y-77697842D01*
X247497473Y-77609193D01*
X247611074Y-77586596D01*
X247724673Y-77564000D01*
X247956327Y-77564000D01*
X248069927Y-77586597D01*
X248069927Y-77586597D01*
G37*
G36*
X190919927Y-77586597D02*
X191033527Y-77609193D01*
X191247545Y-77697842D01*
X191354040Y-77769000D01*
X191440159Y-77826543D01*
X191603957Y-77990341D01*
X191603959Y-77990344D01*
X191732658Y-78182955D01*
X191821307Y-78396973D01*
X191866500Y-78624174D01*
X191866500Y-78855826D01*
X191821307Y-79083027D01*
X191732658Y-79297045D01*
X191624666Y-79458666D01*
X191603957Y-79489659D01*
X191440159Y-79653457D01*
X191440156Y-79653459D01*
X191247545Y-79782158D01*
X191033527Y-79870807D01*
X190919927Y-79893403D01*
X190806327Y-79916000D01*
X190574673Y-79916000D01*
X190461073Y-79893403D01*
X190347473Y-79870807D01*
X190133455Y-79782158D01*
X189940844Y-79653459D01*
X189940841Y-79653457D01*
X189777043Y-79489659D01*
X189756334Y-79458666D01*
X189648342Y-79297045D01*
X189559693Y-79083027D01*
X189514500Y-78855826D01*
X189514500Y-78624174D01*
X189559693Y-78396973D01*
X189648342Y-78182955D01*
X189777041Y-77990344D01*
X189777043Y-77990341D01*
X189940841Y-77826543D01*
X190026960Y-77769000D01*
X190133455Y-77697842D01*
X190347473Y-77609193D01*
X190461074Y-77586596D01*
X190574673Y-77564000D01*
X190806327Y-77564000D01*
X190919927Y-77586597D01*
X190919927Y-77586597D01*
G37*
G36*
X209969927Y-77586597D02*
X210083527Y-77609193D01*
X210297545Y-77697842D01*
X210404040Y-77769000D01*
X210490159Y-77826543D01*
X210653957Y-77990341D01*
X210653959Y-77990344D01*
X210782658Y-78182955D01*
X210871307Y-78396973D01*
X210916500Y-78624174D01*
X210916500Y-78855826D01*
X210871307Y-79083027D01*
X210782658Y-79297045D01*
X210674666Y-79458666D01*
X210653957Y-79489659D01*
X210490159Y-79653457D01*
X210490156Y-79653459D01*
X210297545Y-79782158D01*
X210083527Y-79870807D01*
X209969927Y-79893403D01*
X209856327Y-79916000D01*
X209624673Y-79916000D01*
X209511073Y-79893403D01*
X209397473Y-79870807D01*
X209183455Y-79782158D01*
X208990844Y-79653459D01*
X208990841Y-79653457D01*
X208827043Y-79489659D01*
X208806334Y-79458666D01*
X208698342Y-79297045D01*
X208609693Y-79083027D01*
X208564500Y-78855826D01*
X208564500Y-78624174D01*
X208609693Y-78396973D01*
X208698342Y-78182955D01*
X208827041Y-77990344D01*
X208827043Y-77990341D01*
X208990841Y-77826543D01*
X209076960Y-77769000D01*
X209183455Y-77697842D01*
X209397473Y-77609193D01*
X209511074Y-77586596D01*
X209624673Y-77564000D01*
X209856327Y-77564000D01*
X209969927Y-77586597D01*
X209969927Y-77586597D01*
G37*
G36*
X245607065Y-77809389D02*
X245798334Y-77888615D01*
X245970476Y-78003637D01*
X246116863Y-78150024D01*
X246231885Y-78322166D01*
X246311111Y-78513435D01*
X246351500Y-78716484D01*
X246351500Y-78923516D01*
X246311111Y-79126565D01*
X246231885Y-79317834D01*
X246116863Y-79489976D01*
X245970476Y-79636363D01*
X245798334Y-79751385D01*
X245607065Y-79830611D01*
X245404016Y-79871000D01*
X245196984Y-79871000D01*
X244993935Y-79830611D01*
X244802666Y-79751385D01*
X244630524Y-79636363D01*
X244484137Y-79489976D01*
X244369115Y-79317834D01*
X244289889Y-79126565D01*
X244249500Y-78923516D01*
X244249500Y-78716484D01*
X244289889Y-78513435D01*
X244369115Y-78322166D01*
X244484137Y-78150024D01*
X244630524Y-78003637D01*
X244802666Y-77888615D01*
X244993935Y-77809389D01*
X245196984Y-77769000D01*
X245404016Y-77769000D01*
X245607065Y-77809389D01*
X245607065Y-77809389D01*
G37*
G36*
X207507065Y-77809389D02*
X207698334Y-77888615D01*
X207870476Y-78003637D01*
X208016863Y-78150024D01*
X208131885Y-78322166D01*
X208211111Y-78513435D01*
X208251500Y-78716484D01*
X208251500Y-78923516D01*
X208211111Y-79126565D01*
X208131885Y-79317834D01*
X208016863Y-79489976D01*
X207870476Y-79636363D01*
X207698334Y-79751385D01*
X207507065Y-79830611D01*
X207304016Y-79871000D01*
X207096984Y-79871000D01*
X206893935Y-79830611D01*
X206702666Y-79751385D01*
X206530524Y-79636363D01*
X206384137Y-79489976D01*
X206269115Y-79317834D01*
X206189889Y-79126565D01*
X206149500Y-78923516D01*
X206149500Y-78716484D01*
X206189889Y-78513435D01*
X206269115Y-78322166D01*
X206384137Y-78150024D01*
X206530524Y-78003637D01*
X206702666Y-77888615D01*
X206893935Y-77809389D01*
X207096984Y-77769000D01*
X207304016Y-77769000D01*
X207507065Y-77809389D01*
X207507065Y-77809389D01*
G37*
G36*
X188457065Y-77809389D02*
X188648334Y-77888615D01*
X188820476Y-78003637D01*
X188966863Y-78150024D01*
X189081885Y-78322166D01*
X189161111Y-78513435D01*
X189201500Y-78716484D01*
X189201500Y-78923516D01*
X189161111Y-79126565D01*
X189081885Y-79317834D01*
X188966863Y-79489976D01*
X188820476Y-79636363D01*
X188648334Y-79751385D01*
X188457065Y-79830611D01*
X188254016Y-79871000D01*
X188046984Y-79871000D01*
X187843935Y-79830611D01*
X187652666Y-79751385D01*
X187480524Y-79636363D01*
X187334137Y-79489976D01*
X187219115Y-79317834D01*
X187139889Y-79126565D01*
X187099500Y-78923516D01*
X187099500Y-78716484D01*
X187139889Y-78513435D01*
X187219115Y-78322166D01*
X187334137Y-78150024D01*
X187480524Y-78003637D01*
X187652666Y-77888615D01*
X187843935Y-77809389D01*
X188046984Y-77769000D01*
X188254016Y-77769000D01*
X188457065Y-77809389D01*
X188457065Y-77809389D01*
G37*
G36*
X229019926Y-77523096D02*
X229133527Y-77545693D01*
X229347545Y-77634342D01*
X229442579Y-77697842D01*
X229540159Y-77763043D01*
X229703957Y-77926841D01*
X229703959Y-77926844D01*
X229832658Y-78119455D01*
X229921307Y-78333473D01*
X229966500Y-78560674D01*
X229966500Y-78792326D01*
X229921307Y-79019527D01*
X229832658Y-79233545D01*
X229776337Y-79317835D01*
X229703957Y-79426159D01*
X229540159Y-79589957D01*
X229540156Y-79589959D01*
X229347545Y-79718658D01*
X229133527Y-79807307D01*
X229019927Y-79829903D01*
X228906327Y-79852500D01*
X228674673Y-79852500D01*
X228561073Y-79829903D01*
X228447473Y-79807307D01*
X228233455Y-79718658D01*
X228040844Y-79589959D01*
X228040841Y-79589957D01*
X227877043Y-79426159D01*
X227804663Y-79317835D01*
X227748342Y-79233545D01*
X227659693Y-79019527D01*
X227614500Y-78792326D01*
X227614500Y-78560674D01*
X227659693Y-78333473D01*
X227748342Y-78119455D01*
X227877041Y-77926844D01*
X227877043Y-77926841D01*
X228040841Y-77763043D01*
X228138421Y-77697842D01*
X228233455Y-77634342D01*
X228447473Y-77545693D01*
X228561074Y-77523096D01*
X228674673Y-77500500D01*
X228906327Y-77500500D01*
X229019926Y-77523096D01*
X229019926Y-77523096D01*
G37*
G36*
X226557065Y-77745889D02*
X226748334Y-77825115D01*
X226920476Y-77940137D01*
X227066863Y-78086524D01*
X227181885Y-78258666D01*
X227261111Y-78449935D01*
X227301500Y-78652984D01*
X227301500Y-78860016D01*
X227261111Y-79063065D01*
X227181885Y-79254334D01*
X227066863Y-79426476D01*
X226920476Y-79572863D01*
X226748334Y-79687885D01*
X226557065Y-79767111D01*
X226354016Y-79807500D01*
X226146984Y-79807500D01*
X225943935Y-79767111D01*
X225752666Y-79687885D01*
X225580524Y-79572863D01*
X225434137Y-79426476D01*
X225319115Y-79254334D01*
X225239889Y-79063065D01*
X225199500Y-78860016D01*
X225199500Y-78652984D01*
X225239889Y-78449935D01*
X225319115Y-78258666D01*
X225434137Y-78086524D01*
X225580524Y-77940137D01*
X225752666Y-77825115D01*
X225943935Y-77745889D01*
X226146984Y-77705500D01*
X226354016Y-77705500D01*
X226557065Y-77745889D01*
X226557065Y-77745889D01*
G37*
G36*
X177075900Y-77538200D02*
X175473900Y-77538200D01*
X175473900Y-76436200D01*
X177075900Y-76436200D01*
X177075900Y-77538200D01*
X177075900Y-77538200D01*
G37*
G36*
X172175900Y-77538200D02*
X170573900Y-77538200D01*
X170573900Y-76436200D01*
X172175900Y-76436200D01*
X172175900Y-77538200D01*
X172175900Y-77538200D01*
G37*
G36*
X188900000Y-75806500D02*
X187401000Y-75806500D01*
X187401000Y-74307500D01*
X188900000Y-74307500D01*
X188900000Y-75806500D01*
X188900000Y-75806500D01*
G37*
G36*
X207950000Y-75806500D02*
X206451000Y-75806500D01*
X206451000Y-74307500D01*
X207950000Y-74307500D01*
X207950000Y-75806500D01*
X207950000Y-75806500D01*
G37*
G36*
X185598000Y-75806500D02*
X184099000Y-75806500D01*
X184099000Y-74307500D01*
X185598000Y-74307500D01*
X185598000Y-75806500D01*
X185598000Y-75806500D01*
G37*
G36*
X204648000Y-75806500D02*
X203149000Y-75806500D01*
X203149000Y-74307500D01*
X204648000Y-74307500D01*
X204648000Y-75806500D01*
X204648000Y-75806500D01*
G37*
G36*
X242748000Y-75743000D02*
X241249000Y-75743000D01*
X241249000Y-74244000D01*
X242748000Y-74244000D01*
X242748000Y-75743000D01*
X242748000Y-75743000D01*
G37*
G36*
X246050000Y-75743000D02*
X244551000Y-75743000D01*
X244551000Y-74244000D01*
X246050000Y-74244000D01*
X246050000Y-75743000D01*
X246050000Y-75743000D01*
G37*
G36*
X223698000Y-75743000D02*
X222199000Y-75743000D01*
X222199000Y-74244000D01*
X223698000Y-74244000D01*
X223698000Y-75743000D01*
X223698000Y-75743000D01*
G37*
G36*
X227000000Y-75743000D02*
X225501000Y-75743000D01*
X225501000Y-74244000D01*
X227000000Y-74244000D01*
X227000000Y-75743000D01*
X227000000Y-75743000D01*
G37*
G36*
X172175900Y-74338200D02*
X170573900Y-74338200D01*
X170573900Y-73236200D01*
X172175900Y-73236200D01*
X172175900Y-74338200D01*
X172175900Y-74338200D01*
G37*
G36*
X177075900Y-74338200D02*
X175473900Y-74338200D01*
X175473900Y-73236200D01*
X177075900Y-73236200D01*
X177075900Y-74338200D01*
X177075900Y-74338200D01*
G37*
G36*
X248067065Y-71252389D02*
X248258334Y-71331615D01*
X248430476Y-71446637D01*
X248576863Y-71593024D01*
X248691885Y-71765166D01*
X248771111Y-71956435D01*
X248811500Y-72159484D01*
X248811500Y-72366516D01*
X248771111Y-72569565D01*
X248691885Y-72760834D01*
X248576863Y-72932976D01*
X248430476Y-73079363D01*
X248258334Y-73194385D01*
X248067065Y-73273611D01*
X247864016Y-73314000D01*
X247656984Y-73314000D01*
X247453935Y-73273611D01*
X247262666Y-73194385D01*
X247090524Y-73079363D01*
X246944137Y-72932976D01*
X246829115Y-72760834D01*
X246749889Y-72569565D01*
X246709500Y-72366516D01*
X246709500Y-72159484D01*
X246749889Y-71956435D01*
X246829115Y-71765166D01*
X246944137Y-71593024D01*
X247090524Y-71446637D01*
X247262666Y-71331615D01*
X247453935Y-71252389D01*
X247656984Y-71212000D01*
X247864016Y-71212000D01*
X248067065Y-71252389D01*
X248067065Y-71252389D01*
G37*
G36*
X245567065Y-71252389D02*
X245758334Y-71331615D01*
X245930476Y-71446637D01*
X246076863Y-71593024D01*
X246191885Y-71765166D01*
X246271111Y-71956435D01*
X246311500Y-72159484D01*
X246311500Y-72366516D01*
X246271111Y-72569565D01*
X246191885Y-72760834D01*
X246076863Y-72932976D01*
X245930476Y-73079363D01*
X245758334Y-73194385D01*
X245567065Y-73273611D01*
X245364016Y-73314000D01*
X245156984Y-73314000D01*
X244953935Y-73273611D01*
X244762666Y-73194385D01*
X244590524Y-73079363D01*
X244444137Y-72932976D01*
X244329115Y-72760834D01*
X244249889Y-72569565D01*
X244209500Y-72366516D01*
X244209500Y-72159484D01*
X244249889Y-71956435D01*
X244329115Y-71765166D01*
X244444137Y-71593024D01*
X244590524Y-71446637D01*
X244762666Y-71331615D01*
X244953935Y-71252389D01*
X245156984Y-71212000D01*
X245364016Y-71212000D01*
X245567065Y-71252389D01*
X245567065Y-71252389D01*
G37*
G36*
X243811500Y-73314000D02*
X241709500Y-73314000D01*
X241709500Y-71212000D01*
X243811500Y-71212000D01*
X243811500Y-73314000D01*
X243811500Y-73314000D01*
G37*
G36*
X229080565Y-71252389D02*
X229271834Y-71331615D01*
X229443976Y-71446637D01*
X229590363Y-71593024D01*
X229705385Y-71765166D01*
X229784611Y-71956435D01*
X229825000Y-72159484D01*
X229825000Y-72366516D01*
X229784611Y-72569565D01*
X229705385Y-72760834D01*
X229590363Y-72932976D01*
X229443976Y-73079363D01*
X229271834Y-73194385D01*
X229080565Y-73273611D01*
X228877516Y-73314000D01*
X228670484Y-73314000D01*
X228467435Y-73273611D01*
X228276166Y-73194385D01*
X228104024Y-73079363D01*
X227957637Y-72932976D01*
X227842615Y-72760834D01*
X227763389Y-72569565D01*
X227723000Y-72366516D01*
X227723000Y-72159484D01*
X227763389Y-71956435D01*
X227842615Y-71765166D01*
X227957637Y-71593024D01*
X228104024Y-71446637D01*
X228276166Y-71331615D01*
X228467435Y-71252389D01*
X228670484Y-71212000D01*
X228877516Y-71212000D01*
X229080565Y-71252389D01*
X229080565Y-71252389D01*
G37*
G36*
X226580565Y-71252389D02*
X226771834Y-71331615D01*
X226943976Y-71446637D01*
X227090363Y-71593024D01*
X227205385Y-71765166D01*
X227284611Y-71956435D01*
X227325000Y-72159484D01*
X227325000Y-72366516D01*
X227284611Y-72569565D01*
X227205385Y-72760834D01*
X227090363Y-72932976D01*
X226943976Y-73079363D01*
X226771834Y-73194385D01*
X226580565Y-73273611D01*
X226377516Y-73314000D01*
X226170484Y-73314000D01*
X225967435Y-73273611D01*
X225776166Y-73194385D01*
X225604024Y-73079363D01*
X225457637Y-72932976D01*
X225342615Y-72760834D01*
X225263389Y-72569565D01*
X225223000Y-72366516D01*
X225223000Y-72159484D01*
X225263389Y-71956435D01*
X225342615Y-71765166D01*
X225457637Y-71593024D01*
X225604024Y-71446637D01*
X225776166Y-71331615D01*
X225967435Y-71252389D01*
X226170484Y-71212000D01*
X226377516Y-71212000D01*
X226580565Y-71252389D01*
X226580565Y-71252389D01*
G37*
G36*
X224825000Y-73314000D02*
X222723000Y-73314000D01*
X222723000Y-71212000D01*
X224825000Y-71212000D01*
X224825000Y-73314000D01*
X224825000Y-73314000D01*
G37*
G36*
X207530565Y-71252389D02*
X207721834Y-71331615D01*
X207893976Y-71446637D01*
X208040363Y-71593024D01*
X208155385Y-71765166D01*
X208234611Y-71956435D01*
X208275000Y-72159484D01*
X208275000Y-72366516D01*
X208234611Y-72569565D01*
X208155385Y-72760834D01*
X208040363Y-72932976D01*
X207893976Y-73079363D01*
X207721834Y-73194385D01*
X207530565Y-73273611D01*
X207327516Y-73314000D01*
X207120484Y-73314000D01*
X206917435Y-73273611D01*
X206726166Y-73194385D01*
X206554024Y-73079363D01*
X206407637Y-72932976D01*
X206292615Y-72760834D01*
X206213389Y-72569565D01*
X206173000Y-72366516D01*
X206173000Y-72159484D01*
X206213389Y-71956435D01*
X206292615Y-71765166D01*
X206407637Y-71593024D01*
X206554024Y-71446637D01*
X206726166Y-71331615D01*
X206917435Y-71252389D01*
X207120484Y-71212000D01*
X207327516Y-71212000D01*
X207530565Y-71252389D01*
X207530565Y-71252389D01*
G37*
G36*
X205775000Y-73314000D02*
X203673000Y-73314000D01*
X203673000Y-71212000D01*
X205775000Y-71212000D01*
X205775000Y-73314000D01*
X205775000Y-73314000D01*
G37*
G36*
X190980565Y-71252389D02*
X191171834Y-71331615D01*
X191343976Y-71446637D01*
X191490363Y-71593024D01*
X191605385Y-71765166D01*
X191684611Y-71956435D01*
X191725000Y-72159484D01*
X191725000Y-72366516D01*
X191684611Y-72569565D01*
X191605385Y-72760834D01*
X191490363Y-72932976D01*
X191343976Y-73079363D01*
X191171834Y-73194385D01*
X190980565Y-73273611D01*
X190777516Y-73314000D01*
X190570484Y-73314000D01*
X190367435Y-73273611D01*
X190176166Y-73194385D01*
X190004024Y-73079363D01*
X189857637Y-72932976D01*
X189742615Y-72760834D01*
X189663389Y-72569565D01*
X189623000Y-72366516D01*
X189623000Y-72159484D01*
X189663389Y-71956435D01*
X189742615Y-71765166D01*
X189857637Y-71593024D01*
X190004024Y-71446637D01*
X190176166Y-71331615D01*
X190367435Y-71252389D01*
X190570484Y-71212000D01*
X190777516Y-71212000D01*
X190980565Y-71252389D01*
X190980565Y-71252389D01*
G37*
G36*
X188480565Y-71252389D02*
X188671834Y-71331615D01*
X188843976Y-71446637D01*
X188990363Y-71593024D01*
X189105385Y-71765166D01*
X189184611Y-71956435D01*
X189225000Y-72159484D01*
X189225000Y-72366516D01*
X189184611Y-72569565D01*
X189105385Y-72760834D01*
X188990363Y-72932976D01*
X188843976Y-73079363D01*
X188671834Y-73194385D01*
X188480565Y-73273611D01*
X188277516Y-73314000D01*
X188070484Y-73314000D01*
X187867435Y-73273611D01*
X187676166Y-73194385D01*
X187504024Y-73079363D01*
X187357637Y-72932976D01*
X187242615Y-72760834D01*
X187163389Y-72569565D01*
X187123000Y-72366516D01*
X187123000Y-72159484D01*
X187163389Y-71956435D01*
X187242615Y-71765166D01*
X187357637Y-71593024D01*
X187504024Y-71446637D01*
X187676166Y-71331615D01*
X187867435Y-71252389D01*
X188070484Y-71212000D01*
X188277516Y-71212000D01*
X188480565Y-71252389D01*
X188480565Y-71252389D01*
G37*
G36*
X186725000Y-73314000D02*
X184623000Y-73314000D01*
X184623000Y-71212000D01*
X186725000Y-71212000D01*
X186725000Y-73314000D01*
X186725000Y-73314000D01*
G37*
G36*
X210030565Y-71252389D02*
X210221834Y-71331615D01*
X210393976Y-71446637D01*
X210540363Y-71593024D01*
X210655385Y-71765166D01*
X210734611Y-71956435D01*
X210775000Y-72159484D01*
X210775000Y-72366516D01*
X210734611Y-72569565D01*
X210655385Y-72760834D01*
X210540363Y-72932976D01*
X210393976Y-73079363D01*
X210221834Y-73194385D01*
X210030565Y-73273611D01*
X209827516Y-73314000D01*
X209620484Y-73314000D01*
X209417435Y-73273611D01*
X209226166Y-73194385D01*
X209054024Y-73079363D01*
X208907637Y-72932976D01*
X208792615Y-72760834D01*
X208713389Y-72569565D01*
X208673000Y-72366516D01*
X208673000Y-72159484D01*
X208713389Y-71956435D01*
X208792615Y-71765166D01*
X208907637Y-71593024D01*
X209054024Y-71446637D01*
X209226166Y-71331615D01*
X209417435Y-71252389D01*
X209620484Y-71212000D01*
X209827516Y-71212000D01*
X210030565Y-71252389D01*
X210030565Y-71252389D01*
G37*
G36*
X221220390Y-68344017D02*
X221338861Y-68393089D01*
X221445492Y-68464338D01*
X221536162Y-68555008D01*
X221607411Y-68661639D01*
X221656483Y-68780110D01*
X221681500Y-68905881D01*
X221681500Y-69034119D01*
X221656483Y-69159890D01*
X221607411Y-69278361D01*
X221536162Y-69384992D01*
X221445492Y-69475662D01*
X221338861Y-69546911D01*
X221220390Y-69595983D01*
X221094619Y-69621000D01*
X220966381Y-69621000D01*
X220840610Y-69595983D01*
X220722139Y-69546911D01*
X220615508Y-69475662D01*
X220524838Y-69384992D01*
X220453589Y-69278361D01*
X220404517Y-69159890D01*
X220379500Y-69034119D01*
X220379500Y-68905881D01*
X220404517Y-68780110D01*
X220453589Y-68661639D01*
X220524838Y-68555008D01*
X220615508Y-68464338D01*
X220722139Y-68393089D01*
X220840610Y-68344017D01*
X220966381Y-68319000D01*
X221094619Y-68319000D01*
X221220390Y-68344017D01*
X221220390Y-68344017D01*
G37*
G36*
X202170390Y-68344017D02*
X202288861Y-68393089D01*
X202395492Y-68464338D01*
X202486162Y-68555008D01*
X202557411Y-68661639D01*
X202606483Y-68780110D01*
X202631500Y-68905881D01*
X202631500Y-69034119D01*
X202606483Y-69159890D01*
X202557411Y-69278361D01*
X202486162Y-69384992D01*
X202395492Y-69475662D01*
X202288861Y-69546911D01*
X202170390Y-69595983D01*
X202044619Y-69621000D01*
X201916381Y-69621000D01*
X201790610Y-69595983D01*
X201672139Y-69546911D01*
X201565508Y-69475662D01*
X201474838Y-69384992D01*
X201403589Y-69278361D01*
X201354517Y-69159890D01*
X201329500Y-69034119D01*
X201329500Y-68905881D01*
X201354517Y-68780110D01*
X201403589Y-68661639D01*
X201474838Y-68555008D01*
X201565508Y-68464338D01*
X201672139Y-68393089D01*
X201790610Y-68344017D01*
X201916381Y-68319000D01*
X202044619Y-68319000D01*
X202170390Y-68344017D01*
X202170390Y-68344017D01*
G37*
G36*
X183120390Y-68344017D02*
X183238861Y-68393089D01*
X183345492Y-68464338D01*
X183436162Y-68555008D01*
X183507411Y-68661639D01*
X183556483Y-68780110D01*
X183581500Y-68905881D01*
X183581500Y-69034119D01*
X183556483Y-69159890D01*
X183507411Y-69278361D01*
X183436162Y-69384992D01*
X183345492Y-69475662D01*
X183238861Y-69546911D01*
X183120390Y-69595983D01*
X182994619Y-69621000D01*
X182866381Y-69621000D01*
X182740610Y-69595983D01*
X182622139Y-69546911D01*
X182515508Y-69475662D01*
X182424838Y-69384992D01*
X182353589Y-69278361D01*
X182304517Y-69159890D01*
X182279500Y-69034119D01*
X182279500Y-68905881D01*
X182304517Y-68780110D01*
X182353589Y-68661639D01*
X182424838Y-68555008D01*
X182515508Y-68464338D01*
X182622139Y-68393089D01*
X182740610Y-68344017D01*
X182866381Y-68319000D01*
X182994619Y-68319000D01*
X183120390Y-68344017D01*
X183120390Y-68344017D01*
G37*
G36*
X240270390Y-68344017D02*
X240388861Y-68393089D01*
X240495492Y-68464338D01*
X240586162Y-68555008D01*
X240657411Y-68661639D01*
X240706483Y-68780110D01*
X240731500Y-68905881D01*
X240731500Y-69034119D01*
X240706483Y-69159890D01*
X240657411Y-69278361D01*
X240586162Y-69384992D01*
X240495492Y-69475662D01*
X240388861Y-69546911D01*
X240270390Y-69595983D01*
X240144619Y-69621000D01*
X240016381Y-69621000D01*
X239890610Y-69595983D01*
X239772139Y-69546911D01*
X239665508Y-69475662D01*
X239574838Y-69384992D01*
X239503589Y-69278361D01*
X239454517Y-69159890D01*
X239429500Y-69034119D01*
X239429500Y-68905881D01*
X239454517Y-68780110D01*
X239503589Y-68661639D01*
X239574838Y-68555008D01*
X239665508Y-68464338D01*
X239772139Y-68393089D01*
X239890610Y-68344017D01*
X240016381Y-68319000D01*
X240144619Y-68319000D01*
X240270390Y-68344017D01*
X240270390Y-68344017D01*
G37*
G36*
X172163200Y-68876800D02*
X170561200Y-68876800D01*
X170561200Y-67774800D01*
X172163200Y-67774800D01*
X172163200Y-68876800D01*
X172163200Y-68876800D01*
G37*
G36*
X177063200Y-68876800D02*
X175461200Y-68876800D01*
X175461200Y-67774800D01*
X177063200Y-67774800D01*
X177063200Y-68876800D01*
X177063200Y-68876800D01*
G37*
G36*
X245896972Y-62803684D02*
X245896974Y-62803685D01*
X245896975Y-62803685D01*
X246269123Y-62957833D01*
X246604048Y-63181623D01*
X246888877Y-63466452D01*
X247112667Y-63801377D01*
X247266815Y-64173525D01*
X247266816Y-64173528D01*
X247345400Y-64568594D01*
X247345400Y-64971406D01*
X247271216Y-65344354D01*
X247266815Y-65366475D01*
X247112667Y-65738623D01*
X246888877Y-66073548D01*
X246604048Y-66358377D01*
X246269123Y-66582167D01*
X245896975Y-66736315D01*
X245896974Y-66736315D01*
X245896972Y-66736316D01*
X245501906Y-66814900D01*
X245099094Y-66814900D01*
X244704028Y-66736316D01*
X244704026Y-66736315D01*
X244704025Y-66736315D01*
X244331877Y-66582167D01*
X243996952Y-66358377D01*
X243712123Y-66073548D01*
X243488333Y-65738623D01*
X243334185Y-65366475D01*
X243329785Y-65344354D01*
X243255600Y-64971406D01*
X243255600Y-64568594D01*
X243334184Y-64173528D01*
X243334185Y-64173525D01*
X243488333Y-63801377D01*
X243712123Y-63466452D01*
X243996952Y-63181623D01*
X244331877Y-62957833D01*
X244704025Y-62803685D01*
X244704026Y-62803685D01*
X244704028Y-62803684D01*
X245099094Y-62725100D01*
X245501906Y-62725100D01*
X245896972Y-62803684D01*
X245896972Y-62803684D01*
G37*
G36*
X207796972Y-62803684D02*
X207796974Y-62803685D01*
X207796975Y-62803685D01*
X208169123Y-62957833D01*
X208504048Y-63181623D01*
X208788877Y-63466452D01*
X209012667Y-63801377D01*
X209166815Y-64173525D01*
X209166816Y-64173528D01*
X209245400Y-64568594D01*
X209245400Y-64971406D01*
X209171216Y-65344354D01*
X209166815Y-65366475D01*
X209012667Y-65738623D01*
X208788877Y-66073548D01*
X208504048Y-66358377D01*
X208169123Y-66582167D01*
X207796975Y-66736315D01*
X207796974Y-66736315D01*
X207796972Y-66736316D01*
X207401906Y-66814900D01*
X206999094Y-66814900D01*
X206604028Y-66736316D01*
X206604026Y-66736315D01*
X206604025Y-66736315D01*
X206231877Y-66582167D01*
X205896952Y-66358377D01*
X205612123Y-66073548D01*
X205388333Y-65738623D01*
X205234185Y-65366475D01*
X205229785Y-65344354D01*
X205155600Y-64971406D01*
X205155600Y-64568594D01*
X205234184Y-64173528D01*
X205234185Y-64173525D01*
X205388333Y-63801377D01*
X205612123Y-63466452D01*
X205896952Y-63181623D01*
X206231877Y-62957833D01*
X206604025Y-62803685D01*
X206604026Y-62803685D01*
X206604028Y-62803684D01*
X206999094Y-62725100D01*
X207401906Y-62725100D01*
X207796972Y-62803684D01*
X207796972Y-62803684D01*
G37*
G36*
X226846972Y-62803684D02*
X226846974Y-62803685D01*
X226846975Y-62803685D01*
X227219123Y-62957833D01*
X227554048Y-63181623D01*
X227838877Y-63466452D01*
X228062667Y-63801377D01*
X228216815Y-64173525D01*
X228216816Y-64173528D01*
X228295400Y-64568594D01*
X228295400Y-64971406D01*
X228221216Y-65344354D01*
X228216815Y-65366475D01*
X228062667Y-65738623D01*
X227838877Y-66073548D01*
X227554048Y-66358377D01*
X227219123Y-66582167D01*
X226846975Y-66736315D01*
X226846974Y-66736315D01*
X226846972Y-66736316D01*
X226451906Y-66814900D01*
X226049094Y-66814900D01*
X225654028Y-66736316D01*
X225654026Y-66736315D01*
X225654025Y-66736315D01*
X225281877Y-66582167D01*
X224946952Y-66358377D01*
X224662123Y-66073548D01*
X224438333Y-65738623D01*
X224284185Y-65366475D01*
X224279785Y-65344354D01*
X224205600Y-64971406D01*
X224205600Y-64568594D01*
X224284184Y-64173528D01*
X224284185Y-64173525D01*
X224438333Y-63801377D01*
X224662123Y-63466452D01*
X224946952Y-63181623D01*
X225281877Y-62957833D01*
X225654025Y-62803685D01*
X225654026Y-62803685D01*
X225654028Y-62803684D01*
X226049094Y-62725100D01*
X226451906Y-62725100D01*
X226846972Y-62803684D01*
X226846972Y-62803684D01*
G37*
G36*
X188746972Y-62803684D02*
X188746974Y-62803685D01*
X188746975Y-62803685D01*
X189119123Y-62957833D01*
X189454048Y-63181623D01*
X189738877Y-63466452D01*
X189962667Y-63801377D01*
X190116815Y-64173525D01*
X190116816Y-64173528D01*
X190195400Y-64568594D01*
X190195400Y-64971406D01*
X190121216Y-65344354D01*
X190116815Y-65366475D01*
X189962667Y-65738623D01*
X189738877Y-66073548D01*
X189454048Y-66358377D01*
X189119123Y-66582167D01*
X188746975Y-66736315D01*
X188746974Y-66736315D01*
X188746972Y-66736316D01*
X188351906Y-66814900D01*
X187949094Y-66814900D01*
X187554028Y-66736316D01*
X187554026Y-66736315D01*
X187554025Y-66736315D01*
X187181877Y-66582167D01*
X186846952Y-66358377D01*
X186562123Y-66073548D01*
X186338333Y-65738623D01*
X186184185Y-65366475D01*
X186179785Y-65344354D01*
X186105600Y-64971406D01*
X186105600Y-64568594D01*
X186184184Y-64173528D01*
X186184185Y-64173525D01*
X186338333Y-63801377D01*
X186562123Y-63466452D01*
X186846952Y-63181623D01*
X187181877Y-62957833D01*
X187554025Y-62803685D01*
X187554026Y-62803685D01*
X187554028Y-62803684D01*
X187949094Y-62725100D01*
X188351906Y-62725100D01*
X188746972Y-62803684D01*
X188746972Y-62803684D01*
G37*
G36*
X203604430Y-61073514D02*
X203733527Y-61099193D01*
X203947545Y-61187842D01*
X204080328Y-61276565D01*
X204140159Y-61316543D01*
X204303957Y-61480341D01*
X204303959Y-61480344D01*
X204432658Y-61672955D01*
X204521307Y-61886973D01*
X204566500Y-62114174D01*
X204566500Y-62345826D01*
X204521307Y-62573027D01*
X204432658Y-62787045D01*
X204421540Y-62803684D01*
X204303957Y-62979659D01*
X204140159Y-63143457D01*
X204140156Y-63143459D01*
X203947545Y-63272158D01*
X203733527Y-63360807D01*
X203619927Y-63383403D01*
X203506327Y-63406000D01*
X203274673Y-63406000D01*
X203161073Y-63383403D01*
X203047473Y-63360807D01*
X202847832Y-63278113D01*
X202824386Y-63271001D01*
X202800000Y-63268599D01*
X202775614Y-63271001D01*
X202752165Y-63278114D01*
X202730554Y-63289665D01*
X202711612Y-63305211D01*
X202696066Y-63324153D01*
X202684515Y-63345764D01*
X202677402Y-63369213D01*
X202675000Y-63393599D01*
X202675000Y-63963162D01*
X202677402Y-63987548D01*
X202684515Y-64010997D01*
X202696066Y-64032608D01*
X202711607Y-64051544D01*
X202839772Y-64179709D01*
X202941111Y-64331374D01*
X203010915Y-64499896D01*
X203046500Y-64678797D01*
X203046500Y-64861203D01*
X203010915Y-65040104D01*
X202941111Y-65208626D01*
X202839772Y-65360291D01*
X202711607Y-65488456D01*
X202696066Y-65507392D01*
X202684515Y-65529003D01*
X202677402Y-65552452D01*
X202675000Y-65576838D01*
X202675000Y-66414000D01*
X200573000Y-66414000D01*
X200573000Y-63112000D01*
X202331612Y-63112000D01*
X202355998Y-63109598D01*
X202379447Y-63102485D01*
X202401058Y-63090934D01*
X202420000Y-63075388D01*
X202435546Y-63056446D01*
X202447097Y-63034835D01*
X202454210Y-63011386D01*
X202456612Y-62987000D01*
X202454210Y-62962614D01*
X202447097Y-62939165D01*
X202435546Y-62917554D01*
X202359460Y-62803684D01*
X202348342Y-62787045D01*
X202259693Y-62573027D01*
X202214500Y-62345826D01*
X202214500Y-62114174D01*
X202259693Y-61886973D01*
X202348342Y-61672955D01*
X202477041Y-61480344D01*
X202477043Y-61480341D01*
X202640841Y-61316543D01*
X202700672Y-61276565D01*
X202833455Y-61187842D01*
X203047473Y-61099193D01*
X203176570Y-61073514D01*
X203274673Y-61054000D01*
X203506327Y-61054000D01*
X203604430Y-61073514D01*
X203604430Y-61073514D01*
G37*
G36*
X232925000Y-66414000D02*
X230823000Y-66414000D01*
X230823000Y-65611404D01*
X230820598Y-65587018D01*
X230813485Y-65563569D01*
X230801934Y-65541958D01*
X230786388Y-65523016D01*
X230767452Y-65507475D01*
X230740209Y-65489272D01*
X230611228Y-65360291D01*
X230509889Y-65208626D01*
X230440085Y-65040104D01*
X230404500Y-64861203D01*
X230404500Y-64678797D01*
X230440085Y-64499896D01*
X230509889Y-64331374D01*
X230611228Y-64179709D01*
X230740209Y-64050728D01*
X230767452Y-64032525D01*
X230786389Y-64016984D01*
X230801934Y-63998042D01*
X230813485Y-63976431D01*
X230820598Y-63952982D01*
X230823000Y-63928596D01*
X230823000Y-63112000D01*
X232925000Y-63112000D01*
X232925000Y-66414000D01*
X232925000Y-66414000D01*
G37*
G36*
X194825000Y-66414000D02*
X192723000Y-66414000D01*
X192723000Y-65611404D01*
X192720598Y-65587018D01*
X192713485Y-65563569D01*
X192701934Y-65541958D01*
X192686388Y-65523016D01*
X192667452Y-65507475D01*
X192640209Y-65489272D01*
X192511228Y-65360291D01*
X192409889Y-65208626D01*
X192340085Y-65040104D01*
X192304500Y-64861203D01*
X192304500Y-64678797D01*
X192340085Y-64499896D01*
X192409889Y-64331374D01*
X192511228Y-64179709D01*
X192640209Y-64050728D01*
X192667452Y-64032525D01*
X192686389Y-64016984D01*
X192701934Y-63998042D01*
X192713485Y-63976431D01*
X192720598Y-63952982D01*
X192723000Y-63928596D01*
X192723000Y-63112000D01*
X194825000Y-63112000D01*
X194825000Y-66414000D01*
X194825000Y-66414000D01*
G37*
G36*
X184554430Y-61073514D02*
X184683527Y-61099193D01*
X184897545Y-61187842D01*
X185030328Y-61276565D01*
X185090159Y-61316543D01*
X185253957Y-61480341D01*
X185253959Y-61480344D01*
X185382658Y-61672955D01*
X185471307Y-61886973D01*
X185516500Y-62114174D01*
X185516500Y-62345826D01*
X185471307Y-62573027D01*
X185382658Y-62787045D01*
X185371540Y-62803684D01*
X185253957Y-62979659D01*
X185090159Y-63143457D01*
X185090156Y-63143459D01*
X184897545Y-63272158D01*
X184683527Y-63360807D01*
X184569927Y-63383403D01*
X184456327Y-63406000D01*
X184224673Y-63406000D01*
X184111073Y-63383403D01*
X183997473Y-63360807D01*
X183797832Y-63278113D01*
X183774386Y-63271001D01*
X183750000Y-63268599D01*
X183725614Y-63271001D01*
X183702165Y-63278114D01*
X183680554Y-63289665D01*
X183661612Y-63305211D01*
X183646066Y-63324153D01*
X183634515Y-63345764D01*
X183627402Y-63369213D01*
X183625000Y-63393599D01*
X183625000Y-63963162D01*
X183627402Y-63987548D01*
X183634515Y-64010997D01*
X183646066Y-64032608D01*
X183661607Y-64051544D01*
X183789772Y-64179709D01*
X183891111Y-64331374D01*
X183960915Y-64499896D01*
X183996500Y-64678797D01*
X183996500Y-64861203D01*
X183960915Y-65040104D01*
X183891111Y-65208626D01*
X183789772Y-65360291D01*
X183661607Y-65488456D01*
X183646066Y-65507392D01*
X183634515Y-65529003D01*
X183627402Y-65552452D01*
X183625000Y-65576838D01*
X183625000Y-66414000D01*
X181523000Y-66414000D01*
X181523000Y-63112000D01*
X183281612Y-63112000D01*
X183305998Y-63109598D01*
X183329447Y-63102485D01*
X183351058Y-63090934D01*
X183370000Y-63075388D01*
X183385546Y-63056446D01*
X183397097Y-63034835D01*
X183404210Y-63011386D01*
X183406612Y-62987000D01*
X183404210Y-62962614D01*
X183397097Y-62939165D01*
X183385546Y-62917554D01*
X183309460Y-62803684D01*
X183298342Y-62787045D01*
X183209693Y-62573027D01*
X183164500Y-62345826D01*
X183164500Y-62114174D01*
X183209693Y-61886973D01*
X183298342Y-61672955D01*
X183427041Y-61480344D01*
X183427043Y-61480341D01*
X183590841Y-61316543D01*
X183650672Y-61276565D01*
X183783455Y-61187842D01*
X183997473Y-61099193D01*
X184126570Y-61073514D01*
X184224673Y-61054000D01*
X184456327Y-61054000D01*
X184554430Y-61073514D01*
X184554430Y-61073514D01*
G37*
G36*
X213875000Y-66414000D02*
X211773000Y-66414000D01*
X211773000Y-65611404D01*
X211770598Y-65587018D01*
X211763485Y-65563569D01*
X211751934Y-65541958D01*
X211736388Y-65523016D01*
X211717452Y-65507475D01*
X211690209Y-65489272D01*
X211561228Y-65360291D01*
X211459889Y-65208626D01*
X211390085Y-65040104D01*
X211354500Y-64861203D01*
X211354500Y-64678797D01*
X211390085Y-64499896D01*
X211459889Y-64331374D01*
X211561228Y-64179709D01*
X211690209Y-64050728D01*
X211717452Y-64032525D01*
X211736389Y-64016984D01*
X211751934Y-63998042D01*
X211763485Y-63976431D01*
X211770598Y-63952982D01*
X211773000Y-63928596D01*
X211773000Y-63112000D01*
X213875000Y-63112000D01*
X213875000Y-66414000D01*
X213875000Y-66414000D01*
G37*
G36*
X222654430Y-61073514D02*
X222783527Y-61099193D01*
X222997545Y-61187842D01*
X223130328Y-61276565D01*
X223190159Y-61316543D01*
X223353957Y-61480341D01*
X223353959Y-61480344D01*
X223482658Y-61672955D01*
X223571307Y-61886973D01*
X223616500Y-62114174D01*
X223616500Y-62345826D01*
X223571307Y-62573027D01*
X223482658Y-62787045D01*
X223471540Y-62803684D01*
X223353957Y-62979659D01*
X223190159Y-63143457D01*
X223190156Y-63143459D01*
X222997545Y-63272158D01*
X222783527Y-63360807D01*
X222669927Y-63383403D01*
X222556327Y-63406000D01*
X222324673Y-63406000D01*
X222211073Y-63383403D01*
X222097473Y-63360807D01*
X221897832Y-63278113D01*
X221874386Y-63271001D01*
X221850000Y-63268599D01*
X221825614Y-63271001D01*
X221802165Y-63278114D01*
X221780554Y-63289665D01*
X221761612Y-63305211D01*
X221746066Y-63324153D01*
X221734515Y-63345764D01*
X221727402Y-63369213D01*
X221725000Y-63393599D01*
X221725000Y-63963162D01*
X221727402Y-63987548D01*
X221734515Y-64010997D01*
X221746066Y-64032608D01*
X221761607Y-64051544D01*
X221889772Y-64179709D01*
X221991111Y-64331374D01*
X222060915Y-64499896D01*
X222096500Y-64678797D01*
X222096500Y-64861203D01*
X222060915Y-65040104D01*
X221991111Y-65208626D01*
X221889772Y-65360291D01*
X221761607Y-65488456D01*
X221746066Y-65507392D01*
X221734515Y-65529003D01*
X221727402Y-65552452D01*
X221725000Y-65576838D01*
X221725000Y-66414000D01*
X219623000Y-66414000D01*
X219623000Y-63112000D01*
X221381612Y-63112000D01*
X221405998Y-63109598D01*
X221429447Y-63102485D01*
X221451058Y-63090934D01*
X221470000Y-63075388D01*
X221485546Y-63056446D01*
X221497097Y-63034835D01*
X221504210Y-63011386D01*
X221506612Y-62987000D01*
X221504210Y-62962614D01*
X221497097Y-62939165D01*
X221485546Y-62917554D01*
X221409460Y-62803684D01*
X221398342Y-62787045D01*
X221309693Y-62573027D01*
X221264500Y-62345826D01*
X221264500Y-62114174D01*
X221309693Y-61886973D01*
X221398342Y-61672955D01*
X221527041Y-61480344D01*
X221527043Y-61480341D01*
X221690841Y-61316543D01*
X221750672Y-61276565D01*
X221883455Y-61187842D01*
X222097473Y-61099193D01*
X222226570Y-61073514D01*
X222324673Y-61054000D01*
X222556327Y-61054000D01*
X222654430Y-61073514D01*
X222654430Y-61073514D01*
G37*
G36*
X251911500Y-66414000D02*
X249809500Y-66414000D01*
X249809500Y-65560338D01*
X249807098Y-65535952D01*
X249799985Y-65512503D01*
X249788434Y-65490892D01*
X249772893Y-65471956D01*
X249661228Y-65360291D01*
X249559889Y-65208626D01*
X249490085Y-65040104D01*
X249454500Y-64861203D01*
X249454500Y-64678797D01*
X249490085Y-64499896D01*
X249559889Y-64331374D01*
X249661228Y-64179709D01*
X249772893Y-64068044D01*
X249788434Y-64049108D01*
X249799985Y-64027497D01*
X249807098Y-64004048D01*
X249809500Y-63979662D01*
X249809500Y-63112000D01*
X251911500Y-63112000D01*
X251911500Y-66414000D01*
X251911500Y-66414000D01*
G37*
G36*
X241704430Y-61073514D02*
X241833527Y-61099193D01*
X242047545Y-61187842D01*
X242180328Y-61276565D01*
X242240159Y-61316543D01*
X242403957Y-61480341D01*
X242403959Y-61480344D01*
X242532658Y-61672955D01*
X242621307Y-61886973D01*
X242666500Y-62114174D01*
X242666500Y-62345826D01*
X242621307Y-62573027D01*
X242532658Y-62787045D01*
X242521540Y-62803684D01*
X242403957Y-62979659D01*
X242240159Y-63143457D01*
X242240156Y-63143459D01*
X242047545Y-63272158D01*
X241833527Y-63360807D01*
X241719927Y-63383403D01*
X241606327Y-63406000D01*
X241374673Y-63406000D01*
X241261073Y-63383403D01*
X241147473Y-63360807D01*
X240933455Y-63272158D01*
X240905946Y-63253777D01*
X240884335Y-63242226D01*
X240860885Y-63235113D01*
X240836499Y-63232711D01*
X240812113Y-63235113D01*
X240788664Y-63242226D01*
X240767053Y-63253778D01*
X240748111Y-63269323D01*
X240732566Y-63288265D01*
X240721015Y-63309876D01*
X240713902Y-63333326D01*
X240711500Y-63357711D01*
X240711500Y-63917571D01*
X240713902Y-63941957D01*
X240721015Y-63965406D01*
X240732566Y-63987017D01*
X240748112Y-64005959D01*
X240767048Y-64021500D01*
X240810791Y-64050728D01*
X240939772Y-64179709D01*
X241041111Y-64331374D01*
X241110915Y-64499896D01*
X241146500Y-64678797D01*
X241146500Y-64861203D01*
X241110915Y-65040104D01*
X241041111Y-65208626D01*
X240939772Y-65360291D01*
X240810791Y-65489272D01*
X240767048Y-65518500D01*
X240748111Y-65534041D01*
X240732566Y-65552983D01*
X240721015Y-65574594D01*
X240713902Y-65598043D01*
X240711500Y-65622429D01*
X240711500Y-66414000D01*
X238609500Y-66414000D01*
X238609500Y-63112000D01*
X240431612Y-63112000D01*
X240455998Y-63109598D01*
X240479447Y-63102485D01*
X240501058Y-63090934D01*
X240520000Y-63075388D01*
X240535546Y-63056446D01*
X240547097Y-63034835D01*
X240554210Y-63011386D01*
X240556612Y-62987000D01*
X240554210Y-62962614D01*
X240547097Y-62939165D01*
X240535546Y-62917554D01*
X240459460Y-62803684D01*
X240448342Y-62787045D01*
X240359693Y-62573027D01*
X240314500Y-62345826D01*
X240314500Y-62114174D01*
X240359693Y-61886973D01*
X240448342Y-61672955D01*
X240577041Y-61480344D01*
X240577043Y-61480341D01*
X240740841Y-61316543D01*
X240800672Y-61276565D01*
X240933455Y-61187842D01*
X241147473Y-61099193D01*
X241276570Y-61073514D01*
X241374673Y-61054000D01*
X241606327Y-61054000D01*
X241704430Y-61073514D01*
X241704430Y-61073514D01*
G37*
G36*
X177063200Y-65676800D02*
X175461200Y-65676800D01*
X175461200Y-64574800D01*
X177063200Y-64574800D01*
X177063200Y-65676800D01*
X177063200Y-65676800D01*
G37*
G36*
X172163200Y-65676800D02*
X170561200Y-65676800D01*
X170561200Y-64574800D01*
X172163200Y-64574800D01*
X172163200Y-65676800D01*
X172163200Y-65676800D01*
G37*
G36*
X199314000Y-62789000D02*
X197815000Y-62789000D01*
X197815000Y-61290000D01*
X199314000Y-61290000D01*
X199314000Y-62789000D01*
X199314000Y-62789000D01*
G37*
G36*
X197536000Y-62789000D02*
X196037000Y-62789000D01*
X196037000Y-61290000D01*
X197536000Y-61290000D01*
X197536000Y-62789000D01*
X197536000Y-62789000D01*
G37*
G36*
X237541000Y-62725500D02*
X236042000Y-62725500D01*
X236042000Y-61226500D01*
X237541000Y-61226500D01*
X237541000Y-62725500D01*
X237541000Y-62725500D01*
G37*
G36*
X235509000Y-62725500D02*
X234010000Y-62725500D01*
X234010000Y-61226500D01*
X235509000Y-61226500D01*
X235509000Y-62725500D01*
X235509000Y-62725500D01*
G37*
G36*
X231557065Y-59959389D02*
X231748334Y-60038615D01*
X231920476Y-60153637D01*
X232066863Y-60300024D01*
X232181885Y-60472166D01*
X232261111Y-60663435D01*
X232301500Y-60866484D01*
X232301500Y-61073516D01*
X232261111Y-61276565D01*
X232181885Y-61467834D01*
X232066863Y-61639976D01*
X231920476Y-61786363D01*
X231748334Y-61901385D01*
X231557065Y-61980611D01*
X231354016Y-62021000D01*
X231146984Y-62021000D01*
X230943935Y-61980611D01*
X230752666Y-61901385D01*
X230580524Y-61786363D01*
X230434137Y-61639976D01*
X230319115Y-61467834D01*
X230239889Y-61276565D01*
X230199500Y-61073516D01*
X230199500Y-60866484D01*
X230239889Y-60663435D01*
X230319115Y-60472166D01*
X230434137Y-60300024D01*
X230580524Y-60153637D01*
X230752666Y-60038615D01*
X230943935Y-59959389D01*
X231146984Y-59919000D01*
X231354016Y-59919000D01*
X231557065Y-59959389D01*
X231557065Y-59959389D01*
G37*
G36*
X212507065Y-59959389D02*
X212698334Y-60038615D01*
X212870476Y-60153637D01*
X213016863Y-60300024D01*
X213131885Y-60472166D01*
X213211111Y-60663435D01*
X213251500Y-60866484D01*
X213251500Y-61073516D01*
X213211111Y-61276565D01*
X213131885Y-61467834D01*
X213016863Y-61639976D01*
X212870476Y-61786363D01*
X212698334Y-61901385D01*
X212507065Y-61980611D01*
X212304016Y-62021000D01*
X212096984Y-62021000D01*
X211893935Y-61980611D01*
X211702666Y-61901385D01*
X211530524Y-61786363D01*
X211384137Y-61639976D01*
X211269115Y-61467834D01*
X211189889Y-61276565D01*
X211149500Y-61073516D01*
X211149500Y-60866484D01*
X211189889Y-60663435D01*
X211269115Y-60472166D01*
X211384137Y-60300024D01*
X211530524Y-60153637D01*
X211702666Y-60038615D01*
X211893935Y-59959389D01*
X212096984Y-59919000D01*
X212304016Y-59919000D01*
X212507065Y-59959389D01*
X212507065Y-59959389D01*
G37*
G36*
X250607065Y-59959389D02*
X250798334Y-60038615D01*
X250970476Y-60153637D01*
X251116863Y-60300024D01*
X251231885Y-60472166D01*
X251311111Y-60663435D01*
X251351500Y-60866484D01*
X251351500Y-61073516D01*
X251311111Y-61276565D01*
X251231885Y-61467834D01*
X251116863Y-61639976D01*
X250970476Y-61786363D01*
X250798334Y-61901385D01*
X250607065Y-61980611D01*
X250404016Y-62021000D01*
X250196984Y-62021000D01*
X249993935Y-61980611D01*
X249802666Y-61901385D01*
X249630524Y-61786363D01*
X249484137Y-61639976D01*
X249369115Y-61467834D01*
X249289889Y-61276565D01*
X249249500Y-61073516D01*
X249249500Y-60866484D01*
X249289889Y-60663435D01*
X249369115Y-60472166D01*
X249484137Y-60300024D01*
X249630524Y-60153637D01*
X249802666Y-60038615D01*
X249993935Y-59959389D01*
X250196984Y-59919000D01*
X250404016Y-59919000D01*
X250607065Y-59959389D01*
X250607065Y-59959389D01*
G37*
G36*
X193457065Y-59959389D02*
X193648334Y-60038615D01*
X193820476Y-60153637D01*
X193966863Y-60300024D01*
X194081885Y-60472166D01*
X194161111Y-60663435D01*
X194201500Y-60866484D01*
X194201500Y-61073516D01*
X194161111Y-61276565D01*
X194081885Y-61467834D01*
X193966863Y-61639976D01*
X193820476Y-61786363D01*
X193648334Y-61901385D01*
X193457065Y-61980611D01*
X193254016Y-62021000D01*
X193046984Y-62021000D01*
X192843935Y-61980611D01*
X192652666Y-61901385D01*
X192480524Y-61786363D01*
X192334137Y-61639976D01*
X192219115Y-61467834D01*
X192139889Y-61276565D01*
X192099500Y-61073516D01*
X192099500Y-60866484D01*
X192139889Y-60663435D01*
X192219115Y-60472166D01*
X192334137Y-60300024D01*
X192480524Y-60153637D01*
X192652666Y-60038615D01*
X192843935Y-59959389D01*
X193046984Y-59919000D01*
X193254016Y-59919000D01*
X193457065Y-59959389D01*
X193457065Y-59959389D01*
G37*
G36*
X177063200Y-60901200D02*
X175461200Y-60901200D01*
X175461200Y-59799200D01*
X177063200Y-59799200D01*
X177063200Y-60901200D01*
X177063200Y-60901200D01*
G37*
G36*
X172163200Y-60901200D02*
X170561200Y-60901200D01*
X170561200Y-59799200D01*
X172163200Y-59799200D01*
X172163200Y-60901200D01*
X172163200Y-60901200D01*
G37*
G36*
X190980565Y-56752389D02*
X191171834Y-56831615D01*
X191343976Y-56946637D01*
X191490363Y-57093024D01*
X191605385Y-57265166D01*
X191684611Y-57456435D01*
X191725000Y-57659484D01*
X191725000Y-57866516D01*
X191684611Y-58069565D01*
X191605385Y-58260834D01*
X191490363Y-58432976D01*
X191372002Y-58551337D01*
X191356456Y-58570279D01*
X191344905Y-58591890D01*
X191337792Y-58615339D01*
X191335390Y-58639725D01*
X191337792Y-58664111D01*
X191344905Y-58687560D01*
X191356456Y-58709171D01*
X191372002Y-58728113D01*
X191390941Y-58743656D01*
X191425042Y-58766442D01*
X191440159Y-58776543D01*
X191603957Y-58940341D01*
X191603959Y-58940344D01*
X191732658Y-59132955D01*
X191821307Y-59346973D01*
X191866500Y-59574174D01*
X191866500Y-59805826D01*
X191821307Y-60033027D01*
X191732658Y-60247045D01*
X191697258Y-60300024D01*
X191603957Y-60439659D01*
X191440159Y-60603457D01*
X191440156Y-60603459D01*
X191247545Y-60732158D01*
X191033527Y-60820807D01*
X190919926Y-60843404D01*
X190806327Y-60866000D01*
X190574673Y-60866000D01*
X190461074Y-60843404D01*
X190347473Y-60820807D01*
X190133455Y-60732158D01*
X189940844Y-60603459D01*
X189940841Y-60603457D01*
X189777043Y-60439659D01*
X189683742Y-60300024D01*
X189648342Y-60247045D01*
X189559693Y-60033027D01*
X189514500Y-59805826D01*
X189514500Y-59574174D01*
X189559693Y-59346973D01*
X189648342Y-59132955D01*
X189777041Y-58940344D01*
X189777043Y-58940341D01*
X189940843Y-58776541D01*
X189970273Y-58756877D01*
X189989215Y-58741332D01*
X190004761Y-58722390D01*
X190016312Y-58700780D01*
X190023426Y-58677331D01*
X190025828Y-58652944D01*
X190023426Y-58628558D01*
X190016313Y-58605109D01*
X190004762Y-58583498D01*
X189989216Y-58564555D01*
X189857637Y-58432976D01*
X189742615Y-58260834D01*
X189663389Y-58069565D01*
X189623000Y-57866516D01*
X189623000Y-57659484D01*
X189663389Y-57456435D01*
X189742615Y-57265166D01*
X189857637Y-57093024D01*
X190004024Y-56946637D01*
X190176166Y-56831615D01*
X190367435Y-56752389D01*
X190570484Y-56712000D01*
X190777516Y-56712000D01*
X190980565Y-56752389D01*
X190980565Y-56752389D01*
G37*
G36*
X229080565Y-56752389D02*
X229271834Y-56831615D01*
X229443976Y-56946637D01*
X229590363Y-57093024D01*
X229705385Y-57265166D01*
X229784611Y-57456435D01*
X229825000Y-57659484D01*
X229825000Y-57866516D01*
X229784611Y-58069565D01*
X229705385Y-58260834D01*
X229590363Y-58432976D01*
X229472002Y-58551337D01*
X229456456Y-58570279D01*
X229444905Y-58591890D01*
X229437792Y-58615339D01*
X229435390Y-58639725D01*
X229437792Y-58664111D01*
X229444905Y-58687560D01*
X229456456Y-58709171D01*
X229472002Y-58728113D01*
X229490941Y-58743656D01*
X229525042Y-58766442D01*
X229540159Y-58776543D01*
X229703957Y-58940341D01*
X229703959Y-58940344D01*
X229832658Y-59132955D01*
X229921307Y-59346973D01*
X229966500Y-59574174D01*
X229966500Y-59805826D01*
X229921307Y-60033027D01*
X229832658Y-60247045D01*
X229797258Y-60300024D01*
X229703957Y-60439659D01*
X229540159Y-60603457D01*
X229540156Y-60603459D01*
X229347545Y-60732158D01*
X229133527Y-60820807D01*
X229019926Y-60843404D01*
X228906327Y-60866000D01*
X228674673Y-60866000D01*
X228561074Y-60843404D01*
X228447473Y-60820807D01*
X228233455Y-60732158D01*
X228040844Y-60603459D01*
X228040841Y-60603457D01*
X227877043Y-60439659D01*
X227783742Y-60300024D01*
X227748342Y-60247045D01*
X227659693Y-60033027D01*
X227614500Y-59805826D01*
X227614500Y-59574174D01*
X227659693Y-59346973D01*
X227748342Y-59132955D01*
X227877041Y-58940344D01*
X227877043Y-58940341D01*
X228040843Y-58776541D01*
X228070273Y-58756877D01*
X228089215Y-58741332D01*
X228104761Y-58722390D01*
X228116312Y-58700780D01*
X228123426Y-58677331D01*
X228125828Y-58652944D01*
X228123426Y-58628558D01*
X228116313Y-58605109D01*
X228104762Y-58583498D01*
X228089216Y-58564555D01*
X227957637Y-58432976D01*
X227842615Y-58260834D01*
X227763389Y-58069565D01*
X227723000Y-57866516D01*
X227723000Y-57659484D01*
X227763389Y-57456435D01*
X227842615Y-57265166D01*
X227957637Y-57093024D01*
X228104024Y-56946637D01*
X228276166Y-56831615D01*
X228467435Y-56752389D01*
X228670484Y-56712000D01*
X228877516Y-56712000D01*
X229080565Y-56752389D01*
X229080565Y-56752389D01*
G37*
G36*
X248067065Y-56752389D02*
X248258334Y-56831615D01*
X248430476Y-56946637D01*
X248576863Y-57093024D01*
X248691885Y-57265166D01*
X248771111Y-57456435D01*
X248811500Y-57659484D01*
X248811500Y-57866516D01*
X248771111Y-58069565D01*
X248691885Y-58260834D01*
X248576863Y-58432976D01*
X248483937Y-58525902D01*
X248468391Y-58544844D01*
X248456840Y-58566455D01*
X248449727Y-58589904D01*
X248447325Y-58614290D01*
X248449727Y-58638676D01*
X248456840Y-58662125D01*
X248468391Y-58683736D01*
X248483937Y-58702678D01*
X248502879Y-58718224D01*
X248590159Y-58776543D01*
X248753957Y-58940341D01*
X248753959Y-58940344D01*
X248882658Y-59132955D01*
X248971307Y-59346973D01*
X249016500Y-59574174D01*
X249016500Y-59805826D01*
X248971307Y-60033027D01*
X248882658Y-60247045D01*
X248847258Y-60300024D01*
X248753957Y-60439659D01*
X248590159Y-60603457D01*
X248590156Y-60603459D01*
X248397545Y-60732158D01*
X248183527Y-60820807D01*
X248069927Y-60843403D01*
X247956327Y-60866000D01*
X247724673Y-60866000D01*
X247611074Y-60843404D01*
X247497473Y-60820807D01*
X247283455Y-60732158D01*
X247090844Y-60603459D01*
X247090841Y-60603457D01*
X246927043Y-60439659D01*
X246833742Y-60300024D01*
X246798342Y-60247045D01*
X246709693Y-60033027D01*
X246664500Y-59805826D01*
X246664500Y-59574174D01*
X246709693Y-59346973D01*
X246798342Y-59132955D01*
X246927041Y-58940344D01*
X246927043Y-58940341D01*
X247097782Y-58769602D01*
X247101632Y-58766442D01*
X247117176Y-58747499D01*
X247128726Y-58725887D01*
X247135838Y-58702437D01*
X247138238Y-58678051D01*
X247135835Y-58653665D01*
X247128720Y-58630216D01*
X247117167Y-58608606D01*
X247101621Y-58589665D01*
X247097187Y-58586026D01*
X246944137Y-58432976D01*
X246829115Y-58260834D01*
X246749889Y-58069565D01*
X246709500Y-57866516D01*
X246709500Y-57659484D01*
X246749889Y-57456435D01*
X246829115Y-57265166D01*
X246944137Y-57093024D01*
X247090524Y-56946637D01*
X247262666Y-56831615D01*
X247453935Y-56752389D01*
X247656984Y-56712000D01*
X247864016Y-56712000D01*
X248067065Y-56752389D01*
X248067065Y-56752389D01*
G37*
G36*
X210030565Y-56752389D02*
X210221834Y-56831615D01*
X210393976Y-56946637D01*
X210540363Y-57093024D01*
X210655385Y-57265166D01*
X210734611Y-57456435D01*
X210775000Y-57659484D01*
X210775000Y-57866516D01*
X210734611Y-58069565D01*
X210655385Y-58260834D01*
X210540363Y-58432976D01*
X210422002Y-58551337D01*
X210406456Y-58570279D01*
X210394905Y-58591890D01*
X210387792Y-58615339D01*
X210385390Y-58639725D01*
X210387792Y-58664111D01*
X210394905Y-58687560D01*
X210406456Y-58709171D01*
X210422002Y-58728113D01*
X210440941Y-58743656D01*
X210475042Y-58766442D01*
X210490159Y-58776543D01*
X210653957Y-58940341D01*
X210653959Y-58940344D01*
X210782658Y-59132955D01*
X210871307Y-59346973D01*
X210916500Y-59574174D01*
X210916500Y-59805826D01*
X210871307Y-60033027D01*
X210782658Y-60247045D01*
X210747258Y-60300024D01*
X210653957Y-60439659D01*
X210490159Y-60603457D01*
X210490156Y-60603459D01*
X210297545Y-60732158D01*
X210083527Y-60820807D01*
X209969926Y-60843404D01*
X209856327Y-60866000D01*
X209624673Y-60866000D01*
X209511074Y-60843404D01*
X209397473Y-60820807D01*
X209183455Y-60732158D01*
X208990844Y-60603459D01*
X208990841Y-60603457D01*
X208827043Y-60439659D01*
X208733742Y-60300024D01*
X208698342Y-60247045D01*
X208609693Y-60033027D01*
X208564500Y-59805826D01*
X208564500Y-59574174D01*
X208609693Y-59346973D01*
X208698342Y-59132955D01*
X208827041Y-58940344D01*
X208827043Y-58940341D01*
X208990843Y-58776541D01*
X209020273Y-58756877D01*
X209039215Y-58741332D01*
X209054761Y-58722390D01*
X209066312Y-58700780D01*
X209073426Y-58677331D01*
X209075828Y-58652944D01*
X209073426Y-58628558D01*
X209066313Y-58605109D01*
X209054762Y-58583498D01*
X209039216Y-58564555D01*
X208907637Y-58432976D01*
X208792615Y-58260834D01*
X208713389Y-58069565D01*
X208673000Y-57866516D01*
X208673000Y-57659484D01*
X208713389Y-57456435D01*
X208792615Y-57265166D01*
X208907637Y-57093024D01*
X209054024Y-56946637D01*
X209226166Y-56831615D01*
X209417435Y-56752389D01*
X209620484Y-56712000D01*
X209827516Y-56712000D01*
X210030565Y-56752389D01*
X210030565Y-56752389D01*
G37*
G36*
X226557065Y-58759389D02*
X226748334Y-58838615D01*
X226920476Y-58953637D01*
X227066863Y-59100024D01*
X227181885Y-59272166D01*
X227261111Y-59463435D01*
X227301500Y-59666484D01*
X227301500Y-59873516D01*
X227261111Y-60076565D01*
X227181885Y-60267834D01*
X227066863Y-60439976D01*
X226920476Y-60586363D01*
X226748334Y-60701385D01*
X226557065Y-60780611D01*
X226354016Y-60821000D01*
X226146984Y-60821000D01*
X225943935Y-60780611D01*
X225752666Y-60701385D01*
X225580524Y-60586363D01*
X225434137Y-60439976D01*
X225319115Y-60267834D01*
X225239889Y-60076565D01*
X225199500Y-59873516D01*
X225199500Y-59666484D01*
X225239889Y-59463435D01*
X225319115Y-59272166D01*
X225434137Y-59100024D01*
X225580524Y-58953637D01*
X225752666Y-58838615D01*
X225943935Y-58759389D01*
X226146984Y-58719000D01*
X226354016Y-58719000D01*
X226557065Y-58759389D01*
X226557065Y-58759389D01*
G37*
G36*
X188457065Y-58759389D02*
X188648334Y-58838615D01*
X188820476Y-58953637D01*
X188966863Y-59100024D01*
X189081885Y-59272166D01*
X189161111Y-59463435D01*
X189201500Y-59666484D01*
X189201500Y-59873516D01*
X189161111Y-60076565D01*
X189081885Y-60267834D01*
X188966863Y-60439976D01*
X188820476Y-60586363D01*
X188648334Y-60701385D01*
X188457065Y-60780611D01*
X188254016Y-60821000D01*
X188046984Y-60821000D01*
X187843935Y-60780611D01*
X187652666Y-60701385D01*
X187480524Y-60586363D01*
X187334137Y-60439976D01*
X187219115Y-60267834D01*
X187139889Y-60076565D01*
X187099500Y-59873516D01*
X187099500Y-59666484D01*
X187139889Y-59463435D01*
X187219115Y-59272166D01*
X187334137Y-59100024D01*
X187480524Y-58953637D01*
X187652666Y-58838615D01*
X187843935Y-58759389D01*
X188046984Y-58719000D01*
X188254016Y-58719000D01*
X188457065Y-58759389D01*
X188457065Y-58759389D01*
G37*
G36*
X207507065Y-58759389D02*
X207698334Y-58838615D01*
X207870476Y-58953637D01*
X208016863Y-59100024D01*
X208131885Y-59272166D01*
X208211111Y-59463435D01*
X208251500Y-59666484D01*
X208251500Y-59873516D01*
X208211111Y-60076565D01*
X208131885Y-60267834D01*
X208016863Y-60439976D01*
X207870476Y-60586363D01*
X207698334Y-60701385D01*
X207507065Y-60780611D01*
X207304016Y-60821000D01*
X207096984Y-60821000D01*
X206893935Y-60780611D01*
X206702666Y-60701385D01*
X206530524Y-60586363D01*
X206384137Y-60439976D01*
X206269115Y-60267834D01*
X206189889Y-60076565D01*
X206149500Y-59873516D01*
X206149500Y-59666484D01*
X206189889Y-59463435D01*
X206269115Y-59272166D01*
X206384137Y-59100024D01*
X206530524Y-58953637D01*
X206702666Y-58838615D01*
X206893935Y-58759389D01*
X207096984Y-58719000D01*
X207304016Y-58719000D01*
X207507065Y-58759389D01*
X207507065Y-58759389D01*
G37*
G36*
X245607065Y-58759389D02*
X245798334Y-58838615D01*
X245970476Y-58953637D01*
X246116863Y-59100024D01*
X246231885Y-59272166D01*
X246311111Y-59463435D01*
X246351500Y-59666484D01*
X246351500Y-59873516D01*
X246311111Y-60076565D01*
X246231885Y-60267834D01*
X246116863Y-60439976D01*
X245970476Y-60586363D01*
X245798334Y-60701385D01*
X245607065Y-60780611D01*
X245404016Y-60821000D01*
X245196984Y-60821000D01*
X244993935Y-60780611D01*
X244802666Y-60701385D01*
X244630524Y-60586363D01*
X244484137Y-60439976D01*
X244369115Y-60267834D01*
X244289889Y-60076565D01*
X244249500Y-59873516D01*
X244249500Y-59666484D01*
X244289889Y-59463435D01*
X244369115Y-59272166D01*
X244484137Y-59100024D01*
X244630524Y-58953637D01*
X244802666Y-58838615D01*
X244993935Y-58759389D01*
X245196984Y-58719000D01*
X245404016Y-58719000D01*
X245607065Y-58759389D01*
X245607065Y-58759389D01*
G37*
G36*
X199314000Y-59487000D02*
X197815000Y-59487000D01*
X197815000Y-57988000D01*
X199314000Y-57988000D01*
X199314000Y-59487000D01*
X199314000Y-59487000D01*
G37*
G36*
X197536000Y-59487000D02*
X196037000Y-59487000D01*
X196037000Y-57988000D01*
X197536000Y-57988000D01*
X197536000Y-59487000D01*
X197536000Y-59487000D01*
G37*
G36*
X237541000Y-59423500D02*
X236042000Y-59423500D01*
X236042000Y-57924500D01*
X237541000Y-57924500D01*
X237541000Y-59423500D01*
X237541000Y-59423500D01*
G37*
G36*
X235509000Y-59423500D02*
X234010000Y-59423500D01*
X234010000Y-57924500D01*
X235509000Y-57924500D01*
X235509000Y-59423500D01*
X235509000Y-59423500D01*
G37*
G36*
X243067065Y-56752389D02*
X243258334Y-56831615D01*
X243430476Y-56946637D01*
X243576863Y-57093024D01*
X243691885Y-57265166D01*
X243771111Y-57456435D01*
X243811500Y-57659484D01*
X243811500Y-57866516D01*
X243771111Y-58069565D01*
X243691885Y-58260834D01*
X243576863Y-58432976D01*
X243430476Y-58579363D01*
X243258334Y-58694385D01*
X243067065Y-58773611D01*
X242864016Y-58814000D01*
X242656984Y-58814000D01*
X242453935Y-58773611D01*
X242262666Y-58694385D01*
X242090524Y-58579363D01*
X241944137Y-58432976D01*
X241829115Y-58260834D01*
X241749889Y-58069565D01*
X241709500Y-57866516D01*
X241709500Y-57659484D01*
X241749889Y-57456435D01*
X241829115Y-57265166D01*
X241944137Y-57093024D01*
X242090524Y-56946637D01*
X242262666Y-56831615D01*
X242453935Y-56752389D01*
X242656984Y-56712000D01*
X242864016Y-56712000D01*
X243067065Y-56752389D01*
X243067065Y-56752389D01*
G37*
G36*
X224080565Y-56752389D02*
X224271834Y-56831615D01*
X224443976Y-56946637D01*
X224590363Y-57093024D01*
X224705385Y-57265166D01*
X224784611Y-57456435D01*
X224825000Y-57659484D01*
X224825000Y-57866516D01*
X224784611Y-58069565D01*
X224705385Y-58260834D01*
X224590363Y-58432976D01*
X224443976Y-58579363D01*
X224271834Y-58694385D01*
X224080565Y-58773611D01*
X223877516Y-58814000D01*
X223670484Y-58814000D01*
X223467435Y-58773611D01*
X223276166Y-58694385D01*
X223104024Y-58579363D01*
X222957637Y-58432976D01*
X222842615Y-58260834D01*
X222763389Y-58069565D01*
X222723000Y-57866516D01*
X222723000Y-57659484D01*
X222763389Y-57456435D01*
X222842615Y-57265166D01*
X222957637Y-57093024D01*
X223104024Y-56946637D01*
X223276166Y-56831615D01*
X223467435Y-56752389D01*
X223670484Y-56712000D01*
X223877516Y-56712000D01*
X224080565Y-56752389D01*
X224080565Y-56752389D01*
G37*
G36*
X205030565Y-56752389D02*
X205221834Y-56831615D01*
X205393976Y-56946637D01*
X205540363Y-57093024D01*
X205655385Y-57265166D01*
X205734611Y-57456435D01*
X205775000Y-57659484D01*
X205775000Y-57866516D01*
X205734611Y-58069565D01*
X205655385Y-58260834D01*
X205540363Y-58432976D01*
X205393976Y-58579363D01*
X205221834Y-58694385D01*
X205030565Y-58773611D01*
X204827516Y-58814000D01*
X204620484Y-58814000D01*
X204417435Y-58773611D01*
X204226166Y-58694385D01*
X204054024Y-58579363D01*
X203907637Y-58432976D01*
X203792615Y-58260834D01*
X203713389Y-58069565D01*
X203673000Y-57866516D01*
X203673000Y-57659484D01*
X203713389Y-57456435D01*
X203792615Y-57265166D01*
X203907637Y-57093024D01*
X204054024Y-56946637D01*
X204226166Y-56831615D01*
X204417435Y-56752389D01*
X204620484Y-56712000D01*
X204827516Y-56712000D01*
X205030565Y-56752389D01*
X205030565Y-56752389D01*
G37*
G36*
X185980565Y-56752389D02*
X186171834Y-56831615D01*
X186343976Y-56946637D01*
X186490363Y-57093024D01*
X186605385Y-57265166D01*
X186684611Y-57456435D01*
X186725000Y-57659484D01*
X186725000Y-57866516D01*
X186684611Y-58069565D01*
X186605385Y-58260834D01*
X186490363Y-58432976D01*
X186343976Y-58579363D01*
X186171834Y-58694385D01*
X185980565Y-58773611D01*
X185777516Y-58814000D01*
X185570484Y-58814000D01*
X185367435Y-58773611D01*
X185176166Y-58694385D01*
X185004024Y-58579363D01*
X184857637Y-58432976D01*
X184742615Y-58260834D01*
X184663389Y-58069565D01*
X184623000Y-57866516D01*
X184623000Y-57659484D01*
X184663389Y-57456435D01*
X184742615Y-57265166D01*
X184857637Y-57093024D01*
X185004024Y-56946637D01*
X185176166Y-56831615D01*
X185367435Y-56752389D01*
X185570484Y-56712000D01*
X185777516Y-56712000D01*
X185980565Y-56752389D01*
X185980565Y-56752389D01*
G37*
G36*
X177063200Y-57701200D02*
X175461200Y-57701200D01*
X175461200Y-56599200D01*
X177063200Y-56599200D01*
X177063200Y-57701200D01*
X177063200Y-57701200D01*
G37*
G36*
X172163200Y-57701200D02*
X170561200Y-57701200D01*
X170561200Y-56599200D01*
X172163200Y-56599200D01*
X172163200Y-57701200D01*
X172163200Y-57701200D01*
G37*
G36*
X195783400Y-55130900D02*
X194792400Y-55130900D01*
X194792400Y-54139900D01*
X195783400Y-54139900D01*
X195783400Y-55130900D01*
X195783400Y-55130900D01*
G37*
G36*
X175621565Y-52697689D02*
X175812834Y-52776915D01*
X175984976Y-52891937D01*
X176131363Y-53038324D01*
X176246385Y-53210466D01*
X176325611Y-53401735D01*
X176366000Y-53604784D01*
X176366000Y-53811816D01*
X176325611Y-54014865D01*
X176246385Y-54206134D01*
X176131363Y-54378276D01*
X175984976Y-54524663D01*
X175812834Y-54639685D01*
X175621565Y-54718911D01*
X175418516Y-54759300D01*
X175211484Y-54759300D01*
X175008435Y-54718911D01*
X174817166Y-54639685D01*
X174645024Y-54524663D01*
X174498637Y-54378276D01*
X174383615Y-54206134D01*
X174304389Y-54014865D01*
X174264000Y-53811816D01*
X174264000Y-53604784D01*
X174304389Y-53401735D01*
X174383615Y-53210466D01*
X174498637Y-53038324D01*
X174645024Y-52891937D01*
X174817166Y-52776915D01*
X175008435Y-52697689D01*
X175211484Y-52657300D01*
X175418516Y-52657300D01*
X175621565Y-52697689D01*
X175621565Y-52697689D01*
G37*
G36*
X171121565Y-52697689D02*
X171312834Y-52776915D01*
X171484976Y-52891937D01*
X171631363Y-53038324D01*
X171746385Y-53210466D01*
X171825611Y-53401735D01*
X171866000Y-53604784D01*
X171866000Y-53811816D01*
X171825611Y-54014865D01*
X171746385Y-54206134D01*
X171631363Y-54378276D01*
X171484976Y-54524663D01*
X171312834Y-54639685D01*
X171121565Y-54718911D01*
X170918516Y-54759300D01*
X170711484Y-54759300D01*
X170508435Y-54718911D01*
X170317166Y-54639685D01*
X170145024Y-54524663D01*
X169998637Y-54378276D01*
X169883615Y-54206134D01*
X169804389Y-54014865D01*
X169764000Y-53811816D01*
X169764000Y-53604784D01*
X169804389Y-53401735D01*
X169883615Y-53210466D01*
X169998637Y-53038324D01*
X170145024Y-52891937D01*
X170317166Y-52776915D01*
X170508435Y-52697689D01*
X170711484Y-52657300D01*
X170918516Y-52657300D01*
X171121565Y-52697689D01*
X171121565Y-52697689D01*
G37*
G36*
X245732100Y-53700300D02*
X244130100Y-53700300D01*
X244130100Y-52598300D01*
X245732100Y-52598300D01*
X245732100Y-53700300D01*
X245732100Y-53700300D01*
G37*
G36*
X240832100Y-53700300D02*
X239230100Y-53700300D01*
X239230100Y-52598300D01*
X240832100Y-52598300D01*
X240832100Y-53700300D01*
X240832100Y-53700300D01*
G37*
G36*
X249468100Y-53636800D02*
X247866100Y-53636800D01*
X247866100Y-52534800D01*
X249468100Y-52534800D01*
X249468100Y-53636800D01*
X249468100Y-53636800D01*
G37*
G36*
X254368100Y-53636800D02*
X252766100Y-53636800D01*
X252766100Y-52534800D01*
X254368100Y-52534800D01*
X254368100Y-53636800D01*
X254368100Y-53636800D01*
G37*
G36*
X195783400Y-53606900D02*
X194792400Y-53606900D01*
X194792400Y-52615900D01*
X195783400Y-52615900D01*
X195783400Y-53606900D01*
X195783400Y-53606900D01*
G37*
G36*
X200931557Y-44589083D02*
X200936228Y-44590500D01*
X200940530Y-44592800D01*
X200946905Y-44598031D01*
X200967280Y-44611644D01*
X200989919Y-44621020D01*
X201013953Y-44625800D01*
X201038457Y-44625799D01*
X201062491Y-44621017D01*
X201085129Y-44611639D01*
X201105495Y-44598031D01*
X201111870Y-44592800D01*
X201116172Y-44590500D01*
X201120843Y-44589083D01*
X201131841Y-44588000D01*
X201420559Y-44588000D01*
X201431557Y-44589083D01*
X201436228Y-44590500D01*
X201440530Y-44592800D01*
X201446905Y-44598031D01*
X201467280Y-44611644D01*
X201489919Y-44621020D01*
X201513953Y-44625800D01*
X201538457Y-44625799D01*
X201562491Y-44621017D01*
X201585129Y-44611639D01*
X201605495Y-44598031D01*
X201611870Y-44592800D01*
X201616172Y-44590500D01*
X201620843Y-44589083D01*
X201631841Y-44588000D01*
X201920559Y-44588000D01*
X201931557Y-44589083D01*
X201936228Y-44590500D01*
X201940530Y-44592800D01*
X201946905Y-44598031D01*
X201967280Y-44611644D01*
X201989919Y-44621020D01*
X202013953Y-44625800D01*
X202038457Y-44625799D01*
X202062491Y-44621017D01*
X202085129Y-44611639D01*
X202105495Y-44598031D01*
X202111870Y-44592800D01*
X202116172Y-44590500D01*
X202120843Y-44589083D01*
X202131841Y-44588000D01*
X202420559Y-44588000D01*
X202431557Y-44589083D01*
X202436228Y-44590500D01*
X202440530Y-44592800D01*
X202446905Y-44598031D01*
X202467280Y-44611644D01*
X202489919Y-44621020D01*
X202513953Y-44625800D01*
X202538457Y-44625799D01*
X202562491Y-44621017D01*
X202585129Y-44611639D01*
X202605495Y-44598031D01*
X202611870Y-44592800D01*
X202616172Y-44590500D01*
X202620843Y-44589083D01*
X202631841Y-44588000D01*
X202920559Y-44588000D01*
X202931557Y-44589083D01*
X202936228Y-44590500D01*
X202940530Y-44592800D01*
X202946905Y-44598031D01*
X202967280Y-44611644D01*
X202989919Y-44621020D01*
X203013953Y-44625800D01*
X203038457Y-44625799D01*
X203062491Y-44621017D01*
X203085129Y-44611639D01*
X203105495Y-44598031D01*
X203111870Y-44592800D01*
X203116172Y-44590500D01*
X203120843Y-44589083D01*
X203131841Y-44588000D01*
X203420559Y-44588000D01*
X203431557Y-44589083D01*
X203436228Y-44590500D01*
X203440530Y-44592800D01*
X203446905Y-44598031D01*
X203467280Y-44611644D01*
X203489919Y-44621020D01*
X203513953Y-44625800D01*
X203538457Y-44625799D01*
X203562491Y-44621017D01*
X203585129Y-44611639D01*
X203605495Y-44598031D01*
X203611870Y-44592800D01*
X203616172Y-44590500D01*
X203620843Y-44589083D01*
X203631841Y-44588000D01*
X203920559Y-44588000D01*
X203931557Y-44589083D01*
X203936228Y-44590500D01*
X203940530Y-44592800D01*
X203946905Y-44598031D01*
X203967280Y-44611644D01*
X203989919Y-44621020D01*
X204013953Y-44625800D01*
X204038457Y-44625799D01*
X204062491Y-44621017D01*
X204085129Y-44611639D01*
X204105495Y-44598031D01*
X204111870Y-44592800D01*
X204116172Y-44590500D01*
X204120843Y-44589083D01*
X204131841Y-44588000D01*
X204420559Y-44588000D01*
X204431557Y-44589083D01*
X204436228Y-44590500D01*
X204440530Y-44592800D01*
X204446905Y-44598031D01*
X204467280Y-44611644D01*
X204489919Y-44621020D01*
X204513953Y-44625800D01*
X204538457Y-44625799D01*
X204562491Y-44621017D01*
X204585129Y-44611639D01*
X204605495Y-44598031D01*
X204611870Y-44592800D01*
X204616172Y-44590500D01*
X204620843Y-44589083D01*
X204631841Y-44588000D01*
X204920559Y-44588000D01*
X204931557Y-44589083D01*
X204936228Y-44590500D01*
X204940530Y-44592800D01*
X204946905Y-44598031D01*
X204967280Y-44611644D01*
X204989919Y-44621020D01*
X205013953Y-44625800D01*
X205038457Y-44625799D01*
X205062491Y-44621017D01*
X205085129Y-44611639D01*
X205105495Y-44598031D01*
X205111870Y-44592800D01*
X205116172Y-44590500D01*
X205120843Y-44589083D01*
X205131841Y-44588000D01*
X205420559Y-44588000D01*
X205431557Y-44589083D01*
X205436228Y-44590500D01*
X205440530Y-44592800D01*
X205446905Y-44598031D01*
X205467280Y-44611644D01*
X205489919Y-44621020D01*
X205513953Y-44625800D01*
X205538457Y-44625799D01*
X205562491Y-44621017D01*
X205585129Y-44611639D01*
X205605495Y-44598031D01*
X205611870Y-44592800D01*
X205616172Y-44590500D01*
X205620843Y-44589083D01*
X205631841Y-44588000D01*
X205920559Y-44588000D01*
X205931557Y-44589083D01*
X205936228Y-44590500D01*
X205940530Y-44592800D01*
X205944304Y-44595896D01*
X205947400Y-44599670D01*
X205949700Y-44603972D01*
X205951117Y-44608643D01*
X205952200Y-44619641D01*
X205952200Y-45713000D01*
X205954602Y-45737386D01*
X205961715Y-45760835D01*
X205973266Y-45782446D01*
X205988812Y-45801388D01*
X206007754Y-45816934D01*
X206029365Y-45828485D01*
X206052814Y-45835598D01*
X206077200Y-45838000D01*
X207170559Y-45838000D01*
X207181557Y-45839083D01*
X207186228Y-45840500D01*
X207190530Y-45842800D01*
X207194304Y-45845896D01*
X207197400Y-45849670D01*
X207199700Y-45853972D01*
X207201117Y-45858643D01*
X207202200Y-45869641D01*
X207202200Y-46158359D01*
X207201117Y-46169357D01*
X207199700Y-46174028D01*
X207197400Y-46178330D01*
X207192169Y-46184705D01*
X207178556Y-46205080D01*
X207169180Y-46227719D01*
X207164400Y-46251753D01*
X207164401Y-46276257D01*
X207169183Y-46300291D01*
X207178561Y-46322929D01*
X207192169Y-46343295D01*
X207197400Y-46349670D01*
X207199700Y-46353972D01*
X207201117Y-46358643D01*
X207202200Y-46369641D01*
X207202200Y-46658359D01*
X207201117Y-46669357D01*
X207199700Y-46674028D01*
X207197400Y-46678330D01*
X207192169Y-46684705D01*
X207178556Y-46705080D01*
X207169180Y-46727719D01*
X207164400Y-46751753D01*
X207164401Y-46776257D01*
X207169183Y-46800291D01*
X207178561Y-46822929D01*
X207192169Y-46843295D01*
X207197400Y-46849670D01*
X207199700Y-46853972D01*
X207201117Y-46858643D01*
X207202200Y-46869641D01*
X207202200Y-47158359D01*
X207201117Y-47169357D01*
X207199700Y-47174028D01*
X207197400Y-47178330D01*
X207192169Y-47184705D01*
X207178556Y-47205080D01*
X207169180Y-47227719D01*
X207164400Y-47251753D01*
X207164401Y-47276257D01*
X207169183Y-47300291D01*
X207178561Y-47322929D01*
X207192169Y-47343295D01*
X207197400Y-47349670D01*
X207199700Y-47353972D01*
X207201117Y-47358643D01*
X207202200Y-47369641D01*
X207202200Y-47658359D01*
X207201117Y-47669357D01*
X207199700Y-47674028D01*
X207197400Y-47678330D01*
X207192169Y-47684705D01*
X207178556Y-47705080D01*
X207169180Y-47727719D01*
X207164400Y-47751753D01*
X207164401Y-47776257D01*
X207169183Y-47800291D01*
X207178561Y-47822929D01*
X207192169Y-47843295D01*
X207197400Y-47849670D01*
X207199700Y-47853972D01*
X207201117Y-47858643D01*
X207202200Y-47869641D01*
X207202200Y-48158359D01*
X207201117Y-48169357D01*
X207199700Y-48174028D01*
X207197400Y-48178330D01*
X207192169Y-48184705D01*
X207178556Y-48205080D01*
X207169180Y-48227719D01*
X207164400Y-48251753D01*
X207164401Y-48276257D01*
X207169183Y-48300291D01*
X207178561Y-48322929D01*
X207192169Y-48343295D01*
X207197400Y-48349670D01*
X207199700Y-48353972D01*
X207201117Y-48358643D01*
X207202200Y-48369641D01*
X207202200Y-48658359D01*
X207201117Y-48669357D01*
X207199700Y-48674028D01*
X207197400Y-48678330D01*
X207192169Y-48684705D01*
X207178556Y-48705080D01*
X207169180Y-48727719D01*
X207164400Y-48751753D01*
X207164401Y-48776257D01*
X207169183Y-48800291D01*
X207178561Y-48822929D01*
X207192169Y-48843295D01*
X207197400Y-48849670D01*
X207199700Y-48853972D01*
X207201117Y-48858643D01*
X207202200Y-48869641D01*
X207202200Y-49158359D01*
X207201117Y-49169357D01*
X207199700Y-49174028D01*
X207197400Y-49178330D01*
X207192169Y-49184705D01*
X207178556Y-49205080D01*
X207169180Y-49227719D01*
X207164400Y-49251753D01*
X207164401Y-49276257D01*
X207169183Y-49300291D01*
X207178561Y-49322929D01*
X207192169Y-49343295D01*
X207197400Y-49349670D01*
X207199700Y-49353972D01*
X207201117Y-49358643D01*
X207202200Y-49369641D01*
X207202200Y-49658359D01*
X207201117Y-49669357D01*
X207199700Y-49674028D01*
X207197400Y-49678330D01*
X207192169Y-49684705D01*
X207178556Y-49705080D01*
X207169180Y-49727719D01*
X207164400Y-49751753D01*
X207164401Y-49776257D01*
X207169183Y-49800291D01*
X207178561Y-49822929D01*
X207192169Y-49843295D01*
X207197400Y-49849670D01*
X207199700Y-49853972D01*
X207201117Y-49858643D01*
X207202200Y-49869641D01*
X207202200Y-50158359D01*
X207201117Y-50169357D01*
X207199700Y-50174028D01*
X207197400Y-50178330D01*
X207192169Y-50184705D01*
X207178556Y-50205080D01*
X207169180Y-50227719D01*
X207164400Y-50251753D01*
X207164401Y-50276257D01*
X207169183Y-50300291D01*
X207178561Y-50322929D01*
X207192169Y-50343295D01*
X207197400Y-50349670D01*
X207199700Y-50353972D01*
X207201117Y-50358643D01*
X207202200Y-50369641D01*
X207202200Y-50658359D01*
X207201117Y-50669357D01*
X207199700Y-50674028D01*
X207197400Y-50678330D01*
X207192169Y-50684705D01*
X207178556Y-50705080D01*
X207169180Y-50727719D01*
X207164400Y-50751753D01*
X207164401Y-50776257D01*
X207169183Y-50800291D01*
X207178561Y-50822929D01*
X207192169Y-50843295D01*
X207197400Y-50849670D01*
X207199700Y-50853972D01*
X207201117Y-50858643D01*
X207202200Y-50869641D01*
X207202200Y-51158359D01*
X207201117Y-51169357D01*
X207199700Y-51174028D01*
X207197400Y-51178330D01*
X207194304Y-51182104D01*
X207190530Y-51185200D01*
X207186228Y-51187500D01*
X207181557Y-51188917D01*
X207170559Y-51190000D01*
X206077200Y-51190000D01*
X206052814Y-51192402D01*
X206029365Y-51199515D01*
X206007754Y-51211066D01*
X205988812Y-51226612D01*
X205973266Y-51245554D01*
X205961715Y-51267165D01*
X205954602Y-51290614D01*
X205952200Y-51315000D01*
X205952200Y-52408359D01*
X205951117Y-52419357D01*
X205949700Y-52424028D01*
X205947400Y-52428330D01*
X205944304Y-52432104D01*
X205940530Y-52435200D01*
X205936228Y-52437500D01*
X205931557Y-52438917D01*
X205920559Y-52440000D01*
X205631841Y-52440000D01*
X205620843Y-52438917D01*
X205616172Y-52437500D01*
X205611870Y-52435200D01*
X205605495Y-52429969D01*
X205585120Y-52416356D01*
X205562481Y-52406980D01*
X205538447Y-52402200D01*
X205513943Y-52402201D01*
X205489909Y-52406983D01*
X205467271Y-52416361D01*
X205446905Y-52429969D01*
X205440530Y-52435200D01*
X205436228Y-52437500D01*
X205431557Y-52438917D01*
X205420559Y-52440000D01*
X205131841Y-52440000D01*
X205120843Y-52438917D01*
X205116172Y-52437500D01*
X205111870Y-52435200D01*
X205105495Y-52429969D01*
X205085120Y-52416356D01*
X205062481Y-52406980D01*
X205038447Y-52402200D01*
X205013943Y-52402201D01*
X204989909Y-52406983D01*
X204967271Y-52416361D01*
X204946905Y-52429969D01*
X204940530Y-52435200D01*
X204936228Y-52437500D01*
X204931557Y-52438917D01*
X204920559Y-52440000D01*
X204631841Y-52440000D01*
X204620843Y-52438917D01*
X204616172Y-52437500D01*
X204611870Y-52435200D01*
X204605495Y-52429969D01*
X204585120Y-52416356D01*
X204562481Y-52406980D01*
X204538447Y-52402200D01*
X204513943Y-52402201D01*
X204489909Y-52406983D01*
X204467271Y-52416361D01*
X204446905Y-52429969D01*
X204440530Y-52435200D01*
X204436228Y-52437500D01*
X204431557Y-52438917D01*
X204420559Y-52440000D01*
X204131841Y-52440000D01*
X204120843Y-52438917D01*
X204116172Y-52437500D01*
X204111870Y-52435200D01*
X204105495Y-52429969D01*
X204085120Y-52416356D01*
X204062481Y-52406980D01*
X204038447Y-52402200D01*
X204013943Y-52402201D01*
X203989909Y-52406983D01*
X203967271Y-52416361D01*
X203946905Y-52429969D01*
X203940530Y-52435200D01*
X203936228Y-52437500D01*
X203931557Y-52438917D01*
X203920559Y-52440000D01*
X203631841Y-52440000D01*
X203620843Y-52438917D01*
X203616172Y-52437500D01*
X203611870Y-52435200D01*
X203605495Y-52429969D01*
X203585120Y-52416356D01*
X203562481Y-52406980D01*
X203538447Y-52402200D01*
X203513943Y-52402201D01*
X203489909Y-52406983D01*
X203467271Y-52416361D01*
X203446905Y-52429969D01*
X203440530Y-52435200D01*
X203436228Y-52437500D01*
X203431557Y-52438917D01*
X203420559Y-52440000D01*
X203131841Y-52440000D01*
X203120843Y-52438917D01*
X203116172Y-52437500D01*
X203111870Y-52435200D01*
X203105495Y-52429969D01*
X203085120Y-52416356D01*
X203062481Y-52406980D01*
X203038447Y-52402200D01*
X203013943Y-52402201D01*
X202989909Y-52406983D01*
X202967271Y-52416361D01*
X202946905Y-52429969D01*
X202940530Y-52435200D01*
X202936228Y-52437500D01*
X202931557Y-52438917D01*
X202920559Y-52440000D01*
X202631841Y-52440000D01*
X202620843Y-52438917D01*
X202616172Y-52437500D01*
X202611870Y-52435200D01*
X202605495Y-52429969D01*
X202585120Y-52416356D01*
X202562481Y-52406980D01*
X202538447Y-52402200D01*
X202513943Y-52402201D01*
X202489909Y-52406983D01*
X202467271Y-52416361D01*
X202446905Y-52429969D01*
X202440530Y-52435200D01*
X202436228Y-52437500D01*
X202431557Y-52438917D01*
X202420559Y-52440000D01*
X202131841Y-52440000D01*
X202120843Y-52438917D01*
X202116172Y-52437500D01*
X202111870Y-52435200D01*
X202105495Y-52429969D01*
X202085120Y-52416356D01*
X202062481Y-52406980D01*
X202038447Y-52402200D01*
X202013943Y-52402201D01*
X201989909Y-52406983D01*
X201967271Y-52416361D01*
X201946905Y-52429969D01*
X201940530Y-52435200D01*
X201936228Y-52437500D01*
X201931557Y-52438917D01*
X201920559Y-52440000D01*
X201631841Y-52440000D01*
X201620843Y-52438917D01*
X201616172Y-52437500D01*
X201611870Y-52435200D01*
X201605495Y-52429969D01*
X201585120Y-52416356D01*
X201562481Y-52406980D01*
X201538447Y-52402200D01*
X201513943Y-52402201D01*
X201489909Y-52406983D01*
X201467271Y-52416361D01*
X201446905Y-52429969D01*
X201440530Y-52435200D01*
X201436228Y-52437500D01*
X201431557Y-52438917D01*
X201420559Y-52440000D01*
X201131841Y-52440000D01*
X201120843Y-52438917D01*
X201116172Y-52437500D01*
X201111870Y-52435200D01*
X201105495Y-52429969D01*
X201085120Y-52416356D01*
X201062481Y-52406980D01*
X201038447Y-52402200D01*
X201013943Y-52402201D01*
X200989909Y-52406983D01*
X200967271Y-52416361D01*
X200946905Y-52429969D01*
X200940530Y-52435200D01*
X200936228Y-52437500D01*
X200931557Y-52438917D01*
X200920559Y-52440000D01*
X200631841Y-52440000D01*
X200620843Y-52438917D01*
X200616172Y-52437500D01*
X200611870Y-52435200D01*
X200608096Y-52432104D01*
X200605000Y-52428330D01*
X200602700Y-52424028D01*
X200601283Y-52419357D01*
X200600200Y-52408359D01*
X200600200Y-51315000D01*
X200597798Y-51290614D01*
X200590685Y-51267165D01*
X200579134Y-51245554D01*
X200563588Y-51226612D01*
X200544646Y-51211066D01*
X200523035Y-51199515D01*
X200499586Y-51192402D01*
X200475200Y-51190000D01*
X199381841Y-51190000D01*
X199370843Y-51188917D01*
X199366172Y-51187500D01*
X199361870Y-51185200D01*
X199358096Y-51182104D01*
X199355000Y-51178330D01*
X199352700Y-51174028D01*
X199351283Y-51169357D01*
X199350200Y-51158359D01*
X199350200Y-50869641D01*
X199351283Y-50858643D01*
X199352700Y-50853972D01*
X199355000Y-50849670D01*
X199360231Y-50843295D01*
X199373844Y-50822920D01*
X199383220Y-50800281D01*
X199388000Y-50776247D01*
X199387999Y-50751743D01*
X199383217Y-50727709D01*
X199373839Y-50705071D01*
X199360231Y-50684705D01*
X199355000Y-50678330D01*
X199352700Y-50674028D01*
X199351283Y-50669357D01*
X199350200Y-50658359D01*
X199350200Y-50369641D01*
X199351283Y-50358643D01*
X199352700Y-50353972D01*
X199355000Y-50349670D01*
X199360231Y-50343295D01*
X199373844Y-50322920D01*
X199383220Y-50300281D01*
X199388000Y-50276247D01*
X199387999Y-50251743D01*
X199383217Y-50227709D01*
X199373839Y-50205071D01*
X199360231Y-50184705D01*
X199355000Y-50178330D01*
X199352700Y-50174028D01*
X199351283Y-50169357D01*
X199350200Y-50158359D01*
X199350200Y-49869641D01*
X199351283Y-49858643D01*
X199352700Y-49853972D01*
X199355000Y-49849670D01*
X199360231Y-49843295D01*
X199373844Y-49822920D01*
X199383220Y-49800281D01*
X199388000Y-49776247D01*
X199387999Y-49751743D01*
X199383217Y-49727709D01*
X199373839Y-49705071D01*
X199360231Y-49684705D01*
X199355000Y-49678330D01*
X199352700Y-49674028D01*
X199351283Y-49669357D01*
X199350200Y-49658359D01*
X199350200Y-49369641D01*
X199351283Y-49358643D01*
X199352700Y-49353972D01*
X199355000Y-49349670D01*
X199360231Y-49343295D01*
X199373844Y-49322920D01*
X199383220Y-49300281D01*
X199388000Y-49276247D01*
X199387999Y-49251743D01*
X199383217Y-49227709D01*
X199373839Y-49205071D01*
X199360231Y-49184705D01*
X199355000Y-49178330D01*
X199352700Y-49174028D01*
X199351283Y-49169357D01*
X199350200Y-49158359D01*
X199350200Y-48869641D01*
X199351283Y-48858643D01*
X199352700Y-48853972D01*
X199355000Y-48849670D01*
X199360231Y-48843295D01*
X199373844Y-48822920D01*
X199383220Y-48800281D01*
X199388000Y-48776247D01*
X199387999Y-48751743D01*
X199383217Y-48727709D01*
X199373839Y-48705071D01*
X199360231Y-48684705D01*
X199355000Y-48678330D01*
X199352700Y-48674028D01*
X199351283Y-48669357D01*
X199350200Y-48658359D01*
X199350200Y-48369641D01*
X199351283Y-48358643D01*
X199352700Y-48353972D01*
X199355000Y-48349670D01*
X199360231Y-48343295D01*
X199373844Y-48322920D01*
X199383220Y-48300281D01*
X199388000Y-48276247D01*
X199387999Y-48251743D01*
X199383217Y-48227709D01*
X199373839Y-48205071D01*
X199360231Y-48184705D01*
X199355000Y-48178330D01*
X199352700Y-48174028D01*
X199351283Y-48169357D01*
X199350200Y-48158359D01*
X199350200Y-47869641D01*
X199351283Y-47858643D01*
X199352700Y-47853972D01*
X199355000Y-47849670D01*
X199360231Y-47843295D01*
X199373844Y-47822920D01*
X199383220Y-47800281D01*
X199388000Y-47776247D01*
X199387999Y-47751743D01*
X199383217Y-47727709D01*
X199373839Y-47705071D01*
X199360231Y-47684705D01*
X199355000Y-47678330D01*
X199352700Y-47674028D01*
X199351283Y-47669357D01*
X199350200Y-47658359D01*
X199350200Y-47369641D01*
X199351283Y-47358643D01*
X199352700Y-47353972D01*
X199355000Y-47349670D01*
X199360231Y-47343295D01*
X199373844Y-47322920D01*
X199383220Y-47300281D01*
X199388000Y-47276247D01*
X199387999Y-47251743D01*
X199383217Y-47227709D01*
X199373839Y-47205071D01*
X199360231Y-47184705D01*
X199355000Y-47178330D01*
X199352700Y-47174028D01*
X199351283Y-47169357D01*
X199350200Y-47158359D01*
X199350200Y-46869641D01*
X199351283Y-46858643D01*
X199352700Y-46853972D01*
X199355000Y-46849670D01*
X199360231Y-46843295D01*
X199373844Y-46822920D01*
X199383220Y-46800281D01*
X199388000Y-46776247D01*
X199387999Y-46751743D01*
X199383217Y-46727709D01*
X199373839Y-46705071D01*
X199360231Y-46684705D01*
X199355000Y-46678330D01*
X199352700Y-46674028D01*
X199351283Y-46669357D01*
X199350200Y-46658359D01*
X199350200Y-46369641D01*
X199351283Y-46358643D01*
X199352700Y-46353972D01*
X199355000Y-46349670D01*
X199360231Y-46343295D01*
X199373844Y-46322920D01*
X199383220Y-46300281D01*
X199388000Y-46276247D01*
X199387999Y-46251743D01*
X199383217Y-46227709D01*
X199373839Y-46205071D01*
X199360231Y-46184705D01*
X199355000Y-46178330D01*
X199352700Y-46174028D01*
X199351283Y-46169357D01*
X199350200Y-46158359D01*
X199350200Y-45869641D01*
X199351283Y-45858643D01*
X199352700Y-45853972D01*
X199355000Y-45849670D01*
X199358096Y-45845896D01*
X199361870Y-45842800D01*
X199366172Y-45840500D01*
X199370843Y-45839083D01*
X199381841Y-45838000D01*
X200475200Y-45838000D01*
X200499586Y-45835598D01*
X200523035Y-45828485D01*
X200544646Y-45816934D01*
X200563588Y-45801388D01*
X200579134Y-45782446D01*
X200590685Y-45760835D01*
X200597798Y-45737386D01*
X200600200Y-45713000D01*
X200600200Y-44619641D01*
X200601283Y-44608643D01*
X200602700Y-44603972D01*
X200605000Y-44599670D01*
X200608096Y-44595896D01*
X200611870Y-44592800D01*
X200616172Y-44590500D01*
X200620843Y-44589083D01*
X200631841Y-44588000D01*
X200920559Y-44588000D01*
X200931557Y-44589083D01*
X200931557Y-44589083D01*
G37*
G36*
X196807000Y-50679400D02*
X195005000Y-50679400D01*
X195005000Y-48177400D01*
X196807000Y-48177400D01*
X196807000Y-50679400D01*
X196807000Y-50679400D01*
G37*
G36*
X193107000Y-50679400D02*
X191305000Y-50679400D01*
X191305000Y-48177400D01*
X193107000Y-48177400D01*
X193107000Y-50679400D01*
X193107000Y-50679400D01*
G37*
G36*
X245732100Y-50500300D02*
X244130100Y-50500300D01*
X244130100Y-49398300D01*
X245732100Y-49398300D01*
X245732100Y-50500300D01*
X245732100Y-50500300D01*
G37*
G36*
X240832100Y-50500300D02*
X239230100Y-50500300D01*
X239230100Y-49398300D01*
X240832100Y-49398300D01*
X240832100Y-50500300D01*
X240832100Y-50500300D01*
G37*
G36*
X254368100Y-50436800D02*
X252766100Y-50436800D01*
X252766100Y-49334800D01*
X254368100Y-49334800D01*
X254368100Y-50436800D01*
X254368100Y-50436800D01*
G37*
G36*
X249468100Y-50436800D02*
X247866100Y-50436800D01*
X247866100Y-49334800D01*
X249468100Y-49334800D01*
X249468100Y-50436800D01*
X249468100Y-50436800D01*
G37*
G36*
X188437200Y-49534100D02*
X181285200Y-49534100D01*
X181285200Y-48282100D01*
X188437200Y-48282100D01*
X188437200Y-49534100D01*
X188437200Y-49534100D01*
G37*
G36*
X179394214Y-47105073D02*
X179498078Y-47136579D01*
X179593800Y-47187744D01*
X179677701Y-47256599D01*
X179746556Y-47340500D01*
X179797721Y-47436221D01*
X179829227Y-47540085D01*
X179837200Y-47621033D01*
X179837200Y-48475167D01*
X179829227Y-48556115D01*
X179797721Y-48659979D01*
X179746556Y-48755700D01*
X179677701Y-48839601D01*
X179593800Y-48908456D01*
X179498079Y-48959621D01*
X179394215Y-48991127D01*
X179286200Y-49001766D01*
X179178186Y-48991127D01*
X179074322Y-48959621D01*
X178978601Y-48908456D01*
X178894700Y-48839601D01*
X178825845Y-48755700D01*
X178774680Y-48659979D01*
X178774679Y-48659976D01*
X178743173Y-48556116D01*
X178742034Y-48544551D01*
X178735200Y-48475167D01*
X178735200Y-47621034D01*
X178743173Y-47540086D01*
X178774679Y-47436222D01*
X178825844Y-47340500D01*
X178894699Y-47256599D01*
X178978600Y-47187744D01*
X179074321Y-47136579D01*
X179178185Y-47105073D01*
X179286200Y-47094434D01*
X179394214Y-47105073D01*
X179394214Y-47105073D01*
G37*
G36*
X190544214Y-47105073D02*
X190648078Y-47136579D01*
X190743800Y-47187744D01*
X190827701Y-47256599D01*
X190896556Y-47340500D01*
X190947721Y-47436221D01*
X190979227Y-47540085D01*
X190987200Y-47621033D01*
X190987200Y-48475167D01*
X190979227Y-48556115D01*
X190947721Y-48659979D01*
X190896556Y-48755700D01*
X190827701Y-48839601D01*
X190743800Y-48908456D01*
X190648079Y-48959621D01*
X190544215Y-48991127D01*
X190436200Y-49001766D01*
X190328186Y-48991127D01*
X190224322Y-48959621D01*
X190128601Y-48908456D01*
X190044700Y-48839601D01*
X189975845Y-48755700D01*
X189924680Y-48659979D01*
X189924679Y-48659976D01*
X189893173Y-48556116D01*
X189892034Y-48544551D01*
X189885200Y-48475167D01*
X189885200Y-47621034D01*
X189893173Y-47540086D01*
X189924679Y-47436222D01*
X189975844Y-47340500D01*
X190044699Y-47256599D01*
X190128600Y-47187744D01*
X190224321Y-47136579D01*
X190328185Y-47105073D01*
X190436200Y-47094434D01*
X190544214Y-47105073D01*
X190544214Y-47105073D01*
G37*
G36*
X171121565Y-46197689D02*
X171312834Y-46276915D01*
X171484976Y-46391937D01*
X171631363Y-46538324D01*
X171746385Y-46710466D01*
X171825611Y-46901735D01*
X171866000Y-47104784D01*
X171866000Y-47311816D01*
X171825611Y-47514865D01*
X171746385Y-47706134D01*
X171631363Y-47878276D01*
X171484976Y-48024663D01*
X171312834Y-48139685D01*
X171121565Y-48218911D01*
X170918516Y-48259300D01*
X170711484Y-48259300D01*
X170508435Y-48218911D01*
X170317166Y-48139685D01*
X170145024Y-48024663D01*
X169998637Y-47878276D01*
X169883615Y-47706134D01*
X169804389Y-47514865D01*
X169764000Y-47311816D01*
X169764000Y-47104784D01*
X169804389Y-46901735D01*
X169883615Y-46710466D01*
X169998637Y-46538324D01*
X170145024Y-46391937D01*
X170317166Y-46276915D01*
X170508435Y-46197689D01*
X170711484Y-46157300D01*
X170918516Y-46157300D01*
X171121565Y-46197689D01*
X171121565Y-46197689D01*
G37*
G36*
X175621565Y-46197689D02*
X175812834Y-46276915D01*
X175984976Y-46391937D01*
X176131363Y-46538324D01*
X176246385Y-46710466D01*
X176325611Y-46901735D01*
X176366000Y-47104784D01*
X176366000Y-47311816D01*
X176325611Y-47514865D01*
X176246385Y-47706134D01*
X176131363Y-47878276D01*
X175984976Y-48024663D01*
X175812834Y-48139685D01*
X175621565Y-48218911D01*
X175418516Y-48259300D01*
X175211484Y-48259300D01*
X175008435Y-48218911D01*
X174817166Y-48139685D01*
X174645024Y-48024663D01*
X174498637Y-47878276D01*
X174383615Y-47706134D01*
X174304389Y-47514865D01*
X174264000Y-47311816D01*
X174264000Y-47104784D01*
X174304389Y-46901735D01*
X174383615Y-46710466D01*
X174498637Y-46538324D01*
X174645024Y-46391937D01*
X174817166Y-46276915D01*
X175008435Y-46197689D01*
X175211484Y-46157300D01*
X175418516Y-46157300D01*
X175621565Y-46197689D01*
X175621565Y-46197689D01*
G37*
G36*
X230856743Y-46006619D02*
X230922927Y-46013137D01*
X231036153Y-46047484D01*
X231092767Y-46064657D01*
X231194748Y-46119168D01*
X231249291Y-46148322D01*
X231274922Y-46169357D01*
X231386486Y-46260914D01*
X231466689Y-46358643D01*
X231499078Y-46398109D01*
X231499079Y-46398111D01*
X231582743Y-46554633D01*
X231582743Y-46554634D01*
X231634263Y-46724473D01*
X231651659Y-46901100D01*
X231634263Y-47077727D01*
X231601812Y-47184705D01*
X231582743Y-47247567D01*
X231530824Y-47344699D01*
X231499078Y-47404091D01*
X231472709Y-47436221D01*
X231386486Y-47541286D01*
X231289311Y-47621034D01*
X231249291Y-47653878D01*
X231249289Y-47653879D01*
X231092767Y-47737543D01*
X231045955Y-47751743D01*
X230922927Y-47789063D01*
X230856742Y-47795582D01*
X230790560Y-47802100D01*
X230702040Y-47802100D01*
X230635858Y-47795582D01*
X230569673Y-47789063D01*
X230446645Y-47751743D01*
X230399833Y-47737543D01*
X230243311Y-47653879D01*
X230243309Y-47653878D01*
X230203289Y-47621034D01*
X230106114Y-47541286D01*
X230019891Y-47436221D01*
X229993522Y-47404091D01*
X229961776Y-47344699D01*
X229909857Y-47247567D01*
X229890788Y-47184705D01*
X229858337Y-47077727D01*
X229840941Y-46901100D01*
X229858337Y-46724473D01*
X229909857Y-46554634D01*
X229909857Y-46554633D01*
X229993521Y-46398111D01*
X229993522Y-46398109D01*
X230025911Y-46358643D01*
X230106114Y-46260914D01*
X230217678Y-46169357D01*
X230243309Y-46148322D01*
X230297852Y-46119168D01*
X230399833Y-46064657D01*
X230456447Y-46047484D01*
X230569673Y-46013137D01*
X230635857Y-46006619D01*
X230702040Y-46000100D01*
X230790560Y-46000100D01*
X230856743Y-46006619D01*
X230856743Y-46006619D01*
G37*
G36*
X193025891Y-46315185D02*
X193059869Y-46325493D01*
X193091187Y-46342233D01*
X193118639Y-46364761D01*
X193141167Y-46392213D01*
X193157907Y-46423531D01*
X193168215Y-46457509D01*
X193172300Y-46498990D01*
X193172300Y-47100210D01*
X193168215Y-47141691D01*
X193157907Y-47175669D01*
X193141167Y-47206987D01*
X193118639Y-47234439D01*
X193091187Y-47256967D01*
X193059869Y-47273707D01*
X193025891Y-47284015D01*
X192984410Y-47288100D01*
X192308190Y-47288100D01*
X192266709Y-47284015D01*
X192232731Y-47273707D01*
X192201413Y-47256967D01*
X192173961Y-47234439D01*
X192151433Y-47206987D01*
X192134693Y-47175669D01*
X192124385Y-47141691D01*
X192120300Y-47100210D01*
X192120300Y-46498990D01*
X192124385Y-46457509D01*
X192134693Y-46423531D01*
X192151433Y-46392213D01*
X192173961Y-46364761D01*
X192201413Y-46342233D01*
X192232731Y-46325493D01*
X192266709Y-46315185D01*
X192308190Y-46311100D01*
X192984410Y-46311100D01*
X193025891Y-46315185D01*
X193025891Y-46315185D01*
G37*
G36*
X194587991Y-46315185D02*
X194621969Y-46325493D01*
X194653287Y-46342233D01*
X194680739Y-46364761D01*
X194703267Y-46392213D01*
X194720007Y-46423531D01*
X194730315Y-46457509D01*
X194734400Y-46498990D01*
X194734400Y-47100210D01*
X194730315Y-47141691D01*
X194720007Y-47175669D01*
X194703267Y-47206987D01*
X194680739Y-47234439D01*
X194653287Y-47256967D01*
X194621969Y-47273707D01*
X194587991Y-47284015D01*
X194546510Y-47288100D01*
X193870290Y-47288100D01*
X193828809Y-47284015D01*
X193794831Y-47273707D01*
X193763513Y-47256967D01*
X193736061Y-47234439D01*
X193713533Y-47206987D01*
X193696793Y-47175669D01*
X193686485Y-47141691D01*
X193682400Y-47100210D01*
X193682400Y-46498990D01*
X193686485Y-46457509D01*
X193696793Y-46423531D01*
X193713533Y-46392213D01*
X193736061Y-46364761D01*
X193763513Y-46342233D01*
X193794831Y-46325493D01*
X193828809Y-46315185D01*
X193870290Y-46311100D01*
X194546510Y-46311100D01*
X194587991Y-46315185D01*
X194587991Y-46315185D01*
G37*
G36*
X196150091Y-46315185D02*
X196184069Y-46325493D01*
X196215387Y-46342233D01*
X196242839Y-46364761D01*
X196265367Y-46392213D01*
X196282107Y-46423531D01*
X196292415Y-46457509D01*
X196296500Y-46498990D01*
X196296500Y-47100210D01*
X196292415Y-47141691D01*
X196282107Y-47175669D01*
X196265367Y-47206987D01*
X196242839Y-47234439D01*
X196215387Y-47256967D01*
X196184069Y-47273707D01*
X196150091Y-47284015D01*
X196108610Y-47288100D01*
X195432390Y-47288100D01*
X195390909Y-47284015D01*
X195356931Y-47273707D01*
X195325613Y-47256967D01*
X195298161Y-47234439D01*
X195275633Y-47206987D01*
X195258893Y-47175669D01*
X195248585Y-47141691D01*
X195244500Y-47100210D01*
X195244500Y-46498990D01*
X195248585Y-46457509D01*
X195258893Y-46423531D01*
X195275633Y-46392213D01*
X195298161Y-46364761D01*
X195325613Y-46342233D01*
X195356931Y-46325493D01*
X195390909Y-46315185D01*
X195432390Y-46311100D01*
X196108610Y-46311100D01*
X196150091Y-46315185D01*
X196150091Y-46315185D01*
G37*
G36*
X193025891Y-44740185D02*
X193059869Y-44750493D01*
X193091187Y-44767233D01*
X193118639Y-44789761D01*
X193141167Y-44817213D01*
X193157907Y-44848531D01*
X193168215Y-44882509D01*
X193172300Y-44923990D01*
X193172300Y-45525210D01*
X193168215Y-45566691D01*
X193157907Y-45600669D01*
X193141167Y-45631987D01*
X193118639Y-45659439D01*
X193091187Y-45681967D01*
X193059869Y-45698707D01*
X193025891Y-45709015D01*
X192984410Y-45713100D01*
X192308190Y-45713100D01*
X192266709Y-45709015D01*
X192232731Y-45698707D01*
X192201413Y-45681967D01*
X192173961Y-45659439D01*
X192151433Y-45631987D01*
X192134693Y-45600669D01*
X192124385Y-45566691D01*
X192120300Y-45525210D01*
X192120300Y-44923990D01*
X192124385Y-44882509D01*
X192134693Y-44848531D01*
X192151433Y-44817213D01*
X192173961Y-44789761D01*
X192201413Y-44767233D01*
X192232731Y-44750493D01*
X192266709Y-44740185D01*
X192308190Y-44736100D01*
X192984410Y-44736100D01*
X193025891Y-44740185D01*
X193025891Y-44740185D01*
G37*
G36*
X194587991Y-44740185D02*
X194621969Y-44750493D01*
X194653287Y-44767233D01*
X194680739Y-44789761D01*
X194703267Y-44817213D01*
X194720007Y-44848531D01*
X194730315Y-44882509D01*
X194734400Y-44923990D01*
X194734400Y-45525210D01*
X194730315Y-45566691D01*
X194720007Y-45600669D01*
X194703267Y-45631987D01*
X194680739Y-45659439D01*
X194653287Y-45681967D01*
X194621969Y-45698707D01*
X194587991Y-45709015D01*
X194546510Y-45713100D01*
X193870290Y-45713100D01*
X193828809Y-45709015D01*
X193794831Y-45698707D01*
X193763513Y-45681967D01*
X193736061Y-45659439D01*
X193713533Y-45631987D01*
X193696793Y-45600669D01*
X193686485Y-45566691D01*
X193682400Y-45525210D01*
X193682400Y-44923990D01*
X193686485Y-44882509D01*
X193696793Y-44848531D01*
X193713533Y-44817213D01*
X193736061Y-44789761D01*
X193763513Y-44767233D01*
X193794831Y-44750493D01*
X193828809Y-44740185D01*
X193870290Y-44736100D01*
X194546510Y-44736100D01*
X194587991Y-44740185D01*
X194587991Y-44740185D01*
G37*
G36*
X196150091Y-44740185D02*
X196184069Y-44750493D01*
X196215387Y-44767233D01*
X196242839Y-44789761D01*
X196265367Y-44817213D01*
X196282107Y-44848531D01*
X196292415Y-44882509D01*
X196296500Y-44923990D01*
X196296500Y-45525210D01*
X196292415Y-45566691D01*
X196282107Y-45600669D01*
X196265367Y-45631987D01*
X196242839Y-45659439D01*
X196215387Y-45681967D01*
X196184069Y-45698707D01*
X196150091Y-45709015D01*
X196108610Y-45713100D01*
X195432390Y-45713100D01*
X195390909Y-45709015D01*
X195356931Y-45698707D01*
X195325613Y-45681967D01*
X195298161Y-45659439D01*
X195275633Y-45631987D01*
X195258893Y-45600669D01*
X195248585Y-45566691D01*
X195244500Y-45525210D01*
X195244500Y-44923990D01*
X195248585Y-44882509D01*
X195258893Y-44848531D01*
X195275633Y-44817213D01*
X195298161Y-44789761D01*
X195325613Y-44767233D01*
X195356931Y-44750493D01*
X195390909Y-44740185D01*
X195432390Y-44736100D01*
X196108610Y-44736100D01*
X196150091Y-44740185D01*
X196150091Y-44740185D01*
G37*
G36*
X253891234Y-43394032D02*
X254100702Y-43480796D01*
X254289223Y-43606762D01*
X254449538Y-43767077D01*
X254575504Y-43955598D01*
X254662268Y-44165066D01*
X254706500Y-44387435D01*
X254706500Y-44614165D01*
X254662268Y-44836534D01*
X254575504Y-45046002D01*
X254449538Y-45234523D01*
X254289223Y-45394838D01*
X254100702Y-45520804D01*
X253891234Y-45607568D01*
X253668865Y-45651800D01*
X253442135Y-45651800D01*
X253219766Y-45607568D01*
X253010298Y-45520804D01*
X252821777Y-45394838D01*
X252661462Y-45234523D01*
X252535496Y-45046002D01*
X252448732Y-44836534D01*
X252404500Y-44614165D01*
X252404500Y-44387435D01*
X252448732Y-44165066D01*
X252535496Y-43955598D01*
X252661462Y-43767077D01*
X252821777Y-43606762D01*
X253010298Y-43480796D01*
X253219766Y-43394032D01*
X253442135Y-43349800D01*
X253668865Y-43349800D01*
X253891234Y-43394032D01*
X253891234Y-43394032D01*
G37*
G36*
X172103234Y-43394032D02*
X172312702Y-43480796D01*
X172501223Y-43606762D01*
X172661538Y-43767077D01*
X172787504Y-43955598D01*
X172874268Y-44165066D01*
X172918500Y-44387435D01*
X172918500Y-44614165D01*
X172874268Y-44836534D01*
X172787504Y-45046002D01*
X172661538Y-45234523D01*
X172501223Y-45394838D01*
X172312702Y-45520804D01*
X172103234Y-45607568D01*
X171880865Y-45651800D01*
X171654135Y-45651800D01*
X171431766Y-45607568D01*
X171222298Y-45520804D01*
X171033777Y-45394838D01*
X170873462Y-45234523D01*
X170747496Y-45046002D01*
X170660732Y-44836534D01*
X170616500Y-44614165D01*
X170616500Y-44387435D01*
X170660732Y-44165066D01*
X170747496Y-43955598D01*
X170873462Y-43767077D01*
X171033777Y-43606762D01*
X171222298Y-43480796D01*
X171431766Y-43394032D01*
X171654135Y-43349800D01*
X171880865Y-43349800D01*
X172103234Y-43394032D01*
X172103234Y-43394032D01*
G37*
G36*
X216946934Y-43381332D02*
X217156402Y-43468096D01*
X217344923Y-43594062D01*
X217505238Y-43754377D01*
X217631204Y-43942898D01*
X217717968Y-44152366D01*
X217762200Y-44374735D01*
X217762200Y-44601465D01*
X217717968Y-44823834D01*
X217631204Y-45033302D01*
X217505238Y-45221823D01*
X217344923Y-45382138D01*
X217156402Y-45508104D01*
X216946934Y-45594868D01*
X216724565Y-45639100D01*
X216497835Y-45639100D01*
X216275466Y-45594868D01*
X216065998Y-45508104D01*
X215877477Y-45382138D01*
X215717162Y-45221823D01*
X215591196Y-45033302D01*
X215504432Y-44823834D01*
X215460200Y-44601465D01*
X215460200Y-44374735D01*
X215504432Y-44152366D01*
X215591196Y-43942898D01*
X215717162Y-43754377D01*
X215877477Y-43594062D01*
X216065998Y-43468096D01*
X216275466Y-43381332D01*
X216497835Y-43337100D01*
X216724565Y-43337100D01*
X216946934Y-43381332D01*
X216946934Y-43381332D01*
G37*
G36*
X231647300Y-45262100D02*
X229845300Y-45262100D01*
X229845300Y-43460100D01*
X231647300Y-43460100D01*
X231647300Y-45262100D01*
X231647300Y-45262100D01*
G37*
G36*
X239607042Y-43428518D02*
X239673227Y-43435037D01*
X239782208Y-43468096D01*
X239843067Y-43486557D01*
X239981687Y-43560652D01*
X239999591Y-43570222D01*
X240028637Y-43594060D01*
X240136786Y-43682814D01*
X240205938Y-43767077D01*
X240249378Y-43820009D01*
X240249379Y-43820011D01*
X240333043Y-43976533D01*
X240333043Y-43976534D01*
X240384563Y-44146373D01*
X240401959Y-44323000D01*
X240384563Y-44499627D01*
X240354215Y-44599670D01*
X240333043Y-44669467D01*
X240259187Y-44807639D01*
X240249378Y-44825991D01*
X240234063Y-44844652D01*
X240136786Y-44963186D01*
X240035873Y-45046002D01*
X239999591Y-45075778D01*
X239999589Y-45075779D01*
X239843067Y-45159443D01*
X239786453Y-45176616D01*
X239673227Y-45210963D01*
X239607043Y-45217481D01*
X239540860Y-45224000D01*
X239452340Y-45224000D01*
X239386157Y-45217481D01*
X239319973Y-45210963D01*
X239206747Y-45176616D01*
X239150133Y-45159443D01*
X238993611Y-45075779D01*
X238993609Y-45075778D01*
X238957327Y-45046002D01*
X238856414Y-44963186D01*
X238759137Y-44844652D01*
X238743822Y-44825991D01*
X238734013Y-44807639D01*
X238660157Y-44669467D01*
X238638985Y-44599670D01*
X238608637Y-44499627D01*
X238591241Y-44323000D01*
X238608637Y-44146373D01*
X238660157Y-43976534D01*
X238660157Y-43976533D01*
X238743821Y-43820011D01*
X238743822Y-43820009D01*
X238787262Y-43767077D01*
X238856414Y-43682814D01*
X238964563Y-43594060D01*
X238993609Y-43570222D01*
X239011513Y-43560652D01*
X239150133Y-43486557D01*
X239210992Y-43468096D01*
X239319973Y-43435037D01*
X239386157Y-43428519D01*
X239452340Y-43422000D01*
X239540860Y-43422000D01*
X239607042Y-43428518D01*
X239607042Y-43428518D01*
G37*
G36*
X244687042Y-43428518D02*
X244753227Y-43435037D01*
X244862208Y-43468096D01*
X244923067Y-43486557D01*
X245061687Y-43560652D01*
X245079591Y-43570222D01*
X245108637Y-43594060D01*
X245216786Y-43682814D01*
X245285938Y-43767077D01*
X245329378Y-43820009D01*
X245329379Y-43820011D01*
X245413043Y-43976533D01*
X245413043Y-43976534D01*
X245464563Y-44146373D01*
X245481959Y-44323000D01*
X245464563Y-44499627D01*
X245434215Y-44599670D01*
X245413043Y-44669467D01*
X245339187Y-44807639D01*
X245329378Y-44825991D01*
X245314063Y-44844652D01*
X245216786Y-44963186D01*
X245115873Y-45046002D01*
X245079591Y-45075778D01*
X245079589Y-45075779D01*
X244923067Y-45159443D01*
X244866453Y-45176616D01*
X244753227Y-45210963D01*
X244687043Y-45217481D01*
X244620860Y-45224000D01*
X244532340Y-45224000D01*
X244466157Y-45217481D01*
X244399973Y-45210963D01*
X244286747Y-45176616D01*
X244230133Y-45159443D01*
X244073611Y-45075779D01*
X244073609Y-45075778D01*
X244037327Y-45046002D01*
X243936414Y-44963186D01*
X243839137Y-44844652D01*
X243823822Y-44825991D01*
X243814013Y-44807639D01*
X243740157Y-44669467D01*
X243718985Y-44599670D01*
X243688637Y-44499627D01*
X243671241Y-44323000D01*
X243688637Y-44146373D01*
X243740157Y-43976534D01*
X243740157Y-43976533D01*
X243823821Y-43820011D01*
X243823822Y-43820009D01*
X243867262Y-43767077D01*
X243936414Y-43682814D01*
X244044563Y-43594060D01*
X244073609Y-43570222D01*
X244091513Y-43560652D01*
X244230133Y-43486557D01*
X244290992Y-43468096D01*
X244399973Y-43435037D01*
X244466157Y-43428519D01*
X244532340Y-43422000D01*
X244620860Y-43422000D01*
X244687042Y-43428518D01*
X244687042Y-43428518D01*
G37*
G36*
X242147042Y-43428518D02*
X242213227Y-43435037D01*
X242322208Y-43468096D01*
X242383067Y-43486557D01*
X242521687Y-43560652D01*
X242539591Y-43570222D01*
X242568637Y-43594060D01*
X242676786Y-43682814D01*
X242745938Y-43767077D01*
X242789378Y-43820009D01*
X242789379Y-43820011D01*
X242873043Y-43976533D01*
X242873043Y-43976534D01*
X242924563Y-44146373D01*
X242941959Y-44323000D01*
X242924563Y-44499627D01*
X242894215Y-44599670D01*
X242873043Y-44669467D01*
X242799187Y-44807639D01*
X242789378Y-44825991D01*
X242774063Y-44844652D01*
X242676786Y-44963186D01*
X242575873Y-45046002D01*
X242539591Y-45075778D01*
X242539589Y-45075779D01*
X242383067Y-45159443D01*
X242326453Y-45176616D01*
X242213227Y-45210963D01*
X242147043Y-45217481D01*
X242080860Y-45224000D01*
X241992340Y-45224000D01*
X241926157Y-45217481D01*
X241859973Y-45210963D01*
X241746747Y-45176616D01*
X241690133Y-45159443D01*
X241533611Y-45075779D01*
X241533609Y-45075778D01*
X241497327Y-45046002D01*
X241396414Y-44963186D01*
X241299137Y-44844652D01*
X241283822Y-44825991D01*
X241274013Y-44807639D01*
X241200157Y-44669467D01*
X241178985Y-44599670D01*
X241148637Y-44499627D01*
X241131241Y-44323000D01*
X241148637Y-44146373D01*
X241200157Y-43976534D01*
X241200157Y-43976533D01*
X241283821Y-43820011D01*
X241283822Y-43820009D01*
X241327262Y-43767077D01*
X241396414Y-43682814D01*
X241504563Y-43594060D01*
X241533609Y-43570222D01*
X241551513Y-43560652D01*
X241690133Y-43486557D01*
X241750992Y-43468096D01*
X241859973Y-43435037D01*
X241926157Y-43428519D01*
X241992340Y-43422000D01*
X242080860Y-43422000D01*
X242147042Y-43428518D01*
X242147042Y-43428518D01*
G37*
G36*
X247227042Y-43428518D02*
X247293227Y-43435037D01*
X247402208Y-43468096D01*
X247463067Y-43486557D01*
X247601687Y-43560652D01*
X247619591Y-43570222D01*
X247648637Y-43594060D01*
X247756786Y-43682814D01*
X247825938Y-43767077D01*
X247869378Y-43820009D01*
X247869379Y-43820011D01*
X247953043Y-43976533D01*
X247953043Y-43976534D01*
X248004563Y-44146373D01*
X248021959Y-44323000D01*
X248004563Y-44499627D01*
X247974215Y-44599670D01*
X247953043Y-44669467D01*
X247879187Y-44807639D01*
X247869378Y-44825991D01*
X247854063Y-44844652D01*
X247756786Y-44963186D01*
X247655873Y-45046002D01*
X247619591Y-45075778D01*
X247619589Y-45075779D01*
X247463067Y-45159443D01*
X247406453Y-45176616D01*
X247293227Y-45210963D01*
X247227043Y-45217481D01*
X247160860Y-45224000D01*
X247072340Y-45224000D01*
X247006157Y-45217481D01*
X246939973Y-45210963D01*
X246826747Y-45176616D01*
X246770133Y-45159443D01*
X246613611Y-45075779D01*
X246613609Y-45075778D01*
X246577327Y-45046002D01*
X246476414Y-44963186D01*
X246379137Y-44844652D01*
X246363822Y-44825991D01*
X246354013Y-44807639D01*
X246280157Y-44669467D01*
X246258985Y-44599670D01*
X246228637Y-44499627D01*
X246211241Y-44323000D01*
X246228637Y-44146373D01*
X246280157Y-43976534D01*
X246280157Y-43976533D01*
X246363821Y-43820011D01*
X246363822Y-43820009D01*
X246407262Y-43767077D01*
X246476414Y-43682814D01*
X246584563Y-43594060D01*
X246613609Y-43570222D01*
X246631513Y-43560652D01*
X246770133Y-43486557D01*
X246830992Y-43468096D01*
X246939973Y-43435037D01*
X247006157Y-43428519D01*
X247072340Y-43422000D01*
X247160860Y-43422000D01*
X247227042Y-43428518D01*
X247227042Y-43428518D01*
G37*
G36*
X249767042Y-43428518D02*
X249833227Y-43435037D01*
X249942208Y-43468096D01*
X250003067Y-43486557D01*
X250141687Y-43560652D01*
X250159591Y-43570222D01*
X250188637Y-43594060D01*
X250296786Y-43682814D01*
X250365938Y-43767077D01*
X250409378Y-43820009D01*
X250409379Y-43820011D01*
X250493043Y-43976533D01*
X250493043Y-43976534D01*
X250544563Y-44146373D01*
X250561959Y-44323000D01*
X250544563Y-44499627D01*
X250514215Y-44599670D01*
X250493043Y-44669467D01*
X250419187Y-44807639D01*
X250409378Y-44825991D01*
X250394063Y-44844652D01*
X250296786Y-44963186D01*
X250195873Y-45046002D01*
X250159591Y-45075778D01*
X250159589Y-45075779D01*
X250003067Y-45159443D01*
X249946453Y-45176616D01*
X249833227Y-45210963D01*
X249767043Y-45217481D01*
X249700860Y-45224000D01*
X249612340Y-45224000D01*
X249546157Y-45217481D01*
X249479973Y-45210963D01*
X249366747Y-45176616D01*
X249310133Y-45159443D01*
X249153611Y-45075779D01*
X249153609Y-45075778D01*
X249117327Y-45046002D01*
X249016414Y-44963186D01*
X248919137Y-44844652D01*
X248903822Y-44825991D01*
X248894013Y-44807639D01*
X248820157Y-44669467D01*
X248798985Y-44599670D01*
X248768637Y-44499627D01*
X248751241Y-44323000D01*
X248768637Y-44146373D01*
X248820157Y-43976534D01*
X248820157Y-43976533D01*
X248903821Y-43820011D01*
X248903822Y-43820009D01*
X248947262Y-43767077D01*
X249016414Y-43682814D01*
X249124563Y-43594060D01*
X249153609Y-43570222D01*
X249171513Y-43560652D01*
X249310133Y-43486557D01*
X249370992Y-43468096D01*
X249479973Y-43435037D01*
X249546157Y-43428519D01*
X249612340Y-43422000D01*
X249700860Y-43422000D01*
X249767042Y-43428518D01*
X249767042Y-43428518D01*
G37*
G36*
X235317600Y-45224000D02*
X233515600Y-45224000D01*
X233515600Y-43422000D01*
X235317600Y-43422000D01*
X235317600Y-45224000D01*
X235317600Y-45224000D01*
G37*
G36*
X237067042Y-43428518D02*
X237133227Y-43435037D01*
X237242208Y-43468096D01*
X237303067Y-43486557D01*
X237441687Y-43560652D01*
X237459591Y-43570222D01*
X237488637Y-43594060D01*
X237596786Y-43682814D01*
X237665938Y-43767077D01*
X237709378Y-43820009D01*
X237709379Y-43820011D01*
X237793043Y-43976533D01*
X237793043Y-43976534D01*
X237844563Y-44146373D01*
X237861959Y-44323000D01*
X237844563Y-44499627D01*
X237814215Y-44599670D01*
X237793043Y-44669467D01*
X237719187Y-44807639D01*
X237709378Y-44825991D01*
X237694063Y-44844652D01*
X237596786Y-44963186D01*
X237495873Y-45046002D01*
X237459591Y-45075778D01*
X237459589Y-45075779D01*
X237303067Y-45159443D01*
X237246453Y-45176616D01*
X237133227Y-45210963D01*
X237067043Y-45217481D01*
X237000860Y-45224000D01*
X236912340Y-45224000D01*
X236846157Y-45217481D01*
X236779973Y-45210963D01*
X236666747Y-45176616D01*
X236610133Y-45159443D01*
X236453611Y-45075779D01*
X236453609Y-45075778D01*
X236417327Y-45046002D01*
X236316414Y-44963186D01*
X236219137Y-44844652D01*
X236203822Y-44825991D01*
X236194013Y-44807639D01*
X236120157Y-44669467D01*
X236098985Y-44599670D01*
X236068637Y-44499627D01*
X236051241Y-44323000D01*
X236068637Y-44146373D01*
X236120157Y-43976534D01*
X236120157Y-43976533D01*
X236203821Y-43820011D01*
X236203822Y-43820009D01*
X236247262Y-43767077D01*
X236316414Y-43682814D01*
X236424563Y-43594060D01*
X236453609Y-43570222D01*
X236471513Y-43560652D01*
X236610133Y-43486557D01*
X236670992Y-43468096D01*
X236779973Y-43435037D01*
X236846157Y-43428519D01*
X236912340Y-43422000D01*
X237000860Y-43422000D01*
X237067042Y-43428518D01*
X237067042Y-43428518D01*
G37*
G36*
X179394214Y-42905073D02*
X179498078Y-42936579D01*
X179593800Y-42987744D01*
X179677701Y-43056599D01*
X179746556Y-43140500D01*
X179797721Y-43236221D01*
X179829227Y-43340085D01*
X179837200Y-43421033D01*
X179837200Y-44675167D01*
X179829227Y-44756115D01*
X179797721Y-44859979D01*
X179746556Y-44955700D01*
X179677701Y-45039601D01*
X179593800Y-45108456D01*
X179498079Y-45159621D01*
X179394215Y-45191127D01*
X179286200Y-45201766D01*
X179178186Y-45191127D01*
X179074322Y-45159621D01*
X178978601Y-45108456D01*
X178894700Y-45039601D01*
X178825845Y-44955700D01*
X178774680Y-44859979D01*
X178743174Y-44756115D01*
X178735201Y-44675167D01*
X178735200Y-43421034D01*
X178743173Y-43340086D01*
X178774679Y-43236222D01*
X178825844Y-43140500D01*
X178894699Y-43056599D01*
X178978600Y-42987744D01*
X179074321Y-42936579D01*
X179178185Y-42905073D01*
X179286200Y-42894434D01*
X179394214Y-42905073D01*
X179394214Y-42905073D01*
G37*
G36*
X190544214Y-42905073D02*
X190648078Y-42936579D01*
X190743800Y-42987744D01*
X190827701Y-43056599D01*
X190896556Y-43140500D01*
X190947721Y-43236221D01*
X190979227Y-43340085D01*
X190987200Y-43421033D01*
X190987200Y-44675167D01*
X190979227Y-44756115D01*
X190947721Y-44859979D01*
X190896556Y-44955700D01*
X190827701Y-45039601D01*
X190743800Y-45108456D01*
X190648079Y-45159621D01*
X190544215Y-45191127D01*
X190436200Y-45201766D01*
X190328186Y-45191127D01*
X190224322Y-45159621D01*
X190128601Y-45108456D01*
X190044700Y-45039601D01*
X189975845Y-44955700D01*
X189924680Y-44859979D01*
X189893174Y-44756115D01*
X189885201Y-44675167D01*
X189885200Y-43421034D01*
X189893173Y-43340086D01*
X189924679Y-43236222D01*
X189975844Y-43140500D01*
X190044699Y-43056599D01*
X190128600Y-42987744D01*
X190224321Y-42936579D01*
X190328185Y-42905073D01*
X190436200Y-42894434D01*
X190544214Y-42905073D01*
X190544214Y-42905073D01*
G37*
G36*
X193154500Y-43573900D02*
X192163500Y-43573900D01*
X192163500Y-42582900D01*
X193154500Y-42582900D01*
X193154500Y-43573900D01*
X193154500Y-43573900D01*
G37*
G36*
X194678500Y-43573900D02*
X193687500Y-43573900D01*
X193687500Y-42582900D01*
X194678500Y-42582900D01*
X194678500Y-43573900D01*
X194678500Y-43573900D01*
G37*
M02*
