M48
;DRILL file {KiCad (5.0.2)-1} date 1/26/2019 11:14:47 PM
;FORMAT={-:-/ absolute / metric / decimal}
FMAT,2
METRIC,TZ
T1C0.400
T2C0.800
T3C1.000
T4C1.092
T5C1.270
T6C1.500
T7C0.991
T8C1.702
T9C2.200
T10C3.429
%
G90
G05
T1
X43.688Y-20.764
T2
X72.771Y-63.627
X80.391Y-63.627
X35.179Y-26.035
X42.799Y-26.035
X91.757Y-25.971
X99.377Y-25.971
X72.771Y-44.831
X80.391Y-44.831
X69.088Y-25.845
X76.708Y-25.845
X91.694Y-44.831
X99.314Y-44.831
X53.911Y-63.563
X61.531Y-63.563
X34.925Y-44.259
X42.545Y-44.259
X53.848Y-26.035
X61.468Y-26.035
X53.848Y-44.831
X61.468Y-44.831
X34.925Y-63.627
X42.545Y-63.627
X91.757Y-63.627
X99.377Y-63.627
T3
X89.344Y-31.623
X89.344Y-34.123
X89.344Y-36.623
X103.844Y-31.623
X103.844Y-36.623
X74.93Y-27.41
X74.93Y-41.91
X77.43Y-41.91
X79.93Y-27.41
X79.93Y-41.91
T4
X32.156Y-28.829
X32.156Y-33.909
X32.156Y-38.989
X32.156Y-44.069
X32.156Y-49.149
X32.156Y-54.229
X32.614Y-31.369
X32.614Y-36.449
X32.614Y-41.529
X32.614Y-46.609
X32.614Y-51.689
X32.614Y-56.769
X47.396Y-31.369
X47.396Y-36.449
X47.396Y-41.529
X47.396Y-46.609
X47.396Y-51.689
X47.396Y-56.769
X47.854Y-28.829
X47.854Y-33.909
X47.854Y-38.989
X47.854Y-44.069
X47.854Y-49.149
X47.854Y-54.229
T5
X39.56Y-28.009
X44.56Y-30.109
X77.66Y-28.009
X82.66Y-30.109
X58.61Y-47.059
X63.61Y-49.159
X96.71Y-47.059
X101.71Y-49.159
X39.56Y-47.059
X44.56Y-49.159
X58.674Y-28.009
X63.674Y-30.109
X39.624Y-66.109
X44.624Y-68.209
X77.66Y-66.109
X82.66Y-68.209
X96.774Y-28.009
X101.774Y-30.109
X96.774Y-66.172
X101.774Y-68.272
X77.724Y-47.059
X82.724Y-49.159
X58.61Y-66.109
X63.61Y-68.209
T7
X53.39Y-76.209
X34.34Y-38.109
X72.441Y-38.109
X53.39Y-57.159
X91.49Y-57.159
X34.34Y-57.159
X53.454Y-38.109
X34.404Y-76.209
X72.441Y-76.209
X91.554Y-38.109
X91.554Y-76.272
X72.504Y-57.159
T8
X34.06Y-33.909
X45.06Y-33.909
X72.16Y-33.909
X83.16Y-33.909
X53.11Y-52.959
X64.111Y-52.959
X91.21Y-52.959
X102.21Y-52.959
X34.06Y-52.959
X45.06Y-52.959
X53.174Y-33.909
X64.174Y-33.909
X34.124Y-72.009
X45.124Y-72.009
X72.16Y-72.009
X83.16Y-72.009
X91.274Y-33.909
X102.274Y-33.909
X91.274Y-72.072
X102.274Y-72.072
X72.224Y-52.959
X83.224Y-52.959
X53.11Y-72.009
X64.111Y-72.009
T9
X108.331Y-83.566
X28.067Y-22.352
X108.204Y-22.415
X28.067Y-83.502
X68.135Y-22.352
X68.199Y-83.566
T10
X96.71Y-52.959
X77.66Y-72.009
X96.774Y-72.072
X77.724Y-52.959
X39.56Y-33.909
X77.66Y-33.909
X58.61Y-52.959
X39.56Y-52.959
X58.674Y-33.909
X39.624Y-72.009
X96.774Y-33.909
X58.61Y-72.009
T6
X96.194Y-28.523G85X97.495Y-28.523
G05
X96.194Y-39.723G85X97.495Y-39.723
G05
X71.83Y-35.06G85X71.83Y-33.76
G05
X83.03Y-35.06G85X83.03Y-33.76
G05
T0
M30
