G04 #@! TF.GenerationSoftware,KiCad,Pcbnew,(5.0.2)-1*
G04 #@! TF.CreationDate,2019-01-24T02:24:02-05:00*
G04 #@! TF.ProjectId,4x5macro,3478356d-6163-4726-9f2e-6b696361645f,rev?*
G04 #@! TF.SameCoordinates,Original*
G04 #@! TF.FileFunction,Copper,L2,Bot*
G04 #@! TF.FilePolarity,Positive*
%FSLAX46Y46*%
G04 Gerber Fmt 4.6, Leading zero omitted, Abs format (unit mm)*
G04 Created by KiCad (PCBNEW (5.0.2)-1) date 1/24/2019 2:24:02 AM*
%MOMM*%
%LPD*%
G01*
G04 APERTURE LIST*
G04 #@! TA.AperFunction,ComponentPad*
%ADD10C,2.286000*%
G04 #@! TD*
G04 #@! TA.AperFunction,ComponentPad*
%ADD11R,1.600000X1.600000*%
G04 #@! TD*
G04 #@! TA.AperFunction,ComponentPad*
%ADD12O,1.600000X1.600000*%
G04 #@! TD*
G04 #@! TA.AperFunction,ComponentPad*
%ADD13C,1.500000*%
G04 #@! TD*
G04 #@! TA.AperFunction,ComponentPad*
%ADD14R,3.200000X2.000000*%
G04 #@! TD*
G04 #@! TA.AperFunction,ComponentPad*
%ADD15C,2.000000*%
G04 #@! TD*
G04 #@! TA.AperFunction,ComponentPad*
%ADD16R,2.000000X2.000000*%
G04 #@! TD*
G04 #@! TA.AperFunction,ComponentPad*
%ADD17C,1.752600*%
G04 #@! TD*
G04 #@! TA.AperFunction,ComponentPad*
%ADD18R,1.752600X1.752600*%
G04 #@! TD*
G04 #@! TA.AperFunction,Conductor*
%ADD19C,0.250000*%
G04 #@! TD*
G04 APERTURE END LIST*
D10*
G04 #@! TO.P,SW6,1*
G04 #@! TO.N,Net-(D5-Pad2)*
X61150500Y-47879000D03*
G04 #@! TO.P,SW6,2*
G04 #@! TO.N,Net-(SW5-Pad2)*
X54800500Y-50419000D03*
G04 #@! TD*
G04 #@! TO.P,SW3,2*
G04 #@! TO.N,Net-(SW2-Pad2)*
X35750500Y-50419000D03*
G04 #@! TO.P,SW3,1*
G04 #@! TO.N,Net-(D2-Pad2)*
X42100500Y-47879000D03*
G04 #@! TD*
D11*
G04 #@! TO.P,D1,1*
G04 #@! TO.N,Net-(D1-Pad1)*
X35179000Y-26035000D03*
D12*
G04 #@! TO.P,D1,2*
G04 #@! TO.N,Net-(D1-Pad2)*
X42799000Y-26035000D03*
G04 #@! TD*
G04 #@! TO.P,D2,2*
G04 #@! TO.N,Net-(D2-Pad2)*
X42545000Y-44259500D03*
D11*
G04 #@! TO.P,D2,1*
G04 #@! TO.N,Net-(D11-Pad1)*
X34925000Y-44259500D03*
G04 #@! TD*
D12*
G04 #@! TO.P,D3,2*
G04 #@! TO.N,Net-(D3-Pad2)*
X42545000Y-63627000D03*
D11*
G04 #@! TO.P,D3,1*
G04 #@! TO.N,Net-(D12-Pad1)*
X34925000Y-63627000D03*
G04 #@! TD*
G04 #@! TO.P,D4,1*
G04 #@! TO.N,Net-(D1-Pad1)*
X53848000Y-26035000D03*
D12*
G04 #@! TO.P,D4,2*
G04 #@! TO.N,Net-(D4-Pad2)*
X61468000Y-26035000D03*
G04 #@! TD*
D11*
G04 #@! TO.P,D5,1*
G04 #@! TO.N,Net-(D11-Pad1)*
X53848000Y-44831000D03*
D12*
G04 #@! TO.P,D5,2*
G04 #@! TO.N,Net-(D5-Pad2)*
X61468000Y-44831000D03*
G04 #@! TD*
D11*
G04 #@! TO.P,D6,1*
G04 #@! TO.N,Net-(D12-Pad1)*
X53911500Y-63563500D03*
D12*
G04 #@! TO.P,D6,2*
G04 #@! TO.N,Net-(D6-Pad2)*
X61531500Y-63563500D03*
G04 #@! TD*
D11*
G04 #@! TO.P,D7,1*
G04 #@! TO.N,Net-(D1-Pad1)*
X72771000Y-25908000D03*
D12*
G04 #@! TO.P,D7,2*
G04 #@! TO.N,Net-(D7-Pad2)*
X80391000Y-25908000D03*
G04 #@! TD*
G04 #@! TO.P,D8,2*
G04 #@! TO.N,Net-(D8-Pad2)*
X80391000Y-44831000D03*
D11*
G04 #@! TO.P,D8,1*
G04 #@! TO.N,Net-(D11-Pad1)*
X72771000Y-44831000D03*
G04 #@! TD*
D12*
G04 #@! TO.P,D9,2*
G04 #@! TO.N,Net-(D9-Pad2)*
X80391000Y-63627000D03*
D11*
G04 #@! TO.P,D9,1*
G04 #@! TO.N,Net-(D12-Pad1)*
X72771000Y-63627000D03*
G04 #@! TD*
D12*
G04 #@! TO.P,D10,2*
G04 #@! TO.N,Net-(D10-Pad2)*
X99377500Y-25971500D03*
D11*
G04 #@! TO.P,D10,1*
G04 #@! TO.N,Net-(D1-Pad1)*
X91757500Y-25971500D03*
G04 #@! TD*
G04 #@! TO.P,D11,1*
G04 #@! TO.N,Net-(D11-Pad1)*
X91694000Y-44831000D03*
D12*
G04 #@! TO.P,D11,2*
G04 #@! TO.N,Net-(D11-Pad2)*
X99314000Y-44831000D03*
G04 #@! TD*
G04 #@! TO.P,D12,2*
G04 #@! TO.N,Net-(D12-Pad2)*
X99377500Y-63627000D03*
D11*
G04 #@! TO.P,D12,1*
G04 #@! TO.N,Net-(D12-Pad1)*
X91757500Y-63627000D03*
G04 #@! TD*
D13*
G04 #@! TO.P,SW1,*
G04 #@! TO.N,*
X84794500Y-36686500D03*
X84794500Y-31686500D03*
D14*
G04 #@! TO.P,SW1,MP*
G04 #@! TO.N,N/C*
X77794500Y-39786500D03*
X77794500Y-28586500D03*
D15*
G04 #@! TO.P,SW1,B*
G04 #@! TO.N,Net-(SW1-PadB)*
X70294500Y-36686500D03*
G04 #@! TO.P,SW1,C*
G04 #@! TO.N,Net-(SW1-PadC)*
X70294500Y-34186500D03*
D16*
G04 #@! TO.P,SW1,A*
G04 #@! TO.N,Net-(SW1-PadA)*
X70294500Y-31686500D03*
G04 #@! TD*
D10*
G04 #@! TO.P,SW2,1*
G04 #@! TO.N,Net-(D1-Pad2)*
X42100500Y-28829000D03*
G04 #@! TO.P,SW2,2*
G04 #@! TO.N,Net-(SW2-Pad2)*
X35750500Y-31369000D03*
G04 #@! TD*
G04 #@! TO.P,SW4,1*
G04 #@! TO.N,Net-(D3-Pad2)*
X42164000Y-66929000D03*
G04 #@! TO.P,SW4,2*
G04 #@! TO.N,Net-(SW2-Pad2)*
X35814000Y-69469000D03*
G04 #@! TD*
G04 #@! TO.P,SW5,2*
G04 #@! TO.N,Net-(SW5-Pad2)*
X54864000Y-31369000D03*
G04 #@! TO.P,SW5,1*
G04 #@! TO.N,Net-(D4-Pad2)*
X61214000Y-28829000D03*
G04 #@! TD*
G04 #@! TO.P,SW7,2*
G04 #@! TO.N,Net-(SW5-Pad2)*
X54800500Y-69469000D03*
G04 #@! TO.P,SW7,1*
G04 #@! TO.N,Net-(D6-Pad2)*
X61150500Y-66929000D03*
G04 #@! TD*
G04 #@! TO.P,SW8,1*
G04 #@! TO.N,Net-(D7-Pad2)*
X80200500Y-28829000D03*
G04 #@! TO.P,SW8,2*
G04 #@! TO.N,Net-(SW10-Pad2)*
X73850500Y-31369000D03*
G04 #@! TD*
G04 #@! TO.P,SW9,2*
G04 #@! TO.N,Net-(SW10-Pad2)*
X73914000Y-50419000D03*
G04 #@! TO.P,SW9,1*
G04 #@! TO.N,Net-(D8-Pad2)*
X80264000Y-47879000D03*
G04 #@! TD*
G04 #@! TO.P,SW10,1*
G04 #@! TO.N,Net-(D9-Pad2)*
X80200500Y-66929000D03*
G04 #@! TO.P,SW10,2*
G04 #@! TO.N,Net-(SW10-Pad2)*
X73850500Y-69469000D03*
G04 #@! TD*
G04 #@! TO.P,SW11,1*
G04 #@! TO.N,Net-(D10-Pad2)*
X99314000Y-28829000D03*
G04 #@! TO.P,SW11,2*
G04 #@! TO.N,Net-(SW11-Pad2)*
X92964000Y-31369000D03*
G04 #@! TD*
G04 #@! TO.P,SW12,2*
G04 #@! TO.N,Net-(SW11-Pad2)*
X92900500Y-50419000D03*
G04 #@! TO.P,SW12,1*
G04 #@! TO.N,Net-(D11-Pad2)*
X99250500Y-47879000D03*
G04 #@! TD*
G04 #@! TO.P,SW13,2*
G04 #@! TO.N,Net-(SW11-Pad2)*
X92964000Y-69532500D03*
G04 #@! TO.P,SW13,1*
G04 #@! TO.N,Net-(D12-Pad2)*
X99314000Y-66992500D03*
G04 #@! TD*
D16*
G04 #@! TO.P,SW14,A*
G04 #@! TO.N,Net-(SW14-PadA)*
X89344500Y-31623000D03*
D15*
G04 #@! TO.P,SW14,C*
G04 #@! TO.N,Net-(SW1-PadC)*
X89344500Y-34123000D03*
G04 #@! TO.P,SW14,B*
G04 #@! TO.N,Net-(SW14-PadB)*
X89344500Y-36623000D03*
D14*
G04 #@! TO.P,SW14,MP*
G04 #@! TO.N,N/C*
X96844500Y-28523000D03*
X96844500Y-39723000D03*
D13*
G04 #@! TO.P,SW14,*
G04 #@! TO.N,*
X103844500Y-31623000D03*
X103844500Y-36623000D03*
G04 #@! TD*
D17*
G04 #@! TO.P,U1,24*
G04 #@! TO.N,Net-(U1-Pad24)*
X47853600Y-28829000D03*
G04 #@! TO.P,U1,12*
G04 #@! TO.N,Net-(D12-Pad1)*
X32613600Y-56769000D03*
G04 #@! TO.P,U1,23*
G04 #@! TO.N,Net-(SW1-PadC)*
X47396400Y-31369000D03*
G04 #@! TO.P,U1,22*
G04 #@! TO.N,Net-(U1-Pad22)*
X47853600Y-33909000D03*
G04 #@! TO.P,U1,21*
G04 #@! TO.N,Net-(D13-Pad3)*
X47396400Y-36449000D03*
G04 #@! TO.P,U1,20*
G04 #@! TO.N,Net-(SW1-PadA)*
X47853600Y-38989000D03*
G04 #@! TO.P,U1,19*
G04 #@! TO.N,Net-(SW1-PadB)*
X47396400Y-41529000D03*
G04 #@! TO.P,U1,18*
G04 #@! TO.N,Net-(SW11-Pad2)*
X47853600Y-44069000D03*
G04 #@! TO.P,U1,17*
G04 #@! TO.N,Net-(SW10-Pad2)*
X47396400Y-46609000D03*
G04 #@! TO.P,U1,16*
G04 #@! TO.N,Net-(SW5-Pad2)*
X47853600Y-49149000D03*
G04 #@! TO.P,U1,15*
G04 #@! TO.N,Net-(SW2-Pad2)*
X47396400Y-51689000D03*
G04 #@! TO.P,U1,14*
G04 #@! TO.N,Net-(SW14-PadA)*
X47853600Y-54229000D03*
G04 #@! TO.P,U1,13*
G04 #@! TO.N,Net-(SW14-PadB)*
X47396400Y-56769000D03*
G04 #@! TO.P,U1,11*
G04 #@! TO.N,Net-(D11-Pad1)*
X32156400Y-54229000D03*
G04 #@! TO.P,U1,10*
G04 #@! TO.N,Net-(U1-Pad10)*
X32613600Y-51689000D03*
G04 #@! TO.P,U1,9*
G04 #@! TO.N,Net-(U1-Pad9)*
X32156400Y-49149000D03*
G04 #@! TO.P,U1,8*
G04 #@! TO.N,Net-(U1-Pad8)*
X32613600Y-46609000D03*
G04 #@! TO.P,U1,7*
G04 #@! TO.N,Net-(D1-Pad1)*
X32156400Y-44069000D03*
G04 #@! TO.P,U1,6*
G04 #@! TO.N,Net-(U1-Pad6)*
X32613600Y-41529000D03*
G04 #@! TO.P,U1,5*
G04 #@! TO.N,Net-(D13-Pad4)*
X32156400Y-38989000D03*
G04 #@! TO.P,U1,4*
G04 #@! TO.N,Net-(D13-Pad1)*
X32613600Y-36449000D03*
G04 #@! TO.P,U1,3*
G04 #@! TO.N,Net-(U1-Pad3)*
X32156400Y-33909000D03*
G04 #@! TO.P,U1,2*
G04 #@! TO.N,Net-(U1-Pad2)*
X32613600Y-31369000D03*
D18*
G04 #@! TO.P,U1,1*
G04 #@! TO.N,Net-(U1-Pad1)*
X32156400Y-28829000D03*
G04 #@! TD*
D19*
G04 #@! TO.N,Net-(SW2-Pad2)*
X36195000Y-67916054D02*
X36195000Y-50609500D01*
X36195000Y-69532500D02*
X36195000Y-67916054D01*
X36195000Y-31686500D02*
X36195000Y-33302946D01*
X36195000Y-33848474D02*
X36195000Y-33591500D01*
X36195000Y-33302946D02*
X36195000Y-33591500D01*
X36195000Y-33591500D02*
X36195000Y-50609500D01*
X37811446Y-50609500D02*
X36195000Y-50609500D01*
X45077625Y-50609500D02*
X37811446Y-50609500D01*
X46157125Y-51689000D02*
X45077625Y-50609500D01*
X47396400Y-51689000D02*
X46157125Y-51689000D01*
G04 #@! TO.N,Net-(SW5-Pad2)*
X55118000Y-31686500D02*
X55118000Y-50609500D01*
X55118000Y-50609500D02*
X55118000Y-69532500D01*
X55118000Y-33302946D02*
X55118000Y-31686500D01*
X55118000Y-41375998D02*
X55118000Y-33302946D01*
X48729899Y-47764099D02*
X50101500Y-46392498D01*
X48729899Y-48272701D02*
X48729899Y-47764099D01*
X47853600Y-49149000D02*
X48729899Y-48272701D01*
X49884998Y-46609000D02*
X50101500Y-46392498D01*
X50101500Y-46392498D02*
X55118000Y-41375998D01*
G04 #@! TO.N,Net-(SW10-Pad2)*
X74041000Y-69532500D02*
X74041000Y-50609500D01*
X74041000Y-50609500D02*
X74041000Y-31686500D01*
X50234010Y-43771390D02*
X47396400Y-46609000D01*
X50234010Y-29839490D02*
X50234010Y-43771390D01*
X52395001Y-27678499D02*
X50234010Y-29839490D01*
X74041000Y-31686500D02*
X70032999Y-27678499D01*
X70032999Y-27678499D02*
X52395001Y-27678499D01*
G04 #@! TO.N,Net-(SW11-Pad2)*
X92964000Y-33302946D02*
X92964000Y-50609500D01*
X92964000Y-31686500D02*
X92964000Y-33302946D01*
X92964000Y-52225946D02*
X92964000Y-69532500D01*
X92964000Y-50609500D02*
X92964000Y-52225946D01*
X88437501Y-27160001D02*
X52214999Y-27160001D01*
X92964000Y-31686500D02*
X88437501Y-27160001D01*
X52214999Y-27160001D02*
X49784000Y-29591000D01*
X49784000Y-29591000D02*
X49784000Y-39141400D01*
X48729899Y-40195501D02*
X49784000Y-39141400D01*
X48729899Y-43192701D02*
X48729899Y-40195501D01*
X47853600Y-44069000D02*
X48729899Y-43192701D01*
G04 #@! TD*
M02*
