G04 #@! TF.GenerationSoftware,KiCad,Pcbnew,(5.0.2)-1*
G04 #@! TF.CreationDate,2019-01-26T23:34:41-05:00*
G04 #@! TF.ProjectId,4x5macro,3478356d-6163-4726-9f2e-6b696361645f,rev?*
G04 #@! TF.SameCoordinates,Original*
G04 #@! TF.FileFunction,Legend,Top*
G04 #@! TF.FilePolarity,Positive*
%FSLAX46Y46*%
G04 Gerber Fmt 4.6, Leading zero omitted, Abs format (unit mm)*
G04 Created by KiCad (PCBNEW (5.0.2)-1) date 1/26/2019 11:34:41 PM*
%MOMM*%
%LPD*%
G01*
G04 APERTURE LIST*
%ADD10C,0.500000*%
%ADD11C,1.750000*%
%ADD12C,0.120000*%
%ADD13C,0.381000*%
%ADD14C,0.150000*%
G04 APERTURE END LIST*
D10*
X82740857Y-75890928D02*
X83217047Y-77224261D01*
X83693238Y-75890928D01*
X85502761Y-77224261D02*
X84359904Y-77224261D01*
X84931333Y-77224261D02*
X84931333Y-75224261D01*
X84740857Y-75509976D01*
X84550380Y-75700452D01*
X84359904Y-75795690D01*
X86359904Y-77033785D02*
X86455142Y-77129023D01*
X86359904Y-77224261D01*
X86264666Y-77129023D01*
X86359904Y-77033785D01*
X86359904Y-77224261D01*
X87693238Y-75224261D02*
X87883714Y-75224261D01*
X88074190Y-75319500D01*
X88169428Y-75414738D01*
X88264666Y-75605214D01*
X88359904Y-75986166D01*
X88359904Y-76462357D01*
X88264666Y-76843309D01*
X88169428Y-77033785D01*
X88074190Y-77129023D01*
X87883714Y-77224261D01*
X87693238Y-77224261D01*
X87502761Y-77129023D01*
X87407523Y-77033785D01*
X87312285Y-76843309D01*
X87217047Y-76462357D01*
X87217047Y-75986166D01*
X87312285Y-75605214D01*
X87407523Y-75414738D01*
X87502761Y-75319500D01*
X87693238Y-75224261D01*
X65836095Y-80724261D02*
X65836095Y-78724261D01*
X65836095Y-80629023D02*
X65645619Y-80724261D01*
X65264666Y-80724261D01*
X65074190Y-80629023D01*
X64978952Y-80533785D01*
X64883714Y-80343309D01*
X64883714Y-79771880D01*
X64978952Y-79581404D01*
X65074190Y-79486166D01*
X65264666Y-79390928D01*
X65645619Y-79390928D01*
X65836095Y-79486166D01*
X67550380Y-80629023D02*
X67359904Y-80724261D01*
X66978952Y-80724261D01*
X66788476Y-80629023D01*
X66693238Y-80438547D01*
X66693238Y-79676642D01*
X66788476Y-79486166D01*
X66978952Y-79390928D01*
X67359904Y-79390928D01*
X67550380Y-79486166D01*
X67645619Y-79676642D01*
X67645619Y-79867119D01*
X66693238Y-80057595D01*
X68407523Y-80629023D02*
X68598000Y-80724261D01*
X68978952Y-80724261D01*
X69169428Y-80629023D01*
X69264666Y-80438547D01*
X69264666Y-80343309D01*
X69169428Y-80152833D01*
X68978952Y-80057595D01*
X68693238Y-80057595D01*
X68502761Y-79962357D01*
X68407523Y-79771880D01*
X68407523Y-79676642D01*
X68502761Y-79486166D01*
X68693238Y-79390928D01*
X68978952Y-79390928D01*
X69169428Y-79486166D01*
X70121809Y-80724261D02*
X70121809Y-79390928D01*
X70121809Y-78724261D02*
X70026571Y-78819500D01*
X70121809Y-78914738D01*
X70217047Y-78819500D01*
X70121809Y-78724261D01*
X70121809Y-78914738D01*
X71931333Y-79390928D02*
X71931333Y-81009976D01*
X71836095Y-81200452D01*
X71740857Y-81295690D01*
X71550380Y-81390928D01*
X71264666Y-81390928D01*
X71074190Y-81295690D01*
X71931333Y-80629023D02*
X71740857Y-80724261D01*
X71359904Y-80724261D01*
X71169428Y-80629023D01*
X71074190Y-80533785D01*
X70978952Y-80343309D01*
X70978952Y-79771880D01*
X71074190Y-79581404D01*
X71169428Y-79486166D01*
X71359904Y-79390928D01*
X71740857Y-79390928D01*
X71931333Y-79486166D01*
X72883714Y-79390928D02*
X72883714Y-80724261D01*
X72883714Y-79581404D02*
X72978952Y-79486166D01*
X73169428Y-79390928D01*
X73455142Y-79390928D01*
X73645619Y-79486166D01*
X73740857Y-79676642D01*
X73740857Y-80724261D01*
X75455142Y-80629023D02*
X75264666Y-80724261D01*
X74883714Y-80724261D01*
X74693238Y-80629023D01*
X74598000Y-80438547D01*
X74598000Y-79676642D01*
X74693238Y-79486166D01*
X74883714Y-79390928D01*
X75264666Y-79390928D01*
X75455142Y-79486166D01*
X75550380Y-79676642D01*
X75550380Y-79867119D01*
X74598000Y-80057595D01*
X77264666Y-80724261D02*
X77264666Y-78724261D01*
X77264666Y-80629023D02*
X77074190Y-80724261D01*
X76693238Y-80724261D01*
X76502761Y-80629023D01*
X76407523Y-80533785D01*
X76312285Y-80343309D01*
X76312285Y-79771880D01*
X76407523Y-79581404D01*
X76502761Y-79486166D01*
X76693238Y-79390928D01*
X77074190Y-79390928D01*
X77264666Y-79486166D01*
X79740857Y-80724261D02*
X79740857Y-78724261D01*
X79740857Y-79486166D02*
X79931333Y-79390928D01*
X80312285Y-79390928D01*
X80502761Y-79486166D01*
X80598000Y-79581404D01*
X80693238Y-79771880D01*
X80693238Y-80343309D01*
X80598000Y-80533785D01*
X80502761Y-80629023D01*
X80312285Y-80724261D01*
X79931333Y-80724261D01*
X79740857Y-80629023D01*
X81359904Y-79390928D02*
X81836095Y-80724261D01*
X82312285Y-79390928D02*
X81836095Y-80724261D01*
X81645619Y-81200452D01*
X81550380Y-81295690D01*
X81359904Y-81390928D01*
X85455142Y-79390928D02*
X85455142Y-80724261D01*
X84598000Y-79390928D02*
X84598000Y-80438547D01*
X84693238Y-80629023D01*
X84883714Y-80724261D01*
X85169428Y-80724261D01*
X85359904Y-80629023D01*
X85455142Y-80533785D01*
X87836095Y-78629023D02*
X86121809Y-81200452D01*
X88502761Y-80724261D02*
X88502761Y-79390928D01*
X88502761Y-79581404D02*
X88598000Y-79486166D01*
X88788476Y-79390928D01*
X89074190Y-79390928D01*
X89264666Y-79486166D01*
X89359904Y-79676642D01*
X89359904Y-80724261D01*
X89359904Y-79676642D02*
X89455142Y-79486166D01*
X89645619Y-79390928D01*
X89931333Y-79390928D01*
X90121809Y-79486166D01*
X90217047Y-79676642D01*
X90217047Y-80724261D01*
X90978952Y-79390928D02*
X91455142Y-80724261D01*
X91931333Y-79390928D02*
X91455142Y-80724261D01*
X91264666Y-81200452D01*
X91169428Y-81295690D01*
X90978952Y-81390928D01*
X92407523Y-79390928D02*
X93169428Y-79390928D01*
X92693238Y-78724261D02*
X92693238Y-80438547D01*
X92788476Y-80629023D01*
X92978952Y-80724261D01*
X93169428Y-80724261D01*
X93836095Y-80724261D02*
X93836095Y-78724261D01*
X94693238Y-80724261D02*
X94693238Y-79676642D01*
X94598000Y-79486166D01*
X94407523Y-79390928D01*
X94121809Y-79390928D01*
X93931333Y-79486166D01*
X93836095Y-79581404D01*
X95931333Y-80724261D02*
X95740857Y-80629023D01*
X95645619Y-80533785D01*
X95550380Y-80343309D01*
X95550380Y-79771880D01*
X95645619Y-79581404D01*
X95740857Y-79486166D01*
X95931333Y-79390928D01*
X96217047Y-79390928D01*
X96407523Y-79486166D01*
X96502761Y-79581404D01*
X96598000Y-79771880D01*
X96598000Y-80343309D01*
X96502761Y-80533785D01*
X96407523Y-80629023D01*
X96217047Y-80724261D01*
X95931333Y-80724261D01*
X97359904Y-80629023D02*
X97550380Y-80724261D01*
X97931333Y-80724261D01*
X98121809Y-80629023D01*
X98217047Y-80438547D01*
X98217047Y-80343309D01*
X98121809Y-80152833D01*
X97931333Y-80057595D01*
X97645619Y-80057595D01*
X97455142Y-79962357D01*
X97359904Y-79771880D01*
X97359904Y-79676642D01*
X97455142Y-79486166D01*
X97645619Y-79390928D01*
X97931333Y-79390928D01*
X98121809Y-79486166D01*
X99074190Y-80724261D02*
X99074190Y-79390928D01*
X99074190Y-79581404D02*
X99169428Y-79486166D01*
X99359904Y-79390928D01*
X99645619Y-79390928D01*
X99836095Y-79486166D01*
X99931333Y-79676642D01*
X99931333Y-80724261D01*
X99931333Y-79676642D02*
X100026571Y-79486166D01*
X100217047Y-79390928D01*
X100502761Y-79390928D01*
X100693238Y-79486166D01*
X100788476Y-79676642D01*
X100788476Y-80724261D01*
X102598000Y-80724261D02*
X102598000Y-79676642D01*
X102502761Y-79486166D01*
X102312285Y-79390928D01*
X101931333Y-79390928D01*
X101740857Y-79486166D01*
X102598000Y-80629023D02*
X102407523Y-80724261D01*
X101931333Y-80724261D01*
X101740857Y-80629023D01*
X101645619Y-80438547D01*
X101645619Y-80248071D01*
X101740857Y-80057595D01*
X101931333Y-79962357D01*
X102407523Y-79962357D01*
X102598000Y-79867119D01*
X103550380Y-79390928D02*
X103550380Y-80724261D01*
X103550380Y-79581404D02*
X103645619Y-79486166D01*
X103836095Y-79390928D01*
X104121809Y-79390928D01*
X104312285Y-79486166D01*
X104407523Y-79676642D01*
X104407523Y-80724261D01*
X105359904Y-79390928D02*
X105359904Y-80724261D01*
X105359904Y-79581404D02*
X105455142Y-79486166D01*
X105645619Y-79390928D01*
X105931333Y-79390928D01*
X106121809Y-79486166D01*
X106217047Y-79676642D01*
X106217047Y-80724261D01*
X82169428Y-82224261D02*
X82359904Y-82224261D01*
X82550380Y-82319500D01*
X82645619Y-82414738D01*
X82740857Y-82605214D01*
X82836095Y-82986166D01*
X82836095Y-83462357D01*
X82740857Y-83843309D01*
X82645619Y-84033785D01*
X82550380Y-84129023D01*
X82359904Y-84224261D01*
X82169428Y-84224261D01*
X81978952Y-84129023D01*
X81883714Y-84033785D01*
X81788476Y-83843309D01*
X81693238Y-83462357D01*
X81693238Y-82986166D01*
X81788476Y-82605214D01*
X81883714Y-82414738D01*
X81978952Y-82319500D01*
X82169428Y-82224261D01*
X84740857Y-84224261D02*
X83598000Y-84224261D01*
X84169428Y-84224261D02*
X84169428Y-82224261D01*
X83978952Y-82509976D01*
X83788476Y-82700452D01*
X83598000Y-82795690D01*
X85598000Y-84033785D02*
X85693238Y-84129023D01*
X85598000Y-84224261D01*
X85502761Y-84129023D01*
X85598000Y-84033785D01*
X85598000Y-84224261D01*
X87598000Y-84224261D02*
X86455142Y-84224261D01*
X87026571Y-84224261D02*
X87026571Y-82224261D01*
X86836095Y-82509976D01*
X86645619Y-82700452D01*
X86455142Y-82795690D01*
X88550380Y-84224261D02*
X88931333Y-84224261D01*
X89121809Y-84129023D01*
X89217047Y-84033785D01*
X89407523Y-83748071D01*
X89502761Y-83367119D01*
X89502761Y-82605214D01*
X89407523Y-82414738D01*
X89312285Y-82319500D01*
X89121809Y-82224261D01*
X88740857Y-82224261D01*
X88550380Y-82319500D01*
X88455142Y-82414738D01*
X88359904Y-82605214D01*
X88359904Y-83081404D01*
X88455142Y-83271880D01*
X88550380Y-83367119D01*
X88740857Y-83462357D01*
X89121809Y-83462357D01*
X89312285Y-83367119D01*
X89407523Y-83271880D01*
X89502761Y-83081404D01*
D11*
X40715000Y-44886166D02*
X40715000Y-40219500D01*
X40715000Y-40886166D02*
X41048333Y-40552833D01*
X41715000Y-40219500D01*
X42715000Y-40219500D01*
X43381666Y-40552833D01*
X43715000Y-41219500D01*
X43715000Y-44886166D01*
X43715000Y-41219500D02*
X44048333Y-40552833D01*
X44715000Y-40219500D01*
X45715000Y-40219500D01*
X46381666Y-40552833D01*
X46715000Y-41219500D01*
X46715000Y-44886166D01*
X53048333Y-44886166D02*
X53048333Y-41219500D01*
X52715000Y-40552833D01*
X52048333Y-40219500D01*
X50715000Y-40219500D01*
X50048333Y-40552833D01*
X53048333Y-44552833D02*
X52381666Y-44886166D01*
X50715000Y-44886166D01*
X50048333Y-44552833D01*
X49715000Y-43886166D01*
X49715000Y-43219500D01*
X50048333Y-42552833D01*
X50715000Y-42219500D01*
X52381666Y-42219500D01*
X53048333Y-41886166D01*
X59381666Y-44552833D02*
X58715000Y-44886166D01*
X57381666Y-44886166D01*
X56715000Y-44552833D01*
X56381666Y-44219500D01*
X56048333Y-43552833D01*
X56048333Y-41552833D01*
X56381666Y-40886166D01*
X56715000Y-40552833D01*
X57381666Y-40219500D01*
X58715000Y-40219500D01*
X59381666Y-40552833D01*
X62381666Y-44886166D02*
X62381666Y-40219500D01*
X62381666Y-41552833D02*
X62715000Y-40886166D01*
X63048333Y-40552833D01*
X63715000Y-40219500D01*
X64381666Y-40219500D01*
X67715000Y-44886166D02*
X67048333Y-44552833D01*
X66715000Y-44219500D01*
X66381666Y-43552833D01*
X66381666Y-41552833D01*
X66715000Y-40886166D01*
X67048333Y-40552833D01*
X67715000Y-40219500D01*
X68715000Y-40219500D01*
X69381666Y-40552833D01*
X69715000Y-40886166D01*
X70048333Y-41552833D01*
X70048333Y-43552833D01*
X69715000Y-44219500D01*
X69381666Y-44552833D01*
X68715000Y-44886166D01*
X67715000Y-44886166D01*
X78381666Y-40219500D02*
X78381666Y-47219500D01*
X78381666Y-40552833D02*
X79048333Y-40219500D01*
X80381666Y-40219500D01*
X81048333Y-40552833D01*
X81381666Y-40886166D01*
X81715000Y-41552833D01*
X81715000Y-43552833D01*
X81381666Y-44219500D01*
X81048333Y-44552833D01*
X80381666Y-44886166D01*
X79048333Y-44886166D01*
X78381666Y-44552833D01*
X85715000Y-44886166D02*
X85048333Y-44552833D01*
X84715000Y-44219500D01*
X84381666Y-43552833D01*
X84381666Y-41552833D01*
X84715000Y-40886166D01*
X85048333Y-40552833D01*
X85715000Y-40219500D01*
X86715000Y-40219500D01*
X87381666Y-40552833D01*
X87715000Y-40886166D01*
X88048333Y-41552833D01*
X88048333Y-43552833D01*
X87715000Y-44219500D01*
X87381666Y-44552833D01*
X86715000Y-44886166D01*
X85715000Y-44886166D01*
X92048333Y-44886166D02*
X91381666Y-44552833D01*
X91048333Y-43886166D01*
X91048333Y-37886166D01*
X95715000Y-44886166D02*
X95048333Y-44552833D01*
X94715000Y-44219500D01*
X94381666Y-43552833D01*
X94381666Y-41552833D01*
X94715000Y-40886166D01*
X95048333Y-40552833D01*
X95715000Y-40219500D01*
X96715000Y-40219500D01*
X97381666Y-40552833D01*
X97715000Y-40886166D01*
X98048333Y-41552833D01*
X98048333Y-43552833D01*
X97715000Y-44219500D01*
X97381666Y-44552833D01*
X96715000Y-44886166D01*
X95715000Y-44886166D01*
D12*
G04 #@! TO.C,SW1*
X80430000Y-34410000D02*
G75*
G03X80430000Y-34410000I-3000000J0D01*
G01*
X71530000Y-32410000D02*
X71530000Y-28310000D01*
X83330000Y-28310000D02*
X83330000Y-32410000D01*
X83330000Y-36410000D02*
X83330000Y-40510000D01*
X71530000Y-36410000D02*
X71530000Y-40510000D01*
X71530000Y-40510000D02*
X83330000Y-40510000D01*
X73630000Y-41910000D02*
X73330000Y-42210000D01*
X73330000Y-42210000D02*
X73330000Y-41610000D01*
X73330000Y-41610000D02*
X73630000Y-41910000D01*
X71530000Y-28310000D02*
X73930000Y-28310000D01*
X76130000Y-28310000D02*
X78730000Y-28310000D01*
X80930000Y-28310000D02*
X83330000Y-28310000D01*
X76930000Y-34410000D02*
X77930000Y-34410000D01*
X77430000Y-34910000D02*
X77430000Y-33910000D01*
G04 #@! TO.C,SW14*
X99844500Y-34123000D02*
G75*
G03X99844500Y-34123000I-3000000J0D01*
G01*
X98844500Y-28223000D02*
X102944500Y-28223000D01*
X102944500Y-40023000D02*
X98844500Y-40023000D01*
X94844500Y-40023000D02*
X90744500Y-40023000D01*
X94844500Y-28223000D02*
X90744500Y-28223000D01*
X90744500Y-28223000D02*
X90744500Y-40023000D01*
X89344500Y-30323000D02*
X89044500Y-30023000D01*
X89044500Y-30023000D02*
X89644500Y-30023000D01*
X89644500Y-30023000D02*
X89344500Y-30323000D01*
X102944500Y-28223000D02*
X102944500Y-30623000D01*
X102944500Y-32823000D02*
X102944500Y-35423000D01*
X102944500Y-37623000D02*
X102944500Y-40023000D01*
X96844500Y-33623000D02*
X96844500Y-34623000D01*
X96344500Y-34123000D02*
X97344500Y-34123000D01*
D13*
G04 #@! TO.C,U1*
X33655000Y-27559000D02*
X31115000Y-27559000D01*
X31115000Y-25019000D02*
X31115000Y-27559000D01*
X48895000Y-25019000D02*
X31115000Y-25019000D01*
X48895000Y-27559000D02*
X48895000Y-25019000D01*
D14*
G36*
X44936568Y-34038360D02*
X44936568Y-34238360D01*
X44836568Y-34238360D01*
X44836568Y-34038360D01*
X44936568Y-34038360D01*
G37*
X44936568Y-34038360D02*
X44936568Y-34238360D01*
X44836568Y-34238360D01*
X44836568Y-34038360D01*
X44936568Y-34038360D01*
G36*
X44536568Y-33438360D02*
X44536568Y-34238360D01*
X44436568Y-34238360D01*
X44436568Y-33438360D01*
X44536568Y-33438360D01*
G37*
X44536568Y-33438360D02*
X44536568Y-34238360D01*
X44436568Y-34238360D01*
X44436568Y-33438360D01*
X44536568Y-33438360D01*
G36*
X44936568Y-33438360D02*
X44936568Y-33538360D01*
X44436568Y-33538360D01*
X44436568Y-33438360D01*
X44936568Y-33438360D01*
G37*
X44936568Y-33438360D02*
X44936568Y-33538360D01*
X44436568Y-33538360D01*
X44436568Y-33438360D01*
X44936568Y-33438360D01*
G36*
X44736568Y-33838360D02*
X44736568Y-33938360D01*
X44636568Y-33938360D01*
X44636568Y-33838360D01*
X44736568Y-33838360D01*
G37*
X44736568Y-33838360D02*
X44736568Y-33938360D01*
X44636568Y-33938360D01*
X44636568Y-33838360D01*
X44736568Y-33838360D01*
G36*
X44936568Y-33438360D02*
X44936568Y-33738360D01*
X44836568Y-33738360D01*
X44836568Y-33438360D01*
X44936568Y-33438360D01*
G37*
X44936568Y-33438360D02*
X44936568Y-33738360D01*
X44836568Y-33738360D01*
X44836568Y-33438360D01*
X44936568Y-33438360D01*
D13*
X33655000Y-30099000D02*
X31115000Y-30099000D01*
X33655000Y-27559000D02*
X33655000Y-30099000D01*
X48895000Y-58039000D02*
X48895000Y-27559000D01*
X31115000Y-58039000D02*
X48895000Y-58039000D01*
X31115000Y-27559000D02*
X31115000Y-58039000D01*
D12*
G04 #@! TO.C,D11*
X93384000Y-43711000D02*
X93384000Y-45951000D01*
X93384000Y-45951000D02*
X97624000Y-45951000D01*
X97624000Y-45951000D02*
X97624000Y-43711000D01*
X97624000Y-43711000D02*
X93384000Y-43711000D01*
X92734000Y-44831000D02*
X93384000Y-44831000D01*
X98274000Y-44831000D02*
X97624000Y-44831000D01*
X94104000Y-43711000D02*
X94104000Y-45951000D01*
X94224000Y-43711000D02*
X94224000Y-45951000D01*
X93984000Y-43711000D02*
X93984000Y-45951000D01*
G04 #@! TO.C,D1*
X36869000Y-24915000D02*
X36869000Y-27155000D01*
X36869000Y-27155000D02*
X41109000Y-27155000D01*
X41109000Y-27155000D02*
X41109000Y-24915000D01*
X41109000Y-24915000D02*
X36869000Y-24915000D01*
X36219000Y-26035000D02*
X36869000Y-26035000D01*
X41759000Y-26035000D02*
X41109000Y-26035000D01*
X37589000Y-24915000D02*
X37589000Y-27155000D01*
X37709000Y-24915000D02*
X37709000Y-27155000D01*
X37469000Y-24915000D02*
X37469000Y-27155000D01*
G04 #@! TO.C,D2*
X37215000Y-43139500D02*
X37215000Y-45379500D01*
X37455000Y-43139500D02*
X37455000Y-45379500D01*
X37335000Y-43139500D02*
X37335000Y-45379500D01*
X41505000Y-44259500D02*
X40855000Y-44259500D01*
X35965000Y-44259500D02*
X36615000Y-44259500D01*
X40855000Y-43139500D02*
X36615000Y-43139500D01*
X40855000Y-45379500D02*
X40855000Y-43139500D01*
X36615000Y-45379500D02*
X40855000Y-45379500D01*
X36615000Y-43139500D02*
X36615000Y-45379500D01*
G04 #@! TO.C,D3*
X37215000Y-62507000D02*
X37215000Y-64747000D01*
X37455000Y-62507000D02*
X37455000Y-64747000D01*
X37335000Y-62507000D02*
X37335000Y-64747000D01*
X41505000Y-63627000D02*
X40855000Y-63627000D01*
X35965000Y-63627000D02*
X36615000Y-63627000D01*
X40855000Y-62507000D02*
X36615000Y-62507000D01*
X40855000Y-64747000D02*
X40855000Y-62507000D01*
X36615000Y-64747000D02*
X40855000Y-64747000D01*
X36615000Y-62507000D02*
X36615000Y-64747000D01*
G04 #@! TO.C,D4*
X55538000Y-24915000D02*
X55538000Y-27155000D01*
X55538000Y-27155000D02*
X59778000Y-27155000D01*
X59778000Y-27155000D02*
X59778000Y-24915000D01*
X59778000Y-24915000D02*
X55538000Y-24915000D01*
X54888000Y-26035000D02*
X55538000Y-26035000D01*
X60428000Y-26035000D02*
X59778000Y-26035000D01*
X56258000Y-24915000D02*
X56258000Y-27155000D01*
X56378000Y-24915000D02*
X56378000Y-27155000D01*
X56138000Y-24915000D02*
X56138000Y-27155000D01*
G04 #@! TO.C,D5*
X55538000Y-43711000D02*
X55538000Y-45951000D01*
X55538000Y-45951000D02*
X59778000Y-45951000D01*
X59778000Y-45951000D02*
X59778000Y-43711000D01*
X59778000Y-43711000D02*
X55538000Y-43711000D01*
X54888000Y-44831000D02*
X55538000Y-44831000D01*
X60428000Y-44831000D02*
X59778000Y-44831000D01*
X56258000Y-43711000D02*
X56258000Y-45951000D01*
X56378000Y-43711000D02*
X56378000Y-45951000D01*
X56138000Y-43711000D02*
X56138000Y-45951000D01*
G04 #@! TO.C,D6*
X55601500Y-62443500D02*
X55601500Y-64683500D01*
X55601500Y-64683500D02*
X59841500Y-64683500D01*
X59841500Y-64683500D02*
X59841500Y-62443500D01*
X59841500Y-62443500D02*
X55601500Y-62443500D01*
X54951500Y-63563500D02*
X55601500Y-63563500D01*
X60491500Y-63563500D02*
X59841500Y-63563500D01*
X56321500Y-62443500D02*
X56321500Y-64683500D01*
X56441500Y-62443500D02*
X56441500Y-64683500D01*
X56201500Y-62443500D02*
X56201500Y-64683500D01*
G04 #@! TO.C,D7*
X70778000Y-24724500D02*
X70778000Y-26964500D01*
X70778000Y-26964500D02*
X75018000Y-26964500D01*
X75018000Y-26964500D02*
X75018000Y-24724500D01*
X75018000Y-24724500D02*
X70778000Y-24724500D01*
X70128000Y-25844500D02*
X70778000Y-25844500D01*
X75668000Y-25844500D02*
X75018000Y-25844500D01*
X71498000Y-24724500D02*
X71498000Y-26964500D01*
X71618000Y-24724500D02*
X71618000Y-26964500D01*
X71378000Y-24724500D02*
X71378000Y-26964500D01*
G04 #@! TO.C,D8*
X75061000Y-43711000D02*
X75061000Y-45951000D01*
X75301000Y-43711000D02*
X75301000Y-45951000D01*
X75181000Y-43711000D02*
X75181000Y-45951000D01*
X79351000Y-44831000D02*
X78701000Y-44831000D01*
X73811000Y-44831000D02*
X74461000Y-44831000D01*
X78701000Y-43711000D02*
X74461000Y-43711000D01*
X78701000Y-45951000D02*
X78701000Y-43711000D01*
X74461000Y-45951000D02*
X78701000Y-45951000D01*
X74461000Y-43711000D02*
X74461000Y-45951000D01*
G04 #@! TO.C,D9*
X75061000Y-62507000D02*
X75061000Y-64747000D01*
X75301000Y-62507000D02*
X75301000Y-64747000D01*
X75181000Y-62507000D02*
X75181000Y-64747000D01*
X79351000Y-63627000D02*
X78701000Y-63627000D01*
X73811000Y-63627000D02*
X74461000Y-63627000D01*
X78701000Y-62507000D02*
X74461000Y-62507000D01*
X78701000Y-64747000D02*
X78701000Y-62507000D01*
X74461000Y-64747000D02*
X78701000Y-64747000D01*
X74461000Y-62507000D02*
X74461000Y-64747000D01*
G04 #@! TO.C,D10*
X94047500Y-24851500D02*
X94047500Y-27091500D01*
X94287500Y-24851500D02*
X94287500Y-27091500D01*
X94167500Y-24851500D02*
X94167500Y-27091500D01*
X98337500Y-25971500D02*
X97687500Y-25971500D01*
X92797500Y-25971500D02*
X93447500Y-25971500D01*
X97687500Y-24851500D02*
X93447500Y-24851500D01*
X97687500Y-27091500D02*
X97687500Y-24851500D01*
X93447500Y-27091500D02*
X97687500Y-27091500D01*
X93447500Y-24851500D02*
X93447500Y-27091500D01*
G04 #@! TO.C,D12*
X94047500Y-62507000D02*
X94047500Y-64747000D01*
X94287500Y-62507000D02*
X94287500Y-64747000D01*
X94167500Y-62507000D02*
X94167500Y-64747000D01*
X98337500Y-63627000D02*
X97687500Y-63627000D01*
X92797500Y-63627000D02*
X93447500Y-63627000D01*
X97687500Y-62507000D02*
X93447500Y-62507000D01*
X97687500Y-64747000D02*
X97687500Y-62507000D01*
X93447500Y-64747000D02*
X97687500Y-64747000D01*
X93447500Y-62507000D02*
X93447500Y-64747000D01*
G04 #@! TO.C,D13*
X37622500Y-23832000D02*
X30322500Y-23832000D01*
X37622500Y-18332000D02*
X30322500Y-18332000D01*
X30322500Y-18332000D02*
X30322500Y-19482000D01*
G04 #@! TO.C,D14*
X39466500Y-18332000D02*
X39466500Y-19482000D01*
X46766500Y-18332000D02*
X39466500Y-18332000D01*
X46766500Y-23832000D02*
X39466500Y-23832000D01*
G04 #@! TO.C,D15*
X55783500Y-23832000D02*
X48483500Y-23832000D01*
X55783500Y-18332000D02*
X48483500Y-18332000D01*
X48483500Y-18332000D02*
X48483500Y-19482000D01*
G04 #@! TO.C,D16*
X57564000Y-18395500D02*
X57564000Y-19545500D01*
X64864000Y-18395500D02*
X57564000Y-18395500D01*
X64864000Y-23895500D02*
X57564000Y-23895500D01*
G04 #@! TO.C,D17*
X79215000Y-23895500D02*
X71915000Y-23895500D01*
X79215000Y-18395500D02*
X71915000Y-18395500D01*
X71915000Y-18395500D02*
X71915000Y-19545500D01*
G04 #@! TO.C,D18*
X80995500Y-18395500D02*
X80995500Y-19545500D01*
X88295500Y-18395500D02*
X80995500Y-18395500D01*
X88295500Y-23895500D02*
X80995500Y-23895500D01*
G04 #@! TO.C,D19*
X97630000Y-23895500D02*
X90330000Y-23895500D01*
X97630000Y-18395500D02*
X90330000Y-18395500D01*
X90330000Y-18395500D02*
X90330000Y-19545500D01*
G04 #@! TO.C,SW1*
D14*
X70634761Y-40443333D02*
X70682380Y-40300476D01*
X70682380Y-40062380D01*
X70634761Y-39967142D01*
X70587142Y-39919523D01*
X70491904Y-39871904D01*
X70396666Y-39871904D01*
X70301428Y-39919523D01*
X70253809Y-39967142D01*
X70206190Y-40062380D01*
X70158571Y-40252857D01*
X70110952Y-40348095D01*
X70063333Y-40395714D01*
X69968095Y-40443333D01*
X69872857Y-40443333D01*
X69777619Y-40395714D01*
X69730000Y-40348095D01*
X69682380Y-40252857D01*
X69682380Y-40014761D01*
X69730000Y-39871904D01*
X69682380Y-39538571D02*
X70682380Y-39300476D01*
X69968095Y-39110000D01*
X70682380Y-38919523D01*
X69682380Y-38681428D01*
X70682380Y-37776666D02*
X70682380Y-38348095D01*
X70682380Y-38062380D02*
X69682380Y-38062380D01*
X69825238Y-38157619D01*
X69920476Y-38252857D01*
X69968095Y-38348095D01*
G04 #@! TO.C,SW14*
X90334976Y-27327761D02*
X90477833Y-27375380D01*
X90715928Y-27375380D01*
X90811166Y-27327761D01*
X90858785Y-27280142D01*
X90906404Y-27184904D01*
X90906404Y-27089666D01*
X90858785Y-26994428D01*
X90811166Y-26946809D01*
X90715928Y-26899190D01*
X90525452Y-26851571D01*
X90430214Y-26803952D01*
X90382595Y-26756333D01*
X90334976Y-26661095D01*
X90334976Y-26565857D01*
X90382595Y-26470619D01*
X90430214Y-26423000D01*
X90525452Y-26375380D01*
X90763547Y-26375380D01*
X90906404Y-26423000D01*
X91239738Y-26375380D02*
X91477833Y-27375380D01*
X91668309Y-26661095D01*
X91858785Y-27375380D01*
X92096880Y-26375380D01*
X93001642Y-27375380D02*
X92430214Y-27375380D01*
X92715928Y-27375380D02*
X92715928Y-26375380D01*
X92620690Y-26518238D01*
X92525452Y-26613476D01*
X92430214Y-26661095D01*
X93858785Y-26708714D02*
X93858785Y-27375380D01*
X93620690Y-26327761D02*
X93382595Y-27042047D01*
X94001642Y-27042047D01*
G04 #@! TO.C,U1*
X34242651Y-28390904D02*
X34699794Y-28390904D01*
X34471223Y-29190904D02*
X34471223Y-28390904D01*
X34890270Y-28390904D02*
X35423604Y-29190904D01*
X35423604Y-28390904D02*
X34890270Y-29190904D01*
X35880747Y-28390904D02*
X35956937Y-28390904D01*
X36033128Y-28429000D01*
X36071223Y-28467095D01*
X36109318Y-28543285D01*
X36147413Y-28695666D01*
X36147413Y-28886142D01*
X36109318Y-29038523D01*
X36071223Y-29114714D01*
X36033128Y-29152809D01*
X35956937Y-29190904D01*
X35880747Y-29190904D01*
X35804556Y-29152809D01*
X35766461Y-29114714D01*
X35728366Y-29038523D01*
X35690270Y-28886142D01*
X35690270Y-28695666D01*
X35728366Y-28543285D01*
X35766461Y-28467095D01*
X35804556Y-28429000D01*
X35880747Y-28390904D01*
X37061699Y-28352809D02*
X36375985Y-29381380D01*
X37328366Y-29190904D02*
X37328366Y-28390904D01*
X37518842Y-28390904D01*
X37633128Y-28429000D01*
X37709318Y-28505190D01*
X37747413Y-28581380D01*
X37785508Y-28733761D01*
X37785508Y-28848047D01*
X37747413Y-29000428D01*
X37709318Y-29076619D01*
X37633128Y-29152809D01*
X37518842Y-29190904D01*
X37328366Y-29190904D01*
X38052175Y-28390904D02*
X38547413Y-28390904D01*
X38280747Y-28695666D01*
X38395032Y-28695666D01*
X38471223Y-28733761D01*
X38509318Y-28771857D01*
X38547413Y-28848047D01*
X38547413Y-29038523D01*
X38509318Y-29114714D01*
X38471223Y-29152809D01*
X38395032Y-29190904D01*
X38166461Y-29190904D01*
X38090270Y-29152809D01*
X38052175Y-29114714D01*
X33953523Y-31730904D02*
X33953523Y-30930904D01*
X34144000Y-30930904D01*
X34258285Y-30969000D01*
X34334476Y-31045190D01*
X34372571Y-31121380D01*
X34410666Y-31273761D01*
X34410666Y-31388047D01*
X34372571Y-31540428D01*
X34334476Y-31616619D01*
X34258285Y-31692809D01*
X34144000Y-31730904D01*
X33953523Y-31730904D01*
X34715428Y-31007095D02*
X34753523Y-30969000D01*
X34829714Y-30930904D01*
X35020190Y-30930904D01*
X35096380Y-30969000D01*
X35134476Y-31007095D01*
X35172571Y-31083285D01*
X35172571Y-31159476D01*
X35134476Y-31273761D01*
X34677333Y-31730904D01*
X35172571Y-31730904D01*
X33953523Y-41890904D02*
X33953523Y-41090904D01*
X34144000Y-41090904D01*
X34258285Y-41129000D01*
X34334476Y-41205190D01*
X34372571Y-41281380D01*
X34410666Y-41433761D01*
X34410666Y-41548047D01*
X34372571Y-41700428D01*
X34334476Y-41776619D01*
X34258285Y-41852809D01*
X34144000Y-41890904D01*
X33953523Y-41890904D01*
X34905904Y-41090904D02*
X34982095Y-41090904D01*
X35058285Y-41129000D01*
X35096380Y-41167095D01*
X35134476Y-41243285D01*
X35172571Y-41395666D01*
X35172571Y-41586142D01*
X35134476Y-41738523D01*
X35096380Y-41814714D01*
X35058285Y-41852809D01*
X34982095Y-41890904D01*
X34905904Y-41890904D01*
X34829714Y-41852809D01*
X34791619Y-41814714D01*
X34753523Y-41738523D01*
X34715428Y-41586142D01*
X34715428Y-41395666D01*
X34753523Y-41243285D01*
X34791619Y-41167095D01*
X34829714Y-41129000D01*
X34905904Y-41090904D01*
X33953523Y-39350904D02*
X33953523Y-38550904D01*
X34144000Y-38550904D01*
X34258285Y-38589000D01*
X34334476Y-38665190D01*
X34372571Y-38741380D01*
X34410666Y-38893761D01*
X34410666Y-39008047D01*
X34372571Y-39160428D01*
X34334476Y-39236619D01*
X34258285Y-39312809D01*
X34144000Y-39350904D01*
X33953523Y-39350904D01*
X35172571Y-39350904D02*
X34715428Y-39350904D01*
X34944000Y-39350904D02*
X34944000Y-38550904D01*
X34867809Y-38665190D01*
X34791619Y-38741380D01*
X34715428Y-38779476D01*
X33934476Y-36049000D02*
X33858285Y-36010904D01*
X33744000Y-36010904D01*
X33629714Y-36049000D01*
X33553523Y-36125190D01*
X33515428Y-36201380D01*
X33477333Y-36353761D01*
X33477333Y-36468047D01*
X33515428Y-36620428D01*
X33553523Y-36696619D01*
X33629714Y-36772809D01*
X33744000Y-36810904D01*
X33820190Y-36810904D01*
X33934476Y-36772809D01*
X33972571Y-36734714D01*
X33972571Y-36468047D01*
X33820190Y-36468047D01*
X34315428Y-36810904D02*
X34315428Y-36010904D01*
X34772571Y-36810904D01*
X34772571Y-36010904D01*
X35153523Y-36810904D02*
X35153523Y-36010904D01*
X35344000Y-36010904D01*
X35458285Y-36049000D01*
X35534476Y-36125190D01*
X35572571Y-36201380D01*
X35610666Y-36353761D01*
X35610666Y-36468047D01*
X35572571Y-36620428D01*
X35534476Y-36696619D01*
X35458285Y-36772809D01*
X35344000Y-36810904D01*
X35153523Y-36810904D01*
X33934476Y-33509000D02*
X33858285Y-33470904D01*
X33744000Y-33470904D01*
X33629714Y-33509000D01*
X33553523Y-33585190D01*
X33515428Y-33661380D01*
X33477333Y-33813761D01*
X33477333Y-33928047D01*
X33515428Y-34080428D01*
X33553523Y-34156619D01*
X33629714Y-34232809D01*
X33744000Y-34270904D01*
X33820190Y-34270904D01*
X33934476Y-34232809D01*
X33972571Y-34194714D01*
X33972571Y-33928047D01*
X33820190Y-33928047D01*
X34315428Y-34270904D02*
X34315428Y-33470904D01*
X34772571Y-34270904D01*
X34772571Y-33470904D01*
X35153523Y-34270904D02*
X35153523Y-33470904D01*
X35344000Y-33470904D01*
X35458285Y-33509000D01*
X35534476Y-33585190D01*
X35572571Y-33661380D01*
X35610666Y-33813761D01*
X35610666Y-33928047D01*
X35572571Y-34080428D01*
X35534476Y-34156619D01*
X35458285Y-34232809D01*
X35344000Y-34270904D01*
X35153523Y-34270904D01*
X33953523Y-44430904D02*
X33953523Y-43630904D01*
X34144000Y-43630904D01*
X34258285Y-43669000D01*
X34334476Y-43745190D01*
X34372571Y-43821380D01*
X34410666Y-43973761D01*
X34410666Y-44088047D01*
X34372571Y-44240428D01*
X34334476Y-44316619D01*
X34258285Y-44392809D01*
X34144000Y-44430904D01*
X33953523Y-44430904D01*
X35096380Y-43897571D02*
X35096380Y-44430904D01*
X34905904Y-43592809D02*
X34715428Y-44164238D01*
X35210666Y-44164238D01*
X34410666Y-46894714D02*
X34372571Y-46932809D01*
X34258285Y-46970904D01*
X34182095Y-46970904D01*
X34067809Y-46932809D01*
X33991619Y-46856619D01*
X33953523Y-46780428D01*
X33915428Y-46628047D01*
X33915428Y-46513761D01*
X33953523Y-46361380D01*
X33991619Y-46285190D01*
X34067809Y-46209000D01*
X34182095Y-46170904D01*
X34258285Y-46170904D01*
X34372571Y-46209000D01*
X34410666Y-46247095D01*
X35096380Y-46170904D02*
X34944000Y-46170904D01*
X34867809Y-46209000D01*
X34829714Y-46247095D01*
X34753523Y-46361380D01*
X34715428Y-46513761D01*
X34715428Y-46818523D01*
X34753523Y-46894714D01*
X34791619Y-46932809D01*
X34867809Y-46970904D01*
X35020190Y-46970904D01*
X35096380Y-46932809D01*
X35134476Y-46894714D01*
X35172571Y-46818523D01*
X35172571Y-46628047D01*
X35134476Y-46551857D01*
X35096380Y-46513761D01*
X35020190Y-46475666D01*
X34867809Y-46475666D01*
X34791619Y-46513761D01*
X34753523Y-46551857D01*
X34715428Y-46628047D01*
X33953523Y-49510904D02*
X33953523Y-48710904D01*
X34144000Y-48710904D01*
X34258285Y-48749000D01*
X34334476Y-48825190D01*
X34372571Y-48901380D01*
X34410666Y-49053761D01*
X34410666Y-49168047D01*
X34372571Y-49320428D01*
X34334476Y-49396619D01*
X34258285Y-49472809D01*
X34144000Y-49510904D01*
X33953523Y-49510904D01*
X34677333Y-48710904D02*
X35210666Y-48710904D01*
X34867809Y-49510904D01*
X33991619Y-51631857D02*
X34258285Y-51631857D01*
X34372571Y-52050904D02*
X33991619Y-52050904D01*
X33991619Y-51250904D01*
X34372571Y-51250904D01*
X35058285Y-51250904D02*
X34905904Y-51250904D01*
X34829714Y-51289000D01*
X34791619Y-51327095D01*
X34715428Y-51441380D01*
X34677333Y-51593761D01*
X34677333Y-51898523D01*
X34715428Y-51974714D01*
X34753523Y-52012809D01*
X34829714Y-52050904D01*
X34982095Y-52050904D01*
X35058285Y-52012809D01*
X35096380Y-51974714D01*
X35134476Y-51898523D01*
X35134476Y-51708047D01*
X35096380Y-51631857D01*
X35058285Y-51593761D01*
X34982095Y-51555666D01*
X34829714Y-51555666D01*
X34753523Y-51593761D01*
X34715428Y-51631857D01*
X34677333Y-51708047D01*
X34220190Y-54171857D02*
X34334476Y-54209952D01*
X34372571Y-54248047D01*
X34410666Y-54324238D01*
X34410666Y-54438523D01*
X34372571Y-54514714D01*
X34334476Y-54552809D01*
X34258285Y-54590904D01*
X33953523Y-54590904D01*
X33953523Y-53790904D01*
X34220190Y-53790904D01*
X34296380Y-53829000D01*
X34334476Y-53867095D01*
X34372571Y-53943285D01*
X34372571Y-54019476D01*
X34334476Y-54095666D01*
X34296380Y-54133761D01*
X34220190Y-54171857D01*
X33953523Y-54171857D01*
X35096380Y-54057571D02*
X35096380Y-54590904D01*
X34905904Y-53752809D02*
X34715428Y-54324238D01*
X35210666Y-54324238D01*
X34220190Y-56711857D02*
X34334476Y-56749952D01*
X34372571Y-56788047D01*
X34410666Y-56864238D01*
X34410666Y-56978523D01*
X34372571Y-57054714D01*
X34334476Y-57092809D01*
X34258285Y-57130904D01*
X33953523Y-57130904D01*
X33953523Y-56330904D01*
X34220190Y-56330904D01*
X34296380Y-56369000D01*
X34334476Y-56407095D01*
X34372571Y-56483285D01*
X34372571Y-56559476D01*
X34334476Y-56635666D01*
X34296380Y-56673761D01*
X34220190Y-56711857D01*
X33953523Y-56711857D01*
X35134476Y-56330904D02*
X34753523Y-56330904D01*
X34715428Y-56711857D01*
X34753523Y-56673761D01*
X34829714Y-56635666D01*
X35020190Y-56635666D01*
X35096380Y-56673761D01*
X35134476Y-56711857D01*
X35172571Y-56788047D01*
X35172571Y-56978523D01*
X35134476Y-57054714D01*
X35096380Y-57092809D01*
X35020190Y-57130904D01*
X34829714Y-57130904D01*
X34753523Y-57092809D01*
X34715428Y-57054714D01*
X45142190Y-56711857D02*
X45256476Y-56749952D01*
X45294571Y-56788047D01*
X45332666Y-56864238D01*
X45332666Y-56978523D01*
X45294571Y-57054714D01*
X45256476Y-57092809D01*
X45180285Y-57130904D01*
X44875523Y-57130904D01*
X44875523Y-56330904D01*
X45142190Y-56330904D01*
X45218380Y-56369000D01*
X45256476Y-56407095D01*
X45294571Y-56483285D01*
X45294571Y-56559476D01*
X45256476Y-56635666D01*
X45218380Y-56673761D01*
X45142190Y-56711857D01*
X44875523Y-56711857D01*
X46018380Y-56330904D02*
X45866000Y-56330904D01*
X45789809Y-56369000D01*
X45751714Y-56407095D01*
X45675523Y-56521380D01*
X45637428Y-56673761D01*
X45637428Y-56978523D01*
X45675523Y-57054714D01*
X45713619Y-57092809D01*
X45789809Y-57130904D01*
X45942190Y-57130904D01*
X46018380Y-57092809D01*
X46056476Y-57054714D01*
X46094571Y-56978523D01*
X46094571Y-56788047D01*
X46056476Y-56711857D01*
X46018380Y-56673761D01*
X45942190Y-56635666D01*
X45789809Y-56635666D01*
X45713619Y-56673761D01*
X45675523Y-56711857D01*
X45637428Y-56788047D01*
X45142190Y-51631857D02*
X45256476Y-51669952D01*
X45294571Y-51708047D01*
X45332666Y-51784238D01*
X45332666Y-51898523D01*
X45294571Y-51974714D01*
X45256476Y-52012809D01*
X45180285Y-52050904D01*
X44875523Y-52050904D01*
X44875523Y-51250904D01*
X45142190Y-51250904D01*
X45218380Y-51289000D01*
X45256476Y-51327095D01*
X45294571Y-51403285D01*
X45294571Y-51479476D01*
X45256476Y-51555666D01*
X45218380Y-51593761D01*
X45142190Y-51631857D01*
X44875523Y-51631857D01*
X45599333Y-51250904D02*
X46094571Y-51250904D01*
X45827904Y-51555666D01*
X45942190Y-51555666D01*
X46018380Y-51593761D01*
X46056476Y-51631857D01*
X46094571Y-51708047D01*
X46094571Y-51898523D01*
X46056476Y-51974714D01*
X46018380Y-52012809D01*
X45942190Y-52050904D01*
X45713619Y-52050904D01*
X45637428Y-52012809D01*
X45599333Y-51974714D01*
X45142190Y-49091857D02*
X45256476Y-49129952D01*
X45294571Y-49168047D01*
X45332666Y-49244238D01*
X45332666Y-49358523D01*
X45294571Y-49434714D01*
X45256476Y-49472809D01*
X45180285Y-49510904D01*
X44875523Y-49510904D01*
X44875523Y-48710904D01*
X45142190Y-48710904D01*
X45218380Y-48749000D01*
X45256476Y-48787095D01*
X45294571Y-48863285D01*
X45294571Y-48939476D01*
X45256476Y-49015666D01*
X45218380Y-49053761D01*
X45142190Y-49091857D01*
X44875523Y-49091857D01*
X46094571Y-49510904D02*
X45637428Y-49510904D01*
X45866000Y-49510904D02*
X45866000Y-48710904D01*
X45789809Y-48825190D01*
X45713619Y-48901380D01*
X45637428Y-48939476D01*
X45199333Y-38931857D02*
X44932666Y-38931857D01*
X44932666Y-39350904D02*
X44932666Y-38550904D01*
X45313619Y-38550904D01*
X45961238Y-38817571D02*
X45961238Y-39350904D01*
X45770761Y-38512809D02*
X45580285Y-39084238D01*
X46075523Y-39084238D01*
X44399333Y-36010904D02*
X44666000Y-36810904D01*
X44932666Y-36010904D01*
X45656476Y-36734714D02*
X45618380Y-36772809D01*
X45504095Y-36810904D01*
X45427904Y-36810904D01*
X45313619Y-36772809D01*
X45237428Y-36696619D01*
X45199333Y-36620428D01*
X45161238Y-36468047D01*
X45161238Y-36353761D01*
X45199333Y-36201380D01*
X45237428Y-36125190D01*
X45313619Y-36049000D01*
X45427904Y-36010904D01*
X45504095Y-36010904D01*
X45618380Y-36049000D01*
X45656476Y-36087095D01*
X46456476Y-36734714D02*
X46418380Y-36772809D01*
X46304095Y-36810904D01*
X46227904Y-36810904D01*
X46113619Y-36772809D01*
X46037428Y-36696619D01*
X45999333Y-36620428D01*
X45961238Y-36468047D01*
X45961238Y-36353761D01*
X45999333Y-36201380D01*
X46037428Y-36125190D01*
X46113619Y-36049000D01*
X46227904Y-36010904D01*
X46304095Y-36010904D01*
X46418380Y-36049000D01*
X46456476Y-36087095D01*
X45204786Y-34202809D02*
X45319072Y-34240904D01*
X45509548Y-34240904D01*
X45585739Y-34202809D01*
X45623834Y-34164714D01*
X45661929Y-34088523D01*
X45661929Y-34012333D01*
X45623834Y-33936142D01*
X45585739Y-33898047D01*
X45509548Y-33859952D01*
X45357167Y-33821857D01*
X45280977Y-33783761D01*
X45242881Y-33745666D01*
X45204786Y-33669476D01*
X45204786Y-33593285D01*
X45242881Y-33517095D01*
X45280977Y-33479000D01*
X45357167Y-33440904D01*
X45547643Y-33440904D01*
X45661929Y-33479000D01*
X45890500Y-33440904D02*
X46347643Y-33440904D01*
X46119072Y-34240904D02*
X46119072Y-33440904D01*
X44856476Y-30969000D02*
X44780285Y-30930904D01*
X44666000Y-30930904D01*
X44551714Y-30969000D01*
X44475523Y-31045190D01*
X44437428Y-31121380D01*
X44399333Y-31273761D01*
X44399333Y-31388047D01*
X44437428Y-31540428D01*
X44475523Y-31616619D01*
X44551714Y-31692809D01*
X44666000Y-31730904D01*
X44742190Y-31730904D01*
X44856476Y-31692809D01*
X44894571Y-31654714D01*
X44894571Y-31388047D01*
X44742190Y-31388047D01*
X45237428Y-31730904D02*
X45237428Y-30930904D01*
X45694571Y-31730904D01*
X45694571Y-30930904D01*
X46075523Y-31730904D02*
X46075523Y-30930904D01*
X46266000Y-30930904D01*
X46380285Y-30969000D01*
X46456476Y-31045190D01*
X46494571Y-31121380D01*
X46532666Y-31273761D01*
X46532666Y-31388047D01*
X46494571Y-31540428D01*
X46456476Y-31616619D01*
X46380285Y-31692809D01*
X46266000Y-31730904D01*
X46075523Y-31730904D01*
X44913619Y-29190904D02*
X44646952Y-28809952D01*
X44456476Y-29190904D02*
X44456476Y-28390904D01*
X44761238Y-28390904D01*
X44837428Y-28429000D01*
X44875523Y-28467095D01*
X44913619Y-28543285D01*
X44913619Y-28657571D01*
X44875523Y-28733761D01*
X44837428Y-28771857D01*
X44761238Y-28809952D01*
X44456476Y-28809952D01*
X45218380Y-28962333D02*
X45599333Y-28962333D01*
X45142190Y-29190904D02*
X45408857Y-28390904D01*
X45675523Y-29190904D01*
X45866000Y-28390904D02*
X46056476Y-29190904D01*
X46208857Y-28619476D01*
X46361238Y-29190904D01*
X46551714Y-28390904D01*
X45199333Y-41471857D02*
X44932666Y-41471857D01*
X44932666Y-41890904D02*
X44932666Y-41090904D01*
X45313619Y-41090904D01*
X45999333Y-41090904D02*
X45618380Y-41090904D01*
X45580285Y-41471857D01*
X45618380Y-41433761D01*
X45694571Y-41395666D01*
X45885047Y-41395666D01*
X45961238Y-41433761D01*
X45999333Y-41471857D01*
X46037428Y-41548047D01*
X46037428Y-41738523D01*
X45999333Y-41814714D01*
X45961238Y-41852809D01*
X45885047Y-41890904D01*
X45694571Y-41890904D01*
X45618380Y-41852809D01*
X45580285Y-41814714D01*
X45199333Y-44011857D02*
X44932666Y-44011857D01*
X44932666Y-44430904D02*
X44932666Y-43630904D01*
X45313619Y-43630904D01*
X45961238Y-43630904D02*
X45808857Y-43630904D01*
X45732666Y-43669000D01*
X45694571Y-43707095D01*
X45618380Y-43821380D01*
X45580285Y-43973761D01*
X45580285Y-44278523D01*
X45618380Y-44354714D01*
X45656476Y-44392809D01*
X45732666Y-44430904D01*
X45885047Y-44430904D01*
X45961238Y-44392809D01*
X45999333Y-44354714D01*
X46037428Y-44278523D01*
X46037428Y-44088047D01*
X45999333Y-44011857D01*
X45961238Y-43973761D01*
X45885047Y-43935666D01*
X45732666Y-43935666D01*
X45656476Y-43973761D01*
X45618380Y-44011857D01*
X45580285Y-44088047D01*
X45199333Y-46551857D02*
X44932666Y-46551857D01*
X44932666Y-46970904D02*
X44932666Y-46170904D01*
X45313619Y-46170904D01*
X45542190Y-46170904D02*
X46075523Y-46170904D01*
X45732666Y-46970904D01*
X45142190Y-54171857D02*
X45256476Y-54209952D01*
X45294571Y-54248047D01*
X45332666Y-54324238D01*
X45332666Y-54438523D01*
X45294571Y-54514714D01*
X45256476Y-54552809D01*
X45180285Y-54590904D01*
X44875523Y-54590904D01*
X44875523Y-53790904D01*
X45142190Y-53790904D01*
X45218380Y-53829000D01*
X45256476Y-53867095D01*
X45294571Y-53943285D01*
X45294571Y-54019476D01*
X45256476Y-54095666D01*
X45218380Y-54133761D01*
X45142190Y-54171857D01*
X44875523Y-54171857D01*
X45637428Y-53867095D02*
X45675523Y-53829000D01*
X45751714Y-53790904D01*
X45942190Y-53790904D01*
X46018380Y-53829000D01*
X46056476Y-53867095D01*
X46094571Y-53943285D01*
X46094571Y-54019476D01*
X46056476Y-54133761D01*
X45599333Y-54590904D01*
X46094571Y-54590904D01*
G04 #@! TO.C,D11*
X94289714Y-43163380D02*
X94289714Y-42163380D01*
X94527809Y-42163380D01*
X94670666Y-42211000D01*
X94765904Y-42306238D01*
X94813523Y-42401476D01*
X94861142Y-42591952D01*
X94861142Y-42734809D01*
X94813523Y-42925285D01*
X94765904Y-43020523D01*
X94670666Y-43115761D01*
X94527809Y-43163380D01*
X94289714Y-43163380D01*
X95813523Y-43163380D02*
X95242095Y-43163380D01*
X95527809Y-43163380D02*
X95527809Y-42163380D01*
X95432571Y-42306238D01*
X95337333Y-42401476D01*
X95242095Y-42449095D01*
X96765904Y-43163380D02*
X96194476Y-43163380D01*
X96480190Y-43163380D02*
X96480190Y-42163380D01*
X96384952Y-42306238D01*
X96289714Y-42401476D01*
X96194476Y-42449095D01*
X91432095Y-43483380D02*
X91432095Y-42483380D01*
X92003523Y-43483380D02*
X91574952Y-42911952D01*
X92003523Y-42483380D02*
X91432095Y-43054809D01*
G04 #@! TO.C,D1*
X38250904Y-24367380D02*
X38250904Y-23367380D01*
X38489000Y-23367380D01*
X38631857Y-23415000D01*
X38727095Y-23510238D01*
X38774714Y-23605476D01*
X38822333Y-23795952D01*
X38822333Y-23938809D01*
X38774714Y-24129285D01*
X38727095Y-24224523D01*
X38631857Y-24319761D01*
X38489000Y-24367380D01*
X38250904Y-24367380D01*
X39774714Y-24367380D02*
X39203285Y-24367380D01*
X39489000Y-24367380D02*
X39489000Y-23367380D01*
X39393761Y-23510238D01*
X39298523Y-23605476D01*
X39203285Y-23653095D01*
X34917095Y-24687380D02*
X34917095Y-23687380D01*
X35488523Y-24687380D02*
X35059952Y-24115952D01*
X35488523Y-23687380D02*
X34917095Y-24258809D01*
G04 #@! TO.C,D2*
X37996904Y-42591880D02*
X37996904Y-41591880D01*
X38235000Y-41591880D01*
X38377857Y-41639500D01*
X38473095Y-41734738D01*
X38520714Y-41829976D01*
X38568333Y-42020452D01*
X38568333Y-42163309D01*
X38520714Y-42353785D01*
X38473095Y-42449023D01*
X38377857Y-42544261D01*
X38235000Y-42591880D01*
X37996904Y-42591880D01*
X38949285Y-41687119D02*
X38996904Y-41639500D01*
X39092142Y-41591880D01*
X39330238Y-41591880D01*
X39425476Y-41639500D01*
X39473095Y-41687119D01*
X39520714Y-41782357D01*
X39520714Y-41877595D01*
X39473095Y-42020452D01*
X38901666Y-42591880D01*
X39520714Y-42591880D01*
X34663095Y-42911880D02*
X34663095Y-41911880D01*
X35234523Y-42911880D02*
X34805952Y-42340452D01*
X35234523Y-41911880D02*
X34663095Y-42483309D01*
G04 #@! TO.C,D3*
X37996904Y-61959380D02*
X37996904Y-60959380D01*
X38235000Y-60959380D01*
X38377857Y-61007000D01*
X38473095Y-61102238D01*
X38520714Y-61197476D01*
X38568333Y-61387952D01*
X38568333Y-61530809D01*
X38520714Y-61721285D01*
X38473095Y-61816523D01*
X38377857Y-61911761D01*
X38235000Y-61959380D01*
X37996904Y-61959380D01*
X38901666Y-60959380D02*
X39520714Y-60959380D01*
X39187380Y-61340333D01*
X39330238Y-61340333D01*
X39425476Y-61387952D01*
X39473095Y-61435571D01*
X39520714Y-61530809D01*
X39520714Y-61768904D01*
X39473095Y-61864142D01*
X39425476Y-61911761D01*
X39330238Y-61959380D01*
X39044523Y-61959380D01*
X38949285Y-61911761D01*
X38901666Y-61864142D01*
X34663095Y-62279380D02*
X34663095Y-61279380D01*
X35234523Y-62279380D02*
X34805952Y-61707952D01*
X35234523Y-61279380D02*
X34663095Y-61850809D01*
G04 #@! TO.C,D4*
X56919904Y-24367380D02*
X56919904Y-23367380D01*
X57158000Y-23367380D01*
X57300857Y-23415000D01*
X57396095Y-23510238D01*
X57443714Y-23605476D01*
X57491333Y-23795952D01*
X57491333Y-23938809D01*
X57443714Y-24129285D01*
X57396095Y-24224523D01*
X57300857Y-24319761D01*
X57158000Y-24367380D01*
X56919904Y-24367380D01*
X58348476Y-23700714D02*
X58348476Y-24367380D01*
X58110380Y-23319761D02*
X57872285Y-24034047D01*
X58491333Y-24034047D01*
X53586095Y-24687380D02*
X53586095Y-23687380D01*
X54157523Y-24687380D02*
X53728952Y-24115952D01*
X54157523Y-23687380D02*
X53586095Y-24258809D01*
G04 #@! TO.C,D5*
X56919904Y-43163380D02*
X56919904Y-42163380D01*
X57158000Y-42163380D01*
X57300857Y-42211000D01*
X57396095Y-42306238D01*
X57443714Y-42401476D01*
X57491333Y-42591952D01*
X57491333Y-42734809D01*
X57443714Y-42925285D01*
X57396095Y-43020523D01*
X57300857Y-43115761D01*
X57158000Y-43163380D01*
X56919904Y-43163380D01*
X58396095Y-42163380D02*
X57919904Y-42163380D01*
X57872285Y-42639571D01*
X57919904Y-42591952D01*
X58015142Y-42544333D01*
X58253238Y-42544333D01*
X58348476Y-42591952D01*
X58396095Y-42639571D01*
X58443714Y-42734809D01*
X58443714Y-42972904D01*
X58396095Y-43068142D01*
X58348476Y-43115761D01*
X58253238Y-43163380D01*
X58015142Y-43163380D01*
X57919904Y-43115761D01*
X57872285Y-43068142D01*
X53586095Y-43483380D02*
X53586095Y-42483380D01*
X54157523Y-43483380D02*
X53728952Y-42911952D01*
X54157523Y-42483380D02*
X53586095Y-43054809D01*
G04 #@! TO.C,D6*
X56983404Y-61895880D02*
X56983404Y-60895880D01*
X57221500Y-60895880D01*
X57364357Y-60943500D01*
X57459595Y-61038738D01*
X57507214Y-61133976D01*
X57554833Y-61324452D01*
X57554833Y-61467309D01*
X57507214Y-61657785D01*
X57459595Y-61753023D01*
X57364357Y-61848261D01*
X57221500Y-61895880D01*
X56983404Y-61895880D01*
X58411976Y-60895880D02*
X58221500Y-60895880D01*
X58126261Y-60943500D01*
X58078642Y-60991119D01*
X57983404Y-61133976D01*
X57935785Y-61324452D01*
X57935785Y-61705404D01*
X57983404Y-61800642D01*
X58031023Y-61848261D01*
X58126261Y-61895880D01*
X58316738Y-61895880D01*
X58411976Y-61848261D01*
X58459595Y-61800642D01*
X58507214Y-61705404D01*
X58507214Y-61467309D01*
X58459595Y-61372071D01*
X58411976Y-61324452D01*
X58316738Y-61276833D01*
X58126261Y-61276833D01*
X58031023Y-61324452D01*
X57983404Y-61372071D01*
X57935785Y-61467309D01*
X53649595Y-62215880D02*
X53649595Y-61215880D01*
X54221023Y-62215880D02*
X53792452Y-61644452D01*
X54221023Y-61215880D02*
X53649595Y-61787309D01*
G04 #@! TO.C,D7*
X72159904Y-24176880D02*
X72159904Y-23176880D01*
X72398000Y-23176880D01*
X72540857Y-23224500D01*
X72636095Y-23319738D01*
X72683714Y-23414976D01*
X72731333Y-23605452D01*
X72731333Y-23748309D01*
X72683714Y-23938785D01*
X72636095Y-24034023D01*
X72540857Y-24129261D01*
X72398000Y-24176880D01*
X72159904Y-24176880D01*
X73064666Y-23176880D02*
X73731333Y-23176880D01*
X73302761Y-24176880D01*
X68826095Y-24496880D02*
X68826095Y-23496880D01*
X69397523Y-24496880D02*
X68968952Y-23925452D01*
X69397523Y-23496880D02*
X68826095Y-24068309D01*
G04 #@! TO.C,D8*
X75842904Y-43163380D02*
X75842904Y-42163380D01*
X76081000Y-42163380D01*
X76223857Y-42211000D01*
X76319095Y-42306238D01*
X76366714Y-42401476D01*
X76414333Y-42591952D01*
X76414333Y-42734809D01*
X76366714Y-42925285D01*
X76319095Y-43020523D01*
X76223857Y-43115761D01*
X76081000Y-43163380D01*
X75842904Y-43163380D01*
X76985761Y-42591952D02*
X76890523Y-42544333D01*
X76842904Y-42496714D01*
X76795285Y-42401476D01*
X76795285Y-42353857D01*
X76842904Y-42258619D01*
X76890523Y-42211000D01*
X76985761Y-42163380D01*
X77176238Y-42163380D01*
X77271476Y-42211000D01*
X77319095Y-42258619D01*
X77366714Y-42353857D01*
X77366714Y-42401476D01*
X77319095Y-42496714D01*
X77271476Y-42544333D01*
X77176238Y-42591952D01*
X76985761Y-42591952D01*
X76890523Y-42639571D01*
X76842904Y-42687190D01*
X76795285Y-42782428D01*
X76795285Y-42972904D01*
X76842904Y-43068142D01*
X76890523Y-43115761D01*
X76985761Y-43163380D01*
X77176238Y-43163380D01*
X77271476Y-43115761D01*
X77319095Y-43068142D01*
X77366714Y-42972904D01*
X77366714Y-42782428D01*
X77319095Y-42687190D01*
X77271476Y-42639571D01*
X77176238Y-42591952D01*
X72509095Y-43483380D02*
X72509095Y-42483380D01*
X73080523Y-43483380D02*
X72651952Y-42911952D01*
X73080523Y-42483380D02*
X72509095Y-43054809D01*
G04 #@! TO.C,D9*
X75842904Y-61959380D02*
X75842904Y-60959380D01*
X76081000Y-60959380D01*
X76223857Y-61007000D01*
X76319095Y-61102238D01*
X76366714Y-61197476D01*
X76414333Y-61387952D01*
X76414333Y-61530809D01*
X76366714Y-61721285D01*
X76319095Y-61816523D01*
X76223857Y-61911761D01*
X76081000Y-61959380D01*
X75842904Y-61959380D01*
X76890523Y-61959380D02*
X77081000Y-61959380D01*
X77176238Y-61911761D01*
X77223857Y-61864142D01*
X77319095Y-61721285D01*
X77366714Y-61530809D01*
X77366714Y-61149857D01*
X77319095Y-61054619D01*
X77271476Y-61007000D01*
X77176238Y-60959380D01*
X76985761Y-60959380D01*
X76890523Y-61007000D01*
X76842904Y-61054619D01*
X76795285Y-61149857D01*
X76795285Y-61387952D01*
X76842904Y-61483190D01*
X76890523Y-61530809D01*
X76985761Y-61578428D01*
X77176238Y-61578428D01*
X77271476Y-61530809D01*
X77319095Y-61483190D01*
X77366714Y-61387952D01*
X72509095Y-62279380D02*
X72509095Y-61279380D01*
X73080523Y-62279380D02*
X72651952Y-61707952D01*
X73080523Y-61279380D02*
X72509095Y-61850809D01*
G04 #@! TO.C,D10*
X94353214Y-24303880D02*
X94353214Y-23303880D01*
X94591309Y-23303880D01*
X94734166Y-23351500D01*
X94829404Y-23446738D01*
X94877023Y-23541976D01*
X94924642Y-23732452D01*
X94924642Y-23875309D01*
X94877023Y-24065785D01*
X94829404Y-24161023D01*
X94734166Y-24256261D01*
X94591309Y-24303880D01*
X94353214Y-24303880D01*
X95877023Y-24303880D02*
X95305595Y-24303880D01*
X95591309Y-24303880D02*
X95591309Y-23303880D01*
X95496071Y-23446738D01*
X95400833Y-23541976D01*
X95305595Y-23589595D01*
X96496071Y-23303880D02*
X96591309Y-23303880D01*
X96686547Y-23351500D01*
X96734166Y-23399119D01*
X96781785Y-23494357D01*
X96829404Y-23684833D01*
X96829404Y-23922928D01*
X96781785Y-24113404D01*
X96734166Y-24208642D01*
X96686547Y-24256261D01*
X96591309Y-24303880D01*
X96496071Y-24303880D01*
X96400833Y-24256261D01*
X96353214Y-24208642D01*
X96305595Y-24113404D01*
X96257976Y-23922928D01*
X96257976Y-23684833D01*
X96305595Y-23494357D01*
X96353214Y-23399119D01*
X96400833Y-23351500D01*
X96496071Y-23303880D01*
X91495595Y-24623880D02*
X91495595Y-23623880D01*
X92067023Y-24623880D02*
X91638452Y-24052452D01*
X92067023Y-23623880D02*
X91495595Y-24195309D01*
G04 #@! TO.C,D12*
X94353214Y-61959380D02*
X94353214Y-60959380D01*
X94591309Y-60959380D01*
X94734166Y-61007000D01*
X94829404Y-61102238D01*
X94877023Y-61197476D01*
X94924642Y-61387952D01*
X94924642Y-61530809D01*
X94877023Y-61721285D01*
X94829404Y-61816523D01*
X94734166Y-61911761D01*
X94591309Y-61959380D01*
X94353214Y-61959380D01*
X95877023Y-61959380D02*
X95305595Y-61959380D01*
X95591309Y-61959380D02*
X95591309Y-60959380D01*
X95496071Y-61102238D01*
X95400833Y-61197476D01*
X95305595Y-61245095D01*
X96257976Y-61054619D02*
X96305595Y-61007000D01*
X96400833Y-60959380D01*
X96638928Y-60959380D01*
X96734166Y-61007000D01*
X96781785Y-61054619D01*
X96829404Y-61149857D01*
X96829404Y-61245095D01*
X96781785Y-61387952D01*
X96210357Y-61959380D01*
X96829404Y-61959380D01*
X91495595Y-62279380D02*
X91495595Y-61279380D01*
X92067023Y-62279380D02*
X91638452Y-61707952D01*
X92067023Y-61279380D02*
X91495595Y-61850809D01*
G04 #@! TO.C,D13*
X32758214Y-25034380D02*
X32758214Y-24034380D01*
X32996309Y-24034380D01*
X33139166Y-24082000D01*
X33234404Y-24177238D01*
X33282023Y-24272476D01*
X33329642Y-24462952D01*
X33329642Y-24605809D01*
X33282023Y-24796285D01*
X33234404Y-24891523D01*
X33139166Y-24986761D01*
X32996309Y-25034380D01*
X32758214Y-25034380D01*
X34282023Y-25034380D02*
X33710595Y-25034380D01*
X33996309Y-25034380D02*
X33996309Y-24034380D01*
X33901071Y-24177238D01*
X33805833Y-24272476D01*
X33710595Y-24320095D01*
X34615357Y-24034380D02*
X35234404Y-24034380D01*
X34901071Y-24415333D01*
X35043928Y-24415333D01*
X35139166Y-24462952D01*
X35186785Y-24510571D01*
X35234404Y-24605809D01*
X35234404Y-24843904D01*
X35186785Y-24939142D01*
X35139166Y-24986761D01*
X35043928Y-25034380D01*
X34758214Y-25034380D01*
X34662976Y-24986761D01*
X34615357Y-24939142D01*
X38408214Y-23134380D02*
X37836785Y-23134380D01*
X38122500Y-23134380D02*
X38122500Y-22134380D01*
X38027261Y-22277238D01*
X37932023Y-22372476D01*
X37836785Y-22420095D01*
G04 #@! TO.C,D14*
X41902214Y-25034380D02*
X41902214Y-24034380D01*
X42140309Y-24034380D01*
X42283166Y-24082000D01*
X42378404Y-24177238D01*
X42426023Y-24272476D01*
X42473642Y-24462952D01*
X42473642Y-24605809D01*
X42426023Y-24796285D01*
X42378404Y-24891523D01*
X42283166Y-24986761D01*
X42140309Y-25034380D01*
X41902214Y-25034380D01*
X43426023Y-25034380D02*
X42854595Y-25034380D01*
X43140309Y-25034380D02*
X43140309Y-24034380D01*
X43045071Y-24177238D01*
X42949833Y-24272476D01*
X42854595Y-24320095D01*
X44283166Y-24367714D02*
X44283166Y-25034380D01*
X44045071Y-23986761D02*
X43806976Y-24701047D01*
X44426023Y-24701047D01*
X47552214Y-23134380D02*
X46980785Y-23134380D01*
X47266500Y-23134380D02*
X47266500Y-22134380D01*
X47171261Y-22277238D01*
X47076023Y-22372476D01*
X46980785Y-22420095D01*
G04 #@! TO.C,D15*
X50919214Y-25034380D02*
X50919214Y-24034380D01*
X51157309Y-24034380D01*
X51300166Y-24082000D01*
X51395404Y-24177238D01*
X51443023Y-24272476D01*
X51490642Y-24462952D01*
X51490642Y-24605809D01*
X51443023Y-24796285D01*
X51395404Y-24891523D01*
X51300166Y-24986761D01*
X51157309Y-25034380D01*
X50919214Y-25034380D01*
X52443023Y-25034380D02*
X51871595Y-25034380D01*
X52157309Y-25034380D02*
X52157309Y-24034380D01*
X52062071Y-24177238D01*
X51966833Y-24272476D01*
X51871595Y-24320095D01*
X53347785Y-24034380D02*
X52871595Y-24034380D01*
X52823976Y-24510571D01*
X52871595Y-24462952D01*
X52966833Y-24415333D01*
X53204928Y-24415333D01*
X53300166Y-24462952D01*
X53347785Y-24510571D01*
X53395404Y-24605809D01*
X53395404Y-24843904D01*
X53347785Y-24939142D01*
X53300166Y-24986761D01*
X53204928Y-25034380D01*
X52966833Y-25034380D01*
X52871595Y-24986761D01*
X52823976Y-24939142D01*
X56569214Y-23134380D02*
X55997785Y-23134380D01*
X56283500Y-23134380D02*
X56283500Y-22134380D01*
X56188261Y-22277238D01*
X56093023Y-22372476D01*
X55997785Y-22420095D01*
G04 #@! TO.C,D16*
X59999714Y-25097880D02*
X59999714Y-24097880D01*
X60237809Y-24097880D01*
X60380666Y-24145500D01*
X60475904Y-24240738D01*
X60523523Y-24335976D01*
X60571142Y-24526452D01*
X60571142Y-24669309D01*
X60523523Y-24859785D01*
X60475904Y-24955023D01*
X60380666Y-25050261D01*
X60237809Y-25097880D01*
X59999714Y-25097880D01*
X61523523Y-25097880D02*
X60952095Y-25097880D01*
X61237809Y-25097880D02*
X61237809Y-24097880D01*
X61142571Y-24240738D01*
X61047333Y-24335976D01*
X60952095Y-24383595D01*
X62380666Y-24097880D02*
X62190190Y-24097880D01*
X62094952Y-24145500D01*
X62047333Y-24193119D01*
X61952095Y-24335976D01*
X61904476Y-24526452D01*
X61904476Y-24907404D01*
X61952095Y-25002642D01*
X61999714Y-25050261D01*
X62094952Y-25097880D01*
X62285428Y-25097880D01*
X62380666Y-25050261D01*
X62428285Y-25002642D01*
X62475904Y-24907404D01*
X62475904Y-24669309D01*
X62428285Y-24574071D01*
X62380666Y-24526452D01*
X62285428Y-24478833D01*
X62094952Y-24478833D01*
X61999714Y-24526452D01*
X61952095Y-24574071D01*
X61904476Y-24669309D01*
X65649714Y-23197880D02*
X65078285Y-23197880D01*
X65364000Y-23197880D02*
X65364000Y-22197880D01*
X65268761Y-22340738D01*
X65173523Y-22435976D01*
X65078285Y-22483595D01*
G04 #@! TO.C,D17*
X74350714Y-25097880D02*
X74350714Y-24097880D01*
X74588809Y-24097880D01*
X74731666Y-24145500D01*
X74826904Y-24240738D01*
X74874523Y-24335976D01*
X74922142Y-24526452D01*
X74922142Y-24669309D01*
X74874523Y-24859785D01*
X74826904Y-24955023D01*
X74731666Y-25050261D01*
X74588809Y-25097880D01*
X74350714Y-25097880D01*
X75874523Y-25097880D02*
X75303095Y-25097880D01*
X75588809Y-25097880D02*
X75588809Y-24097880D01*
X75493571Y-24240738D01*
X75398333Y-24335976D01*
X75303095Y-24383595D01*
X76207857Y-24097880D02*
X76874523Y-24097880D01*
X76445952Y-25097880D01*
X80000714Y-23197880D02*
X79429285Y-23197880D01*
X79715000Y-23197880D02*
X79715000Y-22197880D01*
X79619761Y-22340738D01*
X79524523Y-22435976D01*
X79429285Y-22483595D01*
G04 #@! TO.C,D18*
X83431214Y-25097880D02*
X83431214Y-24097880D01*
X83669309Y-24097880D01*
X83812166Y-24145500D01*
X83907404Y-24240738D01*
X83955023Y-24335976D01*
X84002642Y-24526452D01*
X84002642Y-24669309D01*
X83955023Y-24859785D01*
X83907404Y-24955023D01*
X83812166Y-25050261D01*
X83669309Y-25097880D01*
X83431214Y-25097880D01*
X84955023Y-25097880D02*
X84383595Y-25097880D01*
X84669309Y-25097880D02*
X84669309Y-24097880D01*
X84574071Y-24240738D01*
X84478833Y-24335976D01*
X84383595Y-24383595D01*
X85526452Y-24526452D02*
X85431214Y-24478833D01*
X85383595Y-24431214D01*
X85335976Y-24335976D01*
X85335976Y-24288357D01*
X85383595Y-24193119D01*
X85431214Y-24145500D01*
X85526452Y-24097880D01*
X85716928Y-24097880D01*
X85812166Y-24145500D01*
X85859785Y-24193119D01*
X85907404Y-24288357D01*
X85907404Y-24335976D01*
X85859785Y-24431214D01*
X85812166Y-24478833D01*
X85716928Y-24526452D01*
X85526452Y-24526452D01*
X85431214Y-24574071D01*
X85383595Y-24621690D01*
X85335976Y-24716928D01*
X85335976Y-24907404D01*
X85383595Y-25002642D01*
X85431214Y-25050261D01*
X85526452Y-25097880D01*
X85716928Y-25097880D01*
X85812166Y-25050261D01*
X85859785Y-25002642D01*
X85907404Y-24907404D01*
X85907404Y-24716928D01*
X85859785Y-24621690D01*
X85812166Y-24574071D01*
X85716928Y-24526452D01*
X89081214Y-23197880D02*
X88509785Y-23197880D01*
X88795500Y-23197880D02*
X88795500Y-22197880D01*
X88700261Y-22340738D01*
X88605023Y-22435976D01*
X88509785Y-22483595D01*
G04 #@! TO.C,D19*
X92765714Y-25097880D02*
X92765714Y-24097880D01*
X93003809Y-24097880D01*
X93146666Y-24145500D01*
X93241904Y-24240738D01*
X93289523Y-24335976D01*
X93337142Y-24526452D01*
X93337142Y-24669309D01*
X93289523Y-24859785D01*
X93241904Y-24955023D01*
X93146666Y-25050261D01*
X93003809Y-25097880D01*
X92765714Y-25097880D01*
X94289523Y-25097880D02*
X93718095Y-25097880D01*
X94003809Y-25097880D02*
X94003809Y-24097880D01*
X93908571Y-24240738D01*
X93813333Y-24335976D01*
X93718095Y-24383595D01*
X94765714Y-25097880D02*
X94956190Y-25097880D01*
X95051428Y-25050261D01*
X95099047Y-25002642D01*
X95194285Y-24859785D01*
X95241904Y-24669309D01*
X95241904Y-24288357D01*
X95194285Y-24193119D01*
X95146666Y-24145500D01*
X95051428Y-24097880D01*
X94860952Y-24097880D01*
X94765714Y-24145500D01*
X94718095Y-24193119D01*
X94670476Y-24288357D01*
X94670476Y-24526452D01*
X94718095Y-24621690D01*
X94765714Y-24669309D01*
X94860952Y-24716928D01*
X95051428Y-24716928D01*
X95146666Y-24669309D01*
X95194285Y-24621690D01*
X95241904Y-24526452D01*
X98415714Y-23197880D02*
X97844285Y-23197880D01*
X98130000Y-23197880D02*
X98130000Y-22197880D01*
X98034761Y-22340738D01*
X97939523Y-22435976D01*
X97844285Y-22483595D01*
G04 #@! TD*
M02*
