G04 #@! TF.GenerationSoftware,KiCad,Pcbnew,(5.0.2)-1*
G04 #@! TF.CreationDate,2019-01-29T20:35:51-05:00*
G04 #@! TF.ProjectId,4x5macro,3478356d-6163-4726-9f2e-6b696361645f,rev?*
G04 #@! TF.SameCoordinates,Original*
G04 #@! TF.FileFunction,Soldermask,Top*
G04 #@! TF.FilePolarity,Negative*
%FSLAX46Y46*%
G04 Gerber Fmt 4.6, Leading zero omitted, Abs format (unit mm)*
G04 Created by KiCad (PCBNEW (5.0.2)-1) date 1/29/2019 8:35:51 PM*
%MOMM*%
%LPD*%
G01*
G04 APERTURE LIST*
%ADD10C,0.100000*%
G04 APERTURE END LIST*
D10*
G36*
X108666734Y-82459232D02*
X108876202Y-82545996D01*
X109064723Y-82671962D01*
X109225038Y-82832277D01*
X109351004Y-83020798D01*
X109437768Y-83230266D01*
X109482000Y-83452635D01*
X109482000Y-83679365D01*
X109437768Y-83901734D01*
X109351004Y-84111202D01*
X109225038Y-84299723D01*
X109064723Y-84460038D01*
X108876202Y-84586004D01*
X108666734Y-84672768D01*
X108444365Y-84717000D01*
X108217635Y-84717000D01*
X107995266Y-84672768D01*
X107785798Y-84586004D01*
X107597277Y-84460038D01*
X107436962Y-84299723D01*
X107310996Y-84111202D01*
X107224232Y-83901734D01*
X107180000Y-83679365D01*
X107180000Y-83452635D01*
X107224232Y-83230266D01*
X107310996Y-83020798D01*
X107436962Y-82832277D01*
X107597277Y-82671962D01*
X107785798Y-82545996D01*
X107995266Y-82459232D01*
X108217635Y-82415000D01*
X108444365Y-82415000D01*
X108666734Y-82459232D01*
X108666734Y-82459232D01*
G37*
G36*
X68534734Y-82459232D02*
X68744202Y-82545996D01*
X68932723Y-82671962D01*
X69093038Y-82832277D01*
X69219004Y-83020798D01*
X69305768Y-83230266D01*
X69350000Y-83452635D01*
X69350000Y-83679365D01*
X69305768Y-83901734D01*
X69219004Y-84111202D01*
X69093038Y-84299723D01*
X68932723Y-84460038D01*
X68744202Y-84586004D01*
X68534734Y-84672768D01*
X68312365Y-84717000D01*
X68085635Y-84717000D01*
X67863266Y-84672768D01*
X67653798Y-84586004D01*
X67465277Y-84460038D01*
X67304962Y-84299723D01*
X67178996Y-84111202D01*
X67092232Y-83901734D01*
X67048000Y-83679365D01*
X67048000Y-83452635D01*
X67092232Y-83230266D01*
X67178996Y-83020798D01*
X67304962Y-82832277D01*
X67465277Y-82671962D01*
X67653798Y-82545996D01*
X67863266Y-82459232D01*
X68085635Y-82415000D01*
X68312365Y-82415000D01*
X68534734Y-82459232D01*
X68534734Y-82459232D01*
G37*
G36*
X28402734Y-82395732D02*
X28612202Y-82482496D01*
X28800723Y-82608462D01*
X28961038Y-82768777D01*
X29087004Y-82957298D01*
X29173768Y-83166766D01*
X29218000Y-83389135D01*
X29218000Y-83615865D01*
X29173768Y-83838234D01*
X29087004Y-84047702D01*
X28961038Y-84236223D01*
X28800723Y-84396538D01*
X28612202Y-84522504D01*
X28402734Y-84609268D01*
X28180365Y-84653500D01*
X27953635Y-84653500D01*
X27731266Y-84609268D01*
X27521798Y-84522504D01*
X27333277Y-84396538D01*
X27172962Y-84236223D01*
X27046996Y-84047702D01*
X26960232Y-83838234D01*
X26916000Y-83615865D01*
X26916000Y-83389135D01*
X26960232Y-83166766D01*
X27046996Y-82957298D01*
X27172962Y-82768777D01*
X27333277Y-82608462D01*
X27521798Y-82482496D01*
X27731266Y-82395732D01*
X27953635Y-82351500D01*
X28180365Y-82351500D01*
X28402734Y-82395732D01*
X28402734Y-82395732D01*
G37*
G36*
X91713350Y-75747194D02*
X91812770Y-75788375D01*
X91902249Y-75848163D01*
X91978337Y-75924251D01*
X92038125Y-76013730D01*
X92079306Y-76113150D01*
X92100300Y-76218694D01*
X92100300Y-76326306D01*
X92079306Y-76431850D01*
X92038125Y-76531270D01*
X91978337Y-76620749D01*
X91902249Y-76696837D01*
X91812770Y-76756625D01*
X91713350Y-76797806D01*
X91607806Y-76818800D01*
X91500194Y-76818800D01*
X91394650Y-76797806D01*
X91295230Y-76756625D01*
X91205751Y-76696837D01*
X91129663Y-76620749D01*
X91069875Y-76531270D01*
X91028694Y-76431850D01*
X91007700Y-76326306D01*
X91007700Y-76218694D01*
X91028694Y-76113150D01*
X91069875Y-76013730D01*
X91129663Y-75924251D01*
X91205751Y-75848163D01*
X91295230Y-75788375D01*
X91394650Y-75747194D01*
X91500194Y-75726200D01*
X91607806Y-75726200D01*
X91713350Y-75747194D01*
X91713350Y-75747194D01*
G37*
G36*
X72599850Y-75683694D02*
X72699270Y-75724875D01*
X72788749Y-75784663D01*
X72864837Y-75860751D01*
X72924625Y-75950230D01*
X72965806Y-76049650D01*
X72986800Y-76155194D01*
X72986800Y-76262806D01*
X72965806Y-76368350D01*
X72924625Y-76467770D01*
X72864837Y-76557249D01*
X72788749Y-76633337D01*
X72788746Y-76633339D01*
X72699270Y-76693125D01*
X72599850Y-76734306D01*
X72494306Y-76755300D01*
X72386694Y-76755300D01*
X72281150Y-76734306D01*
X72181730Y-76693125D01*
X72092254Y-76633339D01*
X72092251Y-76633337D01*
X72016163Y-76557249D01*
X71956375Y-76467770D01*
X71915194Y-76368350D01*
X71894200Y-76262806D01*
X71894200Y-76155194D01*
X71915194Y-76049650D01*
X71956375Y-75950230D01*
X72016163Y-75860751D01*
X72092251Y-75784663D01*
X72181730Y-75724875D01*
X72281150Y-75683694D01*
X72386694Y-75662700D01*
X72494306Y-75662700D01*
X72599850Y-75683694D01*
X72599850Y-75683694D01*
G37*
G36*
X53549850Y-75683694D02*
X53649270Y-75724875D01*
X53738749Y-75784663D01*
X53814837Y-75860751D01*
X53874625Y-75950230D01*
X53915806Y-76049650D01*
X53936800Y-76155194D01*
X53936800Y-76262806D01*
X53915806Y-76368350D01*
X53874625Y-76467770D01*
X53814837Y-76557249D01*
X53738749Y-76633337D01*
X53738746Y-76633339D01*
X53649270Y-76693125D01*
X53549850Y-76734306D01*
X53444306Y-76755300D01*
X53336694Y-76755300D01*
X53231150Y-76734306D01*
X53131730Y-76693125D01*
X53042254Y-76633339D01*
X53042251Y-76633337D01*
X52966163Y-76557249D01*
X52906375Y-76467770D01*
X52865194Y-76368350D01*
X52844200Y-76262806D01*
X52844200Y-76155194D01*
X52865194Y-76049650D01*
X52906375Y-75950230D01*
X52966163Y-75860751D01*
X53042251Y-75784663D01*
X53131730Y-75724875D01*
X53231150Y-75683694D01*
X53336694Y-75662700D01*
X53444306Y-75662700D01*
X53549850Y-75683694D01*
X53549850Y-75683694D01*
G37*
G36*
X34563350Y-75683694D02*
X34662770Y-75724875D01*
X34752249Y-75784663D01*
X34828337Y-75860751D01*
X34888125Y-75950230D01*
X34929306Y-76049650D01*
X34950300Y-76155194D01*
X34950300Y-76262806D01*
X34929306Y-76368350D01*
X34888125Y-76467770D01*
X34828337Y-76557249D01*
X34752249Y-76633337D01*
X34752246Y-76633339D01*
X34662770Y-76693125D01*
X34563350Y-76734306D01*
X34457806Y-76755300D01*
X34350194Y-76755300D01*
X34244650Y-76734306D01*
X34145230Y-76693125D01*
X34055754Y-76633339D01*
X34055751Y-76633337D01*
X33979663Y-76557249D01*
X33919875Y-76467770D01*
X33878694Y-76368350D01*
X33857700Y-76262806D01*
X33857700Y-76155194D01*
X33878694Y-76049650D01*
X33919875Y-75950230D01*
X33979663Y-75860751D01*
X34055751Y-75784663D01*
X34145230Y-75724875D01*
X34244650Y-75683694D01*
X34350194Y-75662700D01*
X34457806Y-75662700D01*
X34563350Y-75683694D01*
X34563350Y-75683694D01*
G37*
G36*
X97288976Y-70374847D02*
X97610276Y-70507934D01*
X97610278Y-70507935D01*
X97895594Y-70698577D01*
X97899443Y-70701149D01*
X98145351Y-70947057D01*
X98145353Y-70947060D01*
X98296136Y-71172722D01*
X98338566Y-71236224D01*
X98471653Y-71557524D01*
X98539500Y-71898612D01*
X98539500Y-72246388D01*
X98471653Y-72587476D01*
X98364868Y-72845278D01*
X98338565Y-72908778D01*
X98187782Y-73134440D01*
X98145351Y-73197943D01*
X97899443Y-73443851D01*
X97899440Y-73443853D01*
X97610278Y-73637065D01*
X97610277Y-73637066D01*
X97610276Y-73637066D01*
X97288976Y-73770153D01*
X96947888Y-73838000D01*
X96600112Y-73838000D01*
X96259024Y-73770153D01*
X95937724Y-73637066D01*
X95937723Y-73637066D01*
X95937722Y-73637065D01*
X95648560Y-73443853D01*
X95648557Y-73443851D01*
X95402649Y-73197943D01*
X95360218Y-73134440D01*
X95209435Y-72908778D01*
X95183132Y-72845278D01*
X95076347Y-72587476D01*
X95008500Y-72246388D01*
X95008500Y-71898612D01*
X95076347Y-71557524D01*
X95209434Y-71236224D01*
X95251865Y-71172722D01*
X95402647Y-70947060D01*
X95402649Y-70947057D01*
X95648557Y-70701149D01*
X95652406Y-70698577D01*
X95937722Y-70507935D01*
X95937724Y-70507934D01*
X96259024Y-70374847D01*
X96600112Y-70307000D01*
X96947888Y-70307000D01*
X97288976Y-70374847D01*
X97288976Y-70374847D01*
G37*
G36*
X78175476Y-70311347D02*
X78496776Y-70444434D01*
X78496778Y-70444435D01*
X78591811Y-70507934D01*
X78785943Y-70637649D01*
X79031851Y-70883557D01*
X79031853Y-70883560D01*
X79181218Y-71107100D01*
X79225066Y-71172724D01*
X79358153Y-71494024D01*
X79426000Y-71835112D01*
X79426000Y-72182888D01*
X79358153Y-72523976D01*
X79254983Y-72773050D01*
X79225065Y-72845278D01*
X79161947Y-72939741D01*
X79031851Y-73134443D01*
X78785943Y-73380351D01*
X78785940Y-73380353D01*
X78496778Y-73573565D01*
X78496777Y-73573566D01*
X78496776Y-73573566D01*
X78175476Y-73706653D01*
X77834388Y-73774500D01*
X77486612Y-73774500D01*
X77145524Y-73706653D01*
X76824224Y-73573566D01*
X76824223Y-73573566D01*
X76824222Y-73573565D01*
X76535060Y-73380353D01*
X76535057Y-73380351D01*
X76289149Y-73134443D01*
X76159053Y-72939741D01*
X76095935Y-72845278D01*
X76066017Y-72773050D01*
X75962847Y-72523976D01*
X75895000Y-72182888D01*
X75895000Y-71835112D01*
X75962847Y-71494024D01*
X76095934Y-71172724D01*
X76139783Y-71107100D01*
X76289147Y-70883560D01*
X76289149Y-70883557D01*
X76535057Y-70637649D01*
X76729189Y-70507934D01*
X76824222Y-70444435D01*
X76824224Y-70444434D01*
X77145524Y-70311347D01*
X77486612Y-70243500D01*
X77834388Y-70243500D01*
X78175476Y-70311347D01*
X78175476Y-70311347D01*
G37*
G36*
X59125476Y-70311347D02*
X59446776Y-70444434D01*
X59446778Y-70444435D01*
X59541811Y-70507934D01*
X59735943Y-70637649D01*
X59981851Y-70883557D01*
X59981853Y-70883560D01*
X60131218Y-71107100D01*
X60175066Y-71172724D01*
X60308153Y-71494024D01*
X60376000Y-71835112D01*
X60376000Y-72182888D01*
X60308153Y-72523976D01*
X60204983Y-72773050D01*
X60175065Y-72845278D01*
X60111947Y-72939741D01*
X59981851Y-73134443D01*
X59735943Y-73380351D01*
X59735940Y-73380353D01*
X59446778Y-73573565D01*
X59446777Y-73573566D01*
X59446776Y-73573566D01*
X59125476Y-73706653D01*
X58784388Y-73774500D01*
X58436612Y-73774500D01*
X58095524Y-73706653D01*
X57774224Y-73573566D01*
X57774223Y-73573566D01*
X57774222Y-73573565D01*
X57485060Y-73380353D01*
X57485057Y-73380351D01*
X57239149Y-73134443D01*
X57109053Y-72939741D01*
X57045935Y-72845278D01*
X57016017Y-72773050D01*
X56912847Y-72523976D01*
X56845000Y-72182888D01*
X56845000Y-71835112D01*
X56912847Y-71494024D01*
X57045934Y-71172724D01*
X57089783Y-71107100D01*
X57239147Y-70883560D01*
X57239149Y-70883557D01*
X57485057Y-70637649D01*
X57679189Y-70507934D01*
X57774222Y-70444435D01*
X57774224Y-70444434D01*
X58095524Y-70311347D01*
X58436612Y-70243500D01*
X58784388Y-70243500D01*
X59125476Y-70311347D01*
X59125476Y-70311347D01*
G37*
G36*
X40138976Y-70311347D02*
X40460276Y-70444434D01*
X40460278Y-70444435D01*
X40555311Y-70507934D01*
X40749443Y-70637649D01*
X40995351Y-70883557D01*
X40995353Y-70883560D01*
X41144718Y-71107100D01*
X41188566Y-71172724D01*
X41321653Y-71494024D01*
X41389500Y-71835112D01*
X41389500Y-72182888D01*
X41321653Y-72523976D01*
X41218483Y-72773050D01*
X41188565Y-72845278D01*
X41125447Y-72939741D01*
X40995351Y-73134443D01*
X40749443Y-73380351D01*
X40749440Y-73380353D01*
X40460278Y-73573565D01*
X40460277Y-73573566D01*
X40460276Y-73573566D01*
X40138976Y-73706653D01*
X39797888Y-73774500D01*
X39450112Y-73774500D01*
X39109024Y-73706653D01*
X38787724Y-73573566D01*
X38787723Y-73573566D01*
X38787722Y-73573565D01*
X38498560Y-73380353D01*
X38498557Y-73380351D01*
X38252649Y-73134443D01*
X38122553Y-72939741D01*
X38059435Y-72845278D01*
X38029517Y-72773050D01*
X37926347Y-72523976D01*
X37858500Y-72182888D01*
X37858500Y-71835112D01*
X37926347Y-71494024D01*
X38059434Y-71172724D01*
X38103283Y-71107100D01*
X38252647Y-70883560D01*
X38252649Y-70883557D01*
X38498557Y-70637649D01*
X38692689Y-70507934D01*
X38787722Y-70444435D01*
X38787724Y-70444434D01*
X39109024Y-70311347D01*
X39450112Y-70243500D01*
X39797888Y-70243500D01*
X40138976Y-70311347D01*
X40138976Y-70311347D01*
G37*
G36*
X91478993Y-71193706D02*
X91537075Y-71205259D01*
X91585149Y-71225172D01*
X91701210Y-71273246D01*
X91848931Y-71371950D01*
X91974550Y-71497569D01*
X92073254Y-71645290D01*
X92121328Y-71761351D01*
X92141241Y-71809425D01*
X92152794Y-71867507D01*
X92175900Y-71983669D01*
X92175900Y-72161331D01*
X92141241Y-72335574D01*
X92073254Y-72499710D01*
X91974550Y-72647431D01*
X91848931Y-72773050D01*
X91701210Y-72871754D01*
X91585149Y-72919828D01*
X91537075Y-72939741D01*
X91478993Y-72951294D01*
X91362831Y-72974400D01*
X91185169Y-72974400D01*
X91069007Y-72951294D01*
X91010925Y-72939741D01*
X90962851Y-72919828D01*
X90846790Y-72871754D01*
X90699069Y-72773050D01*
X90573450Y-72647431D01*
X90474746Y-72499710D01*
X90406759Y-72335574D01*
X90372100Y-72161331D01*
X90372100Y-71983669D01*
X90395206Y-71867507D01*
X90406759Y-71809425D01*
X90426672Y-71761351D01*
X90474746Y-71645290D01*
X90573450Y-71497569D01*
X90699069Y-71371950D01*
X90846790Y-71273246D01*
X90962851Y-71225172D01*
X91010925Y-71205259D01*
X91069007Y-71193706D01*
X91185169Y-71170600D01*
X91362831Y-71170600D01*
X91478993Y-71193706D01*
X91478993Y-71193706D01*
G37*
G36*
X102478993Y-71193706D02*
X102537075Y-71205259D01*
X102585149Y-71225172D01*
X102701210Y-71273246D01*
X102848931Y-71371950D01*
X102974550Y-71497569D01*
X103073254Y-71645290D01*
X103121328Y-71761351D01*
X103141241Y-71809425D01*
X103152794Y-71867507D01*
X103175900Y-71983669D01*
X103175900Y-72161331D01*
X103141241Y-72335574D01*
X103073254Y-72499710D01*
X102974550Y-72647431D01*
X102848931Y-72773050D01*
X102701210Y-72871754D01*
X102585149Y-72919828D01*
X102537075Y-72939741D01*
X102478993Y-72951294D01*
X102362831Y-72974400D01*
X102185169Y-72974400D01*
X102069007Y-72951294D01*
X102010925Y-72939741D01*
X101962851Y-72919828D01*
X101846790Y-72871754D01*
X101699069Y-72773050D01*
X101573450Y-72647431D01*
X101474746Y-72499710D01*
X101406759Y-72335574D01*
X101372100Y-72161331D01*
X101372100Y-71983669D01*
X101395206Y-71867507D01*
X101406759Y-71809425D01*
X101426672Y-71761351D01*
X101474746Y-71645290D01*
X101573450Y-71497569D01*
X101699069Y-71371950D01*
X101846790Y-71273246D01*
X101962851Y-71225172D01*
X102010925Y-71205259D01*
X102069007Y-71193706D01*
X102185169Y-71170600D01*
X102362831Y-71170600D01*
X102478993Y-71193706D01*
X102478993Y-71193706D01*
G37*
G36*
X83365493Y-71130206D02*
X83423575Y-71141759D01*
X83471649Y-71161672D01*
X83587710Y-71209746D01*
X83735431Y-71308450D01*
X83861050Y-71434069D01*
X83959754Y-71581790D01*
X83986056Y-71645290D01*
X84027741Y-71745925D01*
X84062400Y-71920171D01*
X84062400Y-72097829D01*
X84032851Y-72246387D01*
X84027741Y-72272074D01*
X83959754Y-72436210D01*
X83861050Y-72583931D01*
X83735431Y-72709550D01*
X83587710Y-72808254D01*
X83471649Y-72856328D01*
X83423575Y-72876241D01*
X83365493Y-72887794D01*
X83249331Y-72910900D01*
X83071669Y-72910900D01*
X82955507Y-72887794D01*
X82897425Y-72876241D01*
X82849351Y-72856328D01*
X82733290Y-72808254D01*
X82585569Y-72709550D01*
X82459950Y-72583931D01*
X82361246Y-72436210D01*
X82293259Y-72272074D01*
X82288150Y-72246387D01*
X82258600Y-72097829D01*
X82258600Y-71920171D01*
X82293259Y-71745925D01*
X82334944Y-71645290D01*
X82361246Y-71581790D01*
X82459950Y-71434069D01*
X82585569Y-71308450D01*
X82733290Y-71209746D01*
X82849351Y-71161672D01*
X82897425Y-71141759D01*
X82955507Y-71130206D01*
X83071669Y-71107100D01*
X83249331Y-71107100D01*
X83365493Y-71130206D01*
X83365493Y-71130206D01*
G37*
G36*
X34328993Y-71130206D02*
X34387075Y-71141759D01*
X34435149Y-71161672D01*
X34551210Y-71209746D01*
X34698931Y-71308450D01*
X34824550Y-71434069D01*
X34923254Y-71581790D01*
X34949556Y-71645290D01*
X34991241Y-71745925D01*
X35025900Y-71920171D01*
X35025900Y-72097829D01*
X34996351Y-72246387D01*
X34991241Y-72272074D01*
X34923254Y-72436210D01*
X34824550Y-72583931D01*
X34698931Y-72709550D01*
X34551210Y-72808254D01*
X34435149Y-72856328D01*
X34387075Y-72876241D01*
X34328993Y-72887794D01*
X34212831Y-72910900D01*
X34035169Y-72910900D01*
X33919007Y-72887794D01*
X33860925Y-72876241D01*
X33812851Y-72856328D01*
X33696790Y-72808254D01*
X33549069Y-72709550D01*
X33423450Y-72583931D01*
X33324746Y-72436210D01*
X33256759Y-72272074D01*
X33251650Y-72246387D01*
X33222100Y-72097829D01*
X33222100Y-71920171D01*
X33256759Y-71745925D01*
X33298444Y-71645290D01*
X33324746Y-71581790D01*
X33423450Y-71434069D01*
X33549069Y-71308450D01*
X33696790Y-71209746D01*
X33812851Y-71161672D01*
X33860925Y-71141759D01*
X33919007Y-71130206D01*
X34035169Y-71107100D01*
X34212831Y-71107100D01*
X34328993Y-71130206D01*
X34328993Y-71130206D01*
G37*
G36*
X45328993Y-71130206D02*
X45387075Y-71141759D01*
X45435149Y-71161672D01*
X45551210Y-71209746D01*
X45698931Y-71308450D01*
X45824550Y-71434069D01*
X45923254Y-71581790D01*
X45949556Y-71645290D01*
X45991241Y-71745925D01*
X46025900Y-71920171D01*
X46025900Y-72097829D01*
X45996351Y-72246387D01*
X45991241Y-72272074D01*
X45923254Y-72436210D01*
X45824550Y-72583931D01*
X45698931Y-72709550D01*
X45551210Y-72808254D01*
X45435149Y-72856328D01*
X45387075Y-72876241D01*
X45328993Y-72887794D01*
X45212831Y-72910900D01*
X45035169Y-72910900D01*
X44919007Y-72887794D01*
X44860925Y-72876241D01*
X44812851Y-72856328D01*
X44696790Y-72808254D01*
X44549069Y-72709550D01*
X44423450Y-72583931D01*
X44324746Y-72436210D01*
X44256759Y-72272074D01*
X44251650Y-72246387D01*
X44222100Y-72097829D01*
X44222100Y-71920171D01*
X44256759Y-71745925D01*
X44298444Y-71645290D01*
X44324746Y-71581790D01*
X44423450Y-71434069D01*
X44549069Y-71308450D01*
X44696790Y-71209746D01*
X44812851Y-71161672D01*
X44860925Y-71141759D01*
X44919007Y-71130206D01*
X45035169Y-71107100D01*
X45212831Y-71107100D01*
X45328993Y-71130206D01*
X45328993Y-71130206D01*
G37*
G36*
X53315493Y-71130206D02*
X53373575Y-71141759D01*
X53421649Y-71161672D01*
X53537710Y-71209746D01*
X53685431Y-71308450D01*
X53811050Y-71434069D01*
X53909754Y-71581790D01*
X53936056Y-71645290D01*
X53977741Y-71745925D01*
X54012400Y-71920171D01*
X54012400Y-72097829D01*
X53982851Y-72246387D01*
X53977741Y-72272074D01*
X53909754Y-72436210D01*
X53811050Y-72583931D01*
X53685431Y-72709550D01*
X53537710Y-72808254D01*
X53421649Y-72856328D01*
X53373575Y-72876241D01*
X53315493Y-72887794D01*
X53199331Y-72910900D01*
X53021669Y-72910900D01*
X52905507Y-72887794D01*
X52847425Y-72876241D01*
X52799351Y-72856328D01*
X52683290Y-72808254D01*
X52535569Y-72709550D01*
X52409950Y-72583931D01*
X52311246Y-72436210D01*
X52243259Y-72272074D01*
X52238150Y-72246387D01*
X52208600Y-72097829D01*
X52208600Y-71920171D01*
X52243259Y-71745925D01*
X52284944Y-71645290D01*
X52311246Y-71581790D01*
X52409950Y-71434069D01*
X52535569Y-71308450D01*
X52683290Y-71209746D01*
X52799351Y-71161672D01*
X52847425Y-71141759D01*
X52905507Y-71130206D01*
X53021669Y-71107100D01*
X53199331Y-71107100D01*
X53315493Y-71130206D01*
X53315493Y-71130206D01*
G37*
G36*
X64315493Y-71130206D02*
X64373575Y-71141759D01*
X64421649Y-71161672D01*
X64537710Y-71209746D01*
X64685431Y-71308450D01*
X64811050Y-71434069D01*
X64909754Y-71581790D01*
X64936056Y-71645290D01*
X64977741Y-71745925D01*
X65012400Y-71920171D01*
X65012400Y-72097829D01*
X64982851Y-72246387D01*
X64977741Y-72272074D01*
X64909754Y-72436210D01*
X64811050Y-72583931D01*
X64685431Y-72709550D01*
X64537710Y-72808254D01*
X64421649Y-72856328D01*
X64373575Y-72876241D01*
X64315493Y-72887794D01*
X64199331Y-72910900D01*
X64021669Y-72910900D01*
X63905507Y-72887794D01*
X63847425Y-72876241D01*
X63799351Y-72856328D01*
X63683290Y-72808254D01*
X63535569Y-72709550D01*
X63409950Y-72583931D01*
X63311246Y-72436210D01*
X63243259Y-72272074D01*
X63238150Y-72246387D01*
X63208600Y-72097829D01*
X63208600Y-71920171D01*
X63243259Y-71745925D01*
X63284944Y-71645290D01*
X63311246Y-71581790D01*
X63409950Y-71434069D01*
X63535569Y-71308450D01*
X63683290Y-71209746D01*
X63799351Y-71161672D01*
X63847425Y-71141759D01*
X63905507Y-71130206D01*
X64021669Y-71107100D01*
X64199331Y-71107100D01*
X64315493Y-71130206D01*
X64315493Y-71130206D01*
G37*
G36*
X72365493Y-71130206D02*
X72423575Y-71141759D01*
X72471649Y-71161672D01*
X72587710Y-71209746D01*
X72735431Y-71308450D01*
X72861050Y-71434069D01*
X72959754Y-71581790D01*
X72986056Y-71645290D01*
X73027741Y-71745925D01*
X73062400Y-71920171D01*
X73062400Y-72097829D01*
X73032851Y-72246387D01*
X73027741Y-72272074D01*
X72959754Y-72436210D01*
X72861050Y-72583931D01*
X72735431Y-72709550D01*
X72587710Y-72808254D01*
X72471649Y-72856328D01*
X72423575Y-72876241D01*
X72365493Y-72887794D01*
X72249331Y-72910900D01*
X72071669Y-72910900D01*
X71955507Y-72887794D01*
X71897425Y-72876241D01*
X71849351Y-72856328D01*
X71733290Y-72808254D01*
X71585569Y-72709550D01*
X71459950Y-72583931D01*
X71361246Y-72436210D01*
X71293259Y-72272074D01*
X71288150Y-72246387D01*
X71258600Y-72097829D01*
X71258600Y-71920171D01*
X71293259Y-71745925D01*
X71334944Y-71645290D01*
X71361246Y-71581790D01*
X71459950Y-71434069D01*
X71585569Y-71308450D01*
X71733290Y-71209746D01*
X71849351Y-71161672D01*
X71897425Y-71141759D01*
X71955507Y-71130206D01*
X72071669Y-71107100D01*
X72249331Y-71107100D01*
X72365493Y-71130206D01*
X72365493Y-71130206D01*
G37*
G36*
X102085231Y-67246503D02*
X102279415Y-67326937D01*
X102454176Y-67443709D01*
X102602791Y-67592324D01*
X102719563Y-67767085D01*
X102799997Y-67961269D01*
X102841000Y-68167408D01*
X102841000Y-68377592D01*
X102799997Y-68583731D01*
X102719563Y-68777915D01*
X102602791Y-68952676D01*
X102454176Y-69101291D01*
X102279415Y-69218063D01*
X102085231Y-69298497D01*
X101879092Y-69339500D01*
X101668908Y-69339500D01*
X101462769Y-69298497D01*
X101268585Y-69218063D01*
X101093824Y-69101291D01*
X100945209Y-68952676D01*
X100828437Y-68777915D01*
X100748003Y-68583731D01*
X100707000Y-68377592D01*
X100707000Y-68167408D01*
X100748003Y-67961269D01*
X100828437Y-67767085D01*
X100945209Y-67592324D01*
X101093824Y-67443709D01*
X101268585Y-67326937D01*
X101462769Y-67246503D01*
X101668908Y-67205500D01*
X101879092Y-67205500D01*
X102085231Y-67246503D01*
X102085231Y-67246503D01*
G37*
G36*
X63921731Y-67183003D02*
X64115915Y-67263437D01*
X64290676Y-67380209D01*
X64439291Y-67528824D01*
X64556063Y-67703585D01*
X64636497Y-67897769D01*
X64677500Y-68103908D01*
X64677500Y-68314092D01*
X64636497Y-68520231D01*
X64556063Y-68714415D01*
X64439291Y-68889176D01*
X64290676Y-69037791D01*
X64115915Y-69154563D01*
X63921731Y-69234997D01*
X63715592Y-69276000D01*
X63505408Y-69276000D01*
X63299269Y-69234997D01*
X63105085Y-69154563D01*
X62930324Y-69037791D01*
X62781709Y-68889176D01*
X62664937Y-68714415D01*
X62584503Y-68520231D01*
X62543500Y-68314092D01*
X62543500Y-68103908D01*
X62584503Y-67897769D01*
X62664937Y-67703585D01*
X62781709Y-67528824D01*
X62930324Y-67380209D01*
X63105085Y-67263437D01*
X63299269Y-67183003D01*
X63505408Y-67142000D01*
X63715592Y-67142000D01*
X63921731Y-67183003D01*
X63921731Y-67183003D01*
G37*
G36*
X44935231Y-67183003D02*
X45129415Y-67263437D01*
X45304176Y-67380209D01*
X45452791Y-67528824D01*
X45569563Y-67703585D01*
X45649997Y-67897769D01*
X45691000Y-68103908D01*
X45691000Y-68314092D01*
X45649997Y-68520231D01*
X45569563Y-68714415D01*
X45452791Y-68889176D01*
X45304176Y-69037791D01*
X45129415Y-69154563D01*
X44935231Y-69234997D01*
X44729092Y-69276000D01*
X44518908Y-69276000D01*
X44312769Y-69234997D01*
X44118585Y-69154563D01*
X43943824Y-69037791D01*
X43795209Y-68889176D01*
X43678437Y-68714415D01*
X43598003Y-68520231D01*
X43557000Y-68314092D01*
X43557000Y-68103908D01*
X43598003Y-67897769D01*
X43678437Y-67703585D01*
X43795209Y-67528824D01*
X43943824Y-67380209D01*
X44118585Y-67263437D01*
X44312769Y-67183003D01*
X44518908Y-67142000D01*
X44729092Y-67142000D01*
X44935231Y-67183003D01*
X44935231Y-67183003D01*
G37*
G36*
X82971731Y-67183003D02*
X83165915Y-67263437D01*
X83340676Y-67380209D01*
X83489291Y-67528824D01*
X83606063Y-67703585D01*
X83686497Y-67897769D01*
X83727500Y-68103908D01*
X83727500Y-68314092D01*
X83686497Y-68520231D01*
X83606063Y-68714415D01*
X83489291Y-68889176D01*
X83340676Y-69037791D01*
X83165915Y-69154563D01*
X82971731Y-69234997D01*
X82765592Y-69276000D01*
X82555408Y-69276000D01*
X82349269Y-69234997D01*
X82155085Y-69154563D01*
X81980324Y-69037791D01*
X81831709Y-68889176D01*
X81714937Y-68714415D01*
X81634503Y-68520231D01*
X81593500Y-68314092D01*
X81593500Y-68103908D01*
X81634503Y-67897769D01*
X81714937Y-67703585D01*
X81831709Y-67528824D01*
X81980324Y-67380209D01*
X82155085Y-67263437D01*
X82349269Y-67183003D01*
X82555408Y-67142000D01*
X82765592Y-67142000D01*
X82971731Y-67183003D01*
X82971731Y-67183003D01*
G37*
G36*
X97085231Y-65146503D02*
X97279415Y-65226937D01*
X97454176Y-65343709D01*
X97602791Y-65492324D01*
X97719563Y-65667085D01*
X97799997Y-65861269D01*
X97841000Y-66067408D01*
X97841000Y-66277592D01*
X97799997Y-66483731D01*
X97719563Y-66677915D01*
X97602791Y-66852676D01*
X97454176Y-67001291D01*
X97279415Y-67118063D01*
X97085231Y-67198497D01*
X96879092Y-67239500D01*
X96668908Y-67239500D01*
X96462769Y-67198497D01*
X96268585Y-67118063D01*
X96093824Y-67001291D01*
X95945209Y-66852676D01*
X95828437Y-66677915D01*
X95748003Y-66483731D01*
X95707000Y-66277592D01*
X95707000Y-66067408D01*
X95748003Y-65861269D01*
X95828437Y-65667085D01*
X95945209Y-65492324D01*
X96093824Y-65343709D01*
X96268585Y-65226937D01*
X96462769Y-65146503D01*
X96668908Y-65105500D01*
X96879092Y-65105500D01*
X97085231Y-65146503D01*
X97085231Y-65146503D01*
G37*
G36*
X77971731Y-65083003D02*
X78165915Y-65163437D01*
X78340676Y-65280209D01*
X78489291Y-65428824D01*
X78606063Y-65603585D01*
X78686497Y-65797769D01*
X78727500Y-66003908D01*
X78727500Y-66214092D01*
X78686497Y-66420231D01*
X78606063Y-66614415D01*
X78489291Y-66789176D01*
X78340676Y-66937791D01*
X78165915Y-67054563D01*
X77971731Y-67134997D01*
X77765592Y-67176000D01*
X77555408Y-67176000D01*
X77349269Y-67134997D01*
X77155085Y-67054563D01*
X76980324Y-66937791D01*
X76831709Y-66789176D01*
X76714937Y-66614415D01*
X76634503Y-66420231D01*
X76593500Y-66214092D01*
X76593500Y-66003908D01*
X76634503Y-65797769D01*
X76714937Y-65603585D01*
X76831709Y-65428824D01*
X76980324Y-65280209D01*
X77155085Y-65163437D01*
X77349269Y-65083003D01*
X77555408Y-65042000D01*
X77765592Y-65042000D01*
X77971731Y-65083003D01*
X77971731Y-65083003D01*
G37*
G36*
X39935231Y-65083003D02*
X40129415Y-65163437D01*
X40304176Y-65280209D01*
X40452791Y-65428824D01*
X40569563Y-65603585D01*
X40649997Y-65797769D01*
X40691000Y-66003908D01*
X40691000Y-66214092D01*
X40649997Y-66420231D01*
X40569563Y-66614415D01*
X40452791Y-66789176D01*
X40304176Y-66937791D01*
X40129415Y-67054563D01*
X39935231Y-67134997D01*
X39729092Y-67176000D01*
X39518908Y-67176000D01*
X39312769Y-67134997D01*
X39118585Y-67054563D01*
X38943824Y-66937791D01*
X38795209Y-66789176D01*
X38678437Y-66614415D01*
X38598003Y-66420231D01*
X38557000Y-66214092D01*
X38557000Y-66003908D01*
X38598003Y-65797769D01*
X38678437Y-65603585D01*
X38795209Y-65428824D01*
X38943824Y-65280209D01*
X39118585Y-65163437D01*
X39312769Y-65083003D01*
X39518908Y-65042000D01*
X39729092Y-65042000D01*
X39935231Y-65083003D01*
X39935231Y-65083003D01*
G37*
G36*
X58921731Y-65083003D02*
X59115915Y-65163437D01*
X59290676Y-65280209D01*
X59439291Y-65428824D01*
X59556063Y-65603585D01*
X59636497Y-65797769D01*
X59677500Y-66003908D01*
X59677500Y-66214092D01*
X59636497Y-66420231D01*
X59556063Y-66614415D01*
X59439291Y-66789176D01*
X59290676Y-66937791D01*
X59115915Y-67054563D01*
X58921731Y-67134997D01*
X58715592Y-67176000D01*
X58505408Y-67176000D01*
X58299269Y-67134997D01*
X58105085Y-67054563D01*
X57930324Y-66937791D01*
X57781709Y-66789176D01*
X57664937Y-66614415D01*
X57584503Y-66420231D01*
X57543500Y-66214092D01*
X57543500Y-66003908D01*
X57584503Y-65797769D01*
X57664937Y-65603585D01*
X57781709Y-65428824D01*
X57930324Y-65280209D01*
X58105085Y-65163437D01*
X58299269Y-65083003D01*
X58505408Y-65042000D01*
X58715592Y-65042000D01*
X58921731Y-65083003D01*
X58921731Y-65083003D01*
G37*
G36*
X92608500Y-64478000D02*
X90906500Y-64478000D01*
X90906500Y-62776000D01*
X92608500Y-62776000D01*
X92608500Y-64478000D01*
X92608500Y-64478000D01*
G37*
G36*
X99544321Y-62788313D02*
X99544324Y-62788314D01*
X99544325Y-62788314D01*
X99704739Y-62836975D01*
X99704741Y-62836976D01*
X99704744Y-62836977D01*
X99852578Y-62915995D01*
X99982159Y-63022341D01*
X100088505Y-63151922D01*
X100167523Y-63299756D01*
X100167524Y-63299759D01*
X100167525Y-63299761D01*
X100216186Y-63460175D01*
X100216187Y-63460179D01*
X100232617Y-63627000D01*
X100216187Y-63793821D01*
X100167523Y-63954244D01*
X100088505Y-64102078D01*
X99982159Y-64231659D01*
X99852578Y-64338005D01*
X99704744Y-64417023D01*
X99704741Y-64417024D01*
X99704739Y-64417025D01*
X99544325Y-64465686D01*
X99544324Y-64465686D01*
X99544321Y-64465687D01*
X99419304Y-64478000D01*
X99335696Y-64478000D01*
X99210679Y-64465687D01*
X99210676Y-64465686D01*
X99210675Y-64465686D01*
X99050261Y-64417025D01*
X99050259Y-64417024D01*
X99050256Y-64417023D01*
X98902422Y-64338005D01*
X98772841Y-64231659D01*
X98666495Y-64102078D01*
X98587477Y-63954244D01*
X98538813Y-63793821D01*
X98522383Y-63627000D01*
X98538813Y-63460179D01*
X98538814Y-63460175D01*
X98587475Y-63299761D01*
X98587476Y-63299759D01*
X98587477Y-63299756D01*
X98666495Y-63151922D01*
X98772841Y-63022341D01*
X98902422Y-62915995D01*
X99050256Y-62836977D01*
X99050259Y-62836976D01*
X99050261Y-62836975D01*
X99210675Y-62788314D01*
X99210676Y-62788314D01*
X99210679Y-62788313D01*
X99335696Y-62776000D01*
X99419304Y-62776000D01*
X99544321Y-62788313D01*
X99544321Y-62788313D01*
G37*
G36*
X73622000Y-64478000D02*
X71920000Y-64478000D01*
X71920000Y-62776000D01*
X73622000Y-62776000D01*
X73622000Y-64478000D01*
X73622000Y-64478000D01*
G37*
G36*
X80557821Y-62788313D02*
X80557824Y-62788314D01*
X80557825Y-62788314D01*
X80718239Y-62836975D01*
X80718241Y-62836976D01*
X80718244Y-62836977D01*
X80866078Y-62915995D01*
X80995659Y-63022341D01*
X81102005Y-63151922D01*
X81181023Y-63299756D01*
X81181024Y-63299759D01*
X81181025Y-63299761D01*
X81229686Y-63460175D01*
X81229687Y-63460179D01*
X81246117Y-63627000D01*
X81229687Y-63793821D01*
X81181023Y-63954244D01*
X81102005Y-64102078D01*
X80995659Y-64231659D01*
X80866078Y-64338005D01*
X80718244Y-64417023D01*
X80718241Y-64417024D01*
X80718239Y-64417025D01*
X80557825Y-64465686D01*
X80557824Y-64465686D01*
X80557821Y-64465687D01*
X80432804Y-64478000D01*
X80349196Y-64478000D01*
X80224179Y-64465687D01*
X80224176Y-64465686D01*
X80224175Y-64465686D01*
X80063761Y-64417025D01*
X80063759Y-64417024D01*
X80063756Y-64417023D01*
X79915922Y-64338005D01*
X79786341Y-64231659D01*
X79679995Y-64102078D01*
X79600977Y-63954244D01*
X79552313Y-63793821D01*
X79535883Y-63627000D01*
X79552313Y-63460179D01*
X79552314Y-63460175D01*
X79600975Y-63299761D01*
X79600976Y-63299759D01*
X79600977Y-63299756D01*
X79679995Y-63151922D01*
X79786341Y-63022341D01*
X79915922Y-62915995D01*
X80063756Y-62836977D01*
X80063759Y-62836976D01*
X80063761Y-62836975D01*
X80224175Y-62788314D01*
X80224176Y-62788314D01*
X80224179Y-62788313D01*
X80349196Y-62776000D01*
X80432804Y-62776000D01*
X80557821Y-62788313D01*
X80557821Y-62788313D01*
G37*
G36*
X35776000Y-64478000D02*
X34074000Y-64478000D01*
X34074000Y-62776000D01*
X35776000Y-62776000D01*
X35776000Y-64478000D01*
X35776000Y-64478000D01*
G37*
G36*
X42711821Y-62788313D02*
X42711824Y-62788314D01*
X42711825Y-62788314D01*
X42872239Y-62836975D01*
X42872241Y-62836976D01*
X42872244Y-62836977D01*
X43020078Y-62915995D01*
X43149659Y-63022341D01*
X43256005Y-63151922D01*
X43335023Y-63299756D01*
X43335024Y-63299759D01*
X43335025Y-63299761D01*
X43383686Y-63460175D01*
X43383687Y-63460179D01*
X43400117Y-63627000D01*
X43383687Y-63793821D01*
X43335023Y-63954244D01*
X43256005Y-64102078D01*
X43149659Y-64231659D01*
X43020078Y-64338005D01*
X42872244Y-64417023D01*
X42872241Y-64417024D01*
X42872239Y-64417025D01*
X42711825Y-64465686D01*
X42711824Y-64465686D01*
X42711821Y-64465687D01*
X42586804Y-64478000D01*
X42503196Y-64478000D01*
X42378179Y-64465687D01*
X42378176Y-64465686D01*
X42378175Y-64465686D01*
X42217761Y-64417025D01*
X42217759Y-64417024D01*
X42217756Y-64417023D01*
X42069922Y-64338005D01*
X41940341Y-64231659D01*
X41833995Y-64102078D01*
X41754977Y-63954244D01*
X41706313Y-63793821D01*
X41689883Y-63627000D01*
X41706313Y-63460179D01*
X41706314Y-63460175D01*
X41754975Y-63299761D01*
X41754976Y-63299759D01*
X41754977Y-63299756D01*
X41833995Y-63151922D01*
X41940341Y-63022341D01*
X42069922Y-62915995D01*
X42217756Y-62836977D01*
X42217759Y-62836976D01*
X42217761Y-62836975D01*
X42378175Y-62788314D01*
X42378176Y-62788314D01*
X42378179Y-62788313D01*
X42503196Y-62776000D01*
X42586804Y-62776000D01*
X42711821Y-62788313D01*
X42711821Y-62788313D01*
G37*
G36*
X54762500Y-64414500D02*
X53060500Y-64414500D01*
X53060500Y-62712500D01*
X54762500Y-62712500D01*
X54762500Y-64414500D01*
X54762500Y-64414500D01*
G37*
G36*
X61698321Y-62724813D02*
X61698324Y-62724814D01*
X61698325Y-62724814D01*
X61858739Y-62773475D01*
X61858741Y-62773476D01*
X61858744Y-62773477D01*
X62006578Y-62852495D01*
X62136159Y-62958841D01*
X62242505Y-63088422D01*
X62321523Y-63236256D01*
X62370187Y-63396679D01*
X62386617Y-63563500D01*
X62370187Y-63730321D01*
X62370186Y-63730324D01*
X62370186Y-63730325D01*
X62350924Y-63793825D01*
X62321523Y-63890744D01*
X62242505Y-64038578D01*
X62136159Y-64168159D01*
X62006578Y-64274505D01*
X61858744Y-64353523D01*
X61858741Y-64353524D01*
X61858739Y-64353525D01*
X61698325Y-64402186D01*
X61698324Y-64402186D01*
X61698321Y-64402187D01*
X61573304Y-64414500D01*
X61489696Y-64414500D01*
X61364679Y-64402187D01*
X61364676Y-64402186D01*
X61364675Y-64402186D01*
X61204261Y-64353525D01*
X61204259Y-64353524D01*
X61204256Y-64353523D01*
X61056422Y-64274505D01*
X60926841Y-64168159D01*
X60820495Y-64038578D01*
X60741477Y-63890744D01*
X60712077Y-63793825D01*
X60692814Y-63730325D01*
X60692814Y-63730324D01*
X60692813Y-63730321D01*
X60676383Y-63563500D01*
X60692813Y-63396679D01*
X60741477Y-63236256D01*
X60820495Y-63088422D01*
X60926841Y-62958841D01*
X61056422Y-62852495D01*
X61204256Y-62773477D01*
X61204259Y-62773476D01*
X61204261Y-62773475D01*
X61364675Y-62724814D01*
X61364676Y-62724814D01*
X61364679Y-62724813D01*
X61489696Y-62712500D01*
X61573304Y-62712500D01*
X61698321Y-62724813D01*
X61698321Y-62724813D01*
G37*
G36*
X91649850Y-56633694D02*
X91749270Y-56674875D01*
X91838749Y-56734663D01*
X91914837Y-56810751D01*
X91974625Y-56900230D01*
X92015806Y-56999650D01*
X92036800Y-57105194D01*
X92036800Y-57212806D01*
X92015806Y-57318350D01*
X91974625Y-57417770D01*
X91914837Y-57507249D01*
X91838749Y-57583337D01*
X91838746Y-57583339D01*
X91749270Y-57643125D01*
X91649850Y-57684306D01*
X91544306Y-57705300D01*
X91436694Y-57705300D01*
X91331150Y-57684306D01*
X91231730Y-57643125D01*
X91142254Y-57583339D01*
X91142251Y-57583337D01*
X91066163Y-57507249D01*
X91006375Y-57417770D01*
X90965194Y-57318350D01*
X90944200Y-57212806D01*
X90944200Y-57105194D01*
X90965194Y-56999650D01*
X91006375Y-56900230D01*
X91066163Y-56810751D01*
X91142251Y-56734663D01*
X91231730Y-56674875D01*
X91331150Y-56633694D01*
X91436694Y-56612700D01*
X91544306Y-56612700D01*
X91649850Y-56633694D01*
X91649850Y-56633694D01*
G37*
G36*
X53549850Y-56633694D02*
X53649270Y-56674875D01*
X53738749Y-56734663D01*
X53814837Y-56810751D01*
X53874625Y-56900230D01*
X53915806Y-56999650D01*
X53936800Y-57105194D01*
X53936800Y-57212806D01*
X53915806Y-57318350D01*
X53874625Y-57417770D01*
X53814837Y-57507249D01*
X53738749Y-57583337D01*
X53738746Y-57583339D01*
X53649270Y-57643125D01*
X53549850Y-57684306D01*
X53444306Y-57705300D01*
X53336694Y-57705300D01*
X53231150Y-57684306D01*
X53131730Y-57643125D01*
X53042254Y-57583339D01*
X53042251Y-57583337D01*
X52966163Y-57507249D01*
X52906375Y-57417770D01*
X52865194Y-57318350D01*
X52844200Y-57212806D01*
X52844200Y-57105194D01*
X52865194Y-56999650D01*
X52906375Y-56900230D01*
X52966163Y-56810751D01*
X53042251Y-56734663D01*
X53131730Y-56674875D01*
X53231150Y-56633694D01*
X53336694Y-56612700D01*
X53444306Y-56612700D01*
X53549850Y-56633694D01*
X53549850Y-56633694D01*
G37*
G36*
X72663350Y-56633694D02*
X72762770Y-56674875D01*
X72852249Y-56734663D01*
X72928337Y-56810751D01*
X72988125Y-56900230D01*
X73029306Y-56999650D01*
X73050300Y-57105194D01*
X73050300Y-57212806D01*
X73029306Y-57318350D01*
X72988125Y-57417770D01*
X72928337Y-57507249D01*
X72852249Y-57583337D01*
X72762770Y-57643125D01*
X72663350Y-57684306D01*
X72557806Y-57705300D01*
X72450194Y-57705300D01*
X72344650Y-57684306D01*
X72245230Y-57643125D01*
X72155751Y-57583337D01*
X72079663Y-57507249D01*
X72019875Y-57417770D01*
X71978694Y-57318350D01*
X71957700Y-57212806D01*
X71957700Y-57105194D01*
X71978694Y-56999650D01*
X72019875Y-56900230D01*
X72079663Y-56810751D01*
X72155751Y-56734663D01*
X72245230Y-56674875D01*
X72344650Y-56633694D01*
X72450194Y-56612700D01*
X72557806Y-56612700D01*
X72663350Y-56633694D01*
X72663350Y-56633694D01*
G37*
G36*
X34499850Y-56633694D02*
X34599270Y-56674875D01*
X34688749Y-56734663D01*
X34764837Y-56810751D01*
X34824625Y-56900230D01*
X34865806Y-56999650D01*
X34886800Y-57105194D01*
X34886800Y-57212806D01*
X34865806Y-57318350D01*
X34824625Y-57417770D01*
X34764837Y-57507249D01*
X34688749Y-57583337D01*
X34688746Y-57583339D01*
X34599270Y-57643125D01*
X34499850Y-57684306D01*
X34394306Y-57705300D01*
X34286694Y-57705300D01*
X34181150Y-57684306D01*
X34081730Y-57643125D01*
X33992254Y-57583339D01*
X33992251Y-57583337D01*
X33916163Y-57507249D01*
X33856375Y-57417770D01*
X33815194Y-57318350D01*
X33794200Y-57212806D01*
X33794200Y-57105194D01*
X33815194Y-56999650D01*
X33856375Y-56900230D01*
X33916163Y-56810751D01*
X33992251Y-56734663D01*
X34081730Y-56674875D01*
X34181150Y-56633694D01*
X34286694Y-56612700D01*
X34394306Y-56612700D01*
X34499850Y-56633694D01*
X34499850Y-56633694D01*
G37*
G36*
X47577307Y-55859518D02*
X47666883Y-55877335D01*
X47835641Y-55947237D01*
X47835642Y-55947238D01*
X47987522Y-56048721D01*
X48116679Y-56177878D01*
X48116681Y-56177881D01*
X48218163Y-56329759D01*
X48288065Y-56498517D01*
X48288065Y-56498519D01*
X48323145Y-56674875D01*
X48323700Y-56677669D01*
X48323700Y-56860331D01*
X48288065Y-57039483D01*
X48218163Y-57208241D01*
X48144590Y-57318350D01*
X48116679Y-57360122D01*
X47987522Y-57489279D01*
X47987519Y-57489281D01*
X47835641Y-57590763D01*
X47666883Y-57660665D01*
X47577307Y-57678482D01*
X47487733Y-57696300D01*
X47305067Y-57696300D01*
X47215493Y-57678482D01*
X47125917Y-57660665D01*
X46957159Y-57590763D01*
X46805281Y-57489281D01*
X46805278Y-57489279D01*
X46676121Y-57360122D01*
X46648210Y-57318350D01*
X46574637Y-57208241D01*
X46504735Y-57039483D01*
X46469100Y-56860331D01*
X46469100Y-56677669D01*
X46469656Y-56674875D01*
X46504735Y-56498519D01*
X46504735Y-56498517D01*
X46574637Y-56329759D01*
X46676119Y-56177881D01*
X46676121Y-56177878D01*
X46805278Y-56048721D01*
X46957158Y-55947238D01*
X46957159Y-55947237D01*
X47125917Y-55877335D01*
X47215493Y-55859518D01*
X47305067Y-55841700D01*
X47487733Y-55841700D01*
X47577307Y-55859518D01*
X47577307Y-55859518D01*
G37*
G36*
X32794507Y-55859518D02*
X32884083Y-55877335D01*
X33052841Y-55947237D01*
X33052842Y-55947238D01*
X33204722Y-56048721D01*
X33333879Y-56177878D01*
X33333881Y-56177881D01*
X33435363Y-56329759D01*
X33505265Y-56498517D01*
X33505265Y-56498519D01*
X33540345Y-56674875D01*
X33540900Y-56677669D01*
X33540900Y-56860331D01*
X33505265Y-57039483D01*
X33435363Y-57208241D01*
X33361790Y-57318350D01*
X33333879Y-57360122D01*
X33204722Y-57489279D01*
X33204719Y-57489281D01*
X33052841Y-57590763D01*
X32884083Y-57660665D01*
X32794507Y-57678482D01*
X32704933Y-57696300D01*
X32522267Y-57696300D01*
X32432693Y-57678482D01*
X32343117Y-57660665D01*
X32174359Y-57590763D01*
X32022481Y-57489281D01*
X32022478Y-57489279D01*
X31893321Y-57360122D01*
X31865410Y-57318350D01*
X31791837Y-57208241D01*
X31721935Y-57039483D01*
X31686300Y-56860331D01*
X31686300Y-56677669D01*
X31686856Y-56674875D01*
X31721935Y-56498519D01*
X31721935Y-56498517D01*
X31791837Y-56329759D01*
X31893319Y-56177881D01*
X31893321Y-56177878D01*
X32022478Y-56048721D01*
X32174358Y-55947238D01*
X32174359Y-55947237D01*
X32343117Y-55877335D01*
X32432693Y-55859518D01*
X32522267Y-55841700D01*
X32704933Y-55841700D01*
X32794507Y-55859518D01*
X32794507Y-55859518D01*
G37*
G36*
X48034507Y-53319517D02*
X48124083Y-53337335D01*
X48292841Y-53407237D01*
X48392724Y-53473977D01*
X48444722Y-53508721D01*
X48573879Y-53637878D01*
X48573881Y-53637881D01*
X48675363Y-53789759D01*
X48745265Y-53958517D01*
X48780900Y-54137669D01*
X48780900Y-54320331D01*
X48745265Y-54499483D01*
X48675363Y-54668241D01*
X48675362Y-54668242D01*
X48573879Y-54820122D01*
X48444722Y-54949279D01*
X48444719Y-54949281D01*
X48292841Y-55050763D01*
X48124083Y-55120665D01*
X48034507Y-55138482D01*
X47944933Y-55156300D01*
X47762267Y-55156300D01*
X47672693Y-55138482D01*
X47583117Y-55120665D01*
X47414359Y-55050763D01*
X47262481Y-54949281D01*
X47262478Y-54949279D01*
X47133321Y-54820122D01*
X47031838Y-54668242D01*
X47031837Y-54668241D01*
X46961935Y-54499483D01*
X46926300Y-54320331D01*
X46926300Y-54137669D01*
X46961935Y-53958517D01*
X47031837Y-53789759D01*
X47133319Y-53637881D01*
X47133321Y-53637878D01*
X47262478Y-53508721D01*
X47314476Y-53473977D01*
X47414359Y-53407237D01*
X47583117Y-53337335D01*
X47672693Y-53319517D01*
X47762267Y-53301700D01*
X47944933Y-53301700D01*
X48034507Y-53319517D01*
X48034507Y-53319517D01*
G37*
G36*
X32337307Y-53319517D02*
X32426883Y-53337335D01*
X32595641Y-53407237D01*
X32695524Y-53473977D01*
X32747522Y-53508721D01*
X32876679Y-53637878D01*
X32876681Y-53637881D01*
X32978163Y-53789759D01*
X33048065Y-53958517D01*
X33083700Y-54137669D01*
X33083700Y-54320331D01*
X33048065Y-54499483D01*
X32978163Y-54668241D01*
X32978162Y-54668242D01*
X32876679Y-54820122D01*
X32747522Y-54949279D01*
X32747519Y-54949281D01*
X32595641Y-55050763D01*
X32426883Y-55120665D01*
X32337307Y-55138482D01*
X32247733Y-55156300D01*
X32065067Y-55156300D01*
X31975493Y-55138482D01*
X31885917Y-55120665D01*
X31717159Y-55050763D01*
X31565281Y-54949281D01*
X31565278Y-54949279D01*
X31436121Y-54820122D01*
X31334638Y-54668242D01*
X31334637Y-54668241D01*
X31264735Y-54499483D01*
X31229100Y-54320331D01*
X31229100Y-54137669D01*
X31264735Y-53958517D01*
X31334637Y-53789759D01*
X31436119Y-53637881D01*
X31436121Y-53637878D01*
X31565278Y-53508721D01*
X31617276Y-53473977D01*
X31717159Y-53407237D01*
X31885917Y-53337335D01*
X31975493Y-53319517D01*
X32065067Y-53301700D01*
X32247733Y-53301700D01*
X32337307Y-53319517D01*
X32337307Y-53319517D01*
G37*
G36*
X97225476Y-51261347D02*
X97546776Y-51394434D01*
X97546778Y-51394435D01*
X97582819Y-51418517D01*
X97835943Y-51587649D01*
X98081851Y-51833557D01*
X98081853Y-51833560D01*
X98231218Y-52057100D01*
X98275066Y-52122724D01*
X98408153Y-52444024D01*
X98476000Y-52785112D01*
X98476000Y-53132888D01*
X98408153Y-53473976D01*
X98277351Y-53789759D01*
X98275065Y-53795278D01*
X98165992Y-53958517D01*
X98081851Y-54084443D01*
X97835943Y-54330351D01*
X97835940Y-54330353D01*
X97546778Y-54523565D01*
X97546777Y-54523566D01*
X97546776Y-54523566D01*
X97225476Y-54656653D01*
X96884388Y-54724500D01*
X96536612Y-54724500D01*
X96195524Y-54656653D01*
X95874224Y-54523566D01*
X95874223Y-54523566D01*
X95874222Y-54523565D01*
X95585060Y-54330353D01*
X95585057Y-54330351D01*
X95339149Y-54084443D01*
X95255008Y-53958517D01*
X95145935Y-53795278D01*
X95143649Y-53789759D01*
X95012847Y-53473976D01*
X94945000Y-53132888D01*
X94945000Y-52785112D01*
X95012847Y-52444024D01*
X95145934Y-52122724D01*
X95189783Y-52057100D01*
X95339147Y-51833560D01*
X95339149Y-51833557D01*
X95585057Y-51587649D01*
X95838181Y-51418517D01*
X95874222Y-51394435D01*
X95874224Y-51394434D01*
X96195524Y-51261347D01*
X96536612Y-51193500D01*
X96884388Y-51193500D01*
X97225476Y-51261347D01*
X97225476Y-51261347D01*
G37*
G36*
X40075476Y-51261347D02*
X40396776Y-51394434D01*
X40396778Y-51394435D01*
X40432819Y-51418517D01*
X40685943Y-51587649D01*
X40931851Y-51833557D01*
X40931853Y-51833560D01*
X41081218Y-52057100D01*
X41125066Y-52122724D01*
X41258153Y-52444024D01*
X41326000Y-52785112D01*
X41326000Y-53132888D01*
X41258153Y-53473976D01*
X41127351Y-53789759D01*
X41125065Y-53795278D01*
X41015992Y-53958517D01*
X40931851Y-54084443D01*
X40685943Y-54330351D01*
X40685940Y-54330353D01*
X40396778Y-54523565D01*
X40396777Y-54523566D01*
X40396776Y-54523566D01*
X40075476Y-54656653D01*
X39734388Y-54724500D01*
X39386612Y-54724500D01*
X39045524Y-54656653D01*
X38724224Y-54523566D01*
X38724223Y-54523566D01*
X38724222Y-54523565D01*
X38435060Y-54330353D01*
X38435057Y-54330351D01*
X38189149Y-54084443D01*
X38105008Y-53958517D01*
X37995935Y-53795278D01*
X37993649Y-53789759D01*
X37862847Y-53473976D01*
X37795000Y-53132888D01*
X37795000Y-52785112D01*
X37862847Y-52444024D01*
X37995934Y-52122724D01*
X38039783Y-52057100D01*
X38189147Y-51833560D01*
X38189149Y-51833557D01*
X38435057Y-51587649D01*
X38688181Y-51418517D01*
X38724222Y-51394435D01*
X38724224Y-51394434D01*
X39045524Y-51261347D01*
X39386612Y-51193500D01*
X39734388Y-51193500D01*
X40075476Y-51261347D01*
X40075476Y-51261347D01*
G37*
G36*
X78238976Y-51261347D02*
X78560276Y-51394434D01*
X78560278Y-51394435D01*
X78596319Y-51418517D01*
X78849443Y-51587649D01*
X79095351Y-51833557D01*
X79095353Y-51833560D01*
X79244718Y-52057100D01*
X79288566Y-52122724D01*
X79421653Y-52444024D01*
X79489500Y-52785112D01*
X79489500Y-53132888D01*
X79421653Y-53473976D01*
X79290851Y-53789759D01*
X79288565Y-53795278D01*
X79179492Y-53958517D01*
X79095351Y-54084443D01*
X78849443Y-54330351D01*
X78849440Y-54330353D01*
X78560278Y-54523565D01*
X78560277Y-54523566D01*
X78560276Y-54523566D01*
X78238976Y-54656653D01*
X77897888Y-54724500D01*
X77550112Y-54724500D01*
X77209024Y-54656653D01*
X76887724Y-54523566D01*
X76887723Y-54523566D01*
X76887722Y-54523565D01*
X76598560Y-54330353D01*
X76598557Y-54330351D01*
X76352649Y-54084443D01*
X76268508Y-53958517D01*
X76159435Y-53795278D01*
X76157149Y-53789759D01*
X76026347Y-53473976D01*
X75958500Y-53132888D01*
X75958500Y-52785112D01*
X76026347Y-52444024D01*
X76159434Y-52122724D01*
X76203283Y-52057100D01*
X76352647Y-51833560D01*
X76352649Y-51833557D01*
X76598557Y-51587649D01*
X76851681Y-51418517D01*
X76887722Y-51394435D01*
X76887724Y-51394434D01*
X77209024Y-51261347D01*
X77550112Y-51193500D01*
X77897888Y-51193500D01*
X78238976Y-51261347D01*
X78238976Y-51261347D01*
G37*
G36*
X59125476Y-51261347D02*
X59446776Y-51394434D01*
X59446778Y-51394435D01*
X59482819Y-51418517D01*
X59735943Y-51587649D01*
X59981851Y-51833557D01*
X59981853Y-51833560D01*
X60131218Y-52057100D01*
X60175066Y-52122724D01*
X60308153Y-52444024D01*
X60376000Y-52785112D01*
X60376000Y-53132888D01*
X60308153Y-53473976D01*
X60177351Y-53789759D01*
X60175065Y-53795278D01*
X60065992Y-53958517D01*
X59981851Y-54084443D01*
X59735943Y-54330351D01*
X59735940Y-54330353D01*
X59446778Y-54523565D01*
X59446777Y-54523566D01*
X59446776Y-54523566D01*
X59125476Y-54656653D01*
X58784388Y-54724500D01*
X58436612Y-54724500D01*
X58095524Y-54656653D01*
X57774224Y-54523566D01*
X57774223Y-54523566D01*
X57774222Y-54523565D01*
X57485060Y-54330353D01*
X57485057Y-54330351D01*
X57239149Y-54084443D01*
X57155008Y-53958517D01*
X57045935Y-53795278D01*
X57043649Y-53789759D01*
X56912847Y-53473976D01*
X56845000Y-53132888D01*
X56845000Y-52785112D01*
X56912847Y-52444024D01*
X57045934Y-52122724D01*
X57089783Y-52057100D01*
X57239147Y-51833560D01*
X57239149Y-51833557D01*
X57485057Y-51587649D01*
X57738181Y-51418517D01*
X57774222Y-51394435D01*
X57774224Y-51394434D01*
X58095524Y-51261347D01*
X58436612Y-51193500D01*
X58784388Y-51193500D01*
X59125476Y-51261347D01*
X59125476Y-51261347D01*
G37*
G36*
X53315493Y-52080206D02*
X53373575Y-52091759D01*
X53402429Y-52103711D01*
X53537710Y-52159746D01*
X53685431Y-52258450D01*
X53811050Y-52384069D01*
X53909754Y-52531790D01*
X53977741Y-52695926D01*
X54012400Y-52870169D01*
X54012400Y-53047831D01*
X53977741Y-53222074D01*
X53909754Y-53386210D01*
X53811050Y-53533931D01*
X53685431Y-53659550D01*
X53537710Y-53758254D01*
X53421649Y-53806328D01*
X53373575Y-53826241D01*
X53315493Y-53837794D01*
X53199331Y-53860900D01*
X53021669Y-53860900D01*
X52905507Y-53837794D01*
X52847425Y-53826241D01*
X52799351Y-53806328D01*
X52683290Y-53758254D01*
X52535569Y-53659550D01*
X52409950Y-53533931D01*
X52311246Y-53386210D01*
X52243259Y-53222074D01*
X52208600Y-53047831D01*
X52208600Y-52870169D01*
X52243259Y-52695926D01*
X52311246Y-52531790D01*
X52409950Y-52384069D01*
X52535569Y-52258450D01*
X52683290Y-52159746D01*
X52818571Y-52103711D01*
X52847425Y-52091759D01*
X52905507Y-52080206D01*
X53021669Y-52057100D01*
X53199331Y-52057100D01*
X53315493Y-52080206D01*
X53315493Y-52080206D01*
G37*
G36*
X102415493Y-52080206D02*
X102473575Y-52091759D01*
X102502429Y-52103711D01*
X102637710Y-52159746D01*
X102785431Y-52258450D01*
X102911050Y-52384069D01*
X103009754Y-52531790D01*
X103077741Y-52695926D01*
X103112400Y-52870169D01*
X103112400Y-53047831D01*
X103077741Y-53222074D01*
X103009754Y-53386210D01*
X102911050Y-53533931D01*
X102785431Y-53659550D01*
X102637710Y-53758254D01*
X102521649Y-53806328D01*
X102473575Y-53826241D01*
X102415493Y-53837794D01*
X102299331Y-53860900D01*
X102121669Y-53860900D01*
X102005507Y-53837794D01*
X101947425Y-53826241D01*
X101899351Y-53806328D01*
X101783290Y-53758254D01*
X101635569Y-53659550D01*
X101509950Y-53533931D01*
X101411246Y-53386210D01*
X101343259Y-53222074D01*
X101308600Y-53047831D01*
X101308600Y-52870169D01*
X101343259Y-52695926D01*
X101411246Y-52531790D01*
X101509950Y-52384069D01*
X101635569Y-52258450D01*
X101783290Y-52159746D01*
X101918571Y-52103711D01*
X101947425Y-52091759D01*
X102005507Y-52080206D01*
X102121669Y-52057100D01*
X102299331Y-52057100D01*
X102415493Y-52080206D01*
X102415493Y-52080206D01*
G37*
G36*
X32794507Y-50779518D02*
X32884083Y-50797335D01*
X33052841Y-50867237D01*
X33052842Y-50867238D01*
X33204722Y-50968721D01*
X33333879Y-51097878D01*
X33333881Y-51097881D01*
X33435363Y-51249759D01*
X33505265Y-51418517D01*
X33540900Y-51597669D01*
X33540900Y-51780331D01*
X33505265Y-51959483D01*
X33494101Y-51986434D01*
X33486990Y-52009878D01*
X33484588Y-52034264D01*
X33486990Y-52058650D01*
X33494103Y-52082100D01*
X33505654Y-52103711D01*
X33521199Y-52122653D01*
X33540141Y-52138198D01*
X33561752Y-52149750D01*
X33585201Y-52156863D01*
X33609587Y-52159265D01*
X33633973Y-52156863D01*
X33657423Y-52149750D01*
X33768571Y-52103711D01*
X33797425Y-52091759D01*
X33855507Y-52080206D01*
X33971669Y-52057100D01*
X34149331Y-52057100D01*
X34265493Y-52080206D01*
X34323575Y-52091759D01*
X34352429Y-52103711D01*
X34487710Y-52159746D01*
X34635431Y-52258450D01*
X34761050Y-52384069D01*
X34859754Y-52531790D01*
X34927741Y-52695926D01*
X34962400Y-52870169D01*
X34962400Y-53047831D01*
X34927741Y-53222074D01*
X34859754Y-53386210D01*
X34761050Y-53533931D01*
X34635431Y-53659550D01*
X34487710Y-53758254D01*
X34371649Y-53806328D01*
X34323575Y-53826241D01*
X34265493Y-53837794D01*
X34149331Y-53860900D01*
X33971669Y-53860900D01*
X33855507Y-53837794D01*
X33797425Y-53826241D01*
X33749351Y-53806328D01*
X33633290Y-53758254D01*
X33485569Y-53659550D01*
X33359950Y-53533931D01*
X33261246Y-53386210D01*
X33193259Y-53222074D01*
X33158600Y-53047831D01*
X33158600Y-52870169D01*
X33193259Y-52695926D01*
X33193259Y-52695925D01*
X33194825Y-52692144D01*
X33199437Y-52681009D01*
X33206550Y-52657560D01*
X33208952Y-52633174D01*
X33206550Y-52608788D01*
X33199437Y-52585339D01*
X33187885Y-52563728D01*
X33172340Y-52544786D01*
X33153397Y-52529241D01*
X33131786Y-52517690D01*
X33108337Y-52510577D01*
X33083951Y-52508175D01*
X33059565Y-52510577D01*
X33036123Y-52517688D01*
X32884083Y-52580665D01*
X32794507Y-52598483D01*
X32704933Y-52616300D01*
X32522267Y-52616300D01*
X32432693Y-52598483D01*
X32343117Y-52580665D01*
X32174359Y-52510763D01*
X32022481Y-52409281D01*
X32022478Y-52409279D01*
X31893321Y-52280122D01*
X31791838Y-52128242D01*
X31791837Y-52128241D01*
X31721935Y-51959483D01*
X31686300Y-51780331D01*
X31686300Y-51597669D01*
X31721935Y-51418517D01*
X31791837Y-51249759D01*
X31893319Y-51097881D01*
X31893321Y-51097878D01*
X32022478Y-50968721D01*
X32174358Y-50867238D01*
X32174359Y-50867237D01*
X32343117Y-50797335D01*
X32432693Y-50779517D01*
X32522267Y-50761700D01*
X32704933Y-50761700D01*
X32794507Y-50779518D01*
X32794507Y-50779518D01*
G37*
G36*
X45265493Y-52080206D02*
X45323575Y-52091759D01*
X45352429Y-52103711D01*
X45487710Y-52159746D01*
X45635431Y-52258450D01*
X45761050Y-52384069D01*
X45859754Y-52531790D01*
X45927741Y-52695926D01*
X45962400Y-52870169D01*
X45962400Y-53047831D01*
X45927741Y-53222074D01*
X45859754Y-53386210D01*
X45761050Y-53533931D01*
X45635431Y-53659550D01*
X45487710Y-53758254D01*
X45371649Y-53806328D01*
X45323575Y-53826241D01*
X45265493Y-53837794D01*
X45149331Y-53860900D01*
X44971669Y-53860900D01*
X44855507Y-53837794D01*
X44797425Y-53826241D01*
X44749351Y-53806328D01*
X44633290Y-53758254D01*
X44485569Y-53659550D01*
X44359950Y-53533931D01*
X44261246Y-53386210D01*
X44193259Y-53222074D01*
X44158600Y-53047831D01*
X44158600Y-52870169D01*
X44193259Y-52695926D01*
X44261246Y-52531790D01*
X44359950Y-52384069D01*
X44485569Y-52258450D01*
X44633290Y-52159746D01*
X44768571Y-52103711D01*
X44797425Y-52091759D01*
X44855507Y-52080206D01*
X44971669Y-52057100D01*
X45149331Y-52057100D01*
X45265493Y-52080206D01*
X45265493Y-52080206D01*
G37*
G36*
X91415493Y-52080206D02*
X91473575Y-52091759D01*
X91502429Y-52103711D01*
X91637710Y-52159746D01*
X91785431Y-52258450D01*
X91911050Y-52384069D01*
X92009754Y-52531790D01*
X92077741Y-52695926D01*
X92112400Y-52870169D01*
X92112400Y-53047831D01*
X92077741Y-53222074D01*
X92009754Y-53386210D01*
X91911050Y-53533931D01*
X91785431Y-53659550D01*
X91637710Y-53758254D01*
X91521649Y-53806328D01*
X91473575Y-53826241D01*
X91415493Y-53837794D01*
X91299331Y-53860900D01*
X91121669Y-53860900D01*
X91005507Y-53837794D01*
X90947425Y-53826241D01*
X90899351Y-53806328D01*
X90783290Y-53758254D01*
X90635569Y-53659550D01*
X90509950Y-53533931D01*
X90411246Y-53386210D01*
X90343259Y-53222074D01*
X90308600Y-53047831D01*
X90308600Y-52870169D01*
X90343259Y-52695926D01*
X90411246Y-52531790D01*
X90509950Y-52384069D01*
X90635569Y-52258450D01*
X90783290Y-52159746D01*
X90918571Y-52103711D01*
X90947425Y-52091759D01*
X91005507Y-52080206D01*
X91121669Y-52057100D01*
X91299331Y-52057100D01*
X91415493Y-52080206D01*
X91415493Y-52080206D01*
G37*
G36*
X83428993Y-52080206D02*
X83487075Y-52091759D01*
X83515929Y-52103711D01*
X83651210Y-52159746D01*
X83798931Y-52258450D01*
X83924550Y-52384069D01*
X84023254Y-52531790D01*
X84091241Y-52695926D01*
X84125900Y-52870169D01*
X84125900Y-53047831D01*
X84091241Y-53222074D01*
X84023254Y-53386210D01*
X83924550Y-53533931D01*
X83798931Y-53659550D01*
X83651210Y-53758254D01*
X83535149Y-53806328D01*
X83487075Y-53826241D01*
X83428993Y-53837794D01*
X83312831Y-53860900D01*
X83135169Y-53860900D01*
X83019007Y-53837794D01*
X82960925Y-53826241D01*
X82912851Y-53806328D01*
X82796790Y-53758254D01*
X82649069Y-53659550D01*
X82523450Y-53533931D01*
X82424746Y-53386210D01*
X82356759Y-53222074D01*
X82322100Y-53047831D01*
X82322100Y-52870169D01*
X82356759Y-52695926D01*
X82424746Y-52531790D01*
X82523450Y-52384069D01*
X82649069Y-52258450D01*
X82796790Y-52159746D01*
X82932071Y-52103711D01*
X82960925Y-52091759D01*
X83019007Y-52080206D01*
X83135169Y-52057100D01*
X83312831Y-52057100D01*
X83428993Y-52080206D01*
X83428993Y-52080206D01*
G37*
G36*
X72428993Y-52080206D02*
X72487075Y-52091759D01*
X72515929Y-52103711D01*
X72651210Y-52159746D01*
X72798931Y-52258450D01*
X72924550Y-52384069D01*
X73023254Y-52531790D01*
X73091241Y-52695926D01*
X73125900Y-52870169D01*
X73125900Y-53047831D01*
X73091241Y-53222074D01*
X73023254Y-53386210D01*
X72924550Y-53533931D01*
X72798931Y-53659550D01*
X72651210Y-53758254D01*
X72535149Y-53806328D01*
X72487075Y-53826241D01*
X72428993Y-53837794D01*
X72312831Y-53860900D01*
X72135169Y-53860900D01*
X72019007Y-53837794D01*
X71960925Y-53826241D01*
X71912851Y-53806328D01*
X71796790Y-53758254D01*
X71649069Y-53659550D01*
X71523450Y-53533931D01*
X71424746Y-53386210D01*
X71356759Y-53222074D01*
X71322100Y-53047831D01*
X71322100Y-52870169D01*
X71356759Y-52695926D01*
X71424746Y-52531790D01*
X71523450Y-52384069D01*
X71649069Y-52258450D01*
X71796790Y-52159746D01*
X71932071Y-52103711D01*
X71960925Y-52091759D01*
X72019007Y-52080206D01*
X72135169Y-52057100D01*
X72312831Y-52057100D01*
X72428993Y-52080206D01*
X72428993Y-52080206D01*
G37*
G36*
X64315493Y-52080206D02*
X64373575Y-52091759D01*
X64402429Y-52103711D01*
X64537710Y-52159746D01*
X64685431Y-52258450D01*
X64811050Y-52384069D01*
X64909754Y-52531790D01*
X64977741Y-52695926D01*
X65012400Y-52870169D01*
X65012400Y-53047831D01*
X64977741Y-53222074D01*
X64909754Y-53386210D01*
X64811050Y-53533931D01*
X64685431Y-53659550D01*
X64537710Y-53758254D01*
X64421649Y-53806328D01*
X64373575Y-53826241D01*
X64315493Y-53837794D01*
X64199331Y-53860900D01*
X64021669Y-53860900D01*
X63905507Y-53837794D01*
X63847425Y-53826241D01*
X63799351Y-53806328D01*
X63683290Y-53758254D01*
X63535569Y-53659550D01*
X63409950Y-53533931D01*
X63311246Y-53386210D01*
X63243259Y-53222074D01*
X63208600Y-53047831D01*
X63208600Y-52870169D01*
X63243259Y-52695926D01*
X63311246Y-52531790D01*
X63409950Y-52384069D01*
X63535569Y-52258450D01*
X63683290Y-52159746D01*
X63818571Y-52103711D01*
X63847425Y-52091759D01*
X63905507Y-52080206D01*
X64021669Y-52057100D01*
X64199331Y-52057100D01*
X64315493Y-52080206D01*
X64315493Y-52080206D01*
G37*
G36*
X47577307Y-50779518D02*
X47666883Y-50797335D01*
X47835641Y-50867237D01*
X47835642Y-50867238D01*
X47987522Y-50968721D01*
X48116679Y-51097878D01*
X48116681Y-51097881D01*
X48218163Y-51249759D01*
X48288065Y-51418517D01*
X48323700Y-51597669D01*
X48323700Y-51780331D01*
X48288065Y-51959483D01*
X48218163Y-52128241D01*
X48218162Y-52128242D01*
X48116679Y-52280122D01*
X47987522Y-52409279D01*
X47987519Y-52409281D01*
X47835641Y-52510763D01*
X47666883Y-52580665D01*
X47577307Y-52598483D01*
X47487733Y-52616300D01*
X47305067Y-52616300D01*
X47215493Y-52598483D01*
X47125917Y-52580665D01*
X46957159Y-52510763D01*
X46805281Y-52409281D01*
X46805278Y-52409279D01*
X46676121Y-52280122D01*
X46574638Y-52128242D01*
X46574637Y-52128241D01*
X46504735Y-51959483D01*
X46469100Y-51780331D01*
X46469100Y-51597669D01*
X46504735Y-51418517D01*
X46574637Y-51249759D01*
X46676119Y-51097881D01*
X46676121Y-51097878D01*
X46805278Y-50968721D01*
X46957158Y-50867238D01*
X46957159Y-50867237D01*
X47125917Y-50797335D01*
X47215493Y-50779517D01*
X47305067Y-50761700D01*
X47487733Y-50761700D01*
X47577307Y-50779518D01*
X47577307Y-50779518D01*
G37*
G36*
X83035231Y-48133003D02*
X83229415Y-48213437D01*
X83404176Y-48330209D01*
X83552791Y-48478824D01*
X83669563Y-48653585D01*
X83749997Y-48847769D01*
X83791000Y-49053908D01*
X83791000Y-49264092D01*
X83749997Y-49470231D01*
X83669563Y-49664415D01*
X83552791Y-49839176D01*
X83404176Y-49987791D01*
X83229415Y-50104563D01*
X83035231Y-50184997D01*
X82829092Y-50226000D01*
X82618908Y-50226000D01*
X82412769Y-50184997D01*
X82218585Y-50104563D01*
X82043824Y-49987791D01*
X81895209Y-49839176D01*
X81778437Y-49664415D01*
X81698003Y-49470231D01*
X81657000Y-49264092D01*
X81657000Y-49053908D01*
X81698003Y-48847769D01*
X81778437Y-48653585D01*
X81895209Y-48478824D01*
X82043824Y-48330209D01*
X82218585Y-48213437D01*
X82412769Y-48133003D01*
X82618908Y-48092000D01*
X82829092Y-48092000D01*
X83035231Y-48133003D01*
X83035231Y-48133003D01*
G37*
G36*
X44871731Y-48133003D02*
X45065915Y-48213437D01*
X45240676Y-48330209D01*
X45389291Y-48478824D01*
X45506063Y-48653585D01*
X45586497Y-48847769D01*
X45627500Y-49053908D01*
X45627500Y-49264092D01*
X45586497Y-49470231D01*
X45506063Y-49664415D01*
X45389291Y-49839176D01*
X45240676Y-49987791D01*
X45065915Y-50104563D01*
X44871731Y-50184997D01*
X44665592Y-50226000D01*
X44455408Y-50226000D01*
X44249269Y-50184997D01*
X44055085Y-50104563D01*
X43880324Y-49987791D01*
X43731709Y-49839176D01*
X43614937Y-49664415D01*
X43534503Y-49470231D01*
X43493500Y-49264092D01*
X43493500Y-49053908D01*
X43534503Y-48847769D01*
X43614937Y-48653585D01*
X43731709Y-48478824D01*
X43880324Y-48330209D01*
X44055085Y-48213437D01*
X44249269Y-48133003D01*
X44455408Y-48092000D01*
X44665592Y-48092000D01*
X44871731Y-48133003D01*
X44871731Y-48133003D01*
G37*
G36*
X63921731Y-48133003D02*
X64115915Y-48213437D01*
X64290676Y-48330209D01*
X64439291Y-48478824D01*
X64556063Y-48653585D01*
X64636497Y-48847769D01*
X64677500Y-49053908D01*
X64677500Y-49264092D01*
X64636497Y-49470231D01*
X64556063Y-49664415D01*
X64439291Y-49839176D01*
X64290676Y-49987791D01*
X64115915Y-50104563D01*
X63921731Y-50184997D01*
X63715592Y-50226000D01*
X63505408Y-50226000D01*
X63299269Y-50184997D01*
X63105085Y-50104563D01*
X62930324Y-49987791D01*
X62781709Y-49839176D01*
X62664937Y-49664415D01*
X62584503Y-49470231D01*
X62543500Y-49264092D01*
X62543500Y-49053908D01*
X62584503Y-48847769D01*
X62664937Y-48653585D01*
X62781709Y-48478824D01*
X62930324Y-48330209D01*
X63105085Y-48213437D01*
X63299269Y-48133003D01*
X63505408Y-48092000D01*
X63715592Y-48092000D01*
X63921731Y-48133003D01*
X63921731Y-48133003D01*
G37*
G36*
X102021731Y-48133003D02*
X102215915Y-48213437D01*
X102390676Y-48330209D01*
X102539291Y-48478824D01*
X102656063Y-48653585D01*
X102736497Y-48847769D01*
X102777500Y-49053908D01*
X102777500Y-49264092D01*
X102736497Y-49470231D01*
X102656063Y-49664415D01*
X102539291Y-49839176D01*
X102390676Y-49987791D01*
X102215915Y-50104563D01*
X102021731Y-50184997D01*
X101815592Y-50226000D01*
X101605408Y-50226000D01*
X101399269Y-50184997D01*
X101205085Y-50104563D01*
X101030324Y-49987791D01*
X100881709Y-49839176D01*
X100764937Y-49664415D01*
X100684503Y-49470231D01*
X100643500Y-49264092D01*
X100643500Y-49053908D01*
X100684503Y-48847769D01*
X100764937Y-48653585D01*
X100881709Y-48478824D01*
X101030324Y-48330209D01*
X101205085Y-48213437D01*
X101399269Y-48133003D01*
X101605408Y-48092000D01*
X101815592Y-48092000D01*
X102021731Y-48133003D01*
X102021731Y-48133003D01*
G37*
G36*
X32337307Y-48239518D02*
X32426883Y-48257335D01*
X32595641Y-48327237D01*
X32745471Y-48427350D01*
X32747522Y-48428721D01*
X32876679Y-48557878D01*
X32876681Y-48557881D01*
X32978163Y-48709759D01*
X33048065Y-48878517D01*
X33048065Y-48878519D01*
X33082953Y-49053910D01*
X33083700Y-49057669D01*
X33083700Y-49240331D01*
X33048065Y-49419483D01*
X32978163Y-49588241D01*
X32927265Y-49664415D01*
X32876679Y-49740122D01*
X32747522Y-49869279D01*
X32747519Y-49869281D01*
X32595641Y-49970763D01*
X32426883Y-50040665D01*
X32337307Y-50058482D01*
X32247733Y-50076300D01*
X32065067Y-50076300D01*
X31975493Y-50058483D01*
X31885917Y-50040665D01*
X31717159Y-49970763D01*
X31565281Y-49869281D01*
X31565278Y-49869279D01*
X31436121Y-49740122D01*
X31385535Y-49664415D01*
X31334637Y-49588241D01*
X31264735Y-49419483D01*
X31229100Y-49240331D01*
X31229100Y-49057669D01*
X31229848Y-49053910D01*
X31264735Y-48878519D01*
X31264735Y-48878517D01*
X31334637Y-48709759D01*
X31436119Y-48557881D01*
X31436121Y-48557878D01*
X31565278Y-48428721D01*
X31567329Y-48427350D01*
X31717159Y-48327237D01*
X31885917Y-48257335D01*
X31975493Y-48239517D01*
X32065067Y-48221700D01*
X32247733Y-48221700D01*
X32337307Y-48239518D01*
X32337307Y-48239518D01*
G37*
G36*
X48034507Y-48239518D02*
X48124083Y-48257335D01*
X48292841Y-48327237D01*
X48442671Y-48427350D01*
X48444722Y-48428721D01*
X48573879Y-48557878D01*
X48573881Y-48557881D01*
X48675363Y-48709759D01*
X48745265Y-48878517D01*
X48745265Y-48878519D01*
X48780153Y-49053910D01*
X48780900Y-49057669D01*
X48780900Y-49240331D01*
X48745265Y-49419483D01*
X48675363Y-49588241D01*
X48624465Y-49664415D01*
X48573879Y-49740122D01*
X48444722Y-49869279D01*
X48444719Y-49869281D01*
X48292841Y-49970763D01*
X48124083Y-50040665D01*
X48034507Y-50058482D01*
X47944933Y-50076300D01*
X47762267Y-50076300D01*
X47672693Y-50058483D01*
X47583117Y-50040665D01*
X47414359Y-49970763D01*
X47262481Y-49869281D01*
X47262478Y-49869279D01*
X47133321Y-49740122D01*
X47082735Y-49664415D01*
X47031837Y-49588241D01*
X46961935Y-49419483D01*
X46926300Y-49240331D01*
X46926300Y-49057669D01*
X46927048Y-49053910D01*
X46961935Y-48878519D01*
X46961935Y-48878517D01*
X47031837Y-48709759D01*
X47133319Y-48557881D01*
X47133321Y-48557878D01*
X47262478Y-48428721D01*
X47264529Y-48427350D01*
X47414359Y-48327237D01*
X47583117Y-48257335D01*
X47672693Y-48239517D01*
X47762267Y-48221700D01*
X47944933Y-48221700D01*
X48034507Y-48239518D01*
X48034507Y-48239518D01*
G37*
G36*
X97021731Y-46033003D02*
X97215915Y-46113437D01*
X97390676Y-46230209D01*
X97539291Y-46378824D01*
X97656063Y-46553585D01*
X97736497Y-46747769D01*
X97777500Y-46953908D01*
X97777500Y-47164092D01*
X97736497Y-47370231D01*
X97656063Y-47564415D01*
X97539291Y-47739176D01*
X97390676Y-47887791D01*
X97215915Y-48004563D01*
X97021731Y-48084997D01*
X96815592Y-48126000D01*
X96605408Y-48126000D01*
X96399269Y-48084997D01*
X96205085Y-48004563D01*
X96030324Y-47887791D01*
X95881709Y-47739176D01*
X95764937Y-47564415D01*
X95684503Y-47370231D01*
X95643500Y-47164092D01*
X95643500Y-46953908D01*
X95684503Y-46747769D01*
X95764937Y-46553585D01*
X95881709Y-46378824D01*
X96030324Y-46230209D01*
X96205085Y-46113437D01*
X96399269Y-46033003D01*
X96605408Y-45992000D01*
X96815592Y-45992000D01*
X97021731Y-46033003D01*
X97021731Y-46033003D01*
G37*
G36*
X39871731Y-46033003D02*
X40065915Y-46113437D01*
X40240676Y-46230209D01*
X40389291Y-46378824D01*
X40506063Y-46553585D01*
X40586497Y-46747769D01*
X40627500Y-46953908D01*
X40627500Y-47164092D01*
X40586497Y-47370231D01*
X40506063Y-47564415D01*
X40389291Y-47739176D01*
X40240676Y-47887791D01*
X40065915Y-48004563D01*
X39871731Y-48084997D01*
X39665592Y-48126000D01*
X39455408Y-48126000D01*
X39249269Y-48084997D01*
X39055085Y-48004563D01*
X38880324Y-47887791D01*
X38731709Y-47739176D01*
X38614937Y-47564415D01*
X38534503Y-47370231D01*
X38493500Y-47164092D01*
X38493500Y-46953908D01*
X38534503Y-46747769D01*
X38614937Y-46553585D01*
X38731709Y-46378824D01*
X38880324Y-46230209D01*
X39055085Y-46113437D01*
X39249269Y-46033003D01*
X39455408Y-45992000D01*
X39665592Y-45992000D01*
X39871731Y-46033003D01*
X39871731Y-46033003D01*
G37*
G36*
X78035231Y-46033003D02*
X78229415Y-46113437D01*
X78404176Y-46230209D01*
X78552791Y-46378824D01*
X78669563Y-46553585D01*
X78749997Y-46747769D01*
X78791000Y-46953908D01*
X78791000Y-47164092D01*
X78749997Y-47370231D01*
X78669563Y-47564415D01*
X78552791Y-47739176D01*
X78404176Y-47887791D01*
X78229415Y-48004563D01*
X78035231Y-48084997D01*
X77829092Y-48126000D01*
X77618908Y-48126000D01*
X77412769Y-48084997D01*
X77218585Y-48004563D01*
X77043824Y-47887791D01*
X76895209Y-47739176D01*
X76778437Y-47564415D01*
X76698003Y-47370231D01*
X76657000Y-47164092D01*
X76657000Y-46953908D01*
X76698003Y-46747769D01*
X76778437Y-46553585D01*
X76895209Y-46378824D01*
X77043824Y-46230209D01*
X77218585Y-46113437D01*
X77412769Y-46033003D01*
X77618908Y-45992000D01*
X77829092Y-45992000D01*
X78035231Y-46033003D01*
X78035231Y-46033003D01*
G37*
G36*
X58921731Y-46033003D02*
X59115915Y-46113437D01*
X59290676Y-46230209D01*
X59439291Y-46378824D01*
X59556063Y-46553585D01*
X59636497Y-46747769D01*
X59677500Y-46953908D01*
X59677500Y-47164092D01*
X59636497Y-47370231D01*
X59556063Y-47564415D01*
X59439291Y-47739176D01*
X59290676Y-47887791D01*
X59115915Y-48004563D01*
X58921731Y-48084997D01*
X58715592Y-48126000D01*
X58505408Y-48126000D01*
X58299269Y-48084997D01*
X58105085Y-48004563D01*
X57930324Y-47887791D01*
X57781709Y-47739176D01*
X57664937Y-47564415D01*
X57584503Y-47370231D01*
X57543500Y-47164092D01*
X57543500Y-46953908D01*
X57584503Y-46747769D01*
X57664937Y-46553585D01*
X57781709Y-46378824D01*
X57930324Y-46230209D01*
X58105085Y-46113437D01*
X58299269Y-46033003D01*
X58505408Y-45992000D01*
X58715592Y-45992000D01*
X58921731Y-46033003D01*
X58921731Y-46033003D01*
G37*
G36*
X47577307Y-45699518D02*
X47666883Y-45717335D01*
X47835641Y-45787237D01*
X47835642Y-45787238D01*
X47987522Y-45888721D01*
X48116679Y-46017878D01*
X48116681Y-46017881D01*
X48218163Y-46169759D01*
X48288065Y-46338517D01*
X48288065Y-46338519D01*
X48323700Y-46517667D01*
X48323700Y-46700333D01*
X48314264Y-46747769D01*
X48288065Y-46879483D01*
X48218163Y-47048241D01*
X48118050Y-47198071D01*
X48116679Y-47200122D01*
X47987522Y-47329279D01*
X47987519Y-47329281D01*
X47835641Y-47430763D01*
X47666883Y-47500665D01*
X47577307Y-47518483D01*
X47487733Y-47536300D01*
X47305067Y-47536300D01*
X47215493Y-47518482D01*
X47125917Y-47500665D01*
X46957159Y-47430763D01*
X46805281Y-47329281D01*
X46805278Y-47329279D01*
X46676121Y-47200122D01*
X46674750Y-47198071D01*
X46574637Y-47048241D01*
X46504735Y-46879483D01*
X46478536Y-46747769D01*
X46469100Y-46700333D01*
X46469100Y-46517667D01*
X46504735Y-46338519D01*
X46504735Y-46338517D01*
X46574637Y-46169759D01*
X46676119Y-46017881D01*
X46676121Y-46017878D01*
X46805278Y-45888721D01*
X46957158Y-45787238D01*
X46957159Y-45787237D01*
X47125917Y-45717335D01*
X47215493Y-45699518D01*
X47305067Y-45681700D01*
X47487733Y-45681700D01*
X47577307Y-45699518D01*
X47577307Y-45699518D01*
G37*
G36*
X32794507Y-45699518D02*
X32884083Y-45717335D01*
X33052841Y-45787237D01*
X33052842Y-45787238D01*
X33204722Y-45888721D01*
X33333879Y-46017878D01*
X33333881Y-46017881D01*
X33435363Y-46169759D01*
X33505265Y-46338517D01*
X33505265Y-46338519D01*
X33540900Y-46517667D01*
X33540900Y-46700333D01*
X33531464Y-46747769D01*
X33505265Y-46879483D01*
X33435363Y-47048241D01*
X33335250Y-47198071D01*
X33333879Y-47200122D01*
X33204722Y-47329279D01*
X33204719Y-47329281D01*
X33052841Y-47430763D01*
X32884083Y-47500665D01*
X32794507Y-47518483D01*
X32704933Y-47536300D01*
X32522267Y-47536300D01*
X32432693Y-47518482D01*
X32343117Y-47500665D01*
X32174359Y-47430763D01*
X32022481Y-47329281D01*
X32022478Y-47329279D01*
X31893321Y-47200122D01*
X31891950Y-47198071D01*
X31791837Y-47048241D01*
X31721935Y-46879483D01*
X31695736Y-46747769D01*
X31686300Y-46700333D01*
X31686300Y-46517667D01*
X31721935Y-46338519D01*
X31721935Y-46338517D01*
X31791837Y-46169759D01*
X31893319Y-46017881D01*
X31893321Y-46017878D01*
X32022478Y-45888721D01*
X32174358Y-45787238D01*
X32174359Y-45787237D01*
X32343117Y-45717335D01*
X32432693Y-45699518D01*
X32522267Y-45681700D01*
X32704933Y-45681700D01*
X32794507Y-45699518D01*
X32794507Y-45699518D01*
G37*
G36*
X92545000Y-45682000D02*
X90843000Y-45682000D01*
X90843000Y-43980000D01*
X92545000Y-43980000D01*
X92545000Y-45682000D01*
X92545000Y-45682000D01*
G37*
G36*
X99480821Y-43992313D02*
X99480824Y-43992314D01*
X99480825Y-43992314D01*
X99641239Y-44040975D01*
X99641241Y-44040976D01*
X99641244Y-44040977D01*
X99789078Y-44119995D01*
X99918659Y-44226341D01*
X100025005Y-44355922D01*
X100104023Y-44503756D01*
X100104024Y-44503759D01*
X100104025Y-44503761D01*
X100152686Y-44664175D01*
X100152687Y-44664179D01*
X100169117Y-44831000D01*
X100152687Y-44997821D01*
X100152686Y-44997824D01*
X100152686Y-44997825D01*
X100122242Y-45098187D01*
X100104023Y-45158244D01*
X100025005Y-45306078D01*
X99918659Y-45435659D01*
X99789078Y-45542005D01*
X99641244Y-45621023D01*
X99641241Y-45621024D01*
X99641239Y-45621025D01*
X99480825Y-45669686D01*
X99480824Y-45669686D01*
X99480821Y-45669687D01*
X99355804Y-45682000D01*
X99272196Y-45682000D01*
X99147179Y-45669687D01*
X99147176Y-45669686D01*
X99147175Y-45669686D01*
X98986761Y-45621025D01*
X98986759Y-45621024D01*
X98986756Y-45621023D01*
X98838922Y-45542005D01*
X98709341Y-45435659D01*
X98602995Y-45306078D01*
X98523977Y-45158244D01*
X98505759Y-45098187D01*
X98475314Y-44997825D01*
X98475314Y-44997824D01*
X98475313Y-44997821D01*
X98458883Y-44831000D01*
X98475313Y-44664179D01*
X98475314Y-44664175D01*
X98523975Y-44503761D01*
X98523976Y-44503759D01*
X98523977Y-44503756D01*
X98602995Y-44355922D01*
X98709341Y-44226341D01*
X98838922Y-44119995D01*
X98986756Y-44040977D01*
X98986759Y-44040976D01*
X98986761Y-44040975D01*
X99147175Y-43992314D01*
X99147176Y-43992314D01*
X99147179Y-43992313D01*
X99272196Y-43980000D01*
X99355804Y-43980000D01*
X99480821Y-43992313D01*
X99480821Y-43992313D01*
G37*
G36*
X54699000Y-45682000D02*
X52997000Y-45682000D01*
X52997000Y-43980000D01*
X54699000Y-43980000D01*
X54699000Y-45682000D01*
X54699000Y-45682000D01*
G37*
G36*
X61634821Y-43992313D02*
X61634824Y-43992314D01*
X61634825Y-43992314D01*
X61795239Y-44040975D01*
X61795241Y-44040976D01*
X61795244Y-44040977D01*
X61943078Y-44119995D01*
X62072659Y-44226341D01*
X62179005Y-44355922D01*
X62258023Y-44503756D01*
X62258024Y-44503759D01*
X62258025Y-44503761D01*
X62306686Y-44664175D01*
X62306687Y-44664179D01*
X62323117Y-44831000D01*
X62306687Y-44997821D01*
X62306686Y-44997824D01*
X62306686Y-44997825D01*
X62276242Y-45098187D01*
X62258023Y-45158244D01*
X62179005Y-45306078D01*
X62072659Y-45435659D01*
X61943078Y-45542005D01*
X61795244Y-45621023D01*
X61795241Y-45621024D01*
X61795239Y-45621025D01*
X61634825Y-45669686D01*
X61634824Y-45669686D01*
X61634821Y-45669687D01*
X61509804Y-45682000D01*
X61426196Y-45682000D01*
X61301179Y-45669687D01*
X61301176Y-45669686D01*
X61301175Y-45669686D01*
X61140761Y-45621025D01*
X61140759Y-45621024D01*
X61140756Y-45621023D01*
X60992922Y-45542005D01*
X60863341Y-45435659D01*
X60756995Y-45306078D01*
X60677977Y-45158244D01*
X60659759Y-45098187D01*
X60629314Y-44997825D01*
X60629314Y-44997824D01*
X60629313Y-44997821D01*
X60612883Y-44831000D01*
X60629313Y-44664179D01*
X60629314Y-44664175D01*
X60677975Y-44503761D01*
X60677976Y-44503759D01*
X60677977Y-44503756D01*
X60756995Y-44355922D01*
X60863341Y-44226341D01*
X60992922Y-44119995D01*
X61140756Y-44040977D01*
X61140759Y-44040976D01*
X61140761Y-44040975D01*
X61301175Y-43992314D01*
X61301176Y-43992314D01*
X61301179Y-43992313D01*
X61426196Y-43980000D01*
X61509804Y-43980000D01*
X61634821Y-43992313D01*
X61634821Y-43992313D01*
G37*
G36*
X80557821Y-43992313D02*
X80557824Y-43992314D01*
X80557825Y-43992314D01*
X80718239Y-44040975D01*
X80718241Y-44040976D01*
X80718244Y-44040977D01*
X80866078Y-44119995D01*
X80995659Y-44226341D01*
X81102005Y-44355922D01*
X81181023Y-44503756D01*
X81181024Y-44503759D01*
X81181025Y-44503761D01*
X81229686Y-44664175D01*
X81229687Y-44664179D01*
X81246117Y-44831000D01*
X81229687Y-44997821D01*
X81229686Y-44997824D01*
X81229686Y-44997825D01*
X81199242Y-45098187D01*
X81181023Y-45158244D01*
X81102005Y-45306078D01*
X80995659Y-45435659D01*
X80866078Y-45542005D01*
X80718244Y-45621023D01*
X80718241Y-45621024D01*
X80718239Y-45621025D01*
X80557825Y-45669686D01*
X80557824Y-45669686D01*
X80557821Y-45669687D01*
X80432804Y-45682000D01*
X80349196Y-45682000D01*
X80224179Y-45669687D01*
X80224176Y-45669686D01*
X80224175Y-45669686D01*
X80063761Y-45621025D01*
X80063759Y-45621024D01*
X80063756Y-45621023D01*
X79915922Y-45542005D01*
X79786341Y-45435659D01*
X79679995Y-45306078D01*
X79600977Y-45158244D01*
X79582759Y-45098187D01*
X79552314Y-44997825D01*
X79552314Y-44997824D01*
X79552313Y-44997821D01*
X79535883Y-44831000D01*
X79552313Y-44664179D01*
X79552314Y-44664175D01*
X79600975Y-44503761D01*
X79600976Y-44503759D01*
X79600977Y-44503756D01*
X79679995Y-44355922D01*
X79786341Y-44226341D01*
X79915922Y-44119995D01*
X80063756Y-44040977D01*
X80063759Y-44040976D01*
X80063761Y-44040975D01*
X80224175Y-43992314D01*
X80224176Y-43992314D01*
X80224179Y-43992313D01*
X80349196Y-43980000D01*
X80432804Y-43980000D01*
X80557821Y-43992313D01*
X80557821Y-43992313D01*
G37*
G36*
X73622000Y-45682000D02*
X71920000Y-45682000D01*
X71920000Y-43980000D01*
X73622000Y-43980000D01*
X73622000Y-45682000D01*
X73622000Y-45682000D01*
G37*
G36*
X42711821Y-43420813D02*
X42711824Y-43420814D01*
X42711825Y-43420814D01*
X42872239Y-43469475D01*
X42872241Y-43469476D01*
X42872244Y-43469477D01*
X43020078Y-43548495D01*
X43149659Y-43654841D01*
X43256005Y-43784422D01*
X43335023Y-43932256D01*
X43335024Y-43932259D01*
X43335025Y-43932261D01*
X43383686Y-44092675D01*
X43383687Y-44092679D01*
X43400117Y-44259500D01*
X43383687Y-44426321D01*
X43383686Y-44426324D01*
X43383686Y-44426325D01*
X43358837Y-44508242D01*
X43335023Y-44586744D01*
X43256005Y-44734578D01*
X43149659Y-44864159D01*
X43020078Y-44970505D01*
X42872244Y-45049523D01*
X42872241Y-45049524D01*
X42872239Y-45049525D01*
X42711825Y-45098186D01*
X42711824Y-45098186D01*
X42711821Y-45098187D01*
X42586804Y-45110500D01*
X42503196Y-45110500D01*
X42378179Y-45098187D01*
X42378176Y-45098186D01*
X42378175Y-45098186D01*
X42217761Y-45049525D01*
X42217759Y-45049524D01*
X42217756Y-45049523D01*
X42069922Y-44970505D01*
X41940341Y-44864159D01*
X41833995Y-44734578D01*
X41754977Y-44586744D01*
X41731164Y-44508242D01*
X41706314Y-44426325D01*
X41706314Y-44426324D01*
X41706313Y-44426321D01*
X41689883Y-44259500D01*
X41706313Y-44092679D01*
X41706314Y-44092675D01*
X41754975Y-43932261D01*
X41754976Y-43932259D01*
X41754977Y-43932256D01*
X41833995Y-43784422D01*
X41940341Y-43654841D01*
X42069922Y-43548495D01*
X42217756Y-43469477D01*
X42217759Y-43469476D01*
X42217761Y-43469475D01*
X42378175Y-43420814D01*
X42378176Y-43420814D01*
X42378179Y-43420813D01*
X42503196Y-43408500D01*
X42586804Y-43408500D01*
X42711821Y-43420813D01*
X42711821Y-43420813D01*
G37*
G36*
X35776000Y-45110500D02*
X34074000Y-45110500D01*
X34074000Y-43408500D01*
X35776000Y-43408500D01*
X35776000Y-45110500D01*
X35776000Y-45110500D01*
G37*
G36*
X32337307Y-43159517D02*
X32426883Y-43177335D01*
X32595641Y-43247237D01*
X32595642Y-43247238D01*
X32747522Y-43348721D01*
X32876679Y-43477878D01*
X32876681Y-43477881D01*
X32978163Y-43629759D01*
X33048065Y-43798517D01*
X33083700Y-43977669D01*
X33083700Y-44160331D01*
X33048065Y-44339483D01*
X32978163Y-44508241D01*
X32978162Y-44508242D01*
X32876679Y-44660122D01*
X32747522Y-44789279D01*
X32747519Y-44789281D01*
X32595641Y-44890763D01*
X32426883Y-44960665D01*
X32337307Y-44978482D01*
X32247733Y-44996300D01*
X32065067Y-44996300D01*
X31975493Y-44978482D01*
X31885917Y-44960665D01*
X31717159Y-44890763D01*
X31565281Y-44789281D01*
X31565278Y-44789279D01*
X31436121Y-44660122D01*
X31334638Y-44508242D01*
X31334637Y-44508241D01*
X31264735Y-44339483D01*
X31229100Y-44160331D01*
X31229100Y-43977669D01*
X31264735Y-43798517D01*
X31334637Y-43629759D01*
X31436119Y-43477881D01*
X31436121Y-43477878D01*
X31565278Y-43348721D01*
X31717158Y-43247238D01*
X31717159Y-43247237D01*
X31885917Y-43177335D01*
X31975493Y-43159517D01*
X32065067Y-43141700D01*
X32247733Y-43141700D01*
X32337307Y-43159517D01*
X32337307Y-43159517D01*
G37*
G36*
X48034507Y-43159517D02*
X48124083Y-43177335D01*
X48292841Y-43247237D01*
X48292842Y-43247238D01*
X48444722Y-43348721D01*
X48573879Y-43477878D01*
X48573881Y-43477881D01*
X48675363Y-43629759D01*
X48745265Y-43798517D01*
X48780900Y-43977669D01*
X48780900Y-44160331D01*
X48745265Y-44339483D01*
X48675363Y-44508241D01*
X48675362Y-44508242D01*
X48573879Y-44660122D01*
X48444722Y-44789279D01*
X48444719Y-44789281D01*
X48292841Y-44890763D01*
X48124083Y-44960665D01*
X48034507Y-44978482D01*
X47944933Y-44996300D01*
X47762267Y-44996300D01*
X47672693Y-44978482D01*
X47583117Y-44960665D01*
X47414359Y-44890763D01*
X47262481Y-44789281D01*
X47262478Y-44789279D01*
X47133321Y-44660122D01*
X47031838Y-44508242D01*
X47031837Y-44508241D01*
X46961935Y-44339483D01*
X46926300Y-44160331D01*
X46926300Y-43977669D01*
X46961935Y-43798517D01*
X47031837Y-43629759D01*
X47133319Y-43477881D01*
X47133321Y-43477878D01*
X47262478Y-43348721D01*
X47414358Y-43247238D01*
X47414359Y-43247237D01*
X47583117Y-43177335D01*
X47672693Y-43159517D01*
X47762267Y-43141700D01*
X47944933Y-43141700D01*
X48034507Y-43159517D01*
X48034507Y-43159517D01*
G37*
G36*
X77736565Y-40899389D02*
X77927834Y-40978615D01*
X78099976Y-41093637D01*
X78246363Y-41240024D01*
X78361385Y-41412166D01*
X78440611Y-41603435D01*
X78481000Y-41806484D01*
X78481000Y-42013516D01*
X78440611Y-42216565D01*
X78361385Y-42407834D01*
X78246363Y-42579976D01*
X78099976Y-42726363D01*
X77927834Y-42841385D01*
X77736565Y-42920611D01*
X77533516Y-42961000D01*
X77326484Y-42961000D01*
X77123435Y-42920611D01*
X76932166Y-42841385D01*
X76760024Y-42726363D01*
X76613637Y-42579976D01*
X76498615Y-42407834D01*
X76419389Y-42216565D01*
X76379000Y-42013516D01*
X76379000Y-41806484D01*
X76419389Y-41603435D01*
X76498615Y-41412166D01*
X76613637Y-41240024D01*
X76760024Y-41093637D01*
X76932166Y-40978615D01*
X77123435Y-40899389D01*
X77326484Y-40859000D01*
X77533516Y-40859000D01*
X77736565Y-40899389D01*
X77736565Y-40899389D01*
G37*
G36*
X80236565Y-40899389D02*
X80427834Y-40978615D01*
X80599976Y-41093637D01*
X80746363Y-41240024D01*
X80861385Y-41412166D01*
X80940611Y-41603435D01*
X80981000Y-41806484D01*
X80981000Y-42013516D01*
X80940611Y-42216565D01*
X80861385Y-42407834D01*
X80746363Y-42579976D01*
X80599976Y-42726363D01*
X80427834Y-42841385D01*
X80236565Y-42920611D01*
X80033516Y-42961000D01*
X79826484Y-42961000D01*
X79623435Y-42920611D01*
X79432166Y-42841385D01*
X79260024Y-42726363D01*
X79113637Y-42579976D01*
X78998615Y-42407834D01*
X78919389Y-42216565D01*
X78879000Y-42013516D01*
X78879000Y-41806484D01*
X78919389Y-41603435D01*
X78998615Y-41412166D01*
X79113637Y-41240024D01*
X79260024Y-41093637D01*
X79432166Y-40978615D01*
X79623435Y-40899389D01*
X79826484Y-40859000D01*
X80033516Y-40859000D01*
X80236565Y-40899389D01*
X80236565Y-40899389D01*
G37*
G36*
X75981000Y-42961000D02*
X73879000Y-42961000D01*
X73879000Y-40859000D01*
X75981000Y-40859000D01*
X75981000Y-42961000D01*
X75981000Y-42961000D01*
G37*
G36*
X32794507Y-40619517D02*
X32884083Y-40637335D01*
X33052841Y-40707237D01*
X33202671Y-40807350D01*
X33204722Y-40808721D01*
X33333879Y-40937878D01*
X33333881Y-40937881D01*
X33435363Y-41089759D01*
X33505265Y-41258517D01*
X33505265Y-41258519D01*
X33535828Y-41412166D01*
X33540900Y-41437669D01*
X33540900Y-41620331D01*
X33505265Y-41799483D01*
X33435363Y-41968241D01*
X33435362Y-41968242D01*
X33333879Y-42120122D01*
X33204722Y-42249279D01*
X33204719Y-42249281D01*
X33052841Y-42350763D01*
X32884083Y-42420665D01*
X32794507Y-42438482D01*
X32704933Y-42456300D01*
X32522267Y-42456300D01*
X32432693Y-42438482D01*
X32343117Y-42420665D01*
X32174359Y-42350763D01*
X32022481Y-42249281D01*
X32022478Y-42249279D01*
X31893321Y-42120122D01*
X31791838Y-41968242D01*
X31791837Y-41968241D01*
X31721935Y-41799483D01*
X31686300Y-41620331D01*
X31686300Y-41437669D01*
X31691373Y-41412166D01*
X31721935Y-41258519D01*
X31721935Y-41258517D01*
X31791837Y-41089759D01*
X31893319Y-40937881D01*
X31893321Y-40937878D01*
X32022478Y-40808721D01*
X32024529Y-40807350D01*
X32174359Y-40707237D01*
X32343117Y-40637335D01*
X32432693Y-40619517D01*
X32522267Y-40601700D01*
X32704933Y-40601700D01*
X32794507Y-40619517D01*
X32794507Y-40619517D01*
G37*
G36*
X47577307Y-40619517D02*
X47666883Y-40637335D01*
X47835641Y-40707237D01*
X47985471Y-40807350D01*
X47987522Y-40808721D01*
X48116679Y-40937878D01*
X48116681Y-40937881D01*
X48218163Y-41089759D01*
X48288065Y-41258517D01*
X48288065Y-41258519D01*
X48318628Y-41412166D01*
X48323700Y-41437669D01*
X48323700Y-41620331D01*
X48288065Y-41799483D01*
X48218163Y-41968241D01*
X48218162Y-41968242D01*
X48116679Y-42120122D01*
X47987522Y-42249279D01*
X47987519Y-42249281D01*
X47835641Y-42350763D01*
X47666883Y-42420665D01*
X47577307Y-42438482D01*
X47487733Y-42456300D01*
X47305067Y-42456300D01*
X47215493Y-42438482D01*
X47125917Y-42420665D01*
X46957159Y-42350763D01*
X46805281Y-42249281D01*
X46805278Y-42249279D01*
X46676121Y-42120122D01*
X46574638Y-41968242D01*
X46574637Y-41968241D01*
X46504735Y-41799483D01*
X46469100Y-41620331D01*
X46469100Y-41437669D01*
X46474173Y-41412166D01*
X46504735Y-41258519D01*
X46504735Y-41258517D01*
X46574637Y-41089759D01*
X46676119Y-40937881D01*
X46676121Y-40937878D01*
X46805278Y-40808721D01*
X46807329Y-40807350D01*
X46957159Y-40707237D01*
X47125917Y-40637335D01*
X47215493Y-40619517D01*
X47305067Y-40601700D01*
X47487733Y-40601700D01*
X47577307Y-40619517D01*
X47577307Y-40619517D01*
G37*
G36*
X98495500Y-40774000D02*
X95193500Y-40774000D01*
X95193500Y-38672000D01*
X98495500Y-38672000D01*
X98495500Y-40774000D01*
X98495500Y-40774000D01*
G37*
G36*
X48034507Y-38079518D02*
X48124083Y-38097335D01*
X48292841Y-38167237D01*
X48292842Y-38167238D01*
X48444722Y-38268721D01*
X48573879Y-38397878D01*
X48573881Y-38397881D01*
X48675363Y-38549759D01*
X48745265Y-38718517D01*
X48780900Y-38897669D01*
X48780900Y-39080331D01*
X48745265Y-39259483D01*
X48675363Y-39428241D01*
X48675362Y-39428242D01*
X48573879Y-39580122D01*
X48444722Y-39709279D01*
X48444719Y-39709281D01*
X48292841Y-39810763D01*
X48124083Y-39880665D01*
X48034507Y-39898483D01*
X47944933Y-39916300D01*
X47762267Y-39916300D01*
X47672693Y-39898483D01*
X47583117Y-39880665D01*
X47414359Y-39810763D01*
X47262481Y-39709281D01*
X47262478Y-39709279D01*
X47133321Y-39580122D01*
X47031838Y-39428242D01*
X47031837Y-39428241D01*
X46961935Y-39259483D01*
X46926300Y-39080331D01*
X46926300Y-38897669D01*
X46961935Y-38718517D01*
X47031837Y-38549759D01*
X47133319Y-38397881D01*
X47133321Y-38397878D01*
X47262478Y-38268721D01*
X47414358Y-38167238D01*
X47414359Y-38167237D01*
X47583117Y-38097335D01*
X47672693Y-38079518D01*
X47762267Y-38061700D01*
X47944933Y-38061700D01*
X48034507Y-38079518D01*
X48034507Y-38079518D01*
G37*
G36*
X32337307Y-38079518D02*
X32426883Y-38097335D01*
X32595641Y-38167237D01*
X32595642Y-38167238D01*
X32747522Y-38268721D01*
X32876679Y-38397878D01*
X32876681Y-38397881D01*
X32978163Y-38549759D01*
X33048065Y-38718517D01*
X33083700Y-38897669D01*
X33083700Y-39080331D01*
X33048065Y-39259483D01*
X32978163Y-39428241D01*
X32978162Y-39428242D01*
X32876679Y-39580122D01*
X32747522Y-39709279D01*
X32747519Y-39709281D01*
X32595641Y-39810763D01*
X32426883Y-39880665D01*
X32337307Y-39898483D01*
X32247733Y-39916300D01*
X32065067Y-39916300D01*
X31975493Y-39898483D01*
X31885917Y-39880665D01*
X31717159Y-39810763D01*
X31565281Y-39709281D01*
X31565278Y-39709279D01*
X31436121Y-39580122D01*
X31334638Y-39428242D01*
X31334637Y-39428241D01*
X31264735Y-39259483D01*
X31229100Y-39080331D01*
X31229100Y-38897669D01*
X31264735Y-38718517D01*
X31334637Y-38549759D01*
X31436119Y-38397881D01*
X31436121Y-38397878D01*
X31565278Y-38268721D01*
X31717158Y-38167238D01*
X31717159Y-38167237D01*
X31885917Y-38097335D01*
X31975493Y-38079518D01*
X32065067Y-38061700D01*
X32247733Y-38061700D01*
X32337307Y-38079518D01*
X32337307Y-38079518D01*
G37*
G36*
X53613350Y-37583694D02*
X53712770Y-37624875D01*
X53802249Y-37684663D01*
X53878337Y-37760751D01*
X53938125Y-37850230D01*
X53979306Y-37949650D01*
X54000300Y-38055194D01*
X54000300Y-38162806D01*
X53979306Y-38268350D01*
X53938125Y-38367770D01*
X53878337Y-38457249D01*
X53802249Y-38533337D01*
X53712770Y-38593125D01*
X53613350Y-38634306D01*
X53507806Y-38655300D01*
X53400194Y-38655300D01*
X53294650Y-38634306D01*
X53195230Y-38593125D01*
X53105751Y-38533337D01*
X53029663Y-38457249D01*
X52969875Y-38367770D01*
X52928694Y-38268350D01*
X52907700Y-38162806D01*
X52907700Y-38055194D01*
X52928694Y-37949650D01*
X52969875Y-37850230D01*
X53029663Y-37760751D01*
X53105751Y-37684663D01*
X53195230Y-37624875D01*
X53294650Y-37583694D01*
X53400194Y-37562700D01*
X53507806Y-37562700D01*
X53613350Y-37583694D01*
X53613350Y-37583694D01*
G37*
G36*
X34499850Y-37583694D02*
X34599270Y-37624875D01*
X34688749Y-37684663D01*
X34764837Y-37760751D01*
X34824625Y-37850230D01*
X34865806Y-37949650D01*
X34886800Y-38055194D01*
X34886800Y-38162806D01*
X34865806Y-38268350D01*
X34824625Y-38367770D01*
X34764837Y-38457249D01*
X34688749Y-38533337D01*
X34599270Y-38593125D01*
X34499850Y-38634306D01*
X34394306Y-38655300D01*
X34286694Y-38655300D01*
X34181150Y-38634306D01*
X34081730Y-38593125D01*
X33992251Y-38533337D01*
X33916163Y-38457249D01*
X33856375Y-38367770D01*
X33815194Y-38268350D01*
X33794200Y-38162806D01*
X33794200Y-38055194D01*
X33815194Y-37949650D01*
X33856375Y-37850230D01*
X33916163Y-37760751D01*
X33992251Y-37684663D01*
X34081730Y-37624875D01*
X34181150Y-37583694D01*
X34286694Y-37562700D01*
X34394306Y-37562700D01*
X34499850Y-37583694D01*
X34499850Y-37583694D01*
G37*
G36*
X72599850Y-37583694D02*
X72699270Y-37624875D01*
X72788749Y-37684663D01*
X72864837Y-37760751D01*
X72924625Y-37850230D01*
X72965806Y-37949650D01*
X72986800Y-38055194D01*
X72986800Y-38162806D01*
X72965806Y-38268350D01*
X72924625Y-38367770D01*
X72864837Y-38457249D01*
X72788749Y-38533337D01*
X72788746Y-38533339D01*
X72699270Y-38593125D01*
X72599850Y-38634306D01*
X72494306Y-38655300D01*
X72386694Y-38655300D01*
X72281150Y-38634306D01*
X72181730Y-38593125D01*
X72092254Y-38533339D01*
X72092251Y-38533337D01*
X72016163Y-38457249D01*
X71956375Y-38367770D01*
X71915194Y-38268350D01*
X71894200Y-38162806D01*
X71894200Y-38055194D01*
X71915194Y-37949650D01*
X71956375Y-37850230D01*
X72016163Y-37760751D01*
X72092251Y-37684663D01*
X72181730Y-37624875D01*
X72281150Y-37583694D01*
X72386694Y-37562700D01*
X72494306Y-37562700D01*
X72599850Y-37583694D01*
X72599850Y-37583694D01*
G37*
G36*
X91713350Y-37583694D02*
X91812770Y-37624875D01*
X91902249Y-37684663D01*
X91978337Y-37760751D01*
X92038125Y-37850230D01*
X92079306Y-37949650D01*
X92100300Y-38055194D01*
X92100300Y-38162806D01*
X92079306Y-38268350D01*
X92038125Y-38367770D01*
X91978337Y-38457249D01*
X91902249Y-38533337D01*
X91812770Y-38593125D01*
X91713350Y-38634306D01*
X91607806Y-38655300D01*
X91500194Y-38655300D01*
X91394650Y-38634306D01*
X91295230Y-38593125D01*
X91205751Y-38533337D01*
X91129663Y-38457249D01*
X91069875Y-38367770D01*
X91028694Y-38268350D01*
X91007700Y-38162806D01*
X91007700Y-38055194D01*
X91028694Y-37949650D01*
X91069875Y-37850230D01*
X91129663Y-37760751D01*
X91205751Y-37684663D01*
X91295230Y-37624875D01*
X91394650Y-37583694D01*
X91500194Y-37562700D01*
X91607806Y-37562700D01*
X91713350Y-37583694D01*
X91713350Y-37583694D01*
G37*
G36*
X89651065Y-35612389D02*
X89842334Y-35691615D01*
X90014476Y-35806637D01*
X90160863Y-35953024D01*
X90275885Y-36125166D01*
X90355111Y-36316435D01*
X90395500Y-36519484D01*
X90395500Y-36726516D01*
X90355111Y-36929565D01*
X90275885Y-37120834D01*
X90160863Y-37292976D01*
X90014476Y-37439363D01*
X89842334Y-37554385D01*
X89651065Y-37633611D01*
X89448016Y-37674000D01*
X89240984Y-37674000D01*
X89037935Y-37633611D01*
X88846666Y-37554385D01*
X88674524Y-37439363D01*
X88528137Y-37292976D01*
X88413115Y-37120834D01*
X88333889Y-36929565D01*
X88293500Y-36726516D01*
X88293500Y-36519484D01*
X88333889Y-36316435D01*
X88413115Y-36125166D01*
X88528137Y-35953024D01*
X88674524Y-35806637D01*
X88846666Y-35691615D01*
X89037935Y-35612389D01*
X89240984Y-35572000D01*
X89448016Y-35572000D01*
X89651065Y-35612389D01*
X89651065Y-35612389D01*
G37*
G36*
X104151065Y-35612389D02*
X104342334Y-35691615D01*
X104514476Y-35806637D01*
X104660863Y-35953024D01*
X104775885Y-36125166D01*
X104855111Y-36316435D01*
X104895500Y-36519484D01*
X104895500Y-36726516D01*
X104855111Y-36929565D01*
X104775885Y-37120834D01*
X104660863Y-37292976D01*
X104514476Y-37439363D01*
X104342334Y-37554385D01*
X104151065Y-37633611D01*
X103948016Y-37674000D01*
X103740984Y-37674000D01*
X103537935Y-37633611D01*
X103346666Y-37554385D01*
X103174524Y-37439363D01*
X103028137Y-37292976D01*
X102913115Y-37120834D01*
X102833889Y-36929565D01*
X102793500Y-36726516D01*
X102793500Y-36519484D01*
X102833889Y-36316435D01*
X102913115Y-36125166D01*
X103028137Y-35953024D01*
X103174524Y-35806637D01*
X103346666Y-35691615D01*
X103537935Y-35612389D01*
X103740984Y-35572000D01*
X103948016Y-35572000D01*
X104151065Y-35612389D01*
X104151065Y-35612389D01*
G37*
G36*
X47577307Y-35539518D02*
X47666883Y-35557335D01*
X47835641Y-35627237D01*
X47985471Y-35727350D01*
X47987522Y-35728721D01*
X48116679Y-35857878D01*
X48116681Y-35857881D01*
X48218163Y-36009759D01*
X48288065Y-36178517D01*
X48323700Y-36357669D01*
X48323700Y-36540331D01*
X48288065Y-36719483D01*
X48218163Y-36888241D01*
X48218162Y-36888242D01*
X48116679Y-37040122D01*
X47987522Y-37169279D01*
X47987519Y-37169281D01*
X47835641Y-37270763D01*
X47666883Y-37340665D01*
X47577307Y-37358482D01*
X47487733Y-37376300D01*
X47305067Y-37376300D01*
X47215493Y-37358482D01*
X47125917Y-37340665D01*
X46957159Y-37270763D01*
X46805281Y-37169281D01*
X46805278Y-37169279D01*
X46676121Y-37040122D01*
X46574638Y-36888242D01*
X46574637Y-36888241D01*
X46504735Y-36719483D01*
X46469100Y-36540331D01*
X46469100Y-36357669D01*
X46504735Y-36178517D01*
X46574637Y-36009759D01*
X46676119Y-35857881D01*
X46676121Y-35857878D01*
X46805278Y-35728721D01*
X46807329Y-35727350D01*
X46957159Y-35627237D01*
X47125917Y-35557335D01*
X47215493Y-35539518D01*
X47305067Y-35521700D01*
X47487733Y-35521700D01*
X47577307Y-35539518D01*
X47577307Y-35539518D01*
G37*
G36*
X32794507Y-35539518D02*
X32884083Y-35557335D01*
X33052841Y-35627237D01*
X33202671Y-35727350D01*
X33204722Y-35728721D01*
X33333879Y-35857878D01*
X33333881Y-35857881D01*
X33435363Y-36009759D01*
X33505265Y-36178517D01*
X33540900Y-36357669D01*
X33540900Y-36540331D01*
X33505265Y-36719483D01*
X33435363Y-36888241D01*
X33435362Y-36888242D01*
X33333879Y-37040122D01*
X33204722Y-37169279D01*
X33204719Y-37169281D01*
X33052841Y-37270763D01*
X32884083Y-37340665D01*
X32794507Y-37358482D01*
X32704933Y-37376300D01*
X32522267Y-37376300D01*
X32432693Y-37358482D01*
X32343117Y-37340665D01*
X32174359Y-37270763D01*
X32022481Y-37169281D01*
X32022478Y-37169279D01*
X31893321Y-37040122D01*
X31791838Y-36888242D01*
X31791837Y-36888241D01*
X31721935Y-36719483D01*
X31686300Y-36540331D01*
X31686300Y-36357669D01*
X31721935Y-36178517D01*
X31791837Y-36009759D01*
X31893319Y-35857881D01*
X31893321Y-35857878D01*
X32022478Y-35728721D01*
X32024529Y-35727350D01*
X32174359Y-35627237D01*
X32343117Y-35557335D01*
X32432693Y-35539518D01*
X32522267Y-35521700D01*
X32704933Y-35521700D01*
X32794507Y-35539518D01*
X32794507Y-35539518D01*
G37*
G36*
X84081000Y-36061000D02*
X81979000Y-36061000D01*
X81979000Y-32759000D01*
X84081000Y-32759000D01*
X84081000Y-36061000D01*
X84081000Y-36061000D01*
G37*
G36*
X72881000Y-33326008D02*
X72883402Y-33350394D01*
X72890515Y-33373843D01*
X72902066Y-33395454D01*
X72959754Y-33481790D01*
X73027741Y-33645926D01*
X73062400Y-33820169D01*
X73062400Y-33997831D01*
X73027741Y-34172074D01*
X72959754Y-34336210D01*
X72902066Y-34422546D01*
X72890515Y-34444157D01*
X72883402Y-34467606D01*
X72881000Y-34491992D01*
X72881000Y-36061000D01*
X70779000Y-36061000D01*
X70779000Y-32759000D01*
X72881000Y-32759000D01*
X72881000Y-33326008D01*
X72881000Y-33326008D01*
G37*
G36*
X40075476Y-32211347D02*
X40280570Y-32296300D01*
X40396778Y-32344435D01*
X40682094Y-32535077D01*
X40685943Y-32537649D01*
X40931851Y-32783557D01*
X40931853Y-32783560D01*
X41124583Y-33072000D01*
X41125066Y-33072724D01*
X41258153Y-33394024D01*
X41326000Y-33735112D01*
X41326000Y-34082888D01*
X41258153Y-34423976D01*
X41140401Y-34708253D01*
X41125065Y-34745278D01*
X41064246Y-34836300D01*
X40931851Y-35034443D01*
X40685943Y-35280351D01*
X40685940Y-35280353D01*
X40396778Y-35473565D01*
X40396777Y-35473566D01*
X40396776Y-35473566D01*
X40075476Y-35606653D01*
X39734388Y-35674500D01*
X39386612Y-35674500D01*
X39045524Y-35606653D01*
X38724224Y-35473566D01*
X38724223Y-35473566D01*
X38724222Y-35473565D01*
X38435060Y-35280353D01*
X38435057Y-35280351D01*
X38189149Y-35034443D01*
X38056754Y-34836300D01*
X37995935Y-34745278D01*
X37980599Y-34708253D01*
X37862847Y-34423976D01*
X37795000Y-34082888D01*
X37795000Y-33735112D01*
X37862847Y-33394024D01*
X37995934Y-33072724D01*
X37996418Y-33072000D01*
X38189147Y-32783560D01*
X38189149Y-32783557D01*
X38435057Y-32537649D01*
X38438906Y-32535077D01*
X38724222Y-32344435D01*
X38840430Y-32296300D01*
X39045524Y-32211347D01*
X39386612Y-32143500D01*
X39734388Y-32143500D01*
X40075476Y-32211347D01*
X40075476Y-32211347D01*
G37*
G36*
X78175476Y-32211347D02*
X78380570Y-32296300D01*
X78496778Y-32344435D01*
X78782094Y-32535077D01*
X78785943Y-32537649D01*
X79031851Y-32783557D01*
X79031853Y-32783560D01*
X79224583Y-33072000D01*
X79225066Y-33072724D01*
X79358153Y-33394024D01*
X79426000Y-33735112D01*
X79426000Y-34082888D01*
X79358153Y-34423976D01*
X79240401Y-34708253D01*
X79225065Y-34745278D01*
X79164246Y-34836300D01*
X79031851Y-35034443D01*
X78785943Y-35280351D01*
X78785940Y-35280353D01*
X78496778Y-35473565D01*
X78496777Y-35473566D01*
X78496776Y-35473566D01*
X78175476Y-35606653D01*
X77834388Y-35674500D01*
X77486612Y-35674500D01*
X77145524Y-35606653D01*
X76824224Y-35473566D01*
X76824223Y-35473566D01*
X76824222Y-35473565D01*
X76535060Y-35280353D01*
X76535057Y-35280351D01*
X76289149Y-35034443D01*
X76156754Y-34836300D01*
X76095935Y-34745278D01*
X76080599Y-34708253D01*
X75962847Y-34423976D01*
X75895000Y-34082888D01*
X75895000Y-33735112D01*
X75962847Y-33394024D01*
X76095934Y-33072724D01*
X76096418Y-33072000D01*
X76289147Y-32783560D01*
X76289149Y-32783557D01*
X76535057Y-32537649D01*
X76538906Y-32535077D01*
X76824222Y-32344435D01*
X76940430Y-32296300D01*
X77145524Y-32211347D01*
X77486612Y-32143500D01*
X77834388Y-32143500D01*
X78175476Y-32211347D01*
X78175476Y-32211347D01*
G37*
G36*
X59188976Y-32211347D02*
X59394070Y-32296300D01*
X59510278Y-32344435D01*
X59795594Y-32535077D01*
X59799443Y-32537649D01*
X60045351Y-32783557D01*
X60045353Y-32783560D01*
X60238083Y-33072000D01*
X60238566Y-33072724D01*
X60371653Y-33394024D01*
X60439500Y-33735112D01*
X60439500Y-34082888D01*
X60371653Y-34423976D01*
X60253901Y-34708253D01*
X60238565Y-34745278D01*
X60177746Y-34836300D01*
X60045351Y-35034443D01*
X59799443Y-35280351D01*
X59799440Y-35280353D01*
X59510278Y-35473565D01*
X59510277Y-35473566D01*
X59510276Y-35473566D01*
X59188976Y-35606653D01*
X58847888Y-35674500D01*
X58500112Y-35674500D01*
X58159024Y-35606653D01*
X57837724Y-35473566D01*
X57837723Y-35473566D01*
X57837722Y-35473565D01*
X57548560Y-35280353D01*
X57548557Y-35280351D01*
X57302649Y-35034443D01*
X57170254Y-34836300D01*
X57109435Y-34745278D01*
X57094099Y-34708253D01*
X56976347Y-34423976D01*
X56908500Y-34082888D01*
X56908500Y-33735112D01*
X56976347Y-33394024D01*
X57109434Y-33072724D01*
X57109918Y-33072000D01*
X57302647Y-32783560D01*
X57302649Y-32783557D01*
X57548557Y-32537649D01*
X57552406Y-32535077D01*
X57837722Y-32344435D01*
X57953930Y-32296300D01*
X58159024Y-32211347D01*
X58500112Y-32143500D01*
X58847888Y-32143500D01*
X59188976Y-32211347D01*
X59188976Y-32211347D01*
G37*
G36*
X97288976Y-32211347D02*
X97494070Y-32296300D01*
X97610278Y-32344435D01*
X97895594Y-32535077D01*
X97899443Y-32537649D01*
X98145351Y-32783557D01*
X98145353Y-32783560D01*
X98338083Y-33072000D01*
X98338566Y-33072724D01*
X98471653Y-33394024D01*
X98539500Y-33735112D01*
X98539500Y-34082888D01*
X98471653Y-34423976D01*
X98353901Y-34708253D01*
X98338565Y-34745278D01*
X98277746Y-34836300D01*
X98145351Y-35034443D01*
X97899443Y-35280351D01*
X97899440Y-35280353D01*
X97610278Y-35473565D01*
X97610277Y-35473566D01*
X97610276Y-35473566D01*
X97288976Y-35606653D01*
X96947888Y-35674500D01*
X96600112Y-35674500D01*
X96259024Y-35606653D01*
X95937724Y-35473566D01*
X95937723Y-35473566D01*
X95937722Y-35473565D01*
X95648560Y-35280353D01*
X95648557Y-35280351D01*
X95402649Y-35034443D01*
X95270254Y-34836300D01*
X95209435Y-34745278D01*
X95194099Y-34708253D01*
X95076347Y-34423976D01*
X95008500Y-34082888D01*
X95008500Y-33735112D01*
X95076347Y-33394024D01*
X95209434Y-33072724D01*
X95209918Y-33072000D01*
X95402647Y-32783560D01*
X95402649Y-32783557D01*
X95648557Y-32537649D01*
X95652406Y-32535077D01*
X95937722Y-32344435D01*
X96053930Y-32296300D01*
X96259024Y-32211347D01*
X96600112Y-32143500D01*
X96947888Y-32143500D01*
X97288976Y-32211347D01*
X97288976Y-32211347D01*
G37*
G36*
X91478993Y-33030206D02*
X91537075Y-33041759D01*
X91585149Y-33061672D01*
X91701210Y-33109746D01*
X91848931Y-33208450D01*
X91974550Y-33334069D01*
X92073254Y-33481790D01*
X92141241Y-33645926D01*
X92175900Y-33820169D01*
X92175900Y-33997831D01*
X92141241Y-34172074D01*
X92073254Y-34336210D01*
X91974550Y-34483931D01*
X91848931Y-34609550D01*
X91701210Y-34708254D01*
X91585149Y-34756328D01*
X91537075Y-34776241D01*
X91478993Y-34787794D01*
X91362831Y-34810900D01*
X91185169Y-34810900D01*
X91069007Y-34787794D01*
X91010925Y-34776241D01*
X90962851Y-34756328D01*
X90846790Y-34708254D01*
X90699069Y-34609550D01*
X90573448Y-34483929D01*
X90554688Y-34455853D01*
X90539143Y-34436911D01*
X90520201Y-34421366D01*
X90498590Y-34409815D01*
X90475140Y-34402702D01*
X90450754Y-34400300D01*
X90426368Y-34402702D01*
X90402919Y-34409815D01*
X90381308Y-34421367D01*
X90362366Y-34436912D01*
X90346821Y-34455854D01*
X90335270Y-34477465D01*
X90275885Y-34620834D01*
X90160863Y-34792976D01*
X90014476Y-34939363D01*
X89842334Y-35054385D01*
X89651065Y-35133611D01*
X89448016Y-35174000D01*
X89240984Y-35174000D01*
X89037935Y-35133611D01*
X88846666Y-35054385D01*
X88674524Y-34939363D01*
X88528137Y-34792976D01*
X88413115Y-34620834D01*
X88333889Y-34429565D01*
X88293500Y-34226516D01*
X88293500Y-34019484D01*
X88333889Y-33816435D01*
X88413115Y-33625166D01*
X88528137Y-33453024D01*
X88674524Y-33306637D01*
X88846666Y-33191615D01*
X89037935Y-33112389D01*
X89240984Y-33072000D01*
X89448016Y-33072000D01*
X89651065Y-33112389D01*
X89842334Y-33191615D01*
X90014476Y-33306637D01*
X90160863Y-33453024D01*
X90232059Y-33559576D01*
X90247605Y-33578518D01*
X90266547Y-33594064D01*
X90288158Y-33605615D01*
X90311607Y-33612728D01*
X90335993Y-33615130D01*
X90360379Y-33612728D01*
X90383828Y-33605615D01*
X90405439Y-33594064D01*
X90424381Y-33578518D01*
X90439927Y-33559576D01*
X90451478Y-33537965D01*
X90474746Y-33481790D01*
X90573450Y-33334069D01*
X90699069Y-33208450D01*
X90846790Y-33109746D01*
X90962851Y-33061672D01*
X91010925Y-33041759D01*
X91069007Y-33030206D01*
X91185169Y-33007100D01*
X91362831Y-33007100D01*
X91478993Y-33030206D01*
X91478993Y-33030206D01*
G37*
G36*
X32337307Y-32999517D02*
X32426883Y-33017335D01*
X32595641Y-33087237D01*
X32595642Y-33087238D01*
X32747522Y-33188721D01*
X32876679Y-33317878D01*
X32876681Y-33317881D01*
X32978163Y-33469759D01*
X33006415Y-33537965D01*
X33006711Y-33538681D01*
X33018262Y-33560292D01*
X33033808Y-33579234D01*
X33052750Y-33594780D01*
X33074360Y-33606331D01*
X33097810Y-33613444D01*
X33122196Y-33615846D01*
X33146582Y-33613444D01*
X33170031Y-33606331D01*
X33191642Y-33594780D01*
X33210584Y-33579234D01*
X33226130Y-33560292D01*
X33237681Y-33538682D01*
X33261247Y-33481789D01*
X33359950Y-33334069D01*
X33485569Y-33208450D01*
X33633290Y-33109746D01*
X33749351Y-33061672D01*
X33797425Y-33041759D01*
X33855507Y-33030206D01*
X33971669Y-33007100D01*
X34149331Y-33007100D01*
X34265493Y-33030206D01*
X34323575Y-33041759D01*
X34371649Y-33061672D01*
X34487710Y-33109746D01*
X34635431Y-33208450D01*
X34761050Y-33334069D01*
X34859754Y-33481790D01*
X34927741Y-33645926D01*
X34962400Y-33820169D01*
X34962400Y-33997831D01*
X34927741Y-34172074D01*
X34859754Y-34336210D01*
X34761050Y-34483931D01*
X34635431Y-34609550D01*
X34487710Y-34708254D01*
X34371649Y-34756328D01*
X34323575Y-34776241D01*
X34265493Y-34787794D01*
X34149331Y-34810900D01*
X33971669Y-34810900D01*
X33855507Y-34787794D01*
X33797425Y-34776241D01*
X33749351Y-34756328D01*
X33633290Y-34708254D01*
X33485569Y-34609550D01*
X33359950Y-34483931D01*
X33261247Y-34336211D01*
X33237681Y-34279318D01*
X33226129Y-34257707D01*
X33210584Y-34238765D01*
X33191642Y-34223220D01*
X33170031Y-34211669D01*
X33146582Y-34204556D01*
X33122196Y-34202154D01*
X33097809Y-34204556D01*
X33074360Y-34211669D01*
X33052749Y-34223221D01*
X33033807Y-34238766D01*
X33018262Y-34257708D01*
X33006711Y-34279319D01*
X32978163Y-34348241D01*
X32876679Y-34500122D01*
X32747522Y-34629279D01*
X32747519Y-34629281D01*
X32595641Y-34730763D01*
X32426883Y-34800665D01*
X32375427Y-34810900D01*
X32247733Y-34836300D01*
X32065067Y-34836300D01*
X31937373Y-34810900D01*
X31885917Y-34800665D01*
X31717159Y-34730763D01*
X31565281Y-34629281D01*
X31565278Y-34629279D01*
X31436121Y-34500122D01*
X31430689Y-34491992D01*
X31334637Y-34348241D01*
X31264735Y-34179483D01*
X31232910Y-34019486D01*
X31229100Y-34000333D01*
X31229100Y-33817667D01*
X31246917Y-33728093D01*
X31264735Y-33638517D01*
X31334637Y-33469759D01*
X31436119Y-33317881D01*
X31436121Y-33317878D01*
X31565278Y-33188721D01*
X31717158Y-33087238D01*
X31717159Y-33087237D01*
X31885917Y-33017335D01*
X31975493Y-32999517D01*
X32065067Y-32981700D01*
X32247733Y-32981700D01*
X32337307Y-32999517D01*
X32337307Y-32999517D01*
G37*
G36*
X48034507Y-32999517D02*
X48124083Y-33017335D01*
X48292841Y-33087237D01*
X48292842Y-33087238D01*
X48444722Y-33188721D01*
X48573879Y-33317878D01*
X48573881Y-33317881D01*
X48675363Y-33469759D01*
X48745265Y-33638517D01*
X48763083Y-33728093D01*
X48780900Y-33817667D01*
X48780900Y-34000333D01*
X48777090Y-34019486D01*
X48745265Y-34179483D01*
X48675363Y-34348241D01*
X48579311Y-34491992D01*
X48573879Y-34500122D01*
X48444722Y-34629279D01*
X48444719Y-34629281D01*
X48292841Y-34730763D01*
X48124083Y-34800665D01*
X48072627Y-34810900D01*
X47944933Y-34836300D01*
X47762267Y-34836300D01*
X47634573Y-34810900D01*
X47583117Y-34800665D01*
X47414359Y-34730763D01*
X47262481Y-34629281D01*
X47262478Y-34629279D01*
X47133321Y-34500122D01*
X47127889Y-34491992D01*
X47031837Y-34348241D01*
X46961935Y-34179483D01*
X46930110Y-34019486D01*
X46926300Y-34000333D01*
X46926300Y-33817667D01*
X46944117Y-33728093D01*
X46961935Y-33638517D01*
X47031837Y-33469759D01*
X47133319Y-33317881D01*
X47133321Y-33317878D01*
X47262478Y-33188721D01*
X47414358Y-33087238D01*
X47414359Y-33087237D01*
X47583117Y-33017335D01*
X47672693Y-32999517D01*
X47762267Y-32981700D01*
X47944933Y-32981700D01*
X48034507Y-32999517D01*
X48034507Y-32999517D01*
G37*
G36*
X45265493Y-33030206D02*
X45323575Y-33041759D01*
X45371649Y-33061672D01*
X45487710Y-33109746D01*
X45635431Y-33208450D01*
X45761050Y-33334069D01*
X45859754Y-33481790D01*
X45927741Y-33645926D01*
X45962400Y-33820169D01*
X45962400Y-33997831D01*
X45927741Y-34172074D01*
X45859754Y-34336210D01*
X45761050Y-34483931D01*
X45635431Y-34609550D01*
X45487710Y-34708254D01*
X45371649Y-34756328D01*
X45323575Y-34776241D01*
X45265493Y-34787794D01*
X45149331Y-34810900D01*
X44971669Y-34810900D01*
X44855507Y-34787794D01*
X44797425Y-34776241D01*
X44749351Y-34756328D01*
X44633290Y-34708254D01*
X44485569Y-34609550D01*
X44359950Y-34483931D01*
X44261246Y-34336210D01*
X44193259Y-34172074D01*
X44158600Y-33997831D01*
X44158600Y-33820169D01*
X44193259Y-33645926D01*
X44261246Y-33481790D01*
X44359950Y-33334069D01*
X44485569Y-33208450D01*
X44633290Y-33109746D01*
X44749351Y-33061672D01*
X44797425Y-33041759D01*
X44855507Y-33030206D01*
X44971669Y-33007100D01*
X45149331Y-33007100D01*
X45265493Y-33030206D01*
X45265493Y-33030206D01*
G37*
G36*
X53378993Y-33030206D02*
X53437075Y-33041759D01*
X53485149Y-33061672D01*
X53601210Y-33109746D01*
X53748931Y-33208450D01*
X53874550Y-33334069D01*
X53973254Y-33481790D01*
X54041241Y-33645926D01*
X54075900Y-33820169D01*
X54075900Y-33997831D01*
X54041241Y-34172074D01*
X53973254Y-34336210D01*
X53874550Y-34483931D01*
X53748931Y-34609550D01*
X53601210Y-34708254D01*
X53485149Y-34756328D01*
X53437075Y-34776241D01*
X53378993Y-34787794D01*
X53262831Y-34810900D01*
X53085169Y-34810900D01*
X52969007Y-34787794D01*
X52910925Y-34776241D01*
X52862851Y-34756328D01*
X52746790Y-34708254D01*
X52599069Y-34609550D01*
X52473450Y-34483931D01*
X52374746Y-34336210D01*
X52306759Y-34172074D01*
X52272100Y-33997831D01*
X52272100Y-33820169D01*
X52306759Y-33645926D01*
X52374746Y-33481790D01*
X52473450Y-33334069D01*
X52599069Y-33208450D01*
X52746790Y-33109746D01*
X52862851Y-33061672D01*
X52910925Y-33041759D01*
X52969007Y-33030206D01*
X53085169Y-33007100D01*
X53262831Y-33007100D01*
X53378993Y-33030206D01*
X53378993Y-33030206D01*
G37*
G36*
X102478993Y-33030206D02*
X102537075Y-33041759D01*
X102585149Y-33061672D01*
X102701210Y-33109746D01*
X102848931Y-33208450D01*
X102974550Y-33334069D01*
X103073254Y-33481790D01*
X103141241Y-33645926D01*
X103175900Y-33820169D01*
X103175900Y-33997831D01*
X103141241Y-34172074D01*
X103073254Y-34336210D01*
X102974550Y-34483931D01*
X102848931Y-34609550D01*
X102701210Y-34708254D01*
X102585149Y-34756328D01*
X102537075Y-34776241D01*
X102478993Y-34787794D01*
X102362831Y-34810900D01*
X102185169Y-34810900D01*
X102069007Y-34787794D01*
X102010925Y-34776241D01*
X101962851Y-34756328D01*
X101846790Y-34708254D01*
X101699069Y-34609550D01*
X101573450Y-34483931D01*
X101474746Y-34336210D01*
X101406759Y-34172074D01*
X101372100Y-33997831D01*
X101372100Y-33820169D01*
X101406759Y-33645926D01*
X101474746Y-33481790D01*
X101573450Y-33334069D01*
X101699069Y-33208450D01*
X101846790Y-33109746D01*
X101962851Y-33061672D01*
X102010925Y-33041759D01*
X102069007Y-33030206D01*
X102185169Y-33007100D01*
X102362831Y-33007100D01*
X102478993Y-33030206D01*
X102478993Y-33030206D01*
G37*
G36*
X64378993Y-33030206D02*
X64437075Y-33041759D01*
X64485149Y-33061672D01*
X64601210Y-33109746D01*
X64748931Y-33208450D01*
X64874550Y-33334069D01*
X64973254Y-33481790D01*
X65041241Y-33645926D01*
X65075900Y-33820169D01*
X65075900Y-33997831D01*
X65041241Y-34172074D01*
X64973254Y-34336210D01*
X64874550Y-34483931D01*
X64748931Y-34609550D01*
X64601210Y-34708254D01*
X64485149Y-34756328D01*
X64437075Y-34776241D01*
X64378993Y-34787794D01*
X64262831Y-34810900D01*
X64085169Y-34810900D01*
X63969007Y-34787794D01*
X63910925Y-34776241D01*
X63862851Y-34756328D01*
X63746790Y-34708254D01*
X63599069Y-34609550D01*
X63473450Y-34483931D01*
X63374746Y-34336210D01*
X63306759Y-34172074D01*
X63272100Y-33997831D01*
X63272100Y-33820169D01*
X63306759Y-33645926D01*
X63374746Y-33481790D01*
X63473450Y-33334069D01*
X63599069Y-33208450D01*
X63746790Y-33109746D01*
X63862851Y-33061672D01*
X63910925Y-33041759D01*
X63969007Y-33030206D01*
X64085169Y-33007100D01*
X64262831Y-33007100D01*
X64378993Y-33030206D01*
X64378993Y-33030206D01*
G37*
G36*
X90395500Y-32674000D02*
X88293500Y-32674000D01*
X88293500Y-30572000D01*
X90395500Y-30572000D01*
X90395500Y-32674000D01*
X90395500Y-32674000D01*
G37*
G36*
X104151065Y-30612389D02*
X104342334Y-30691615D01*
X104514476Y-30806637D01*
X104660863Y-30953024D01*
X104775885Y-31125166D01*
X104855111Y-31316435D01*
X104895500Y-31519484D01*
X104895500Y-31726516D01*
X104855111Y-31929565D01*
X104775885Y-32120834D01*
X104660863Y-32292976D01*
X104514476Y-32439363D01*
X104342334Y-32554385D01*
X104151065Y-32633611D01*
X103948016Y-32674000D01*
X103740984Y-32674000D01*
X103537935Y-32633611D01*
X103346666Y-32554385D01*
X103174524Y-32439363D01*
X103028137Y-32292976D01*
X102913115Y-32120834D01*
X102833889Y-31929565D01*
X102793500Y-31726516D01*
X102793500Y-31519484D01*
X102833889Y-31316435D01*
X102913115Y-31125166D01*
X103028137Y-30953024D01*
X103174524Y-30806637D01*
X103346666Y-30691615D01*
X103537935Y-30612389D01*
X103740984Y-30572000D01*
X103948016Y-30572000D01*
X104151065Y-30612389D01*
X104151065Y-30612389D01*
G37*
G36*
X47577307Y-30459518D02*
X47666883Y-30477335D01*
X47835641Y-30547237D01*
X47985471Y-30647350D01*
X47987522Y-30648721D01*
X48116679Y-30777878D01*
X48116681Y-30777881D01*
X48218163Y-30929759D01*
X48288065Y-31098517D01*
X48323700Y-31277669D01*
X48323700Y-31460331D01*
X48288065Y-31639483D01*
X48218163Y-31808241D01*
X48218162Y-31808242D01*
X48116679Y-31960122D01*
X47987522Y-32089279D01*
X47987519Y-32089281D01*
X47835641Y-32190763D01*
X47666883Y-32260665D01*
X47577307Y-32278482D01*
X47487733Y-32296300D01*
X47305067Y-32296300D01*
X47215493Y-32278482D01*
X47125917Y-32260665D01*
X46957159Y-32190763D01*
X46805281Y-32089281D01*
X46805278Y-32089279D01*
X46676121Y-31960122D01*
X46574638Y-31808242D01*
X46574637Y-31808241D01*
X46504735Y-31639483D01*
X46469100Y-31460331D01*
X46469100Y-31277669D01*
X46504735Y-31098517D01*
X46574637Y-30929759D01*
X46676119Y-30777881D01*
X46676121Y-30777878D01*
X46805278Y-30648721D01*
X46807329Y-30647350D01*
X46957159Y-30547237D01*
X47125917Y-30477335D01*
X47215493Y-30459518D01*
X47305067Y-30441700D01*
X47487733Y-30441700D01*
X47577307Y-30459518D01*
X47577307Y-30459518D01*
G37*
G36*
X32794507Y-30459518D02*
X32884083Y-30477335D01*
X33052841Y-30547237D01*
X33202671Y-30647350D01*
X33204722Y-30648721D01*
X33333879Y-30777878D01*
X33333881Y-30777881D01*
X33435363Y-30929759D01*
X33505265Y-31098517D01*
X33540900Y-31277669D01*
X33540900Y-31460331D01*
X33505265Y-31639483D01*
X33435363Y-31808241D01*
X33435362Y-31808242D01*
X33333879Y-31960122D01*
X33204722Y-32089279D01*
X33204719Y-32089281D01*
X33052841Y-32190763D01*
X32884083Y-32260665D01*
X32794507Y-32278482D01*
X32704933Y-32296300D01*
X32522267Y-32296300D01*
X32432693Y-32278482D01*
X32343117Y-32260665D01*
X32174359Y-32190763D01*
X32022481Y-32089281D01*
X32022478Y-32089279D01*
X31893321Y-31960122D01*
X31791838Y-31808242D01*
X31791837Y-31808241D01*
X31721935Y-31639483D01*
X31686300Y-31460331D01*
X31686300Y-31277669D01*
X31721935Y-31098517D01*
X31791837Y-30929759D01*
X31893319Y-30777881D01*
X31893321Y-30777878D01*
X32022478Y-30648721D01*
X32024529Y-30647350D01*
X32174359Y-30547237D01*
X32343117Y-30477335D01*
X32432693Y-30459518D01*
X32522267Y-30441700D01*
X32704933Y-30441700D01*
X32794507Y-30459518D01*
X32794507Y-30459518D01*
G37*
G36*
X102085231Y-29083003D02*
X102279415Y-29163437D01*
X102454176Y-29280209D01*
X102602791Y-29428824D01*
X102719563Y-29603585D01*
X102799997Y-29797769D01*
X102841000Y-30003908D01*
X102841000Y-30214092D01*
X102799997Y-30420231D01*
X102719563Y-30614415D01*
X102602791Y-30789176D01*
X102454176Y-30937791D01*
X102279415Y-31054563D01*
X102085231Y-31134997D01*
X101879092Y-31176000D01*
X101668908Y-31176000D01*
X101462769Y-31134997D01*
X101268585Y-31054563D01*
X101093824Y-30937791D01*
X100945209Y-30789176D01*
X100828437Y-30614415D01*
X100748003Y-30420231D01*
X100707000Y-30214092D01*
X100707000Y-30003908D01*
X100748003Y-29797769D01*
X100828437Y-29603585D01*
X100945209Y-29428824D01*
X101093824Y-29280209D01*
X101268585Y-29163437D01*
X101462769Y-29083003D01*
X101668908Y-29042000D01*
X101879092Y-29042000D01*
X102085231Y-29083003D01*
X102085231Y-29083003D01*
G37*
G36*
X82971731Y-29083003D02*
X83165915Y-29163437D01*
X83340676Y-29280209D01*
X83489291Y-29428824D01*
X83606063Y-29603585D01*
X83686497Y-29797769D01*
X83727500Y-30003908D01*
X83727500Y-30214092D01*
X83686497Y-30420231D01*
X83606063Y-30614415D01*
X83489291Y-30789176D01*
X83340676Y-30937791D01*
X83165915Y-31054563D01*
X82971731Y-31134997D01*
X82765592Y-31176000D01*
X82555408Y-31176000D01*
X82349269Y-31134997D01*
X82155085Y-31054563D01*
X81980324Y-30937791D01*
X81831709Y-30789176D01*
X81714937Y-30614415D01*
X81634503Y-30420231D01*
X81593500Y-30214092D01*
X81593500Y-30003908D01*
X81634503Y-29797769D01*
X81714937Y-29603585D01*
X81831709Y-29428824D01*
X81980324Y-29280209D01*
X82155085Y-29163437D01*
X82349269Y-29083003D01*
X82555408Y-29042000D01*
X82765592Y-29042000D01*
X82971731Y-29083003D01*
X82971731Y-29083003D01*
G37*
G36*
X63985231Y-29083003D02*
X64179415Y-29163437D01*
X64354176Y-29280209D01*
X64502791Y-29428824D01*
X64619563Y-29603585D01*
X64699997Y-29797769D01*
X64741000Y-30003908D01*
X64741000Y-30214092D01*
X64699997Y-30420231D01*
X64619563Y-30614415D01*
X64502791Y-30789176D01*
X64354176Y-30937791D01*
X64179415Y-31054563D01*
X63985231Y-31134997D01*
X63779092Y-31176000D01*
X63568908Y-31176000D01*
X63362769Y-31134997D01*
X63168585Y-31054563D01*
X62993824Y-30937791D01*
X62845209Y-30789176D01*
X62728437Y-30614415D01*
X62648003Y-30420231D01*
X62607000Y-30214092D01*
X62607000Y-30003908D01*
X62648003Y-29797769D01*
X62728437Y-29603585D01*
X62845209Y-29428824D01*
X62993824Y-29280209D01*
X63168585Y-29163437D01*
X63362769Y-29083003D01*
X63568908Y-29042000D01*
X63779092Y-29042000D01*
X63985231Y-29083003D01*
X63985231Y-29083003D01*
G37*
G36*
X44871731Y-29083003D02*
X45065915Y-29163437D01*
X45240676Y-29280209D01*
X45389291Y-29428824D01*
X45506063Y-29603585D01*
X45586497Y-29797769D01*
X45627500Y-30003908D01*
X45627500Y-30214092D01*
X45586497Y-30420231D01*
X45506063Y-30614415D01*
X45389291Y-30789176D01*
X45240676Y-30937791D01*
X45065915Y-31054563D01*
X44871731Y-31134997D01*
X44665592Y-31176000D01*
X44455408Y-31176000D01*
X44249269Y-31134997D01*
X44055085Y-31054563D01*
X43880324Y-30937791D01*
X43731709Y-30789176D01*
X43614937Y-30614415D01*
X43534503Y-30420231D01*
X43493500Y-30214092D01*
X43493500Y-30003908D01*
X43534503Y-29797769D01*
X43614937Y-29603585D01*
X43731709Y-29428824D01*
X43880324Y-29280209D01*
X44055085Y-29163437D01*
X44249269Y-29083003D01*
X44455408Y-29042000D01*
X44665592Y-29042000D01*
X44871731Y-29083003D01*
X44871731Y-29083003D01*
G37*
G36*
X48034507Y-27919517D02*
X48124083Y-27937335D01*
X48292841Y-28007237D01*
X48292842Y-28007238D01*
X48444722Y-28108721D01*
X48573879Y-28237878D01*
X48573881Y-28237881D01*
X48675363Y-28389759D01*
X48745265Y-28558517D01*
X48780900Y-28737669D01*
X48780900Y-28920331D01*
X48745265Y-29099483D01*
X48675363Y-29268241D01*
X48667366Y-29280209D01*
X48573879Y-29420122D01*
X48444722Y-29549279D01*
X48444719Y-29549281D01*
X48292841Y-29650763D01*
X48124083Y-29720665D01*
X48034507Y-29738482D01*
X47944933Y-29756300D01*
X47762267Y-29756300D01*
X47672693Y-29738482D01*
X47583117Y-29720665D01*
X47414359Y-29650763D01*
X47262481Y-29549281D01*
X47262478Y-29549279D01*
X47133321Y-29420122D01*
X47039834Y-29280209D01*
X47031837Y-29268241D01*
X46961935Y-29099483D01*
X46926300Y-28920331D01*
X46926300Y-28737669D01*
X46961935Y-28558517D01*
X47031837Y-28389759D01*
X47133319Y-28237881D01*
X47133321Y-28237878D01*
X47262478Y-28108721D01*
X47414358Y-28007238D01*
X47414359Y-28007237D01*
X47583117Y-27937335D01*
X47672693Y-27919517D01*
X47762267Y-27901700D01*
X47944933Y-27901700D01*
X48034507Y-27919517D01*
X48034507Y-27919517D01*
G37*
G36*
X33083700Y-29756300D02*
X31229100Y-29756300D01*
X31229100Y-27901700D01*
X33083700Y-27901700D01*
X33083700Y-29756300D01*
X33083700Y-29756300D01*
G37*
G36*
X97085231Y-26983003D02*
X97279415Y-27063437D01*
X97454176Y-27180209D01*
X97602791Y-27328824D01*
X97661338Y-27416446D01*
X97676883Y-27435388D01*
X97695826Y-27450934D01*
X97717436Y-27462485D01*
X97740885Y-27469598D01*
X97765272Y-27472000D01*
X98495500Y-27472000D01*
X98495500Y-29574000D01*
X95193500Y-29574000D01*
X95193500Y-27472000D01*
X95782728Y-27472000D01*
X95807114Y-27469598D01*
X95830563Y-27462485D01*
X95852174Y-27450934D01*
X95871116Y-27435388D01*
X95886662Y-27416446D01*
X95945209Y-27328824D01*
X96093824Y-27180209D01*
X96268585Y-27063437D01*
X96462769Y-26983003D01*
X96668908Y-26942000D01*
X96879092Y-26942000D01*
X97085231Y-26983003D01*
X97085231Y-26983003D01*
G37*
G36*
X80236565Y-26399389D02*
X80427834Y-26478615D01*
X80599976Y-26593637D01*
X80746363Y-26740024D01*
X80861385Y-26912166D01*
X80940611Y-27103435D01*
X80981000Y-27306484D01*
X80981000Y-27513516D01*
X80940611Y-27716565D01*
X80861385Y-27907834D01*
X80746363Y-28079976D01*
X80599976Y-28226363D01*
X80427834Y-28341385D01*
X80236565Y-28420611D01*
X80033516Y-28461000D01*
X79826484Y-28461000D01*
X79623435Y-28420611D01*
X79432166Y-28341385D01*
X79260024Y-28226363D01*
X79113637Y-28079976D01*
X78998615Y-27907834D01*
X78964206Y-27824763D01*
X78952655Y-27803152D01*
X78937110Y-27784210D01*
X78918167Y-27768664D01*
X78896557Y-27757113D01*
X78873108Y-27750000D01*
X78848721Y-27747598D01*
X78824335Y-27750000D01*
X78800886Y-27757113D01*
X78779275Y-27768664D01*
X78760333Y-27784209D01*
X78744787Y-27803152D01*
X78733236Y-27824762D01*
X78726123Y-27848211D01*
X78723721Y-27872598D01*
X78726122Y-27896982D01*
X78727500Y-27903910D01*
X78727500Y-28114092D01*
X78686497Y-28320231D01*
X78606063Y-28514415D01*
X78489291Y-28689176D01*
X78340676Y-28837791D01*
X78165915Y-28954563D01*
X77971731Y-29034997D01*
X77765592Y-29076000D01*
X77555408Y-29076000D01*
X77349269Y-29034997D01*
X77155085Y-28954563D01*
X76980324Y-28837791D01*
X76831709Y-28689176D01*
X76714937Y-28514415D01*
X76634503Y-28320231D01*
X76593500Y-28114092D01*
X76593500Y-27903908D01*
X76634503Y-27697769D01*
X76714937Y-27503585D01*
X76831709Y-27328824D01*
X76980324Y-27180209D01*
X77155085Y-27063437D01*
X77349269Y-26983003D01*
X77555408Y-26942000D01*
X77765592Y-26942000D01*
X77971731Y-26983003D01*
X78165915Y-27063437D01*
X78340676Y-27180209D01*
X78489291Y-27328824D01*
X78606064Y-27503587D01*
X78641679Y-27589569D01*
X78653230Y-27611180D01*
X78668776Y-27630122D01*
X78687718Y-27645668D01*
X78709329Y-27657219D01*
X78732778Y-27664332D01*
X78757164Y-27666734D01*
X78781550Y-27664332D01*
X78804999Y-27657219D01*
X78826610Y-27645668D01*
X78845552Y-27630122D01*
X78861098Y-27611180D01*
X78872649Y-27589569D01*
X78879762Y-27566120D01*
X78882164Y-27541734D01*
X78879763Y-27517350D01*
X78879000Y-27513514D01*
X78879000Y-27306484D01*
X78919389Y-27103435D01*
X78998615Y-26912166D01*
X79113637Y-26740024D01*
X79260024Y-26593637D01*
X79432166Y-26478615D01*
X79623435Y-26399389D01*
X79826484Y-26359000D01*
X80033516Y-26359000D01*
X80236565Y-26399389D01*
X80236565Y-26399389D01*
G37*
G36*
X58985231Y-26983003D02*
X59179415Y-27063437D01*
X59354176Y-27180209D01*
X59502791Y-27328824D01*
X59619563Y-27503585D01*
X59699997Y-27697769D01*
X59741000Y-27903908D01*
X59741000Y-28114092D01*
X59699997Y-28320231D01*
X59619563Y-28514415D01*
X59502791Y-28689176D01*
X59354176Y-28837791D01*
X59179415Y-28954563D01*
X58985231Y-29034997D01*
X58779092Y-29076000D01*
X58568908Y-29076000D01*
X58362769Y-29034997D01*
X58168585Y-28954563D01*
X57993824Y-28837791D01*
X57845209Y-28689176D01*
X57728437Y-28514415D01*
X57648003Y-28320231D01*
X57607000Y-28114092D01*
X57607000Y-27903908D01*
X57648003Y-27697769D01*
X57728437Y-27503585D01*
X57845209Y-27328824D01*
X57993824Y-27180209D01*
X58168585Y-27063437D01*
X58362769Y-26983003D01*
X58568908Y-26942000D01*
X58779092Y-26942000D01*
X58985231Y-26983003D01*
X58985231Y-26983003D01*
G37*
G36*
X39871731Y-26983003D02*
X40065915Y-27063437D01*
X40240676Y-27180209D01*
X40389291Y-27328824D01*
X40506063Y-27503585D01*
X40586497Y-27697769D01*
X40627500Y-27903908D01*
X40627500Y-28114092D01*
X40586497Y-28320231D01*
X40506063Y-28514415D01*
X40389291Y-28689176D01*
X40240676Y-28837791D01*
X40065915Y-28954563D01*
X39871731Y-29034997D01*
X39665592Y-29076000D01*
X39455408Y-29076000D01*
X39249269Y-29034997D01*
X39055085Y-28954563D01*
X38880324Y-28837791D01*
X38731709Y-28689176D01*
X38614937Y-28514415D01*
X38534503Y-28320231D01*
X38493500Y-28114092D01*
X38493500Y-27903908D01*
X38534503Y-27697769D01*
X38614937Y-27503585D01*
X38731709Y-27328824D01*
X38880324Y-27180209D01*
X39055085Y-27063437D01*
X39249269Y-26983003D01*
X39455408Y-26942000D01*
X39665592Y-26942000D01*
X39871731Y-26983003D01*
X39871731Y-26983003D01*
G37*
G36*
X75236565Y-26399389D02*
X75427834Y-26478615D01*
X75599976Y-26593637D01*
X75746363Y-26740024D01*
X75861385Y-26912166D01*
X75940611Y-27103435D01*
X75981000Y-27306484D01*
X75981000Y-27513516D01*
X75940611Y-27716565D01*
X75861385Y-27907834D01*
X75746363Y-28079976D01*
X75599976Y-28226363D01*
X75427834Y-28341385D01*
X75236565Y-28420611D01*
X75033516Y-28461000D01*
X74826484Y-28461000D01*
X74623435Y-28420611D01*
X74432166Y-28341385D01*
X74260024Y-28226363D01*
X74113637Y-28079976D01*
X73998615Y-27907834D01*
X73919389Y-27716565D01*
X73879000Y-27513516D01*
X73879000Y-27306484D01*
X73919389Y-27103435D01*
X73998615Y-26912166D01*
X74113637Y-26740024D01*
X74260024Y-26593637D01*
X74432166Y-26478615D01*
X74623435Y-26399389D01*
X74826484Y-26359000D01*
X75033516Y-26359000D01*
X75236565Y-26399389D01*
X75236565Y-26399389D01*
G37*
G36*
X61634821Y-25196313D02*
X61634824Y-25196314D01*
X61634825Y-25196314D01*
X61795239Y-25244975D01*
X61795241Y-25244976D01*
X61795244Y-25244977D01*
X61943078Y-25323995D01*
X62072659Y-25430341D01*
X62179005Y-25559922D01*
X62258023Y-25707756D01*
X62258024Y-25707759D01*
X62258025Y-25707761D01*
X62299504Y-25844500D01*
X62306687Y-25868179D01*
X62323117Y-26035000D01*
X62306687Y-26201821D01*
X62306686Y-26201824D01*
X62306686Y-26201825D01*
X62259008Y-26359000D01*
X62258023Y-26362244D01*
X62179005Y-26510078D01*
X62072659Y-26639659D01*
X61943078Y-26746005D01*
X61795244Y-26825023D01*
X61795241Y-26825024D01*
X61795239Y-26825025D01*
X61634825Y-26873686D01*
X61634824Y-26873686D01*
X61634821Y-26873687D01*
X61509804Y-26886000D01*
X61426196Y-26886000D01*
X61301179Y-26873687D01*
X61301176Y-26873686D01*
X61301175Y-26873686D01*
X61140761Y-26825025D01*
X61140759Y-26825024D01*
X61140756Y-26825023D01*
X60992922Y-26746005D01*
X60863341Y-26639659D01*
X60756995Y-26510078D01*
X60677977Y-26362244D01*
X60676993Y-26359000D01*
X60629314Y-26201825D01*
X60629314Y-26201824D01*
X60629313Y-26201821D01*
X60612883Y-26035000D01*
X60629313Y-25868179D01*
X60636496Y-25844500D01*
X60677975Y-25707761D01*
X60677976Y-25707759D01*
X60677977Y-25707756D01*
X60756995Y-25559922D01*
X60863341Y-25430341D01*
X60992922Y-25323995D01*
X61140756Y-25244977D01*
X61140759Y-25244976D01*
X61140761Y-25244975D01*
X61301175Y-25196314D01*
X61301176Y-25196314D01*
X61301179Y-25196313D01*
X61426196Y-25184000D01*
X61509804Y-25184000D01*
X61634821Y-25196313D01*
X61634821Y-25196313D01*
G37*
G36*
X54699000Y-26886000D02*
X52997000Y-26886000D01*
X52997000Y-25184000D01*
X54699000Y-25184000D01*
X54699000Y-26886000D01*
X54699000Y-26886000D01*
G37*
G36*
X42965821Y-25196313D02*
X42965824Y-25196314D01*
X42965825Y-25196314D01*
X43126239Y-25244975D01*
X43126241Y-25244976D01*
X43126244Y-25244977D01*
X43274078Y-25323995D01*
X43403659Y-25430341D01*
X43510005Y-25559922D01*
X43589023Y-25707756D01*
X43589024Y-25707759D01*
X43589025Y-25707761D01*
X43630504Y-25844500D01*
X43637687Y-25868179D01*
X43654117Y-26035000D01*
X43637687Y-26201821D01*
X43637686Y-26201824D01*
X43637686Y-26201825D01*
X43590008Y-26359000D01*
X43589023Y-26362244D01*
X43510005Y-26510078D01*
X43403659Y-26639659D01*
X43274078Y-26746005D01*
X43126244Y-26825023D01*
X43126241Y-26825024D01*
X43126239Y-26825025D01*
X42965825Y-26873686D01*
X42965824Y-26873686D01*
X42965821Y-26873687D01*
X42840804Y-26886000D01*
X42757196Y-26886000D01*
X42632179Y-26873687D01*
X42632176Y-26873686D01*
X42632175Y-26873686D01*
X42471761Y-26825025D01*
X42471759Y-26825024D01*
X42471756Y-26825023D01*
X42323922Y-26746005D01*
X42194341Y-26639659D01*
X42087995Y-26510078D01*
X42008977Y-26362244D01*
X42007993Y-26359000D01*
X41960314Y-26201825D01*
X41960314Y-26201824D01*
X41960313Y-26201821D01*
X41943883Y-26035000D01*
X41960313Y-25868179D01*
X41967496Y-25844500D01*
X42008975Y-25707761D01*
X42008976Y-25707759D01*
X42008977Y-25707756D01*
X42087995Y-25559922D01*
X42194341Y-25430341D01*
X42323922Y-25323995D01*
X42471756Y-25244977D01*
X42471759Y-25244976D01*
X42471761Y-25244975D01*
X42632175Y-25196314D01*
X42632176Y-25196314D01*
X42632179Y-25196313D01*
X42757196Y-25184000D01*
X42840804Y-25184000D01*
X42965821Y-25196313D01*
X42965821Y-25196313D01*
G37*
G36*
X36030000Y-26886000D02*
X34328000Y-26886000D01*
X34328000Y-25184000D01*
X36030000Y-25184000D01*
X36030000Y-26886000D01*
X36030000Y-26886000D01*
G37*
G36*
X99544321Y-25132813D02*
X99544324Y-25132814D01*
X99544325Y-25132814D01*
X99704739Y-25181475D01*
X99704741Y-25181476D01*
X99704744Y-25181477D01*
X99852578Y-25260495D01*
X99982159Y-25366841D01*
X100088505Y-25496422D01*
X100167523Y-25644256D01*
X100216187Y-25804679D01*
X100232617Y-25971500D01*
X100216187Y-26138321D01*
X100216186Y-26138324D01*
X100216186Y-26138325D01*
X100196924Y-26201825D01*
X100167523Y-26298744D01*
X100088505Y-26446578D01*
X99982159Y-26576159D01*
X99852578Y-26682505D01*
X99704744Y-26761523D01*
X99704741Y-26761524D01*
X99704739Y-26761525D01*
X99544325Y-26810186D01*
X99544324Y-26810186D01*
X99544321Y-26810187D01*
X99419304Y-26822500D01*
X99335696Y-26822500D01*
X99210679Y-26810187D01*
X99210676Y-26810186D01*
X99210675Y-26810186D01*
X99050261Y-26761525D01*
X99050259Y-26761524D01*
X99050256Y-26761523D01*
X98902422Y-26682505D01*
X98772841Y-26576159D01*
X98666495Y-26446578D01*
X98587477Y-26298744D01*
X98558077Y-26201825D01*
X98538814Y-26138325D01*
X98538814Y-26138324D01*
X98538813Y-26138321D01*
X98522383Y-25971500D01*
X98538813Y-25804679D01*
X98587477Y-25644256D01*
X98666495Y-25496422D01*
X98772841Y-25366841D01*
X98902422Y-25260495D01*
X99050256Y-25181477D01*
X99050259Y-25181476D01*
X99050261Y-25181475D01*
X99210675Y-25132814D01*
X99210676Y-25132814D01*
X99210679Y-25132813D01*
X99335696Y-25120500D01*
X99419304Y-25120500D01*
X99544321Y-25132813D01*
X99544321Y-25132813D01*
G37*
G36*
X92608500Y-26822500D02*
X90906500Y-26822500D01*
X90906500Y-25120500D01*
X92608500Y-25120500D01*
X92608500Y-26822500D01*
X92608500Y-26822500D01*
G37*
G36*
X76874821Y-25005813D02*
X76874824Y-25005814D01*
X76874825Y-25005814D01*
X77035239Y-25054475D01*
X77035241Y-25054476D01*
X77035244Y-25054477D01*
X77183078Y-25133495D01*
X77312659Y-25239841D01*
X77419005Y-25369422D01*
X77498023Y-25517256D01*
X77546687Y-25677679D01*
X77563117Y-25844500D01*
X77546687Y-26011321D01*
X77498023Y-26171744D01*
X77419005Y-26319578D01*
X77312659Y-26449159D01*
X77183078Y-26555505D01*
X77035244Y-26634523D01*
X77035241Y-26634524D01*
X77035239Y-26634525D01*
X76874825Y-26683186D01*
X76874824Y-26683186D01*
X76874821Y-26683187D01*
X76749804Y-26695500D01*
X76666196Y-26695500D01*
X76541179Y-26683187D01*
X76541176Y-26683186D01*
X76541175Y-26683186D01*
X76380761Y-26634525D01*
X76380759Y-26634524D01*
X76380756Y-26634523D01*
X76232922Y-26555505D01*
X76103341Y-26449159D01*
X75996995Y-26319578D01*
X75917977Y-26171744D01*
X75869313Y-26011321D01*
X75852883Y-25844500D01*
X75869313Y-25677679D01*
X75917977Y-25517256D01*
X75996995Y-25369422D01*
X76103341Y-25239841D01*
X76232922Y-25133495D01*
X76380756Y-25054477D01*
X76380759Y-25054476D01*
X76380761Y-25054475D01*
X76541175Y-25005814D01*
X76541176Y-25005814D01*
X76541179Y-25005813D01*
X76666196Y-24993500D01*
X76749804Y-24993500D01*
X76874821Y-25005813D01*
X76874821Y-25005813D01*
G37*
G36*
X69939000Y-26695500D02*
X68237000Y-26695500D01*
X68237000Y-24993500D01*
X69939000Y-24993500D01*
X69939000Y-26695500D01*
X69939000Y-26695500D01*
G37*
G36*
X108539734Y-21308732D02*
X108749202Y-21395496D01*
X108937723Y-21521462D01*
X109098038Y-21681777D01*
X109224004Y-21870298D01*
X109310768Y-22079766D01*
X109355000Y-22302135D01*
X109355000Y-22528865D01*
X109310768Y-22751234D01*
X109224004Y-22960702D01*
X109098038Y-23149223D01*
X108937723Y-23309538D01*
X108749202Y-23435504D01*
X108539734Y-23522268D01*
X108317365Y-23566500D01*
X108090635Y-23566500D01*
X107868266Y-23522268D01*
X107658798Y-23435504D01*
X107470277Y-23309538D01*
X107309962Y-23149223D01*
X107183996Y-22960702D01*
X107097232Y-22751234D01*
X107053000Y-22528865D01*
X107053000Y-22302135D01*
X107097232Y-22079766D01*
X107183996Y-21870298D01*
X107309962Y-21681777D01*
X107470277Y-21521462D01*
X107658798Y-21395496D01*
X107868266Y-21308732D01*
X108090635Y-21264500D01*
X108317365Y-21264500D01*
X108539734Y-21308732D01*
X108539734Y-21308732D01*
G37*
G36*
X28402734Y-21245232D02*
X28612202Y-21331996D01*
X28800723Y-21457962D01*
X28961038Y-21618277D01*
X29087004Y-21806798D01*
X29173768Y-22016266D01*
X29218000Y-22238635D01*
X29218000Y-22465365D01*
X29173768Y-22687734D01*
X29087004Y-22897202D01*
X28961038Y-23085723D01*
X28800723Y-23246038D01*
X28612202Y-23372004D01*
X28402734Y-23458768D01*
X28180365Y-23503000D01*
X27953635Y-23503000D01*
X27731266Y-23458768D01*
X27521798Y-23372004D01*
X27333277Y-23246038D01*
X27172962Y-23085723D01*
X27046996Y-22897202D01*
X26960232Y-22687734D01*
X26916000Y-22465365D01*
X26916000Y-22238635D01*
X26960232Y-22016266D01*
X27046996Y-21806798D01*
X27172962Y-21618277D01*
X27333277Y-21457962D01*
X27521798Y-21331996D01*
X27731266Y-21245232D01*
X27953635Y-21201000D01*
X28180365Y-21201000D01*
X28402734Y-21245232D01*
X28402734Y-21245232D01*
G37*
G36*
X68471234Y-21245232D02*
X68680702Y-21331996D01*
X68869223Y-21457962D01*
X69029538Y-21618277D01*
X69155504Y-21806798D01*
X69242268Y-22016266D01*
X69286500Y-22238635D01*
X69286500Y-22465365D01*
X69242268Y-22687734D01*
X69155504Y-22897202D01*
X69029538Y-23085723D01*
X68869223Y-23246038D01*
X68680702Y-23372004D01*
X68471234Y-23458768D01*
X68248865Y-23503000D01*
X68022135Y-23503000D01*
X67799766Y-23458768D01*
X67590298Y-23372004D01*
X67401777Y-23246038D01*
X67241462Y-23085723D01*
X67115496Y-22897202D01*
X67028732Y-22687734D01*
X66984500Y-22465365D01*
X66984500Y-22238635D01*
X67028732Y-22016266D01*
X67115496Y-21806798D01*
X67241462Y-21618277D01*
X67401777Y-21457962D01*
X67590298Y-21331996D01*
X67799766Y-21245232D01*
X68022135Y-21201000D01*
X68248865Y-21201000D01*
X68471234Y-21245232D01*
X68471234Y-21245232D01*
G37*
G36*
X97231000Y-23296500D02*
X95629000Y-23296500D01*
X95629000Y-22194500D01*
X97231000Y-22194500D01*
X97231000Y-23296500D01*
X97231000Y-23296500D01*
G37*
G36*
X92331000Y-23296500D02*
X90729000Y-23296500D01*
X90729000Y-22194500D01*
X92331000Y-22194500D01*
X92331000Y-23296500D01*
X92331000Y-23296500D01*
G37*
G36*
X82996500Y-23296500D02*
X81394500Y-23296500D01*
X81394500Y-22194500D01*
X82996500Y-22194500D01*
X82996500Y-23296500D01*
X82996500Y-23296500D01*
G37*
G36*
X87896500Y-23296500D02*
X86294500Y-23296500D01*
X86294500Y-22194500D01*
X87896500Y-22194500D01*
X87896500Y-23296500D01*
X87896500Y-23296500D01*
G37*
G36*
X78816000Y-23296500D02*
X77214000Y-23296500D01*
X77214000Y-22194500D01*
X78816000Y-22194500D01*
X78816000Y-23296500D01*
X78816000Y-23296500D01*
G37*
G36*
X73916000Y-23296500D02*
X72314000Y-23296500D01*
X72314000Y-22194500D01*
X73916000Y-22194500D01*
X73916000Y-23296500D01*
X73916000Y-23296500D01*
G37*
G36*
X59565000Y-23296500D02*
X57963000Y-23296500D01*
X57963000Y-22194500D01*
X59565000Y-22194500D01*
X59565000Y-23296500D01*
X59565000Y-23296500D01*
G37*
G36*
X64465000Y-23296500D02*
X62863000Y-23296500D01*
X62863000Y-22194500D01*
X64465000Y-22194500D01*
X64465000Y-23296500D01*
X64465000Y-23296500D01*
G37*
G36*
X46367500Y-23233000D02*
X44765500Y-23233000D01*
X44765500Y-22131000D01*
X46367500Y-22131000D01*
X46367500Y-23233000D01*
X46367500Y-23233000D01*
G37*
G36*
X32323500Y-23233000D02*
X30721500Y-23233000D01*
X30721500Y-22131000D01*
X32323500Y-22131000D01*
X32323500Y-23233000D01*
X32323500Y-23233000D01*
G37*
G36*
X37223500Y-23233000D02*
X35621500Y-23233000D01*
X35621500Y-22131000D01*
X37223500Y-22131000D01*
X37223500Y-23233000D01*
X37223500Y-23233000D01*
G37*
G36*
X50484500Y-23233000D02*
X48882500Y-23233000D01*
X48882500Y-22131000D01*
X50484500Y-22131000D01*
X50484500Y-23233000D01*
X50484500Y-23233000D01*
G37*
G36*
X55384500Y-23233000D02*
X53782500Y-23233000D01*
X53782500Y-22131000D01*
X55384500Y-22131000D01*
X55384500Y-23233000D01*
X55384500Y-23233000D01*
G37*
G36*
X41467500Y-23233000D02*
X39865500Y-23233000D01*
X39865500Y-22131000D01*
X41467500Y-22131000D01*
X41467500Y-23233000D01*
X41467500Y-23233000D01*
G37*
G36*
X78816000Y-20096500D02*
X77214000Y-20096500D01*
X77214000Y-18994500D01*
X78816000Y-18994500D01*
X78816000Y-20096500D01*
X78816000Y-20096500D01*
G37*
G36*
X64465000Y-20096500D02*
X62863000Y-20096500D01*
X62863000Y-18994500D01*
X64465000Y-18994500D01*
X64465000Y-20096500D01*
X64465000Y-20096500D01*
G37*
G36*
X59565000Y-20096500D02*
X57963000Y-20096500D01*
X57963000Y-18994500D01*
X59565000Y-18994500D01*
X59565000Y-20096500D01*
X59565000Y-20096500D01*
G37*
G36*
X87896500Y-20096500D02*
X86294500Y-20096500D01*
X86294500Y-18994500D01*
X87896500Y-18994500D01*
X87896500Y-20096500D01*
X87896500Y-20096500D01*
G37*
G36*
X82996500Y-20096500D02*
X81394500Y-20096500D01*
X81394500Y-18994500D01*
X82996500Y-18994500D01*
X82996500Y-20096500D01*
X82996500Y-20096500D01*
G37*
G36*
X92331000Y-20096500D02*
X90729000Y-20096500D01*
X90729000Y-18994500D01*
X92331000Y-18994500D01*
X92331000Y-20096500D01*
X92331000Y-20096500D01*
G37*
G36*
X97231000Y-20096500D02*
X95629000Y-20096500D01*
X95629000Y-18994500D01*
X97231000Y-18994500D01*
X97231000Y-20096500D01*
X97231000Y-20096500D01*
G37*
G36*
X73916000Y-20096500D02*
X72314000Y-20096500D01*
X72314000Y-18994500D01*
X73916000Y-18994500D01*
X73916000Y-20096500D01*
X73916000Y-20096500D01*
G37*
G36*
X55384500Y-20033000D02*
X53782500Y-20033000D01*
X53782500Y-18931000D01*
X55384500Y-18931000D01*
X55384500Y-20033000D01*
X55384500Y-20033000D01*
G37*
G36*
X37223500Y-20033000D02*
X35621500Y-20033000D01*
X35621500Y-18931000D01*
X37223500Y-18931000D01*
X37223500Y-20033000D01*
X37223500Y-20033000D01*
G37*
G36*
X32323500Y-20033000D02*
X30721500Y-20033000D01*
X30721500Y-18931000D01*
X32323500Y-18931000D01*
X32323500Y-20033000D01*
X32323500Y-20033000D01*
G37*
G36*
X41467500Y-20033000D02*
X39865500Y-20033000D01*
X39865500Y-18931000D01*
X41467500Y-18931000D01*
X41467500Y-20033000D01*
X41467500Y-20033000D01*
G37*
G36*
X46367500Y-20033000D02*
X44765500Y-20033000D01*
X44765500Y-18931000D01*
X46367500Y-18931000D01*
X46367500Y-20033000D01*
X46367500Y-20033000D01*
G37*
G36*
X50484500Y-20033000D02*
X48882500Y-20033000D01*
X48882500Y-18931000D01*
X50484500Y-18931000D01*
X50484500Y-20033000D01*
X50484500Y-20033000D01*
G37*
M02*
