M48
;DRILL file {KiCad (5.0.2)-1} date 1/24/2019 2:24:06 AM
;FORMAT={-:-/ absolute / metric / decimal}
FMAT,2
METRIC,TZ
T1C0.800
T2C1.000
T3C1.092
T4C1.499
T5C1.500
T6C1.800
T7C2.200
T8C3.988
%
G90
G05
T1
X91.757Y-63.627
X99.377Y-63.627
X72.771Y-44.831
X80.391Y-44.831
X91.694Y-44.831
X99.314Y-44.831
X53.911Y-63.563
X61.531Y-63.563
X72.771Y-63.627
X80.391Y-63.627
X53.848Y-44.831
X61.468Y-44.831
X34.925Y-63.627
X42.545Y-63.627
X53.848Y-26.035
X61.468Y-26.035
X91.757Y-25.971
X99.377Y-25.971
X35.179Y-26.035
X42.799Y-26.035
X72.771Y-25.908
X80.391Y-25.908
X34.925Y-44.259
X42.545Y-44.259
T2
X89.344Y-31.623
X89.344Y-34.123
X89.344Y-36.623
X103.844Y-31.623
X103.844Y-36.623
X70.294Y-31.686
X70.294Y-34.186
X70.294Y-36.686
X84.794Y-31.686
X84.794Y-36.686
T3
X32.156Y-28.829
X32.156Y-33.909
X32.156Y-38.989
X32.156Y-44.069
X32.156Y-49.149
X32.156Y-54.229
X32.614Y-31.369
X32.614Y-36.449
X32.614Y-41.529
X32.614Y-46.609
X32.614Y-51.689
X32.614Y-56.769
X47.396Y-31.369
X47.396Y-36.449
X47.396Y-41.529
X47.396Y-46.609
X47.396Y-51.689
X47.396Y-56.769
X47.854Y-28.829
X47.854Y-33.909
X47.854Y-38.989
X47.854Y-44.069
X47.854Y-49.149
X47.854Y-54.229
T4
X54.8Y-69.469
X61.15Y-66.929
X35.75Y-50.419
X42.1Y-47.879
X35.75Y-31.369
X42.1Y-28.829
X73.85Y-31.369
X80.2Y-28.829
X92.964Y-31.369
X99.314Y-28.829
X92.964Y-69.532
X99.314Y-66.992
X54.8Y-50.419
X61.15Y-47.879
X54.864Y-31.369
X61.214Y-28.829
X73.914Y-50.419
X80.264Y-47.879
X92.9Y-50.419
X99.251Y-47.879
X35.814Y-69.469
X42.164Y-66.929
X73.85Y-69.469
X80.2Y-66.929
T6
X53.53Y-72.009
X63.691Y-72.009
X34.48Y-52.959
X44.64Y-52.959
X34.48Y-33.909
X44.64Y-33.909
X72.581Y-33.909
X82.74Y-33.909
X91.694Y-33.909
X101.854Y-33.909
X91.694Y-72.072
X101.854Y-72.072
X53.53Y-52.959
X63.691Y-52.959
X53.594Y-33.909
X63.754Y-33.909
X72.644Y-52.959
X82.804Y-52.959
X91.63Y-52.959
X101.79Y-52.959
X34.544Y-72.009
X44.704Y-72.009
X72.581Y-72.009
X82.74Y-72.009
T7
X68.135Y-22.352
X68.199Y-83.566
X28.067Y-83.502
X108.331Y-83.566
X28.067Y-22.352
X108.204Y-22.415
T8
X58.674Y-33.909
X58.61Y-72.009
X77.66Y-33.909
X39.624Y-72.009
X39.56Y-52.959
X39.56Y-33.909
X96.774Y-33.909
X96.774Y-72.072
X58.61Y-52.959
X77.724Y-52.959
X96.71Y-52.959
X77.66Y-72.009
T5
X96.194Y-28.523G85X97.495Y-28.523
G05
X96.194Y-39.723G85X97.495Y-39.723
G05
X77.144Y-28.586G85X78.444Y-28.586
G05
X77.144Y-39.786G85X78.444Y-39.786
G05
T0
M30
