G04 #@! TF.GenerationSoftware,KiCad,Pcbnew,(5.0.2)-1*
G04 #@! TF.CreationDate,2019-02-25T14:23:41-05:00*
G04 #@! TF.ProjectId,4x5macro,3478356d-6163-4726-9f2e-6b696361645f,rev?*
G04 #@! TF.SameCoordinates,Original*
G04 #@! TF.FileFunction,Copper,L1,Top*
G04 #@! TF.FilePolarity,Positive*
%FSLAX46Y46*%
G04 Gerber Fmt 4.6, Leading zero omitted, Abs format (unit mm)*
G04 Created by KiCad (PCBNEW (5.0.2)-1) date 2/25/2019 2:23:41 PM*
%MOMM*%
%LPD*%
G01*
G04 APERTURE LIST*
G04 #@! TA.AperFunction,ComponentPad*
%ADD10C,2.032000*%
G04 #@! TD*
G04 #@! TA.AperFunction,ComponentPad*
%ADD11R,2.000000X2.000000*%
G04 #@! TD*
G04 #@! TA.AperFunction,ComponentPad*
%ADD12C,2.000000*%
G04 #@! TD*
G04 #@! TA.AperFunction,ComponentPad*
%ADD13R,2.000000X3.200000*%
G04 #@! TD*
G04 #@! TA.AperFunction,SMDPad,CuDef*
%ADD14R,1.500000X1.000000*%
G04 #@! TD*
G04 #@! TA.AperFunction,ComponentPad*
%ADD15C,1.752600*%
G04 #@! TD*
G04 #@! TA.AperFunction,ComponentPad*
%ADD16R,1.752600X1.752600*%
G04 #@! TD*
G04 #@! TA.AperFunction,ComponentPad*
%ADD17R,1.600000X1.600000*%
G04 #@! TD*
G04 #@! TA.AperFunction,ComponentPad*
%ADD18O,1.600000X1.600000*%
G04 #@! TD*
G04 #@! TA.AperFunction,ViaPad*
%ADD19C,0.800000*%
G04 #@! TD*
G04 #@! TA.AperFunction,Conductor*
%ADD20C,0.250000*%
G04 #@! TD*
G04 APERTURE END LIST*
D10*
G04 #@! TO.P,SW7,1*
G04 #@! TO.N,Net-(D6-Pad2)*
X58610500Y-66109000D03*
G04 #@! TO.P,SW7,2*
G04 #@! TO.N,Net-(SW5-Pad2)*
X63610500Y-68209000D03*
G04 #@! TD*
D11*
G04 #@! TO.P,SW1,A*
G04 #@! TO.N,Net-(SW1-PadA)*
X74930000Y-41910000D03*
D12*
G04 #@! TO.P,SW1,C*
G04 #@! TO.N,Net-(SW1-PadC)*
X77430000Y-41910000D03*
G04 #@! TO.P,SW1,B*
G04 #@! TO.N,Net-(SW1-PadB)*
X79930000Y-41910000D03*
D13*
G04 #@! TO.P,SW1,MP*
G04 #@! TO.N,N/C*
X71830000Y-34410000D03*
X83030000Y-34410000D03*
D12*
G04 #@! TO.P,SW1,S2*
G04 #@! TO.N,Net-(D7-Pad2)*
X74930000Y-27410000D03*
G04 #@! TO.P,SW1,S1*
G04 #@! TO.N,Net-(SW1-PadS1)*
X79930000Y-27410000D03*
G04 #@! TD*
D14*
G04 #@! TO.P,D14,1*
G04 #@! TO.N,Net-(D13-Pad1)*
X45566500Y-22682000D03*
G04 #@! TO.P,D14,2*
G04 #@! TO.N,Net-(D14-Pad2)*
X45566500Y-19482000D03*
G04 #@! TO.P,D14,4*
G04 #@! TO.N,Net-(D13-Pad2)*
X40666500Y-22682000D03*
G04 #@! TO.P,D14,3*
G04 #@! TO.N,Net-(D13-Pad3)*
X40666500Y-19482000D03*
G04 #@! TD*
D10*
G04 #@! TO.P,SW9,1*
G04 #@! TO.N,Net-(D8-Pad2)*
X77724000Y-47059000D03*
G04 #@! TO.P,SW9,2*
G04 #@! TO.N,Net-(SW1-PadS1)*
X82724000Y-49159000D03*
G04 #@! TD*
D11*
G04 #@! TO.P,SW14,A*
G04 #@! TO.N,Net-(SW14-PadA)*
X94234000Y-41910000D03*
D12*
G04 #@! TO.P,SW14,C*
G04 #@! TO.N,Net-(SW1-PadC)*
X96734000Y-41910000D03*
G04 #@! TO.P,SW14,B*
G04 #@! TO.N,Net-(SW14-PadB)*
X99234000Y-41910000D03*
D13*
G04 #@! TO.P,SW14,MP*
G04 #@! TO.N,N/C*
X91134000Y-34410000D03*
X102334000Y-34410000D03*
D12*
G04 #@! TO.P,SW14,S2*
G04 #@! TO.N,Net-(D10-Pad2)*
X94234000Y-27410000D03*
G04 #@! TO.P,SW14,S1*
G04 #@! TO.N,Net-(SW11-Pad2)*
X99234000Y-27410000D03*
G04 #@! TD*
D15*
G04 #@! TO.P,U1,24*
G04 #@! TO.N,Net-(U1-Pad24)*
X47472600Y-28829000D03*
G04 #@! TO.P,U1,12*
G04 #@! TO.N,Net-(D12-Pad1)*
X32232600Y-56769000D03*
G04 #@! TO.P,U1,23*
G04 #@! TO.N,Net-(SW1-PadC)*
X47015400Y-31369000D03*
G04 #@! TO.P,U1,22*
G04 #@! TO.N,Net-(U1-Pad22)*
X47472600Y-33909000D03*
G04 #@! TO.P,U1,21*
G04 #@! TO.N,Net-(D13-Pad1)*
X47015400Y-36449000D03*
G04 #@! TO.P,U1,20*
G04 #@! TO.N,Net-(SW1-PadA)*
X47472600Y-38989000D03*
G04 #@! TO.P,U1,19*
G04 #@! TO.N,Net-(SW1-PadB)*
X47015400Y-41529000D03*
G04 #@! TO.P,U1,18*
G04 #@! TO.N,Net-(SW11-Pad2)*
X47472600Y-44069000D03*
G04 #@! TO.P,U1,17*
G04 #@! TO.N,Net-(SW1-PadS1)*
X47015400Y-46609000D03*
G04 #@! TO.P,U1,16*
G04 #@! TO.N,Net-(SW5-Pad2)*
X47472600Y-49149000D03*
G04 #@! TO.P,U1,15*
G04 #@! TO.N,Net-(SW2-Pad2)*
X47015400Y-51689000D03*
G04 #@! TO.P,U1,14*
G04 #@! TO.N,Net-(SW14-PadA)*
X47472600Y-54229000D03*
G04 #@! TO.P,U1,13*
G04 #@! TO.N,Net-(SW14-PadB)*
X47015400Y-56769000D03*
G04 #@! TO.P,U1,11*
G04 #@! TO.N,Net-(D11-Pad1)*
X31775400Y-54229000D03*
G04 #@! TO.P,U1,10*
G04 #@! TO.N,Net-(U1-Pad10)*
X32232600Y-51689000D03*
G04 #@! TO.P,U1,9*
G04 #@! TO.N,Net-(U1-Pad9)*
X31775400Y-49149000D03*
G04 #@! TO.P,U1,8*
G04 #@! TO.N,Net-(U1-Pad8)*
X32232600Y-46609000D03*
G04 #@! TO.P,U1,7*
G04 #@! TO.N,Net-(D1-Pad1)*
X31775400Y-44069000D03*
G04 #@! TO.P,U1,6*
G04 #@! TO.N,Net-(U1-Pad6)*
X32232600Y-41529000D03*
G04 #@! TO.P,U1,5*
G04 #@! TO.N,Net-(D13-Pad4)*
X31775400Y-38989000D03*
G04 #@! TO.P,U1,4*
G04 #@! TO.N,Net-(D13-Pad3)*
X32232600Y-36449000D03*
G04 #@! TO.P,U1,3*
G04 #@! TO.N,Net-(U1-Pad3)*
X31775400Y-33909000D03*
G04 #@! TO.P,U1,2*
G04 #@! TO.N,Net-(U1-Pad2)*
X32232600Y-31369000D03*
D16*
G04 #@! TO.P,U1,1*
G04 #@! TO.N,Net-(U1-Pad1)*
X31775400Y-28829000D03*
G04 #@! TD*
D10*
G04 #@! TO.P,SW4,1*
G04 #@! TO.N,Net-(D3-Pad2)*
X39624000Y-66109000D03*
G04 #@! TO.P,SW4,2*
G04 #@! TO.N,Net-(SW2-Pad2)*
X44624000Y-68209000D03*
G04 #@! TD*
G04 #@! TO.P,SW6,1*
G04 #@! TO.N,Net-(D5-Pad2)*
X58610500Y-47059000D03*
G04 #@! TO.P,SW6,2*
G04 #@! TO.N,Net-(SW5-Pad2)*
X63610500Y-49159000D03*
G04 #@! TD*
D17*
G04 #@! TO.P,D11,1*
G04 #@! TO.N,Net-(D11-Pad1)*
X91694000Y-44831000D03*
D18*
G04 #@! TO.P,D11,2*
G04 #@! TO.N,Net-(D11-Pad2)*
X99314000Y-44831000D03*
G04 #@! TD*
D10*
G04 #@! TO.P,SW11,1*
G04 #@! TO.N,Net-(D10-Pad2)*
X96774000Y-28009000D03*
G04 #@! TO.P,SW11,2*
G04 #@! TO.N,Net-(SW11-Pad2)*
X101774000Y-30109000D03*
G04 #@! TD*
G04 #@! TO.P,SW3,1*
G04 #@! TO.N,Net-(D2-Pad2)*
X39560500Y-47059000D03*
G04 #@! TO.P,SW3,2*
G04 #@! TO.N,Net-(SW2-Pad2)*
X44560500Y-49159000D03*
G04 #@! TD*
G04 #@! TO.P,SW2,1*
G04 #@! TO.N,Net-(D1-Pad2)*
X39560500Y-28009000D03*
G04 #@! TO.P,SW2,2*
G04 #@! TO.N,Net-(SW2-Pad2)*
X44560500Y-30109000D03*
G04 #@! TD*
G04 #@! TO.P,SW5,1*
G04 #@! TO.N,Net-(D4-Pad2)*
X58674000Y-28009000D03*
G04 #@! TO.P,SW5,2*
G04 #@! TO.N,Net-(SW5-Pad2)*
X63674000Y-30109000D03*
G04 #@! TD*
G04 #@! TO.P,SW8,1*
G04 #@! TO.N,Net-(D7-Pad2)*
X77660500Y-28009000D03*
G04 #@! TO.P,SW8,2*
G04 #@! TO.N,Net-(SW1-PadS1)*
X82660500Y-30109000D03*
G04 #@! TD*
G04 #@! TO.P,SW10,1*
G04 #@! TO.N,Net-(D9-Pad2)*
X77660500Y-66109000D03*
G04 #@! TO.P,SW10,2*
G04 #@! TO.N,Net-(SW1-PadS1)*
X82660500Y-68209000D03*
G04 #@! TD*
G04 #@! TO.P,SW12,1*
G04 #@! TO.N,Net-(D11-Pad2)*
X96710500Y-47059000D03*
G04 #@! TO.P,SW12,2*
G04 #@! TO.N,Net-(SW11-Pad2)*
X101710500Y-49159000D03*
G04 #@! TD*
G04 #@! TO.P,SW13,1*
G04 #@! TO.N,Net-(D12-Pad2)*
X96774000Y-66172500D03*
G04 #@! TO.P,SW13,2*
G04 #@! TO.N,Net-(SW11-Pad2)*
X101774000Y-68272500D03*
G04 #@! TD*
D17*
G04 #@! TO.P,D1,1*
G04 #@! TO.N,Net-(D1-Pad1)*
X35179000Y-26035000D03*
D18*
G04 #@! TO.P,D1,2*
G04 #@! TO.N,Net-(D1-Pad2)*
X42799000Y-26035000D03*
G04 #@! TD*
G04 #@! TO.P,D2,2*
G04 #@! TO.N,Net-(D2-Pad2)*
X42545000Y-44259500D03*
D17*
G04 #@! TO.P,D2,1*
G04 #@! TO.N,Net-(D11-Pad1)*
X34925000Y-44259500D03*
G04 #@! TD*
D18*
G04 #@! TO.P,D3,2*
G04 #@! TO.N,Net-(D3-Pad2)*
X42545000Y-63627000D03*
D17*
G04 #@! TO.P,D3,1*
G04 #@! TO.N,Net-(D12-Pad1)*
X34925000Y-63627000D03*
G04 #@! TD*
G04 #@! TO.P,D4,1*
G04 #@! TO.N,Net-(D1-Pad1)*
X53848000Y-26035000D03*
D18*
G04 #@! TO.P,D4,2*
G04 #@! TO.N,Net-(D4-Pad2)*
X61468000Y-26035000D03*
G04 #@! TD*
D17*
G04 #@! TO.P,D5,1*
G04 #@! TO.N,Net-(D11-Pad1)*
X53848000Y-44831000D03*
D18*
G04 #@! TO.P,D5,2*
G04 #@! TO.N,Net-(D5-Pad2)*
X61468000Y-44831000D03*
G04 #@! TD*
D17*
G04 #@! TO.P,D6,1*
G04 #@! TO.N,Net-(D12-Pad1)*
X53911500Y-63563500D03*
D18*
G04 #@! TO.P,D6,2*
G04 #@! TO.N,Net-(D6-Pad2)*
X61531500Y-63563500D03*
G04 #@! TD*
D17*
G04 #@! TO.P,D7,1*
G04 #@! TO.N,Net-(D1-Pad1)*
X69088000Y-25844500D03*
D18*
G04 #@! TO.P,D7,2*
G04 #@! TO.N,Net-(D7-Pad2)*
X76708000Y-25844500D03*
G04 #@! TD*
G04 #@! TO.P,D8,2*
G04 #@! TO.N,Net-(D8-Pad2)*
X80391000Y-44831000D03*
D17*
G04 #@! TO.P,D8,1*
G04 #@! TO.N,Net-(D11-Pad1)*
X72771000Y-44831000D03*
G04 #@! TD*
D18*
G04 #@! TO.P,D9,2*
G04 #@! TO.N,Net-(D9-Pad2)*
X80391000Y-63627000D03*
D17*
G04 #@! TO.P,D9,1*
G04 #@! TO.N,Net-(D12-Pad1)*
X72771000Y-63627000D03*
G04 #@! TD*
D18*
G04 #@! TO.P,D10,2*
G04 #@! TO.N,Net-(D10-Pad2)*
X96774000Y-24892000D03*
D17*
G04 #@! TO.P,D10,1*
G04 #@! TO.N,Net-(D1-Pad1)*
X89154000Y-24892000D03*
G04 #@! TD*
D18*
G04 #@! TO.P,D12,2*
G04 #@! TO.N,Net-(D12-Pad2)*
X99377500Y-63627000D03*
D17*
G04 #@! TO.P,D12,1*
G04 #@! TO.N,Net-(D12-Pad1)*
X91757500Y-63627000D03*
G04 #@! TD*
D14*
G04 #@! TO.P,D13,3*
G04 #@! TO.N,Net-(D13-Pad3)*
X31522500Y-19482000D03*
G04 #@! TO.P,D13,4*
G04 #@! TO.N,Net-(D13-Pad4)*
X31522500Y-22682000D03*
G04 #@! TO.P,D13,2*
G04 #@! TO.N,Net-(D13-Pad2)*
X36422500Y-19482000D03*
G04 #@! TO.P,D13,1*
G04 #@! TO.N,Net-(D13-Pad1)*
X36422500Y-22682000D03*
G04 #@! TD*
G04 #@! TO.P,D15,3*
G04 #@! TO.N,Net-(D13-Pad3)*
X49683500Y-19482000D03*
G04 #@! TO.P,D15,4*
G04 #@! TO.N,Net-(D14-Pad2)*
X49683500Y-22682000D03*
G04 #@! TO.P,D15,2*
G04 #@! TO.N,Net-(D15-Pad2)*
X54583500Y-19482000D03*
G04 #@! TO.P,D15,1*
G04 #@! TO.N,Net-(D13-Pad1)*
X54583500Y-22682000D03*
G04 #@! TD*
G04 #@! TO.P,D16,1*
G04 #@! TO.N,Net-(D13-Pad1)*
X63664000Y-22745500D03*
G04 #@! TO.P,D16,2*
G04 #@! TO.N,Net-(D16-Pad2)*
X63664000Y-19545500D03*
G04 #@! TO.P,D16,4*
G04 #@! TO.N,Net-(D15-Pad2)*
X58764000Y-22745500D03*
G04 #@! TO.P,D16,3*
G04 #@! TO.N,Net-(D13-Pad3)*
X58764000Y-19545500D03*
G04 #@! TD*
G04 #@! TO.P,D17,3*
G04 #@! TO.N,Net-(D13-Pad3)*
X73115000Y-19545500D03*
G04 #@! TO.P,D17,4*
G04 #@! TO.N,Net-(D16-Pad2)*
X73115000Y-22745500D03*
G04 #@! TO.P,D17,2*
G04 #@! TO.N,Net-(D17-Pad2)*
X78015000Y-19545500D03*
G04 #@! TO.P,D17,1*
G04 #@! TO.N,Net-(D13-Pad1)*
X78015000Y-22745500D03*
G04 #@! TD*
G04 #@! TO.P,D18,1*
G04 #@! TO.N,Net-(D13-Pad1)*
X87095500Y-22745500D03*
G04 #@! TO.P,D18,2*
G04 #@! TO.N,Net-(D18-Pad2)*
X87095500Y-19545500D03*
G04 #@! TO.P,D18,4*
G04 #@! TO.N,Net-(D17-Pad2)*
X82195500Y-22745500D03*
G04 #@! TO.P,D18,3*
G04 #@! TO.N,Net-(D13-Pad3)*
X82195500Y-19545500D03*
G04 #@! TD*
G04 #@! TO.P,D19,3*
G04 #@! TO.N,Net-(D13-Pad3)*
X91530000Y-19545500D03*
G04 #@! TO.P,D19,4*
G04 #@! TO.N,Net-(D18-Pad2)*
X91530000Y-22745500D03*
G04 #@! TO.P,D19,2*
G04 #@! TO.N,Net-(D19-Pad2)*
X96430000Y-19545500D03*
G04 #@! TO.P,D19,1*
G04 #@! TO.N,Net-(D13-Pad1)*
X96430000Y-22745500D03*
G04 #@! TD*
D19*
G04 #@! TO.N,Net-(D13-Pad1)*
X48514000Y-24130000D03*
G04 #@! TD*
D20*
G04 #@! TO.N,Net-(D1-Pad1)*
X52798000Y-26035000D02*
X53848000Y-26035000D01*
X51672999Y-24909999D02*
X52798000Y-26035000D01*
X42258999Y-24909999D02*
X51672999Y-24909999D01*
X41133998Y-26035000D02*
X42258999Y-24909999D01*
X35179000Y-26035000D02*
X41133998Y-26035000D01*
X35179000Y-27085000D02*
X35179000Y-26035000D01*
X36576000Y-28482000D02*
X35179000Y-27085000D01*
X36576000Y-39649400D02*
X36576000Y-28482000D01*
X32156400Y-44069000D02*
X36576000Y-39649400D01*
X88104000Y-24892000D02*
X89154000Y-24892000D01*
X87850000Y-24638000D02*
X88104000Y-24892000D01*
X69088000Y-24794500D02*
X69498500Y-24384000D01*
X69088000Y-25844500D02*
X69088000Y-24794500D01*
X80518000Y-24384000D02*
X80772000Y-24638000D01*
X69498500Y-24384000D02*
X80518000Y-24384000D01*
X80772000Y-24638000D02*
X87850000Y-24638000D01*
X53848000Y-24985000D02*
X54703000Y-24130000D01*
X53848000Y-26035000D02*
X53848000Y-24985000D01*
X54703000Y-24130000D02*
X65024000Y-24130000D01*
X66738500Y-25844500D02*
X69088000Y-25844500D01*
X65024000Y-24130000D02*
X66738500Y-25844500D01*
G04 #@! TO.N,Net-(D1-Pad2)*
X40825000Y-28009000D02*
X39560500Y-28009000D01*
X42799000Y-26035000D02*
X40825000Y-28009000D01*
G04 #@! TO.N,Net-(D2-Pad2)*
X39745500Y-47059000D02*
X39560500Y-47059000D01*
X42545000Y-44259500D02*
X39745500Y-47059000D01*
G04 #@! TO.N,Net-(D11-Pad1)*
X71721000Y-44831000D02*
X72771000Y-44831000D01*
X70595999Y-43705999D02*
X71721000Y-44831000D01*
X56023001Y-43705999D02*
X70595999Y-43705999D01*
X54898000Y-44831000D02*
X56023001Y-43705999D01*
X53848000Y-44831000D02*
X54898000Y-44831000D01*
X90644000Y-44831000D02*
X91694000Y-44831000D01*
X89518999Y-43705999D02*
X90644000Y-44831000D01*
X74946001Y-43705999D02*
X89518999Y-43705999D01*
X73821000Y-44831000D02*
X74946001Y-43705999D01*
X72771000Y-44831000D02*
X73821000Y-44831000D01*
X45836602Y-45270301D02*
X43434000Y-42867699D01*
X52358699Y-45270301D02*
X45836602Y-45270301D01*
X52798000Y-44831000D02*
X52358699Y-45270301D01*
X53848000Y-44831000D02*
X52798000Y-44831000D01*
X39883199Y-44259500D02*
X34925000Y-44259500D01*
X41275000Y-42867699D02*
X39883199Y-44259500D01*
X41275000Y-42867699D02*
X43434000Y-42867699D01*
X33032699Y-55105299D02*
X32156400Y-54229000D01*
X34782203Y-55105299D02*
X33032699Y-55105299D01*
X35975000Y-44259500D02*
X37663001Y-45947501D01*
X34925000Y-44259500D02*
X35975000Y-44259500D01*
X36801502Y-50391499D02*
X37663001Y-49530000D01*
X36801502Y-53086000D02*
X36801502Y-50391499D01*
X37663001Y-45947501D02*
X37663001Y-49530000D01*
X36801502Y-53086000D02*
X34782203Y-55105299D01*
G04 #@! TO.N,Net-(D3-Pad2)*
X40063000Y-66109000D02*
X39624000Y-66109000D01*
X42545000Y-63627000D02*
X40063000Y-66109000D01*
G04 #@! TO.N,Net-(D12-Pad1)*
X71721000Y-63627000D02*
X72771000Y-63627000D01*
X70532499Y-62438499D02*
X71721000Y-63627000D01*
X56086501Y-62438499D02*
X70532499Y-62438499D01*
X54961500Y-63563500D02*
X56086501Y-62438499D01*
X53911500Y-63563500D02*
X54961500Y-63563500D01*
X90707500Y-63627000D02*
X91757500Y-63627000D01*
X89582499Y-62501999D02*
X90707500Y-63627000D01*
X74946001Y-62501999D02*
X89582499Y-62501999D01*
X73821000Y-63627000D02*
X74946001Y-62501999D01*
X72771000Y-63627000D02*
X73821000Y-63627000D01*
X37100001Y-62501999D02*
X51799999Y-62501999D01*
X35975000Y-63627000D02*
X37100001Y-62501999D01*
X34925000Y-63627000D02*
X35975000Y-63627000D01*
X52861500Y-63563500D02*
X53911500Y-63563500D01*
X51799999Y-62501999D02*
X52861500Y-63563500D01*
X34925000Y-59080400D02*
X34925000Y-63627000D01*
X32613600Y-56769000D02*
X34925000Y-59080400D01*
G04 #@! TO.N,Net-(D4-Pad2)*
X59494000Y-28009000D02*
X58674000Y-28009000D01*
X61468000Y-26035000D02*
X59494000Y-28009000D01*
G04 #@! TO.N,Net-(D5-Pad2)*
X59240000Y-47059000D02*
X58610500Y-47059000D01*
X61468000Y-44831000D02*
X59240000Y-47059000D01*
G04 #@! TO.N,Net-(D6-Pad2)*
X61468000Y-63627000D02*
X61531500Y-63563500D01*
X58986000Y-66109000D02*
X58610500Y-66109000D01*
X61531500Y-63563500D02*
X58986000Y-66109000D01*
G04 #@! TO.N,Net-(D7-Pad2)*
X76708000Y-25844500D02*
X76495500Y-25844500D01*
X76943213Y-28009000D02*
X77660500Y-28009000D01*
X76344213Y-27410000D02*
X76943213Y-28009000D01*
X74930000Y-27410000D02*
X76344213Y-27410000D01*
X76932840Y-25844500D02*
X76708000Y-25844500D01*
X77660500Y-26572160D02*
X76932840Y-25844500D01*
X77660500Y-28009000D02*
X77660500Y-26572160D01*
X75142500Y-27410000D02*
X76708000Y-25844500D01*
X74930000Y-27410000D02*
X75142500Y-27410000D01*
G04 #@! TO.N,Net-(D8-Pad2)*
X78163000Y-47059000D02*
X77724000Y-47059000D01*
X80391000Y-44831000D02*
X78163000Y-47059000D01*
G04 #@! TO.N,Net-(D9-Pad2)*
X77909000Y-66109000D02*
X77660500Y-66109000D01*
X80391000Y-63627000D02*
X77909000Y-66109000D01*
G04 #@! TO.N,Net-(D10-Pad2)*
X95087000Y-28009000D02*
X94488000Y-27410000D01*
X96774000Y-28009000D02*
X95087000Y-28009000D01*
X96774000Y-26572160D02*
X96774000Y-24892000D01*
X96774000Y-28009000D02*
X96774000Y-26572160D01*
X96752000Y-24892000D02*
X96774000Y-24892000D01*
X94234000Y-27410000D02*
X96752000Y-24892000D01*
G04 #@! TO.N,Net-(D11-Pad2)*
X97086000Y-47059000D02*
X96710500Y-47059000D01*
X99314000Y-44831000D02*
X97086000Y-47059000D01*
G04 #@! TO.N,Net-(D12-Pad2)*
X99314000Y-63690500D02*
X99377500Y-63627000D01*
X96832000Y-66172500D02*
X96774000Y-66172500D01*
X99377500Y-63627000D02*
X96832000Y-66172500D01*
G04 #@! TO.N,Net-(SW1-PadB)*
X48272699Y-42405299D02*
X47396400Y-41529000D01*
X49102401Y-43235001D02*
X48272699Y-42405299D01*
X78604999Y-43235001D02*
X49102401Y-43235001D01*
X79930000Y-41910000D02*
X78604999Y-43235001D01*
G04 #@! TO.N,Net-(SW1-PadC)*
X48272699Y-32245299D02*
X47396400Y-31369000D01*
X53316099Y-37288699D02*
X48272699Y-32245299D01*
X72808699Y-37288699D02*
X53316099Y-37288699D01*
X77430000Y-41910000D02*
X72808699Y-37288699D01*
X94956000Y-39878000D02*
X96988000Y-41910000D01*
X88646000Y-39878000D02*
X94956000Y-39878000D01*
X87590000Y-38822000D02*
X88646000Y-39878000D01*
X77430000Y-41910000D02*
X80518000Y-38822000D01*
X80518000Y-38822000D02*
X87590000Y-38822000D01*
G04 #@! TO.N,Net-(SW1-PadA)*
X47472600Y-38989000D02*
X50393600Y-41910000D01*
X50393600Y-41910000D02*
X74930000Y-41910000D01*
G04 #@! TO.N,Net-(SW14-PadA)*
X92819001Y-47515999D02*
X84866599Y-55468401D01*
X49093001Y-55468401D02*
X47853600Y-54229000D01*
X53213000Y-55468401D02*
X49093001Y-55468401D01*
X53213000Y-55468401D02*
X52356901Y-55468401D01*
X84866599Y-55468401D02*
X53213000Y-55468401D01*
X92819001Y-47515999D02*
X92819001Y-46880999D01*
X94488000Y-45212000D02*
X94488000Y-41910000D01*
X92819001Y-46880999D02*
X94488000Y-45212000D01*
G04 #@! TO.N,Net-(SW14-PadB)*
X48635675Y-56769000D02*
X47396400Y-56769000D01*
X49486264Y-55918411D02*
X48635675Y-56769000D01*
X93281500Y-48119358D02*
X85482447Y-55918411D01*
X85482447Y-55918411D02*
X49486264Y-55918411D01*
X93281500Y-48119358D02*
X93281500Y-47180500D01*
X93472000Y-46990000D02*
X93726000Y-46990000D01*
X93281500Y-47180500D02*
X93472000Y-46990000D01*
X93726000Y-46990000D02*
X96774000Y-43942000D01*
X97456000Y-43942000D02*
X99488000Y-41910000D01*
X96774000Y-43942000D02*
X97456000Y-43942000D01*
G04 #@! TO.N,Net-(D13-Pad3)*
X39666500Y-19482000D02*
X40666500Y-19482000D01*
X38841499Y-18656999D02*
X39666500Y-19482000D01*
X33347501Y-18656999D02*
X38841499Y-18656999D01*
X32522500Y-19482000D02*
X33347501Y-18656999D01*
X31522500Y-19482000D02*
X32522500Y-19482000D01*
X48683500Y-19482000D02*
X49683500Y-19482000D01*
X47858499Y-18656999D02*
X48683500Y-19482000D01*
X42491501Y-18656999D02*
X47858499Y-18656999D01*
X40666500Y-19482000D02*
X41666500Y-19482000D01*
X57764000Y-19545500D02*
X58764000Y-19545500D01*
X56875499Y-18656999D02*
X57764000Y-19545500D01*
X51508501Y-18656999D02*
X56875499Y-18656999D01*
X50683500Y-19482000D02*
X51508501Y-18656999D01*
X49683500Y-19482000D02*
X50683500Y-19482000D01*
X72115000Y-19545500D02*
X73115000Y-19545500D01*
X71289999Y-18720499D02*
X72115000Y-19545500D01*
X60589001Y-18720499D02*
X71289999Y-18720499D01*
X59764000Y-19545500D02*
X60589001Y-18720499D01*
X58764000Y-19545500D02*
X59764000Y-19545500D01*
X81195500Y-19545500D02*
X82195500Y-19545500D01*
X80370499Y-18720499D02*
X81195500Y-19545500D01*
X74940001Y-18720499D02*
X80370499Y-18720499D01*
X74115000Y-19545500D02*
X74940001Y-18720499D01*
X73115000Y-19545500D02*
X74115000Y-19545500D01*
X90530000Y-19545500D02*
X91530000Y-19545500D01*
X89704999Y-18720499D02*
X90530000Y-19545500D01*
X84020501Y-18720499D02*
X89704999Y-18720499D01*
X83195500Y-19545500D02*
X84020501Y-18720499D01*
X82195500Y-19545500D02*
X83195500Y-19545500D01*
X42352500Y-18796000D02*
X42491501Y-18656999D01*
X41666500Y-19482000D02*
X42352500Y-18796000D01*
X31374325Y-36449000D02*
X29464000Y-34538675D01*
X32613600Y-36449000D02*
X31374325Y-36449000D01*
X29464000Y-34538675D02*
X29464000Y-27178000D01*
X29464000Y-27178000D02*
X33274000Y-23368000D01*
X31522500Y-20232000D02*
X31522500Y-19482000D01*
X33274000Y-21983500D02*
X31522500Y-20232000D01*
X33274000Y-23368000D02*
X33274000Y-21983500D01*
G04 #@! TO.N,Net-(D13-Pad4)*
X31522500Y-23432000D02*
X28511500Y-26443000D01*
X31522500Y-22682000D02*
X31522500Y-23432000D01*
X28511500Y-35344100D02*
X32156400Y-38989000D01*
X28511500Y-26443000D02*
X28511500Y-35344100D01*
G04 #@! TO.N,Net-(D13-Pad2)*
X39666500Y-22682000D02*
X40666500Y-22682000D01*
X38872500Y-22682000D02*
X39666500Y-22682000D01*
X36422500Y-20232000D02*
X38872500Y-22682000D01*
X36422500Y-19482000D02*
X36422500Y-20232000D01*
G04 #@! TO.N,Net-(D13-Pad1)*
X88095500Y-22745500D02*
X87095500Y-22745500D01*
X88920501Y-23570501D02*
X88095500Y-22745500D01*
X94604999Y-23570501D02*
X88920501Y-23570501D01*
X95430000Y-22745500D02*
X94604999Y-23570501D01*
X96430000Y-22745500D02*
X95430000Y-22745500D01*
X79015000Y-22745500D02*
X78015000Y-22745500D01*
X79840001Y-23570501D02*
X79015000Y-22745500D01*
X85270499Y-23570501D02*
X79840001Y-23570501D01*
X86095500Y-22745500D02*
X85270499Y-23570501D01*
X87095500Y-22745500D02*
X86095500Y-22745500D01*
X64664000Y-22745500D02*
X63664000Y-22745500D01*
X65695501Y-23777001D02*
X64664000Y-22745500D01*
X75983499Y-23777001D02*
X65695501Y-23777001D01*
X77015000Y-22745500D02*
X75983499Y-23777001D01*
X78015000Y-22745500D02*
X77015000Y-22745500D01*
X55583500Y-22682000D02*
X54583500Y-22682000D01*
X56472001Y-23570501D02*
X55583500Y-22682000D01*
X61838999Y-23570501D02*
X56472001Y-23570501D01*
X62664000Y-22745500D02*
X61838999Y-23570501D01*
X63664000Y-22745500D02*
X62664000Y-22745500D01*
X46566500Y-22682000D02*
X45566500Y-22682000D01*
X47391501Y-23507001D02*
X46566500Y-22682000D01*
X53583500Y-22682000D02*
X52758499Y-23507001D01*
X54583500Y-22682000D02*
X53583500Y-22682000D01*
X37422500Y-22682000D02*
X36422500Y-22682000D01*
X38247501Y-23507001D02*
X37422500Y-22682000D01*
X43741499Y-23507001D02*
X38247501Y-23507001D01*
X44566500Y-22682000D02*
X43741499Y-23507001D01*
X45566500Y-22682000D02*
X44566500Y-22682000D01*
X47752000Y-23507001D02*
X47891001Y-23507001D01*
X47752000Y-23507001D02*
X47391501Y-23507001D01*
X52758499Y-23507001D02*
X47752000Y-23507001D01*
X47891001Y-23507001D02*
X48514000Y-24130000D01*
X48514000Y-24130000D02*
X48514000Y-24130000D01*
G04 #@! TO.N,Net-(D14-Pad2)*
X49016500Y-22682000D02*
X49683500Y-22682000D01*
X45816500Y-19482000D02*
X49016500Y-22682000D01*
X45566500Y-19482000D02*
X45816500Y-19482000D01*
G04 #@! TO.N,Net-(D15-Pad2)*
X58514000Y-22745500D02*
X58764000Y-22745500D01*
X55250500Y-19482000D02*
X58514000Y-22745500D01*
X54583500Y-19482000D02*
X55250500Y-19482000D01*
G04 #@! TO.N,Net-(D16-Pad2)*
X73115000Y-21995500D02*
X73115000Y-22745500D01*
X70665000Y-19545500D02*
X73115000Y-21995500D01*
X63664000Y-19545500D02*
X70665000Y-19545500D01*
G04 #@! TO.N,Net-(D17-Pad2)*
X81195500Y-22745500D02*
X82195500Y-22745500D01*
X80465000Y-22745500D02*
X81195500Y-22745500D01*
X78015000Y-20295500D02*
X80465000Y-22745500D01*
X78015000Y-19545500D02*
X78015000Y-20295500D01*
G04 #@! TO.N,Net-(D18-Pad2)*
X90530000Y-22745500D02*
X91530000Y-22745500D01*
X89545500Y-22745500D02*
X90530000Y-22745500D01*
X87095500Y-20295500D02*
X89545500Y-22745500D01*
X87095500Y-19545500D02*
X87095500Y-20295500D01*
G04 #@! TD*
M02*
