<?xml version="1.0" encoding="utf-8"?>
<!-- Generator: Adobe Illustrator 23.0.0, SVG Export Plug-In . SVG Version: 6.00 Build 0)  -->
<svg version="1.1" xmlns="http://www.w3.org/2000/svg" xmlns:xlink="http://www.w3.org/1999/xlink" x="0px" y="0px"
	 viewBox="0 0 841.9 595.3" style="enable-background:new 0 0 841.9 595.3;" xml:space="preserve">
<style type="text/css">
	.st0{fill-opacity:0;stroke:#000000;stroke-width:0.2835;stroke-linecap:round;stroke-linejoin:round;}
	.st1{fill:#C2C2C2;fill-opacity:0;stroke:#C2C2C2;stroke-width:0.2835;stroke-linecap:round;stroke-linejoin:round;}
	.st2{fill:#848484;fill-opacity:0;stroke:#848484;stroke-width:0.2835;stroke-linecap:round;stroke-linejoin:round;}
	.st3{fill:#C2C200;fill-opacity:0;stroke:#C2C200;stroke-width:0.2835;stroke-linecap:round;stroke-linejoin:round;}
	.st4{fill:#FF0300;fill-opacity:0;stroke:#FF0300;stroke-width:0.2835;stroke-linecap:round;stroke-linejoin:round;}
	.st5{fill:none;stroke:#EC1C24;stroke-width:0.5669;stroke-linecap:round;stroke-linejoin:round;}
</style>
<g id="Layer_1">
	<title>SVG Picture created as 4x5macro-brd.svg date 2019/01/29 22:18:49</title>
	<desc>Picture generated by PCBNEW</desc>
	<g transform="translate(0 0) scale(1 1)">
	</g>
	<g>
		<rect x="501.7" y="470.6" class="st0" width="306.1" height="90.7"/>
	</g>
	<g>
		<rect x="28.3" y="28.3" class="st0" width="785.2" height="538.6"/>
	</g>
	<g>
		<rect x="34" y="34" class="st0" width="773.9" height="527.3"/>
	</g>
	<g>
		<path class="st0" d="M170.1,34v-5.7"/>
	</g>
	<g>
		<path class="st0" d="M311.8,34v-5.7"/>
	</g>
	<g>
		<path class="st0" d="M453.5,34v-5.7"/>
	</g>
	<g>
		<path class="st0" d="M595.3,34v-5.7"/>
	</g>
	<g>
		<path class="st0" d="M737,34v-5.7"/>
	</g>
	<g>
		<path class="st0" d="M102.2,32.8h-2.1"/>
		<path class="st0" d="M101.2,32.8v-3.7l-0.3,0.5l-0.4,0.4l-0.4,0.2"/>
	</g>
	<g>
		<path class="st0" d="M241.9,29.5l0.2-0.2l0.4-0.2h0.9l0.4,0.2l0.2,0.2l0.2,0.3v0.4l-0.2,0.5l-2.1,2.1h2.3"/>
	</g>
	<g>
		<path class="st0" d="M383.4,29.2h2.3l-1.2,1.4h0.5l0.4,0.2l0.2,0.2l0.2,0.3v0.9l-0.2,0.4l-0.2,0.2l-0.4,0.2h-1.1l-0.4-0.2
			l-0.2-0.2"/>
	</g>
	<g>
		<path class="st0" d="M527.1,30.4v2.5"/>
		<path class="st0" d="M526.2,29l-0.9,2.6h2.3"/>
	</g>
	<g>
		<path class="st0" d="M669,29.2h-1.7l-0.2,1.8l0.2-0.2l0.3-0.2h0.9l0.4,0.2l0.2,0.2l0.2,0.3v0.9l-0.2,0.4l-0.2,0.2l-0.4,0.2h-0.9
			l-0.3-0.2l-0.2-0.2"/>
	</g>
	<g>
		<path class="st0" d="M810.5,29.2h-0.7l-0.3,0.2l-0.2,0.2L809,30l-0.2,0.7v1.4l0.2,0.4l0.2,0.2l0.4,0.2h0.7l0.4-0.2l0.2-0.2
			l0.2-0.4v-0.9l-0.2-0.3l-0.2-0.2l-0.4-0.2h-0.7l-0.4,0.2l-0.2,0.2l-0.2,0.3"/>
	</g>
	<g>
		<path class="st0" d="M170.1,561.3v5.7"/>
	</g>
	<g>
		<path class="st0" d="M311.8,561.3v5.7"/>
	</g>
	<g>
		<path class="st0" d="M453.5,561.3v5.7"/>
	</g>
	<g>
		<path class="st0" d="M595.3,561.3v5.7"/>
	</g>
	<g>
		<path class="st0" d="M737,561.3v5.7"/>
	</g>
	<g>
		<path class="st0" d="M102.2,565.8h-2.1"/>
		<path class="st0" d="M101.2,565.8v-3.7l-0.3,0.5l-0.4,0.3l-0.4,0.2"/>
	</g>
	<g>
		<path class="st0" d="M241.9,562.4l0.2-0.2l0.4-0.2h0.9l0.4,0.2l0.2,0.2l0.2,0.4v0.4l-0.2,0.5l-2.1,2.1h2.3"/>
	</g>
	<g>
		<path class="st0" d="M383.4,562.1h2.3l-1.2,1.4h0.5l0.4,0.2l0.2,0.2l0.2,0.4v0.9l-0.2,0.4l-0.2,0.2l-0.4,0.2h-1.1l-0.4-0.2
			l-0.2-0.2"/>
	</g>
	<g>
		<path class="st0" d="M527.1,563.3v2.5"/>
		<path class="st0" d="M526.2,561.9l-0.9,2.6h2.3"/>
	</g>
	<g>
		<path class="st0" d="M669,562.1h-1.7l-0.2,1.7l0.2-0.2l0.3-0.2h0.9l0.4,0.2l0.2,0.2l0.2,0.4v0.9l-0.2,0.4l-0.2,0.2l-0.4,0.2h-0.9
			l-0.3-0.2l-0.2-0.2"/>
	</g>
	<g>
		<path class="st0" d="M810.5,562.1h-0.7l-0.3,0.2l-0.2,0.2L809,563l-0.2,0.7v1.4l0.2,0.4l0.2,0.2l0.4,0.2h0.7l0.4-0.2l0.2-0.2
			l0.2-0.4v-0.9l-0.2-0.4l-0.2-0.2l-0.4-0.2h-0.7l-0.4,0.2l-0.2,0.2l-0.2,0.4"/>
	</g>
	<g>
		<path class="st0" d="M28.3,170.1H34"/>
	</g>
	<g>
		<path class="st0" d="M28.3,311.8H34"/>
	</g>
	<g>
		<path class="st0" d="M28.3,453.5H34"/>
	</g>
	<g>
		<path class="st0" d="M30.3,99.8h1.8"/>
		<path class="st0" d="M30,100.9l1.2-3.7l1.2,3.7"/>
	</g>
	<g>
		<path class="st0" d="M31.4,240.7l0.5,0.2l0.2,0.2l0.2,0.4v0.5l-0.2,0.4l-0.2,0.2l-0.4,0.2h-1.4v-3.7h1.2l0.4,0.2l0.2,0.2l0.2,0.3
			v0.4l-0.2,0.4l-0.2,0.2L31.4,240.7h-1.2"/>
	</g>
	<g>
		<path class="st0" d="M32.3,384l-0.2,0.2l-0.5,0.2h-0.4l-0.5-0.2l-0.3-0.3l-0.2-0.4l-0.2-0.7v-0.5l0.2-0.7l0.2-0.4l0.3-0.4l0.5-0.2
			h0.4l0.5,0.2l0.2,0.2"/>
	</g>
	<g>
		<path class="st0" d="M30.2,526.1v-3.7h0.9l0.5,0.2l0.4,0.4l0.2,0.4l0.2,0.7v0.5l-0.2,0.7l-0.2,0.4l-0.4,0.3l-0.5,0.2H30.2"/>
	</g>
	<g>
		<path class="st0" d="M813.5,170.1h-5.7"/>
	</g>
	<g>
		<path class="st0" d="M813.5,311.8h-5.7"/>
	</g>
	<g>
		<path class="st0" d="M813.5,453.5h-5.7"/>
	</g>
	<g>
		<path class="st0" d="M809.8,99.8h1.8"/>
		<path class="st0" d="M809.5,100.9l1.2-3.7l1.2,3.7"/>
	</g>
	<g>
		<path class="st0" d="M811,240.7l0.5,0.2l0.2,0.2l0.2,0.4v0.5l-0.2,0.4l-0.2,0.2l-0.3,0.2h-1.4v-3.7h1.2l0.4,0.2l0.2,0.2l0.2,0.3
			v0.4l-0.2,0.4l-0.2,0.2L811,240.7h-1.2"/>
	</g>
	<g>
		<path class="st0" d="M811.8,384l-0.2,0.2l-0.5,0.2h-0.4l-0.5-0.2l-0.4-0.3l-0.2-0.4l-0.2-0.7v-0.5l0.2-0.7l0.2-0.4l0.4-0.4
			l0.5-0.2h0.4l0.5,0.2l0.2,0.2"/>
	</g>
	<g>
		<path class="st0" d="M809.7,526.1v-3.7h0.9l0.5,0.2l0.3,0.4l0.2,0.4l0.2,0.7v0.5l-0.2,0.7l-0.2,0.4l-0.3,0.3l-0.5,0.2H809.7"/>
	</g>
	<g>
		<path class="st0" d="M568.2,549.3v-4.2h1l0.6,0.2l0.4,0.4l0.2,0.4l0.2,0.8v0.6l-0.2,0.8l-0.2,0.4l-0.4,0.4l-0.6,0.2H568.2"/>
		<path class="st0" d="M574.2,549.3v-2.2l-0.2-0.4l-0.4-0.2h-0.8l-0.4,0.2"/>
		<path class="st0" d="M574.2,549.1l-0.4,0.2h-1l-0.4-0.2l-0.2-0.4v-0.4l0.2-0.4l0.4-0.2h1l0.4-0.2"/>
		<path class="st0" d="M575.6,546.5h1.6"/>
		<path class="st0" d="M576.3,545.1v3.6l0.2,0.4l0.4,0.2h0.4"/>
		<path class="st0" d="M580.3,549.1l-0.4,0.2h-0.8l-0.4-0.2l-0.2-0.4v-1.6l0.2-0.4l0.4-0.2h0.8l0.4,0.2l0.2,0.4v0.4l-2,0.4"/>
		<path class="st0" d="M582.3,548.9l0.2,0.2l-0.2,0.2l-0.2-0.2L582.3,548.9v0.4"/>
		<path class="st0" d="M582.3,546.7l0.2,0.2l-0.2,0.2l-0.2-0.2L582.3,546.7v0.4"/>
	</g>
	<g>
		<path class="st0" d="M501.7,551.4h306.1"/>
	</g>
	<g>
		<path class="st0" d="M505.8,557.2V553"/>
		<path class="st0" d="M508.2,557.2l-1.8-2.4"/>
		<path class="st0" d="M508.2,553l-2.4,2.4"/>
		<path class="st0" d="M510,557.2v-2.8"/>
		<path class="st0" d="M510,553l-0.2,0.2l0.2,0.2l0.2-0.2L510,553v0.4"/>
		<path class="st0" d="M514.5,556.8l-0.2,0.2l-0.6,0.2h-0.4l-0.6-0.2l-0.4-0.4l-0.2-0.4l-0.2-0.8v-0.6l0.2-0.8l0.2-0.4l0.4-0.4
			l0.6-0.2h0.4l0.6,0.2l0.2,0.2"/>
		<path class="st0" d="M518.1,557.2V555l-0.2-0.4l-0.4-0.2h-0.8l-0.4,0.2"/>
		<path class="st0" d="M518.1,557l-0.4,0.2h-1l-0.4-0.2l-0.2-0.4v-0.4l0.2-0.4l0.4-0.2h1l0.4-0.2"/>
		<path class="st0" d="M522,557.2V553"/>
		<path class="st0" d="M522,557l-0.4,0.2h-0.8l-0.4-0.2l-0.2-0.2l-0.2-0.4v-1.2l0.2-0.4l0.2-0.2l0.4-0.2h0.8l0.4,0.2"/>
		<path class="st0" d="M527.3,555h1.4"/>
		<path class="st0" d="M529.3,557.2h-2V553h2"/>
		<path class="st0" d="M531.1,556.8l0.2,0.2l-0.2,0.2l-0.2-0.2L531.1,556.8v0.4"/>
		<path class="st0" d="M533.1,557.2V553h1l0.6,0.2l0.4,0.4l0.2,0.4l0.2,0.8v0.6l-0.2,0.8l-0.2,0.4l-0.4,0.4l-0.6,0.2H533.1"/>
		<path class="st0" d="M537.4,556.8l0.2,0.2l-0.2,0.2l-0.2-0.2L537.4,556.8v0.4"/>
		<path class="st0" d="M539.2,556h2"/>
		<path class="st0" d="M538.8,557.2l1.4-4.2l1.4,4.2"/>
		<path class="st0" d="M543.1,556.8l0.2,0.2l-0.2,0.2l-0.2-0.2L543.1,556.8v0.4"/>
		<path class="st0" d="M551.6,557.2V553"/>
		<path class="st0" d="M552,555.6l1.2,1.6"/>
		<path class="st0" d="M553.2,554.4l-1.6,1.6"/>
		<path class="st0" d="M555,557.2v-2.8"/>
		<path class="st0" d="M555,553l-0.2,0.2l0.2,0.2l0.2-0.2L555,553v0.4"/>
		<path class="st0" d="M558.8,557l-0.4,0.2h-0.8l-0.4-0.2l-0.2-0.2l-0.2-0.4v-1.2l0.2-0.4l0.2-0.2l0.4-0.2h0.8l0.4,0.2"/>
		<path class="st0" d="M562.5,557.2V555l-0.2-0.4l-0.4-0.2h-0.8l-0.4,0.2"/>
		<path class="st0" d="M562.5,557l-0.4,0.2h-1l-0.4-0.2l-0.2-0.4v-0.4l0.2-0.4l0.4-0.2h1l0.4-0.2"/>
		<path class="st0" d="M566.3,557.2V553"/>
		<path class="st0" d="M566.3,557l-0.4,0.2h-0.8l-0.4-0.2l-0.2-0.2l-0.2-0.4v-1.2l0.2-0.4l0.2-0.2l0.4-0.2h0.8l0.4,0.2"/>
		<path class="st0" d="M572.8,558.9l-0.2-0.2l-0.4-0.6l-0.2-0.4l-0.2-0.6l-0.2-1v-0.8l0.2-1l0.2-0.6l0.2-0.4l0.4-0.6l0.2-0.2"/>
		<path class="st0" d="M576.5,553h-2l-0.2,2l0.2-0.2l0.4-0.2h1l0.4,0.2l0.2,0.2l0.2,0.4v1l-0.2,0.4l-0.2,0.2l-0.4,0.2h-1l-0.4-0.2
			l-0.2-0.2"/>
		<path class="st0" d="M578.5,556.8l0.2,0.2l-0.2,0.2l-0.2-0.2L578.5,556.8v0.4"/>
		<path class="st0" d="M581.3,553h0.4l0.4,0.2l0.2,0.2l0.2,0.4l0.2,0.8v1l-0.2,0.8l-0.2,0.4l-0.2,0.2l-0.4,0.2h-0.4l-0.4-0.2
			l-0.2-0.2l-0.2-0.4l-0.2-0.8v-1l0.2-0.8l0.2-0.4l0.2-0.2L581.3,553"/>
		<path class="st0" d="M584.6,556.8l0.2,0.2l-0.2,0.2l-0.2-0.2L584.6,556.8v0.4"/>
		<path class="st0" d="M586.4,553.4l0.2-0.2l0.4-0.2h1l0.4,0.2l0.2,0.2l0.2,0.4v0.4l-0.2,0.6l-2.4,2.4h2.6"/>
		<path class="st0" d="M590.2,558.9l0.2-0.2l0.4-0.6l0.2-0.4l0.2-0.6l0.2-1v-0.8l-0.2-1l-0.2-0.6l-0.2-0.4l-0.4-0.6l-0.2-0.2"/>
		<path class="st0" d="M593.5,555.6h3.2"/>
		<path class="st0" d="M601,557.2h-2.4"/>
		<path class="st0" d="M599.7,557.2V553l-0.4,0.6l-0.4,0.4l-0.4,0.2"/>
	</g>
	<g>
		<path class="st0" d="M501.7,542.9h306.1"/>
	</g>
	<g>
		<path class="st0" d="M749.5,549.3l-1.4-2"/>
		<path class="st0" d="M747.1,549.3v-4.2h1.6l0.4,0.2l0.2,0.2l0.2,0.4v0.6l-0.2,0.4l-0.2,0.2l-0.4,0.2h-1.6"/>
		<path class="st0" d="M753,549.1l-0.4,0.2h-0.8l-0.4-0.2l-0.2-0.4v-1.6l0.2-0.4l0.4-0.2h0.8l0.4,0.2l0.2,0.4v0.4l-2,0.4"/>
		<path class="st0" d="M754.6,546.5l1,2.8l1-2.8"/>
		<path class="st0" d="M758.2,548.9l0.2,0.2l-0.2,0.2l-0.2-0.2L758.2,548.9v0.4"/>
		<path class="st0" d="M758.2,546.7l0.2,0.2l-0.2,0.2l-0.2-0.2L758.2,546.7v0.4"/>
	</g>
	<g>
		<path class="st0" d="M505.6,549.1l0.6,0.2h1l0.4-0.2l0.2-0.2l0.2-0.4v-0.4l-0.2-0.4l-0.2-0.2l-0.4-0.2l-0.8-0.2l-0.4-0.2l-0.2-0.2
			l-0.2-0.4v-0.4l0.2-0.4l0.2-0.2l0.4-0.2h1l0.6,0.2"/>
		<path class="st0" d="M509.8,549.3v-2.8"/>
		<path class="st0" d="M509.8,545.1l-0.2,0.2l0.2,0.2l0.2-0.2L509.8,545.1v0.4"/>
		<path class="st0" d="M511.5,546.5h2.2l-2.2,2.8h2.2"/>
		<path class="st0" d="M516.9,549.1l-0.4,0.2h-0.8l-0.4-0.2l-0.2-0.4v-1.6l0.2-0.4l0.4-0.2h0.8l0.4,0.2l0.2,0.4v0.4l-2,0.4"/>
		<path class="st0" d="M519,548.9l0.2,0.2l-0.2,0.2l-0.2-0.2L519,548.9v0.4"/>
		<path class="st0" d="M519,546.7l0.2,0.2l-0.2,0.2l-0.2-0.2L519,546.7v0.4"/>
		<path class="st0" d="M524,548.1h2"/>
		<path class="st0" d="M523.6,549.3l1.4-4.2l1.4,4.2"/>
		<path class="st0" d="M529.7,546.5v2.8"/>
		<path class="st0" d="M528.7,544.9l-1,3h2.6"/>
	</g>
	<g>
		<path class="st0" d="M746.7,557.2V553"/>
		<path class="st0" d="M750.6,557.2V553"/>
		<path class="st0" d="M750.6,557l-0.4,0.2h-0.8L749,557l-0.2-0.2l-0.2-0.4v-1.2l0.2-0.4l0.2-0.2l0.4-0.2h0.8l0.4,0.2"/>
		<path class="st0" d="M752.6,556.8l0.2,0.2l-0.2,0.2l-0.2-0.2L752.6,556.8v0.4"/>
		<path class="st0" d="M752.6,554.6l0.2,0.2l-0.2,0.2l-0.2-0.2L752.6,554.6v0.4"/>
		<path class="st0" d="M760.1,557.2h-2.4"/>
		<path class="st0" d="M758.9,557.2V553l-0.4,0.6l-0.4,0.4l-0.4,0.2"/>
		<path class="st0" d="M765,552.8l-3.6,5.5"/>
		<path class="st0" d="M768.6,557.2h-2.4"/>
		<path class="st0" d="M767.4,557.2V553l-0.4,0.6l-0.4,0.4l-0.4,0.2"/>
	</g>
	<g>
		<path class="st0" d="M501.7,531.5h306.1"/>
	</g>
	<g>
		<path class="st0" d="M506.6,533.5h3.2"/>
		<path class="st0" d="M507.5,539.2l0.7-5.7"/>
		<path class="st0" d="M511,539.2l0.5-3.8"/>
		<path class="st0" d="M511.7,533.5l-0.3,0.3l0.2,0.3l0.3-0.3L511.7,533.5l-0.1,0.5"/>
		<path class="st0" d="M513.4,535.4h2.2"/>
		<path class="st0" d="M514.4,533.5l-0.6,4.9l0.2,0.5l0.5,0.3h0.5"/>
		<path class="st0" d="M517.8,539.2l-0.5-0.3l-0.2-0.5l0.6-4.9"/>
		<path class="st0" d="M522.1,538.9l-0.6,0.3h-1.1l-0.5-0.3l-0.2-0.5l0.3-2.2l0.3-0.5l0.6-0.3h1.1l0.5,0.3l0.2,0.5l-0.1,0.5
			l-2.8,0.5"/>
		<path class="st0" d="M524.8,538.6l0.2,0.3l-0.3,0.3l-0.2-0.3L524.8,538.6l-0.1,0.5"/>
		<path class="st0" d="M525.2,535.7l0.2,0.3l-0.3,0.3l-0.2-0.3L525.2,535.7l-0.1,0.5"/>
	</g>
	<g>
		<path class="st0" d="M507.2,526.1h-1.4"/>
		<path class="st0" d="M505.8,528.3v-4.3h2"/>
		<path class="st0" d="M509.4,528.3v-2.8"/>
		<path class="st0" d="M509.4,524.1l-0.2,0.2l0.2,0.2l0.2-0.2L509.4,524.1v0.4"/>
		<path class="st0" d="M512.1,528.3l-0.4-0.2l-0.2-0.4v-3.6"/>
		<path class="st0" d="M515.3,528.1l-0.4,0.2h-0.8l-0.4-0.2l-0.2-0.4v-1.6l0.2-0.4l0.4-0.2h0.8l0.4,0.2l0.2,0.4v0.4l-2,0.4"/>
		<path class="st0" d="M517.3,527.9l0.2,0.2l-0.2,0.2l-0.2-0.2L517.3,527.9v0.4"/>
		<path class="st0" d="M517.3,525.7l0.2,0.2l-0.2,0.2l-0.2-0.2L517.3,525.7v0.4"/>
		<path class="st0" d="M524.4,525.5v2.8"/>
		<path class="st0" d="M523.4,523.9l-1,3h2.6"/>
		<path class="st0" d="M526.2,528.3l2.2-2.8"/>
		<path class="st0" d="M526.2,525.5l2.2,2.8"/>
		<path class="st0" d="M532.1,524.1h-2l-0.2,2l0.2-0.2l0.4-0.2h1l0.4,0.2l0.2,0.2l0.2,0.4v1l-0.2,0.4l-0.2,0.2l-0.4,0.2h-1l-0.4-0.2
			l-0.2-0.2"/>
		<path class="st0" d="M534.1,528.3v-2.8"/>
		<path class="st0" d="M534.1,525.9l0.2-0.2l0.4-0.2h0.6l0.4,0.2l0.2,0.4v2.2"/>
		<path class="st0" d="M536,526.1l0.2-0.4l0.4-0.2h0.6l0.4,0.2l0.2,0.4v2.2"/>
		<path class="st0" d="M541.6,528.3v-2.2l-0.2-0.4l-0.4-0.2h-0.8l-0.4,0.2"/>
		<path class="st0" d="M541.6,528.1l-0.4,0.2h-1l-0.4-0.2l-0.2-0.4v-0.4l0.2-0.4l0.4-0.2h1l0.4-0.2"/>
		<path class="st0" d="M545.5,528.1l-0.4,0.2h-0.8l-0.4-0.2l-0.2-0.2l-0.2-0.4v-1.2l0.2-0.4l0.2-0.2l0.4-0.2h0.8l0.4,0.2"/>
		<path class="st0" d="M547.3,528.3v-2.8"/>
		<path class="st0" d="M547.3,526.3l0.2-0.4l0.2-0.2l0.4-0.2h0.4"/>
		<path class="st0" d="M550.5,528.3l-0.4-0.2l-0.2-0.2l-0.2-0.4v-1.2l0.2-0.4l0.2-0.2l0.4-0.2h0.6l0.4,0.2l0.2,0.2l0.2,0.4v1.2
			l-0.2,0.4l-0.2,0.2l-0.4,0.2H550.5"/>
		<path class="st0" d="M553.8,527.9l0.2,0.2l-0.2,0.2l-0.2-0.2L553.8,527.9v0.4"/>
		<path class="st0" d="M555.8,528.3v-4.3"/>
		<path class="st0" d="M556.2,526.7l1.2,1.6"/>
		<path class="st0" d="M557.4,525.5l-1.6,1.6"/>
		<path class="st0" d="M559.2,528.3v-2.8"/>
		<path class="st0" d="M559.2,524.1l-0.2,0.2l0.2,0.2l0.2-0.2L559.2,524.1v0.4"/>
		<path class="st0" d="M563.1,528.1l-0.4,0.2h-0.8l-0.4-0.2l-0.2-0.2l-0.2-0.4v-1.2l0.2-0.4l0.2-0.2l0.4-0.2h0.8l0.4,0.2"/>
		<path class="st0" d="M566.7,528.3v-2.2l-0.2-0.4l-0.4-0.2h-0.8l-0.4,0.2"/>
		<path class="st0" d="M566.7,528.1l-0.4,0.2h-1l-0.4-0.2l-0.2-0.4v-0.4l0.2-0.4l0.4-0.2h1l0.4-0.2"/>
		<path class="st0" d="M570.6,528.3v-4.3"/>
		<path class="st0" d="M570.6,528.1l-0.4,0.2h-0.8l-0.4-0.2l-0.2-0.2l-0.2-0.4v-1.2l0.2-0.4l0.2-0.2l0.4-0.2h0.8l0.4,0.2"/>
		<path class="st0" d="M571.6,528.7h3.2"/>
		<path class="st0" d="M575.8,525.5v4.3"/>
		<path class="st0" d="M575.8,525.7l0.4-0.2h0.8l0.4,0.2l0.2,0.2l0.2,0.4v1.2l-0.2,0.4l-0.2,0.2l-0.4,0.2h-0.8l-0.4-0.2"/>
		<path class="st0" d="M581.5,528.1l-0.4,0.2h-0.8l-0.4-0.2l-0.2-0.2l-0.2-0.4v-1.2l0.2-0.4l0.2-0.2l0.4-0.2h0.8l0.4,0.2"/>
		<path class="st0" d="M583.3,528.3v-4.3"/>
		<path class="st0" d="M583.3,525.7l0.4-0.2h0.8l0.4,0.2l0.2,0.2l0.2,0.4v1.2l-0.2,0.4l-0.2,0.2l-0.4,0.2h-0.8l-0.4-0.2"/>
	</g>
	<g>
		<path class="st0" d="M501.7,514.5h306.1"/>
	</g>
	<g>
		<path class="st0" d="M505.6,520.5l0.6,0.2h1l0.4-0.2l0.2-0.2l0.2-0.4v-0.4l-0.2-0.4l-0.2-0.2l-0.4-0.2l-0.8-0.2l-0.4-0.2l-0.2-0.2
			l-0.2-0.4v-0.4l0.2-0.4l0.2-0.2l0.4-0.2h1l0.6,0.2"/>
		<path class="st0" d="M509.8,520.7v-4.3"/>
		<path class="st0" d="M511.7,520.7v-2.2l-0.2-0.4l-0.4-0.2h-0.6L510,518l-0.2,0.2"/>
		<path class="st0" d="M515.3,520.5l-0.4,0.2h-0.8l-0.4-0.2l-0.2-0.4v-1.6l0.2-0.4l0.4-0.2h0.8l0.4,0.2l0.2,0.4v0.4l-2,0.4"/>
		<path class="st0" d="M519,520.5l-0.4,0.2h-0.8l-0.4-0.2l-0.2-0.4v-1.6l0.2-0.4l0.4-0.2h0.8l0.4,0.2l0.2,0.4v0.4l-2,0.4"/>
		<path class="st0" d="M520.4,517.8h1.6"/>
		<path class="st0" d="M521,516.4v3.6l0.2,0.4l0.4,0.2h0.4"/>
		<path class="st0" d="M523.4,520.3l0.2,0.2l-0.2,0.2l-0.2-0.2L523.4,520.3v0.4"/>
		<path class="st0" d="M523.4,518l0.2,0.2l-0.2,0.2l-0.2-0.2L523.4,518v0.4"/>
	</g>
	<g>
		<path class="st0" d="M558.4,542.9v8.5"/>
	</g>
	<g>
		<path class="st0" d="M739.8,542.9v18.4"/>
	</g>
	<g>
		<path class="st1" d="M239.6,73.4V123"/>
		<path class="st1" d="M239.6,73.4h-40.3"/>
		<path class="st1" d="M199.4,123h40.3"/>
		<path class="st1" d="M199.4,123V73.4"/>
		<path class="st1" d="M298.6,116.8H249"/>
		<path class="st1" d="M298.6,116.8V76.6"/>
		<path class="st1" d="M249,76.6v40.3"/>
		<path class="st1" d="M249,76.6h49.6"/>
		<path class="st1" d="M256.9,123.5v7.1"/>
		<path class="st1" d="M256.9,130.6h27.6"/>
		<path class="st1" d="M284.5,130.6v-7.1"/>
		<path class="st1" d="M284.5,123.5h-27.6"/>
		<path class="st1" d="M96.7,70.3v7.1"/>
		<path class="st1" d="M96.7,77.3h27.6"/>
		<path class="st1" d="M124.3,77.3v-7.1"/>
		<path class="st1" d="M124.3,70.3H96.7"/>
		<path class="st1" d="M123.6,121.9H96"/>
		<path class="st1" d="M123.6,129v-7.1"/>
		<path class="st1" d="M96,129h27.6"/>
		<path class="st1" d="M96,121.9v7.1"/>
		<path class="st1" d="M123.6,176.8H96"/>
		<path class="st1" d="M123.6,183.9v-7.1"/>
		<path class="st1" d="M96,183.9h27.6"/>
		<path class="st1" d="M96,176.8v7.1"/>
		<path class="st1" d="M149.7,70.3v7.1"/>
		<path class="st1" d="M149.7,77.3h27.6"/>
		<path class="st1" d="M177.2,77.3v-7.1"/>
		<path class="st1" d="M177.2,70.3h-27.6"/>
		<path class="st1" d="M149.7,123.5v7.1"/>
		<path class="st1" d="M149.7,130.6h27.6"/>
		<path class="st1" d="M177.2,130.6v-7.1"/>
		<path class="st1" d="M177.2,123.5h-27.6"/>
		<path class="st1" d="M149.8,176.6v7.1"/>
		<path class="st1" d="M149.8,183.7h27.6"/>
		<path class="st1" d="M177.4,183.7v-7.1"/>
		<path class="st1" d="M177.4,176.6h-27.6"/>
		<path class="st1" d="M192.9,69.7v7.1"/>
		<path class="st1" d="M192.9,76.8h27.6"/>
		<path class="st1" d="M220.4,76.8v-7.1"/>
		<path class="st1" d="M220.4,69.7h-27.6"/>
		<path class="st1" d="M230.9,123.5h-27.6"/>
		<path class="st1" d="M230.9,130.6v-7.1"/>
		<path class="st1" d="M203.3,130.6h27.6"/>
		<path class="st1" d="M203.3,123.5v7.1"/>
		<path class="st1" d="M230.9,176.8h-27.6"/>
		<path class="st1" d="M230.9,183.9v-7.1"/>
		<path class="st1" d="M203.3,183.9h27.6"/>
		<path class="st1" d="M203.3,176.8v7.1"/>
		<path class="st1" d="M284.7,70.1h-27.6"/>
		<path class="st1" d="M284.7,77.2v-7.1"/>
		<path class="st1" d="M257.1,77.2h27.6"/>
		<path class="st1" d="M257.1,70.1v7.1"/>
		<path class="st1" d="M284.7,176.8h-27.6"/>
		<path class="st1" d="M284.7,183.9v-7.1"/>
		<path class="st1" d="M257.1,183.9h27.6"/>
		<path class="st1" d="M257.1,176.8v7.1"/>
		<circle class="st1" cx="79.6" cy="63.4" r="6.9"/>
		<circle class="st1" cx="193.1" cy="63.4" r="6.9"/>
		<circle class="st1" cx="306.7" cy="63.5" r="6.9"/>
		<circle class="st1" cx="307.1" cy="236.9" r="6.9"/>
		<circle class="st1" cx="193.3" cy="236.9" r="6.9"/>
		<circle class="st1" cx="79.6" cy="236.7" r="6.9"/>
		<path class="st1" d="M86.5,67.6h19.6"/>
		<path class="st1" d="M86.5,52v15.6"/>
		<path class="st1" d="M106.1,52H86.5"/>
		<path class="st1" d="M106.1,67.6V52"/>
		<path class="st1" d="M132,67.6V52"/>
		<path class="st1" d="M132,52h-19.6"/>
		<path class="st1" d="M112.4,52v15.6"/>
		<path class="st1" d="M112.4,67.6H132"/>
		<path class="st1" d="M138,67.6h19.6"/>
		<path class="st1" d="M138,52v15.6"/>
		<path class="st1" d="M157.6,52H138"/>
		<path class="st1" d="M157.6,67.6V52"/>
		<path class="st1" d="M183.3,67.7V52.1"/>
		<path class="st1" d="M183.3,52.1h-19.6"/>
		<path class="st1" d="M163.7,52.1v15.6"/>
		<path class="st1" d="M163.7,67.7h19.6"/>
		<path class="st1" d="M204.4,67.7H224"/>
		<path class="st1" d="M204.4,52.1v15.6"/>
		<path class="st1" d="M224,52.1h-19.6"/>
		<path class="st1" d="M224,67.7V52.1"/>
		<path class="st1" d="M249.7,67.7V52.1"/>
		<path class="st1" d="M249.7,52.1h-19.6"/>
		<path class="st1" d="M230.2,52.1v15.6"/>
		<path class="st1" d="M230.2,67.7h19.6"/>
		<path class="st1" d="M256.6,67.7h19.6"/>
		<path class="st1" d="M256.6,52.1v15.6"/>
		<path class="st1" d="M276.2,52.1h-19.6"/>
		<path class="st1" d="M276.2,67.7V52.1"/>
	</g>
	<g>
		<circle class="st2" cx="219.5" cy="97.5" r="8.5"/>
		<path class="st2" d="M203,111.7V80.5"/>
		<path class="st2" d="M203,80.5h32.9"/>
		<path class="st2" d="M235.9,80.5v34"/>
		<path class="st2" d="M235.9,114.5h-29.8"/>
		<path class="st2" d="M206.2,114.5l-3.1-2.8"/>
		<path class="st2" d="M211,97.5h17"/>
		<path class="st2" d="M219.5,106V89"/>
		<circle class="st2" cx="274.5" cy="96.7" r="8.5"/>
		<path class="st2" d="M260.3,80.3h31.2"/>
		<path class="st2" d="M291.5,80.3v32.9"/>
		<path class="st2" d="M291.5,113.2h-34"/>
		<path class="st2" d="M257.5,113.2V83.4"/>
		<path class="st2" d="M257.5,83.4l2.8-3.1"/>
		<path class="st2" d="M274.5,88.2v17"/>
		<path class="st2" d="M266,96.7h17"/>
	</g>
	<g>
		<path class="st2" d="M265,124.2v5.7"/>
		<path class="st2" d="M265,129.9h11.3"/>
		<path class="st2" d="M276.4,129.9v-5.7"/>
		<path class="st2" d="M276.4,124.2H265"/>
		<path class="st2" d="M259.9,127.1h5.1"/>
		<path class="st2" d="M281.5,127.1h-5.1"/>
		<path class="st2" d="M266.7,124.2v5.7"/>
		<path class="st2" d="M267,124.2v5.7"/>
		<path class="st2" d="M266.5,124.2v5.7"/>
		<path class="st2" d="M104.8,71v5.7"/>
		<path class="st2" d="M104.8,76.6h11.3"/>
		<path class="st2" d="M116.2,76.6V71"/>
		<path class="st2" d="M116.2,71h-11.3"/>
		<path class="st2" d="M99.7,73.8h5.1"/>
		<path class="st2" d="M121.3,73.8h-5.1"/>
		<path class="st2" d="M106.5,71v5.7"/>
		<path class="st2" d="M106.8,71v5.7"/>
		<path class="st2" d="M106.3,71v5.7"/>
		<path class="st2" d="M105.5,122.6v5.7"/>
		<path class="st2" d="M106.1,122.6v5.7"/>
		<path class="st2" d="M105.8,122.6v5.7"/>
		<path class="st2" d="M120.6,125.5h-5.1"/>
		<path class="st2" d="M99,125.5h5.1"/>
		<path class="st2" d="M115.5,122.6h-11.3"/>
		<path class="st2" d="M115.5,128.3v-5.7"/>
		<path class="st2" d="M104.1,128.3h11.3"/>
		<path class="st2" d="M104.1,122.6v5.7"/>
		<path class="st2" d="M105.5,177.5v5.7"/>
		<path class="st2" d="M106.1,177.5v5.7"/>
		<path class="st2" d="M105.8,177.5v5.7"/>
		<path class="st2" d="M120.6,180.4h-5.1"/>
		<path class="st2" d="M99,180.4h5.1"/>
		<path class="st2" d="M115.5,177.5h-11.3"/>
		<path class="st2" d="M115.5,183.2v-5.7"/>
		<path class="st2" d="M104.1,183.2h11.3"/>
		<path class="st2" d="M104.1,177.5v5.7"/>
		<path class="st2" d="M157.8,71v5.7"/>
		<path class="st2" d="M157.8,76.6h11.3"/>
		<path class="st2" d="M169.1,76.6V71"/>
		<path class="st2" d="M169.1,71h-11.3"/>
		<path class="st2" d="M152.6,73.8h5.1"/>
		<path class="st2" d="M174.2,73.8h-5.1"/>
		<path class="st2" d="M159.5,71v5.7"/>
		<path class="st2" d="M159.8,71v5.7"/>
		<path class="st2" d="M159.2,71v5.7"/>
		<path class="st2" d="M157.8,124.2v5.7"/>
		<path class="st2" d="M157.8,129.9h11.3"/>
		<path class="st2" d="M169.1,129.9v-5.7"/>
		<path class="st2" d="M169.1,124.2h-11.3"/>
		<path class="st2" d="M152.6,127.1h5.1"/>
		<path class="st2" d="M174.2,127.1h-5.1"/>
		<path class="st2" d="M159.5,124.2v5.7"/>
		<path class="st2" d="M159.8,124.2v5.7"/>
		<path class="st2" d="M159.2,124.2v5.7"/>
		<path class="st2" d="M157.9,177.3v5.7"/>
		<path class="st2" d="M157.9,183h11.3"/>
		<path class="st2" d="M169.3,183v-5.7"/>
		<path class="st2" d="M169.3,177.3h-11.3"/>
		<path class="st2" d="M152.8,180.2h5.1"/>
		<path class="st2" d="M174.4,180.2h-5.1"/>
		<path class="st2" d="M159.6,177.3v5.7"/>
		<path class="st2" d="M159.9,177.3v5.7"/>
		<path class="st2" d="M159.4,177.3v5.7"/>
		<path class="st2" d="M201,70.4v5.7"/>
		<path class="st2" d="M201,76.1h11.3"/>
		<path class="st2" d="M212.3,76.1v-5.7"/>
		<path class="st2" d="M212.3,70.4H201"/>
		<path class="st2" d="M195.8,73.3h5.1"/>
		<path class="st2" d="M217.4,73.3h-5.1"/>
		<path class="st2" d="M202.7,70.4v5.7"/>
		<path class="st2" d="M203,70.4v5.7"/>
		<path class="st2" d="M202.4,70.4v5.7"/>
		<path class="st2" d="M212.8,124.2v5.7"/>
		<path class="st2" d="M213.4,124.2v5.7"/>
		<path class="st2" d="M213.1,124.2v5.7"/>
		<path class="st2" d="M227.9,127.1h-5.1"/>
		<path class="st2" d="M206.3,127.1h5.1"/>
		<path class="st2" d="M222.7,124.2h-11.3"/>
		<path class="st2" d="M222.7,129.9v-5.7"/>
		<path class="st2" d="M211.4,129.9h11.3"/>
		<path class="st2" d="M211.4,124.2v5.7"/>
		<path class="st2" d="M212.8,177.5v5.7"/>
		<path class="st2" d="M213.4,177.5v5.7"/>
		<path class="st2" d="M213.1,177.5v5.7"/>
		<path class="st2" d="M227.9,180.4h-5.1"/>
		<path class="st2" d="M206.3,180.4h5.1"/>
		<path class="st2" d="M222.7,177.5h-11.3"/>
		<path class="st2" d="M222.7,183.2v-5.7"/>
		<path class="st2" d="M211.4,183.2h11.3"/>
		<path class="st2" d="M211.4,177.5v5.7"/>
		<path class="st2" d="M266.6,70.8v5.7"/>
		<path class="st2" d="M267.2,70.8v5.7"/>
		<path class="st2" d="M266.9,70.8v5.7"/>
		<path class="st2" d="M281.7,73.6h-5.1"/>
		<path class="st2" d="M260.1,73.6h5.1"/>
		<path class="st2" d="M276.6,70.8h-11.3"/>
		<path class="st2" d="M276.6,76.4v-5.7"/>
		<path class="st2" d="M265.2,76.4h11.3"/>
		<path class="st2" d="M265.2,70.8v5.7"/>
		<path class="st2" d="M266.6,177.5v5.7"/>
		<path class="st2" d="M267.2,177.5v5.7"/>
		<path class="st2" d="M266.9,177.5v5.7"/>
		<path class="st2" d="M281.7,180.4h-5.1"/>
		<path class="st2" d="M260.1,180.4h5.1"/>
		<path class="st2" d="M276.6,177.5h-11.3"/>
		<path class="st2" d="M276.6,183.2v-5.7"/>
		<path class="st2" d="M265.2,183.2h11.3"/>
		<path class="st2" d="M265.2,177.5v5.7"/>
		<path class="st2" d="M89.2,55.5l2.8-2.8"/>
		<path class="st2" d="M103.4,66.8V52.7"/>
		<path class="st2" d="M103.4,52.7H89.2"/>
		<path class="st2" d="M89.2,52.7v14.2"/>
		<path class="st2" d="M89.2,66.8h14.2"/>
		<circle class="st2" cx="96.3" cy="59.8" r="5.7"/>
		<circle class="st2" cx="122.2" cy="59.8" r="5.7"/>
		<path class="st2" d="M115.1,66.8h14.2"/>
		<path class="st2" d="M115.1,52.7v14.2"/>
		<path class="st2" d="M129.3,52.7h-14.2"/>
		<path class="st2" d="M129.3,66.8V52.7"/>
		<path class="st2" d="M115.1,55.5l2.8-2.8"/>
		<path class="st2" d="M140.7,55.5l2.8-2.8"/>
		<path class="st2" d="M154.9,66.8V52.7"/>
		<path class="st2" d="M154.9,52.7h-14.2"/>
		<path class="st2" d="M140.7,52.7v14.2"/>
		<path class="st2" d="M140.7,66.8h14.2"/>
		<circle class="st2" cx="147.8" cy="59.8" r="5.7"/>
		<circle class="st2" cx="173.5" cy="59.9" r="5.7"/>
		<path class="st2" d="M166.4,67h14.2"/>
		<path class="st2" d="M166.4,52.8V67"/>
		<path class="st2" d="M180.6,52.8h-14.2"/>
		<path class="st2" d="M180.6,67V52.8"/>
		<path class="st2" d="M166.4,55.7l2.8-2.8"/>
		<path class="st2" d="M207.1,55.7l2.8-2.8"/>
		<path class="st2" d="M221.3,67V52.8"/>
		<path class="st2" d="M221.3,52.8h-14.2"/>
		<path class="st2" d="M207.1,52.8V67"/>
		<path class="st2" d="M207.1,67h14.2"/>
		<circle class="st2" cx="214.2" cy="59.9" r="5.7"/>
		<circle class="st2" cx="239.9" cy="59.9" r="5.7"/>
		<path class="st2" d="M232.8,67H247"/>
		<path class="st2" d="M232.8,52.8V67"/>
		<path class="st2" d="M247,52.8h-14.2"/>
		<path class="st2" d="M247,67V52.8"/>
		<path class="st2" d="M232.8,55.7l2.8-2.8"/>
		<path class="st2" d="M259.3,55.7l2.8-2.8"/>
		<path class="st2" d="M273.5,67V52.8"/>
		<path class="st2" d="M273.5,52.8h-14.2"/>
		<path class="st2" d="M259.3,52.8V67"/>
		<path class="st2" d="M259.3,67h14.2"/>
		<circle class="st2" cx="266.4" cy="59.9" r="5.7"/>
	</g>
	<g>
		<path class="st2" d="M211.7,175.9l0.4,0.1h0.7l0.3-0.1l0.1-0.1l0.1-0.3v-0.3l-0.1-0.3l-0.1-0.1l-0.3-0.1l-0.5-0.1l-0.3-0.1
			l-0.1-0.1l-0.1-0.3v-0.3l0.1-0.3l0.1-0.1l0.3-0.1h0.7l0.4,0.1"/>
		<path class="st2" d="M214.2,173.2l0.7,2.8l0.5-2l0.5,2l0.7-2.8"/>
		<path class="st2" d="M217.1,176.3h2.2"/>
		<path class="st2" d="M219.9,176.1v-2.8h1.1l0.3,0.1l0.1,0.1l0.1,0.3v0.4l-0.1,0.3l-0.1,0.1l-0.3,0.1h-1.1"/>
		<path class="st2" d="M224,174.2v1.9"/>
		<path class="st2" d="M222.7,174.2v1.5l0.1,0.3l0.3,0.1h0.4l0.3-0.1l0.1-0.1"/>
		<path class="st2" d="M225.2,175.9l0.3,0.1h0.5l0.3-0.1l0.1-0.3v-0.1l-0.1-0.3l-0.3-0.1h-0.4l-0.3-0.1l-0.1-0.3v-0.1l0.1-0.3
			l0.3-0.1h0.4l0.3,0.1"/>
		<path class="st2" d="M227.6,176.1v-2.8"/>
		<path class="st2" d="M228.8,176.1v-1.5l-0.1-0.3l-0.3-0.1H228l-0.3,0.1l-0.1,0.1"/>
		<path class="st2" d="M243.2,111.5l-1.3,0.9"/>
		<path class="st2" d="M243.2,113.1h-2.8V112l0.1-0.3l0.1-0.1l0.3-0.1h0.4l0.3,0.1l0.1,0.1l0.1,0.3v1.1"/>
		<path class="st2" d="M243.2,109.9l-0.1,0.3l-0.1,0.1l-0.3,0.1h-0.8l-0.3-0.1l-0.1-0.1l-0.1-0.3v-0.4l0.1-0.3l0.1-0.1l0.3-0.1h0.8
			l0.3,0.1l0.1,0.1l0.1,0.3V109.9"/>
		<path class="st2" d="M241.3,108.1V107"/>
		<path class="st2" d="M240.3,107.7h2.4l0.3-0.1l0.1-0.3V107"/>
		<path class="st2" d="M243.2,104.9h-1.5l-0.3,0.1l-0.1,0.3v0.5l0.1,0.3"/>
		<path class="st2" d="M243,104.9l0.1,0.3v0.7l-0.1,0.3l-0.3,0.1h-0.3l-0.3-0.1l-0.1-0.3v-0.7l-0.1-0.3"/>
		<path class="st2" d="M243.2,103.5h-1.9"/>
		<path class="st2" d="M241.8,103.5l-0.3-0.1l-0.1-0.1l-0.1-0.3v-0.3"/>
		<path class="st2" d="M241.3,102.1l1.9-0.7"/>
		<path class="st2" d="M241.3,100.7l1.9,0.7l0.7,0.3l0.1,0.1l0.1,0.3"/>
		<path class="st2" d="M243.4,100.3v-2.2"/>
		<path class="st2" d="M241.7,97.5v-0.9"/>
		<path class="st2" d="M243.2,96.1v1.3h-2.8v-1.3"/>
		<path class="st2" d="M241.3,94.9h1.9"/>
		<path class="st2" d="M241.5,94.9l-0.1-0.1l-0.1-0.3v-0.4l0.1-0.3l0.3-0.1h1.5"/>
		<path class="st2" d="M243,91.1l0.1,0.3v0.5l-0.1,0.3l-0.1,0.1l-0.3,0.1h-0.8l-0.3-0.1l-0.1-0.1l-0.1-0.3v-0.5l0.1-0.3"/>
		<path class="st2" d="M243.2,89.5l-0.1,0.3l-0.1,0.1l-0.3,0.1h-0.8l-0.3-0.1l-0.1-0.1l-0.1-0.3v-0.4l0.1-0.3l0.1-0.1l0.3-0.1h0.8
			l0.3,0.1l0.1,0.1l0.1,0.3V89.5"/>
		<path class="st2" d="M243.2,86.1h-2.8"/>
		<path class="st2" d="M243,86.1l0.1,0.3v0.5l-0.1,0.3l-0.1,0.1l-0.3,0.1h-0.8l-0.3-0.1l-0.1-0.1l-0.1-0.3v-0.5l0.1-0.3"/>
		<path class="st2" d="M243,83.7l0.1,0.3v0.5l-0.1,0.3l-0.3,0.1h-1.1l-0.3-0.1l-0.1-0.3V84l0.1-0.3l0.3-0.1h0.3l0.3,1.4"/>
		<path class="st2" d="M243.2,82.4h-1.9"/>
		<path class="st2" d="M241.8,82.4l-0.3-0.1l-0.1-0.1l-0.1-0.3v-0.3"/>
		<path class="st2" d="M231.4,91.1l0.1-0.4V90l-0.1-0.3l-0.1-0.1l-0.3-0.1h-0.3l-0.3,0.1l-0.1,0.1l-0.1,0.3l-0.1,0.5l-0.1,0.3
			l-0.1,0.1l-0.3,0.1h-0.3L229,91l-0.1-0.1l-0.1-0.3v-0.7l0.1-0.4"/>
		<path class="st2" d="M228.7,88.5l2.8-0.7l-2-0.5l2-0.5l-2.8-0.7"/>
		<path class="st2" d="M231.5,83.5v1.6"/>
		<path class="st2" d="M231.5,84.4h-2.8l0.4,0.3l0.3,0.3l0.1,0.3"/>
		<path class="st2" d="M260.5,120.4l-0.9-1.3"/>
		<path class="st2" d="M258.9,120.4v-2.8h1.1l0.3,0.1l0.1,0.1l0.1,0.3v0.4l-0.1,0.3l-0.1,0.1l-0.3,0.1h-1.1"/>
		<path class="st2" d="M262.2,120.4l-0.3-0.1l-0.1-0.1l-0.1-0.3v-0.8l0.1-0.3l0.1-0.1l0.3-0.1h0.4l0.3,0.1l0.1,0.1l0.1,0.3v0.8
			l-0.1,0.3l-0.1,0.1l-0.3,0.1H262.2"/>
		<path class="st2" d="M263.9,118.5h1.1"/>
		<path class="st2" d="M264.3,117.6v2.4l0.1,0.3l0.3,0.1h0.3"/>
		<path class="st2" d="M267.2,120.4v-1.5l-0.1-0.3l-0.3-0.1h-0.5l-0.3,0.1"/>
		<path class="st2" d="M267.2,120.3l-0.3,0.1h-0.7l-0.3-0.1l-0.1-0.3v-0.3l0.1-0.3l0.3-0.1h0.7l0.3-0.1"/>
		<path class="st2" d="M268.5,120.4v-1.9"/>
		<path class="st2" d="M268.5,119.1l0.1-0.3l0.1-0.1l0.3-0.1h0.3"/>
		<path class="st2" d="M270,118.5l0.7,1.9"/>
		<path class="st2" d="M271.3,118.5l-0.7,1.9l-0.3,0.7l-0.1,0.1l-0.3,0.1"/>
		<path class="st2" d="M271.7,120.7h2.2"/>
		<path class="st2" d="M274.6,118.9h0.9"/>
		<path class="st2" d="M275.9,120.4h-1.3v-2.8h1.3"/>
		<path class="st2" d="M277.1,118.5v1.9"/>
		<path class="st2" d="M277.1,118.8l0.1-0.1l0.3-0.1h0.4l0.3,0.1l0.1,0.3v1.5"/>
		<path class="st2" d="M280.9,120.3l-0.3,0.1h-0.5l-0.3-0.1l-0.1-0.1l-0.1-0.3v-0.8l0.1-0.3l0.1-0.1l0.3-0.1h0.5l0.3,0.1"/>
		<path class="st2" d="M282.5,120.4l-0.3-0.1l-0.1-0.1l-0.1-0.3v-0.8l0.1-0.3l0.1-0.1l0.3-0.1h0.4l0.3,0.1l0.1,0.1l0.1,0.3v0.8
			l-0.1,0.3l-0.1,0.1l-0.3,0.1H282.5"/>
		<path class="st2" d="M285.9,120.4v-2.8"/>
		<path class="st2" d="M285.9,120.3l-0.3,0.1h-0.5l-0.3-0.1l-0.1-0.1l-0.1-0.3v-0.8l0.1-0.3l0.1-0.1l0.3-0.1h0.5l0.3,0.1"/>
		<path class="st2" d="M288.4,120.3l-0.3,0.1h-0.5l-0.3-0.1l-0.1-0.3v-1.1l0.1-0.3l0.3-0.1h0.5l0.3,0.1l0.1,0.3v0.3l-1.4,0.3"/>
		<path class="st2" d="M289.7,120.4v-1.9"/>
		<path class="st2" d="M289.7,119.1l0.1-0.3l0.1-0.1l0.3-0.1h0.3"/>
		<path class="st2" d="M279.6,108.6l0.4,0.1h0.7l0.3-0.1l0.1-0.1l0.1-0.3V108l-0.1-0.3l-0.1-0.1l-0.3-0.1l-0.5-0.1l-0.3-0.1
			l-0.1-0.1l-0.1-0.3v-0.3l0.1-0.3l0.1-0.1l0.3-0.1h0.7l0.4,0.1"/>
		<path class="st2" d="M282.2,105.9l0.7,2.8l0.5-2l0.5,2l0.7-2.8"/>
		<path class="st2" d="M287.2,108.8h-1.6"/>
		<path class="st2" d="M286.3,108.8v-2.8l-0.3,0.4l-0.3,0.3l-0.3,0.1"/>
		<path class="st2" d="M289.6,106.9v1.9"/>
		<path class="st2" d="M288.9,105.8l-0.7,2h1.8"/>
		<path class="st2" d="M157.5,229.9l0.4,0.1h0.7l0.3-0.1l0.1-0.1l0.1-0.3v-0.3L159,229l-0.1-0.1l-0.3-0.1l-0.5-0.1l-0.3-0.1
			l-0.1-0.1l-0.1-0.3v-0.3l0.1-0.3l0.1-0.1l0.3-0.1h0.7l0.4,0.1"/>
		<path class="st2" d="M160.1,227.2l0.7,2.8l0.5-2l0.5,2l0.7-2.8"/>
		<path class="st2" d="M162.9,230.3h2.2"/>
		<path class="st2" d="M165.7,230.1v-2.8h1.1l0.3,0.1l0.1,0.1l0.1,0.3v0.4l-0.1,0.3l-0.1,0.1l-0.3,0.1h-1.1"/>
		<path class="st2" d="M169.8,228.2v1.9"/>
		<path class="st2" d="M168.6,228.2v1.5l0.1,0.3l0.3,0.1h0.4l0.3-0.1l0.1-0.1"/>
		<path class="st2" d="M171,229.9l0.3,0.1h0.5l0.3-0.1l0.1-0.3v-0.1l-0.1-0.3l-0.3-0.1h-0.4l-0.3-0.1l-0.1-0.3v-0.1l0.1-0.3l0.3-0.1
			h0.4l0.3,0.1"/>
		<path class="st2" d="M173.4,230.1v-2.8"/>
		<path class="st2" d="M174.6,230.1v-1.5l-0.1-0.3l-0.3-0.1h-0.4l-0.3,0.1l-0.1,0.1"/>
		<path class="st2" d="M103.7,229.9l0.4,0.1h0.7l0.3-0.1l0.1-0.1l0.1-0.3v-0.3l-0.1-0.3l-0.1-0.1l-0.3-0.1l-0.5-0.1l-0.3-0.1
			l-0.1-0.1l-0.1-0.3v-0.3l0.1-0.3l0.1-0.1l0.3-0.1h0.7l0.4,0.1"/>
		<path class="st2" d="M106.2,227.2l0.7,2.8l0.5-2l0.5,2l0.7-2.8"/>
		<path class="st2" d="M109.1,230.3h2.2"/>
		<path class="st2" d="M111.9,230.1v-2.8h1.1l0.3,0.1l0.1,0.1l0.1,0.3v0.4l-0.1,0.3l-0.1,0.1l-0.3,0.1h-1.1"/>
		<path class="st2" d="M116,228.2v1.9"/>
		<path class="st2" d="M114.7,228.2v1.5l0.1,0.3l0.3,0.1h0.4l0.3-0.1l0.1-0.1"/>
		<path class="st2" d="M117.2,229.9l0.3,0.1h0.5l0.3-0.1l0.1-0.3v-0.1l-0.1-0.3l-0.3-0.1h-0.4l-0.3-0.1l-0.1-0.3v-0.1l0.1-0.3
			l0.3-0.1h0.4l0.3,0.1"/>
		<path class="st2" d="M119.6,230.1v-2.8"/>
		<path class="st2" d="M120.8,230.1v-1.5l-0.1-0.3l-0.3-0.1H120l-0.3,0.1l-0.1,0.1"/>
		<path class="st2" d="M157.5,175.9l0.4,0.1h0.7l0.3-0.1l0.1-0.1l0.1-0.3v-0.3L159,175l-0.1-0.1l-0.3-0.1l-0.5-0.1l-0.3-0.1
			l-0.1-0.1l-0.1-0.3v-0.3l0.1-0.3l0.1-0.1l0.3-0.1h0.7l0.4,0.1"/>
		<path class="st2" d="M160.1,173.2l0.7,2.8l0.5-2l0.5,2l0.7-2.8"/>
		<path class="st2" d="M162.9,176.3h2.2"/>
		<path class="st2" d="M165.7,176.1v-2.8h1.1l0.3,0.1l0.1,0.1l0.1,0.3v0.4l-0.1,0.3l-0.1,0.1l-0.3,0.1h-1.1"/>
		<path class="st2" d="M169.8,174.2v1.9"/>
		<path class="st2" d="M168.6,174.2v1.5l0.1,0.3l0.3,0.1h0.4l0.3-0.1l0.1-0.1"/>
		<path class="st2" d="M171,175.9l0.3,0.1h0.5l0.3-0.1l0.1-0.3v-0.1l-0.1-0.3l-0.3-0.1h-0.4l-0.3-0.1l-0.1-0.3v-0.1l0.1-0.3l0.3-0.1
			h0.4l0.3,0.1"/>
		<path class="st2" d="M173.4,176.1v-2.8"/>
		<path class="st2" d="M174.6,176.1v-1.5l-0.1-0.3l-0.3-0.1h-0.4l-0.3,0.1l-0.1,0.1"/>
		<path class="st2" d="M270,134.4v-2.8h0.7l0.4,0.1l0.3,0.3l0.1,0.3l0.1,0.5v0.4l-0.1,0.5l-0.1,0.3l-0.3,0.3l-0.4,0.1H270"/>
	</g>
	<g>
		<path class="st2" d="M268.8,128.1v-2.3h0.5l0.3,0.1l0.2,0.2l0.1,0.2l0.1,0.4v0.3l-0.1,0.4l-0.1,0.2l-0.2,0.2l-0.3,0.1H268.8"/>
		<path class="st2" d="M272.3,128.1H271"/>
		<path class="st2" d="M271.6,128.1v-2.3l-0.2,0.3l-0.2,0.2l-0.2,0.1"/>
		<path class="st2" d="M274.4,128.1h-1.3"/>
		<path class="st2" d="M273.8,128.1v-2.3l-0.2,0.3l-0.2,0.2l-0.2,0.1"/>
	</g>
	<g>
		<path class="st2" d="M259.2,123.3v-2.8"/>
		<path class="st2" d="M260.8,123.3l-1.2-1.6"/>
		<path class="st2" d="M260.8,120.4l-1.6,1.6"/>
		<path class="st2" d="M265.7,121.9l0.4,0.1h0.7l0.3-0.1l0.1-0.1l0.1-0.3v-0.3l-0.1-0.3l-0.1-0.1l-0.3-0.1l-0.5-0.1l-0.3-0.1
			l-0.1-0.1l-0.1-0.3v-0.3l0.1-0.3l0.1-0.1l0.3-0.1h0.7l0.4,0.1"/>
		<path class="st2" d="M268.2,119.2l0.7,2.8l0.5-2l0.5,2l0.7-2.8"/>
		<path class="st2" d="M271.1,122.3h2.2"/>
		<path class="st2" d="M273.9,122.1v-2.8h1.1l0.3,0.1l0.1,0.1l0.1,0.3v0.4l-0.1,0.3l-0.1,0.1l-0.3,0.1h-1.1"/>
		<path class="st2" d="M278,120.2v1.9"/>
		<path class="st2" d="M276.7,120.2v1.5l0.1,0.3l0.3,0.1h0.4l0.3-0.1l0.1-0.1"/>
		<path class="st2" d="M279.2,121.9l0.3,0.1h0.5l0.3-0.1l0.1-0.3v-0.1l-0.1-0.3l-0.3-0.1h-0.4l-0.3-0.1l-0.1-0.3v-0.1l0.1-0.3
			l0.3-0.1h0.4l0.3,0.1"/>
		<path class="st2" d="M281.6,122.1v-2.8"/>
		<path class="st2" d="M282.8,122.1v-1.5l-0.1-0.3l-0.3-0.1H282l-0.3,0.1l-0.1,0.1"/>
		<path class="st2" d="M103.5,175.9l0.4,0.1h0.7l0.3-0.1l0.1-0.1l0.1-0.3v-0.3L105,175l-0.1-0.1l-0.3-0.1l-0.5-0.1l-0.3-0.1
			l-0.1-0.1l-0.1-0.3v-0.3l0.1-0.3l0.1-0.1l0.3-0.1h0.7l0.4,0.1"/>
		<path class="st2" d="M106.1,173.2l0.7,2.8l0.5-2l0.5,2l0.7-2.8"/>
		<path class="st2" d="M108.9,176.3h2.2"/>
		<path class="st2" d="M111.7,176.1v-2.8h1.1l0.3,0.1l0.1,0.1l0.1,0.3v0.4l-0.1,0.3l-0.1,0.1l-0.3,0.1h-1.1"/>
		<path class="st2" d="M115.8,174.2v1.9"/>
		<path class="st2" d="M114.6,174.2v1.5l0.1,0.3l0.3,0.1h0.4l0.3-0.1l0.1-0.1"/>
		<path class="st2" d="M117,175.9l0.3,0.1h0.5l0.3-0.1l0.1-0.3v-0.1l-0.1-0.3l-0.3-0.1h-0.4l-0.3-0.1l-0.1-0.3v-0.1l0.1-0.3l0.3-0.1
			h0.4l0.3,0.1"/>
		<path class="st2" d="M119.4,176.1v-2.8"/>
		<path class="st2" d="M120.6,176.1v-1.5l-0.1-0.3l-0.3-0.1h-0.4l-0.3,0.1l-0.1,0.1"/>
		<path class="st2" d="M103.5,121.9l0.4,0.1h0.7l0.3-0.1l0.1-0.1l0.1-0.3v-0.3L105,121l-0.1-0.1l-0.3-0.1l-0.5-0.1l-0.3-0.1
			l-0.1-0.1l-0.1-0.3v-0.3l0.1-0.3l0.1-0.1l0.3-0.1h0.7l0.4,0.1"/>
		<path class="st2" d="M106.1,119.2l0.7,2.8l0.5-2l0.5,2l0.7-2.8"/>
		<path class="st2" d="M108.9,122.3h2.2"/>
		<path class="st2" d="M111.7,122.1v-2.8h1.1l0.3,0.1l0.1,0.1l0.1,0.3v0.4l-0.1,0.3l-0.1,0.1l-0.3,0.1h-1.1"/>
		<path class="st2" d="M115.8,120.2v1.9"/>
		<path class="st2" d="M114.6,120.2v1.5l0.1,0.3l0.3,0.1h0.4l0.3-0.1l0.1-0.1"/>
		<path class="st2" d="M117,121.9l0.3,0.1h0.5l0.3-0.1l0.1-0.3v-0.1l-0.1-0.3l-0.3-0.1h-0.4l-0.3-0.1l-0.1-0.3v-0.1l0.1-0.3l0.3-0.1
			h0.4l0.3,0.1"/>
		<path class="st2" d="M119.4,122.1v-2.8"/>
		<path class="st2" d="M120.6,122.1v-1.5l-0.1-0.3l-0.3-0.1h-0.4l-0.3,0.1l-0.1,0.1"/>
		<path class="st2" d="M157.7,121.9l0.4,0.1h0.7l0.3-0.1l0.1-0.1l0.1-0.3v-0.3l-0.1-0.3l-0.1-0.1l-0.3-0.1l-0.5-0.1l-0.3-0.1
			l-0.1-0.1l-0.1-0.3v-0.3l0.1-0.3l0.1-0.1l0.3-0.1h0.7l0.4,0.1"/>
		<path class="st2" d="M160.2,119.2l0.7,2.8l0.5-2l0.5,2l0.7-2.8"/>
		<path class="st2" d="M163.1,122.3h2.2"/>
		<path class="st2" d="M165.9,122.1v-2.8h1.1l0.3,0.1l0.1,0.1l0.1,0.3v0.4l-0.1,0.3l-0.1,0.1l-0.3,0.1h-1.1"/>
		<path class="st2" d="M170,120.2v1.9"/>
		<path class="st2" d="M168.7,120.2v1.5l0.1,0.3l0.3,0.1h0.4l0.3-0.1l0.1-0.1"/>
		<path class="st2" d="M171.2,121.9l0.3,0.1h0.5l0.3-0.1l0.1-0.3v-0.1l-0.1-0.3l-0.3-0.1h-0.4l-0.3-0.1l-0.1-0.3v-0.1l0.1-0.3
			l0.3-0.1h0.4l0.3,0.1"/>
		<path class="st2" d="M173.6,122.1v-2.8"/>
		<path class="st2" d="M174.8,122.1v-1.5l-0.1-0.3l-0.3-0.1H174l-0.3,0.1l-0.1,0.1"/>
		<path class="st2" d="M211.5,121.9l0.4,0.1h0.7l0.3-0.1l0.1-0.1l0.1-0.3v-0.3L213,121l-0.1-0.1l-0.3-0.1l-0.5-0.1l-0.3-0.1
			l-0.1-0.1l-0.1-0.3v-0.3l0.1-0.3l0.1-0.1l0.3-0.1h0.7l0.4,0.1"/>
		<path class="st2" d="M214.1,119.2l0.7,2.8l0.5-2l0.5,2l0.7-2.8"/>
		<path class="st2" d="M216.9,122.3h2.2"/>
		<path class="st2" d="M219.7,122.1v-2.8h1.1l0.3,0.1l0.1,0.1l0.1,0.3v0.4l-0.1,0.3l-0.1,0.1l-0.3,0.1h-1.1"/>
		<path class="st2" d="M223.8,120.2v1.9"/>
		<path class="st2" d="M222.6,120.2v1.5l0.1,0.3l0.3,0.1h0.4l0.3-0.1l0.1-0.1"/>
		<path class="st2" d="M225,121.9l0.3,0.1h0.5l0.3-0.1l0.1-0.3v-0.1l-0.1-0.3l-0.3-0.1h-0.4l-0.3-0.1l-0.1-0.3v-0.1l0.1-0.3l0.3-0.1
			h0.4l0.3,0.1"/>
		<path class="st2" d="M227.4,122.1v-2.8"/>
		<path class="st2" d="M228.6,122.1v-1.5l-0.1-0.3l-0.3-0.1h-0.4l-0.3,0.1l-0.1,0.1"/>
		<path class="st2" d="M211.5,229.9l0.4,0.1h0.7l0.3-0.1l0.1-0.1l0.1-0.3v-0.3L213,229l-0.1-0.1l-0.3-0.1l-0.5-0.1l-0.3-0.1
			l-0.1-0.1l-0.1-0.3v-0.3l0.1-0.3l0.1-0.1l0.3-0.1h0.7l0.4,0.1"/>
		<path class="st2" d="M214.1,227.2l0.7,2.8l0.5-2l0.5,2l0.7-2.8"/>
		<path class="st2" d="M216.9,230.3h2.2"/>
		<path class="st2" d="M219.7,230.1v-2.8h1.1l0.3,0.1l0.1,0.1l0.1,0.3v0.4l-0.1,0.3l-0.1,0.1l-0.3,0.1h-1.1"/>
		<path class="st2" d="M223.8,228.2v1.9"/>
		<path class="st2" d="M222.6,228.2v1.5l0.1,0.3l0.3,0.1h0.4l0.3-0.1l0.1-0.1"/>
		<path class="st2" d="M225,229.9l0.3,0.1h0.5l0.3-0.1l0.1-0.3v-0.1l-0.1-0.3l-0.3-0.1h-0.4l-0.3-0.1l-0.1-0.3v-0.1l0.1-0.3l0.3-0.1
			h0.4l0.3,0.1"/>
		<path class="st2" d="M227.4,230.1v-2.8"/>
		<path class="st2" d="M228.6,230.1v-1.5l-0.1-0.3l-0.3-0.1h-0.4l-0.3,0.1l-0.1,0.1"/>
		<path class="st2" d="M265.5,175.9l0.4,0.1h0.7l0.3-0.1l0.1-0.1l0.1-0.3v-0.3L267,175l-0.1-0.1l-0.3-0.1l-0.5-0.1l-0.3-0.1
			l-0.1-0.1l-0.1-0.3v-0.3l0.1-0.3l0.1-0.1l0.3-0.1h0.7l0.4,0.1"/>
		<path class="st2" d="M268.1,173.2l0.7,2.8l0.5-2l0.5,2l0.7-2.8"/>
		<path class="st2" d="M270.9,176.3h2.2"/>
		<path class="st2" d="M273.7,176.1v-2.8h1.1l0.3,0.1l0.1,0.1l0.1,0.3v0.4l-0.1,0.3l-0.1,0.1l-0.3,0.1h-1.1"/>
		<path class="st2" d="M277.8,174.2v1.9"/>
		<path class="st2" d="M276.6,174.2v1.5l0.1,0.3l0.3,0.1h0.4l0.3-0.1l0.1-0.1"/>
		<path class="st2" d="M279,175.9l0.3,0.1h0.5l0.3-0.1l0.1-0.3v-0.1l-0.1-0.3l-0.3-0.1h-0.4l-0.3-0.1l-0.1-0.3v-0.1l0.1-0.3l0.3-0.1
			h0.4l0.3,0.1"/>
		<path class="st2" d="M281.4,176.1v-2.8"/>
		<path class="st2" d="M282.6,176.1v-1.5l-0.1-0.3l-0.3-0.1h-0.4l-0.3,0.1l-0.1,0.1"/>
		<path class="st2" d="M265.7,230.1l0.4,0.1h0.7l0.3-0.1l0.1-0.1l0.1-0.3v-0.3l-0.1-0.3L267,229l-0.3-0.1l-0.5-0.1l-0.3-0.1
			l-0.1-0.1l-0.1-0.3v-0.3l0.1-0.3l0.1-0.1l0.3-0.1h0.7l0.4,0.1"/>
		<path class="st2" d="M268.2,227.4l0.7,2.8l0.5-2l0.5,2l0.7-2.8"/>
		<path class="st2" d="M271.1,230.5h2.2"/>
		<path class="st2" d="M273.9,230.2v-2.8h1.1l0.3,0.1l0.1,0.1l0.1,0.3v0.4l-0.1,0.3l-0.1,0.1l-0.3,0.1h-1.1"/>
		<path class="st2" d="M278,228.3v1.9"/>
		<path class="st2" d="M276.7,228.3v1.5l0.1,0.3l0.3,0.1h0.4l0.3-0.1l0.1-0.1"/>
		<path class="st2" d="M279.2,230.1l0.3,0.1h0.5l0.3-0.1l0.1-0.3v-0.1l-0.1-0.3l-0.3-0.1h-0.4l-0.3-0.1l-0.1-0.3v-0.1l0.1-0.3
			l0.3-0.1h0.4l0.3,0.1"/>
		<path class="st2" d="M281.6,230.2v-2.8"/>
		<path class="st2" d="M282.8,230.2v-1.5l-0.1-0.3l-0.3-0.1H282l-0.3,0.1l-0.1,0.1"/>
		<path class="st2" d="M109.8,81.1v-2.8h0.7l0.4,0.1l0.3,0.3l0.1,0.3l0.1,0.5v0.4l-0.1,0.5l-0.1,0.3l-0.3,0.3l-0.4,0.1H109.8"/>
	</g>
	<g>
		<path class="st2" d="M109.7,74.8v-2.3h0.5l0.3,0.1l0.2,0.2l0.1,0.2l0.1,0.4v0.3l-0.1,0.4l-0.1,0.2l-0.2,0.2l-0.3,0.1H109.7"/>
		<path class="st2" d="M113.1,74.8h-1.3"/>
		<path class="st2" d="M112.5,74.8v-2.3l-0.2,0.3l-0.2,0.2l-0.2,0.1"/>
	</g>
	<g>
		<path class="st2" d="M99,70v-2.8"/>
		<path class="st2" d="M100.6,70l-1.2-1.6"/>
		<path class="st2" d="M100.6,67.1L99,68.8"/>
		<path class="st2" d="M109.1,132.7v-2.8h0.7l0.4,0.1l0.3,0.3l0.1,0.3l0.1,0.5v0.4l-0.1,0.5l-0.1,0.3l-0.3,0.3l-0.4,0.1H109.1"/>
		<path class="st2" d="M98.3,121.6v-2.8"/>
		<path class="st2" d="M99.9,121.6l-1.2-1.6"/>
		<path class="st2" d="M99.9,118.8l-1.6,1.6"/>
	</g>
	<g>
		<path class="st2" d="M109,126.5v-2.3h0.5l0.3,0.1l0.2,0.2l0.1,0.2l0.1,0.4v0.3l-0.1,0.4l-0.1,0.2l-0.2,0.2l-0.3,0.1H109"/>
		<path class="st2" d="M111.1,124.4l0.1-0.1l0.2-0.1h0.5l0.2,0.1l0.1,0.1l0.1,0.2v0.2l-0.1,0.3l-1.3,1.3h1.4"/>
	</g>
	<g>
		<path class="st2" d="M109.1,187.6v-2.8h0.7l0.4,0.1l0.3,0.3l0.1,0.3l0.1,0.5v0.4l-0.1,0.5l-0.1,0.3l-0.3,0.3l-0.4,0.1H109.1"/>
		<path class="st2" d="M98.3,176.5v-2.8"/>
		<path class="st2" d="M99.9,176.5l-1.2-1.6"/>
		<path class="st2" d="M99.9,173.7l-1.6,1.6"/>
	</g>
	<g>
		<path class="st2" d="M109,181.4v-2.3h0.5l0.3,0.1l0.2,0.2l0.1,0.2l0.1,0.4v0.3l-0.1,0.4l-0.1,0.2l-0.2,0.2l-0.3,0.1H109"/>
		<path class="st2" d="M111,179.1h1.4l-0.8,0.9h0.3l0.2,0.1l0.1,0.1l0.1,0.2v0.5l-0.1,0.2l-0.1,0.1l-0.2,0.1h-0.6l-0.2-0.1l-0.1-0.1
			"/>
	</g>
	<g>
		<path class="st2" d="M162.7,81.1v-2.8h0.7l0.4,0.1l0.3,0.3l0.1,0.3l0.1,0.5v0.4l-0.1,0.5l-0.1,0.3l-0.3,0.3l-0.4,0.1H162.7"/>
	</g>
	<g>
		<path class="st2" d="M162.6,74.8v-2.3h0.5l0.3,0.1l0.2,0.2l0.1,0.2l0.1,0.4v0.3l-0.1,0.4l-0.1,0.2l-0.2,0.2l-0.3,0.1H162.6"/>
		<path class="st2" d="M165.9,73.3v1.5"/>
		<path class="st2" d="M165.3,72.4l-0.5,1.6h1.4"/>
	</g>
	<g>
		<path class="st2" d="M151.9,70v-2.8"/>
		<path class="st2" d="M153.5,70l-1.2-1.6"/>
		<path class="st2" d="M153.5,67.1l-1.6,1.6"/>
		<path class="st2" d="M162.7,134.4v-2.8h0.7l0.4,0.1l0.3,0.3l0.1,0.3l0.1,0.5v0.4l-0.1,0.5L164,134l-0.3,0.3l-0.4,0.1H162.7"/>
	</g>
	<g>
		<path class="st2" d="M162.6,128.1v-2.3h0.5l0.3,0.1l0.2,0.2l0.1,0.2l0.1,0.4v0.3l-0.1,0.4l-0.1,0.2l-0.2,0.2l-0.3,0.1H162.6"/>
		<path class="st2" d="M166,125.8h-1.1l-0.1,1.1l0.1-0.1l0.2-0.1h0.5l0.2,0.1l0.1,0.1l0.1,0.2v0.5l-0.1,0.2l-0.1,0.1l-0.2,0.1h-0.5
			l-0.2-0.1l-0.1-0.1"/>
	</g>
	<g>
		<path class="st2" d="M151.9,123.3v-2.8"/>
		<path class="st2" d="M153.5,123.3l-1.2-1.6"/>
		<path class="st2" d="M153.5,120.4l-1.6,1.6"/>
		<path class="st2" d="M162.9,187.5v-2.8h0.7l0.4,0.1l0.3,0.3l0.1,0.3l0.1,0.5v0.4l-0.1,0.5l-0.1,0.3l-0.3,0.3l-0.4,0.1H162.9"/>
	</g>
	<g>
		<path class="st2" d="M162.8,181.2v-2.3h0.5l0.3,0.1l0.2,0.2l0.1,0.2l0.1,0.4v0.3l-0.1,0.4l-0.1,0.2l-0.2,0.2l-0.3,0.1H162.8"/>
		<path class="st2" d="M166,178.9h-0.4l-0.2,0.1l-0.1,0.1l-0.2,0.3l-0.1,0.4v0.9l0.1,0.2l0.1,0.1l0.2,0.1h0.4l0.2-0.1l0.1-0.1
			l0.1-0.2v-0.5l-0.1-0.2l-0.1-0.1l-0.2-0.1h-0.4l-0.2,0.1l-0.1,0.1l-0.1,0.2"/>
	</g>
	<g>
		<path class="st2" d="M152.1,176.4v-2.8"/>
		<path class="st2" d="M153.7,176.4l-1.2-1.6"/>
		<path class="st2" d="M153.7,173.5l-1.6,1.6"/>
		<path class="st2" d="M205.9,80.5v-2.8h0.7l0.4,0.1l0.3,0.3l0.1,0.3l0.1,0.5v0.4l-0.1,0.5l-0.1,0.3l-0.3,0.3l-0.4,0.1H205.9"/>
	</g>
	<g>
		<path class="st2" d="M205.8,74.3V72h0.5l0.3,0.1l0.2,0.2l0.1,0.2l0.1,0.4v0.3l-0.1,0.4l-0.1,0.2l-0.2,0.2l-0.3,0.1H205.8"/>
		<path class="st2" d="M207.9,72h1.5l-1,2.3"/>
	</g>
	<g>
		<path class="st2" d="M195.1,69.4v-2.8"/>
		<path class="st2" d="M196.7,69.4l-1.2-1.6"/>
		<path class="st2" d="M196.7,66.6l-1.6,1.6"/>
		<path class="st2" d="M216.3,134.4v-2.8h0.7l0.4,0.1l0.3,0.3l0.1,0.3l0.1,0.5v0.4l-0.1,0.5l-0.1,0.3l-0.3,0.3l-0.4,0.1H216.3"/>
		<path class="st2" d="M205.5,123.3v-2.8"/>
		<path class="st2" d="M207.2,123.3l-1.2-1.6"/>
		<path class="st2" d="M207.2,120.4l-1.6,1.6"/>
	</g>
	<g>
		<path class="st2" d="M216.3,128.1v-2.3h0.5l0.3,0.1l0.2,0.2l0.1,0.2l0.1,0.4v0.3l-0.1,0.4l-0.1,0.2l-0.2,0.2l-0.3,0.1H216.3"/>
		<path class="st2" d="M218.8,126.8l-0.2-0.1l-0.1-0.1l-0.1-0.2v-0.1l0.1-0.2l0.1-0.1l0.2-0.1h0.4l0.2,0.1l0.1,0.1l0.1,0.2v0.1
			l-0.1,0.2l-0.1,0.1l-0.2,0.1H218.8l-0.2,0.1l-0.1,0.1l-0.1,0.2v0.4l0.1,0.2l0.1,0.1l0.2,0.1h0.4l0.2-0.1l0.1-0.1l0.1-0.2v-0.4
			l-0.1-0.2l-0.1-0.1l-0.2-0.1"/>
	</g>
	<g>
		<path class="st2" d="M216.3,187.6v-2.8h0.7l0.4,0.1l0.3,0.3l0.1,0.3l0.1,0.5v0.4l-0.1,0.5l-0.1,0.3l-0.3,0.3l-0.4,0.1H216.3"/>
		<path class="st2" d="M205.5,176.5v-2.8"/>
		<path class="st2" d="M207.2,176.5l-1.2-1.6"/>
		<path class="st2" d="M207.2,173.7l-1.6,1.6"/>
	</g>
	<g>
		<path class="st2" d="M216.3,181.4v-2.3h0.5l0.3,0.1l0.2,0.2l0.1,0.2l0.1,0.4v0.3l-0.1,0.4l-0.1,0.2l-0.2,0.2l-0.3,0.1H216.3"/>
		<path class="st2" d="M218.6,181.4h0.4l0.2-0.1l0.1-0.1l0.2-0.3l0.1-0.4v-0.9l-0.1-0.2l-0.1-0.1l-0.2-0.1h-0.4l-0.2,0.1l-0.1,0.1
			l-0.1,0.2v0.5l0.1,0.2l0.1,0.1l0.2,0.1h0.4l0.2-0.1l0.1-0.1l0.1-0.2"/>
	</g>
	<g>
		<path class="st2" d="M270.2,80.9v-2.8h0.7l0.4,0.1l0.3,0.3l0.1,0.3l0.1,0.5v0.4l-0.1,0.5l-0.1,0.3l-0.3,0.3l-0.4,0.1H270.2"/>
		<path class="st2" d="M259.4,69.8V67"/>
		<path class="st2" d="M261,69.8l-1.2-1.6"/>
		<path class="st2" d="M261,67l-1.6,1.6"/>
	</g>
	<g>
		<path class="st2" d="M269,74.6v-2.3h0.5l0.3,0.1l0.2,0.2l0.1,0.2l0.1,0.4v0.3l-0.1,0.4l-0.1,0.2l-0.2,0.2l-0.3,0.1H269"/>
		<path class="st2" d="M272.4,74.6h-1.3"/>
		<path class="st2" d="M271.8,74.6v-2.3l-0.2,0.3l-0.2,0.2l-0.2,0.1"/>
		<path class="st2" d="M273.9,72.4h0.2l0.2,0.1l0.1,0.1l0.1,0.2l0.1,0.4v0.5l-0.1,0.4l-0.1,0.2l-0.1,0.1l-0.2,0.1h-0.2l-0.2-0.1
			l-0.1-0.1l-0.1-0.2l-0.1-0.4v-0.5l0.1-0.4l0.1-0.2l0.1-0.1L273.9,72.4"/>
	</g>
	<g>
		<path class="st2" d="M270.2,187.6v-2.8h0.7l0.4,0.1l0.3,0.3l0.1,0.3l0.1,0.5v0.4l-0.1,0.5l-0.1,0.3l-0.3,0.3l-0.4,0.1H270.2"/>
		<path class="st2" d="M259.4,176.5v-2.8"/>
		<path class="st2" d="M261,176.5l-1.2-1.6"/>
		<path class="st2" d="M261,173.7l-1.6,1.6"/>
	</g>
	<g>
		<path class="st2" d="M269,181.4v-2.3h0.5l0.3,0.1l0.2,0.2l0.1,0.2l0.1,0.4v0.3l-0.1,0.4l-0.1,0.2l-0.2,0.2l-0.3,0.1H269"/>
		<path class="st2" d="M272.4,181.4h-1.3"/>
		<path class="st2" d="M271.8,181.4v-2.3l-0.2,0.3l-0.2,0.2l-0.2,0.1"/>
		<path class="st2" d="M273.3,179.3l0.1-0.1l0.2-0.1h0.5l0.2,0.1l0.1,0.1l0.1,0.2v0.2l-0.1,0.3l-1.3,1.3h1.4"/>
	</g>
	<g>
		<path class="st2" d="M53.7,73.7v-2.8l1,2l0.9-2v2.8"/>
		<path class="st2" d="M57.4,73.7l-0.3-0.1l-0.1-0.1l-0.1-0.3v-0.8l0.1-0.3l0.1-0.1l0.3-0.1h0.4L58,72l0.1,0.1l0.1,0.3v0.8l-0.1,0.3
			L58,73.6l-0.3,0.1H57.4"/>
		<path class="st2" d="M60.7,71.8v1.9"/>
		<path class="st2" d="M59.5,71.8v1.5l0.1,0.3l0.3,0.1h0.4l0.3-0.1l0.1-0.1"/>
		<path class="st2" d="M62.1,71.8v1.9"/>
		<path class="st2" d="M62.1,72.1l0.1-0.1l0.3-0.1h0.4l0.3,0.1l0.1,0.3v1.5"/>
		<path class="st2" d="M64.2,71.8h1.1"/>
		<path class="st2" d="M64.6,70.9v2.4l0.1,0.3l0.3,0.1h0.3"/>
		<path class="st2" d="M66.3,73.7v-1.9"/>
		<path class="st2" d="M66.3,70.9L66.1,71l0.1,0.1l0.1-0.1L66.3,70.9v0.3"/>
		<path class="st2" d="M67.6,71.8v1.9"/>
		<path class="st2" d="M67.6,72.1l0.1-0.1l0.3-0.1h0.4l0.3,0.1l0.1,0.3v1.5"/>
		<path class="st2" d="M71.4,71.8v2.3l-0.1,0.3l-0.1,0.1l-0.3,0.1h-0.4l-0.3-0.1"/>
		<path class="st2" d="M71.4,73.6l-0.3,0.1h-0.5l-0.3-0.1l-0.1-0.1L70,73.2v-0.8l0.1-0.3l0.1-0.1l0.3-0.1h0.5l0.3,0.1"/>
		<path class="st2" d="M72.7,73.7v-2.8"/>
		<path class="st2" d="M72.7,72.2h1.6"/>
		<path class="st2" d="M74.4,73.7v-2.8"/>
		<path class="st2" d="M76.1,73.7l-0.3-0.1l-0.1-0.1l-0.1-0.3v-0.8l0.1-0.3l0.1-0.1l0.3-0.1h0.4l0.3,0.1l0.1,0.1l0.1,0.3v0.8
			l-0.1,0.3l-0.1,0.1l-0.3,0.1H76.1"/>
		<path class="st2" d="M78.7,73.7l-0.3-0.1l-0.1-0.3v-2.4"/>
		<path class="st2" d="M80.8,73.6l-0.3,0.1H80l-0.3-0.1l-0.1-0.3v-1.1l0.1-0.3l0.3-0.1h0.5l0.3,0.1l0.1,0.3v0.3l-1.3,0.3"/>
		<path class="st2" d="M81.5,74h2.2"/>
		<path class="st2" d="M84.2,71.1l0.1-0.1l0.3-0.1h0.7l0.3,0.1l0.1,0.1l0.1,0.3v0.3l-0.1,0.4l-1.6,1.6h1.7"/>
		<path class="st2" d="M87,73.4l0.1,0.1L87,73.7l-0.1-0.1L87,73.4v0.3"/>
		<path class="st2" d="M88.3,71.1l0.1-0.1l0.3-0.1h0.7l0.3,0.1l0.1,0.1l0.1,0.3v0.3l-0.1,0.4l-1.6,1.6h1.8"/>
		<path class="st2" d="M91.1,73.7v-1.9"/>
		<path class="st2" d="M91.1,72.1l0.1-0.1l0.3-0.1h0.4l0.3,0.1l0.1,0.3v1.5"/>
		<path class="st2" d="M92.3,72.2l0.1-0.3l0.3-0.1h0.4l0.3,0.1l0.1,0.3v1.5"/>
		<path class="st2" d="M94.9,73.7v-1.9"/>
		<path class="st2" d="M94.9,72.1L95,72l0.3-0.1h0.4L96,72l0.1,0.3v1.5"/>
		<path class="st2" d="M96.1,72.2l0.1-0.3l0.3-0.1h0.4l0.3,0.1l0.1,0.3v1.5"/>
		<path class="st2" d="M98,74h2.2"/>
		<path class="st2" d="M100.8,73.7v-2.8l0.9,2l1-2v2.8"/>
		<path class="st2" d="M103.9,71.1l0.1-0.1l0.3-0.1h0.7l0.3,0.1l0.1,0.1l0.1,0.3v0.3l-0.1,0.4l-1.6,1.6h1.7"/>
		<path class="st2" d="M76.6,64.6l-1-1.4"/>
		<path class="st2" d="M75,64.6v-2.8h1.1l0.3,0.1l0.1,0.1l0.1,0.3v0.4L76.5,63l-0.1,0.1l-0.3,0.1H75"/>
		<path class="st2" d="M77.8,63.2h1"/>
		<path class="st2" d="M79.2,64.6h-1.4v-2.8h1.4"/>
		<path class="st2" d="M81.4,63.2h-0.9"/>
		<path class="st2" d="M80.4,64.6v-2.8h1.3"/>
		<path class="st2" d="M83.2,61.8v0.7"/>
		<path class="st2" d="M82.6,62.2l0.7,0.3l0.7-0.3"/>
		<path class="st2" d="M82.8,63l0.4-0.5l0.4,0.5"/>
		<path class="st2" d="M85.4,61.8v0.7"/>
		<path class="st2" d="M84.7,62.2l0.7,0.3l0.7-0.3"/>
		<path class="st2" d="M85,63l0.4-0.5l0.4,0.5"/>
		<path class="st2" d="M167.3,73.7v-2.8l1,2l0.9-2v2.8"/>
		<path class="st2" d="M170.9,73.7l-0.3-0.1l-0.1-0.1l-0.1-0.3v-0.8l0.1-0.3l0.1-0.1l0.3-0.1h0.4l0.3,0.1l0.1,0.1l0.1,0.3v0.8
			l-0.1,0.3l-0.1,0.1l-0.3,0.1H170.9"/>
		<path class="st2" d="M174.3,71.8v1.9"/>
		<path class="st2" d="M173.1,71.8v1.5l0.1,0.3l0.3,0.1h0.4l0.3-0.1l0.1-0.1"/>
		<path class="st2" d="M175.7,71.8v1.9"/>
		<path class="st2" d="M175.7,72.1l0.1-0.1l0.3-0.1h0.4l0.3,0.1l0.1,0.3v1.5"/>
		<path class="st2" d="M177.8,71.8h1.1"/>
		<path class="st2" d="M178.2,70.9v2.4l0.1,0.3l0.3,0.1h0.3"/>
		<path class="st2" d="M179.8,73.7v-1.9"/>
		<path class="st2" d="M179.8,70.9l-0.1,0.1l0.1,0.1L180,71L179.8,70.9v0.3"/>
		<path class="st2" d="M181.2,71.8v1.9"/>
		<path class="st2" d="M181.2,72.1l0.1-0.1l0.3-0.1h0.4l0.3,0.1l0.1,0.3v1.5"/>
		<path class="st2" d="M185,71.8v2.3l-0.1,0.3l-0.1,0.1l-0.3,0.1H184l-0.3-0.1"/>
		<path class="st2" d="M185,73.6l-0.3,0.1h-0.5l-0.3-0.1l-0.1-0.1l-0.1-0.3v-0.8l0.1-0.3l0.1-0.1l0.3-0.1h0.5L185,72"/>
		<path class="st2" d="M186.3,73.7v-2.8"/>
		<path class="st2" d="M186.3,72.2h1.6"/>
		<path class="st2" d="M187.9,73.7v-2.8"/>
		<path class="st2" d="M189.7,73.7l-0.3-0.1l-0.1-0.1l-0.1-0.3v-0.8l0.1-0.3l0.1-0.1l0.3-0.1h0.4l0.3,0.1l0.1,0.1l0.1,0.3v0.8
			l-0.1,0.3l-0.1,0.1l-0.3,0.1H189.7"/>
		<path class="st2" d="M192.3,73.7l-0.3-0.1l-0.1-0.3v-2.4"/>
		<path class="st2" d="M194.4,73.6l-0.3,0.1h-0.5l-0.3-0.1l-0.1-0.3v-1.1l0.1-0.3l0.3-0.1h0.5l0.3,0.1l0.1,0.3v0.3l-1.3,0.3"/>
		<path class="st2" d="M195.1,74h2.2"/>
		<path class="st2" d="M197.8,71.1l0.1-0.1l0.3-0.1h0.7l0.3,0.1l0.1,0.1l0.1,0.3v0.3l-0.1,0.4l-1.6,1.6h1.7"/>
		<path class="st2" d="M200.6,73.4l0.1,0.1l-0.1,0.1l-0.1-0.1L200.6,73.4v0.3"/>
		<path class="st2" d="M201.8,71.1L202,71l0.3-0.1h0.7l0.3,0.1l0.1,0.1l0.1,0.3v0.3l-0.1,0.4l-1.6,1.6h1.8"/>
		<path class="st2" d="M204.7,73.7v-1.9"/>
		<path class="st2" d="M204.7,72.1l0.1-0.1l0.3-0.1h0.4l0.3,0.1l0.1,0.3v1.5"/>
		<path class="st2" d="M205.9,72.2L206,72l0.3-0.1h0.4L207,72l0.1,0.3v1.5"/>
		<path class="st2" d="M208.5,73.7v-1.9"/>
		<path class="st2" d="M208.5,72.1l0.1-0.1l0.3-0.1h0.4l0.3,0.1l0.1,0.3v1.5"/>
		<path class="st2" d="M209.7,72.2l0.1-0.3l0.3-0.1h0.4l0.3,0.1l0.1,0.3v1.5"/>
		<path class="st2" d="M211.6,74h2.2"/>
		<path class="st2" d="M214.4,73.7v-2.8l0.9,2l1-2v2.8"/>
		<path class="st2" d="M217.5,71.1l0.1-0.1l0.3-0.1h0.7l0.3,0.1l0.1,0.1l0.1,0.3v0.3l-0.1,0.4l-1.6,1.6h1.7"/>
		<path class="st2" d="M190.2,64.6l-1-1.4"/>
		<path class="st2" d="M188.6,64.6v-2.8h1.1l0.3,0.1l0.1,0.1l0.1,0.3v0.4l-0.1,0.3l-0.1,0.1l-0.3,0.1h-1.1"/>
		<path class="st2" d="M191.4,63.2h1"/>
		<path class="st2" d="M192.8,64.6h-1.4v-2.8h1.4"/>
		<path class="st2" d="M194.9,63.2H194"/>
		<path class="st2" d="M194,64.6v-2.8h1.3"/>
		<path class="st2" d="M196.8,61.8v0.7"/>
		<path class="st2" d="M196.1,62.2l0.7,0.3l0.7-0.3"/>
		<path class="st2" d="M196.4,63l0.4-0.5l0.4,0.5"/>
		<path class="st2" d="M199,61.8v0.7"/>
		<path class="st2" d="M198.3,62.2l0.7,0.3l0.7-0.3"/>
		<path class="st2" d="M198.6,63l0.4-0.5l0.4,0.5"/>
		<path class="st2" d="M280.9,73.9v-2.8l1,2l0.9-2v2.8"/>
		<path class="st2" d="M284.5,73.9l-0.3-0.1l-0.1-0.1l-0.1-0.3v-0.8l0.1-0.3l0.1-0.1l0.3-0.1h0.4l0.3,0.1l0.1,0.1l0.1,0.3v0.8
			l-0.1,0.3l-0.1,0.1l-0.3,0.1H284.5"/>
		<path class="st2" d="M287.9,72v1.9"/>
		<path class="st2" d="M286.7,72v1.5l0.1,0.3l0.3,0.1h0.4l0.3-0.1l0.1-0.1"/>
		<path class="st2" d="M289.2,72v1.9"/>
		<path class="st2" d="M289.2,72.3l0.1-0.1l0.3-0.1h0.4l0.3,0.1l0.1,0.3v1.5"/>
		<path class="st2" d="M291.4,72h1.1"/>
		<path class="st2" d="M291.8,71.1v2.4l0.1,0.3l0.3,0.1h0.3"/>
		<path class="st2" d="M293.4,73.9V72"/>
		<path class="st2" d="M293.4,71.1l-0.1,0.1l0.1,0.1l0.1-0.1L293.4,71.1v0.3"/>
		<path class="st2" d="M294.8,72v1.9"/>
		<path class="st2" d="M294.8,72.3l0.1-0.1l0.3-0.1h0.4l0.3,0.1l0.1,0.3v1.5"/>
		<path class="st2" d="M298.5,72v2.3l-0.1,0.3l-0.1,0.1l-0.3,0.1h-0.4l-0.3-0.1"/>
		<path class="st2" d="M298.5,73.8l-0.3,0.1h-0.5l-0.3-0.1l-0.1-0.1l-0.1-0.3v-0.8l0.1-0.3l0.1-0.1l0.3-0.1h0.5l0.3,0.1"/>
		<path class="st2" d="M299.9,73.9v-2.8"/>
		<path class="st2" d="M299.9,72.4h1.6"/>
		<path class="st2" d="M301.5,73.9v-2.8"/>
		<path class="st2" d="M303.3,73.9l-0.3-0.1l-0.1-0.1l-0.1-0.3v-0.8l0.1-0.3l0.1-0.1l0.3-0.1h0.4l0.3,0.1l0.1,0.1l0.1,0.3v0.8
			l-0.1,0.3l-0.1,0.1l-0.3,0.1H303.3"/>
		<path class="st2" d="M305.8,73.9l-0.3-0.1l-0.1-0.3v-2.4"/>
		<path class="st2" d="M308,73.8l-0.3,0.1h-0.5l-0.3-0.1l-0.1-0.3v-1.1l0.1-0.3l0.3-0.1h0.5l0.3,0.1l0.1,0.3v0.3l-1.3,0.3"/>
		<path class="st2" d="M308.7,74.2h2.2"/>
		<path class="st2" d="M311.4,71.3l0.1-0.1l0.3-0.1h0.7l0.3,0.1l0.1,0.1l0.1,0.3v0.3l-0.1,0.4l-1.6,1.6h1.7"/>
		<path class="st2" d="M314.2,73.6l0.1,0.1l-0.1,0.1l-0.1-0.1L314.2,73.6v0.3"/>
		<path class="st2" d="M315.4,71.3l0.1-0.1l0.3-0.1h0.7l0.3,0.1l0.1,0.1l0.1,0.3v0.3l-0.1,0.4l-1.6,1.6h1.8"/>
		<path class="st2" d="M318.3,73.9V72"/>
		<path class="st2" d="M318.3,72.3l0.1-0.1l0.3-0.1h0.4l0.3,0.1l0.1,0.3v1.5"/>
		<path class="st2" d="M319.5,72.4l0.1-0.3l0.3-0.1h0.4l0.3,0.1l0.1,0.3v1.5"/>
		<path class="st2" d="M322,73.9V72"/>
		<path class="st2" d="M322,72.3l0.1-0.1l0.3-0.1h0.4l0.3,0.1l0.1,0.3v1.5"/>
		<path class="st2" d="M323.3,72.4l0.1-0.3l0.3-0.1h0.4l0.3,0.1l0.1,0.3v1.5"/>
		<path class="st2" d="M325.1,74.2h2.2"/>
		<path class="st2" d="M328,73.9v-2.8l0.9,2l1-2v2.8"/>
		<path class="st2" d="M331.1,71.3l0.1-0.1l0.3-0.1h0.7l0.3,0.1l0.1,0.1l0.1,0.3v0.3l-0.1,0.4l-1.6,1.6h1.7"/>
		<path class="st2" d="M303.8,64.8l-1-1.4"/>
		<path class="st2" d="M302.2,64.8V62h1.1l0.3,0.1l0.1,0.1l0.1,0.3v0.4l-0.1,0.3l-0.1,0.1l-0.3,0.1h-1.1"/>
		<path class="st2" d="M305,63.3h1"/>
		<path class="st2" d="M306.4,64.8H305V62h1.4"/>
		<path class="st2" d="M308.5,63.3h-0.9"/>
		<path class="st2" d="M307.6,64.8V62h1.3"/>
		<path class="st2" d="M310.4,62v0.7"/>
		<path class="st2" d="M309.7,62.4l0.7,0.3l0.7-0.3"/>
		<path class="st2" d="M310,63.2l0.4-0.5l0.4,0.5"/>
		<path class="st2" d="M312.6,62v0.7"/>
		<path class="st2" d="M311.9,62.4l0.7,0.3l0.7-0.3"/>
		<path class="st2" d="M312.2,63.2l0.4-0.5l0.4,0.5"/>
		<path class="st2" d="M281.2,247.2v-2.8l1,2l0.9-2v2.8"/>
		<path class="st2" d="M284.9,247.2l-0.3-0.1l-0.1-0.1l-0.1-0.3v-0.8l0.1-0.3l0.1-0.1l0.3-0.1h0.4l0.3,0.1l0.1,0.1l0.1,0.3v0.8
			l-0.1,0.3l-0.1,0.1l-0.3,0.1H284.9"/>
		<path class="st2" d="M288.2,245.3v1.9"/>
		<path class="st2" d="M287,245.3v1.5l0.1,0.3l0.3,0.1h0.4l0.3-0.1l0.1-0.1"/>
		<path class="st2" d="M289.6,245.3v1.9"/>
		<path class="st2" d="M289.6,245.6l0.1-0.1l0.3-0.1h0.4l0.3,0.1l0.1,0.3v1.5"/>
		<path class="st2" d="M291.8,245.3h1.1"/>
		<path class="st2" d="M292.2,244.4v2.4l0.1,0.3l0.3,0.1h0.3"/>
		<path class="st2" d="M293.8,247.2v-1.9"/>
		<path class="st2" d="M293.8,244.4l-0.1,0.1l0.1,0.1l0.1-0.1L293.8,244.4v0.3"/>
		<path class="st2" d="M295.1,245.3v1.9"/>
		<path class="st2" d="M295.1,245.6l0.1-0.1l0.3-0.1h0.4l0.3,0.1l0.1,0.3v1.5"/>
		<path class="st2" d="M298.9,245.3v2.3l-0.1,0.3l-0.1,0.1l-0.3,0.1H298l-0.3-0.1"/>
		<path class="st2" d="M298.9,247.1l-0.3,0.1h-0.5l-0.3-0.1l-0.1-0.1l-0.1-0.3v-0.8l0.1-0.3l0.1-0.1l0.3-0.1h0.5l0.3,0.1"/>
		<path class="st2" d="M300.3,247.2v-2.8"/>
		<path class="st2" d="M300.3,245.7h1.6"/>
		<path class="st2" d="M301.9,247.2v-2.8"/>
		<path class="st2" d="M303.6,247.2l-0.3-0.1l-0.1-0.1l-0.1-0.3v-0.8l0.1-0.3l0.1-0.1l0.3-0.1h0.4l0.3,0.1l0.1,0.1l0.1,0.3v0.8
			l-0.1,0.3l-0.1,0.1l-0.3,0.1H303.6"/>
		<path class="st2" d="M306.2,247.2l-0.3-0.1l-0.1-0.3v-2.4"/>
		<path class="st2" d="M308.4,247.1l-0.3,0.1h-0.5l-0.3-0.1l-0.1-0.3v-1.1l0.1-0.3l0.3-0.1h0.5l0.3,0.1l0.1,0.3v0.3l-1.3,0.3"/>
		<path class="st2" d="M309,247.5h2.2"/>
		<path class="st2" d="M311.7,244.7l0.1-0.1l0.3-0.1h0.7l0.3,0.1l0.1,0.1l0.1,0.3v0.3l-0.1,0.4l-1.6,1.6h1.7"/>
		<path class="st2" d="M314.6,247l0.1,0.1l-0.1,0.1l-0.1-0.1L314.6,247v0.3"/>
		<path class="st2" d="M315.8,244.7l0.1-0.1l0.3-0.1h0.7l0.3,0.1l0.1,0.1l0.1,0.3v0.3l-0.1,0.4l-1.6,1.6h1.8"/>
		<path class="st2" d="M318.6,247.2v-1.9"/>
		<path class="st2" d="M318.6,245.6l0.1-0.1l0.3-0.1h0.4l0.3,0.1l0.1,0.3v1.5"/>
		<path class="st2" d="M319.8,245.7l0.1-0.3l0.3-0.1h0.4l0.3,0.1l0.1,0.3v1.5"/>
		<path class="st2" d="M322.4,247.2v-1.9"/>
		<path class="st2" d="M322.4,245.6l0.1-0.1l0.3-0.1h0.4l0.3,0.1l0.1,0.3v1.5"/>
		<path class="st2" d="M323.6,245.7l0.1-0.3l0.3-0.1h0.4l0.3,0.1l0.1,0.3v1.5"/>
		<path class="st2" d="M325.5,247.5h2.2"/>
		<path class="st2" d="M328.3,247.2v-2.8l0.9,2l1-2v2.8"/>
		<path class="st2" d="M331.4,244.7l0.1-0.1l0.3-0.1h0.7l0.3,0.1l0.1,0.1l0.1,0.3v0.3l-0.1,0.4l-1.6,1.6h1.7"/>
		<path class="st2" d="M304.1,238.2l-1-1.4"/>
		<path class="st2" d="M302.5,238.2v-2.8h1.1l0.3,0.1l0.1,0.1l0.1,0.3v0.4l-0.1,0.3l-0.1,0.1l-0.3,0.1h-1.1"/>
		<path class="st2" d="M305.4,236.7h1"/>
		<path class="st2" d="M306.7,238.2h-1.4v-2.8h1.4"/>
		<path class="st2" d="M308.9,236.7h-0.9"/>
		<path class="st2" d="M307.9,238.2v-2.8h1.3"/>
		<path class="st2" d="M310.8,235.3v0.7"/>
		<path class="st2" d="M310.1,235.7l0.7,0.3l0.7-0.3"/>
		<path class="st2" d="M310.4,236.5l0.4-0.5l0.4,0.5"/>
		<path class="st2" d="M312.9,235.3v0.7"/>
		<path class="st2" d="M312.2,235.7l0.7,0.3l0.7-0.3"/>
		<path class="st2" d="M312.5,236.5l0.4-0.5l0.4,0.5"/>
		<path class="st2" d="M167.5,247.2v-2.8l1,2l0.9-2v2.8"/>
		<path class="st2" d="M171.1,247.2l-0.3-0.1l-0.1-0.1l-0.1-0.3v-0.8l0.1-0.3l0.1-0.1l0.3-0.1h0.4l0.3,0.1l0.1,0.1l0.1,0.3v0.8
			l-0.1,0.3l-0.1,0.1l-0.3,0.1H171.1"/>
		<path class="st2" d="M174.5,245.3v1.9"/>
		<path class="st2" d="M173.3,245.3v1.5l0.1,0.3l0.3,0.1h0.4l0.3-0.1l0.1-0.1"/>
		<path class="st2" d="M175.8,245.3v1.9"/>
		<path class="st2" d="M175.8,245.6l0.1-0.1l0.3-0.1h0.4l0.3,0.1l0.1,0.3v1.5"/>
		<path class="st2" d="M178,245.3h1.1"/>
		<path class="st2" d="M178.4,244.4v2.4l0.1,0.3l0.3,0.1h0.3"/>
		<path class="st2" d="M180,247.2v-1.9"/>
		<path class="st2" d="M180,244.4l-0.1,0.1l0.1,0.1l0.1-0.1L180,244.4v0.3"/>
		<path class="st2" d="M181.4,245.3v1.9"/>
		<path class="st2" d="M181.4,245.6l0.1-0.1l0.3-0.1h0.4l0.3,0.1l0.1,0.3v1.5"/>
		<path class="st2" d="M185.1,245.3v2.3l-0.1,0.3l-0.1,0.1l-0.3,0.1h-0.4l-0.3-0.1"/>
		<path class="st2" d="M185.1,247.1l-0.3,0.1h-0.5l-0.3-0.1l-0.1-0.1l-0.1-0.3v-0.8l0.1-0.3l0.1-0.1l0.3-0.1h0.5l0.3,0.1"/>
		<path class="st2" d="M186.5,247.2v-2.8"/>
		<path class="st2" d="M186.5,245.7h1.6"/>
		<path class="st2" d="M188.1,247.2v-2.8"/>
		<path class="st2" d="M189.9,247.2l-0.3-0.1l-0.1-0.1l-0.1-0.3v-0.8l0.1-0.3l0.1-0.1l0.3-0.1h0.4l0.3,0.1l0.1,0.1l0.1,0.3v0.8
			l-0.1,0.3l-0.1,0.1l-0.3,0.1H189.9"/>
		<path class="st2" d="M192.4,247.2l-0.3-0.1l-0.1-0.3v-2.4"/>
		<path class="st2" d="M194.6,247.1l-0.3,0.1h-0.5l-0.3-0.1l-0.1-0.3v-1.1l0.1-0.3l0.3-0.1h0.5l0.3,0.1l0.1,0.3v0.3l-1.3,0.3"/>
		<path class="st2" d="M195.3,247.5h2.2"/>
		<path class="st2" d="M198,244.7l0.1-0.1l0.3-0.1h0.7l0.3,0.1l0.1,0.1l0.1,0.3v0.3l-0.1,0.4l-1.6,1.6h1.7"/>
		<path class="st2" d="M200.8,247l0.1,0.1l-0.1,0.1l-0.1-0.1L200.8,247v0.3"/>
		<path class="st2" d="M202,244.7l0.1-0.1l0.3-0.1h0.7l0.3,0.1l0.1,0.1l0.1,0.3v0.3l-0.1,0.4l-1.6,1.6h1.8"/>
		<path class="st2" d="M204.9,247.2v-1.9"/>
		<path class="st2" d="M204.9,245.6l0.1-0.1l0.3-0.1h0.4l0.3,0.1l0.1,0.3v1.5"/>
		<path class="st2" d="M206.1,245.7l0.1-0.3l0.3-0.1h0.4l0.3,0.1l0.1,0.3v1.5"/>
		<path class="st2" d="M208.6,247.2v-1.9"/>
		<path class="st2" d="M208.6,245.6l0.1-0.1l0.3-0.1h0.4l0.3,0.1l0.1,0.3v1.5"/>
		<path class="st2" d="M209.9,245.7l0.1-0.3l0.3-0.1h0.4l0.3,0.1l0.1,0.3v1.5"/>
		<path class="st2" d="M211.7,247.5h2.2"/>
		<path class="st2" d="M214.6,247.2v-2.8l0.9,2l1-2v2.8"/>
		<path class="st2" d="M217.7,244.7l0.1-0.1l0.3-0.1h0.7l0.3,0.1l0.1,0.1l0.1,0.3v0.3l-0.1,0.4l-1.6,1.6h1.7"/>
		<path class="st2" d="M190.4,238.2l-1-1.4"/>
		<path class="st2" d="M188.8,238.2v-2.8h1.1l0.3,0.1l0.1,0.1l0.1,0.3v0.4l-0.1,0.3l-0.1,0.1l-0.3,0.1h-1.1"/>
		<path class="st2" d="M191.6,236.7h1"/>
		<path class="st2" d="M193,238.2h-1.4v-2.8h1.4"/>
		<path class="st2" d="M195.1,236.7h-0.9"/>
		<path class="st2" d="M194.2,238.2v-2.8h1.3"/>
		<path class="st2" d="M197,235.3v0.7"/>
		<path class="st2" d="M196.3,235.7l0.7,0.3l0.7-0.3"/>
		<path class="st2" d="M196.6,236.5l0.4-0.5l0.4,0.5"/>
		<path class="st2" d="M199.2,235.3v0.7"/>
		<path class="st2" d="M198.5,235.7l0.7,0.3l0.7-0.3"/>
		<path class="st2" d="M198.8,236.5l0.4-0.5l0.4,0.5"/>
		<path class="st2" d="M53.7,247v-2.8l1,2l0.9-2v2.8"/>
		<path class="st2" d="M57.4,247l-0.3-0.1l-0.1-0.1l-0.1-0.3v-0.8l0.1-0.3l0.1-0.1l0.3-0.1h0.4l0.3,0.1l0.1,0.1l0.1,0.3v0.8
			l-0.1,0.3l-0.1,0.1l-0.3,0.1H57.4"/>
		<path class="st2" d="M60.7,245.2v1.9"/>
		<path class="st2" d="M59.5,245.2v1.5l0.1,0.3l0.3,0.1h0.4l0.3-0.1l0.1-0.1"/>
		<path class="st2" d="M62.1,245.2v1.9"/>
		<path class="st2" d="M62.1,245.4l0.1-0.1l0.3-0.1h0.4l0.3,0.1l0.1,0.3v1.5"/>
		<path class="st2" d="M64.2,245.2h1.1"/>
		<path class="st2" d="M64.6,244.2v2.4l0.1,0.3L65,247h0.3"/>
		<path class="st2" d="M66.3,247v-1.9"/>
		<path class="st2" d="M66.3,244.2l-0.1,0.1l0.1,0.1l0.1-0.1L66.3,244.2v0.3"/>
		<path class="st2" d="M67.6,245.2v1.9"/>
		<path class="st2" d="M67.6,245.4l0.1-0.1l0.3-0.1h0.4l0.3,0.1l0.1,0.3v1.5"/>
		<path class="st2" d="M71.4,245.2v2.3l-0.1,0.3l-0.1,0.1l-0.3,0.1h-0.4l-0.3-0.1"/>
		<path class="st2" d="M71.4,246.9l-0.3,0.1h-0.5l-0.3-0.1l-0.1-0.1l-0.1-0.3v-0.8l0.1-0.3l0.1-0.1l0.3-0.1h0.5l0.3,0.1"/>
		<path class="st2" d="M72.7,247v-2.8"/>
		<path class="st2" d="M72.7,245.6h1.6"/>
		<path class="st2" d="M74.4,247v-2.8"/>
		<path class="st2" d="M76.1,247l-0.3-0.1l-0.1-0.1l-0.1-0.3v-0.8l0.1-0.3l0.1-0.1l0.3-0.1h0.4l0.3,0.1l0.1,0.1l0.1,0.3v0.8
			l-0.1,0.3l-0.1,0.1l-0.3,0.1H76.1"/>
		<path class="st2" d="M78.7,247l-0.3-0.1l-0.1-0.3v-2.4"/>
		<path class="st2" d="M80.8,246.9l-0.3,0.1H80l-0.3-0.1l-0.1-0.3v-1.1l0.1-0.3l0.3-0.1h0.5l0.3,0.1l0.1,0.3v0.3l-1.3,0.3"/>
		<path class="st2" d="M81.5,247.3h2.2"/>
		<path class="st2" d="M84.2,244.5l0.1-0.1l0.3-0.1h0.7l0.3,0.1l0.1,0.1l0.1,0.3v0.3l-0.1,0.4l-1.6,1.6h1.7"/>
		<path class="st2" d="M87,246.8l0.1,0.1L87,247l-0.1-0.1L87,246.8v0.3"/>
		<path class="st2" d="M88.3,244.5l0.1-0.1l0.3-0.1h0.7l0.3,0.1l0.1,0.1l0.1,0.3v0.3l-0.1,0.4l-1.6,1.6h1.8"/>
		<path class="st2" d="M91.1,247v-1.9"/>
		<path class="st2" d="M91.1,245.4l0.1-0.1l0.3-0.1h0.4l0.3,0.1l0.1,0.3v1.5"/>
		<path class="st2" d="M92.3,245.6l0.1-0.3l0.3-0.1h0.4l0.3,0.1l0.1,0.3v1.5"/>
		<path class="st2" d="M94.9,247v-1.9"/>
		<path class="st2" d="M94.9,245.4l0.1-0.1l0.3-0.1h0.4l0.3,0.1l0.1,0.3v1.5"/>
		<path class="st2" d="M96.1,245.6l0.1-0.3l0.3-0.1h0.4l0.3,0.1l0.1,0.3v1.5"/>
		<path class="st2" d="M98,247.3h2.2"/>
		<path class="st2" d="M100.8,247v-2.8l0.9,2l1-2v2.8"/>
		<path class="st2" d="M103.9,244.5l0.1-0.1l0.3-0.1h0.7l0.3,0.1l0.1,0.1l0.1,0.3v0.3l-0.1,0.4l-1.6,1.6h1.7"/>
		<path class="st2" d="M76.6,238l-1-1.4"/>
		<path class="st2" d="M75,238v-2.8h1.1l0.3,0.1l0.1,0.1l0.1,0.3v0.4l-0.1,0.3l-0.1,0.1l-0.3,0.1H75"/>
		<path class="st2" d="M77.8,236.5h1"/>
		<path class="st2" d="M79.2,238h-1.4v-2.8h1.4"/>
		<path class="st2" d="M81.4,236.5h-0.9"/>
		<path class="st2" d="M80.4,238v-2.8h1.3"/>
		<path class="st2" d="M83.2,235.1v0.7"/>
		<path class="st2" d="M82.6,235.5l0.7,0.3l0.7-0.3"/>
		<path class="st2" d="M82.8,236.4l0.4-0.5l0.4,0.5"/>
		<path class="st2" d="M85.4,235.1v0.7"/>
		<path class="st2" d="M84.7,235.5l0.7,0.3l0.7-0.3"/>
		<path class="st2" d="M85,236.4l0.4-0.5l0.4,0.5"/>
		<path class="st2" d="M86.9,46.9l0.7,2.8l0.5-2l0.5,2l0.7-2.8"/>
		<path class="st2" d="M90.3,49.6l0.4,0.1h0.7l0.3-0.1l0.1-0.1l0.1-0.3v-0.3l-0.1-0.3l-0.1-0.1l-0.3-0.1l-0.5-0.1l-0.3-0.1l-0.1-0.1
			l-0.1-0.3v-0.3l0.1-0.3l0.1-0.1l0.3-0.1h0.7l0.4,0.1"/>
		<path class="st2" d="M93,47.1l0.1-0.1l0.3-0.1h0.7l0.3,0.1l0.1,0.1l0.1,0.3v0.3l-0.1,0.4l-1.6,1.6h1.8"/>
		<path class="st2" d="M96.2,48.1L96,47.9l-0.1-0.1l-0.1-0.3v-0.1l0.1-0.3L96,47l0.3-0.1h0.5L97,47l0.1,0.1l0.1,0.3v0.1l-0.1,0.3
			L97,47.9l-0.3,0.1H96.2L96,48.2l-0.1,0.1l-0.1,0.3v0.5l0.1,0.3l0.1,0.1l0.3,0.1h0.5l0.3-0.1l0.1-0.1l0.1-0.3v-0.5l-0.1-0.3
			L97,48.2l-0.3-0.1"/>
		<path class="st2" d="M100,49.7h-1.6"/>
		<path class="st2" d="M99.2,49.7v-2.8l-0.3,0.4l-0.3,0.3l-0.3,0.1"/>
		<path class="st2" d="M101.1,47.1l0.1-0.1l0.3-0.1h0.7l0.3,0.1l0.1,0.1l0.1,0.3v0.3l-0.1,0.4l-1.6,1.6h1.8"/>
		<path class="st2" d="M104.9,48.2l0.4,0.1l0.1,0.1l0.1,0.3v0.4l-0.1,0.3l-0.1,0.1l-0.3,0.1h-1.1v-2.8h0.9l0.3,0.1l0.1,0.1l0.1,0.3
			v0.3l-0.1,0.3l-0.1,0.1L104.9,48.2h-0.9"/>
		<path class="st2" d="M93.5,60.8v-2.3h0.5l0.3,0.1l0.2,0.2l0.1,0.2l0.1,0.4v0.3l-0.1,0.4l-0.1,0.2l-0.2,0.2l-0.3,0.1H93.5"/>
		<path class="st2" d="M97,60.8h-1.3"/>
		<path class="st2" d="M96.4,60.8v-2.3l-0.2,0.3l-0.2,0.2l-0.2,0.1"/>
		<path class="st2" d="M97.8,58.5h1.4l-0.8,0.9h0.3l0.2,0.1l0.1,0.1l0.1,0.2v0.5l-0.1,0.2l-0.1,0.1l-0.2,0.1h-0.6l-0.2-0.1l-0.1-0.1
			"/>
		<path class="st2" d="M112.8,46.9l0.7,2.8l0.5-2l0.5,2l0.7-2.8"/>
		<path class="st2" d="M116.2,49.6l0.4,0.1h0.7l0.3-0.1l0.1-0.1l0.1-0.3v-0.3l-0.1-0.3l-0.1-0.1l-0.3-0.1l-0.5-0.1l-0.3-0.1
			l-0.1-0.1l-0.1-0.3v-0.3l0.1-0.3l0.1-0.1l0.3-0.1h0.7l0.4,0.1"/>
		<path class="st2" d="M118.9,47.1L119,47l0.3-0.1h0.7l0.3,0.1l0.1,0.1l0.1,0.3v0.3l-0.1,0.4l-1.6,1.6h1.8"/>
		<path class="st2" d="M122.1,48.1l-0.3-0.1l-0.1-0.1l-0.1-0.3v-0.1l0.1-0.3l0.1-0.1l0.3-0.1h0.5L123,47l0.1,0.1l0.1,0.3v0.1
			l-0.1,0.3l-0.1,0.1l-0.3,0.1H122.1l-0.3,0.1l-0.1,0.1l-0.1,0.3v0.5l0.1,0.3l0.1,0.1l0.3,0.1h0.5l0.3-0.1l0.1-0.1l0.1-0.3v-0.5
			l-0.1-0.3l-0.1-0.1l-0.3-0.1"/>
		<path class="st2" d="M125.9,49.7h-1.6"/>
		<path class="st2" d="M125.1,49.7v-2.8l-0.3,0.4l-0.3,0.3l-0.3,0.1"/>
		<path class="st2" d="M127,47.1l0.1-0.1l0.3-0.1h0.7l0.3,0.1l0.1,0.1l0.1,0.3v0.3l-0.1,0.4l-1.6,1.6h1.8"/>
		<path class="st2" d="M130.8,48.2l0.4,0.1l0.1,0.1l0.1,0.3v0.4l-0.1,0.3l-0.1,0.1l-0.3,0.1h-1.1v-2.8h0.9l0.3,0.1l0.1,0.1l0.1,0.3
			v0.3l-0.1,0.3l-0.1,0.1L130.8,48.2h-0.9"/>
		<path class="st2" d="M119.5,60.8v-2.3h0.5l0.3,0.1l0.2,0.2l0.1,0.2l0.1,0.4v0.3l-0.1,0.4l-0.1,0.2l-0.2,0.2l-0.3,0.1H119.5"/>
		<path class="st2" d="M122.9,60.8h-1.3"/>
		<path class="st2" d="M122.3,60.8v-2.3l-0.2,0.3l-0.2,0.2l-0.2,0.1"/>
		<path class="st2" d="M124.9,59.3v1.5"/>
		<path class="st2" d="M124.3,58.4l-0.5,1.6h1.4"/>
		<path class="st2" d="M138.4,46.9l0.7,2.8l0.5-2l0.5,2l0.7-2.8"/>
		<path class="st2" d="M141.8,49.6l0.4,0.1h0.7l0.3-0.1l0.1-0.1l0.1-0.3v-0.3l-0.1-0.3l-0.1-0.1l-0.3-0.1l-0.5-0.1l-0.3-0.1
			l-0.1-0.1l-0.1-0.3v-0.3l0.1-0.3L142,47l0.3-0.1h0.7l0.4,0.1"/>
		<path class="st2" d="M144.5,47.1l0.1-0.1l0.3-0.1h0.7l0.3,0.1l0.1,0.1l0.1,0.3v0.3l-0.1,0.4l-1.6,1.6h1.8"/>
		<path class="st2" d="M147.7,48.1l-0.3-0.1l-0.1-0.1l-0.1-0.3v-0.1l0.1-0.3l0.1-0.1l0.3-0.1h0.5l0.3,0.1l0.1,0.1l0.1,0.3v0.1
			l-0.1,0.3l-0.1,0.1l-0.3,0.1H147.7l-0.3,0.1l-0.1,0.1l-0.1,0.3v0.5l0.1,0.3l0.1,0.1l0.3,0.1h0.5l0.3-0.1l0.1-0.1l0.1-0.3v-0.5
			l-0.1-0.3l-0.1-0.1l-0.3-0.1"/>
		<path class="st2" d="M151.5,49.7h-1.6"/>
		<path class="st2" d="M150.7,49.7v-2.8l-0.3,0.4l-0.3,0.3l-0.3,0.1"/>
		<path class="st2" d="M152.6,47.1l0.1-0.1l0.3-0.1h0.7l0.3,0.1l0.1,0.1l0.1,0.3v0.3l-0.1,0.4l-1.6,1.6h1.8"/>
		<path class="st2" d="M156.3,48.2l0.4,0.1l0.1,0.1l0.1,0.3v0.4l-0.1,0.3l-0.1,0.1l-0.3,0.1h-1.1v-2.8h0.9l0.3,0.1l0.1,0.1l0.1,0.3
			v0.3l-0.1,0.3l-0.1,0.1L156.3,48.2h-0.9"/>
		<path class="st2" d="M145,60.8v-2.3h0.5l0.3,0.1l0.2,0.2l0.1,0.2l0.1,0.4v0.3l-0.1,0.4l-0.1,0.2l-0.2,0.2l-0.3,0.1H145"/>
		<path class="st2" d="M148.5,60.8h-1.3"/>
		<path class="st2" d="M147.8,60.8v-2.3l-0.2,0.3l-0.2,0.2l-0.2,0.1"/>
		<path class="st2" d="M150.5,58.5h-1.1l-0.1,1.1l0.1-0.1l0.2-0.1h0.5l0.2,0.1l0.1,0.1l0.1,0.2v0.5l-0.1,0.2l-0.1,0.1l-0.2,0.1h-0.5
			l-0.2-0.1l-0.1-0.1"/>
		<path class="st2" d="M164.1,47l0.7,2.8l0.5-2l0.5,2l0.7-2.8"/>
		<path class="st2" d="M167.5,49.7l0.4,0.1h0.7l0.3-0.1l0.1-0.1l0.1-0.3v-0.3l-0.1-0.3l-0.1-0.1l-0.3-0.1l-0.5-0.1l-0.3-0.1
			l-0.1-0.1l-0.1-0.3v-0.3l0.1-0.3l0.1-0.1L168,47h0.7l0.4,0.1"/>
		<path class="st2" d="M170.2,47.3l0.1-0.1l0.3-0.1h0.7l0.3,0.1l0.1,0.1l0.1,0.3v0.3l-0.1,0.4l-1.6,1.6h1.8"/>
		<path class="st2" d="M173.4,48.3l-0.3-0.1L173,48l-0.1-0.3v-0.1l0.1-0.3l0.1-0.1l0.3-0.1h0.5l0.3,0.1l0.1,0.1l0.1,0.3v0.1
			l-0.1,0.3l-0.1,0.1l-0.3,0.1H173.4l-0.3,0.1l-0.1,0.1l-0.1,0.3v0.5l0.1,0.3l0.1,0.1l0.3,0.1h0.5l0.3-0.1l0.1-0.1l0.1-0.3v-0.5
			l-0.1-0.3l-0.1-0.1l-0.3-0.1"/>
		<path class="st2" d="M177.2,49.9h-1.6"/>
		<path class="st2" d="M176.4,49.9V47l-0.3,0.4l-0.3,0.3l-0.3,0.1"/>
		<path class="st2" d="M178.3,47.3l0.1-0.1l0.3-0.1h0.7l0.3,0.1l0.1,0.1l0.1,0.3v0.3l-0.1,0.4l-1.6,1.6h1.8"/>
		<path class="st2" d="M182.1,48.4l0.4,0.1l0.1,0.1l0.1,0.3v0.4l-0.1,0.3l-0.1,0.1l-0.3,0.1h-1.1V47h0.9l0.3,0.1l0.1,0.1l0.1,0.3
			v0.3l-0.1,0.3l-0.1,0.1L182.1,48.4h-0.9"/>
		<path class="st2" d="M170.8,61v-2.3h0.5l0.3,0.1l0.2,0.2l0.1,0.2l0.1,0.4V60l-0.1,0.4l-0.1,0.2l-0.2,0.2l-0.3,0.1H170.8"/>
		<path class="st2" d="M174.2,61h-1.3"/>
		<path class="st2" d="M173.6,61v-2.3l-0.2,0.3l-0.2,0.2l-0.2,0.1"/>
		<path class="st2" d="M176.2,58.7h-0.4l-0.2,0.1l-0.1,0.1l-0.2,0.3l-0.1,0.4v0.9l0.1,0.2l0.1,0.1l0.2,0.1h0.4l0.2-0.1l0.1-0.1
			l0.1-0.2V60l-0.1-0.2l-0.1-0.1l-0.2-0.1h-0.4l-0.2,0.1l-0.1,0.1l-0.1,0.2"/>
		<path class="st2" d="M204.8,47l0.7,2.8l0.5-2l0.5,2l0.7-2.8"/>
		<path class="st2" d="M208.2,49.7l0.4,0.1h0.7l0.3-0.1l0.1-0.1l0.1-0.3v-0.3l-0.1-0.3l-0.1-0.1l-0.3-0.1l-0.5-0.1l-0.3-0.1
			l-0.1-0.1l-0.1-0.3v-0.3l0.1-0.3l0.1-0.1l0.3-0.1h0.7l0.4,0.1"/>
		<path class="st2" d="M210.9,47.3l0.1-0.1l0.3-0.1h0.7l0.3,0.1l0.1,0.1l0.1,0.3v0.3l-0.1,0.4l-1.6,1.6h1.8"/>
		<path class="st2" d="M214.1,48.3l-0.3-0.1l-0.1-0.1l-0.1-0.3v-0.1l0.1-0.3l0.1-0.1l0.3-0.1h0.5l0.3,0.1l0.1,0.1l0.1,0.3v0.1
			l-0.1,0.3l-0.1,0.1l-0.3,0.1H214.1l-0.3,0.1l-0.1,0.1l-0.1,0.3v0.5l0.1,0.3l0.1,0.1l0.3,0.1h0.5l0.3-0.1l0.1-0.1l0.1-0.3v-0.5
			l-0.1-0.3l-0.1-0.1l-0.3-0.1"/>
		<path class="st2" d="M217.9,49.9h-1.6"/>
		<path class="st2" d="M217.1,49.9V47l-0.3,0.4l-0.3,0.3l-0.3,0.1"/>
		<path class="st2" d="M219,47.3l0.1-0.1l0.3-0.1h0.7l0.3,0.1l0.1,0.1l0.1,0.3v0.3l-0.1,0.4l-1.6,1.6h1.8"/>
		<path class="st2" d="M222.8,48.4l0.4,0.1l0.1,0.1l0.1,0.3v0.4l-0.1,0.3l-0.1,0.1l-0.3,0.1h-1.1V47h0.9l0.3,0.1l0.1,0.1l0.1,0.3
			v0.3l-0.1,0.3l-0.1,0.1L222.8,48.4h-0.9"/>
		<path class="st2" d="M211.4,61v-2.3h0.5l0.3,0.1l0.2,0.2l0.1,0.2l0.1,0.4V60l-0.1,0.4l-0.1,0.2l-0.2,0.2L212,61H211.4"/>
		<path class="st2" d="M214.9,61h-1.3"/>
		<path class="st2" d="M214.3,61v-2.3L214,59l-0.2,0.2l-0.2,0.1"/>
		<path class="st2" d="M215.7,58.7h1.5l-1,2.3"/>
		<path class="st2" d="M230.6,47l0.7,2.8l0.5-2l0.5,2L233,47"/>
		<path class="st2" d="M233.9,49.7l0.4,0.1h0.7l0.3-0.1l0.1-0.1l0.1-0.3v-0.3l-0.1-0.3l-0.1-0.1l-0.3-0.1l-0.5-0.1l-0.3-0.1
			l-0.1-0.1l-0.1-0.3v-0.3l0.1-0.3l0.1-0.1l0.3-0.1h0.7l0.4,0.1"/>
		<path class="st2" d="M236.6,47.3l0.1-0.1L237,47h0.7l0.3,0.1l0.1,0.1l0.1,0.3v0.3l-0.1,0.4l-1.6,1.6h1.8"/>
		<path class="st2" d="M239.9,48.3l-0.3-0.1l-0.1-0.1l-0.1-0.3v-0.1l0.1-0.3l0.1-0.1l0.3-0.1h0.5l0.3,0.1l0.1,0.1l0.1,0.3v0.1
			l-0.1,0.3l-0.1,0.1l-0.3,0.1H239.9l-0.3,0.1l-0.1,0.1l-0.1,0.3v0.5l0.1,0.3l0.1,0.1l0.3,0.1h0.5l0.3-0.1l0.1-0.1l0.1-0.3v-0.5
			l-0.1-0.3l-0.1-0.1l-0.3-0.1"/>
		<path class="st2" d="M243.6,49.9H242"/>
		<path class="st2" d="M242.8,49.9V47l-0.3,0.4l-0.3,0.3l-0.3,0.1"/>
		<path class="st2" d="M244.7,47.3l0.1-0.1l0.3-0.1h0.7l0.3,0.1l0.1,0.1l0.1,0.3v0.3l-0.1,0.4l-1.6,1.6h1.8"/>
		<path class="st2" d="M248.5,48.4l0.4,0.1l0.1,0.1l0.1,0.3v0.4l-0.1,0.3l-0.1,0.1l-0.3,0.1h-1.1V47h0.9l0.3,0.1l0.1,0.1l0.1,0.3
			v0.3l-0.1,0.3l-0.1,0.1L248.5,48.4h-0.9"/>
		<path class="st2" d="M237.2,61v-2.3h0.5l0.3,0.1l0.2,0.2l0.1,0.2l0.1,0.4V60l-0.1,0.4l-0.1,0.2l-0.2,0.2l-0.3,0.1H237.2"/>
		<path class="st2" d="M240.6,61h-1.3"/>
		<path class="st2" d="M240,61v-2.3l-0.2,0.3l-0.2,0.2l-0.2,0.1"/>
		<path class="st2" d="M241.9,59.7l-0.2-0.1l-0.1-0.1l-0.1-0.2v-0.1l0.1-0.2l0.1-0.1l0.2-0.1h0.4l0.2,0.1l0.1,0.1l0.1,0.2v0.1
			l-0.1,0.2l-0.1,0.1l-0.2,0.1H241.9l-0.2,0.1l-0.1,0.1l-0.1,0.2v0.4l0.1,0.2l0.1,0.1l0.2,0.1h0.4l0.2-0.1l0.1-0.1l0.1-0.2v-0.4
			l-0.1-0.2l-0.1-0.1l-0.2-0.1"/>
		<path class="st2" d="M257,47l0.7,2.8l0.5-2l0.5,2l0.7-2.8"/>
		<path class="st2" d="M260.4,49.7l0.4,0.1h0.7l0.3-0.1l0.1-0.1l0.1-0.3v-0.3l-0.1-0.3l-0.1-0.1l-0.3-0.1l-0.5-0.1l-0.3-0.1
			l-0.1-0.1l-0.1-0.3v-0.3l0.1-0.3l0.1-0.1l0.3-0.1h0.7l0.4,0.1"/>
		<path class="st2" d="M263.1,47.3l0.1-0.1l0.3-0.1h0.7l0.3,0.1l0.1,0.1l0.1,0.3v0.3l-0.1,0.4l-1.6,1.6h1.8"/>
		<path class="st2" d="M266.3,48.3l-0.3-0.1l-0.1-0.1l-0.1-0.3v-0.1l0.1-0.3l0.1-0.1l0.3-0.1h0.5l0.3,0.1l0.1,0.1l0.1,0.3v0.1
			l-0.1,0.3l-0.1,0.1l-0.3,0.1H266.3l-0.3,0.1l-0.1,0.1l-0.1,0.3v0.5l0.1,0.3l0.1,0.1l0.3,0.1h0.5l0.3-0.1l0.1-0.1l0.1-0.3v-0.5
			l-0.1-0.3l-0.1-0.1l-0.3-0.1"/>
		<path class="st2" d="M270.1,49.9h-1.6"/>
		<path class="st2" d="M269.3,49.9V47l-0.3,0.4l-0.3,0.3l-0.3,0.1"/>
		<path class="st2" d="M271.2,47.3l0.1-0.1l0.3-0.1h0.7l0.3,0.1l0.1,0.1l0.1,0.3v0.3l-0.1,0.4l-1.6,1.6h1.8"/>
		<path class="st2" d="M275,48.4l0.4,0.1l0.1,0.1l0.1,0.3v0.4l-0.1,0.3l-0.1,0.1l-0.3,0.1H274V47h0.9l0.3,0.1l0.1,0.1l0.1,0.3v0.3
			l-0.1,0.3l-0.1,0.1L275,48.4H274"/>
		<path class="st2" d="M263.6,61v-2.3h0.5l0.3,0.1l0.2,0.2l0.1,0.2l0.1,0.4V60l-0.1,0.4l-0.1,0.2l-0.2,0.2l-0.3,0.1H263.6"/>
		<path class="st2" d="M267.1,61h-1.3"/>
		<path class="st2" d="M266.5,61v-2.3l-0.2,0.3l-0.2,0.2l-0.2,0.1"/>
		<path class="st2" d="M268.2,61h0.4l0.2-0.1l0.1-0.1l0.2-0.3l0.1-0.4v-0.9l-0.1-0.2l-0.1-0.1l-0.2-0.1h-0.4l-0.2,0.1l-0.1,0.1
			l-0.1,0.2v0.5l0.1,0.2l0.1,0.1l0.2,0.1h0.4L269,60l0.1-0.1l0.1-0.2"/>
	</g>
	<g>
		<path class="st1" d="M304,236.8l0.1,0.9"/>
		<path class="st1" d="M304.6,235.1l-0.4,0.8"/>
		<path class="st1" d="M305.2,234.5l-0.6,0.6"/>
		<path class="st1" d="M306,239.5l0.9,0.1"/>
		<path class="st1" d="M306,234.1l-0.8,0.4"/>
		<path class="st1" d="M305.2,239.1l0.8,0.4"/>
		<path class="st1" d="M304.2,237.7l0.4,0.8"/>
		<path class="st1" d="M304.2,235.9l-0.1,0.9"/>
		<path class="st1" d="M304.6,238.5l0.6,0.6"/>
		<path class="st1" d="M194.9,234.5l-0.8-0.4"/>
		<path class="st1" d="M196,236.8l-0.1-0.9"/>
		<path class="st1" d="M195.5,235.1l-0.6-0.6"/>
		<path class="st1" d="M193.2,234l-0.9,0.1"/>
		<path class="st1" d="M80.4,239.5l0.8-0.4"/>
		<path class="st1" d="M77.9,234.5l-0.6,0.6"/>
		<path class="st1" d="M76.7,236.8l0.1,0.9"/>
		<path class="st1" d="M78.7,234.1l-0.8,0.4"/>
		<path class="st1" d="M194.1,234.1l-0.9-0.1"/>
		<path class="st1" d="M76.8,237.7l0.4,0.8"/>
		<path class="st1" d="M195.5,238.5l0.4-0.8"/>
		<path class="st1" d="M82.4,236.8l-0.1-0.9"/>
		<path class="st1" d="M82.2,237.7l0.1-0.9"/>
		<path class="st1" d="M81.8,238.5l0.4-0.8"/>
		<path class="st1" d="M76.8,235.9l-0.1,0.9"/>
		<path class="st1" d="M81.2,239.1l0.6-0.6"/>
		<path class="st1" d="M77.9,239.1l0.8,0.4"/>
		<path class="st1" d="M195.9,235.9l-0.4-0.8"/>
		<path class="st1" d="M79.5,239.6l0.9-0.1"/>
		<path class="st1" d="M78.7,239.5l0.9,0.1"/>
		<path class="st1" d="M77.2,238.5l0.6,0.6"/>
		<path class="st1" d="M77.2,235.1l-0.4,0.8"/>
		<path class="st1" d="M195.9,237.7l0.1-0.9"/>
		<path class="st1" d="M306.9,234l-0.9,0.1"/>
		<path class="st1" d="M194.1,239.5l0.8-0.4"/>
		<path class="st1" d="M193.2,239.6l0.9-0.1"/>
		<path class="st1" d="M192.3,239.5l0.9,0.1"/>
		<path class="st1" d="M191.5,239.1l0.8,0.4"/>
		<path class="st1" d="M190.4,236.8l0.1,0.9"/>
		<path class="st1" d="M192.3,234.1l-0.8,0.4"/>
		<path class="st1" d="M308.5,239.1l0.6-0.6"/>
		<path class="st1" d="M190.5,235.9l-0.1,0.9"/>
		<path class="st1" d="M190.9,238.5l0.6,0.6"/>
		<path class="st1" d="M191.5,234.5l-0.6,0.6"/>
		<path class="st1" d="M309.7,236.8l-0.1-0.9"/>
		<path class="st1" d="M190.5,237.7l0.4,0.8"/>
		<path class="st1" d="M190.9,235.1l-0.4,0.8"/>
		<path class="st1" d="M307.8,239.5l0.8-0.4"/>
		<path class="st1" d="M307.8,234.1l-0.9-0.1"/>
		<path class="st1" d="M308.5,234.5l-0.8-0.4"/>
		<path class="st1" d="M309.2,235.1l-0.6-0.6"/>
		<path class="st1" d="M309.6,237.7l0.1-0.9"/>
		<path class="st1" d="M309.2,238.5l0.4-0.8"/>
		<path class="st1" d="M194.9,239.1l0.6-0.6"/>
		<path class="st1" d="M309.6,235.9l-0.4-0.8"/>
		<path class="st1" d="M306.9,239.6l0.9-0.1"/>
		<path class="st1" d="M81.8,65.1l0.4-0.8"/>
		<path class="st1" d="M79.5,66.3l0.9-0.1"/>
		<path class="st1" d="M81.2,61.2l-0.8-0.4"/>
		<path class="st1" d="M76.7,63.5l0.1,0.9"/>
		<path class="st1" d="M77.9,61.2l-0.6,0.6"/>
		<path class="st1" d="M80.4,66.2l0.8-0.4"/>
		<path class="st1" d="M77.2,65.1l0.6,0.6"/>
		<path class="st1" d="M306.9,60.6l-0.9,0.1"/>
		<path class="st1" d="M82.2,64.3l0.1-0.9"/>
		<path class="st1" d="M82.2,62.6l-0.4-0.8"/>
		<path class="st1" d="M77.9,65.8l0.8,0.4"/>
		<path class="st1" d="M82.4,63.5l-0.1-0.9"/>
		<path class="st1" d="M78.7,60.8l-0.8,0.4"/>
		<path class="st1" d="M81.2,65.8l0.6-0.6"/>
		<path class="st1" d="M78.7,66.2l0.9,0.1"/>
		<path class="st1" d="M76.8,64.3l0.4,0.8"/>
		<path class="st1" d="M80.4,60.8l-0.9-0.1"/>
		<path class="st1" d="M81.8,61.8l-0.6-0.6"/>
		<path class="st1" d="M77.2,61.8l-0.4,0.8"/>
		<path class="st1" d="M79.5,60.6l-0.9,0.1"/>
		<path class="st1" d="M76.8,62.6l-0.1,0.9"/>
		<path class="st1" d="M191.5,65.8l0.8,0.4"/>
		<path class="st1" d="M309.7,63.5l-0.1-0.9"/>
		<path class="st1" d="M304.6,65.1l0.6,0.6"/>
		<path class="st1" d="M193.2,60.6l-0.9,0.1"/>
		<path class="st1" d="M193.2,66.3l0.9-0.1"/>
		<path class="st1" d="M194.1,60.8l-0.9-0.1"/>
		<path class="st1" d="M194.9,61.2l-0.8-0.4"/>
		<path class="st1" d="M309.2,65.1l0.4-0.8"/>
		<path class="st1" d="M308.5,65.8l0.6-0.6"/>
		<path class="st1" d="M304.2,64.3l0.4,0.8"/>
		<path class="st1" d="M192.3,66.2l0.9,0.1"/>
		<path class="st1" d="M306.9,66.3l0.9-0.1"/>
		<path class="st1" d="M195.5,61.8l-0.6-0.6"/>
		<path class="st1" d="M306,66.2l0.9,0.1"/>
		<path class="st1" d="M190.9,65.1l0.6,0.6"/>
		<path class="st1" d="M190.4,63.5l0.1,0.9"/>
		<path class="st1" d="M305.2,65.8l0.8,0.4"/>
		<path class="st1" d="M304.6,61.8l-0.4,0.8"/>
		<path class="st1" d="M240.1,76.3V116"/>
		<path class="st1" d="M195.5,65.1l0.4-0.8"/>
		<path class="st1" d="M196,63.5l-0.1-0.9"/>
		<path class="st1" d="M192.3,60.8l-0.8,0.4"/>
		<path class="st1" d="M305.2,61.2l-0.6,0.6"/>
		<path class="st1" d="M254.4,116V76.3"/>
		<path class="st1" d="M294.1,76.3V116"/>
		<path class="st1" d="M194.9,65.8l0.6-0.6"/>
		<path class="st1" d="M306,60.8l-0.8,0.4"/>
		<path class="st1" d="M195.9,62.6l-0.4-0.8"/>
		<path class="st1" d="M200.4,116V76.3"/>
		<path class="st1" d="M195.9,64.3l0.1-0.9"/>
		<path class="st1" d="M190.5,64.3l0.4,0.8"/>
		<path class="st1" d="M190.5,62.6l-0.1,0.9"/>
		<path class="st1" d="M304.2,62.6l-0.1,0.9"/>
		<path class="st1" d="M307.8,60.8l-0.9-0.1"/>
		<path class="st1" d="M308.5,61.2l-0.8-0.4"/>
		<path class="st1" d="M309.2,61.8l-0.6-0.6"/>
		<path class="st1" d="M190.9,61.8l-0.4,0.8"/>
		<path class="st1" d="M309.6,62.6l-0.4-0.8"/>
		<path class="st1" d="M194.1,66.2l0.8-0.4"/>
		<path class="st1" d="M294.1,116h-39.7"/>
		<path class="st1" d="M191.5,61.2l-0.6,0.6"/>
		<path class="st1" d="M254.4,76.3h39.7"/>
		<path class="st1" d="M309.6,64.3l0.1-0.9"/>
		<path class="st1" d="M304,63.5l0.1,0.9"/>
		<path class="st1" d="M240.1,116h-39.7"/>
		<path class="st1" d="M307.8,66.2l0.8-0.4"/>
		<path class="st1" d="M146.4,170v-39.7"/>
		<path class="st1" d="M146.4,76.3h39.7"/>
		<path class="st1" d="M186.1,170h-39.7"/>
		<path class="st1" d="M146.4,130.3h39.7"/>
		<path class="st1" d="M294.1,170h-39.7"/>
		<path class="st1" d="M240.1,170h-39.7"/>
		<path class="st1" d="M200.4,130.3h39.7"/>
		<path class="st1" d="M92.4,116V76.3"/>
		<path class="st1" d="M200.4,170v-39.7"/>
		<path class="st1" d="M132.1,76.3V116"/>
		<path class="st1" d="M92.4,76.3h39.7"/>
		<path class="st1" d="M294.1,130.3V170"/>
		<path class="st1" d="M186.1,130.3V170"/>
		<path class="st1" d="M254.4,130.3h39.7"/>
		<path class="st1" d="M92.4,170v-39.7"/>
		<path class="st1" d="M132.1,170H92.4"/>
		<path class="st1" d="M200.4,76.3h39.7"/>
		<path class="st1" d="M146.4,116V76.3"/>
		<path class="st1" d="M186.1,116h-39.7"/>
		<path class="st1" d="M186.1,76.3V116"/>
		<path class="st1" d="M240.1,130.3V170"/>
		<path class="st1" d="M132.1,116H92.4"/>
		<path class="st1" d="M254.4,170v-39.7"/>
		<path class="st1" d="M294.1,184.3V224"/>
		<path class="st1" d="M240.1,184.3V224"/>
		<path class="st1" d="M81.8,235.1l-0.6-0.6"/>
		<path class="st1" d="M294.1,224h-39.7"/>
		<path class="st1" d="M92.4,130.3h39.7"/>
		<path class="st1" d="M254.4,224v-39.7"/>
		<path class="st1" d="M200.4,224v-39.7"/>
		<path class="st1" d="M146.4,224v-39.7"/>
		<path class="st1" d="M186.1,224h-39.7"/>
		<path class="st1" d="M92.4,224v-39.7"/>
		<path class="st1" d="M79.5,234l-0.9,0.1"/>
		<path class="st1" d="M81.2,234.5l-0.8-0.4"/>
		<path class="st1" d="M132.1,224H92.4"/>
		<path class="st1" d="M186.1,184.3V224"/>
		<path class="st1" d="M82.2,235.9l-0.4-0.8"/>
		<path class="st1" d="M146.4,184.3h39.7"/>
		<path class="st1" d="M254.4,184.3h39.7"/>
		<path class="st1" d="M240.1,224h-39.7"/>
		<path class="st1" d="M200.4,184.3h39.7"/>
		<path class="st1" d="M132.1,184.3V224"/>
		<path class="st1" d="M92.4,184.3h39.7"/>
		<path class="st1" d="M80.4,234.1l-0.9-0.1"/>
		<path class="st1" d="M132.1,130.3V170"/>
		<path class="st1" d="M123.5,66.6V81"/>
		<path class="st1" d="M102.6,66.6h20.9"/>
		<path class="st1" d="M102.6,81V66.6"/>
		<path class="st1" d="M123.5,81h-20.9"/>
	</g>
	<g>
		<path class="st3" d="M241.6,128.9v42.5"/>
		<path class="st3" d="M199.1,128.9h42.5"/>
		<path class="st3" d="M199.1,171.4v-42.5"/>
		<path class="st3" d="M241.6,171.4h-42.5"/>
		<path class="st3" d="M239.9,130.6v39.1"/>
		<path class="st3" d="M200.8,169.7v-39.1"/>
		<path class="st3" d="M200.8,169.7h39.1"/>
		<path class="st3" d="M239.9,130.6h-39.1"/>
		<path class="st3" d="M227.7,158.9v9.1"/>
		<path class="st3" d="M212.9,168h14.7"/>
		<path class="st3" d="M212.9,158.9v9.1"/>
		<path class="st3" d="M227.7,158.9h-14.7"/>
		<path class="st3" d="M187.4,182.9v42.5"/>
		<path class="st3" d="M144.9,182.9h42.5"/>
		<path class="st3" d="M144.9,225.4v-42.5"/>
		<path class="st3" d="M187.4,225.4h-42.5"/>
		<path class="st3" d="M185.7,184.6v39.1"/>
		<path class="st3" d="M146.6,223.7v-39.1"/>
		<path class="st3" d="M146.6,223.7h39.1"/>
		<path class="st3" d="M185.7,184.6h-39.1"/>
		<path class="st3" d="M173.5,212.9v9.1"/>
		<path class="st3" d="M158.8,222h14.7"/>
		<path class="st3" d="M158.8,212.9v9.1"/>
		<path class="st3" d="M173.5,212.9h-14.7"/>
		<path class="st3" d="M133.6,182.9v42.5"/>
		<path class="st3" d="M91.1,182.9h42.5"/>
		<path class="st3" d="M91.1,225.4v-42.5"/>
		<path class="st3" d="M133.6,225.4H91.1"/>
		<path class="st3" d="M131.9,184.6v39.1"/>
		<path class="st3" d="M92.8,223.7v-39.1"/>
		<path class="st3" d="M92.8,223.7h39.1"/>
		<path class="st3" d="M131.9,184.6H92.8"/>
		<path class="st3" d="M119.7,212.9v9.1"/>
		<path class="st3" d="M104.9,222h14.7"/>
		<path class="st3" d="M104.9,212.9v9.1"/>
		<path class="st3" d="M119.7,212.9h-14.7"/>
		<path class="st3" d="M187.4,128.9v42.5"/>
		<path class="st3" d="M144.9,128.9h42.5"/>
		<path class="st3" d="M144.9,171.4v-42.5"/>
		<path class="st3" d="M187.4,171.4h-42.5"/>
		<path class="st3" d="M185.7,130.6v39.1"/>
		<path class="st3" d="M146.6,169.7v-39.1"/>
		<path class="st3" d="M146.6,169.7h39.1"/>
		<path class="st3" d="M185.7,130.6h-39.1"/>
		<path class="st3" d="M173.5,158.9v9.1"/>
		<path class="st3" d="M158.8,168h14.7"/>
		<path class="st3" d="M158.8,158.9v9.1"/>
		<path class="st3" d="M173.5,158.9h-14.7"/>
		<path class="st3" d="M295.6,74.9v42.5"/>
		<path class="st3" d="M253.1,74.9h42.5"/>
		<path class="st3" d="M253.1,117.4V74.9"/>
		<path class="st3" d="M295.6,117.4h-42.5"/>
		<path class="st3" d="M293.9,76.6v39.1"/>
		<path class="st3" d="M254.8,115.7V76.6"/>
		<path class="st3" d="M254.8,115.7h39.1"/>
		<path class="st3" d="M293.9,76.6h-39.1"/>
		<path class="st3" d="M281.7,104.9v9.1"/>
		<path class="st3" d="M266.9,114h14.7"/>
		<path class="st3" d="M266.9,104.9v9.1"/>
		<path class="st3" d="M281.7,104.9h-14.7"/>
		<path class="st3" d="M133.4,128.9v42.5"/>
		<path class="st3" d="M90.9,128.9h42.5"/>
		<path class="st3" d="M90.9,171.4v-42.5"/>
		<path class="st3" d="M133.4,171.4H90.9"/>
		<path class="st3" d="M131.7,130.6v39.1"/>
		<path class="st3" d="M92.6,169.7v-39.1"/>
		<path class="st3" d="M92.6,169.7h39.1"/>
		<path class="st3" d="M131.7,130.6H92.6"/>
		<path class="st3" d="M119.5,158.9v9.1"/>
		<path class="st3" d="M104.8,168h14.7"/>
		<path class="st3" d="M104.8,158.9v9.1"/>
		<path class="st3" d="M119.5,158.9h-14.7"/>
		<path class="st3" d="M133.4,74.9v42.5"/>
		<path class="st3" d="M90.9,74.9h42.5"/>
		<path class="st3" d="M90.9,117.4V74.9"/>
		<path class="st3" d="M133.4,117.4H90.9"/>
		<path class="st3" d="M131.7,76.6v39.1"/>
		<path class="st3" d="M92.6,115.7V76.6"/>
		<path class="st3" d="M92.6,115.7h39.1"/>
		<path class="st3" d="M131.7,76.6H92.6"/>
		<path class="st3" d="M119.5,104.9v9.1"/>
		<path class="st3" d="M104.8,114h14.7"/>
		<path class="st3" d="M104.8,104.9v9.1"/>
		<path class="st3" d="M119.5,104.9h-14.7"/>
		<path class="st3" d="M187.6,74.9v42.5"/>
		<path class="st3" d="M145.1,74.9h42.5"/>
		<path class="st3" d="M145.1,117.4V74.9"/>
		<path class="st3" d="M187.6,117.4h-42.5"/>
		<path class="st3" d="M185.9,76.6v39.1"/>
		<path class="st3" d="M146.8,115.7V76.6"/>
		<path class="st3" d="M146.8,115.7h39.1"/>
		<path class="st3" d="M185.9,76.6h-39.1"/>
		<path class="st3" d="M173.7,104.9v9.1"/>
		<path class="st3" d="M158.9,114h14.7"/>
		<path class="st3" d="M158.9,104.9v9.1"/>
		<path class="st3" d="M173.7,104.9h-14.7"/>
		<path class="st3" d="M241.4,74.9v42.5"/>
		<path class="st3" d="M198.9,74.9h42.5"/>
		<path class="st3" d="M198.9,117.4V74.9"/>
		<path class="st3" d="M241.4,117.4h-42.5"/>
		<path class="st3" d="M239.7,76.6v39.1"/>
		<path class="st3" d="M200.6,115.7V76.6"/>
		<path class="st3" d="M200.6,115.7h39.1"/>
		<path class="st3" d="M239.7,76.6h-39.1"/>
		<path class="st3" d="M227.5,104.9v9.1"/>
		<path class="st3" d="M212.8,114h14.7"/>
		<path class="st3" d="M212.8,104.9v9.1"/>
		<path class="st3" d="M227.5,104.9h-14.7"/>
		<path class="st3" d="M241.4,182.9v42.5"/>
		<path class="st3" d="M198.9,182.9h42.5"/>
		<path class="st3" d="M198.9,225.4v-42.5"/>
		<path class="st3" d="M241.4,225.4h-42.5"/>
		<path class="st3" d="M239.7,184.6v39.1"/>
		<path class="st3" d="M200.6,223.7v-39.1"/>
		<path class="st3" d="M200.6,223.7h39.1"/>
		<path class="st3" d="M239.7,184.6h-39.1"/>
		<path class="st3" d="M227.5,212.9v9.1"/>
		<path class="st3" d="M212.8,222h14.7"/>
		<path class="st3" d="M212.8,212.9v9.1"/>
		<path class="st3" d="M227.5,212.9h-14.7"/>
		<path class="st3" d="M295.4,128.9v42.5"/>
		<path class="st3" d="M252.9,128.9h42.5"/>
		<path class="st3" d="M252.9,171.4v-42.5"/>
		<path class="st3" d="M295.4,171.4h-42.5"/>
		<path class="st3" d="M293.7,130.6v39.1"/>
		<path class="st3" d="M254.6,169.7v-39.1"/>
		<path class="st3" d="M254.6,169.7h39.1"/>
		<path class="st3" d="M293.7,130.6h-39.1"/>
		<path class="st3" d="M281.5,158.9v9.1"/>
		<path class="st3" d="M266.8,168h14.7"/>
		<path class="st3" d="M266.8,158.9v9.1"/>
		<path class="st3" d="M281.5,158.9h-14.7"/>
		<path class="st3" d="M295.6,183v42.5"/>
		<path class="st3" d="M253.1,183h42.5"/>
		<path class="st3" d="M253.1,225.6V183"/>
		<path class="st3" d="M295.6,225.6h-42.5"/>
		<path class="st3" d="M293.9,184.7v39.1"/>
		<path class="st3" d="M254.8,223.9v-39.1"/>
		<path class="st3" d="M254.8,223.9h39.1"/>
		<path class="st3" d="M293.9,184.7h-39.1"/>
		<path class="st3" d="M281.7,213.1v9.1"/>
		<path class="st3" d="M266.9,222.2h14.7"/>
		<path class="st3" d="M266.9,213.1v9.1"/>
		<path class="st3" d="M281.7,213.1h-14.7"/>
	</g>
	<g>
		<path class="st4" d="M73.8,242.5V50.6"/>
		<path class="st4" d="M312.7,242.5H73.8"/>
		<path class="st4" d="M312.7,50.6v191.9"/>
		<path class="st4" d="M73.8,50.6h238.9"/>
	</g>
</g>
<g id="Layer_2">
	<path class="st5" d="M309.8,242.5H76.6c-1.6,0-2.8-1.3-2.8-2.8V53.4c0-1.6,1.3-2.8,2.8-2.8h233.2c1.6,0,2.8,1.3,2.8,2.8v186.2
		C312.7,241.2,311.4,242.5,309.8,242.5z"/>
</g>
</svg>
