G04 #@! TF.GenerationSoftware,KiCad,Pcbnew,(5.0.2)-1*
G04 #@! TF.CreationDate,2019-01-24T01:53:05-05:00*
G04 #@! TF.ProjectId,plate,706c6174-652e-46b6-9963-61645f706362,rev?*
G04 #@! TF.SameCoordinates,Original*
G04 #@! TF.FileFunction,Soldermask,Top*
G04 #@! TF.FilePolarity,Negative*
%FSLAX46Y46*%
G04 Gerber Fmt 4.6, Leading zero omitted, Abs format (unit mm)*
G04 Created by KiCad (PCBNEW (5.0.2)-1) date 1/24/2019 1:53:05 AM*
%MOMM*%
%LPD*%
G01*
G04 APERTURE LIST*
%ADD10C,0.100000*%
G04 APERTURE END LIST*
D10*
G36*
X96411234Y-75474232D02*
X96620702Y-75560996D01*
X96809223Y-75686962D01*
X96969538Y-75847277D01*
X97095504Y-76035798D01*
X97182268Y-76245266D01*
X97226500Y-76467635D01*
X97226500Y-76694365D01*
X97182268Y-76916734D01*
X97095504Y-77126202D01*
X96969538Y-77314723D01*
X96809223Y-77475038D01*
X96620702Y-77601004D01*
X96411234Y-77687768D01*
X96188865Y-77732000D01*
X95962135Y-77732000D01*
X95739766Y-77687768D01*
X95530298Y-77601004D01*
X95341777Y-77475038D01*
X95181462Y-77314723D01*
X95055496Y-77126202D01*
X94968732Y-76916734D01*
X94924500Y-76694365D01*
X94924500Y-76467635D01*
X94968732Y-76245266D01*
X95055496Y-76035798D01*
X95181462Y-75847277D01*
X95341777Y-75686962D01*
X95530298Y-75560996D01*
X95739766Y-75474232D01*
X95962135Y-75430000D01*
X96188865Y-75430000D01*
X96411234Y-75474232D01*
X96411234Y-75474232D01*
G37*
G36*
X56342734Y-75474232D02*
X56552202Y-75560996D01*
X56740723Y-75686962D01*
X56901038Y-75847277D01*
X57027004Y-76035798D01*
X57113768Y-76245266D01*
X57158000Y-76467635D01*
X57158000Y-76694365D01*
X57113768Y-76916734D01*
X57027004Y-77126202D01*
X56901038Y-77314723D01*
X56740723Y-77475038D01*
X56552202Y-77601004D01*
X56342734Y-77687768D01*
X56120365Y-77732000D01*
X55893635Y-77732000D01*
X55671266Y-77687768D01*
X55461798Y-77601004D01*
X55273277Y-77475038D01*
X55112962Y-77314723D01*
X54986996Y-77126202D01*
X54900232Y-76916734D01*
X54856000Y-76694365D01*
X54856000Y-76467635D01*
X54900232Y-76245266D01*
X54986996Y-76035798D01*
X55112962Y-75847277D01*
X55273277Y-75686962D01*
X55461798Y-75560996D01*
X55671266Y-75474232D01*
X55893635Y-75430000D01*
X56120365Y-75430000D01*
X56342734Y-75474232D01*
X56342734Y-75474232D01*
G37*
G36*
X16210734Y-75474232D02*
X16420202Y-75560996D01*
X16608723Y-75686962D01*
X16769038Y-75847277D01*
X16895004Y-76035798D01*
X16981768Y-76245266D01*
X17026000Y-76467635D01*
X17026000Y-76694365D01*
X16981768Y-76916734D01*
X16895004Y-77126202D01*
X16769038Y-77314723D01*
X16608723Y-77475038D01*
X16420202Y-77601004D01*
X16210734Y-77687768D01*
X15988365Y-77732000D01*
X15761635Y-77732000D01*
X15539266Y-77687768D01*
X15329798Y-77601004D01*
X15141277Y-77475038D01*
X14980962Y-77314723D01*
X14854996Y-77126202D01*
X14768232Y-76916734D01*
X14724000Y-76694365D01*
X14724000Y-76467635D01*
X14768232Y-76245266D01*
X14854996Y-76035798D01*
X14980962Y-75847277D01*
X15141277Y-75686962D01*
X15329798Y-75560996D01*
X15539266Y-75474232D01*
X15761635Y-75430000D01*
X15988365Y-75430000D01*
X16210734Y-75474232D01*
X16210734Y-75474232D01*
G37*
G36*
X96411234Y-14323732D02*
X96620702Y-14410496D01*
X96809223Y-14536462D01*
X96969538Y-14696777D01*
X97095504Y-14885298D01*
X97182268Y-15094766D01*
X97226500Y-15317135D01*
X97226500Y-15543865D01*
X97182268Y-15766234D01*
X97095504Y-15975702D01*
X96969538Y-16164223D01*
X96809223Y-16324538D01*
X96620702Y-16450504D01*
X96411234Y-16537268D01*
X96188865Y-16581500D01*
X95962135Y-16581500D01*
X95739766Y-16537268D01*
X95530298Y-16450504D01*
X95341777Y-16324538D01*
X95181462Y-16164223D01*
X95055496Y-15975702D01*
X94968732Y-15766234D01*
X94924500Y-15543865D01*
X94924500Y-15317135D01*
X94968732Y-15094766D01*
X95055496Y-14885298D01*
X95181462Y-14696777D01*
X95341777Y-14536462D01*
X95530298Y-14410496D01*
X95739766Y-14323732D01*
X95962135Y-14279500D01*
X96188865Y-14279500D01*
X96411234Y-14323732D01*
X96411234Y-14323732D01*
G37*
G36*
X56342734Y-14323732D02*
X56552202Y-14410496D01*
X56740723Y-14536462D01*
X56901038Y-14696777D01*
X57027004Y-14885298D01*
X57113768Y-15094766D01*
X57158000Y-15317135D01*
X57158000Y-15543865D01*
X57113768Y-15766234D01*
X57027004Y-15975702D01*
X56901038Y-16164223D01*
X56740723Y-16324538D01*
X56552202Y-16450504D01*
X56342734Y-16537268D01*
X56120365Y-16581500D01*
X55893635Y-16581500D01*
X55671266Y-16537268D01*
X55461798Y-16450504D01*
X55273277Y-16324538D01*
X55112962Y-16164223D01*
X54986996Y-15975702D01*
X54900232Y-15766234D01*
X54856000Y-15543865D01*
X54856000Y-15317135D01*
X54900232Y-15094766D01*
X54986996Y-14885298D01*
X55112962Y-14696777D01*
X55273277Y-14536462D01*
X55461798Y-14410496D01*
X55671266Y-14323732D01*
X55893635Y-14279500D01*
X56120365Y-14279500D01*
X56342734Y-14323732D01*
X56342734Y-14323732D01*
G37*
G36*
X16210734Y-14323732D02*
X16420202Y-14410496D01*
X16608723Y-14536462D01*
X16769038Y-14696777D01*
X16895004Y-14885298D01*
X16981768Y-15094766D01*
X17026000Y-15317135D01*
X17026000Y-15543865D01*
X16981768Y-15766234D01*
X16895004Y-15975702D01*
X16769038Y-16164223D01*
X16608723Y-16324538D01*
X16420202Y-16450504D01*
X16210734Y-16537268D01*
X15988365Y-16581500D01*
X15761635Y-16581500D01*
X15539266Y-16537268D01*
X15329798Y-16450504D01*
X15141277Y-16324538D01*
X14980962Y-16164223D01*
X14854996Y-15975702D01*
X14768232Y-15766234D01*
X14724000Y-15543865D01*
X14724000Y-15317135D01*
X14768232Y-15094766D01*
X14854996Y-14885298D01*
X14980962Y-14696777D01*
X15141277Y-14536462D01*
X15329798Y-14410496D01*
X15539266Y-14323732D01*
X15761635Y-14279500D01*
X15988365Y-14279500D01*
X16210734Y-14323732D01*
X16210734Y-14323732D01*
G37*
M02*
